<?xml version="1.0" encoding="utf-8" standalone="no"?>
<!DOCTYPE svg PUBLIC "-//W3C//DTD SVG 1.1//EN"
  "http://www.w3.org/Graphics/SVG/1.1/DTD/svg11.dtd">
<!-- Created with matplotlib (http://matplotlib.org/) -->
<svg height="432pt" version="1.1" viewBox="0 0 576 432" width="576pt" xmlns="http://www.w3.org/2000/svg" xmlns:xlink="http://www.w3.org/1999/xlink">
 <defs>
  <style type="text/css">
*{stroke-linecap:butt;stroke-linejoin:round;stroke-miterlimit:100000;}
  </style>
 </defs>
 <g id="figure_1">
  <g id="patch_1">
   <path d="M 0 432 
L 576 432 
L 576 0 
L 0 0 
z
" style="fill:#ffffff;"/>
  </g>
  <g id="axes_1">
   <g id="patch_2">
    <path d="M 74.48625 368.71875 
L 539.38125 368.71875 
L 539.38125 40.852625 
L 74.48625 40.852625 
z
" style="fill:#ffffff;"/>
   </g>
   <g id="line2d_1">
    <path clip-path="url(#p5af31c9d7b)" d="M 93.813932 368.71875 
L 93.813932 367.722196 
L 93.924584 366.725643 
L 94.200559 365.729089 
L 94.605599 362.739429 
L 95.188977 360.746321 
L 95.784045 359.749768 
L 95.835621 358.753214 
L 96.161848 356.760107 
L 96.182743 355.763554 
L 96.454716 354.767 
L 96.504383 353.770446 
L 97.352495 352.773893 
L 97.36445 351.777339 
L 97.576111 350.780786 
L 97.611915 349.784232 
L 97.916987 348.787679 
L 98.58264 343.804911 
L 98.983022 342.808357 
L 99.569347 341.811804 
L 99.737657 340.81525 
L 99.769285 339.818696 
L 100.175467 338.822143 
L 100.314216 337.825589 
L 100.34036 335.832482 
L 100.524597 334.835929 
L 100.539558 333.839375 
L 100.764102 332.842821 
L 101.523372 330.849714 
L 102.054227 329.853161 
L 102.213191 328.856607 
L 102.884398 327.860054 
L 103.730001 326.8635 
L 104.395791 325.866946 
L 104.601916 324.870393 
L 104.632211 323.873839 
L 104.882727 321.880732 
L 106.244031 318.891071 
L 107.014107 317.894518 
L 107.262699 316.897964 
L 107.390724 314.904857 
L 108.434024 312.91175 
L 109.358216 311.915196 
L 109.559463 310.918643 
L 110.007753 309.922089 
L 110.3012 307.928982 
L 111.016506 306.932429 
L 112.271642 305.935875 
L 112.341242 304.939321 
L 112.554198 303.942768 
L 112.887839 302.946214 
L 112.904369 301.949661 
L 113.041483 300.953107 
L 113.118932 298.96 
L 113.436195 297.963446 
L 113.855 293.977232 
L 114.386703 292.980679 
L 114.524675 291.984125 
L 115.297538 289.991018 
L 116.110143 288.994464 
L 116.147665 287.997911 
L 116.634258 287.001357 
L 116.696431 286.004804 
L 117.101167 285.00825 
L 117.77494 284.011696 
L 117.8906 283.015143 
L 118.842631 280.025482 
L 119.057317 278.032375 
L 119.485569 277.035821 
L 120.243091 276.039268 
L 120.996011 274.046161 
L 121.16414 273.049607 
L 122.410365 272.053054 
L 122.71706 271.0565 
L 123.192222 270.059946 
L 123.364072 267.070286 
L 123.462563 266.073732 
L 124.731807 263.084071 
L 124.954508 262.087518 
L 125.065694 260.094411 
L 125.746431 259.097857 
L 125.802347 257.10475 
L 126.119726 256.108196 
L 126.375828 254.115089 
L 127.171124 253.118536 
L 127.436421 252.121982 
L 127.97933 251.125429 
L 129.514389 250.128875 
L 129.541574 249.132321 
L 130.608025 244.149554 
L 130.796543 243.153 
L 130.843625 242.156446 
L 131.176371 241.159893 
L 131.593637 236.177125 
L 131.934467 235.180571 
L 131.959315 234.184018 
L 132.395252 233.187464 
L 132.495526 232.190911 
L 132.998397 231.194357 
L 133.593078 229.20125 
L 135.033658 226.211589 
L 135.128188 224.218482 
L 136.056623 223.221929 
L 136.309662 221.228821 
L 136.32305 220.232268 
L 136.695681 219.235714 
L 137.112144 216.246054 
L 138.411667 215.2495 
L 138.73523 214.252946 
L 139.454469 213.256393 
L 140.891593 212.259839 
L 143.331065 211.263286 
L 144.04008 210.266732 
L 144.940739 208.273625 
L 144.998868 207.277071 
L 145.425633 206.280518 
L 145.468701 205.283964 
L 146.026253 204.287411 
L 146.123674 203.290857 
L 147.443109 201.29775 
L 147.853473 200.301196 
L 148.061199 199.304643 
L 148.898145 197.311536 
L 149.110616 195.318429 
L 150.105193 193.325321 
L 150.168554 191.332214 
L 150.728838 190.335661 
L 150.796033 189.339107 
L 152.120956 188.342554 
L 153.198916 187.346 
L 153.262792 186.349446 
L 154.828742 185.352893 
L 155.1742 182.363232 
L 155.657088 181.366679 
L 155.733486 179.373571 
L 156.423876 178.377018 
L 156.536093 176.383911 
L 157.199046 171.401143 
L 158.36936 170.404589 
L 159.03982 169.408036 
L 159.268215 168.411482 
L 160.404784 167.414929 
L 160.762307 166.418375 
L 161.239837 163.428714 
L 161.680078 162.432161 
L 162.927501 161.435607 
L 163.33201 160.439054 
L 165.304541 158.445946 
L 165.389012 157.449393 
L 165.667112 156.452839 
L 165.734463 155.456286 
L 166.260761 153.463179 
L 166.623852 152.466625 
L 168.293723 151.470071 
L 168.832439 150.473518 
L 169.264625 148.480411 
L 171.296694 147.483857 
L 171.691031 146.487304 
L 172.810483 145.49075 
L 172.897786 144.494196 
L 173.628477 143.497643 
L 174.107299 142.501089 
L 175.592517 141.504536 
L 175.615222 140.507982 
L 176.585312 139.511429 
L 177.35283 137.518321 
L 178.74373 136.521768 
L 179.288364 135.525214 
L 180.254454 134.528661 
L 180.877516 133.532107 
L 182.115391 132.535554 
L 183.7536 131.539 
L 184.746837 130.542446 
L 186.021844 128.549339 
L 187.424463 127.552786 
L 187.568026 126.556232 
L 188.268584 125.559679 
L 188.316953 124.563125 
L 189.340607 123.566571 
L 189.626083 120.576911 
L 190.320177 119.580357 
L 190.432466 118.583804 
L 190.833127 117.58725 
L 191.038068 116.590696 
L 191.438195 115.594143 
L 193.10392 114.597589 
L 193.25496 113.601036 
L 194.033767 112.604482 
L 194.509106 111.607929 
L 194.520418 110.611375 
L 195.099545 109.614821 
L 195.164686 108.618268 
L 195.501518 107.621714 
L 195.689147 106.625161 
L 196.074333 105.628607 
L 196.821085 104.632054 
L 197.3194 103.6355 
L 201.751579 102.638946 
L 204.571707 101.642393 
L 206.094286 100.645839 
L 206.751879 99.649286 
L 207.938756 98.652732 
L 209.383174 97.656179 
L 209.757422 95.663071 
L 211.263354 94.666518 
L 212.347787 93.669964 
L 212.379546 92.673411 
L 212.792316 91.676857 
L 214.468404 89.68375 
L 219.50384 88.687196 
L 219.661738 87.690643 
L 223.516976 86.694089 
L 223.659391 85.697536 
L 226.929871 84.700982 
L 229.505472 83.704429 
L 229.980828 82.707875 
L 230.01284 81.711321 
L 231.844667 80.714768 
L 234.666387 79.718214 
L 235.253861 78.721661 
L 237.065411 77.725107 
L 238.387403 76.728554 
L 241.17699 75.732 
L 246.649792 74.735446 
L 250.806277 73.738893 
L 251.178495 72.742339 
L 254.063729 71.745786 
L 259.250735 70.749232 
L 260.296438 69.752679 
L 261.606361 68.756125 
L 269.500577 67.759571 
L 270.461406 66.763018 
L 278.731 65.766464 
L 278.835838 64.769911 
L 280.930669 63.773357 
L 281.274361 62.776804 
L 287.321487 61.78025 
L 288.150652 60.783696 
L 292.001619 59.787143 
L 293.977503 58.790589 
L 302.196484 57.794036 
L 308.007198 56.797482 
L 309.199256 55.800929 
L 309.584353 54.804375 
L 310.216459 53.807821 
L 313.125425 52.811268 
L 320.823803 51.814714 
L 322.212258 50.818161 
L 324.218613 49.821607 
L 324.473622 48.825054 
L 330.627806 46.831946 
L 331.884741 45.835393 
L 374.678296 44.838839 
L 374.780331 43.842286 
L 411.725229 41.849179 
L 495.629693 40.852625 
L 495.629693 40.852625 
" style="fill:none;stroke:#0000ff;stroke-linecap:square;stroke-width:2.0;"/>
   </g>
   <g id="line2d_2">
    <path clip-path="url(#p5af31c9d7b)" d="M 75.232151 368.71875 
L 75.232151 367.495369 
L 75.301989 366.271988 
L 76.669903 365.048607 
L 76.811086 363.825226 
L 77.467391 361.378464 
L 77.672351 360.155083 
L 77.813507 357.70832 
L 78.096298 354.038177 
L 78.372944 352.814796 
L 79.100452 351.591415 
L 79.605813 350.368034 
L 80.082541 347.921272 
L 80.097035 345.47451 
L 80.354733 344.251129 
L 80.812402 343.027748 
L 81.069739 341.804367 
L 81.108577 340.580986 
L 81.648975 338.134223 
L 81.749049 336.910842 
L 82.515077 335.687461 
L 82.594636 333.240699 
L 82.958025 332.017318 
L 84.036437 324.677032 
L 84.107802 323.453651 
L 84.728971 321.006889 
L 84.878431 317.336745 
L 86.051257 314.889983 
L 86.411482 313.666602 
L 86.517457 312.443221 
L 87.113173 311.21984 
L 87.494773 305.102935 
L 87.729111 303.879554 
L 87.939478 301.432792 
L 88.262661 300.20941 
L 89.179878 298.986029 
L 89.27951 297.762648 
L 90.683847 294.092505 
L 90.74386 292.869124 
L 91.037299 291.645743 
L 91.355022 287.9756 
L 91.571471 286.752219 
L 91.653199 285.528838 
L 92.21393 284.305457 
L 92.747546 279.411932 
L 93.091217 278.188551 
L 93.468022 275.741789 
L 93.491755 274.518408 
L 93.653143 273.295027 
L 93.685664 272.071646 
L 93.87869 270.848265 
L 93.955794 269.624884 
L 94.189206 268.401503 
L 94.594207 267.178122 
L 94.732575 264.73136 
L 96.470425 262.284597 
L 96.598696 259.837835 
L 97.464932 254.944311 
L 98.143889 253.72093 
L 98.428428 250.050787 
L 98.681418 248.827406 
L 98.800444 245.157263 
L 99.184105 243.933882 
L 99.345804 242.7105 
L 99.905788 241.487119 
L 100.126276 240.263738 
L 100.873187 239.040357 
L 101.154603 237.816976 
L 101.200426 236.593595 
L 101.431789 235.370214 
L 101.501168 232.923452 
L 102.116406 230.47669 
L 102.800321 229.253309 
L 102.924677 226.806547 
L 103.427564 223.136403 
L 103.650773 221.913022 
L 104.005342 220.689641 
L 104.179204 219.46626 
L 104.189067 218.242879 
L 104.47638 217.019498 
L 104.968027 215.796117 
L 105.216375 214.572736 
L 105.241308 213.349355 
L 105.61828 210.902593 
L 105.62705 209.679212 
L 106.145073 208.455831 
L 106.321878 207.23245 
L 107.048805 206.009069 
L 107.264278 203.562306 
L 107.497966 201.115544 
L 108.413335 197.445401 
L 108.918036 196.22202 
L 108.937409 194.998639 
L 109.387255 193.775258 
L 109.916506 191.328496 
L 110.849698 190.105115 
L 111.262389 188.881734 
L 111.29812 187.658353 
L 111.795354 186.434972 
L 113.232495 185.21159 
L 113.397417 183.988209 
L 114.977652 182.764828 
L 115.206301 181.541447 
L 115.713754 180.318066 
L 116.369204 179.094685 
L 116.631743 177.871304 
L 116.685306 176.647923 
L 117.174432 175.424542 
L 118.675488 174.201161 
L 118.92765 172.97778 
L 119.542057 171.754399 
L 119.903223 170.531018 
L 121.369923 169.307637 
L 121.423897 166.860875 
L 121.762473 164.414112 
L 122.890336 161.96735 
L 123.8151 160.743969 
L 124.170371 159.520588 
L 124.235546 158.297207 
L 124.522215 157.073826 
L 124.594383 155.850445 
L 125.982351 153.403683 
L 126.000727 152.180302 
L 126.285305 150.956921 
L 127.122088 149.73354 
L 127.607732 144.840015 
L 127.745594 143.616634 
L 128.285295 142.393253 
L 128.386148 141.169872 
L 129.449431 139.946491 
L 130.739833 138.72311 
L 131.024923 137.499729 
L 131.052203 136.276348 
L 132.979033 133.829586 
L 133.784077 132.606205 
L 133.837044 131.382824 
L 134.111293 130.159443 
L 135.465588 128.936062 
L 135.47172 127.712681 
L 137.904564 126.489299 
L 137.947984 125.265918 
L 140.37343 124.042537 
L 142.50086 122.819156 
L 142.612741 121.595775 
L 143.159971 120.372394 
L 144.905009 119.149013 
L 146.068381 117.925632 
L 146.367857 116.702251 
L 147.231813 115.47887 
L 147.9903 110.585346 
L 148.050931 109.361965 
L 148.632223 108.138583 
L 149.524042 106.915202 
L 150.084535 105.691821 
L 150.298128 104.46844 
L 153.384717 103.245059 
L 153.676944 99.574916 
L 153.923196 98.351535 
L 154.396062 97.128154 
L 155.141184 95.904773 
L 155.374937 94.681392 
L 155.493946 93.458011 
L 156.368743 92.23463 
L 158.086343 91.011249 
L 163.517918 89.787868 
L 164.222988 87.341105 
L 164.691699 86.117724 
L 164.98453 84.894343 
L 165.638298 83.670962 
L 166.766534 82.447581 
L 167.261159 81.2242 
L 173.530264 78.777438 
L 176.331079 77.554057 
L 178.264619 76.330676 
L 179.647598 75.107295 
L 179.871933 73.883914 
L 184.025883 72.660533 
L 185.346505 71.437152 
L 188.139728 70.213771 
L 189.097169 68.990389 
L 189.339767 67.767008 
L 190.341992 66.543627 
L 199.61437 65.320246 
L 203.280043 64.096865 
L 204.040291 62.873484 
L 205.148817 61.650103 
L 212.094679 60.426722 
L 213.438223 59.203341 
L 217.053916 57.97996 
L 228.854281 56.756579 
L 232.750887 55.533198 
L 235.658952 54.309817 
L 253.933989 53.086436 
L 254.277454 51.863055 
L 254.969867 50.639674 
L 256.050035 49.416292 
L 267.009545 48.192911 
L 268.359161 46.96953 
L 271.54955 45.746149 
L 283.421379 44.522768 
L 319.670202 43.299387 
L 339.465249 42.076006 
L 342.598046 40.852625 
L 342.598046 40.852625 
" style="fill:none;stroke:#008000;stroke-linecap:square;stroke-width:2.0;"/>
   </g>
   <g id="line2d_3">
    <path clip-path="url(#p5af31c9d7b)" d="M 74.972063 368.71875 
L 74.972063 366.234916 
L 75.024512 363.751081 
L 77.403574 361.267247 
L 79.488056 358.783413 
L 80.194709 356.299579 
L 80.32203 353.815744 
L 81.583437 351.33191 
L 83.105809 348.848076 
L 83.122042 346.364241 
L 84.459508 338.912739 
L 84.60858 336.428904 
L 86.373243 333.94507 
L 86.647094 331.461236 
L 86.705929 328.977402 
L 86.995403 326.493567 
L 87.789576 324.009733 
L 87.917062 319.042064 
L 88.389147 316.55823 
L 89.0928 311.590562 
L 89.11092 309.106727 
L 90.570802 306.622893 
L 90.968825 304.139059 
L 91.030026 301.655224 
L 91.219089 299.17139 
L 92.311203 296.687556 
L 94.615485 281.78455 
L 94.887195 279.300716 
L 94.979239 276.816882 
L 95.557821 274.333047 
L 95.818834 271.849213 
L 97.2579 269.365379 
L 98.14868 266.881545 
L 98.685872 264.39771 
L 99.257249 259.430042 
L 100.229495 254.462373 
L 100.445831 249.494705 
L 101.743667 247.01087 
L 102.323946 244.527036 
L 102.786594 242.043202 
L 102.97476 239.559367 
L 104.973029 237.075533 
L 105.28686 234.591699 
L 106.311587 232.107865 
L 106.331467 229.62403 
L 107.464266 227.140196 
L 107.656089 224.656362 
L 108.934238 222.172527 
L 112.392858 217.204859 
L 114.514088 214.721025 
L 114.768329 212.23719 
L 115.373085 209.753356 
L 115.451999 207.269522 
L 117.553722 204.785687 
L 118.083971 202.301853 
L 120.608631 199.818019 
L 121.045001 197.334185 
L 121.462679 192.366516 
L 121.653212 189.882682 
L 122.39383 187.398848 
L 122.564082 184.915013 
L 122.572976 182.431179 
L 122.741819 179.947345 
L 123.736932 177.46351 
L 123.917429 174.979676 
L 129.750658 170.012008 
L 130.769848 162.560505 
L 134.390988 160.07667 
L 134.817097 157.592836 
L 135.129643 155.109002 
L 139.495682 152.625168 
L 139.84762 147.657499 
L 139.896761 145.173665 
L 140.341591 142.68983 
L 140.948776 140.205996 
L 141.242362 137.722162 
L 141.71554 135.238328 
L 143.705126 132.754493 
L 144.092947 130.270659 
L 145.227359 127.786825 
L 147.337036 120.335322 
L 148.778512 117.851488 
L 149.121186 115.367653 
L 149.275718 112.883819 
L 149.636042 110.399985 
L 150.157413 107.916151 
L 153.915951 105.432316 
L 153.972661 102.948482 
L 154.207775 100.464648 
L 156.253139 97.980813 
L 158.67514 95.496979 
L 160.723965 93.013145 
L 162.585783 90.529311 
L 165.057404 88.045476 
L 166.226317 85.561642 
L 166.273096 83.077808 
L 167.231677 80.593973 
L 170.886845 78.110139 
L 171.390415 75.626305 
L 172.818073 73.142471 
L 175.011106 70.658636 
L 175.032712 68.174802 
L 176.90991 65.690968 
L 180.28892 63.207134 
L 180.727339 60.723299 
L 198.258438 58.239465 
L 206.787079 55.755631 
L 228.068436 50.787962 
L 233.403487 48.304128 
L 252.085785 45.820294 
L 299.188464 43.336459 
L 335.248217 40.852625 
L 335.248217 40.852625 
" style="fill:none;stroke:#ff0000;stroke-linecap:square;stroke-width:2.0;"/>
   </g>
   <g id="patch_3">
    <path d="M 539.38125 368.71875 
L 539.38125 40.852625 
" style="fill:none;stroke:#000000;stroke-linecap:square;stroke-linejoin:miter;stroke-width:2.0;"/>
   </g>
   <g id="patch_4">
    <path d="M 74.48625 368.71875 
L 539.38125 368.71875 
" style="fill:none;stroke:#000000;stroke-linecap:square;stroke-linejoin:miter;stroke-width:2.0;"/>
   </g>
   <g id="patch_5">
    <path d="M 74.48625 40.852625 
L 539.38125 40.852625 
" style="fill:none;stroke:#000000;stroke-linecap:square;stroke-linejoin:miter;stroke-width:2.0;"/>
   </g>
   <g id="patch_6">
    <path d="M 74.48625 368.71875 
L 74.48625 40.852625 
" style="fill:none;stroke:#000000;stroke-linecap:square;stroke-linejoin:miter;stroke-width:2.0;"/>
   </g>
   <g id="matplotlib.axis_1">
    <g id="xtick_1">
     <g id="line2d_4">
      <path clip-path="url(#p5af31c9d7b)" d="M 74.48625 368.71875 
L 74.48625 40.852625 
" style="fill:none;stroke:#000000;stroke-dasharray:1.000000,3.000000;stroke-dashoffset:0.0;stroke-width:2.0;"/>
     </g>
     <g id="line2d_5">
      <defs>
       <path d="M 0 0 
L 0 -4 
" id="m6300b22c18" style="stroke:#000000;stroke-width:0.5;"/>
      </defs>
      <g>
       <use style="stroke:#000000;stroke-width:0.5;" x="74.48625" xlink:href="#m6300b22c18" y="368.71875"/>
      </g>
     </g>
     <g id="line2d_6">
      <defs>
       <path d="M 0 0 
L 0 4 
" id="m9f08c33385" style="stroke:#000000;stroke-width:0.5;"/>
      </defs>
      <g>
       <use style="stroke:#000000;stroke-width:0.5;" x="74.48625" xlink:href="#m9f08c33385" y="40.852625"/>
      </g>
     </g>
     <g id="text_1">
      <!-- 0 -->
      <defs>
       <path d="M 31.78125 66.40625 
Q 24.171875 66.40625 20.328125 58.90625 
Q 16.5 51.421875 16.5 36.375 
Q 16.5 21.390625 20.328125 13.890625 
Q 24.171875 6.390625 31.78125 6.390625 
Q 39.453125 6.390625 43.28125 13.890625 
Q 47.125 21.390625 47.125 36.375 
Q 47.125 51.421875 43.28125 58.90625 
Q 39.453125 66.40625 31.78125 66.40625 
M 31.78125 74.21875 
Q 44.046875 74.21875 50.515625 64.515625 
Q 56.984375 54.828125 56.984375 36.375 
Q 56.984375 17.96875 50.515625 8.265625 
Q 44.046875 -1.421875 31.78125 -1.421875 
Q 19.53125 -1.421875 13.0625 8.265625 
Q 6.59375 17.96875 6.59375 36.375 
Q 6.59375 54.828125 13.0625 64.515625 
Q 19.53125 74.21875 31.78125 74.21875 
" id="BitstreamVeraSans-Roman-30"/>
      </defs>
      <g transform="translate(68.76 386.3959375)scale(0.18 -0.18)">
       <use xlink:href="#BitstreamVeraSans-Roman-30"/>
      </g>
     </g>
    </g>
    <g id="xtick_2">
     <g id="line2d_7">
      <path clip-path="url(#p5af31c9d7b)" d="M 167.46525 368.71875 
L 167.46525 40.852625 
" style="fill:none;stroke:#000000;stroke-dasharray:1.000000,3.000000;stroke-dashoffset:0.0;stroke-width:2.0;"/>
     </g>
     <g id="line2d_8">
      <g>
       <use style="stroke:#000000;stroke-width:0.5;" x="167.46525" xlink:href="#m6300b22c18" y="368.71875"/>
      </g>
     </g>
     <g id="line2d_9">
      <g>
       <use style="stroke:#000000;stroke-width:0.5;" x="167.46525" xlink:href="#m9f08c33385" y="40.852625"/>
      </g>
     </g>
     <g id="text_2">
      <!-- 50 -->
      <defs>
       <path d="M 10.796875 72.90625 
L 49.515625 72.90625 
L 49.515625 64.59375 
L 19.828125 64.59375 
L 19.828125 46.734375 
Q 21.96875 47.46875 24.109375 47.828125 
Q 26.265625 48.1875 28.421875 48.1875 
Q 40.625 48.1875 47.75 41.5 
Q 54.890625 34.8125 54.890625 23.390625 
Q 54.890625 11.625 47.5625 5.09375 
Q 40.234375 -1.421875 26.90625 -1.421875 
Q 22.3125 -1.421875 17.546875 -0.640625 
Q 12.796875 0.140625 7.71875 1.703125 
L 7.71875 11.625 
Q 12.109375 9.234375 16.796875 8.0625 
Q 21.484375 6.890625 26.703125 6.890625 
Q 35.15625 6.890625 40.078125 11.328125 
Q 45.015625 15.765625 45.015625 23.390625 
Q 45.015625 31 40.078125 35.4375 
Q 35.15625 39.890625 26.703125 39.890625 
Q 22.75 39.890625 18.8125 39.015625 
Q 14.890625 38.140625 10.796875 36.28125 
z
" id="BitstreamVeraSans-Roman-35"/>
      </defs>
      <g transform="translate(156.01275 386.3959375)scale(0.18 -0.18)">
       <use xlink:href="#BitstreamVeraSans-Roman-35"/>
       <use x="63.623046875" xlink:href="#BitstreamVeraSans-Roman-30"/>
      </g>
     </g>
    </g>
    <g id="xtick_3">
     <g id="line2d_10">
      <path clip-path="url(#p5af31c9d7b)" d="M 260.44425 368.71875 
L 260.44425 40.852625 
" style="fill:none;stroke:#000000;stroke-dasharray:1.000000,3.000000;stroke-dashoffset:0.0;stroke-width:2.0;"/>
     </g>
     <g id="line2d_11">
      <g>
       <use style="stroke:#000000;stroke-width:0.5;" x="260.44425" xlink:href="#m6300b22c18" y="368.71875"/>
      </g>
     </g>
     <g id="line2d_12">
      <g>
       <use style="stroke:#000000;stroke-width:0.5;" x="260.44425" xlink:href="#m9f08c33385" y="40.852625"/>
      </g>
     </g>
     <g id="text_3">
      <!-- 100 -->
      <defs>
       <path d="M 12.40625 8.296875 
L 28.515625 8.296875 
L 28.515625 63.921875 
L 10.984375 60.40625 
L 10.984375 69.390625 
L 28.421875 72.90625 
L 38.28125 72.90625 
L 38.28125 8.296875 
L 54.390625 8.296875 
L 54.390625 0 
L 12.40625 0 
z
" id="BitstreamVeraSans-Roman-31"/>
      </defs>
      <g transform="translate(243.2655 386.3959375)scale(0.18 -0.18)">
       <use xlink:href="#BitstreamVeraSans-Roman-31"/>
       <use x="63.623046875" xlink:href="#BitstreamVeraSans-Roman-30"/>
       <use x="127.24609375" xlink:href="#BitstreamVeraSans-Roman-30"/>
      </g>
     </g>
    </g>
    <g id="xtick_4">
     <g id="line2d_13">
      <path clip-path="url(#p5af31c9d7b)" d="M 353.42325 368.71875 
L 353.42325 40.852625 
" style="fill:none;stroke:#000000;stroke-dasharray:1.000000,3.000000;stroke-dashoffset:0.0;stroke-width:2.0;"/>
     </g>
     <g id="line2d_14">
      <g>
       <use style="stroke:#000000;stroke-width:0.5;" x="353.42325" xlink:href="#m6300b22c18" y="368.71875"/>
      </g>
     </g>
     <g id="line2d_15">
      <g>
       <use style="stroke:#000000;stroke-width:0.5;" x="353.42325" xlink:href="#m9f08c33385" y="40.852625"/>
      </g>
     </g>
     <g id="text_4">
      <!-- 150 -->
      <g transform="translate(336.2445 386.3959375)scale(0.18 -0.18)">
       <use xlink:href="#BitstreamVeraSans-Roman-31"/>
       <use x="63.623046875" xlink:href="#BitstreamVeraSans-Roman-35"/>
       <use x="127.24609375" xlink:href="#BitstreamVeraSans-Roman-30"/>
      </g>
     </g>
    </g>
    <g id="xtick_5">
     <g id="line2d_16">
      <path clip-path="url(#p5af31c9d7b)" d="M 446.40225 368.71875 
L 446.40225 40.852625 
" style="fill:none;stroke:#000000;stroke-dasharray:1.000000,3.000000;stroke-dashoffset:0.0;stroke-width:2.0;"/>
     </g>
     <g id="line2d_17">
      <g>
       <use style="stroke:#000000;stroke-width:0.5;" x="446.40225" xlink:href="#m6300b22c18" y="368.71875"/>
      </g>
     </g>
     <g id="line2d_18">
      <g>
       <use style="stroke:#000000;stroke-width:0.5;" x="446.40225" xlink:href="#m9f08c33385" y="40.852625"/>
      </g>
     </g>
     <g id="text_5">
      <!-- 200 -->
      <defs>
       <path d="M 19.1875 8.296875 
L 53.609375 8.296875 
L 53.609375 0 
L 7.328125 0 
L 7.328125 8.296875 
Q 12.9375 14.109375 22.625 23.890625 
Q 32.328125 33.6875 34.8125 36.53125 
Q 39.546875 41.84375 41.421875 45.53125 
Q 43.3125 49.21875 43.3125 52.78125 
Q 43.3125 58.59375 39.234375 62.25 
Q 35.15625 65.921875 28.609375 65.921875 
Q 23.96875 65.921875 18.8125 64.3125 
Q 13.671875 62.703125 7.8125 59.421875 
L 7.8125 69.390625 
Q 13.765625 71.78125 18.9375 73 
Q 24.125 74.21875 28.421875 74.21875 
Q 39.75 74.21875 46.484375 68.546875 
Q 53.21875 62.890625 53.21875 53.421875 
Q 53.21875 48.921875 51.53125 44.890625 
Q 49.859375 40.875 45.40625 35.40625 
Q 44.1875 33.984375 37.640625 27.21875 
Q 31.109375 20.453125 19.1875 8.296875 
" id="BitstreamVeraSans-Roman-32"/>
      </defs>
      <g transform="translate(429.2235 386.3959375)scale(0.18 -0.18)">
       <use xlink:href="#BitstreamVeraSans-Roman-32"/>
       <use x="63.623046875" xlink:href="#BitstreamVeraSans-Roman-30"/>
       <use x="127.24609375" xlink:href="#BitstreamVeraSans-Roman-30"/>
      </g>
     </g>
    </g>
    <g id="xtick_6">
     <g id="line2d_19">
      <path clip-path="url(#p5af31c9d7b)" d="M 539.38125 368.71875 
L 539.38125 40.852625 
" style="fill:none;stroke:#000000;stroke-dasharray:1.000000,3.000000;stroke-dashoffset:0.0;stroke-width:2.0;"/>
     </g>
     <g id="line2d_20">
      <g>
       <use style="stroke:#000000;stroke-width:0.5;" x="539.38125" xlink:href="#m6300b22c18" y="368.71875"/>
      </g>
     </g>
     <g id="line2d_21">
      <g>
       <use style="stroke:#000000;stroke-width:0.5;" x="539.38125" xlink:href="#m9f08c33385" y="40.852625"/>
      </g>
     </g>
     <g id="text_6">
      <!-- 250 -->
      <g transform="translate(522.2025 386.3959375)scale(0.18 -0.18)">
       <use xlink:href="#BitstreamVeraSans-Roman-32"/>
       <use x="63.623046875" xlink:href="#BitstreamVeraSans-Roman-35"/>
       <use x="127.24609375" xlink:href="#BitstreamVeraSans-Roman-30"/>
      </g>
     </g>
    </g>
    <g id="text_7">
     <!-- Track displacement (um) -->
     <defs>
      <path d="M 9.421875 75.984375 
L 18.40625 75.984375 
L 18.40625 0 
L 9.421875 0 
z
" id="BitstreamVeraSans-Roman-6c"/>
      <path d="M 8.5 21.578125 
L 8.5 54.6875 
L 17.484375 54.6875 
L 17.484375 21.921875 
Q 17.484375 14.15625 20.5 10.265625 
Q 23.53125 6.390625 29.59375 6.390625 
Q 36.859375 6.390625 41.078125 11.03125 
Q 45.3125 15.671875 45.3125 23.6875 
L 45.3125 54.6875 
L 54.296875 54.6875 
L 54.296875 0 
L 45.3125 0 
L 45.3125 8.40625 
Q 42.046875 3.421875 37.71875 1 
Q 33.40625 -1.421875 27.6875 -1.421875 
Q 18.265625 -1.421875 13.375 4.4375 
Q 8.5 10.296875 8.5 21.578125 
" id="BitstreamVeraSans-Roman-75"/>
      <path d="M -0.296875 72.90625 
L 61.375 72.90625 
L 61.375 64.59375 
L 35.5 64.59375 
L 35.5 0 
L 25.59375 0 
L 25.59375 64.59375 
L -0.296875 64.59375 
z
" id="BitstreamVeraSans-Roman-54"/>
      <path d="M 18.3125 70.21875 
L 18.3125 54.6875 
L 36.8125 54.6875 
L 36.8125 47.703125 
L 18.3125 47.703125 
L 18.3125 18.015625 
Q 18.3125 11.328125 20.140625 9.421875 
Q 21.96875 7.515625 27.59375 7.515625 
L 36.8125 7.515625 
L 36.8125 0 
L 27.59375 0 
Q 17.1875 0 13.234375 3.875 
Q 9.28125 7.765625 9.28125 18.015625 
L 9.28125 47.703125 
L 2.6875 47.703125 
L 2.6875 54.6875 
L 9.28125 54.6875 
L 9.28125 70.21875 
z
" id="BitstreamVeraSans-Roman-74"/>
      <path d="M 34.28125 27.484375 
Q 23.390625 27.484375 19.1875 25 
Q 14.984375 22.515625 14.984375 16.5 
Q 14.984375 11.71875 18.140625 8.90625 
Q 21.296875 6.109375 26.703125 6.109375 
Q 34.1875 6.109375 38.703125 11.40625 
Q 43.21875 16.703125 43.21875 25.484375 
L 43.21875 27.484375 
z
M 52.203125 31.203125 
L 52.203125 0 
L 43.21875 0 
L 43.21875 8.296875 
Q 40.140625 3.328125 35.546875 0.953125 
Q 30.953125 -1.421875 24.3125 -1.421875 
Q 15.921875 -1.421875 10.953125 3.296875 
Q 6 8.015625 6 15.921875 
Q 6 25.140625 12.171875 29.828125 
Q 18.359375 34.515625 30.609375 34.515625 
L 43.21875 34.515625 
L 43.21875 35.40625 
Q 43.21875 41.609375 39.140625 45 
Q 35.0625 48.390625 27.6875 48.390625 
Q 23 48.390625 18.546875 47.265625 
Q 14.109375 46.140625 10.015625 43.890625 
L 10.015625 52.203125 
Q 14.9375 54.109375 19.578125 55.046875 
Q 24.21875 56 28.609375 56 
Q 40.484375 56 46.34375 49.84375 
Q 52.203125 43.703125 52.203125 31.203125 
" id="BitstreamVeraSans-Roman-61"/>
      <path d="M 8.015625 75.875 
L 15.828125 75.875 
Q 23.140625 64.359375 26.78125 53.3125 
Q 30.421875 42.28125 30.421875 31.390625 
Q 30.421875 20.453125 26.78125 9.375 
Q 23.140625 -1.703125 15.828125 -13.1875 
L 8.015625 -13.1875 
Q 14.5 -2 17.703125 9.0625 
Q 20.90625 20.125 20.90625 31.390625 
Q 20.90625 42.671875 17.703125 53.65625 
Q 14.5 64.65625 8.015625 75.875 
" id="BitstreamVeraSans-Roman-29"/>
      <path d="M 45.40625 46.390625 
L 45.40625 75.984375 
L 54.390625 75.984375 
L 54.390625 0 
L 45.40625 0 
L 45.40625 8.203125 
Q 42.578125 3.328125 38.25 0.953125 
Q 33.9375 -1.421875 27.875 -1.421875 
Q 17.96875 -1.421875 11.734375 6.484375 
Q 5.515625 14.40625 5.515625 27.296875 
Q 5.515625 40.1875 11.734375 48.09375 
Q 17.96875 56 27.875 56 
Q 33.9375 56 38.25 53.625 
Q 42.578125 51.265625 45.40625 46.390625 
M 14.796875 27.296875 
Q 14.796875 17.390625 18.875 11.75 
Q 22.953125 6.109375 30.078125 6.109375 
Q 37.203125 6.109375 41.296875 11.75 
Q 45.40625 17.390625 45.40625 27.296875 
Q 45.40625 37.203125 41.296875 42.84375 
Q 37.203125 48.484375 30.078125 48.484375 
Q 22.953125 48.484375 18.875 42.84375 
Q 14.796875 37.203125 14.796875 27.296875 
" id="BitstreamVeraSans-Roman-64"/>
      <path d="M 31 75.875 
Q 24.46875 64.65625 21.28125 53.65625 
Q 18.109375 42.671875 18.109375 31.390625 
Q 18.109375 20.125 21.3125 9.0625 
Q 24.515625 -2 31 -13.1875 
L 23.1875 -13.1875 
Q 15.875 -1.703125 12.234375 9.375 
Q 8.59375 20.453125 8.59375 31.390625 
Q 8.59375 42.28125 12.203125 53.3125 
Q 15.828125 64.359375 23.1875 75.875 
z
" id="BitstreamVeraSans-Roman-28"/>
      <path d="M 9.078125 75.984375 
L 18.109375 75.984375 
L 18.109375 31.109375 
L 44.921875 54.6875 
L 56.390625 54.6875 
L 27.390625 29.109375 
L 57.625 0 
L 45.90625 0 
L 18.109375 26.703125 
L 18.109375 0 
L 9.078125 0 
z
" id="BitstreamVeraSans-Roman-6b"/>
      <path id="BitstreamVeraSans-Roman-20"/>
      <path d="M 48.78125 52.59375 
L 48.78125 44.1875 
Q 44.96875 46.296875 41.140625 47.34375 
Q 37.3125 48.390625 33.40625 48.390625 
Q 24.65625 48.390625 19.8125 42.84375 
Q 14.984375 37.3125 14.984375 27.296875 
Q 14.984375 17.28125 19.8125 11.734375 
Q 24.65625 6.203125 33.40625 6.203125 
Q 37.3125 6.203125 41.140625 7.25 
Q 44.96875 8.296875 48.78125 10.40625 
L 48.78125 2.09375 
Q 45.015625 0.34375 40.984375 -0.53125 
Q 36.96875 -1.421875 32.421875 -1.421875 
Q 20.0625 -1.421875 12.78125 6.34375 
Q 5.515625 14.109375 5.515625 27.296875 
Q 5.515625 40.671875 12.859375 48.328125 
Q 20.21875 56 33.015625 56 
Q 37.15625 56 41.109375 55.140625 
Q 45.0625 54.296875 48.78125 52.59375 
" id="BitstreamVeraSans-Roman-63"/>
      <path d="M 54.890625 33.015625 
L 54.890625 0 
L 45.90625 0 
L 45.90625 32.71875 
Q 45.90625 40.484375 42.875 44.328125 
Q 39.84375 48.1875 33.796875 48.1875 
Q 26.515625 48.1875 22.3125 43.546875 
Q 18.109375 38.921875 18.109375 30.90625 
L 18.109375 0 
L 9.078125 0 
L 9.078125 54.6875 
L 18.109375 54.6875 
L 18.109375 46.1875 
Q 21.34375 51.125 25.703125 53.5625 
Q 30.078125 56 35.796875 56 
Q 45.21875 56 50.046875 50.171875 
Q 54.890625 44.34375 54.890625 33.015625 
" id="BitstreamVeraSans-Roman-6e"/>
      <path d="M 52 44.1875 
Q 55.375 50.25 60.0625 53.125 
Q 64.75 56 71.09375 56 
Q 79.640625 56 84.28125 50.015625 
Q 88.921875 44.046875 88.921875 33.015625 
L 88.921875 0 
L 79.890625 0 
L 79.890625 32.71875 
Q 79.890625 40.578125 77.09375 44.375 
Q 74.3125 48.1875 68.609375 48.1875 
Q 61.625 48.1875 57.5625 43.546875 
Q 53.515625 38.921875 53.515625 30.90625 
L 53.515625 0 
L 44.484375 0 
L 44.484375 32.71875 
Q 44.484375 40.625 41.703125 44.40625 
Q 38.921875 48.1875 33.109375 48.1875 
Q 26.21875 48.1875 22.15625 43.53125 
Q 18.109375 38.875 18.109375 30.90625 
L 18.109375 0 
L 9.078125 0 
L 9.078125 54.6875 
L 18.109375 54.6875 
L 18.109375 46.1875 
Q 21.1875 51.21875 25.484375 53.609375 
Q 29.78125 56 35.6875 56 
Q 41.65625 56 45.828125 52.96875 
Q 50 49.953125 52 44.1875 
" id="BitstreamVeraSans-Roman-6d"/>
      <path d="M 41.109375 46.296875 
Q 39.59375 47.171875 37.8125 47.578125 
Q 36.03125 48 33.890625 48 
Q 26.265625 48 22.1875 43.046875 
Q 18.109375 38.09375 18.109375 28.8125 
L 18.109375 0 
L 9.078125 0 
L 9.078125 54.6875 
L 18.109375 54.6875 
L 18.109375 46.1875 
Q 20.953125 51.171875 25.484375 53.578125 
Q 30.03125 56 36.53125 56 
Q 37.453125 56 38.578125 55.875 
Q 39.703125 55.765625 41.0625 55.515625 
z
" id="BitstreamVeraSans-Roman-72"/>
      <path d="M 9.421875 54.6875 
L 18.40625 54.6875 
L 18.40625 0 
L 9.421875 0 
z
M 9.421875 75.984375 
L 18.40625 75.984375 
L 18.40625 64.59375 
L 9.421875 64.59375 
z
" id="BitstreamVeraSans-Roman-69"/>
      <path d="M 56.203125 29.59375 
L 56.203125 25.203125 
L 14.890625 25.203125 
Q 15.484375 15.921875 20.484375 11.0625 
Q 25.484375 6.203125 34.421875 6.203125 
Q 39.59375 6.203125 44.453125 7.46875 
Q 49.3125 8.734375 54.109375 11.28125 
L 54.109375 2.78125 
Q 49.265625 0.734375 44.1875 -0.34375 
Q 39.109375 -1.421875 33.890625 -1.421875 
Q 20.796875 -1.421875 13.15625 6.1875 
Q 5.515625 13.8125 5.515625 26.8125 
Q 5.515625 40.234375 12.765625 48.109375 
Q 20.015625 56 32.328125 56 
Q 43.359375 56 49.78125 48.890625 
Q 56.203125 41.796875 56.203125 29.59375 
M 47.21875 32.234375 
Q 47.125 39.59375 43.09375 43.984375 
Q 39.0625 48.390625 32.421875 48.390625 
Q 24.90625 48.390625 20.390625 44.140625 
Q 15.875 39.890625 15.1875 32.171875 
z
" id="BitstreamVeraSans-Roman-65"/>
      <path d="M 18.109375 8.203125 
L 18.109375 -20.796875 
L 9.078125 -20.796875 
L 9.078125 54.6875 
L 18.109375 54.6875 
L 18.109375 46.390625 
Q 20.953125 51.265625 25.265625 53.625 
Q 29.59375 56 35.59375 56 
Q 45.5625 56 51.78125 48.09375 
Q 58.015625 40.1875 58.015625 27.296875 
Q 58.015625 14.40625 51.78125 6.484375 
Q 45.5625 -1.421875 35.59375 -1.421875 
Q 29.59375 -1.421875 25.265625 0.953125 
Q 20.953125 3.328125 18.109375 8.203125 
M 48.6875 27.296875 
Q 48.6875 37.203125 44.609375 42.84375 
Q 40.53125 48.484375 33.40625 48.484375 
Q 26.265625 48.484375 22.1875 42.84375 
Q 18.109375 37.203125 18.109375 27.296875 
Q 18.109375 17.390625 22.1875 11.75 
Q 26.265625 6.109375 33.40625 6.109375 
Q 40.53125 6.109375 44.609375 11.75 
Q 48.6875 17.390625 48.6875 27.296875 
" id="BitstreamVeraSans-Roman-70"/>
      <path d="M 44.28125 53.078125 
L 44.28125 44.578125 
Q 40.484375 46.53125 36.375 47.5 
Q 32.28125 48.484375 27.875 48.484375 
Q 21.1875 48.484375 17.84375 46.4375 
Q 14.5 44.390625 14.5 40.28125 
Q 14.5 37.15625 16.890625 35.375 
Q 19.28125 33.59375 26.515625 31.984375 
L 29.59375 31.296875 
Q 39.15625 29.25 43.1875 25.515625 
Q 47.21875 21.78125 47.21875 15.09375 
Q 47.21875 7.46875 41.1875 3.015625 
Q 35.15625 -1.421875 24.609375 -1.421875 
Q 20.21875 -1.421875 15.453125 -0.5625 
Q 10.6875 0.296875 5.421875 2 
L 5.421875 11.28125 
Q 10.40625 8.6875 15.234375 7.390625 
Q 20.0625 6.109375 24.8125 6.109375 
Q 31.15625 6.109375 34.5625 8.28125 
Q 37.984375 10.453125 37.984375 14.40625 
Q 37.984375 18.0625 35.515625 20.015625 
Q 33.0625 21.96875 24.703125 23.78125 
L 21.578125 24.515625 
Q 13.234375 26.265625 9.515625 29.90625 
Q 5.8125 33.546875 5.8125 39.890625 
Q 5.8125 47.609375 11.28125 51.796875 
Q 16.75 56 26.8125 56 
Q 31.78125 56 36.171875 55.265625 
Q 40.578125 54.546875 44.28125 53.078125 
" id="BitstreamVeraSans-Roman-73"/>
     </defs>
     <g transform="translate(194.21296875 408.8165625)scale(0.18 -0.18)">
      <use xlink:href="#BitstreamVeraSans-Roman-54"/>
      <use x="60.865234375" xlink:href="#BitstreamVeraSans-Roman-72"/>
      <use x="101.978515625" xlink:href="#BitstreamVeraSans-Roman-61"/>
      <use x="163.2578125" xlink:href="#BitstreamVeraSans-Roman-63"/>
      <use x="218.23828125" xlink:href="#BitstreamVeraSans-Roman-6b"/>
      <use x="276.1484375" xlink:href="#BitstreamVeraSans-Roman-20"/>
      <use x="307.935546875" xlink:href="#BitstreamVeraSans-Roman-64"/>
      <use x="371.412109375" xlink:href="#BitstreamVeraSans-Roman-69"/>
      <use x="399.1953125" xlink:href="#BitstreamVeraSans-Roman-73"/>
      <use x="451.294921875" xlink:href="#BitstreamVeraSans-Roman-70"/>
      <use x="514.771484375" xlink:href="#BitstreamVeraSans-Roman-6c"/>
      <use x="542.5546875" xlink:href="#BitstreamVeraSans-Roman-61"/>
      <use x="603.833984375" xlink:href="#BitstreamVeraSans-Roman-63"/>
      <use x="658.814453125" xlink:href="#BitstreamVeraSans-Roman-65"/>
      <use x="720.337890625" xlink:href="#BitstreamVeraSans-Roman-6d"/>
      <use x="817.75" xlink:href="#BitstreamVeraSans-Roman-65"/>
      <use x="879.2734375" xlink:href="#BitstreamVeraSans-Roman-6e"/>
      <use x="942.65234375" xlink:href="#BitstreamVeraSans-Roman-74"/>
      <use x="981.861328125" xlink:href="#BitstreamVeraSans-Roman-20"/>
      <use x="1013.6484375" xlink:href="#BitstreamVeraSans-Roman-28"/>
      <use x="1052.662109375" xlink:href="#BitstreamVeraSans-Roman-75"/>
      <use x="1116.041015625" xlink:href="#BitstreamVeraSans-Roman-6d"/>
      <use x="1213.453125" xlink:href="#BitstreamVeraSans-Roman-29"/>
     </g>
    </g>
   </g>
   <g id="matplotlib.axis_2">
    <g id="ytick_1">
     <g id="line2d_22">
      <path clip-path="url(#p5af31c9d7b)" d="M 74.48625 368.71875 
L 539.38125 368.71875 
" style="fill:none;stroke:#000000;stroke-dasharray:1.000000,3.000000;stroke-dashoffset:0.0;stroke-width:2.0;"/>
     </g>
     <g id="line2d_23">
      <defs>
       <path d="M 0 0 
L 4 0 
" id="m6389f6547d" style="stroke:#000000;stroke-width:0.5;"/>
      </defs>
      <g>
       <use style="stroke:#000000;stroke-width:0.5;" x="74.48625" xlink:href="#m6389f6547d" y="368.71875"/>
      </g>
     </g>
     <g id="line2d_24">
      <defs>
       <path d="M 0 0 
L -4 0 
" id="m51dadb6df1" style="stroke:#000000;stroke-width:0.5;"/>
      </defs>
      <g>
       <use style="stroke:#000000;stroke-width:0.5;" x="539.38125" xlink:href="#m51dadb6df1" y="368.71875"/>
      </g>
     </g>
     <g id="text_8">
      <!-- 0.0 -->
      <defs>
       <path d="M 10.6875 12.40625 
L 21 12.40625 
L 21 0 
L 10.6875 0 
z
" id="BitstreamVeraSans-Roman-2e"/>
      </defs>
      <g transform="translate(41.860625 373.685625)scale(0.18 -0.18)">
       <use xlink:href="#BitstreamVeraSans-Roman-30"/>
       <use x="63.623046875" xlink:href="#BitstreamVeraSans-Roman-2e"/>
       <use x="95.41015625" xlink:href="#BitstreamVeraSans-Roman-30"/>
      </g>
     </g>
    </g>
    <g id="ytick_2">
     <g id="line2d_25">
      <path clip-path="url(#p5af31c9d7b)" d="M 74.48625 303.145525 
L 539.38125 303.145525 
" style="fill:none;stroke:#000000;stroke-dasharray:1.000000,3.000000;stroke-dashoffset:0.0;stroke-width:2.0;"/>
     </g>
     <g id="line2d_26">
      <g>
       <use style="stroke:#000000;stroke-width:0.5;" x="74.48625" xlink:href="#m6389f6547d" y="303.145525"/>
      </g>
     </g>
     <g id="line2d_27">
      <g>
       <use style="stroke:#000000;stroke-width:0.5;" x="539.38125" xlink:href="#m51dadb6df1" y="303.145525"/>
      </g>
     </g>
     <g id="text_9">
      <!-- 0.2 -->
      <g transform="translate(41.860625 308.1124)scale(0.18 -0.18)">
       <use xlink:href="#BitstreamVeraSans-Roman-30"/>
       <use x="63.623046875" xlink:href="#BitstreamVeraSans-Roman-2e"/>
       <use x="95.41015625" xlink:href="#BitstreamVeraSans-Roman-32"/>
      </g>
     </g>
    </g>
    <g id="ytick_3">
     <g id="line2d_28">
      <path clip-path="url(#p5af31c9d7b)" d="M 74.48625 237.5723 
L 539.38125 237.5723 
" style="fill:none;stroke:#000000;stroke-dasharray:1.000000,3.000000;stroke-dashoffset:0.0;stroke-width:2.0;"/>
     </g>
     <g id="line2d_29">
      <g>
       <use style="stroke:#000000;stroke-width:0.5;" x="74.48625" xlink:href="#m6389f6547d" y="237.5723"/>
      </g>
     </g>
     <g id="line2d_30">
      <g>
       <use style="stroke:#000000;stroke-width:0.5;" x="539.38125" xlink:href="#m51dadb6df1" y="237.5723"/>
      </g>
     </g>
     <g id="text_10">
      <!-- 0.4 -->
      <defs>
       <path d="M 37.796875 64.3125 
L 12.890625 25.390625 
L 37.796875 25.390625 
z
M 35.203125 72.90625 
L 47.609375 72.90625 
L 47.609375 25.390625 
L 58.015625 25.390625 
L 58.015625 17.1875 
L 47.609375 17.1875 
L 47.609375 0 
L 37.796875 0 
L 37.796875 17.1875 
L 4.890625 17.1875 
L 4.890625 26.703125 
z
" id="BitstreamVeraSans-Roman-34"/>
      </defs>
      <g transform="translate(41.860625 242.539175)scale(0.18 -0.18)">
       <use xlink:href="#BitstreamVeraSans-Roman-30"/>
       <use x="63.623046875" xlink:href="#BitstreamVeraSans-Roman-2e"/>
       <use x="95.41015625" xlink:href="#BitstreamVeraSans-Roman-34"/>
      </g>
     </g>
    </g>
    <g id="ytick_4">
     <g id="line2d_31">
      <path clip-path="url(#p5af31c9d7b)" d="M 74.48625 171.999075 
L 539.38125 171.999075 
" style="fill:none;stroke:#000000;stroke-dasharray:1.000000,3.000000;stroke-dashoffset:0.0;stroke-width:2.0;"/>
     </g>
     <g id="line2d_32">
      <g>
       <use style="stroke:#000000;stroke-width:0.5;" x="74.48625" xlink:href="#m6389f6547d" y="171.999075"/>
      </g>
     </g>
     <g id="line2d_33">
      <g>
       <use style="stroke:#000000;stroke-width:0.5;" x="539.38125" xlink:href="#m51dadb6df1" y="171.999075"/>
      </g>
     </g>
     <g id="text_11">
      <!-- 0.6 -->
      <defs>
       <path d="M 33.015625 40.375 
Q 26.375 40.375 22.484375 35.828125 
Q 18.609375 31.296875 18.609375 23.390625 
Q 18.609375 15.53125 22.484375 10.953125 
Q 26.375 6.390625 33.015625 6.390625 
Q 39.65625 6.390625 43.53125 10.953125 
Q 47.40625 15.53125 47.40625 23.390625 
Q 47.40625 31.296875 43.53125 35.828125 
Q 39.65625 40.375 33.015625 40.375 
M 52.59375 71.296875 
L 52.59375 62.3125 
Q 48.875 64.0625 45.09375 64.984375 
Q 41.3125 65.921875 37.59375 65.921875 
Q 27.828125 65.921875 22.671875 59.328125 
Q 17.53125 52.734375 16.796875 39.40625 
Q 19.671875 43.65625 24.015625 45.921875 
Q 28.375 48.1875 33.59375 48.1875 
Q 44.578125 48.1875 50.953125 41.515625 
Q 57.328125 34.859375 57.328125 23.390625 
Q 57.328125 12.15625 50.6875 5.359375 
Q 44.046875 -1.421875 33.015625 -1.421875 
Q 20.359375 -1.421875 13.671875 8.265625 
Q 6.984375 17.96875 6.984375 36.375 
Q 6.984375 53.65625 15.1875 63.9375 
Q 23.390625 74.21875 37.203125 74.21875 
Q 40.921875 74.21875 44.703125 73.484375 
Q 48.484375 72.75 52.59375 71.296875 
" id="BitstreamVeraSans-Roman-36"/>
      </defs>
      <g transform="translate(41.860625 176.96595)scale(0.18 -0.18)">
       <use xlink:href="#BitstreamVeraSans-Roman-30"/>
       <use x="63.623046875" xlink:href="#BitstreamVeraSans-Roman-2e"/>
       <use x="95.41015625" xlink:href="#BitstreamVeraSans-Roman-36"/>
      </g>
     </g>
    </g>
    <g id="ytick_5">
     <g id="line2d_34">
      <path clip-path="url(#p5af31c9d7b)" d="M 74.48625 106.42585 
L 539.38125 106.42585 
" style="fill:none;stroke:#000000;stroke-dasharray:1.000000,3.000000;stroke-dashoffset:0.0;stroke-width:2.0;"/>
     </g>
     <g id="line2d_35">
      <g>
       <use style="stroke:#000000;stroke-width:0.5;" x="74.48625" xlink:href="#m6389f6547d" y="106.42585"/>
      </g>
     </g>
     <g id="line2d_36">
      <g>
       <use style="stroke:#000000;stroke-width:0.5;" x="539.38125" xlink:href="#m51dadb6df1" y="106.42585"/>
      </g>
     </g>
     <g id="text_12">
      <!-- 0.8 -->
      <defs>
       <path d="M 31.78125 34.625 
Q 24.75 34.625 20.71875 30.859375 
Q 16.703125 27.09375 16.703125 20.515625 
Q 16.703125 13.921875 20.71875 10.15625 
Q 24.75 6.390625 31.78125 6.390625 
Q 38.8125 6.390625 42.859375 10.171875 
Q 46.921875 13.96875 46.921875 20.515625 
Q 46.921875 27.09375 42.890625 30.859375 
Q 38.875 34.625 31.78125 34.625 
M 21.921875 38.8125 
Q 15.578125 40.375 12.03125 44.71875 
Q 8.5 49.078125 8.5 55.328125 
Q 8.5 64.0625 14.71875 69.140625 
Q 20.953125 74.21875 31.78125 74.21875 
Q 42.671875 74.21875 48.875 69.140625 
Q 55.078125 64.0625 55.078125 55.328125 
Q 55.078125 49.078125 51.53125 44.71875 
Q 48 40.375 41.703125 38.8125 
Q 48.828125 37.15625 52.796875 32.3125 
Q 56.78125 27.484375 56.78125 20.515625 
Q 56.78125 9.90625 50.3125 4.234375 
Q 43.84375 -1.421875 31.78125 -1.421875 
Q 19.734375 -1.421875 13.25 4.234375 
Q 6.78125 9.90625 6.78125 20.515625 
Q 6.78125 27.484375 10.78125 32.3125 
Q 14.796875 37.15625 21.921875 38.8125 
M 18.3125 54.390625 
Q 18.3125 48.734375 21.84375 45.5625 
Q 25.390625 42.390625 31.78125 42.390625 
Q 38.140625 42.390625 41.71875 45.5625 
Q 45.3125 48.734375 45.3125 54.390625 
Q 45.3125 60.0625 41.71875 63.234375 
Q 38.140625 66.40625 31.78125 66.40625 
Q 25.390625 66.40625 21.84375 63.234375 
Q 18.3125 60.0625 18.3125 54.390625 
" id="BitstreamVeraSans-Roman-38"/>
      </defs>
      <g transform="translate(41.860625 111.392725)scale(0.18 -0.18)">
       <use xlink:href="#BitstreamVeraSans-Roman-30"/>
       <use x="63.623046875" xlink:href="#BitstreamVeraSans-Roman-2e"/>
       <use x="95.41015625" xlink:href="#BitstreamVeraSans-Roman-38"/>
      </g>
     </g>
    </g>
    <g id="ytick_6">
     <g id="line2d_37">
      <path clip-path="url(#p5af31c9d7b)" d="M 74.48625 40.852625 
L 539.38125 40.852625 
" style="fill:none;stroke:#000000;stroke-dasharray:1.000000,3.000000;stroke-dashoffset:0.0;stroke-width:2.0;"/>
     </g>
     <g id="line2d_38">
      <g>
       <use style="stroke:#000000;stroke-width:0.5;" x="74.48625" xlink:href="#m6389f6547d" y="40.852625"/>
      </g>
     </g>
     <g id="line2d_39">
      <g>
       <use style="stroke:#000000;stroke-width:0.5;" x="539.38125" xlink:href="#m51dadb6df1" y="40.852625"/>
      </g>
     </g>
     <g id="text_13">
      <!-- 1.0 -->
      <g transform="translate(41.860625 45.8195)scale(0.18 -0.18)">
       <use xlink:href="#BitstreamVeraSans-Roman-31"/>
       <use x="63.623046875" xlink:href="#BitstreamVeraSans-Roman-2e"/>
       <use x="95.41015625" xlink:href="#BitstreamVeraSans-Roman-30"/>
      </g>
     </g>
    </g>
    <g id="text_14">
     <!-- Proportion -->
     <defs>
      <path d="M 19.671875 64.796875 
L 19.671875 37.40625 
L 32.078125 37.40625 
Q 38.96875 37.40625 42.71875 40.96875 
Q 46.484375 44.53125 46.484375 51.125 
Q 46.484375 57.671875 42.71875 61.234375 
Q 38.96875 64.796875 32.078125 64.796875 
z
M 9.8125 72.90625 
L 32.078125 72.90625 
Q 44.34375 72.90625 50.609375 67.359375 
Q 56.890625 61.8125 56.890625 51.125 
Q 56.890625 40.328125 50.609375 34.8125 
Q 44.34375 29.296875 32.078125 29.296875 
L 19.671875 29.296875 
L 19.671875 0 
L 9.8125 0 
z
" id="BitstreamVeraSans-Roman-50"/>
      <path d="M 30.609375 48.390625 
Q 23.390625 48.390625 19.1875 42.75 
Q 14.984375 37.109375 14.984375 27.296875 
Q 14.984375 17.484375 19.15625 11.84375 
Q 23.34375 6.203125 30.609375 6.203125 
Q 37.796875 6.203125 41.984375 11.859375 
Q 46.1875 17.53125 46.1875 27.296875 
Q 46.1875 37.015625 41.984375 42.703125 
Q 37.796875 48.390625 30.609375 48.390625 
M 30.609375 56 
Q 42.328125 56 49.015625 48.375 
Q 55.71875 40.765625 55.71875 27.296875 
Q 55.71875 13.875 49.015625 6.21875 
Q 42.328125 -1.421875 30.609375 -1.421875 
Q 18.84375 -1.421875 12.171875 6.21875 
Q 5.515625 13.875 5.515625 27.296875 
Q 5.515625 40.765625 12.171875 48.375 
Q 18.84375 56 30.609375 56 
" id="BitstreamVeraSans-Roman-6f"/>
     </defs>
     <g transform="translate(33.1171875 251.5744375)rotate(-90.0)scale(0.18 -0.18)">
      <use xlink:href="#BitstreamVeraSans-Roman-50"/>
      <use x="60.287109375" xlink:href="#BitstreamVeraSans-Roman-72"/>
      <use x="101.369140625" xlink:href="#BitstreamVeraSans-Roman-6f"/>
      <use x="162.55078125" xlink:href="#BitstreamVeraSans-Roman-70"/>
      <use x="226.02734375" xlink:href="#BitstreamVeraSans-Roman-6f"/>
      <use x="287.208984375" xlink:href="#BitstreamVeraSans-Roman-72"/>
      <use x="328.322265625" xlink:href="#BitstreamVeraSans-Roman-74"/>
      <use x="367.53125" xlink:href="#BitstreamVeraSans-Roman-69"/>
      <use x="395.314453125" xlink:href="#BitstreamVeraSans-Roman-6f"/>
      <use x="456.49609375" xlink:href="#BitstreamVeraSans-Roman-6e"/>
     </g>
    </g>
   </g>
   <g id="text_15">
    <!-- Track Displacement -->
    <defs>
     <path d="M 19.671875 64.796875 
L 19.671875 8.109375 
L 31.59375 8.109375 
Q 46.6875 8.109375 53.6875 14.9375 
Q 60.6875 21.78125 60.6875 36.53125 
Q 60.6875 51.171875 53.6875 57.984375 
Q 46.6875 64.796875 31.59375 64.796875 
z
M 9.8125 72.90625 
L 30.078125 72.90625 
Q 51.265625 72.90625 61.171875 64.09375 
Q 71.09375 55.28125 71.09375 36.53125 
Q 71.09375 17.671875 61.125 8.828125 
Q 51.171875 0 30.078125 0 
L 9.8125 0 
z
" id="BitstreamVeraSans-Roman-44"/>
    </defs>
    <g transform="translate(199.43325 35.852625)scale(0.21599999999999997 -0.21599999999999997)">
     <use xlink:href="#BitstreamVeraSans-Roman-54"/>
     <use x="60.865234375" xlink:href="#BitstreamVeraSans-Roman-72"/>
     <use x="101.978515625" xlink:href="#BitstreamVeraSans-Roman-61"/>
     <use x="163.2578125" xlink:href="#BitstreamVeraSans-Roman-63"/>
     <use x="218.23828125" xlink:href="#BitstreamVeraSans-Roman-6b"/>
     <use x="276.1484375" xlink:href="#BitstreamVeraSans-Roman-20"/>
     <use x="307.935546875" xlink:href="#BitstreamVeraSans-Roman-44"/>
     <use x="384.9375" xlink:href="#BitstreamVeraSans-Roman-69"/>
     <use x="412.720703125" xlink:href="#BitstreamVeraSans-Roman-73"/>
     <use x="464.8203125" xlink:href="#BitstreamVeraSans-Roman-70"/>
     <use x="528.296875" xlink:href="#BitstreamVeraSans-Roman-6c"/>
     <use x="556.080078125" xlink:href="#BitstreamVeraSans-Roman-61"/>
     <use x="617.359375" xlink:href="#BitstreamVeraSans-Roman-63"/>
     <use x="672.33984375" xlink:href="#BitstreamVeraSans-Roman-65"/>
     <use x="733.86328125" xlink:href="#BitstreamVeraSans-Roman-6d"/>
     <use x="831.275390625" xlink:href="#BitstreamVeraSans-Roman-65"/>
     <use x="892.798828125" xlink:href="#BitstreamVeraSans-Roman-6e"/>
     <use x="956.177734375" xlink:href="#BitstreamVeraSans-Roman-74"/>
    </g>
   </g>
   <g id="legend_1">
    <g id="patch_7">
     <path d="M 353.78325 357.91875 
L 528.58125 357.91875 
L 528.58125 256.3245 
L 353.78325 256.3245 
z
" style="fill:#ffffff;stroke:#000000;stroke-linejoin:miter;"/>
    </g>
    <g id="line2d_40">
     <path d="M 368.90325 273.817125 
L 399.14325 273.817125 
" style="fill:none;stroke:#0000ff;stroke-linecap:square;stroke-width:2.0;"/>
    </g>
    <g id="line2d_41"/>
    <g id="text_16">
     <!-- Levy -->
     <defs>
      <path d="M 2.984375 54.6875 
L 12.5 54.6875 
L 29.59375 8.796875 
L 46.6875 54.6875 
L 56.203125 54.6875 
L 35.6875 0 
L 23.484375 0 
z
" id="BitstreamVeraSans-Roman-76"/>
      <path d="M 32.171875 -5.078125 
Q 28.375 -14.84375 24.75 -17.8125 
Q 21.140625 -20.796875 15.09375 -20.796875 
L 7.90625 -20.796875 
L 7.90625 -13.28125 
L 13.1875 -13.28125 
Q 16.890625 -13.28125 18.9375 -11.515625 
Q 21 -9.765625 23.484375 -3.21875 
L 25.09375 0.875 
L 2.984375 54.6875 
L 12.5 54.6875 
L 29.59375 11.921875 
L 46.6875 54.6875 
L 56.203125 54.6875 
z
" id="BitstreamVeraSans-Roman-79"/>
      <path d="M 9.8125 72.90625 
L 19.671875 72.90625 
L 19.671875 8.296875 
L 55.171875 8.296875 
L 55.171875 0 
L 9.8125 0 
z
" id="BitstreamVeraSans-Roman-4c"/>
     </defs>
     <g transform="translate(422.90325 281.377125)scale(0.21599999999999997 -0.21599999999999997)">
      <use xlink:href="#BitstreamVeraSans-Roman-4c"/>
      <use x="55.697265625" xlink:href="#BitstreamVeraSans-Roman-65"/>
      <use x="117.220703125" xlink:href="#BitstreamVeraSans-Roman-76"/>
      <use x="176.400390625" xlink:href="#BitstreamVeraSans-Roman-79"/>
     </g>
    </g>
    <g id="line2d_42">
     <path d="M 368.90325 305.521875 
L 399.14325 305.521875 
" style="fill:none;stroke:#008000;stroke-linecap:square;stroke-width:2.0;"/>
    </g>
    <g id="line2d_43"/>
    <g id="text_17">
     <!-- CRW -->
     <defs>
      <path d="M 64.40625 67.28125 
L 64.40625 56.890625 
Q 59.421875 61.53125 53.78125 63.8125 
Q 48.140625 66.109375 41.796875 66.109375 
Q 29.296875 66.109375 22.65625 58.46875 
Q 16.015625 50.828125 16.015625 36.375 
Q 16.015625 21.96875 22.65625 14.328125 
Q 29.296875 6.6875 41.796875 6.6875 
Q 48.140625 6.6875 53.78125 8.984375 
Q 59.421875 11.28125 64.40625 15.921875 
L 64.40625 5.609375 
Q 59.234375 2.09375 53.4375 0.328125 
Q 47.65625 -1.421875 41.21875 -1.421875 
Q 24.65625 -1.421875 15.125 8.703125 
Q 5.609375 18.84375 5.609375 36.375 
Q 5.609375 53.953125 15.125 64.078125 
Q 24.65625 74.21875 41.21875 74.21875 
Q 47.75 74.21875 53.53125 72.484375 
Q 59.328125 70.75 64.40625 67.28125 
" id="BitstreamVeraSans-Roman-43"/>
      <path d="M 3.328125 72.90625 
L 13.28125 72.90625 
L 28.609375 11.28125 
L 43.890625 72.90625 
L 54.984375 72.90625 
L 70.3125 11.28125 
L 85.59375 72.90625 
L 95.609375 72.90625 
L 77.296875 0 
L 64.890625 0 
L 49.515625 63.28125 
L 33.984375 0 
L 21.578125 0 
z
" id="BitstreamVeraSans-Roman-57"/>
      <path d="M 44.390625 34.1875 
Q 47.5625 33.109375 50.5625 29.59375 
Q 53.5625 26.078125 56.59375 19.921875 
L 66.609375 0 
L 56 0 
L 46.6875 18.703125 
Q 43.0625 26.03125 39.671875 28.421875 
Q 36.28125 30.8125 30.421875 30.8125 
L 19.671875 30.8125 
L 19.671875 0 
L 9.8125 0 
L 9.8125 72.90625 
L 32.078125 72.90625 
Q 44.578125 72.90625 50.734375 67.671875 
Q 56.890625 62.453125 56.890625 51.90625 
Q 56.890625 45.015625 53.6875 40.46875 
Q 50.484375 35.9375 44.390625 34.1875 
M 19.671875 64.796875 
L 19.671875 38.921875 
L 32.078125 38.921875 
Q 39.203125 38.921875 42.84375 42.21875 
Q 46.484375 45.515625 46.484375 51.90625 
Q 46.484375 58.296875 42.84375 61.546875 
Q 39.203125 64.796875 32.078125 64.796875 
z
" id="BitstreamVeraSans-Roman-52"/>
     </defs>
     <g transform="translate(422.90325 313.081875)scale(0.21599999999999997 -0.21599999999999997)">
      <use xlink:href="#BitstreamVeraSans-Roman-43"/>
      <use x="69.82421875" xlink:href="#BitstreamVeraSans-Roman-52"/>
      <use x="139.244140625" xlink:href="#BitstreamVeraSans-Roman-57"/>
     </g>
    </g>
    <g id="line2d_44">
     <path d="M 368.90325 337.226625 
L 399.14325 337.226625 
" style="fill:none;stroke:#ff0000;stroke-linecap:square;stroke-width:2.0;"/>
    </g>
    <g id="line2d_45"/>
    <g id="text_18">
     <!-- CRW 50s -->
     <g transform="translate(422.90325 344.786625)scale(0.21599999999999997 -0.21599999999999997)">
      <use xlink:href="#BitstreamVeraSans-Roman-43"/>
      <use x="69.82421875" xlink:href="#BitstreamVeraSans-Roman-52"/>
      <use x="139.244140625" xlink:href="#BitstreamVeraSans-Roman-57"/>
      <use x="238.12109375" xlink:href="#BitstreamVeraSans-Roman-20"/>
      <use x="269.908203125" xlink:href="#BitstreamVeraSans-Roman-35"/>
      <use x="333.53125" xlink:href="#BitstreamVeraSans-Roman-30"/>
      <use x="397.154296875" xlink:href="#BitstreamVeraSans-Roman-73"/>
     </g>
    </g>
   </g>
  </g>
 </g>
 <defs>
  <clipPath id="p5af31c9d7b">
   <rect height="327.866125" width="464.895" x="74.48625" y="40.852625"/>
  </clipPath>
 </defs>
</svg>
