<?xml version="1.0" encoding="utf-8" standalone="no"?>
<!DOCTYPE svg PUBLIC "-//W3C//DTD SVG 1.1//EN"
  "http://www.w3.org/Graphics/SVG/1.1/DTD/svg11.dtd">
<!-- Created with matplotlib (http://matplotlib.org/) -->
<svg height="432pt" version="1.1" viewBox="0 0 576 432" width="576pt" xmlns="http://www.w3.org/2000/svg" xmlns:xlink="http://www.w3.org/1999/xlink">
 <defs>
  <style type="text/css">
*{stroke-linecap:butt;stroke-linejoin:round;stroke-miterlimit:100000;}
  </style>
 </defs>
 <g id="figure_1">
  <g id="patch_1">
   <path d="M 0 432 
L 576 432 
L 576 0 
L 0 0 
z
" style="fill:#ffffff;"/>
  </g>
  <g id="axes_1">
   <g id="patch_2">
    <path d="M 74.48625 368.71875 
L 539.38125 368.71875 
L 539.38125 40.852625 
L 74.48625 40.852625 
z
" style="fill:#ffffff;"/>
   </g>
   <g id="line2d_1">
    <path clip-path="url(#pab217e5e76)" d="M 83.050114 368.71875 
L 83.050114 367.722196 
L 83.423982 365.729089 
L 84.366882 364.732536 
L 84.373265 363.735982 
L 85.626279 362.739429 
L 85.752796 360.746321 
L 86.403911 358.753214 
L 86.989372 357.756661 
L 87.436687 356.760107 
L 89.285868 355.763554 
L 89.293304 354.767 
L 89.781956 353.770446 
L 90.058714 351.777339 
L 90.582064 350.780786 
L 90.726632 349.784232 
L 91.5308 348.787679 
L 92.02981 347.791125 
L 92.211638 346.794571 
L 92.37951 344.801464 
L 92.554733 343.804911 
L 92.879471 342.808357 
L 92.886322 341.811804 
L 93.41618 340.81525 
L 94.494687 339.818696 
L 94.773501 338.822143 
L 95.395121 337.825589 
L 95.765413 334.835929 
L 95.97586 332.842821 
L 96.350064 331.846268 
L 96.702062 329.853161 
L 97.038885 328.856607 
L 97.251274 326.8635 
L 97.321238 325.866946 
L 98.101857 323.873839 
L 98.783589 319.887625 
L 99.195402 318.891071 
L 101.341396 317.894518 
L 101.345315 316.897964 
L 101.618785 315.901411 
L 101.711715 314.904857 
L 102.131195 312.91175 
L 102.195992 311.915196 
L 102.540741 310.918643 
L 102.542993 309.922089 
L 104.035964 308.925536 
L 104.289069 307.928982 
L 104.40081 306.932429 
L 105.370352 304.939321 
L 105.653857 303.942768 
L 105.728828 302.946214 
L 107.244996 301.949661 
L 109.12491 300.953107 
L 109.21963 299.956554 
L 110.332689 298.96 
L 111.00361 297.963446 
L 111.445965 296.966893 
L 111.502654 294.973786 
L 112.393708 293.977232 
L 112.587591 291.984125 
L 113.32994 290.987571 
L 113.438332 288.994464 
L 113.963604 287.997911 
L 114.267239 287.001357 
L 115.071936 286.004804 
L 116.197279 284.011696 
L 116.452301 283.015143 
L 117.149657 282.018589 
L 117.602798 281.022036 
L 117.760239 279.028929 
L 118.729815 278.032375 
L 119.280774 277.035821 
L 120.453603 276.039268 
L 121.065447 275.042714 
L 121.533604 274.046161 
L 121.809268 273.049607 
L 121.909895 272.053054 
L 122.26809 271.0565 
L 123.362468 270.059946 
L 124.605942 264.080625 
L 125.310935 263.084071 
L 125.478607 262.087518 
L 125.483134 261.090964 
L 126.32427 260.094411 
L 127.545341 259.097857 
L 128.482863 257.10475 
L 129.950665 256.108196 
L 130.203675 255.111643 
L 131.160913 254.115089 
L 131.551923 251.125429 
L 131.847277 250.128875 
L 132.586935 249.132321 
L 132.916746 248.135768 
L 135.37705 247.139214 
L 136.483172 245.146107 
L 137.622153 244.149554 
L 137.692899 242.156446 
L 138.225022 241.159893 
L 139.238873 240.163339 
L 140.828157 237.173679 
L 141.253891 235.180571 
L 142.321539 234.184018 
L 142.404336 233.187464 
L 142.86543 231.194357 
L 143.321144 230.197804 
L 144.078055 228.204696 
L 144.443567 227.208143 
L 146.47238 226.211589 
L 147.040066 224.218482 
L 149.371726 223.221929 
L 150.489219 222.225375 
L 151.176451 221.228821 
L 151.608298 220.232268 
L 151.671654 219.235714 
L 152.705118 218.239161 
L 153.20784 217.242607 
L 153.562227 216.246054 
L 155.159495 215.2495 
L 155.81982 214.252946 
L 157.434097 213.256393 
L 157.693839 212.259839 
L 158.498367 211.263286 
L 158.881355 210.266732 
L 159.031847 209.270179 
L 160.774485 208.273625 
L 161.382481 207.277071 
L 162.103339 205.283964 
L 162.87271 204.287411 
L 163.431679 203.290857 
L 164.471123 202.294304 
L 164.634787 201.29775 
L 165.528537 200.301196 
L 166.65451 198.308089 
L 168.930983 197.311536 
L 170.799202 196.314982 
L 171.290648 195.318429 
L 172.252265 194.321875 
L 172.505014 190.335661 
L 174.609505 189.339107 
L 175.324679 188.342554 
L 176.870993 187.346 
L 178.507588 185.352893 
L 181.921529 184.356339 
L 186.308512 182.363232 
L 187.024093 181.366679 
L 188.619603 180.370125 
L 189.515354 179.373571 
L 190.148371 178.377018 
L 190.475166 177.380464 
L 192.209464 176.383911 
L 192.904548 175.387357 
L 192.975709 173.39425 
L 193.184067 172.397696 
L 193.256857 171.401143 
L 195.462603 169.408036 
L 196.197979 168.411482 
L 197.155146 166.418375 
L 198.403908 164.425268 
L 198.600597 163.428714 
L 199.948976 162.432161 
L 200.81522 160.439054 
L 204.930195 159.4425 
L 204.988277 158.445946 
L 205.911914 157.449393 
L 206.041876 155.456286 
L 206.572491 154.459732 
L 206.767243 153.463179 
L 207.162341 152.466625 
L 207.260609 151.470071 
L 208.106478 150.473518 
L 208.21456 148.480411 
L 209.39679 146.487304 
L 209.426429 145.49075 
L 210.096895 144.494196 
L 211.368045 143.497643 
L 212.055575 142.501089 
L 212.060221 141.504536 
L 212.663246 140.507982 
L 213.777509 139.511429 
L 214.089697 138.514875 
L 214.644701 137.518321 
L 214.844051 136.521768 
L 216.542297 135.525214 
L 217.538777 134.528661 
L 217.806883 133.532107 
L 217.953953 132.535554 
L 218.775765 131.539 
L 219.158165 130.542446 
L 222.640485 129.545893 
L 224.487428 128.549339 
L 225.19316 127.552786 
L 225.935229 125.559679 
L 225.970946 124.563125 
L 227.18203 123.566571 
L 227.25002 122.570018 
L 227.714564 121.573464 
L 228.499171 120.576911 
L 229.001752 119.580357 
L 230.236478 118.583804 
L 231.244873 117.58725 
L 231.415726 116.590696 
L 232.312115 115.594143 
L 232.473002 114.597589 
L 233.248568 113.601036 
L 236.690381 111.607929 
L 238.347919 110.611375 
L 238.686369 109.614821 
L 238.819651 108.618268 
L 239.610079 106.625161 
L 241.215263 105.628607 
L 241.62525 104.632054 
L 242.208453 103.6355 
L 242.392186 102.638946 
L 242.819148 101.642393 
L 243.487622 100.645839 
L 243.68032 99.649286 
L 244.78829 98.652732 
L 244.94998 97.656179 
L 245.346586 96.659625 
L 245.582674 95.663071 
L 248.789089 94.666518 
L 249.500202 93.669964 
L 251.287146 92.673411 
L 251.840639 91.676857 
L 251.932029 90.680304 
L 253.871117 89.68375 
L 256.099076 87.690643 
L 256.592011 86.694089 
L 258.740495 85.697536 
L 259.627183 84.700982 
L 262.569433 83.704429 
L 263.081208 82.707875 
L 264.016755 81.711321 
L 264.23177 80.714768 
L 266.232194 79.718214 
L 266.393742 78.721661 
L 270.421691 77.725107 
L 271.76899 76.728554 
L 272.000659 75.732 
L 273.258926 73.738893 
L 274.569031 72.742339 
L 274.91273 71.745786 
L 274.957253 70.749232 
L 277.185203 69.752679 
L 277.604521 67.759571 
L 279.289516 66.763018 
L 280.753321 65.766464 
L 281.47997 64.769911 
L 282.508605 63.773357 
L 282.657498 62.776804 
L 285.792467 61.78025 
L 290.355383 60.783696 
L 291.593737 59.787143 
L 292.343123 58.790589 
L 301.87355 57.794036 
L 302.743047 55.800929 
L 304.492326 54.804375 
L 309.065078 53.807821 
L 309.402499 52.811268 
L 310.358831 51.814714 
L 314.464101 50.818161 
L 317.948002 49.821607 
L 320.470834 48.825054 
L 322.675314 47.8285 
L 323.186466 46.831946 
L 325.04554 45.835393 
L 327.322648 44.838839 
L 344.024627 43.842286 
L 346.102572 42.845732 
L 384.152491 41.849179 
L 473.781626 40.852625 
L 473.781626 40.852625 
" style="fill:none;stroke:#0000ff;stroke-linecap:square;stroke-width:2.0;"/>
   </g>
   <g id="line2d_2">
    <path clip-path="url(#pab217e5e76)" d="M 74.797869 368.71875 
L 74.797869 367.495369 
L 75.515126 366.271988 
L 75.844136 365.048607 
L 76.022614 363.825226 
L 76.027261 362.601845 
L 76.270904 361.378464 
L 76.953999 360.155083 
L 77.363006 355.261558 
L 77.69014 351.591415 
L 78.656213 350.368034 
L 79.722981 347.921272 
L 79.843503 345.47451 
L 80.136305 344.251129 
L 80.258431 343.027748 
L 80.493789 341.804367 
L 80.735594 339.357604 
L 81.211181 338.134223 
L 81.285743 336.910842 
L 81.975718 333.240699 
L 82.455549 332.017318 
L 82.684248 329.570556 
L 83.327884 328.347175 
L 83.442734 327.123794 
L 84.255522 325.900413 
L 84.946635 322.23027 
L 85.034972 321.006889 
L 85.447329 319.783507 
L 85.72196 318.560126 
L 85.742284 317.336745 
L 86.089551 316.113364 
L 86.305313 313.666602 
L 87.07881 312.443221 
L 87.460311 309.996459 
L 88.335083 308.773078 
L 88.456782 307.549697 
L 89.213658 306.326316 
L 89.282047 303.879554 
L 89.425466 302.656173 
L 89.704277 301.432792 
L 90.317067 300.20941 
L 90.56658 298.986029 
L 90.647216 295.315886 
L 91.155734 294.092505 
L 91.522824 292.869124 
L 92.098553 291.645743 
L 92.863144 289.198981 
L 93.024324 287.9756 
L 93.410614 286.752219 
L 93.581409 285.528838 
L 94.374799 284.305457 
L 94.389767 283.082076 
L 94.571374 281.858694 
L 95.041492 280.635313 
L 95.819414 279.411932 
L 95.951626 278.188551 
L 96.770805 275.741789 
L 96.936899 274.518408 
L 97.702919 273.295027 
L 97.826964 272.071646 
L 98.262607 270.848265 
L 98.311267 269.624884 
L 98.594166 268.401503 
L 98.648353 267.178122 
L 99.354226 265.954741 
L 100.86077 264.73136 
L 101.003416 263.507979 
L 102.776503 262.284597 
L 103.269475 261.061216 
L 105.227501 259.837835 
L 105.724828 258.614454 
L 107.739963 257.391073 
L 107.910318 256.167692 
L 108.222877 254.944311 
L 108.312839 253.72093 
L 108.840664 252.497549 
L 109.288548 250.050787 
L 109.522945 248.827406 
L 110.361295 247.604025 
L 112.091878 246.380644 
L 112.11699 245.157263 
L 113.302262 243.933882 
L 113.356406 242.7105 
L 113.961157 240.263738 
L 114.752218 239.040357 
L 114.916682 237.816976 
L 115.448955 236.593595 
L 115.461845 235.370214 
L 115.828106 234.146833 
L 115.843425 232.923452 
L 116.854013 231.700071 
L 117.795615 228.029928 
L 119.111384 226.806547 
L 119.420023 225.583166 
L 119.794079 221.913022 
L 120.659238 219.46626 
L 121.544457 215.796117 
L 122.060044 214.572736 
L 122.976193 213.349355 
L 123.735387 212.125974 
L 124.869832 210.902593 
L 124.903401 209.679212 
L 125.141176 208.455831 
L 125.782273 207.23245 
L 127.735143 206.009069 
L 128.849399 203.562306 
L 129.561237 202.338925 
L 129.613636 201.115544 
L 131.465722 199.892163 
L 132.508796 198.668782 
L 133.030964 197.445401 
L 133.387122 196.22202 
L 136.250468 194.998639 
L 136.808938 193.775258 
L 137.128153 190.105115 
L 137.592974 188.881734 
L 138.709542 187.658353 
L 139.060329 185.21159 
L 139.562744 182.764828 
L 139.702171 181.541447 
L 140.083428 180.318066 
L 141.351485 179.094685 
L 142.048551 177.871304 
L 142.406432 176.647923 
L 142.741133 174.201161 
L 143.239366 172.97778 
L 143.512063 171.754399 
L 144.221262 170.531018 
L 144.464662 169.307637 
L 146.946184 168.084256 
L 147.322532 166.860875 
L 148.762124 165.637493 
L 149.401452 164.414112 
L 149.519487 163.190731 
L 150.072138 161.96735 
L 151.59006 159.520588 
L 152.001432 158.297207 
L 152.818621 157.073826 
L 154.429778 155.850445 
L 154.54316 153.403683 
L 154.951089 152.180302 
L 155.549638 150.956921 
L 155.745338 149.73354 
L 155.755764 148.510159 
L 156.157102 147.286778 
L 156.196579 146.063396 
L 156.718738 144.840015 
L 156.910129 143.616634 
L 157.500112 142.393253 
L 158.28805 141.169872 
L 158.531025 139.946491 
L 158.678224 137.499729 
L 159.075406 136.276348 
L 159.486486 133.829586 
L 162.976076 132.606205 
L 164.279135 131.382824 
L 165.138124 128.936062 
L 165.96683 127.712681 
L 166.07148 126.489299 
L 167.73545 125.265918 
L 167.782478 124.042537 
L 169.214719 122.819156 
L 169.359556 121.595775 
L 170.257945 120.372394 
L 170.431565 117.925632 
L 170.949002 116.702251 
L 171.195382 115.47887 
L 172.10554 114.255489 
L 173.870347 113.032108 
L 174.518595 111.808727 
L 174.791792 110.585346 
L 174.874993 109.361965 
L 176.011277 108.138583 
L 177.422259 106.915202 
L 177.483014 105.691821 
L 177.872816 103.245059 
L 178.646639 102.021678 
L 178.765678 100.798297 
L 180.207706 99.574916 
L 180.316248 98.351535 
L 181.645575 97.128154 
L 182.121404 95.904773 
L 183.328683 94.681392 
L 184.211239 93.458011 
L 185.612601 92.23463 
L 185.777401 89.787868 
L 186.319288 88.564486 
L 187.937663 86.117724 
L 189.857609 84.894343 
L 191.312128 83.670962 
L 197.171352 82.447581 
L 197.356973 81.2242 
L 201.683404 80.000819 
L 202.809588 78.777438 
L 203.323516 77.554057 
L 204.543345 75.107295 
L 207.673719 73.883914 
L 208.405048 72.660533 
L 210.097192 71.437152 
L 213.197169 70.213771 
L 214.972705 68.990389 
L 215.592782 66.543627 
L 215.951299 65.320246 
L 217.126795 64.096865 
L 218.423276 61.650103 
L 221.676963 60.426722 
L 225.289692 59.203341 
L 226.258796 57.97996 
L 228.574098 56.756579 
L 233.276904 55.533198 
L 239.295536 54.309817 
L 241.20809 53.086436 
L 242.424943 51.863055 
L 249.729948 50.639674 
L 250.890902 49.416292 
L 258.584553 48.192911 
L 262.296982 46.96953 
L 266.634955 45.746149 
L 280.32263 43.299387 
L 288.807227 42.076006 
L 291.84875 40.852625 
L 291.84875 40.852625 
" style="fill:none;stroke:#008000;stroke-linecap:square;stroke-width:2.0;"/>
   </g>
   <g id="line2d_3">
    <path clip-path="url(#pab217e5e76)" d="M 74.881377 368.71875 
L 74.881377 366.234916 
L 76.886715 363.751081 
L 77.009762 361.267247 
L 78.628927 358.783413 
L 79.91246 356.299579 
L 80.598347 353.815744 
L 82.418368 351.33191 
L 82.441996 348.848076 
L 83.22796 346.364241 
L 84.16788 341.396573 
L 84.49208 333.94507 
L 85.581929 331.461236 
L 86.182459 328.977402 
L 86.4728 326.493567 
L 86.847222 319.042064 
L 87.2057 316.55823 
L 87.616292 311.590562 
L 88.741968 309.106727 
L 90.448417 306.622893 
L 90.855047 304.139059 
L 91.52846 301.655224 
L 91.770752 299.17139 
L 93.413145 296.687556 
L 94.667546 294.203722 
L 94.885654 291.719887 
L 95.734073 286.752219 
L 95.774407 284.268384 
L 97.710583 281.78455 
L 98.189784 279.300716 
L 99.421169 276.816882 
L 100.276799 274.333047 
L 102.349229 271.849213 
L 102.43899 269.365379 
L 105.560571 266.881545 
L 105.569664 264.39771 
L 106.358493 261.913876 
L 106.597988 259.430042 
L 107.587984 254.462373 
L 108.371959 251.978539 
L 110.57406 249.494705 
L 111.879604 247.01087 
L 112.045902 244.527036 
L 112.864795 242.043202 
L 113.002082 239.559367 
L 113.927636 237.075533 
L 113.989543 234.591699 
L 114.45326 232.107865 
L 115.498119 229.62403 
L 115.504697 227.140196 
L 115.749002 224.656362 
L 116.332224 222.172527 
L 116.703619 219.688693 
L 116.718799 217.204859 
L 118.380163 214.721025 
L 119.16736 212.23719 
L 120.243666 209.753356 
L 121.525468 202.301853 
L 122.015362 194.85035 
L 122.741321 192.366516 
L 122.78717 189.882682 
L 123.302065 187.398848 
L 123.63653 184.915013 
L 124.541656 179.947345 
L 127.550971 177.46351 
L 128.074392 174.979676 
L 129.393437 172.495842 
L 130.089979 170.012008 
L 135.130393 162.560505 
L 136.125607 160.07667 
L 139.280421 157.592836 
L 140.78112 152.625168 
L 142.76549 150.141333 
L 143.561642 147.657499 
L 147.262632 145.173665 
L 148.053583 142.68983 
L 148.21911 140.205996 
L 154.402944 137.722162 
L 154.790491 135.238328 
L 163.649188 130.270659 
L 164.360967 127.786825 
L 166.348038 125.302991 
L 166.612783 122.819156 
L 167.525299 120.335322 
L 168.145847 117.851488 
L 169.212022 115.367653 
L 172.410494 112.883819 
L 172.523241 110.399985 
L 178.307064 107.916151 
L 180.468178 105.432316 
L 180.844067 102.948482 
L 180.928385 100.464648 
L 185.775725 97.980813 
L 185.908514 95.496979 
L 186.208671 93.013145 
L 188.350121 90.529311 
L 190.198549 88.045476 
L 190.198945 85.561642 
L 195.122359 83.077808 
L 196.745376 80.593973 
L 197.6331 78.110139 
L 200.595233 75.626305 
L 206.231737 73.142471 
L 207.991581 70.658636 
L 212.82816 68.174802 
L 214.711483 65.690968 
L 218.68242 63.207134 
L 220.408408 60.723299 
L 221.997643 58.239465 
L 234.798363 55.755631 
L 242.119996 53.271796 
L 243.407882 50.787962 
L 252.839883 48.304128 
L 260.666771 45.820294 
L 263.081666 43.336459 
L 289.667237 40.852625 
L 289.667237 40.852625 
" style="fill:none;stroke:#ff0000;stroke-linecap:square;stroke-width:2.0;"/>
   </g>
   <g id="patch_3">
    <path d="M 539.38125 368.71875 
L 539.38125 40.852625 
" style="fill:none;stroke:#000000;stroke-linecap:square;stroke-linejoin:miter;stroke-width:2.0;"/>
   </g>
   <g id="patch_4">
    <path d="M 74.48625 368.71875 
L 539.38125 368.71875 
" style="fill:none;stroke:#000000;stroke-linecap:square;stroke-linejoin:miter;stroke-width:2.0;"/>
   </g>
   <g id="patch_5">
    <path d="M 74.48625 40.852625 
L 539.38125 40.852625 
" style="fill:none;stroke:#000000;stroke-linecap:square;stroke-linejoin:miter;stroke-width:2.0;"/>
   </g>
   <g id="patch_6">
    <path d="M 74.48625 368.71875 
L 74.48625 40.852625 
" style="fill:none;stroke:#000000;stroke-linecap:square;stroke-linejoin:miter;stroke-width:2.0;"/>
   </g>
   <g id="matplotlib.axis_1">
    <g id="xtick_1">
     <g id="line2d_4">
      <path clip-path="url(#pab217e5e76)" d="M 74.48625 368.71875 
L 74.48625 40.852625 
" style="fill:none;stroke:#000000;stroke-dasharray:1.000000,3.000000;stroke-dashoffset:0.0;stroke-width:2.0;"/>
     </g>
     <g id="line2d_5">
      <defs>
       <path d="M 0 0 
L 0 -4 
" id="m9aa2b45a0e" style="stroke:#000000;stroke-width:0.5;"/>
      </defs>
      <g>
       <use style="stroke:#000000;stroke-width:0.5;" x="74.48625" xlink:href="#m9aa2b45a0e" y="368.71875"/>
      </g>
     </g>
     <g id="line2d_6">
      <defs>
       <path d="M 0 0 
L 0 4 
" id="m153d34474f" style="stroke:#000000;stroke-width:0.5;"/>
      </defs>
      <g>
       <use style="stroke:#000000;stroke-width:0.5;" x="74.48625" xlink:href="#m153d34474f" y="40.852625"/>
      </g>
     </g>
     <g id="text_1">
      <!-- 0 -->
      <defs>
       <path d="M 31.78125 66.40625 
Q 24.171875 66.40625 20.328125 58.90625 
Q 16.5 51.421875 16.5 36.375 
Q 16.5 21.390625 20.328125 13.890625 
Q 24.171875 6.390625 31.78125 6.390625 
Q 39.453125 6.390625 43.28125 13.890625 
Q 47.125 21.390625 47.125 36.375 
Q 47.125 51.421875 43.28125 58.90625 
Q 39.453125 66.40625 31.78125 66.40625 
M 31.78125 74.21875 
Q 44.046875 74.21875 50.515625 64.515625 
Q 56.984375 54.828125 56.984375 36.375 
Q 56.984375 17.96875 50.515625 8.265625 
Q 44.046875 -1.421875 31.78125 -1.421875 
Q 19.53125 -1.421875 13.0625 8.265625 
Q 6.59375 17.96875 6.59375 36.375 
Q 6.59375 54.828125 13.0625 64.515625 
Q 19.53125 74.21875 31.78125 74.21875 
" id="BitstreamVeraSans-Roman-30"/>
      </defs>
      <g transform="translate(68.76 386.3959375)scale(0.18 -0.18)">
       <use xlink:href="#BitstreamVeraSans-Roman-30"/>
      </g>
     </g>
    </g>
    <g id="xtick_2">
     <g id="line2d_7">
      <path clip-path="url(#pab217e5e76)" d="M 151.96875 368.71875 
L 151.96875 40.852625 
" style="fill:none;stroke:#000000;stroke-dasharray:1.000000,3.000000;stroke-dashoffset:0.0;stroke-width:2.0;"/>
     </g>
     <g id="line2d_8">
      <g>
       <use style="stroke:#000000;stroke-width:0.5;" x="151.96875" xlink:href="#m9aa2b45a0e" y="368.71875"/>
      </g>
     </g>
     <g id="line2d_9">
      <g>
       <use style="stroke:#000000;stroke-width:0.5;" x="151.96875" xlink:href="#m153d34474f" y="40.852625"/>
      </g>
     </g>
     <g id="text_2">
      <!-- 100 -->
      <defs>
       <path d="M 12.40625 8.296875 
L 28.515625 8.296875 
L 28.515625 63.921875 
L 10.984375 60.40625 
L 10.984375 69.390625 
L 28.421875 72.90625 
L 38.28125 72.90625 
L 38.28125 8.296875 
L 54.390625 8.296875 
L 54.390625 0 
L 12.40625 0 
z
" id="BitstreamVeraSans-Roman-31"/>
      </defs>
      <g transform="translate(134.79 386.3959375)scale(0.18 -0.18)">
       <use xlink:href="#BitstreamVeraSans-Roman-31"/>
       <use x="63.623046875" xlink:href="#BitstreamVeraSans-Roman-30"/>
       <use x="127.24609375" xlink:href="#BitstreamVeraSans-Roman-30"/>
      </g>
     </g>
    </g>
    <g id="xtick_3">
     <g id="line2d_10">
      <path clip-path="url(#pab217e5e76)" d="M 229.45125 368.71875 
L 229.45125 40.852625 
" style="fill:none;stroke:#000000;stroke-dasharray:1.000000,3.000000;stroke-dashoffset:0.0;stroke-width:2.0;"/>
     </g>
     <g id="line2d_11">
      <g>
       <use style="stroke:#000000;stroke-width:0.5;" x="229.45125" xlink:href="#m9aa2b45a0e" y="368.71875"/>
      </g>
     </g>
     <g id="line2d_12">
      <g>
       <use style="stroke:#000000;stroke-width:0.5;" x="229.45125" xlink:href="#m153d34474f" y="40.852625"/>
      </g>
     </g>
     <g id="text_3">
      <!-- 200 -->
      <defs>
       <path d="M 19.1875 8.296875 
L 53.609375 8.296875 
L 53.609375 0 
L 7.328125 0 
L 7.328125 8.296875 
Q 12.9375 14.109375 22.625 23.890625 
Q 32.328125 33.6875 34.8125 36.53125 
Q 39.546875 41.84375 41.421875 45.53125 
Q 43.3125 49.21875 43.3125 52.78125 
Q 43.3125 58.59375 39.234375 62.25 
Q 35.15625 65.921875 28.609375 65.921875 
Q 23.96875 65.921875 18.8125 64.3125 
Q 13.671875 62.703125 7.8125 59.421875 
L 7.8125 69.390625 
Q 13.765625 71.78125 18.9375 73 
Q 24.125 74.21875 28.421875 74.21875 
Q 39.75 74.21875 46.484375 68.546875 
Q 53.21875 62.890625 53.21875 53.421875 
Q 53.21875 48.921875 51.53125 44.890625 
Q 49.859375 40.875 45.40625 35.40625 
Q 44.1875 33.984375 37.640625 27.21875 
Q 31.109375 20.453125 19.1875 8.296875 
" id="BitstreamVeraSans-Roman-32"/>
      </defs>
      <g transform="translate(212.2725 386.3959375)scale(0.18 -0.18)">
       <use xlink:href="#BitstreamVeraSans-Roman-32"/>
       <use x="63.623046875" xlink:href="#BitstreamVeraSans-Roman-30"/>
       <use x="127.24609375" xlink:href="#BitstreamVeraSans-Roman-30"/>
      </g>
     </g>
    </g>
    <g id="xtick_4">
     <g id="line2d_13">
      <path clip-path="url(#pab217e5e76)" d="M 306.93375 368.71875 
L 306.93375 40.852625 
" style="fill:none;stroke:#000000;stroke-dasharray:1.000000,3.000000;stroke-dashoffset:0.0;stroke-width:2.0;"/>
     </g>
     <g id="line2d_14">
      <g>
       <use style="stroke:#000000;stroke-width:0.5;" x="306.93375" xlink:href="#m9aa2b45a0e" y="368.71875"/>
      </g>
     </g>
     <g id="line2d_15">
      <g>
       <use style="stroke:#000000;stroke-width:0.5;" x="306.93375" xlink:href="#m153d34474f" y="40.852625"/>
      </g>
     </g>
     <g id="text_4">
      <!-- 300 -->
      <defs>
       <path d="M 40.578125 39.3125 
Q 47.65625 37.796875 51.625 33 
Q 55.609375 28.21875 55.609375 21.1875 
Q 55.609375 10.40625 48.1875 4.484375 
Q 40.765625 -1.421875 27.09375 -1.421875 
Q 22.515625 -1.421875 17.65625 -0.515625 
Q 12.796875 0.390625 7.625 2.203125 
L 7.625 11.71875 
Q 11.71875 9.328125 16.59375 8.109375 
Q 21.484375 6.890625 26.8125 6.890625 
Q 36.078125 6.890625 40.9375 10.546875 
Q 45.796875 14.203125 45.796875 21.1875 
Q 45.796875 27.640625 41.28125 31.265625 
Q 36.765625 34.90625 28.71875 34.90625 
L 20.21875 34.90625 
L 20.21875 43.015625 
L 29.109375 43.015625 
Q 36.375 43.015625 40.234375 45.921875 
Q 44.09375 48.828125 44.09375 54.296875 
Q 44.09375 59.90625 40.109375 62.90625 
Q 36.140625 65.921875 28.71875 65.921875 
Q 24.65625 65.921875 20.015625 65.03125 
Q 15.375 64.15625 9.8125 62.3125 
L 9.8125 71.09375 
Q 15.4375 72.65625 20.34375 73.4375 
Q 25.25 74.21875 29.59375 74.21875 
Q 40.828125 74.21875 47.359375 69.109375 
Q 53.90625 64.015625 53.90625 55.328125 
Q 53.90625 49.265625 50.4375 45.09375 
Q 46.96875 40.921875 40.578125 39.3125 
" id="BitstreamVeraSans-Roman-33"/>
      </defs>
      <g transform="translate(289.755 386.3959375)scale(0.18 -0.18)">
       <use xlink:href="#BitstreamVeraSans-Roman-33"/>
       <use x="63.623046875" xlink:href="#BitstreamVeraSans-Roman-30"/>
       <use x="127.24609375" xlink:href="#BitstreamVeraSans-Roman-30"/>
      </g>
     </g>
    </g>
    <g id="xtick_5">
     <g id="line2d_16">
      <path clip-path="url(#pab217e5e76)" d="M 384.41625 368.71875 
L 384.41625 40.852625 
" style="fill:none;stroke:#000000;stroke-dasharray:1.000000,3.000000;stroke-dashoffset:0.0;stroke-width:2.0;"/>
     </g>
     <g id="line2d_17">
      <g>
       <use style="stroke:#000000;stroke-width:0.5;" x="384.41625" xlink:href="#m9aa2b45a0e" y="368.71875"/>
      </g>
     </g>
     <g id="line2d_18">
      <g>
       <use style="stroke:#000000;stroke-width:0.5;" x="384.41625" xlink:href="#m153d34474f" y="40.852625"/>
      </g>
     </g>
     <g id="text_5">
      <!-- 400 -->
      <defs>
       <path d="M 37.796875 64.3125 
L 12.890625 25.390625 
L 37.796875 25.390625 
z
M 35.203125 72.90625 
L 47.609375 72.90625 
L 47.609375 25.390625 
L 58.015625 25.390625 
L 58.015625 17.1875 
L 47.609375 17.1875 
L 47.609375 0 
L 37.796875 0 
L 37.796875 17.1875 
L 4.890625 17.1875 
L 4.890625 26.703125 
z
" id="BitstreamVeraSans-Roman-34"/>
      </defs>
      <g transform="translate(367.2375 386.3959375)scale(0.18 -0.18)">
       <use xlink:href="#BitstreamVeraSans-Roman-34"/>
       <use x="63.623046875" xlink:href="#BitstreamVeraSans-Roman-30"/>
       <use x="127.24609375" xlink:href="#BitstreamVeraSans-Roman-30"/>
      </g>
     </g>
    </g>
    <g id="xtick_6">
     <g id="line2d_19">
      <path clip-path="url(#pab217e5e76)" d="M 461.89875 368.71875 
L 461.89875 40.852625 
" style="fill:none;stroke:#000000;stroke-dasharray:1.000000,3.000000;stroke-dashoffset:0.0;stroke-width:2.0;"/>
     </g>
     <g id="line2d_20">
      <g>
       <use style="stroke:#000000;stroke-width:0.5;" x="461.89875" xlink:href="#m9aa2b45a0e" y="368.71875"/>
      </g>
     </g>
     <g id="line2d_21">
      <g>
       <use style="stroke:#000000;stroke-width:0.5;" x="461.89875" xlink:href="#m153d34474f" y="40.852625"/>
      </g>
     </g>
     <g id="text_6">
      <!-- 500 -->
      <defs>
       <path d="M 10.796875 72.90625 
L 49.515625 72.90625 
L 49.515625 64.59375 
L 19.828125 64.59375 
L 19.828125 46.734375 
Q 21.96875 47.46875 24.109375 47.828125 
Q 26.265625 48.1875 28.421875 48.1875 
Q 40.625 48.1875 47.75 41.5 
Q 54.890625 34.8125 54.890625 23.390625 
Q 54.890625 11.625 47.5625 5.09375 
Q 40.234375 -1.421875 26.90625 -1.421875 
Q 22.3125 -1.421875 17.546875 -0.640625 
Q 12.796875 0.140625 7.71875 1.703125 
L 7.71875 11.625 
Q 12.109375 9.234375 16.796875 8.0625 
Q 21.484375 6.890625 26.703125 6.890625 
Q 35.15625 6.890625 40.078125 11.328125 
Q 45.015625 15.765625 45.015625 23.390625 
Q 45.015625 31 40.078125 35.4375 
Q 35.15625 39.890625 26.703125 39.890625 
Q 22.75 39.890625 18.8125 39.015625 
Q 14.890625 38.140625 10.796875 36.28125 
z
" id="BitstreamVeraSans-Roman-35"/>
      </defs>
      <g transform="translate(444.72 386.3959375)scale(0.18 -0.18)">
       <use xlink:href="#BitstreamVeraSans-Roman-35"/>
       <use x="63.623046875" xlink:href="#BitstreamVeraSans-Roman-30"/>
       <use x="127.24609375" xlink:href="#BitstreamVeraSans-Roman-30"/>
      </g>
     </g>
    </g>
    <g id="xtick_7">
     <g id="line2d_22">
      <path clip-path="url(#pab217e5e76)" d="M 539.38125 368.71875 
L 539.38125 40.852625 
" style="fill:none;stroke:#000000;stroke-dasharray:1.000000,3.000000;stroke-dashoffset:0.0;stroke-width:2.0;"/>
     </g>
     <g id="line2d_23">
      <g>
       <use style="stroke:#000000;stroke-width:0.5;" x="539.38125" xlink:href="#m9aa2b45a0e" y="368.71875"/>
      </g>
     </g>
     <g id="line2d_24">
      <g>
       <use style="stroke:#000000;stroke-width:0.5;" x="539.38125" xlink:href="#m153d34474f" y="40.852625"/>
      </g>
     </g>
     <g id="text_7">
      <!-- 600 -->
      <defs>
       <path d="M 33.015625 40.375 
Q 26.375 40.375 22.484375 35.828125 
Q 18.609375 31.296875 18.609375 23.390625 
Q 18.609375 15.53125 22.484375 10.953125 
Q 26.375 6.390625 33.015625 6.390625 
Q 39.65625 6.390625 43.53125 10.953125 
Q 47.40625 15.53125 47.40625 23.390625 
Q 47.40625 31.296875 43.53125 35.828125 
Q 39.65625 40.375 33.015625 40.375 
M 52.59375 71.296875 
L 52.59375 62.3125 
Q 48.875 64.0625 45.09375 64.984375 
Q 41.3125 65.921875 37.59375 65.921875 
Q 27.828125 65.921875 22.671875 59.328125 
Q 17.53125 52.734375 16.796875 39.40625 
Q 19.671875 43.65625 24.015625 45.921875 
Q 28.375 48.1875 33.59375 48.1875 
Q 44.578125 48.1875 50.953125 41.515625 
Q 57.328125 34.859375 57.328125 23.390625 
Q 57.328125 12.15625 50.6875 5.359375 
Q 44.046875 -1.421875 33.015625 -1.421875 
Q 20.359375 -1.421875 13.671875 8.265625 
Q 6.984375 17.96875 6.984375 36.375 
Q 6.984375 53.65625 15.1875 63.9375 
Q 23.390625 74.21875 37.203125 74.21875 
Q 40.921875 74.21875 44.703125 73.484375 
Q 48.484375 72.75 52.59375 71.296875 
" id="BitstreamVeraSans-Roman-36"/>
      </defs>
      <g transform="translate(522.2025 386.3959375)scale(0.18 -0.18)">
       <use xlink:href="#BitstreamVeraSans-Roman-36"/>
       <use x="63.623046875" xlink:href="#BitstreamVeraSans-Roman-30"/>
       <use x="127.24609375" xlink:href="#BitstreamVeraSans-Roman-30"/>
      </g>
     </g>
    </g>
    <g id="text_8">
     <!-- Track length (um) -->
     <defs>
      <path d="M 9.421875 75.984375 
L 18.40625 75.984375 
L 18.40625 0 
L 9.421875 0 
z
" id="BitstreamVeraSans-Roman-6c"/>
      <path d="M 8.5 21.578125 
L 8.5 54.6875 
L 17.484375 54.6875 
L 17.484375 21.921875 
Q 17.484375 14.15625 20.5 10.265625 
Q 23.53125 6.390625 29.59375 6.390625 
Q 36.859375 6.390625 41.078125 11.03125 
Q 45.3125 15.671875 45.3125 23.6875 
L 45.3125 54.6875 
L 54.296875 54.6875 
L 54.296875 0 
L 45.3125 0 
L 45.3125 8.40625 
Q 42.046875 3.421875 37.71875 1 
Q 33.40625 -1.421875 27.6875 -1.421875 
Q 18.265625 -1.421875 13.375 4.4375 
Q 8.5 10.296875 8.5 21.578125 
" id="BitstreamVeraSans-Roman-75"/>
      <path d="M -0.296875 72.90625 
L 61.375 72.90625 
L 61.375 64.59375 
L 35.5 64.59375 
L 35.5 0 
L 25.59375 0 
L 25.59375 64.59375 
L -0.296875 64.59375 
z
" id="BitstreamVeraSans-Roman-54"/>
      <path d="M 18.3125 70.21875 
L 18.3125 54.6875 
L 36.8125 54.6875 
L 36.8125 47.703125 
L 18.3125 47.703125 
L 18.3125 18.015625 
Q 18.3125 11.328125 20.140625 9.421875 
Q 21.96875 7.515625 27.59375 7.515625 
L 36.8125 7.515625 
L 36.8125 0 
L 27.59375 0 
Q 17.1875 0 13.234375 3.875 
Q 9.28125 7.765625 9.28125 18.015625 
L 9.28125 47.703125 
L 2.6875 47.703125 
L 2.6875 54.6875 
L 9.28125 54.6875 
L 9.28125 70.21875 
z
" id="BitstreamVeraSans-Roman-74"/>
      <path d="M 34.28125 27.484375 
Q 23.390625 27.484375 19.1875 25 
Q 14.984375 22.515625 14.984375 16.5 
Q 14.984375 11.71875 18.140625 8.90625 
Q 21.296875 6.109375 26.703125 6.109375 
Q 34.1875 6.109375 38.703125 11.40625 
Q 43.21875 16.703125 43.21875 25.484375 
L 43.21875 27.484375 
z
M 52.203125 31.203125 
L 52.203125 0 
L 43.21875 0 
L 43.21875 8.296875 
Q 40.140625 3.328125 35.546875 0.953125 
Q 30.953125 -1.421875 24.3125 -1.421875 
Q 15.921875 -1.421875 10.953125 3.296875 
Q 6 8.015625 6 15.921875 
Q 6 25.140625 12.171875 29.828125 
Q 18.359375 34.515625 30.609375 34.515625 
L 43.21875 34.515625 
L 43.21875 35.40625 
Q 43.21875 41.609375 39.140625 45 
Q 35.0625 48.390625 27.6875 48.390625 
Q 23 48.390625 18.546875 47.265625 
Q 14.109375 46.140625 10.015625 43.890625 
L 10.015625 52.203125 
Q 14.9375 54.109375 19.578125 55.046875 
Q 24.21875 56 28.609375 56 
Q 40.484375 56 46.34375 49.84375 
Q 52.203125 43.703125 52.203125 31.203125 
" id="BitstreamVeraSans-Roman-61"/>
      <path d="M 8.015625 75.875 
L 15.828125 75.875 
Q 23.140625 64.359375 26.78125 53.3125 
Q 30.421875 42.28125 30.421875 31.390625 
Q 30.421875 20.453125 26.78125 9.375 
Q 23.140625 -1.703125 15.828125 -13.1875 
L 8.015625 -13.1875 
Q 14.5 -2 17.703125 9.0625 
Q 20.90625 20.125 20.90625 31.390625 
Q 20.90625 42.671875 17.703125 53.65625 
Q 14.5 64.65625 8.015625 75.875 
" id="BitstreamVeraSans-Roman-29"/>
      <path d="M 54.890625 33.015625 
L 54.890625 0 
L 45.90625 0 
L 45.90625 32.71875 
Q 45.90625 40.484375 42.875 44.328125 
Q 39.84375 48.1875 33.796875 48.1875 
Q 26.515625 48.1875 22.3125 43.546875 
Q 18.109375 38.921875 18.109375 30.90625 
L 18.109375 0 
L 9.078125 0 
L 9.078125 75.984375 
L 18.109375 75.984375 
L 18.109375 46.1875 
Q 21.34375 51.125 25.703125 53.5625 
Q 30.078125 56 35.796875 56 
Q 45.21875 56 50.046875 50.171875 
Q 54.890625 44.34375 54.890625 33.015625 
" id="BitstreamVeraSans-Roman-68"/>
      <path d="M 31 75.875 
Q 24.46875 64.65625 21.28125 53.65625 
Q 18.109375 42.671875 18.109375 31.390625 
Q 18.109375 20.125 21.3125 9.0625 
Q 24.515625 -2 31 -13.1875 
L 23.1875 -13.1875 
Q 15.875 -1.703125 12.234375 9.375 
Q 8.59375 20.453125 8.59375 31.390625 
Q 8.59375 42.28125 12.203125 53.3125 
Q 15.828125 64.359375 23.1875 75.875 
z
" id="BitstreamVeraSans-Roman-28"/>
      <path d="M 9.078125 75.984375 
L 18.109375 75.984375 
L 18.109375 31.109375 
L 44.921875 54.6875 
L 56.390625 54.6875 
L 27.390625 29.109375 
L 57.625 0 
L 45.90625 0 
L 18.109375 26.703125 
L 18.109375 0 
L 9.078125 0 
z
" id="BitstreamVeraSans-Roman-6b"/>
      <path id="BitstreamVeraSans-Roman-20"/>
      <path d="M 48.78125 52.59375 
L 48.78125 44.1875 
Q 44.96875 46.296875 41.140625 47.34375 
Q 37.3125 48.390625 33.40625 48.390625 
Q 24.65625 48.390625 19.8125 42.84375 
Q 14.984375 37.3125 14.984375 27.296875 
Q 14.984375 17.28125 19.8125 11.734375 
Q 24.65625 6.203125 33.40625 6.203125 
Q 37.3125 6.203125 41.140625 7.25 
Q 44.96875 8.296875 48.78125 10.40625 
L 48.78125 2.09375 
Q 45.015625 0.34375 40.984375 -0.53125 
Q 36.96875 -1.421875 32.421875 -1.421875 
Q 20.0625 -1.421875 12.78125 6.34375 
Q 5.515625 14.109375 5.515625 27.296875 
Q 5.515625 40.671875 12.859375 48.328125 
Q 20.21875 56 33.015625 56 
Q 37.15625 56 41.109375 55.140625 
Q 45.0625 54.296875 48.78125 52.59375 
" id="BitstreamVeraSans-Roman-63"/>
      <path d="M 54.890625 33.015625 
L 54.890625 0 
L 45.90625 0 
L 45.90625 32.71875 
Q 45.90625 40.484375 42.875 44.328125 
Q 39.84375 48.1875 33.796875 48.1875 
Q 26.515625 48.1875 22.3125 43.546875 
Q 18.109375 38.921875 18.109375 30.90625 
L 18.109375 0 
L 9.078125 0 
L 9.078125 54.6875 
L 18.109375 54.6875 
L 18.109375 46.1875 
Q 21.34375 51.125 25.703125 53.5625 
Q 30.078125 56 35.796875 56 
Q 45.21875 56 50.046875 50.171875 
Q 54.890625 44.34375 54.890625 33.015625 
" id="BitstreamVeraSans-Roman-6e"/>
      <path d="M 41.109375 46.296875 
Q 39.59375 47.171875 37.8125 47.578125 
Q 36.03125 48 33.890625 48 
Q 26.265625 48 22.1875 43.046875 
Q 18.109375 38.09375 18.109375 28.8125 
L 18.109375 0 
L 9.078125 0 
L 9.078125 54.6875 
L 18.109375 54.6875 
L 18.109375 46.1875 
Q 20.953125 51.171875 25.484375 53.578125 
Q 30.03125 56 36.53125 56 
Q 37.453125 56 38.578125 55.875 
Q 39.703125 55.765625 41.0625 55.515625 
z
" id="BitstreamVeraSans-Roman-72"/>
      <path d="M 56.203125 29.59375 
L 56.203125 25.203125 
L 14.890625 25.203125 
Q 15.484375 15.921875 20.484375 11.0625 
Q 25.484375 6.203125 34.421875 6.203125 
Q 39.59375 6.203125 44.453125 7.46875 
Q 49.3125 8.734375 54.109375 11.28125 
L 54.109375 2.78125 
Q 49.265625 0.734375 44.1875 -0.34375 
Q 39.109375 -1.421875 33.890625 -1.421875 
Q 20.796875 -1.421875 13.15625 6.1875 
Q 5.515625 13.8125 5.515625 26.8125 
Q 5.515625 40.234375 12.765625 48.109375 
Q 20.015625 56 32.328125 56 
Q 43.359375 56 49.78125 48.890625 
Q 56.203125 41.796875 56.203125 29.59375 
M 47.21875 32.234375 
Q 47.125 39.59375 43.09375 43.984375 
Q 39.0625 48.390625 32.421875 48.390625 
Q 24.90625 48.390625 20.390625 44.140625 
Q 15.875 39.890625 15.1875 32.171875 
z
" id="BitstreamVeraSans-Roman-65"/>
      <path d="M 45.40625 27.984375 
Q 45.40625 37.75 41.375 43.109375 
Q 37.359375 48.484375 30.078125 48.484375 
Q 22.859375 48.484375 18.828125 43.109375 
Q 14.796875 37.75 14.796875 27.984375 
Q 14.796875 18.265625 18.828125 12.890625 
Q 22.859375 7.515625 30.078125 7.515625 
Q 37.359375 7.515625 41.375 12.890625 
Q 45.40625 18.265625 45.40625 27.984375 
M 54.390625 6.78125 
Q 54.390625 -7.171875 48.1875 -13.984375 
Q 42 -20.796875 29.203125 -20.796875 
Q 24.46875 -20.796875 20.265625 -20.09375 
Q 16.0625 -19.390625 12.109375 -17.921875 
L 12.109375 -9.1875 
Q 16.0625 -11.328125 19.921875 -12.34375 
Q 23.78125 -13.375 27.78125 -13.375 
Q 36.625 -13.375 41.015625 -8.765625 
Q 45.40625 -4.15625 45.40625 5.171875 
L 45.40625 9.625 
Q 42.625 4.78125 38.28125 2.390625 
Q 33.9375 0 27.875 0 
Q 17.828125 0 11.671875 7.65625 
Q 5.515625 15.328125 5.515625 27.984375 
Q 5.515625 40.671875 11.671875 48.328125 
Q 17.828125 56 27.875 56 
Q 33.9375 56 38.28125 53.609375 
Q 42.625 51.21875 45.40625 46.390625 
L 45.40625 54.6875 
L 54.390625 54.6875 
z
" id="BitstreamVeraSans-Roman-67"/>
      <path d="M 52 44.1875 
Q 55.375 50.25 60.0625 53.125 
Q 64.75 56 71.09375 56 
Q 79.640625 56 84.28125 50.015625 
Q 88.921875 44.046875 88.921875 33.015625 
L 88.921875 0 
L 79.890625 0 
L 79.890625 32.71875 
Q 79.890625 40.578125 77.09375 44.375 
Q 74.3125 48.1875 68.609375 48.1875 
Q 61.625 48.1875 57.5625 43.546875 
Q 53.515625 38.921875 53.515625 30.90625 
L 53.515625 0 
L 44.484375 0 
L 44.484375 32.71875 
Q 44.484375 40.625 41.703125 44.40625 
Q 38.921875 48.1875 33.109375 48.1875 
Q 26.21875 48.1875 22.15625 43.53125 
Q 18.109375 38.875 18.109375 30.90625 
L 18.109375 0 
L 9.078125 0 
L 9.078125 54.6875 
L 18.109375 54.6875 
L 18.109375 46.1875 
Q 21.1875 51.21875 25.484375 53.609375 
Q 29.78125 56 35.6875 56 
Q 41.65625 56 45.828125 52.96875 
Q 50 49.953125 52 44.1875 
" id="BitstreamVeraSans-Roman-6d"/>
     </defs>
     <g transform="translate(226.17984375 408.8165625)scale(0.18 -0.18)">
      <use xlink:href="#BitstreamVeraSans-Roman-54"/>
      <use x="60.865234375" xlink:href="#BitstreamVeraSans-Roman-72"/>
      <use x="101.978515625" xlink:href="#BitstreamVeraSans-Roman-61"/>
      <use x="163.2578125" xlink:href="#BitstreamVeraSans-Roman-63"/>
      <use x="218.23828125" xlink:href="#BitstreamVeraSans-Roman-6b"/>
      <use x="276.1484375" xlink:href="#BitstreamVeraSans-Roman-20"/>
      <use x="307.935546875" xlink:href="#BitstreamVeraSans-Roman-6c"/>
      <use x="335.71875" xlink:href="#BitstreamVeraSans-Roman-65"/>
      <use x="397.2421875" xlink:href="#BitstreamVeraSans-Roman-6e"/>
      <use x="460.62109375" xlink:href="#BitstreamVeraSans-Roman-67"/>
      <use x="524.09765625" xlink:href="#BitstreamVeraSans-Roman-74"/>
      <use x="563.306640625" xlink:href="#BitstreamVeraSans-Roman-68"/>
      <use x="626.685546875" xlink:href="#BitstreamVeraSans-Roman-20"/>
      <use x="658.47265625" xlink:href="#BitstreamVeraSans-Roman-28"/>
      <use x="697.486328125" xlink:href="#BitstreamVeraSans-Roman-75"/>
      <use x="760.865234375" xlink:href="#BitstreamVeraSans-Roman-6d"/>
      <use x="858.27734375" xlink:href="#BitstreamVeraSans-Roman-29"/>
     </g>
    </g>
   </g>
   <g id="matplotlib.axis_2">
    <g id="ytick_1">
     <g id="line2d_25">
      <path clip-path="url(#pab217e5e76)" d="M 74.48625 368.71875 
L 539.38125 368.71875 
" style="fill:none;stroke:#000000;stroke-dasharray:1.000000,3.000000;stroke-dashoffset:0.0;stroke-width:2.0;"/>
     </g>
     <g id="line2d_26">
      <defs>
       <path d="M 0 0 
L 4 0 
" id="m1af8b32471" style="stroke:#000000;stroke-width:0.5;"/>
      </defs>
      <g>
       <use style="stroke:#000000;stroke-width:0.5;" x="74.48625" xlink:href="#m1af8b32471" y="368.71875"/>
      </g>
     </g>
     <g id="line2d_27">
      <defs>
       <path d="M 0 0 
L -4 0 
" id="m5101e706c6" style="stroke:#000000;stroke-width:0.5;"/>
      </defs>
      <g>
       <use style="stroke:#000000;stroke-width:0.5;" x="539.38125" xlink:href="#m5101e706c6" y="368.71875"/>
      </g>
     </g>
     <g id="text_9">
      <!-- 0.0 -->
      <defs>
       <path d="M 10.6875 12.40625 
L 21 12.40625 
L 21 0 
L 10.6875 0 
z
" id="BitstreamVeraSans-Roman-2e"/>
      </defs>
      <g transform="translate(41.860625 373.685625)scale(0.18 -0.18)">
       <use xlink:href="#BitstreamVeraSans-Roman-30"/>
       <use x="63.623046875" xlink:href="#BitstreamVeraSans-Roman-2e"/>
       <use x="95.41015625" xlink:href="#BitstreamVeraSans-Roman-30"/>
      </g>
     </g>
    </g>
    <g id="ytick_2">
     <g id="line2d_28">
      <path clip-path="url(#pab217e5e76)" d="M 74.48625 303.145525 
L 539.38125 303.145525 
" style="fill:none;stroke:#000000;stroke-dasharray:1.000000,3.000000;stroke-dashoffset:0.0;stroke-width:2.0;"/>
     </g>
     <g id="line2d_29">
      <g>
       <use style="stroke:#000000;stroke-width:0.5;" x="74.48625" xlink:href="#m1af8b32471" y="303.145525"/>
      </g>
     </g>
     <g id="line2d_30">
      <g>
       <use style="stroke:#000000;stroke-width:0.5;" x="539.38125" xlink:href="#m5101e706c6" y="303.145525"/>
      </g>
     </g>
     <g id="text_10">
      <!-- 0.2 -->
      <g transform="translate(41.860625 308.1124)scale(0.18 -0.18)">
       <use xlink:href="#BitstreamVeraSans-Roman-30"/>
       <use x="63.623046875" xlink:href="#BitstreamVeraSans-Roman-2e"/>
       <use x="95.41015625" xlink:href="#BitstreamVeraSans-Roman-32"/>
      </g>
     </g>
    </g>
    <g id="ytick_3">
     <g id="line2d_31">
      <path clip-path="url(#pab217e5e76)" d="M 74.48625 237.5723 
L 539.38125 237.5723 
" style="fill:none;stroke:#000000;stroke-dasharray:1.000000,3.000000;stroke-dashoffset:0.0;stroke-width:2.0;"/>
     </g>
     <g id="line2d_32">
      <g>
       <use style="stroke:#000000;stroke-width:0.5;" x="74.48625" xlink:href="#m1af8b32471" y="237.5723"/>
      </g>
     </g>
     <g id="line2d_33">
      <g>
       <use style="stroke:#000000;stroke-width:0.5;" x="539.38125" xlink:href="#m5101e706c6" y="237.5723"/>
      </g>
     </g>
     <g id="text_11">
      <!-- 0.4 -->
      <g transform="translate(41.860625 242.539175)scale(0.18 -0.18)">
       <use xlink:href="#BitstreamVeraSans-Roman-30"/>
       <use x="63.623046875" xlink:href="#BitstreamVeraSans-Roman-2e"/>
       <use x="95.41015625" xlink:href="#BitstreamVeraSans-Roman-34"/>
      </g>
     </g>
    </g>
    <g id="ytick_4">
     <g id="line2d_34">
      <path clip-path="url(#pab217e5e76)" d="M 74.48625 171.999075 
L 539.38125 171.999075 
" style="fill:none;stroke:#000000;stroke-dasharray:1.000000,3.000000;stroke-dashoffset:0.0;stroke-width:2.0;"/>
     </g>
     <g id="line2d_35">
      <g>
       <use style="stroke:#000000;stroke-width:0.5;" x="74.48625" xlink:href="#m1af8b32471" y="171.999075"/>
      </g>
     </g>
     <g id="line2d_36">
      <g>
       <use style="stroke:#000000;stroke-width:0.5;" x="539.38125" xlink:href="#m5101e706c6" y="171.999075"/>
      </g>
     </g>
     <g id="text_12">
      <!-- 0.6 -->
      <g transform="translate(41.860625 176.96595)scale(0.18 -0.18)">
       <use xlink:href="#BitstreamVeraSans-Roman-30"/>
       <use x="63.623046875" xlink:href="#BitstreamVeraSans-Roman-2e"/>
       <use x="95.41015625" xlink:href="#BitstreamVeraSans-Roman-36"/>
      </g>
     </g>
    </g>
    <g id="ytick_5">
     <g id="line2d_37">
      <path clip-path="url(#pab217e5e76)" d="M 74.48625 106.42585 
L 539.38125 106.42585 
" style="fill:none;stroke:#000000;stroke-dasharray:1.000000,3.000000;stroke-dashoffset:0.0;stroke-width:2.0;"/>
     </g>
     <g id="line2d_38">
      <g>
       <use style="stroke:#000000;stroke-width:0.5;" x="74.48625" xlink:href="#m1af8b32471" y="106.42585"/>
      </g>
     </g>
     <g id="line2d_39">
      <g>
       <use style="stroke:#000000;stroke-width:0.5;" x="539.38125" xlink:href="#m5101e706c6" y="106.42585"/>
      </g>
     </g>
     <g id="text_13">
      <!-- 0.8 -->
      <defs>
       <path d="M 31.78125 34.625 
Q 24.75 34.625 20.71875 30.859375 
Q 16.703125 27.09375 16.703125 20.515625 
Q 16.703125 13.921875 20.71875 10.15625 
Q 24.75 6.390625 31.78125 6.390625 
Q 38.8125 6.390625 42.859375 10.171875 
Q 46.921875 13.96875 46.921875 20.515625 
Q 46.921875 27.09375 42.890625 30.859375 
Q 38.875 34.625 31.78125 34.625 
M 21.921875 38.8125 
Q 15.578125 40.375 12.03125 44.71875 
Q 8.5 49.078125 8.5 55.328125 
Q 8.5 64.0625 14.71875 69.140625 
Q 20.953125 74.21875 31.78125 74.21875 
Q 42.671875 74.21875 48.875 69.140625 
Q 55.078125 64.0625 55.078125 55.328125 
Q 55.078125 49.078125 51.53125 44.71875 
Q 48 40.375 41.703125 38.8125 
Q 48.828125 37.15625 52.796875 32.3125 
Q 56.78125 27.484375 56.78125 20.515625 
Q 56.78125 9.90625 50.3125 4.234375 
Q 43.84375 -1.421875 31.78125 -1.421875 
Q 19.734375 -1.421875 13.25 4.234375 
Q 6.78125 9.90625 6.78125 20.515625 
Q 6.78125 27.484375 10.78125 32.3125 
Q 14.796875 37.15625 21.921875 38.8125 
M 18.3125 54.390625 
Q 18.3125 48.734375 21.84375 45.5625 
Q 25.390625 42.390625 31.78125 42.390625 
Q 38.140625 42.390625 41.71875 45.5625 
Q 45.3125 48.734375 45.3125 54.390625 
Q 45.3125 60.0625 41.71875 63.234375 
Q 38.140625 66.40625 31.78125 66.40625 
Q 25.390625 66.40625 21.84375 63.234375 
Q 18.3125 60.0625 18.3125 54.390625 
" id="BitstreamVeraSans-Roman-38"/>
      </defs>
      <g transform="translate(41.860625 111.392725)scale(0.18 -0.18)">
       <use xlink:href="#BitstreamVeraSans-Roman-30"/>
       <use x="63.623046875" xlink:href="#BitstreamVeraSans-Roman-2e"/>
       <use x="95.41015625" xlink:href="#BitstreamVeraSans-Roman-38"/>
      </g>
     </g>
    </g>
    <g id="ytick_6">
     <g id="line2d_40">
      <path clip-path="url(#pab217e5e76)" d="M 74.48625 40.852625 
L 539.38125 40.852625 
" style="fill:none;stroke:#000000;stroke-dasharray:1.000000,3.000000;stroke-dashoffset:0.0;stroke-width:2.0;"/>
     </g>
     <g id="line2d_41">
      <g>
       <use style="stroke:#000000;stroke-width:0.5;" x="74.48625" xlink:href="#m1af8b32471" y="40.852625"/>
      </g>
     </g>
     <g id="line2d_42">
      <g>
       <use style="stroke:#000000;stroke-width:0.5;" x="539.38125" xlink:href="#m5101e706c6" y="40.852625"/>
      </g>
     </g>
     <g id="text_14">
      <!-- 1.0 -->
      <g transform="translate(41.860625 45.8195)scale(0.18 -0.18)">
       <use xlink:href="#BitstreamVeraSans-Roman-31"/>
       <use x="63.623046875" xlink:href="#BitstreamVeraSans-Roman-2e"/>
       <use x="95.41015625" xlink:href="#BitstreamVeraSans-Roman-30"/>
      </g>
     </g>
    </g>
    <g id="text_15">
     <!-- Proportion -->
     <defs>
      <path d="M 19.671875 64.796875 
L 19.671875 37.40625 
L 32.078125 37.40625 
Q 38.96875 37.40625 42.71875 40.96875 
Q 46.484375 44.53125 46.484375 51.125 
Q 46.484375 57.671875 42.71875 61.234375 
Q 38.96875 64.796875 32.078125 64.796875 
z
M 9.8125 72.90625 
L 32.078125 72.90625 
Q 44.34375 72.90625 50.609375 67.359375 
Q 56.890625 61.8125 56.890625 51.125 
Q 56.890625 40.328125 50.609375 34.8125 
Q 44.34375 29.296875 32.078125 29.296875 
L 19.671875 29.296875 
L 19.671875 0 
L 9.8125 0 
z
" id="BitstreamVeraSans-Roman-50"/>
      <path d="M 9.421875 54.6875 
L 18.40625 54.6875 
L 18.40625 0 
L 9.421875 0 
z
M 9.421875 75.984375 
L 18.40625 75.984375 
L 18.40625 64.59375 
L 9.421875 64.59375 
z
" id="BitstreamVeraSans-Roman-69"/>
      <path d="M 18.109375 8.203125 
L 18.109375 -20.796875 
L 9.078125 -20.796875 
L 9.078125 54.6875 
L 18.109375 54.6875 
L 18.109375 46.390625 
Q 20.953125 51.265625 25.265625 53.625 
Q 29.59375 56 35.59375 56 
Q 45.5625 56 51.78125 48.09375 
Q 58.015625 40.1875 58.015625 27.296875 
Q 58.015625 14.40625 51.78125 6.484375 
Q 45.5625 -1.421875 35.59375 -1.421875 
Q 29.59375 -1.421875 25.265625 0.953125 
Q 20.953125 3.328125 18.109375 8.203125 
M 48.6875 27.296875 
Q 48.6875 37.203125 44.609375 42.84375 
Q 40.53125 48.484375 33.40625 48.484375 
Q 26.265625 48.484375 22.1875 42.84375 
Q 18.109375 37.203125 18.109375 27.296875 
Q 18.109375 17.390625 22.1875 11.75 
Q 26.265625 6.109375 33.40625 6.109375 
Q 40.53125 6.109375 44.609375 11.75 
Q 48.6875 17.390625 48.6875 27.296875 
" id="BitstreamVeraSans-Roman-70"/>
      <path d="M 30.609375 48.390625 
Q 23.390625 48.390625 19.1875 42.75 
Q 14.984375 37.109375 14.984375 27.296875 
Q 14.984375 17.484375 19.15625 11.84375 
Q 23.34375 6.203125 30.609375 6.203125 
Q 37.796875 6.203125 41.984375 11.859375 
Q 46.1875 17.53125 46.1875 27.296875 
Q 46.1875 37.015625 41.984375 42.703125 
Q 37.796875 48.390625 30.609375 48.390625 
M 30.609375 56 
Q 42.328125 56 49.015625 48.375 
Q 55.71875 40.765625 55.71875 27.296875 
Q 55.71875 13.875 49.015625 6.21875 
Q 42.328125 -1.421875 30.609375 -1.421875 
Q 18.84375 -1.421875 12.171875 6.21875 
Q 5.515625 13.875 5.515625 27.296875 
Q 5.515625 40.765625 12.171875 48.375 
Q 18.84375 56 30.609375 56 
" id="BitstreamVeraSans-Roman-6f"/>
     </defs>
     <g transform="translate(33.1171875 251.5744375)rotate(-90.0)scale(0.18 -0.18)">
      <use xlink:href="#BitstreamVeraSans-Roman-50"/>
      <use x="60.287109375" xlink:href="#BitstreamVeraSans-Roman-72"/>
      <use x="101.369140625" xlink:href="#BitstreamVeraSans-Roman-6f"/>
      <use x="162.55078125" xlink:href="#BitstreamVeraSans-Roman-70"/>
      <use x="226.02734375" xlink:href="#BitstreamVeraSans-Roman-6f"/>
      <use x="287.208984375" xlink:href="#BitstreamVeraSans-Roman-72"/>
      <use x="328.322265625" xlink:href="#BitstreamVeraSans-Roman-74"/>
      <use x="367.53125" xlink:href="#BitstreamVeraSans-Roman-69"/>
      <use x="395.314453125" xlink:href="#BitstreamVeraSans-Roman-6f"/>
      <use x="456.49609375" xlink:href="#BitstreamVeraSans-Roman-6e"/>
     </g>
    </g>
   </g>
   <g id="text_16">
    <!-- Track Length -->
    <defs>
     <path d="M 9.8125 72.90625 
L 19.671875 72.90625 
L 19.671875 8.296875 
L 55.171875 8.296875 
L 55.171875 0 
L 9.8125 0 
z
" id="BitstreamVeraSans-Roman-4c"/>
    </defs>
    <g transform="translate(236.237625 35.852625)scale(0.21599999999999997 -0.21599999999999997)">
     <use xlink:href="#BitstreamVeraSans-Roman-54"/>
     <use x="60.865234375" xlink:href="#BitstreamVeraSans-Roman-72"/>
     <use x="101.978515625" xlink:href="#BitstreamVeraSans-Roman-61"/>
     <use x="163.2578125" xlink:href="#BitstreamVeraSans-Roman-63"/>
     <use x="218.23828125" xlink:href="#BitstreamVeraSans-Roman-6b"/>
     <use x="276.1484375" xlink:href="#BitstreamVeraSans-Roman-20"/>
     <use x="307.935546875" xlink:href="#BitstreamVeraSans-Roman-4c"/>
     <use x="363.6328125" xlink:href="#BitstreamVeraSans-Roman-65"/>
     <use x="425.15625" xlink:href="#BitstreamVeraSans-Roman-6e"/>
     <use x="488.53515625" xlink:href="#BitstreamVeraSans-Roman-67"/>
     <use x="552.01171875" xlink:href="#BitstreamVeraSans-Roman-74"/>
     <use x="591.220703125" xlink:href="#BitstreamVeraSans-Roman-68"/>
    </g>
   </g>
   <g id="legend_1">
    <g id="patch_7">
     <path d="M 353.78325 357.91875 
L 528.58125 357.91875 
L 528.58125 256.3245 
L 353.78325 256.3245 
z
" style="fill:#ffffff;stroke:#000000;stroke-linejoin:miter;"/>
    </g>
    <g id="line2d_43">
     <path d="M 368.90325 273.817125 
L 399.14325 273.817125 
" style="fill:none;stroke:#0000ff;stroke-linecap:square;stroke-width:2.0;"/>
    </g>
    <g id="line2d_44"/>
    <g id="text_17">
     <!-- Levy -->
     <defs>
      <path d="M 2.984375 54.6875 
L 12.5 54.6875 
L 29.59375 8.796875 
L 46.6875 54.6875 
L 56.203125 54.6875 
L 35.6875 0 
L 23.484375 0 
z
" id="BitstreamVeraSans-Roman-76"/>
      <path d="M 32.171875 -5.078125 
Q 28.375 -14.84375 24.75 -17.8125 
Q 21.140625 -20.796875 15.09375 -20.796875 
L 7.90625 -20.796875 
L 7.90625 -13.28125 
L 13.1875 -13.28125 
Q 16.890625 -13.28125 18.9375 -11.515625 
Q 21 -9.765625 23.484375 -3.21875 
L 25.09375 0.875 
L 2.984375 54.6875 
L 12.5 54.6875 
L 29.59375 11.921875 
L 46.6875 54.6875 
L 56.203125 54.6875 
z
" id="BitstreamVeraSans-Roman-79"/>
     </defs>
     <g transform="translate(422.90325 281.377125)scale(0.21599999999999997 -0.21599999999999997)">
      <use xlink:href="#BitstreamVeraSans-Roman-4c"/>
      <use x="55.697265625" xlink:href="#BitstreamVeraSans-Roman-65"/>
      <use x="117.220703125" xlink:href="#BitstreamVeraSans-Roman-76"/>
      <use x="176.400390625" xlink:href="#BitstreamVeraSans-Roman-79"/>
     </g>
    </g>
    <g id="line2d_45">
     <path d="M 368.90325 305.521875 
L 399.14325 305.521875 
" style="fill:none;stroke:#008000;stroke-linecap:square;stroke-width:2.0;"/>
    </g>
    <g id="line2d_46"/>
    <g id="text_18">
     <!-- CRW -->
     <defs>
      <path d="M 64.40625 67.28125 
L 64.40625 56.890625 
Q 59.421875 61.53125 53.78125 63.8125 
Q 48.140625 66.109375 41.796875 66.109375 
Q 29.296875 66.109375 22.65625 58.46875 
Q 16.015625 50.828125 16.015625 36.375 
Q 16.015625 21.96875 22.65625 14.328125 
Q 29.296875 6.6875 41.796875 6.6875 
Q 48.140625 6.6875 53.78125 8.984375 
Q 59.421875 11.28125 64.40625 15.921875 
L 64.40625 5.609375 
Q 59.234375 2.09375 53.4375 0.328125 
Q 47.65625 -1.421875 41.21875 -1.421875 
Q 24.65625 -1.421875 15.125 8.703125 
Q 5.609375 18.84375 5.609375 36.375 
Q 5.609375 53.953125 15.125 64.078125 
Q 24.65625 74.21875 41.21875 74.21875 
Q 47.75 74.21875 53.53125 72.484375 
Q 59.328125 70.75 64.40625 67.28125 
" id="BitstreamVeraSans-Roman-43"/>
      <path d="M 3.328125 72.90625 
L 13.28125 72.90625 
L 28.609375 11.28125 
L 43.890625 72.90625 
L 54.984375 72.90625 
L 70.3125 11.28125 
L 85.59375 72.90625 
L 95.609375 72.90625 
L 77.296875 0 
L 64.890625 0 
L 49.515625 63.28125 
L 33.984375 0 
L 21.578125 0 
z
" id="BitstreamVeraSans-Roman-57"/>
      <path d="M 44.390625 34.1875 
Q 47.5625 33.109375 50.5625 29.59375 
Q 53.5625 26.078125 56.59375 19.921875 
L 66.609375 0 
L 56 0 
L 46.6875 18.703125 
Q 43.0625 26.03125 39.671875 28.421875 
Q 36.28125 30.8125 30.421875 30.8125 
L 19.671875 30.8125 
L 19.671875 0 
L 9.8125 0 
L 9.8125 72.90625 
L 32.078125 72.90625 
Q 44.578125 72.90625 50.734375 67.671875 
Q 56.890625 62.453125 56.890625 51.90625 
Q 56.890625 45.015625 53.6875 40.46875 
Q 50.484375 35.9375 44.390625 34.1875 
M 19.671875 64.796875 
L 19.671875 38.921875 
L 32.078125 38.921875 
Q 39.203125 38.921875 42.84375 42.21875 
Q 46.484375 45.515625 46.484375 51.90625 
Q 46.484375 58.296875 42.84375 61.546875 
Q 39.203125 64.796875 32.078125 64.796875 
z
" id="BitstreamVeraSans-Roman-52"/>
     </defs>
     <g transform="translate(422.90325 313.081875)scale(0.21599999999999997 -0.21599999999999997)">
      <use xlink:href="#BitstreamVeraSans-Roman-43"/>
      <use x="69.82421875" xlink:href="#BitstreamVeraSans-Roman-52"/>
      <use x="139.244140625" xlink:href="#BitstreamVeraSans-Roman-57"/>
     </g>
    </g>
    <g id="line2d_47">
     <path d="M 368.90325 337.226625 
L 399.14325 337.226625 
" style="fill:none;stroke:#ff0000;stroke-linecap:square;stroke-width:2.0;"/>
    </g>
    <g id="line2d_48"/>
    <g id="text_19">
     <!-- CRW 50s -->
     <defs>
      <path d="M 44.28125 53.078125 
L 44.28125 44.578125 
Q 40.484375 46.53125 36.375 47.5 
Q 32.28125 48.484375 27.875 48.484375 
Q 21.1875 48.484375 17.84375 46.4375 
Q 14.5 44.390625 14.5 40.28125 
Q 14.5 37.15625 16.890625 35.375 
Q 19.28125 33.59375 26.515625 31.984375 
L 29.59375 31.296875 
Q 39.15625 29.25 43.1875 25.515625 
Q 47.21875 21.78125 47.21875 15.09375 
Q 47.21875 7.46875 41.1875 3.015625 
Q 35.15625 -1.421875 24.609375 -1.421875 
Q 20.21875 -1.421875 15.453125 -0.5625 
Q 10.6875 0.296875 5.421875 2 
L 5.421875 11.28125 
Q 10.40625 8.6875 15.234375 7.390625 
Q 20.0625 6.109375 24.8125 6.109375 
Q 31.15625 6.109375 34.5625 8.28125 
Q 37.984375 10.453125 37.984375 14.40625 
Q 37.984375 18.0625 35.515625 20.015625 
Q 33.0625 21.96875 24.703125 23.78125 
L 21.578125 24.515625 
Q 13.234375 26.265625 9.515625 29.90625 
Q 5.8125 33.546875 5.8125 39.890625 
Q 5.8125 47.609375 11.28125 51.796875 
Q 16.75 56 26.8125 56 
Q 31.78125 56 36.171875 55.265625 
Q 40.578125 54.546875 44.28125 53.078125 
" id="BitstreamVeraSans-Roman-73"/>
     </defs>
     <g transform="translate(422.90325 344.786625)scale(0.21599999999999997 -0.21599999999999997)">
      <use xlink:href="#BitstreamVeraSans-Roman-43"/>
      <use x="69.82421875" xlink:href="#BitstreamVeraSans-Roman-52"/>
      <use x="139.244140625" xlink:href="#BitstreamVeraSans-Roman-57"/>
      <use x="238.12109375" xlink:href="#BitstreamVeraSans-Roman-20"/>
      <use x="269.908203125" xlink:href="#BitstreamVeraSans-Roman-35"/>
      <use x="333.53125" xlink:href="#BitstreamVeraSans-Roman-30"/>
      <use x="397.154296875" xlink:href="#BitstreamVeraSans-Roman-73"/>
     </g>
    </g>
   </g>
  </g>
 </g>
 <defs>
  <clipPath id="pab217e5e76">
   <rect height="327.866125" width="464.895" x="74.48625" y="40.852625"/>
  </clipPath>
 </defs>
</svg>
