<?xml version="1.0" encoding="utf-8" standalone="no"?>
<!DOCTYPE svg PUBLIC "-//W3C//DTD SVG 1.1//EN"
  "http://www.w3.org/Graphics/SVG/1.1/DTD/svg11.dtd">
<!-- Created with matplotlib (http://matplotlib.org/) -->
<svg height="432pt" version="1.1" viewBox="0 0 576 432" width="576pt" xmlns="http://www.w3.org/2000/svg" xmlns:xlink="http://www.w3.org/1999/xlink">
 <defs>
  <style type="text/css">
*{stroke-linecap:butt;stroke-linejoin:round;stroke-miterlimit:100000;}
  </style>
 </defs>
 <g id="figure_1">
  <g id="patch_1">
   <path d="M 0 432 
L 576 432 
L 576 0 
L 0 0 
z
" style="fill:#ffffff;"/>
  </g>
  <g id="axes_1">
   <g id="patch_2">
    <path d="M 74.48625 368.71875 
L 539.38125 368.71875 
L 539.38125 40.852625 
L 74.48625 40.852625 
z
" style="fill:#ffffff;"/>
   </g>
   <g id="line2d_1">
    <path clip-path="url(#pe1064c1c2a)" d="M 74.486253 368.71875 
L 74.486253 367.722196 
L 76.090187 366.725643 
L 83.553187 365.729089 
L 85.391153 364.732536 
L 89.796663 363.735982 
L 90.201105 362.739429 
L 92.812962 361.742875 
L 106.13546 359.749768 
L 111.332428 358.753214 
L 111.347158 357.756661 
L 112.092141 356.760107 
L 118.754448 355.763554 
L 123.634971 354.767 
L 126.556781 353.770446 
L 133.159157 352.773893 
L 136.13504 351.777339 
L 136.329413 350.780786 
L 137.120554 349.784232 
L 138.997817 348.787679 
L 145.746334 347.791125 
L 147.242941 346.794571 
L 149.523487 345.798018 
L 150.060993 344.801464 
L 150.226176 343.804911 
L 150.642703 342.808357 
L 150.720172 341.811804 
L 150.929752 340.81525 
L 151.319143 339.818696 
L 153.037487 338.822143 
L 156.893996 337.825589 
L 157.052892 336.829036 
L 158.313487 335.832482 
L 158.667592 334.835929 
L 159.201329 333.839375 
L 161.327098 332.842821 
L 162.472428 331.846268 
L 162.753334 330.849714 
L 163.164039 327.860054 
L 163.655655 326.8635 
L 164.704334 325.866946 
L 164.720763 324.870393 
L 165.238049 323.873839 
L 167.119573 322.877286 
L 167.769509 321.880732 
L 168.768916 320.884179 
L 168.806556 319.887625 
L 169.106751 318.891071 
L 170.175472 316.897964 
L 171.061735 315.901411 
L 171.325661 314.904857 
L 171.346356 313.908304 
L 171.515034 312.91175 
L 173.311386 311.915196 
L 173.90659 309.922089 
L 174.704894 308.925536 
L 175.347207 307.928982 
L 176.241933 306.932429 
L 176.32185 304.939321 
L 177.860924 303.942768 
L 177.912184 301.949661 
L 178.254801 300.953107 
L 178.731351 299.956554 
L 178.940883 298.96 
L 179.682389 297.963446 
L 179.804636 296.966893 
L 181.313852 294.973786 
L 183.311595 293.977232 
L 183.354292 292.980679 
L 183.869476 291.984125 
L 184.495962 289.991018 
L 184.513375 288.994464 
L 185.637606 287.001357 
L 187.493295 285.00825 
L 187.613627 284.011696 
L 188.207179 283.015143 
L 188.335783 282.018589 
L 189.042719 281.022036 
L 189.074716 280.025482 
L 189.406998 279.028929 
L 190.275632 274.046161 
L 191.219241 271.0565 
L 191.610134 270.059946 
L 192.820604 269.063393 
L 193.179064 266.073732 
L 194.392544 261.090964 
L 194.405914 260.094411 
L 195.043408 259.097857 
L 195.148717 258.101304 
L 195.86191 257.10475 
L 196.023667 256.108196 
L 196.024521 255.111643 
L 196.178423 254.115089 
L 196.756154 253.118536 
L 197.0361 252.121982 
L 197.068533 250.128875 
L 197.479894 249.132321 
L 197.487446 248.135768 
L 198.481519 247.139214 
L 198.660623 246.142661 
L 199.174429 245.146107 
L 200.66362 236.177125 
L 200.76924 234.184018 
L 200.781231 233.187464 
L 200.9915 232.190911 
L 201.464141 231.194357 
L 201.7719 230.197804 
L 202.585157 228.204696 
L 202.694241 227.208143 
L 204.589189 225.215036 
L 204.59423 224.218482 
L 204.862827 222.225375 
L 205.534677 221.228821 
L 205.575145 220.232268 
L 206.074809 219.235714 
L 206.233617 218.239161 
L 206.705155 217.242607 
L 206.764961 216.246054 
L 207.396895 215.2495 
L 207.430643 214.252946 
L 207.635452 213.256393 
L 208.045651 212.259839 
L 208.243593 211.263286 
L 208.389637 209.270179 
L 208.622486 208.273625 
L 208.739048 206.280518 
L 209.460705 201.29775 
L 209.492381 200.301196 
L 209.76336 199.304643 
L 209.843984 198.308089 
L 210.771122 197.311536 
L 211.257857 194.321875 
L 211.473233 189.339107 
L 211.51324 188.342554 
L 211.876142 187.346 
L 212.020385 185.352893 
L 212.658502 182.363232 
L 213.011022 181.366679 
L 213.099597 179.373571 
L 213.432382 178.377018 
L 213.54118 177.380464 
L 214.737859 176.383911 
L 215.489645 174.390804 
L 215.639348 173.39425 
L 216.092412 172.397696 
L 216.385847 168.411482 
L 216.677757 167.414929 
L 216.720309 166.418375 
L 217.140052 165.421821 
L 217.360377 163.428714 
L 217.647336 162.432161 
L 217.826414 159.4425 
L 217.899536 158.445946 
L 218.606912 155.456286 
L 218.952239 151.470071 
L 219.120484 150.473518 
L 219.836265 148.480411 
L 220.051725 147.483857 
L 221.02925 144.494196 
L 221.549167 143.497643 
L 221.784095 141.504536 
L 222.101612 139.511429 
L 223.441746 138.514875 
L 224.02195 136.521768 
L 224.177144 135.525214 
L 225.195784 134.528661 
L 225.801131 132.535554 
L 225.827243 131.539 
L 226.218872 130.542446 
L 226.376718 129.545893 
L 227.073377 128.549339 
L 228.122299 126.556232 
L 228.427773 125.559679 
L 229.332176 124.563125 
L 229.457398 123.566571 
L 230.066018 122.570018 
L 230.156851 119.580357 
L 231.265143 117.58725 
L 231.369624 116.590696 
L 231.677141 115.594143 
L 232.967304 114.597589 
L 233.086472 113.601036 
L 233.960021 112.604482 
L 234.083622 110.611375 
L 235.130597 108.618268 
L 235.95854 107.621714 
L 236.163407 106.625161 
L 236.496484 105.628607 
L 236.67603 104.632054 
L 237.011068 103.6355 
L 237.593128 102.638946 
L 237.93835 101.642393 
L 238.100088 100.645839 
L 239.170375 99.649286 
L 239.497394 97.656179 
L 239.696182 96.659625 
L 239.712428 95.663071 
L 240.344699 93.669964 
L 240.751933 92.673411 
L 241.350249 91.676857 
L 241.400005 90.680304 
L 241.701277 89.68375 
L 242.464895 88.687196 
L 243.330045 86.694089 
L 243.881142 85.697536 
L 243.933437 83.704429 
L 245.459967 82.707875 
L 245.945132 81.711321 
L 246.474238 79.718214 
L 246.519766 77.725107 
L 246.799113 76.728554 
L 248.709342 75.732 
L 248.826933 73.738893 
L 250.478651 72.742339 
L 251.266537 71.745786 
L 251.557877 70.749232 
L 252.525408 69.752679 
L 254.164197 68.756125 
L 254.35258 67.759571 
L 254.748233 66.763018 
L 256.429194 65.766464 
L 256.642077 64.769911 
L 257.778546 63.773357 
L 258.318117 62.776804 
L 259.467245 61.78025 
L 260.923367 60.783696 
L 263.311697 59.787143 
L 264.001455 58.790589 
L 265.215675 57.794036 
L 267.651095 56.797482 
L 269.586566 55.800929 
L 279.939394 54.804375 
L 281.202645 53.807821 
L 290.271818 52.811268 
L 292.950173 51.814714 
L 300.910462 50.818161 
L 301.494059 49.821607 
L 303.620719 48.825054 
L 311.907527 47.8285 
L 339.812942 46.831946 
L 340.035418 45.835393 
L 344.147361 44.838839 
L 352.497423 43.842286 
L 376.308033 42.845732 
L 406.207369 41.849179 
L 484.009341 40.852625 
L 484.009341 40.852625 
" style="fill:none;stroke:#0000ff;stroke-linecap:square;stroke-width:2.0;"/>
   </g>
   <g id="line2d_2">
    <path clip-path="url(#pe1064c1c2a)" d="M 87.077496 368.71875 
L 87.077496 367.495369 
L 90.768162 366.271988 
L 95.333582 365.048607 
L 99.249693 363.825226 
L 102.754073 362.601845 
L 105.148303 361.378464 
L 106.296414 360.155083 
L 113.551435 358.931701 
L 114.621599 357.70832 
L 118.599048 356.484939 
L 119.671641 355.261558 
L 119.865316 354.038177 
L 120.815668 352.814796 
L 122.219138 351.591415 
L 124.256045 349.144653 
L 124.75622 347.921272 
L 124.785122 346.697891 
L 126.281766 345.47451 
L 126.418434 344.251129 
L 126.768674 343.027748 
L 129.013571 341.804367 
L 129.720503 340.580986 
L 130.537176 338.134223 
L 131.45307 336.910842 
L 132.624924 335.687461 
L 135.488717 334.46408 
L 135.525696 333.240699 
L 136.135794 332.017318 
L 137.725657 330.793937 
L 138.554126 329.570556 
L 138.709242 328.347175 
L 139.842125 327.123794 
L 141.276492 325.900413 
L 142.823178 323.453651 
L 145.34256 322.23027 
L 145.964987 321.006889 
L 146.138433 319.783507 
L 147.192539 318.560126 
L 148.709503 317.336745 
L 148.934569 314.889983 
L 149.399246 313.666602 
L 150.343411 309.996459 
L 150.809317 307.549697 
L 151.536019 306.326316 
L 152.243459 303.879554 
L 152.376796 302.656173 
L 152.630442 301.432792 
L 152.644356 300.20941 
L 153.143152 296.539267 
L 153.860981 295.315886 
L 154.381208 294.092505 
L 154.428086 292.869124 
L 154.665492 291.645743 
L 154.690141 290.422362 
L 154.867568 289.198981 
L 155.255312 287.9756 
L 155.258313 286.752219 
L 155.616807 285.528838 
L 155.889548 283.082076 
L 156.10102 281.858694 
L 157.088016 278.188551 
L 157.160235 276.96517 
L 159.259684 275.741789 
L 159.877919 273.295027 
L 160.606616 268.401503 
L 160.840772 267.178122 
L 162.530821 265.954741 
L 163.336984 259.837835 
L 163.45563 258.614454 
L 163.766451 257.391073 
L 164.667132 256.167692 
L 164.745482 254.944311 
L 165.058811 253.72093 
L 165.10595 251.274168 
L 166.414524 250.050787 
L 167.453676 248.827406 
L 167.625608 247.604025 
L 168.298561 246.380644 
L 168.441296 245.157263 
L 170.095248 242.7105 
L 170.16735 241.487119 
L 171.206447 240.263738 
L 171.779022 237.816976 
L 172.955972 236.593595 
L 174.97764 232.923452 
L 174.994129 231.700071 
L 175.798588 230.47669 
L 176.218187 229.253309 
L 177.092576 228.029928 
L 177.163753 225.583166 
L 177.425309 224.359785 
L 177.500802 221.913022 
L 177.813656 220.689641 
L 178.346656 219.46626 
L 178.615576 218.242879 
L 179.237129 217.019498 
L 179.361444 215.796117 
L 179.912796 214.572736 
L 180.24357 213.349355 
L 180.427396 212.125974 
L 180.988069 210.902593 
L 181.274648 209.679212 
L 181.977773 208.455831 
L 182.162055 207.23245 
L 182.534561 206.009069 
L 182.555431 204.785687 
L 182.86066 203.562306 
L 182.900894 202.338925 
L 183.499505 199.892163 
L 183.610945 198.668782 
L 183.910349 197.445401 
L 186.097538 196.22202 
L 187.373286 194.998639 
L 187.940779 193.775258 
L 188.005293 192.551877 
L 188.250191 191.328496 
L 191.034455 190.105115 
L 191.300161 188.881734 
L 192.943344 187.658353 
L 193.492362 186.434972 
L 193.863038 185.21159 
L 193.943843 183.988209 
L 194.270592 182.764828 
L 195.316185 181.541447 
L 195.49294 180.318066 
L 196.464519 179.094685 
L 196.47945 177.871304 
L 197.37 174.201161 
L 197.395454 172.97778 
L 199.067565 171.754399 
L 199.20833 170.531018 
L 199.496457 169.307637 
L 200.543511 168.084256 
L 200.785178 166.860875 
L 200.860908 165.637493 
L 201.117862 164.414112 
L 201.240251 163.190731 
L 203.535188 161.96735 
L 204.370569 160.743969 
L 204.801148 159.520588 
L 206.299957 158.297207 
L 206.66307 157.073826 
L 206.689665 155.850445 
L 207.298351 154.627064 
L 207.766256 153.403683 
L 208.110678 150.956921 
L 208.551636 149.73354 
L 209.776651 148.510159 
L 210.696105 146.063396 
L 210.746768 144.840015 
L 211.018546 143.616634 
L 211.300639 141.169872 
L 211.764795 139.946491 
L 212.055041 138.72311 
L 212.647133 137.499729 
L 212.910825 136.276348 
L 212.921446 135.052967 
L 214.000618 133.829586 
L 214.599726 132.606205 
L 215.85344 128.936062 
L 216.045718 126.489299 
L 218.504341 125.265918 
L 218.781965 124.042537 
L 219.690375 121.595775 
L 219.94172 119.149013 
L 222.157349 116.702251 
L 222.672441 115.47887 
L 223.711856 114.255489 
L 227.344742 113.032108 
L 228.347511 111.808727 
L 228.380706 110.585346 
L 228.754936 109.361965 
L 229.331975 108.138583 
L 229.487574 106.915202 
L 230.406061 105.691821 
L 231.175129 104.46844 
L 231.48548 102.021678 
L 231.867135 100.798297 
L 232.734484 99.574916 
L 233.196391 98.351535 
L 234.115624 97.128154 
L 235.406481 95.904773 
L 235.522851 94.681392 
L 236.311902 93.458011 
L 237.523014 92.23463 
L 238.295156 91.011249 
L 239.874694 89.787868 
L 241.168402 88.564486 
L 243.336842 87.341105 
L 244.640569 84.894343 
L 246.401989 83.670962 
L 247.394255 82.447581 
L 249.550032 81.2242 
L 250.154556 80.000819 
L 250.346118 78.777438 
L 250.862411 77.554057 
L 253.065749 76.330676 
L 253.339779 75.107295 
L 254.042225 73.883914 
L 257.262942 72.660533 
L 257.983145 71.437152 
L 257.985441 70.213771 
L 258.529453 68.990389 
L 259.481644 67.767008 
L 260.840497 66.543627 
L 260.917122 65.320246 
L 261.712563 62.873484 
L 262.033134 60.426722 
L 263.243146 59.203341 
L 267.099647 57.97996 
L 268.400234 56.756579 
L 269.908311 55.533198 
L 270.761553 54.309817 
L 277.854311 53.086436 
L 281.148548 51.863055 
L 283.827459 50.639674 
L 284.677542 49.416292 
L 290.316986 48.192911 
L 294.481713 46.96953 
L 300.808395 45.746149 
L 340.509623 43.299387 
L 345.645776 42.076006 
L 398.323022 40.852625 
L 398.323022 40.852625 
" style="fill:none;stroke:#008000;stroke-linecap:square;stroke-width:2.0;"/>
   </g>
   <g id="line2d_3">
    <path clip-path="url(#pe1064c1c2a)" d="M 85.957307 368.71875 
L 85.957307 366.234916 
L 98.927178 363.751081 
L 99.48868 361.267247 
L 101.970484 358.783413 
L 102.305863 356.299579 
L 104.570222 353.815744 
L 105.296081 348.848076 
L 106.780762 346.364241 
L 106.973574 343.880407 
L 108.486239 341.396573 
L 109.592251 338.912739 
L 109.660769 336.428904 
L 113.240084 331.461236 
L 114.123953 328.977402 
L 116.984058 326.493567 
L 117.004241 324.009733 
L 118.533547 321.525899 
L 118.692944 319.042064 
L 118.739909 316.55823 
L 119.689697 314.074396 
L 120.795323 311.590562 
L 123.26027 309.106727 
L 123.727477 304.139059 
L 124.872149 301.655224 
L 124.94203 299.17139 
L 125.310493 294.203722 
L 126.388213 291.719887 
L 126.816997 289.236053 
L 127.107997 286.752219 
L 129.701864 284.268384 
L 130.291595 281.78455 
L 131.467082 279.300716 
L 132.106125 276.816882 
L 133.000109 274.333047 
L 134.054832 271.849213 
L 134.404393 269.365379 
L 135.318415 266.881545 
L 135.402016 264.39771 
L 135.948391 261.913876 
L 135.973951 259.430042 
L 136.336546 254.462373 
L 136.390616 251.978539 
L 136.594416 249.494705 
L 137.138665 247.01087 
L 137.495369 244.527036 
L 137.541641 242.043202 
L 138.553572 239.559367 
L 139.309685 234.591699 
L 139.36249 232.107865 
L 140.29503 229.62403 
L 140.427115 227.140196 
L 141.321169 224.656362 
L 141.394547 222.172527 
L 141.636849 219.688693 
L 142.170066 217.204859 
L 142.193766 212.23719 
L 142.837305 209.753356 
L 144.677048 207.269522 
L 146.010452 204.785687 
L 146.440671 202.301853 
L 147.240627 199.818019 
L 147.564124 197.334185 
L 147.947203 189.882682 
L 149.452878 187.398848 
L 149.489083 184.915013 
L 149.676006 182.431179 
L 149.714294 179.947345 
L 153.57721 177.46351 
L 153.82547 174.979676 
L 153.922475 172.495842 
L 154.73018 170.012008 
L 156.001583 167.528173 
L 159.690449 165.044339 
L 160.29276 162.560505 
L 160.762743 157.592836 
L 161.046775 152.625168 
L 161.573485 150.141333 
L 162.56359 147.657499 
L 164.164854 145.173665 
L 165.414912 142.68983 
L 166.370555 140.205996 
L 166.421261 137.722162 
L 167.033697 135.238328 
L 167.244484 132.754493 
L 167.574531 130.270659 
L 169.048052 125.302991 
L 169.183704 122.819156 
L 171.151945 117.851488 
L 171.510912 115.367653 
L 172.498156 112.883819 
L 172.69553 105.432316 
L 173.667238 102.948482 
L 174.276182 100.464648 
L 177.615747 97.980813 
L 178.352291 95.496979 
L 179.83388 93.013145 
L 181.558213 90.529311 
L 181.560335 88.045476 
L 182.319244 85.561642 
L 182.810206 83.077808 
L 183.548747 80.593973 
L 183.932638 78.110139 
L 187.727199 73.142471 
L 188.889596 70.658636 
L 190.401113 68.174802 
L 194.446637 65.690968 
L 198.86065 63.207134 
L 210.702122 60.723299 
L 215.712809 58.239465 
L 218.423567 55.755631 
L 219.658063 53.271796 
L 229.867666 50.787962 
L 230.153912 48.304128 
L 231.165284 45.820294 
L 238.188155 43.336459 
L 278.494091 40.852625 
L 278.494091 40.852625 
" style="fill:none;stroke:#ff0000;stroke-linecap:square;stroke-width:2.0;"/>
   </g>
   <g id="patch_3">
    <path d="M 539.38125 368.71875 
L 539.38125 40.852625 
" style="fill:none;stroke:#000000;stroke-linecap:square;stroke-linejoin:miter;stroke-width:2.0;"/>
   </g>
   <g id="patch_4">
    <path d="M 74.48625 368.71875 
L 539.38125 368.71875 
" style="fill:none;stroke:#000000;stroke-linecap:square;stroke-linejoin:miter;stroke-width:2.0;"/>
   </g>
   <g id="patch_5">
    <path d="M 74.48625 40.852625 
L 539.38125 40.852625 
" style="fill:none;stroke:#000000;stroke-linecap:square;stroke-linejoin:miter;stroke-width:2.0;"/>
   </g>
   <g id="patch_6">
    <path d="M 74.48625 368.71875 
L 74.48625 40.852625 
" style="fill:none;stroke:#000000;stroke-linecap:square;stroke-linejoin:miter;stroke-width:2.0;"/>
   </g>
   <g id="matplotlib.axis_1">
    <g id="xtick_1">
     <g id="line2d_4">
      <path clip-path="url(#pe1064c1c2a)" d="M 74.48625 368.71875 
L 74.48625 40.852625 
" style="fill:none;stroke:#000000;stroke-dasharray:1.000000,3.000000;stroke-dashoffset:0.0;stroke-width:2.0;"/>
     </g>
     <g id="line2d_5">
      <defs>
       <path d="M 0 0 
L 0 -4 
" id="mede336b239" style="stroke:#000000;stroke-width:0.5;"/>
      </defs>
      <g>
       <use style="stroke:#000000;stroke-width:0.5;" x="74.48625" xlink:href="#mede336b239" y="368.71875"/>
      </g>
     </g>
     <g id="line2d_6">
      <defs>
       <path d="M 0 0 
L 0 4 
" id="mf20155d646" style="stroke:#000000;stroke-width:0.5;"/>
      </defs>
      <g>
       <use style="stroke:#000000;stroke-width:0.5;" x="74.48625" xlink:href="#mf20155d646" y="40.852625"/>
      </g>
     </g>
     <g id="text_1">
      <!-- 0 -->
      <defs>
       <path d="M 31.78125 66.40625 
Q 24.171875 66.40625 20.328125 58.90625 
Q 16.5 51.421875 16.5 36.375 
Q 16.5 21.390625 20.328125 13.890625 
Q 24.171875 6.390625 31.78125 6.390625 
Q 39.453125 6.390625 43.28125 13.890625 
Q 47.125 21.390625 47.125 36.375 
Q 47.125 51.421875 43.28125 58.90625 
Q 39.453125 66.40625 31.78125 66.40625 
M 31.78125 74.21875 
Q 44.046875 74.21875 50.515625 64.515625 
Q 56.984375 54.828125 56.984375 36.375 
Q 56.984375 17.96875 50.515625 8.265625 
Q 44.046875 -1.421875 31.78125 -1.421875 
Q 19.53125 -1.421875 13.0625 8.265625 
Q 6.59375 17.96875 6.59375 36.375 
Q 6.59375 54.828125 13.0625 64.515625 
Q 19.53125 74.21875 31.78125 74.21875 
" id="BitstreamVeraSans-Roman-30"/>
      </defs>
      <g transform="translate(68.76 386.3959375)scale(0.18 -0.18)">
       <use xlink:href="#BitstreamVeraSans-Roman-30"/>
      </g>
     </g>
    </g>
    <g id="xtick_2">
     <g id="line2d_7">
      <path clip-path="url(#pe1064c1c2a)" d="M 140.899821 368.71875 
L 140.899821 40.852625 
" style="fill:none;stroke:#000000;stroke-dasharray:1.000000,3.000000;stroke-dashoffset:0.0;stroke-width:2.0;"/>
     </g>
     <g id="line2d_8">
      <g>
       <use style="stroke:#000000;stroke-width:0.5;" x="140.899821429" xlink:href="#mede336b239" y="368.71875"/>
      </g>
     </g>
     <g id="line2d_9">
      <g>
       <use style="stroke:#000000;stroke-width:0.5;" x="140.899821429" xlink:href="#mf20155d646" y="40.852625"/>
      </g>
     </g>
     <g id="text_2">
      <!-- 50 -->
      <defs>
       <path d="M 10.796875 72.90625 
L 49.515625 72.90625 
L 49.515625 64.59375 
L 19.828125 64.59375 
L 19.828125 46.734375 
Q 21.96875 47.46875 24.109375 47.828125 
Q 26.265625 48.1875 28.421875 48.1875 
Q 40.625 48.1875 47.75 41.5 
Q 54.890625 34.8125 54.890625 23.390625 
Q 54.890625 11.625 47.5625 5.09375 
Q 40.234375 -1.421875 26.90625 -1.421875 
Q 22.3125 -1.421875 17.546875 -0.640625 
Q 12.796875 0.140625 7.71875 1.703125 
L 7.71875 11.625 
Q 12.109375 9.234375 16.796875 8.0625 
Q 21.484375 6.890625 26.703125 6.890625 
Q 35.15625 6.890625 40.078125 11.328125 
Q 45.015625 15.765625 45.015625 23.390625 
Q 45.015625 31 40.078125 35.4375 
Q 35.15625 39.890625 26.703125 39.890625 
Q 22.75 39.890625 18.8125 39.015625 
Q 14.890625 38.140625 10.796875 36.28125 
z
" id="BitstreamVeraSans-Roman-35"/>
      </defs>
      <g transform="translate(129.447321429 386.3959375)scale(0.18 -0.18)">
       <use xlink:href="#BitstreamVeraSans-Roman-35"/>
       <use x="63.623046875" xlink:href="#BitstreamVeraSans-Roman-30"/>
      </g>
     </g>
    </g>
    <g id="xtick_3">
     <g id="line2d_10">
      <path clip-path="url(#pe1064c1c2a)" d="M 207.313393 368.71875 
L 207.313393 40.852625 
" style="fill:none;stroke:#000000;stroke-dasharray:1.000000,3.000000;stroke-dashoffset:0.0;stroke-width:2.0;"/>
     </g>
     <g id="line2d_11">
      <g>
       <use style="stroke:#000000;stroke-width:0.5;" x="207.313392857" xlink:href="#mede336b239" y="368.71875"/>
      </g>
     </g>
     <g id="line2d_12">
      <g>
       <use style="stroke:#000000;stroke-width:0.5;" x="207.313392857" xlink:href="#mf20155d646" y="40.852625"/>
      </g>
     </g>
     <g id="text_3">
      <!-- 100 -->
      <defs>
       <path d="M 12.40625 8.296875 
L 28.515625 8.296875 
L 28.515625 63.921875 
L 10.984375 60.40625 
L 10.984375 69.390625 
L 28.421875 72.90625 
L 38.28125 72.90625 
L 38.28125 8.296875 
L 54.390625 8.296875 
L 54.390625 0 
L 12.40625 0 
z
" id="BitstreamVeraSans-Roman-31"/>
      </defs>
      <g transform="translate(190.134642857 386.3959375)scale(0.18 -0.18)">
       <use xlink:href="#BitstreamVeraSans-Roman-31"/>
       <use x="63.623046875" xlink:href="#BitstreamVeraSans-Roman-30"/>
       <use x="127.24609375" xlink:href="#BitstreamVeraSans-Roman-30"/>
      </g>
     </g>
    </g>
    <g id="xtick_4">
     <g id="line2d_13">
      <path clip-path="url(#pe1064c1c2a)" d="M 273.726964 368.71875 
L 273.726964 40.852625 
" style="fill:none;stroke:#000000;stroke-dasharray:1.000000,3.000000;stroke-dashoffset:0.0;stroke-width:2.0;"/>
     </g>
     <g id="line2d_14">
      <g>
       <use style="stroke:#000000;stroke-width:0.5;" x="273.726964286" xlink:href="#mede336b239" y="368.71875"/>
      </g>
     </g>
     <g id="line2d_15">
      <g>
       <use style="stroke:#000000;stroke-width:0.5;" x="273.726964286" xlink:href="#mf20155d646" y="40.852625"/>
      </g>
     </g>
     <g id="text_4">
      <!-- 150 -->
      <g transform="translate(256.548214286 386.3959375)scale(0.18 -0.18)">
       <use xlink:href="#BitstreamVeraSans-Roman-31"/>
       <use x="63.623046875" xlink:href="#BitstreamVeraSans-Roman-35"/>
       <use x="127.24609375" xlink:href="#BitstreamVeraSans-Roman-30"/>
      </g>
     </g>
    </g>
    <g id="xtick_5">
     <g id="line2d_16">
      <path clip-path="url(#pe1064c1c2a)" d="M 340.140536 368.71875 
L 340.140536 40.852625 
" style="fill:none;stroke:#000000;stroke-dasharray:1.000000,3.000000;stroke-dashoffset:0.0;stroke-width:2.0;"/>
     </g>
     <g id="line2d_17">
      <g>
       <use style="stroke:#000000;stroke-width:0.5;" x="340.140535714" xlink:href="#mede336b239" y="368.71875"/>
      </g>
     </g>
     <g id="line2d_18">
      <g>
       <use style="stroke:#000000;stroke-width:0.5;" x="340.140535714" xlink:href="#mf20155d646" y="40.852625"/>
      </g>
     </g>
     <g id="text_5">
      <!-- 200 -->
      <defs>
       <path d="M 19.1875 8.296875 
L 53.609375 8.296875 
L 53.609375 0 
L 7.328125 0 
L 7.328125 8.296875 
Q 12.9375 14.109375 22.625 23.890625 
Q 32.328125 33.6875 34.8125 36.53125 
Q 39.546875 41.84375 41.421875 45.53125 
Q 43.3125 49.21875 43.3125 52.78125 
Q 43.3125 58.59375 39.234375 62.25 
Q 35.15625 65.921875 28.609375 65.921875 
Q 23.96875 65.921875 18.8125 64.3125 
Q 13.671875 62.703125 7.8125 59.421875 
L 7.8125 69.390625 
Q 13.765625 71.78125 18.9375 73 
Q 24.125 74.21875 28.421875 74.21875 
Q 39.75 74.21875 46.484375 68.546875 
Q 53.21875 62.890625 53.21875 53.421875 
Q 53.21875 48.921875 51.53125 44.890625 
Q 49.859375 40.875 45.40625 35.40625 
Q 44.1875 33.984375 37.640625 27.21875 
Q 31.109375 20.453125 19.1875 8.296875 
" id="BitstreamVeraSans-Roman-32"/>
      </defs>
      <g transform="translate(322.961785714 386.3959375)scale(0.18 -0.18)">
       <use xlink:href="#BitstreamVeraSans-Roman-32"/>
       <use x="63.623046875" xlink:href="#BitstreamVeraSans-Roman-30"/>
       <use x="127.24609375" xlink:href="#BitstreamVeraSans-Roman-30"/>
      </g>
     </g>
    </g>
    <g id="xtick_6">
     <g id="line2d_19">
      <path clip-path="url(#pe1064c1c2a)" d="M 406.554107 368.71875 
L 406.554107 40.852625 
" style="fill:none;stroke:#000000;stroke-dasharray:1.000000,3.000000;stroke-dashoffset:0.0;stroke-width:2.0;"/>
     </g>
     <g id="line2d_20">
      <g>
       <use style="stroke:#000000;stroke-width:0.5;" x="406.554107143" xlink:href="#mede336b239" y="368.71875"/>
      </g>
     </g>
     <g id="line2d_21">
      <g>
       <use style="stroke:#000000;stroke-width:0.5;" x="406.554107143" xlink:href="#mf20155d646" y="40.852625"/>
      </g>
     </g>
     <g id="text_6">
      <!-- 250 -->
      <g transform="translate(389.375357143 386.3959375)scale(0.18 -0.18)">
       <use xlink:href="#BitstreamVeraSans-Roman-32"/>
       <use x="63.623046875" xlink:href="#BitstreamVeraSans-Roman-35"/>
       <use x="127.24609375" xlink:href="#BitstreamVeraSans-Roman-30"/>
      </g>
     </g>
    </g>
    <g id="xtick_7">
     <g id="line2d_22">
      <path clip-path="url(#pe1064c1c2a)" d="M 472.967679 368.71875 
L 472.967679 40.852625 
" style="fill:none;stroke:#000000;stroke-dasharray:1.000000,3.000000;stroke-dashoffset:0.0;stroke-width:2.0;"/>
     </g>
     <g id="line2d_23">
      <g>
       <use style="stroke:#000000;stroke-width:0.5;" x="472.967678571" xlink:href="#mede336b239" y="368.71875"/>
      </g>
     </g>
     <g id="line2d_24">
      <g>
       <use style="stroke:#000000;stroke-width:0.5;" x="472.967678571" xlink:href="#mf20155d646" y="40.852625"/>
      </g>
     </g>
     <g id="text_7">
      <!-- 300 -->
      <defs>
       <path d="M 40.578125 39.3125 
Q 47.65625 37.796875 51.625 33 
Q 55.609375 28.21875 55.609375 21.1875 
Q 55.609375 10.40625 48.1875 4.484375 
Q 40.765625 -1.421875 27.09375 -1.421875 
Q 22.515625 -1.421875 17.65625 -0.515625 
Q 12.796875 0.390625 7.625 2.203125 
L 7.625 11.71875 
Q 11.71875 9.328125 16.59375 8.109375 
Q 21.484375 6.890625 26.8125 6.890625 
Q 36.078125 6.890625 40.9375 10.546875 
Q 45.796875 14.203125 45.796875 21.1875 
Q 45.796875 27.640625 41.28125 31.265625 
Q 36.765625 34.90625 28.71875 34.90625 
L 20.21875 34.90625 
L 20.21875 43.015625 
L 29.109375 43.015625 
Q 36.375 43.015625 40.234375 45.921875 
Q 44.09375 48.828125 44.09375 54.296875 
Q 44.09375 59.90625 40.109375 62.90625 
Q 36.140625 65.921875 28.71875 65.921875 
Q 24.65625 65.921875 20.015625 65.03125 
Q 15.375 64.15625 9.8125 62.3125 
L 9.8125 71.09375 
Q 15.4375 72.65625 20.34375 73.4375 
Q 25.25 74.21875 29.59375 74.21875 
Q 40.828125 74.21875 47.359375 69.109375 
Q 53.90625 64.015625 53.90625 55.328125 
Q 53.90625 49.265625 50.4375 45.09375 
Q 46.96875 40.921875 40.578125 39.3125 
" id="BitstreamVeraSans-Roman-33"/>
      </defs>
      <g transform="translate(455.788928571 386.3959375)scale(0.18 -0.18)">
       <use xlink:href="#BitstreamVeraSans-Roman-33"/>
       <use x="63.623046875" xlink:href="#BitstreamVeraSans-Roman-30"/>
       <use x="127.24609375" xlink:href="#BitstreamVeraSans-Roman-30"/>
      </g>
     </g>
    </g>
    <g id="xtick_8">
     <g id="line2d_25">
      <path clip-path="url(#pe1064c1c2a)" d="M 539.38125 368.71875 
L 539.38125 40.852625 
" style="fill:none;stroke:#000000;stroke-dasharray:1.000000,3.000000;stroke-dashoffset:0.0;stroke-width:2.0;"/>
     </g>
     <g id="line2d_26">
      <g>
       <use style="stroke:#000000;stroke-width:0.5;" x="539.38125" xlink:href="#mede336b239" y="368.71875"/>
      </g>
     </g>
     <g id="line2d_27">
      <g>
       <use style="stroke:#000000;stroke-width:0.5;" x="539.38125" xlink:href="#mf20155d646" y="40.852625"/>
      </g>
     </g>
     <g id="text_8">
      <!-- 350 -->
      <g transform="translate(522.2025 386.3959375)scale(0.18 -0.18)">
       <use xlink:href="#BitstreamVeraSans-Roman-33"/>
       <use x="63.623046875" xlink:href="#BitstreamVeraSans-Roman-35"/>
       <use x="127.24609375" xlink:href="#BitstreamVeraSans-Roman-30"/>
      </g>
     </g>
    </g>
    <g id="text_9">
     <!-- Median turn speed (degrees/min) -->
     <defs>
      <path d="M 8.5 21.578125 
L 8.5 54.6875 
L 17.484375 54.6875 
L 17.484375 21.921875 
Q 17.484375 14.15625 20.5 10.265625 
Q 23.53125 6.390625 29.59375 6.390625 
Q 36.859375 6.390625 41.078125 11.03125 
Q 45.3125 15.671875 45.3125 23.6875 
L 45.3125 54.6875 
L 54.296875 54.6875 
L 54.296875 0 
L 45.3125 0 
L 45.3125 8.40625 
Q 42.046875 3.421875 37.71875 1 
Q 33.40625 -1.421875 27.6875 -1.421875 
Q 18.265625 -1.421875 13.375 4.4375 
Q 8.5 10.296875 8.5 21.578125 
" id="BitstreamVeraSans-Roman-75"/>
      <path d="M 9.8125 72.90625 
L 24.515625 72.90625 
L 43.109375 23.296875 
L 61.8125 72.90625 
L 76.515625 72.90625 
L 76.515625 0 
L 66.890625 0 
L 66.890625 64.015625 
L 48.09375 14.015625 
L 38.1875 14.015625 
L 19.390625 64.015625 
L 19.390625 0 
L 9.8125 0 
z
" id="BitstreamVeraSans-Roman-4d"/>
      <path d="M 25.390625 72.90625 
L 33.6875 72.90625 
L 8.296875 -9.28125 
L 0 -9.28125 
z
" id="BitstreamVeraSans-Roman-2f"/>
      <path d="M 18.3125 70.21875 
L 18.3125 54.6875 
L 36.8125 54.6875 
L 36.8125 47.703125 
L 18.3125 47.703125 
L 18.3125 18.015625 
Q 18.3125 11.328125 20.140625 9.421875 
Q 21.96875 7.515625 27.59375 7.515625 
L 36.8125 7.515625 
L 36.8125 0 
L 27.59375 0 
Q 17.1875 0 13.234375 3.875 
Q 9.28125 7.765625 9.28125 18.015625 
L 9.28125 47.703125 
L 2.6875 47.703125 
L 2.6875 54.6875 
L 9.28125 54.6875 
L 9.28125 70.21875 
z
" id="BitstreamVeraSans-Roman-74"/>
      <path d="M 34.28125 27.484375 
Q 23.390625 27.484375 19.1875 25 
Q 14.984375 22.515625 14.984375 16.5 
Q 14.984375 11.71875 18.140625 8.90625 
Q 21.296875 6.109375 26.703125 6.109375 
Q 34.1875 6.109375 38.703125 11.40625 
Q 43.21875 16.703125 43.21875 25.484375 
L 43.21875 27.484375 
z
M 52.203125 31.203125 
L 52.203125 0 
L 43.21875 0 
L 43.21875 8.296875 
Q 40.140625 3.328125 35.546875 0.953125 
Q 30.953125 -1.421875 24.3125 -1.421875 
Q 15.921875 -1.421875 10.953125 3.296875 
Q 6 8.015625 6 15.921875 
Q 6 25.140625 12.171875 29.828125 
Q 18.359375 34.515625 30.609375 34.515625 
L 43.21875 34.515625 
L 43.21875 35.40625 
Q 43.21875 41.609375 39.140625 45 
Q 35.0625 48.390625 27.6875 48.390625 
Q 23 48.390625 18.546875 47.265625 
Q 14.109375 46.140625 10.015625 43.890625 
L 10.015625 52.203125 
Q 14.9375 54.109375 19.578125 55.046875 
Q 24.21875 56 28.609375 56 
Q 40.484375 56 46.34375 49.84375 
Q 52.203125 43.703125 52.203125 31.203125 
" id="BitstreamVeraSans-Roman-61"/>
      <path d="M 8.015625 75.875 
L 15.828125 75.875 
Q 23.140625 64.359375 26.78125 53.3125 
Q 30.421875 42.28125 30.421875 31.390625 
Q 30.421875 20.453125 26.78125 9.375 
Q 23.140625 -1.703125 15.828125 -13.1875 
L 8.015625 -13.1875 
Q 14.5 -2 17.703125 9.0625 
Q 20.90625 20.125 20.90625 31.390625 
Q 20.90625 42.671875 17.703125 53.65625 
Q 14.5 64.65625 8.015625 75.875 
" id="BitstreamVeraSans-Roman-29"/>
      <path d="M 45.40625 46.390625 
L 45.40625 75.984375 
L 54.390625 75.984375 
L 54.390625 0 
L 45.40625 0 
L 45.40625 8.203125 
Q 42.578125 3.328125 38.25 0.953125 
Q 33.9375 -1.421875 27.875 -1.421875 
Q 17.96875 -1.421875 11.734375 6.484375 
Q 5.515625 14.40625 5.515625 27.296875 
Q 5.515625 40.1875 11.734375 48.09375 
Q 17.96875 56 27.875 56 
Q 33.9375 56 38.25 53.625 
Q 42.578125 51.265625 45.40625 46.390625 
M 14.796875 27.296875 
Q 14.796875 17.390625 18.875 11.75 
Q 22.953125 6.109375 30.078125 6.109375 
Q 37.203125 6.109375 41.296875 11.75 
Q 45.40625 17.390625 45.40625 27.296875 
Q 45.40625 37.203125 41.296875 42.84375 
Q 37.203125 48.484375 30.078125 48.484375 
Q 22.953125 48.484375 18.875 42.84375 
Q 14.796875 37.203125 14.796875 27.296875 
" id="BitstreamVeraSans-Roman-64"/>
      <path d="M 31 75.875 
Q 24.46875 64.65625 21.28125 53.65625 
Q 18.109375 42.671875 18.109375 31.390625 
Q 18.109375 20.125 21.3125 9.0625 
Q 24.515625 -2 31 -13.1875 
L 23.1875 -13.1875 
Q 15.875 -1.703125 12.234375 9.375 
Q 8.59375 20.453125 8.59375 31.390625 
Q 8.59375 42.28125 12.203125 53.3125 
Q 15.828125 64.359375 23.1875 75.875 
z
" id="BitstreamVeraSans-Roman-28"/>
      <path id="BitstreamVeraSans-Roman-20"/>
      <path d="M 54.890625 33.015625 
L 54.890625 0 
L 45.90625 0 
L 45.90625 32.71875 
Q 45.90625 40.484375 42.875 44.328125 
Q 39.84375 48.1875 33.796875 48.1875 
Q 26.515625 48.1875 22.3125 43.546875 
Q 18.109375 38.921875 18.109375 30.90625 
L 18.109375 0 
L 9.078125 0 
L 9.078125 54.6875 
L 18.109375 54.6875 
L 18.109375 46.1875 
Q 21.34375 51.125 25.703125 53.5625 
Q 30.078125 56 35.796875 56 
Q 45.21875 56 50.046875 50.171875 
Q 54.890625 44.34375 54.890625 33.015625 
" id="BitstreamVeraSans-Roman-6e"/>
      <path d="M 52 44.1875 
Q 55.375 50.25 60.0625 53.125 
Q 64.75 56 71.09375 56 
Q 79.640625 56 84.28125 50.015625 
Q 88.921875 44.046875 88.921875 33.015625 
L 88.921875 0 
L 79.890625 0 
L 79.890625 32.71875 
Q 79.890625 40.578125 77.09375 44.375 
Q 74.3125 48.1875 68.609375 48.1875 
Q 61.625 48.1875 57.5625 43.546875 
Q 53.515625 38.921875 53.515625 30.90625 
L 53.515625 0 
L 44.484375 0 
L 44.484375 32.71875 
Q 44.484375 40.625 41.703125 44.40625 
Q 38.921875 48.1875 33.109375 48.1875 
Q 26.21875 48.1875 22.15625 43.53125 
Q 18.109375 38.875 18.109375 30.90625 
L 18.109375 0 
L 9.078125 0 
L 9.078125 54.6875 
L 18.109375 54.6875 
L 18.109375 46.1875 
Q 21.1875 51.21875 25.484375 53.609375 
Q 29.78125 56 35.6875 56 
Q 41.65625 56 45.828125 52.96875 
Q 50 49.953125 52 44.1875 
" id="BitstreamVeraSans-Roman-6d"/>
      <path d="M 41.109375 46.296875 
Q 39.59375 47.171875 37.8125 47.578125 
Q 36.03125 48 33.890625 48 
Q 26.265625 48 22.1875 43.046875 
Q 18.109375 38.09375 18.109375 28.8125 
L 18.109375 0 
L 9.078125 0 
L 9.078125 54.6875 
L 18.109375 54.6875 
L 18.109375 46.1875 
Q 20.953125 51.171875 25.484375 53.578125 
Q 30.03125 56 36.53125 56 
Q 37.453125 56 38.578125 55.875 
Q 39.703125 55.765625 41.0625 55.515625 
z
" id="BitstreamVeraSans-Roman-72"/>
      <path d="M 9.421875 54.6875 
L 18.40625 54.6875 
L 18.40625 0 
L 9.421875 0 
z
M 9.421875 75.984375 
L 18.40625 75.984375 
L 18.40625 64.59375 
L 9.421875 64.59375 
z
" id="BitstreamVeraSans-Roman-69"/>
      <path d="M 56.203125 29.59375 
L 56.203125 25.203125 
L 14.890625 25.203125 
Q 15.484375 15.921875 20.484375 11.0625 
Q 25.484375 6.203125 34.421875 6.203125 
Q 39.59375 6.203125 44.453125 7.46875 
Q 49.3125 8.734375 54.109375 11.28125 
L 54.109375 2.78125 
Q 49.265625 0.734375 44.1875 -0.34375 
Q 39.109375 -1.421875 33.890625 -1.421875 
Q 20.796875 -1.421875 13.15625 6.1875 
Q 5.515625 13.8125 5.515625 26.8125 
Q 5.515625 40.234375 12.765625 48.109375 
Q 20.015625 56 32.328125 56 
Q 43.359375 56 49.78125 48.890625 
Q 56.203125 41.796875 56.203125 29.59375 
M 47.21875 32.234375 
Q 47.125 39.59375 43.09375 43.984375 
Q 39.0625 48.390625 32.421875 48.390625 
Q 24.90625 48.390625 20.390625 44.140625 
Q 15.875 39.890625 15.1875 32.171875 
z
" id="BitstreamVeraSans-Roman-65"/>
      <path d="M 18.109375 8.203125 
L 18.109375 -20.796875 
L 9.078125 -20.796875 
L 9.078125 54.6875 
L 18.109375 54.6875 
L 18.109375 46.390625 
Q 20.953125 51.265625 25.265625 53.625 
Q 29.59375 56 35.59375 56 
Q 45.5625 56 51.78125 48.09375 
Q 58.015625 40.1875 58.015625 27.296875 
Q 58.015625 14.40625 51.78125 6.484375 
Q 45.5625 -1.421875 35.59375 -1.421875 
Q 29.59375 -1.421875 25.265625 0.953125 
Q 20.953125 3.328125 18.109375 8.203125 
M 48.6875 27.296875 
Q 48.6875 37.203125 44.609375 42.84375 
Q 40.53125 48.484375 33.40625 48.484375 
Q 26.265625 48.484375 22.1875 42.84375 
Q 18.109375 37.203125 18.109375 27.296875 
Q 18.109375 17.390625 22.1875 11.75 
Q 26.265625 6.109375 33.40625 6.109375 
Q 40.53125 6.109375 44.609375 11.75 
Q 48.6875 17.390625 48.6875 27.296875 
" id="BitstreamVeraSans-Roman-70"/>
      <path d="M 45.40625 27.984375 
Q 45.40625 37.75 41.375 43.109375 
Q 37.359375 48.484375 30.078125 48.484375 
Q 22.859375 48.484375 18.828125 43.109375 
Q 14.796875 37.75 14.796875 27.984375 
Q 14.796875 18.265625 18.828125 12.890625 
Q 22.859375 7.515625 30.078125 7.515625 
Q 37.359375 7.515625 41.375 12.890625 
Q 45.40625 18.265625 45.40625 27.984375 
M 54.390625 6.78125 
Q 54.390625 -7.171875 48.1875 -13.984375 
Q 42 -20.796875 29.203125 -20.796875 
Q 24.46875 -20.796875 20.265625 -20.09375 
Q 16.0625 -19.390625 12.109375 -17.921875 
L 12.109375 -9.1875 
Q 16.0625 -11.328125 19.921875 -12.34375 
Q 23.78125 -13.375 27.78125 -13.375 
Q 36.625 -13.375 41.015625 -8.765625 
Q 45.40625 -4.15625 45.40625 5.171875 
L 45.40625 9.625 
Q 42.625 4.78125 38.28125 2.390625 
Q 33.9375 0 27.875 0 
Q 17.828125 0 11.671875 7.65625 
Q 5.515625 15.328125 5.515625 27.984375 
Q 5.515625 40.671875 11.671875 48.328125 
Q 17.828125 56 27.875 56 
Q 33.9375 56 38.28125 53.609375 
Q 42.625 51.21875 45.40625 46.390625 
L 45.40625 54.6875 
L 54.390625 54.6875 
z
" id="BitstreamVeraSans-Roman-67"/>
      <path d="M 44.28125 53.078125 
L 44.28125 44.578125 
Q 40.484375 46.53125 36.375 47.5 
Q 32.28125 48.484375 27.875 48.484375 
Q 21.1875 48.484375 17.84375 46.4375 
Q 14.5 44.390625 14.5 40.28125 
Q 14.5 37.15625 16.890625 35.375 
Q 19.28125 33.59375 26.515625 31.984375 
L 29.59375 31.296875 
Q 39.15625 29.25 43.1875 25.515625 
Q 47.21875 21.78125 47.21875 15.09375 
Q 47.21875 7.46875 41.1875 3.015625 
Q 35.15625 -1.421875 24.609375 -1.421875 
Q 20.21875 -1.421875 15.453125 -0.5625 
Q 10.6875 0.296875 5.421875 2 
L 5.421875 11.28125 
Q 10.40625 8.6875 15.234375 7.390625 
Q 20.0625 6.109375 24.8125 6.109375 
Q 31.15625 6.109375 34.5625 8.28125 
Q 37.984375 10.453125 37.984375 14.40625 
Q 37.984375 18.0625 35.515625 20.015625 
Q 33.0625 21.96875 24.703125 23.78125 
L 21.578125 24.515625 
Q 13.234375 26.265625 9.515625 29.90625 
Q 5.8125 33.546875 5.8125 39.890625 
Q 5.8125 47.609375 11.28125 51.796875 
Q 16.75 56 26.8125 56 
Q 31.78125 56 36.171875 55.265625 
Q 40.578125 54.546875 44.28125 53.078125 
" id="BitstreamVeraSans-Roman-73"/>
     </defs>
     <g transform="translate(156.33984375 408.8165625)scale(0.18 -0.18)">
      <use xlink:href="#BitstreamVeraSans-Roman-4d"/>
      <use x="86.279296875" xlink:href="#BitstreamVeraSans-Roman-65"/>
      <use x="147.802734375" xlink:href="#BitstreamVeraSans-Roman-64"/>
      <use x="211.279296875" xlink:href="#BitstreamVeraSans-Roman-69"/>
      <use x="239.0625" xlink:href="#BitstreamVeraSans-Roman-61"/>
      <use x="300.341796875" xlink:href="#BitstreamVeraSans-Roman-6e"/>
      <use x="363.720703125" xlink:href="#BitstreamVeraSans-Roman-20"/>
      <use x="395.5078125" xlink:href="#BitstreamVeraSans-Roman-74"/>
      <use x="434.716796875" xlink:href="#BitstreamVeraSans-Roman-75"/>
      <use x="498.095703125" xlink:href="#BitstreamVeraSans-Roman-72"/>
      <use x="539.193359375" xlink:href="#BitstreamVeraSans-Roman-6e"/>
      <use x="602.572265625" xlink:href="#BitstreamVeraSans-Roman-20"/>
      <use x="634.359375" xlink:href="#BitstreamVeraSans-Roman-73"/>
      <use x="686.458984375" xlink:href="#BitstreamVeraSans-Roman-70"/>
      <use x="749.935546875" xlink:href="#BitstreamVeraSans-Roman-65"/>
      <use x="811.458984375" xlink:href="#BitstreamVeraSans-Roman-65"/>
      <use x="872.982421875" xlink:href="#BitstreamVeraSans-Roman-64"/>
      <use x="936.458984375" xlink:href="#BitstreamVeraSans-Roman-20"/>
      <use x="968.24609375" xlink:href="#BitstreamVeraSans-Roman-28"/>
      <use x="1007.259765625" xlink:href="#BitstreamVeraSans-Roman-64"/>
      <use x="1070.736328125" xlink:href="#BitstreamVeraSans-Roman-65"/>
      <use x="1132.259765625" xlink:href="#BitstreamVeraSans-Roman-67"/>
      <use x="1195.736328125" xlink:href="#BitstreamVeraSans-Roman-72"/>
      <use x="1236.818359375" xlink:href="#BitstreamVeraSans-Roman-65"/>
      <use x="1298.341796875" xlink:href="#BitstreamVeraSans-Roman-65"/>
      <use x="1359.865234375" xlink:href="#BitstreamVeraSans-Roman-73"/>
      <use x="1411.96484375" xlink:href="#BitstreamVeraSans-Roman-2f"/>
      <use x="1445.65625" xlink:href="#BitstreamVeraSans-Roman-6d"/>
      <use x="1543.068359375" xlink:href="#BitstreamVeraSans-Roman-69"/>
      <use x="1570.8515625" xlink:href="#BitstreamVeraSans-Roman-6e"/>
      <use x="1634.23046875" xlink:href="#BitstreamVeraSans-Roman-29"/>
     </g>
    </g>
   </g>
   <g id="matplotlib.axis_2">
    <g id="ytick_1">
     <g id="line2d_28">
      <path clip-path="url(#pe1064c1c2a)" d="M 74.48625 368.71875 
L 539.38125 368.71875 
" style="fill:none;stroke:#000000;stroke-dasharray:1.000000,3.000000;stroke-dashoffset:0.0;stroke-width:2.0;"/>
     </g>
     <g id="line2d_29">
      <defs>
       <path d="M 0 0 
L 4 0 
" id="m9a9d1ffea5" style="stroke:#000000;stroke-width:0.5;"/>
      </defs>
      <g>
       <use style="stroke:#000000;stroke-width:0.5;" x="74.48625" xlink:href="#m9a9d1ffea5" y="368.71875"/>
      </g>
     </g>
     <g id="line2d_30">
      <defs>
       <path d="M 0 0 
L -4 0 
" id="me33aa76ca6" style="stroke:#000000;stroke-width:0.5;"/>
      </defs>
      <g>
       <use style="stroke:#000000;stroke-width:0.5;" x="539.38125" xlink:href="#me33aa76ca6" y="368.71875"/>
      </g>
     </g>
     <g id="text_10">
      <!-- 0.0 -->
      <defs>
       <path d="M 10.6875 12.40625 
L 21 12.40625 
L 21 0 
L 10.6875 0 
z
" id="BitstreamVeraSans-Roman-2e"/>
      </defs>
      <g transform="translate(41.860625 373.685625)scale(0.18 -0.18)">
       <use xlink:href="#BitstreamVeraSans-Roman-30"/>
       <use x="63.623046875" xlink:href="#BitstreamVeraSans-Roman-2e"/>
       <use x="95.41015625" xlink:href="#BitstreamVeraSans-Roman-30"/>
      </g>
     </g>
    </g>
    <g id="ytick_2">
     <g id="line2d_31">
      <path clip-path="url(#pe1064c1c2a)" d="M 74.48625 303.145525 
L 539.38125 303.145525 
" style="fill:none;stroke:#000000;stroke-dasharray:1.000000,3.000000;stroke-dashoffset:0.0;stroke-width:2.0;"/>
     </g>
     <g id="line2d_32">
      <g>
       <use style="stroke:#000000;stroke-width:0.5;" x="74.48625" xlink:href="#m9a9d1ffea5" y="303.145525"/>
      </g>
     </g>
     <g id="line2d_33">
      <g>
       <use style="stroke:#000000;stroke-width:0.5;" x="539.38125" xlink:href="#me33aa76ca6" y="303.145525"/>
      </g>
     </g>
     <g id="text_11">
      <!-- 0.2 -->
      <g transform="translate(41.860625 308.1124)scale(0.18 -0.18)">
       <use xlink:href="#BitstreamVeraSans-Roman-30"/>
       <use x="63.623046875" xlink:href="#BitstreamVeraSans-Roman-2e"/>
       <use x="95.41015625" xlink:href="#BitstreamVeraSans-Roman-32"/>
      </g>
     </g>
    </g>
    <g id="ytick_3">
     <g id="line2d_34">
      <path clip-path="url(#pe1064c1c2a)" d="M 74.48625 237.5723 
L 539.38125 237.5723 
" style="fill:none;stroke:#000000;stroke-dasharray:1.000000,3.000000;stroke-dashoffset:0.0;stroke-width:2.0;"/>
     </g>
     <g id="line2d_35">
      <g>
       <use style="stroke:#000000;stroke-width:0.5;" x="74.48625" xlink:href="#m9a9d1ffea5" y="237.5723"/>
      </g>
     </g>
     <g id="line2d_36">
      <g>
       <use style="stroke:#000000;stroke-width:0.5;" x="539.38125" xlink:href="#me33aa76ca6" y="237.5723"/>
      </g>
     </g>
     <g id="text_12">
      <!-- 0.4 -->
      <defs>
       <path d="M 37.796875 64.3125 
L 12.890625 25.390625 
L 37.796875 25.390625 
z
M 35.203125 72.90625 
L 47.609375 72.90625 
L 47.609375 25.390625 
L 58.015625 25.390625 
L 58.015625 17.1875 
L 47.609375 17.1875 
L 47.609375 0 
L 37.796875 0 
L 37.796875 17.1875 
L 4.890625 17.1875 
L 4.890625 26.703125 
z
" id="BitstreamVeraSans-Roman-34"/>
      </defs>
      <g transform="translate(41.860625 242.539175)scale(0.18 -0.18)">
       <use xlink:href="#BitstreamVeraSans-Roman-30"/>
       <use x="63.623046875" xlink:href="#BitstreamVeraSans-Roman-2e"/>
       <use x="95.41015625" xlink:href="#BitstreamVeraSans-Roman-34"/>
      </g>
     </g>
    </g>
    <g id="ytick_4">
     <g id="line2d_37">
      <path clip-path="url(#pe1064c1c2a)" d="M 74.48625 171.999075 
L 539.38125 171.999075 
" style="fill:none;stroke:#000000;stroke-dasharray:1.000000,3.000000;stroke-dashoffset:0.0;stroke-width:2.0;"/>
     </g>
     <g id="line2d_38">
      <g>
       <use style="stroke:#000000;stroke-width:0.5;" x="74.48625" xlink:href="#m9a9d1ffea5" y="171.999075"/>
      </g>
     </g>
     <g id="line2d_39">
      <g>
       <use style="stroke:#000000;stroke-width:0.5;" x="539.38125" xlink:href="#me33aa76ca6" y="171.999075"/>
      </g>
     </g>
     <g id="text_13">
      <!-- 0.6 -->
      <defs>
       <path d="M 33.015625 40.375 
Q 26.375 40.375 22.484375 35.828125 
Q 18.609375 31.296875 18.609375 23.390625 
Q 18.609375 15.53125 22.484375 10.953125 
Q 26.375 6.390625 33.015625 6.390625 
Q 39.65625 6.390625 43.53125 10.953125 
Q 47.40625 15.53125 47.40625 23.390625 
Q 47.40625 31.296875 43.53125 35.828125 
Q 39.65625 40.375 33.015625 40.375 
M 52.59375 71.296875 
L 52.59375 62.3125 
Q 48.875 64.0625 45.09375 64.984375 
Q 41.3125 65.921875 37.59375 65.921875 
Q 27.828125 65.921875 22.671875 59.328125 
Q 17.53125 52.734375 16.796875 39.40625 
Q 19.671875 43.65625 24.015625 45.921875 
Q 28.375 48.1875 33.59375 48.1875 
Q 44.578125 48.1875 50.953125 41.515625 
Q 57.328125 34.859375 57.328125 23.390625 
Q 57.328125 12.15625 50.6875 5.359375 
Q 44.046875 -1.421875 33.015625 -1.421875 
Q 20.359375 -1.421875 13.671875 8.265625 
Q 6.984375 17.96875 6.984375 36.375 
Q 6.984375 53.65625 15.1875 63.9375 
Q 23.390625 74.21875 37.203125 74.21875 
Q 40.921875 74.21875 44.703125 73.484375 
Q 48.484375 72.75 52.59375 71.296875 
" id="BitstreamVeraSans-Roman-36"/>
      </defs>
      <g transform="translate(41.860625 176.96595)scale(0.18 -0.18)">
       <use xlink:href="#BitstreamVeraSans-Roman-30"/>
       <use x="63.623046875" xlink:href="#BitstreamVeraSans-Roman-2e"/>
       <use x="95.41015625" xlink:href="#BitstreamVeraSans-Roman-36"/>
      </g>
     </g>
    </g>
    <g id="ytick_5">
     <g id="line2d_40">
      <path clip-path="url(#pe1064c1c2a)" d="M 74.48625 106.42585 
L 539.38125 106.42585 
" style="fill:none;stroke:#000000;stroke-dasharray:1.000000,3.000000;stroke-dashoffset:0.0;stroke-width:2.0;"/>
     </g>
     <g id="line2d_41">
      <g>
       <use style="stroke:#000000;stroke-width:0.5;" x="74.48625" xlink:href="#m9a9d1ffea5" y="106.42585"/>
      </g>
     </g>
     <g id="line2d_42">
      <g>
       <use style="stroke:#000000;stroke-width:0.5;" x="539.38125" xlink:href="#me33aa76ca6" y="106.42585"/>
      </g>
     </g>
     <g id="text_14">
      <!-- 0.8 -->
      <defs>
       <path d="M 31.78125 34.625 
Q 24.75 34.625 20.71875 30.859375 
Q 16.703125 27.09375 16.703125 20.515625 
Q 16.703125 13.921875 20.71875 10.15625 
Q 24.75 6.390625 31.78125 6.390625 
Q 38.8125 6.390625 42.859375 10.171875 
Q 46.921875 13.96875 46.921875 20.515625 
Q 46.921875 27.09375 42.890625 30.859375 
Q 38.875 34.625 31.78125 34.625 
M 21.921875 38.8125 
Q 15.578125 40.375 12.03125 44.71875 
Q 8.5 49.078125 8.5 55.328125 
Q 8.5 64.0625 14.71875 69.140625 
Q 20.953125 74.21875 31.78125 74.21875 
Q 42.671875 74.21875 48.875 69.140625 
Q 55.078125 64.0625 55.078125 55.328125 
Q 55.078125 49.078125 51.53125 44.71875 
Q 48 40.375 41.703125 38.8125 
Q 48.828125 37.15625 52.796875 32.3125 
Q 56.78125 27.484375 56.78125 20.515625 
Q 56.78125 9.90625 50.3125 4.234375 
Q 43.84375 -1.421875 31.78125 -1.421875 
Q 19.734375 -1.421875 13.25 4.234375 
Q 6.78125 9.90625 6.78125 20.515625 
Q 6.78125 27.484375 10.78125 32.3125 
Q 14.796875 37.15625 21.921875 38.8125 
M 18.3125 54.390625 
Q 18.3125 48.734375 21.84375 45.5625 
Q 25.390625 42.390625 31.78125 42.390625 
Q 38.140625 42.390625 41.71875 45.5625 
Q 45.3125 48.734375 45.3125 54.390625 
Q 45.3125 60.0625 41.71875 63.234375 
Q 38.140625 66.40625 31.78125 66.40625 
Q 25.390625 66.40625 21.84375 63.234375 
Q 18.3125 60.0625 18.3125 54.390625 
" id="BitstreamVeraSans-Roman-38"/>
      </defs>
      <g transform="translate(41.860625 111.392725)scale(0.18 -0.18)">
       <use xlink:href="#BitstreamVeraSans-Roman-30"/>
       <use x="63.623046875" xlink:href="#BitstreamVeraSans-Roman-2e"/>
       <use x="95.41015625" xlink:href="#BitstreamVeraSans-Roman-38"/>
      </g>
     </g>
    </g>
    <g id="ytick_6">
     <g id="line2d_43">
      <path clip-path="url(#pe1064c1c2a)" d="M 74.48625 40.852625 
L 539.38125 40.852625 
" style="fill:none;stroke:#000000;stroke-dasharray:1.000000,3.000000;stroke-dashoffset:0.0;stroke-width:2.0;"/>
     </g>
     <g id="line2d_44">
      <g>
       <use style="stroke:#000000;stroke-width:0.5;" x="74.48625" xlink:href="#m9a9d1ffea5" y="40.852625"/>
      </g>
     </g>
     <g id="line2d_45">
      <g>
       <use style="stroke:#000000;stroke-width:0.5;" x="539.38125" xlink:href="#me33aa76ca6" y="40.852625"/>
      </g>
     </g>
     <g id="text_15">
      <!-- 1.0 -->
      <g transform="translate(41.860625 45.8195)scale(0.18 -0.18)">
       <use xlink:href="#BitstreamVeraSans-Roman-31"/>
       <use x="63.623046875" xlink:href="#BitstreamVeraSans-Roman-2e"/>
       <use x="95.41015625" xlink:href="#BitstreamVeraSans-Roman-30"/>
      </g>
     </g>
    </g>
    <g id="text_16">
     <!-- Proportion -->
     <defs>
      <path d="M 19.671875 64.796875 
L 19.671875 37.40625 
L 32.078125 37.40625 
Q 38.96875 37.40625 42.71875 40.96875 
Q 46.484375 44.53125 46.484375 51.125 
Q 46.484375 57.671875 42.71875 61.234375 
Q 38.96875 64.796875 32.078125 64.796875 
z
M 9.8125 72.90625 
L 32.078125 72.90625 
Q 44.34375 72.90625 50.609375 67.359375 
Q 56.890625 61.8125 56.890625 51.125 
Q 56.890625 40.328125 50.609375 34.8125 
Q 44.34375 29.296875 32.078125 29.296875 
L 19.671875 29.296875 
L 19.671875 0 
L 9.8125 0 
z
" id="BitstreamVeraSans-Roman-50"/>
      <path d="M 30.609375 48.390625 
Q 23.390625 48.390625 19.1875 42.75 
Q 14.984375 37.109375 14.984375 27.296875 
Q 14.984375 17.484375 19.15625 11.84375 
Q 23.34375 6.203125 30.609375 6.203125 
Q 37.796875 6.203125 41.984375 11.859375 
Q 46.1875 17.53125 46.1875 27.296875 
Q 46.1875 37.015625 41.984375 42.703125 
Q 37.796875 48.390625 30.609375 48.390625 
M 30.609375 56 
Q 42.328125 56 49.015625 48.375 
Q 55.71875 40.765625 55.71875 27.296875 
Q 55.71875 13.875 49.015625 6.21875 
Q 42.328125 -1.421875 30.609375 -1.421875 
Q 18.84375 -1.421875 12.171875 6.21875 
Q 5.515625 13.875 5.515625 27.296875 
Q 5.515625 40.765625 12.171875 48.375 
Q 18.84375 56 30.609375 56 
" id="BitstreamVeraSans-Roman-6f"/>
     </defs>
     <g transform="translate(33.1171875 251.5744375)rotate(-90.0)scale(0.18 -0.18)">
      <use xlink:href="#BitstreamVeraSans-Roman-50"/>
      <use x="60.287109375" xlink:href="#BitstreamVeraSans-Roman-72"/>
      <use x="101.369140625" xlink:href="#BitstreamVeraSans-Roman-6f"/>
      <use x="162.55078125" xlink:href="#BitstreamVeraSans-Roman-70"/>
      <use x="226.02734375" xlink:href="#BitstreamVeraSans-Roman-6f"/>
      <use x="287.208984375" xlink:href="#BitstreamVeraSans-Roman-72"/>
      <use x="328.322265625" xlink:href="#BitstreamVeraSans-Roman-74"/>
      <use x="367.53125" xlink:href="#BitstreamVeraSans-Roman-69"/>
      <use x="395.314453125" xlink:href="#BitstreamVeraSans-Roman-6f"/>
      <use x="456.49609375" xlink:href="#BitstreamVeraSans-Roman-6e"/>
     </g>
    </g>
   </g>
   <g id="text_17">
    <!-- Median Track Turn Speeds -->
    <defs>
     <path d="M 9.078125 75.984375 
L 18.109375 75.984375 
L 18.109375 31.109375 
L 44.921875 54.6875 
L 56.390625 54.6875 
L 27.390625 29.109375 
L 57.625 0 
L 45.90625 0 
L 18.109375 26.703125 
L 18.109375 0 
L 9.078125 0 
z
" id="BitstreamVeraSans-Roman-6b"/>
     <path d="M 53.515625 70.515625 
L 53.515625 60.890625 
Q 47.90625 63.578125 42.921875 64.890625 
Q 37.9375 66.21875 33.296875 66.21875 
Q 25.25 66.21875 20.875 63.09375 
Q 16.5 59.96875 16.5 54.203125 
Q 16.5 49.359375 19.40625 46.890625 
Q 22.3125 44.4375 30.421875 42.921875 
L 36.375 41.703125 
Q 47.40625 39.59375 52.65625 34.296875 
Q 57.90625 29 57.90625 20.125 
Q 57.90625 9.515625 50.796875 4.046875 
Q 43.703125 -1.421875 29.984375 -1.421875 
Q 24.8125 -1.421875 18.96875 -0.25 
Q 13.140625 0.921875 6.890625 3.21875 
L 6.890625 13.375 
Q 12.890625 10.015625 18.65625 8.296875 
Q 24.421875 6.59375 29.984375 6.59375 
Q 38.421875 6.59375 43.015625 9.90625 
Q 47.609375 13.234375 47.609375 19.390625 
Q 47.609375 24.75 44.3125 27.78125 
Q 41.015625 30.8125 33.5 32.328125 
L 27.484375 33.5 
Q 16.453125 35.6875 11.515625 40.375 
Q 6.59375 45.0625 6.59375 53.421875 
Q 6.59375 63.09375 13.40625 68.65625 
Q 20.21875 74.21875 32.171875 74.21875 
Q 37.3125 74.21875 42.625 73.28125 
Q 47.953125 72.359375 53.515625 70.515625 
" id="BitstreamVeraSans-Roman-53"/>
     <path d="M 48.78125 52.59375 
L 48.78125 44.1875 
Q 44.96875 46.296875 41.140625 47.34375 
Q 37.3125 48.390625 33.40625 48.390625 
Q 24.65625 48.390625 19.8125 42.84375 
Q 14.984375 37.3125 14.984375 27.296875 
Q 14.984375 17.28125 19.8125 11.734375 
Q 24.65625 6.203125 33.40625 6.203125 
Q 37.3125 6.203125 41.140625 7.25 
Q 44.96875 8.296875 48.78125 10.40625 
L 48.78125 2.09375 
Q 45.015625 0.34375 40.984375 -0.53125 
Q 36.96875 -1.421875 32.421875 -1.421875 
Q 20.0625 -1.421875 12.78125 6.34375 
Q 5.515625 14.109375 5.515625 27.296875 
Q 5.515625 40.671875 12.859375 48.328125 
Q 20.21875 56 33.015625 56 
Q 37.15625 56 41.109375 55.140625 
Q 45.0625 54.296875 48.78125 52.59375 
" id="BitstreamVeraSans-Roman-63"/>
     <path d="M -0.296875 72.90625 
L 61.375 72.90625 
L 61.375 64.59375 
L 35.5 64.59375 
L 35.5 0 
L 25.59375 0 
L 25.59375 64.59375 
L -0.296875 64.59375 
z
" id="BitstreamVeraSans-Roman-54"/>
    </defs>
    <g transform="translate(163.3460625 35.852625)scale(0.21599999999999997 -0.21599999999999997)">
     <use xlink:href="#BitstreamVeraSans-Roman-4d"/>
     <use x="86.279296875" xlink:href="#BitstreamVeraSans-Roman-65"/>
     <use x="147.802734375" xlink:href="#BitstreamVeraSans-Roman-64"/>
     <use x="211.279296875" xlink:href="#BitstreamVeraSans-Roman-69"/>
     <use x="239.0625" xlink:href="#BitstreamVeraSans-Roman-61"/>
     <use x="300.341796875" xlink:href="#BitstreamVeraSans-Roman-6e"/>
     <use x="363.720703125" xlink:href="#BitstreamVeraSans-Roman-20"/>
     <use x="395.5078125" xlink:href="#BitstreamVeraSans-Roman-54"/>
     <use x="456.373046875" xlink:href="#BitstreamVeraSans-Roman-72"/>
     <use x="497.486328125" xlink:href="#BitstreamVeraSans-Roman-61"/>
     <use x="558.765625" xlink:href="#BitstreamVeraSans-Roman-63"/>
     <use x="613.74609375" xlink:href="#BitstreamVeraSans-Roman-6b"/>
     <use x="671.65625" xlink:href="#BitstreamVeraSans-Roman-20"/>
     <use x="703.443359375" xlink:href="#BitstreamVeraSans-Roman-54"/>
     <use x="764.29296875" xlink:href="#BitstreamVeraSans-Roman-75"/>
     <use x="827.671875" xlink:href="#BitstreamVeraSans-Roman-72"/>
     <use x="868.76953125" xlink:href="#BitstreamVeraSans-Roman-6e"/>
     <use x="932.1484375" xlink:href="#BitstreamVeraSans-Roman-20"/>
     <use x="963.935546875" xlink:href="#BitstreamVeraSans-Roman-53"/>
     <use x="1027.412109375" xlink:href="#BitstreamVeraSans-Roman-70"/>
     <use x="1090.888671875" xlink:href="#BitstreamVeraSans-Roman-65"/>
     <use x="1152.412109375" xlink:href="#BitstreamVeraSans-Roman-65"/>
     <use x="1213.935546875" xlink:href="#BitstreamVeraSans-Roman-64"/>
     <use x="1277.412109375" xlink:href="#BitstreamVeraSans-Roman-73"/>
    </g>
   </g>
   <g id="legend_1">
    <g id="patch_7">
     <path d="M 353.78325 357.91875 
L 528.58125 357.91875 
L 528.58125 256.3245 
L 353.78325 256.3245 
z
" style="fill:#ffffff;stroke:#000000;stroke-linejoin:miter;"/>
    </g>
    <g id="line2d_46">
     <path d="M 368.90325 273.817125 
L 399.14325 273.817125 
" style="fill:none;stroke:#0000ff;stroke-linecap:square;stroke-width:2.0;"/>
    </g>
    <g id="line2d_47"/>
    <g id="text_18">
     <!-- Levy -->
     <defs>
      <path d="M 2.984375 54.6875 
L 12.5 54.6875 
L 29.59375 8.796875 
L 46.6875 54.6875 
L 56.203125 54.6875 
L 35.6875 0 
L 23.484375 0 
z
" id="BitstreamVeraSans-Roman-76"/>
      <path d="M 32.171875 -5.078125 
Q 28.375 -14.84375 24.75 -17.8125 
Q 21.140625 -20.796875 15.09375 -20.796875 
L 7.90625 -20.796875 
L 7.90625 -13.28125 
L 13.1875 -13.28125 
Q 16.890625 -13.28125 18.9375 -11.515625 
Q 21 -9.765625 23.484375 -3.21875 
L 25.09375 0.875 
L 2.984375 54.6875 
L 12.5 54.6875 
L 29.59375 11.921875 
L 46.6875 54.6875 
L 56.203125 54.6875 
z
" id="BitstreamVeraSans-Roman-79"/>
      <path d="M 9.8125 72.90625 
L 19.671875 72.90625 
L 19.671875 8.296875 
L 55.171875 8.296875 
L 55.171875 0 
L 9.8125 0 
z
" id="BitstreamVeraSans-Roman-4c"/>
     </defs>
     <g transform="translate(422.90325 281.377125)scale(0.21599999999999997 -0.21599999999999997)">
      <use xlink:href="#BitstreamVeraSans-Roman-4c"/>
      <use x="55.697265625" xlink:href="#BitstreamVeraSans-Roman-65"/>
      <use x="117.220703125" xlink:href="#BitstreamVeraSans-Roman-76"/>
      <use x="176.400390625" xlink:href="#BitstreamVeraSans-Roman-79"/>
     </g>
    </g>
    <g id="line2d_48">
     <path d="M 368.90325 305.521875 
L 399.14325 305.521875 
" style="fill:none;stroke:#008000;stroke-linecap:square;stroke-width:2.0;"/>
    </g>
    <g id="line2d_49"/>
    <g id="text_19">
     <!-- CRW -->
     <defs>
      <path d="M 64.40625 67.28125 
L 64.40625 56.890625 
Q 59.421875 61.53125 53.78125 63.8125 
Q 48.140625 66.109375 41.796875 66.109375 
Q 29.296875 66.109375 22.65625 58.46875 
Q 16.015625 50.828125 16.015625 36.375 
Q 16.015625 21.96875 22.65625 14.328125 
Q 29.296875 6.6875 41.796875 6.6875 
Q 48.140625 6.6875 53.78125 8.984375 
Q 59.421875 11.28125 64.40625 15.921875 
L 64.40625 5.609375 
Q 59.234375 2.09375 53.4375 0.328125 
Q 47.65625 -1.421875 41.21875 -1.421875 
Q 24.65625 -1.421875 15.125 8.703125 
Q 5.609375 18.84375 5.609375 36.375 
Q 5.609375 53.953125 15.125 64.078125 
Q 24.65625 74.21875 41.21875 74.21875 
Q 47.75 74.21875 53.53125 72.484375 
Q 59.328125 70.75 64.40625 67.28125 
" id="BitstreamVeraSans-Roman-43"/>
      <path d="M 3.328125 72.90625 
L 13.28125 72.90625 
L 28.609375 11.28125 
L 43.890625 72.90625 
L 54.984375 72.90625 
L 70.3125 11.28125 
L 85.59375 72.90625 
L 95.609375 72.90625 
L 77.296875 0 
L 64.890625 0 
L 49.515625 63.28125 
L 33.984375 0 
L 21.578125 0 
z
" id="BitstreamVeraSans-Roman-57"/>
      <path d="M 44.390625 34.1875 
Q 47.5625 33.109375 50.5625 29.59375 
Q 53.5625 26.078125 56.59375 19.921875 
L 66.609375 0 
L 56 0 
L 46.6875 18.703125 
Q 43.0625 26.03125 39.671875 28.421875 
Q 36.28125 30.8125 30.421875 30.8125 
L 19.671875 30.8125 
L 19.671875 0 
L 9.8125 0 
L 9.8125 72.90625 
L 32.078125 72.90625 
Q 44.578125 72.90625 50.734375 67.671875 
Q 56.890625 62.453125 56.890625 51.90625 
Q 56.890625 45.015625 53.6875 40.46875 
Q 50.484375 35.9375 44.390625 34.1875 
M 19.671875 64.796875 
L 19.671875 38.921875 
L 32.078125 38.921875 
Q 39.203125 38.921875 42.84375 42.21875 
Q 46.484375 45.515625 46.484375 51.90625 
Q 46.484375 58.296875 42.84375 61.546875 
Q 39.203125 64.796875 32.078125 64.796875 
z
" id="BitstreamVeraSans-Roman-52"/>
     </defs>
     <g transform="translate(422.90325 313.081875)scale(0.21599999999999997 -0.21599999999999997)">
      <use xlink:href="#BitstreamVeraSans-Roman-43"/>
      <use x="69.82421875" xlink:href="#BitstreamVeraSans-Roman-52"/>
      <use x="139.244140625" xlink:href="#BitstreamVeraSans-Roman-57"/>
     </g>
    </g>
    <g id="line2d_50">
     <path d="M 368.90325 337.226625 
L 399.14325 337.226625 
" style="fill:none;stroke:#ff0000;stroke-linecap:square;stroke-width:2.0;"/>
    </g>
    <g id="line2d_51"/>
    <g id="text_20">
     <!-- CRW 50s -->
     <g transform="translate(422.90325 344.786625)scale(0.21599999999999997 -0.21599999999999997)">
      <use xlink:href="#BitstreamVeraSans-Roman-43"/>
      <use x="69.82421875" xlink:href="#BitstreamVeraSans-Roman-52"/>
      <use x="139.244140625" xlink:href="#BitstreamVeraSans-Roman-57"/>
      <use x="238.12109375" xlink:href="#BitstreamVeraSans-Roman-20"/>
      <use x="269.908203125" xlink:href="#BitstreamVeraSans-Roman-35"/>
      <use x="333.53125" xlink:href="#BitstreamVeraSans-Roman-30"/>
      <use x="397.154296875" xlink:href="#BitstreamVeraSans-Roman-73"/>
     </g>
    </g>
   </g>
  </g>
 </g>
 <defs>
  <clipPath id="pe1064c1c2a">
   <rect height="327.866125" width="464.895" x="74.48625" y="40.852625"/>
  </clipPath>
 </defs>
</svg>
