<?xml version="1.0" encoding="utf-8" standalone="no"?>
<!DOCTYPE svg PUBLIC "-//W3C//DTD SVG 1.1//EN"
  "http://www.w3.org/Graphics/SVG/1.1/DTD/svg11.dtd">
<!-- Created with matplotlib (http://matplotlib.org/) -->
<svg height="432pt" version="1.1" viewBox="0 0 576 432" width="576pt" xmlns="http://www.w3.org/2000/svg" xmlns:xlink="http://www.w3.org/1999/xlink">
 <defs>
  <style type="text/css">
*{stroke-linecap:butt;stroke-linejoin:round;stroke-miterlimit:100000;}
  </style>
 </defs>
 <g id="figure_1">
  <g id="patch_1">
   <path d="M 0 432 
L 576 432 
L 576 0 
L 0 0 
z
" style="fill:#ffffff;"/>
  </g>
  <g id="axes_1">
   <g id="patch_2">
    <path d="M 74.48625 368.71875 
L 545.1075 368.71875 
L 545.1075 40.852625 
L 74.48625 40.852625 
z
" style="fill:#ffffff;"/>
   </g>
   <g id="line2d_1">
    <path clip-path="url(#p0c0bb33100)" d="M 90.877227 368.71875 
L 90.877227 367.722196 
L 94.33446 366.725643 
L 102.807229 365.729089 
L 104.55399 364.732536 
L 115.762549 363.735982 
L 116.767386 362.739429 
L 120.188255 361.742875 
L 121.259238 360.746321 
L 121.768185 359.749768 
L 121.889933 358.753214 
L 122.242001 357.756661 
L 124.61326 356.760107 
L 124.984968 355.763554 
L 126.31067 354.767 
L 126.463534 353.770446 
L 127.768826 352.773893 
L 128.328461 351.777339 
L 128.736078 349.784232 
L 129.639034 348.787679 
L 130.018928 347.791125 
L 130.116452 346.794571 
L 130.759789 345.798018 
L 130.826091 344.801464 
L 131.371555 343.804911 
L 132.353038 342.808357 
L 132.42223 341.811804 
L 132.911511 339.818696 
L 133.058266 338.822143 
L 135.322259 336.829036 
L 138.124685 335.832482 
L 138.18092 334.835929 
L 139.271585 331.846268 
L 139.606372 329.853161 
L 139.938107 328.856607 
L 140.446008 327.860054 
L 140.532227 325.866946 
L 140.626165 324.870393 
L 141.346518 322.877286 
L 142.127796 321.880732 
L 142.201693 320.884179 
L 143.017225 319.887625 
L 143.323288 317.894518 
L 143.854212 316.897964 
L 143.931032 315.901411 
L 144.573384 314.904857 
L 145.555024 313.908304 
L 146.195205 312.91175 
L 147.440938 311.915196 
L 147.450369 309.922089 
L 147.617504 308.925536 
L 147.656449 307.928982 
L 148.680403 305.935875 
L 148.847295 303.942768 
L 148.917456 302.946214 
L 149.19238 301.949661 
L 149.26594 300.953107 
L 149.816054 299.956554 
L 149.875954 298.96 
L 150.335646 297.963446 
L 150.877867 295.970339 
L 151.06658 293.977232 
L 151.703376 292.980679 
L 151.816265 291.984125 
L 152.266753 290.987571 
L 152.50632 289.991018 
L 152.539034 288.994464 
L 153.54617 287.997911 
L 153.88511 287.001357 
L 154.176465 284.011696 
L 154.260638 282.018589 
L 154.500212 281.022036 
L 154.97645 275.042714 
L 155.467047 274.046161 
L 155.591931 273.049607 
L 156.179502 271.0565 
L 156.632998 270.059946 
L 156.746223 268.066839 
L 157.209769 267.070286 
L 157.211957 266.073732 
L 157.988442 260.094411 
L 158.246067 259.097857 
L 158.75929 258.101304 
L 159.144908 256.108196 
L 159.18336 253.118536 
L 159.657578 250.128875 
L 159.977534 249.132321 
L 160.254532 246.142661 
L 160.429805 245.146107 
L 161.286972 243.153 
L 161.40651 242.156446 
L 161.861513 241.159893 
L 162.795663 240.163339 
L 162.976359 239.166786 
L 162.997599 238.170232 
L 163.415442 237.173679 
L 163.769982 234.184018 
L 163.830356 232.190911 
L 164.092242 231.194357 
L 164.094015 230.197804 
L 164.820951 226.211589 
L 165.374742 220.232268 
L 165.809026 218.239161 
L 166.115935 217.242607 
L 166.250146 215.2495 
L 166.878467 214.252946 
L 166.96513 212.259839 
L 167.284358 209.270179 
L 168.579993 208.273625 
L 168.75802 205.283964 
L 169.499816 204.287411 
L 169.501823 203.290857 
L 170.108087 200.301196 
L 170.111959 199.304643 
L 170.323281 198.308089 
L 170.378568 197.311536 
L 171.286695 196.314982 
L 171.302927 195.318429 
L 172.117753 193.325321 
L 172.543964 186.349446 
L 172.649356 184.356339 
L 173.056573 183.359786 
L 173.12307 182.363232 
L 174.081471 181.366679 
L 174.095528 180.370125 
L 174.446567 179.373571 
L 174.595907 176.383911 
L 174.611378 175.387357 
L 175.330187 173.39425 
L 175.476134 171.401143 
L 175.678464 169.408036 
L 175.794765 167.414929 
L 176.335054 166.418375 
L 176.429456 164.425268 
L 177.123162 163.428714 
L 177.621856 161.435607 
L 177.785307 159.4425 
L 177.813185 157.449393 
L 178.158914 156.452839 
L 178.384976 155.456286 
L 178.453582 154.459732 
L 178.84078 153.463179 
L 178.948104 152.466625 
L 179.826802 151.470071 
L 179.919253 149.476964 
L 180.534748 146.487304 
L 181.253168 145.49075 
L 181.616543 144.494196 
L 182.013759 140.507982 
L 182.433735 139.511429 
L 183.108901 138.514875 
L 183.308183 135.525214 
L 183.895556 132.535554 
L 183.950743 131.539 
L 184.642804 130.542446 
L 185.110022 129.545893 
L 185.776117 128.549339 
L 185.790773 127.552786 
L 186.773942 126.556232 
L 187.889077 124.563125 
L 187.992195 123.566571 
L 188.569653 122.570018 
L 190.015548 121.573464 
L 190.277922 119.580357 
L 190.469986 117.58725 
L 190.63997 116.590696 
L 190.646127 115.594143 
L 190.968697 114.597589 
L 191.529 113.601036 
L 192.963775 112.604482 
L 193.323358 111.607929 
L 193.337219 110.611375 
L 194.952146 109.614821 
L 195.783516 107.621714 
L 195.872819 106.625161 
L 197.973162 105.628607 
L 198.496657 104.632054 
L 199.2987 103.6355 
L 200.68368 102.638946 
L 203.719727 101.642393 
L 204.333059 100.645839 
L 206.376195 99.649286 
L 208.737336 98.652732 
L 209.102394 96.659625 
L 209.139672 95.663071 
L 209.714678 94.666518 
L 210.020439 93.669964 
L 211.201318 92.673411 
L 211.874937 91.676857 
L 211.887468 90.680304 
L 212.1614 89.68375 
L 213.149824 88.687196 
L 213.681797 87.690643 
L 216.267934 86.694089 
L 217.711304 85.697536 
L 218.985213 83.704429 
L 219.08532 82.707875 
L 221.704598 81.711321 
L 221.936429 80.714768 
L 224.399066 79.718214 
L 225.301805 78.721661 
L 226.477533 77.725107 
L 226.731423 76.728554 
L 229.218479 75.732 
L 230.747244 74.735446 
L 231.22234 73.738893 
L 237.52664 72.742339 
L 238.660225 71.745786 
L 239.16085 70.749232 
L 239.923983 69.752679 
L 246.338536 68.756125 
L 254.030403 66.763018 
L 254.704414 65.766464 
L 259.186209 64.769911 
L 262.26433 63.773357 
L 264.536643 62.776804 
L 275.60638 61.78025 
L 279.702991 60.783696 
L 287.106991 59.787143 
L 288.389424 58.790589 
L 291.633946 56.797482 
L 303.165601 55.800929 
L 304.988727 54.804375 
L 305.25428 53.807821 
L 314.089074 52.811268 
L 314.697353 51.814714 
L 325.217542 49.821607 
L 337.336212 48.825054 
L 352.605448 46.831946 
L 353.696822 45.835393 
L 357.071003 44.838839 
L 452.828832 43.842286 
L 522.208962 41.849179 
L 541.461219 40.852625 
L 541.461219 40.852625 
" style="fill:none;stroke:#0000ff;stroke-linecap:square;stroke-width:2.0;"/>
   </g>
   <g id="line2d_2">
    <path clip-path="url(#p0c0bb33100)" d="M 80.164485 368.71875 
L 80.164485 367.495369 
L 82.447781 366.271988 
L 82.543258 365.048607 
L 84.590138 363.825226 
L 84.919976 362.601845 
L 85.033509 361.378464 
L 86.63674 360.155083 
L 86.806263 358.931701 
L 87.340297 357.70832 
L 89.816236 354.038177 
L 91.743406 352.814796 
L 93.234134 351.591415 
L 93.959072 350.368034 
L 95.527365 349.144653 
L 95.61909 347.921272 
L 96.01146 345.47451 
L 96.062448 344.251129 
L 96.228031 343.027748 
L 99.118419 340.580986 
L 99.721243 339.357604 
L 99.769134 338.134223 
L 101.194315 336.910842 
L 101.656107 335.687461 
L 102.481423 334.46408 
L 102.650142 332.017318 
L 104.09819 328.347175 
L 104.739677 327.123794 
L 104.899474 325.900413 
L 106.24214 324.677032 
L 107.005706 323.453651 
L 107.029585 322.23027 
L 107.290447 321.006889 
L 107.476915 318.560126 
L 108.267301 317.336745 
L 108.872741 313.666602 
L 109.387072 312.443221 
L 109.747032 308.773078 
L 110.195233 306.326316 
L 110.846694 302.656173 
L 111.291006 297.762648 
L 111.881944 294.092505 
L 112.580507 292.869124 
L 112.624912 291.645743 
L 113.58326 290.422362 
L 113.710787 287.9756 
L 114.099282 286.752219 
L 114.1221 285.528838 
L 115.134514 284.305457 
L 115.199004 283.082076 
L 117.338092 281.858694 
L 118.284785 280.635313 
L 118.647234 279.411932 
L 118.766446 278.188551 
L 119.058679 276.96517 
L 120.077913 275.741789 
L 120.747033 274.518408 
L 121.840287 272.071646 
L 121.976675 269.624884 
L 122.135471 267.178122 
L 122.332882 265.954741 
L 122.813423 264.73136 
L 123.130769 262.284597 
L 123.57896 259.837835 
L 124.175434 258.614454 
L 125.120526 257.391073 
L 126.46472 256.167692 
L 126.978456 252.497549 
L 127.914685 251.274168 
L 128.682506 250.050787 
L 128.957733 248.827406 
L 128.992135 247.604025 
L 129.213585 246.380644 
L 129.316016 245.157263 
L 130.341421 243.933882 
L 130.415875 242.7105 
L 131.538812 241.487119 
L 131.901448 240.263738 
L 133.086313 239.040357 
L 133.621975 237.816976 
L 133.623354 236.593595 
L 133.973391 235.370214 
L 134.487501 234.146833 
L 134.518902 232.923452 
L 134.724452 231.700071 
L 135.048199 230.47669 
L 135.166105 229.253309 
L 135.769743 226.806547 
L 135.881189 225.583166 
L 136.828872 224.359785 
L 137.199079 223.136403 
L 137.261209 221.913022 
L 138.159717 220.689641 
L 138.189485 219.46626 
L 138.521344 218.242879 
L 139.320951 217.019498 
L 139.831694 215.796117 
L 139.847926 214.572736 
L 140.322149 213.349355 
L 141.11934 212.125974 
L 142.203781 210.902593 
L 142.281952 209.679212 
L 142.986496 207.23245 
L 143.424463 206.009069 
L 144.202509 204.785687 
L 144.435382 202.338925 
L 145.601441 201.115544 
L 145.654692 199.892163 
L 146.996105 198.668782 
L 147.494259 197.445401 
L 147.675752 194.998639 
L 148.246731 193.775258 
L 148.345068 192.551877 
L 148.642816 191.328496 
L 148.687203 190.105115 
L 150.143516 188.881734 
L 150.404068 183.988209 
L 150.432524 181.541447 
L 150.651391 180.318066 
L 151.210743 179.094685 
L 151.366296 177.871304 
L 152.436418 176.647923 
L 154.019284 175.424542 
L 154.521371 174.201161 
L 154.557031 172.97778 
L 155.394568 171.754399 
L 155.82233 170.531018 
L 155.935824 169.307637 
L 156.44372 168.084256 
L 156.624666 166.860875 
L 156.749452 164.414112 
L 157.626694 160.743969 
L 157.637264 159.520588 
L 158.228064 158.297207 
L 158.949623 157.073826 
L 159.10686 155.850445 
L 159.123284 154.627064 
L 159.33111 153.403683 
L 159.848491 152.180302 
L 160.203429 147.286778 
L 161.207207 146.063396 
L 161.573781 144.840015 
L 162.253481 143.616634 
L 162.37247 142.393253 
L 163.342016 141.169872 
L 163.366697 139.946491 
L 166.025263 138.72311 
L 166.309315 137.499729 
L 166.838243 133.829586 
L 170.292941 132.606205 
L 170.403147 131.382824 
L 173.033602 130.159443 
L 174.078688 128.936062 
L 175.572475 126.489299 
L 176.098633 125.265918 
L 176.122008 124.042537 
L 176.588111 122.819156 
L 176.695312 120.372394 
L 177.23627 119.149013 
L 177.958143 117.925632 
L 180.157784 116.702251 
L 181.688948 115.47887 
L 182.301293 110.585346 
L 183.400068 108.138583 
L 184.790456 106.915202 
L 185.560253 105.691821 
L 187.021178 104.46844 
L 187.425578 103.245059 
L 189.458565 100.798297 
L 189.93892 99.574916 
L 190.719307 98.351535 
L 191.363539 97.128154 
L 195.311842 95.904773 
L 195.473784 94.681392 
L 198.241247 93.458011 
L 199.87941 92.23463 
L 202.211829 89.787868 
L 202.995354 88.564486 
L 203.545998 86.117724 
L 205.383452 84.894343 
L 205.769771 83.670962 
L 205.943667 82.447581 
L 205.968813 81.2242 
L 208.085441 80.000819 
L 208.801546 78.777438 
L 212.970986 76.330676 
L 213.306777 75.107295 
L 214.496545 73.883914 
L 215.414715 72.660533 
L 216.664023 71.437152 
L 221.494195 70.213771 
L 226.875049 68.990389 
L 231.514056 67.767008 
L 231.779636 66.543627 
L 231.915853 65.320246 
L 233.662005 64.096865 
L 234.802575 62.873484 
L 236.272046 61.650103 
L 243.240613 60.426722 
L 243.652342 59.203341 
L 244.638674 57.97996 
L 245.877078 56.756579 
L 246.119831 55.533198 
L 256.447486 54.309817 
L 256.458186 53.086436 
L 261.593452 51.863055 
L 270.525994 50.639674 
L 290.597162 49.416292 
L 292.089538 48.192911 
L 297.528595 46.96953 
L 299.271442 45.746149 
L 306.24279 44.522768 
L 348.843951 43.299387 
L 364.383129 42.076006 
L 377.406401 40.852625 
L 377.406401 40.852625 
" style="fill:none;stroke:#008000;stroke-linecap:square;stroke-width:2.0;"/>
   </g>
   <g id="line2d_3">
    <path clip-path="url(#p0c0bb33100)" d="M 75.697992 368.71875 
L 75.697992 366.234916 
L 80.246164 363.751081 
L 81.463419 361.267247 
L 82.216741 358.783413 
L 82.273068 356.299579 
L 86.408322 353.815744 
L 87.783244 351.33191 
L 87.847078 348.848076 
L 88.077626 346.364241 
L 89.393296 343.880407 
L 91.799573 341.396573 
L 93.360676 338.912739 
L 94.216955 336.428904 
L 95.643316 333.94507 
L 96.459553 331.461236 
L 96.716027 328.977402 
L 96.768386 324.009733 
L 97.171116 321.525899 
L 97.97437 319.042064 
L 98.664057 314.074396 
L 100.243657 311.590562 
L 100.963709 309.106727 
L 103.977748 306.622893 
L 104.906511 304.139059 
L 106.442169 301.655224 
L 106.981072 299.17139 
L 107.155225 291.719887 
L 107.659814 289.236053 
L 107.871826 286.752219 
L 107.949654 284.268384 
L 108.465342 281.78455 
L 109.160568 279.300716 
L 109.47872 276.816882 
L 110.038563 274.333047 
L 110.332902 271.849213 
L 112.717966 269.365379 
L 112.904377 266.881545 
L 114.033737 264.39771 
L 114.330439 261.913876 
L 115.656571 259.430042 
L 115.835872 256.946207 
L 116.546129 254.462373 
L 116.566266 249.494705 
L 119.062845 247.01087 
L 120.099439 244.527036 
L 121.282881 242.043202 
L 121.342659 239.559367 
L 121.757684 237.075533 
L 124.673493 234.591699 
L 125.124385 232.107865 
L 125.440669 227.140196 
L 126.292477 224.656362 
L 126.719888 222.172527 
L 126.936253 219.688693 
L 126.967808 214.721025 
L 128.495976 212.23719 
L 128.836872 209.753356 
L 128.956202 207.269522 
L 130.156162 204.785687 
L 131.932507 199.818019 
L 132.057163 197.334185 
L 132.410427 194.85035 
L 132.960296 192.366516 
L 134.428642 189.882682 
L 134.531901 187.398848 
L 135.206737 184.915013 
L 135.700462 182.431179 
L 136.865622 179.947345 
L 138.25591 174.979676 
L 138.665072 172.495842 
L 139.47119 170.012008 
L 141.580868 167.528173 
L 142.347384 165.044339 
L 142.985907 162.560505 
L 143.220995 160.07667 
L 144.889646 157.592836 
L 145.756046 155.109002 
L 146.768228 152.625168 
L 146.962032 150.141333 
L 148.039532 147.657499 
L 150.017876 145.173665 
L 152.512078 142.68983 
L 152.949186 140.205996 
L 153.586115 137.722162 
L 153.790996 135.238328 
L 154.182839 132.754493 
L 157.181351 130.270659 
L 159.776387 127.786825 
L 159.937385 122.819156 
L 162.670757 120.335322 
L 164.137569 115.367653 
L 164.632752 112.883819 
L 165.324285 110.399985 
L 165.848187 107.916151 
L 165.88 105.432316 
L 166.110604 102.948482 
L 166.513775 100.464648 
L 167.102001 97.980813 
L 167.423307 93.013145 
L 169.099094 90.529311 
L 173.27594 88.045476 
L 173.278108 85.561642 
L 176.025952 83.077808 
L 179.943313 80.593973 
L 180.39516 78.110139 
L 183.201001 75.626305 
L 183.444279 73.142471 
L 184.546111 70.658636 
L 186.072309 68.174802 
L 187.314122 63.207134 
L 187.512169 60.723299 
L 194.715343 55.755631 
L 201.851126 53.271796 
L 208.049064 50.787962 
L 211.053787 48.304128 
L 249.545964 45.820294 
L 250.106767 40.852625 
L 250.106767 40.852625 
" style="fill:none;stroke:#ff0000;stroke-linecap:square;stroke-width:2.0;"/>
   </g>
   <g id="patch_3">
    <path d="M 545.1075 368.71875 
L 545.1075 40.852625 
" style="fill:none;stroke:#000000;stroke-linecap:square;stroke-linejoin:miter;stroke-width:2.0;"/>
   </g>
   <g id="patch_4">
    <path d="M 74.48625 368.71875 
L 545.1075 368.71875 
" style="fill:none;stroke:#000000;stroke-linecap:square;stroke-linejoin:miter;stroke-width:2.0;"/>
   </g>
   <g id="patch_5">
    <path d="M 74.48625 40.852625 
L 545.1075 40.852625 
" style="fill:none;stroke:#000000;stroke-linecap:square;stroke-linejoin:miter;stroke-width:2.0;"/>
   </g>
   <g id="patch_6">
    <path d="M 74.48625 368.71875 
L 74.48625 40.852625 
" style="fill:none;stroke:#000000;stroke-linecap:square;stroke-linejoin:miter;stroke-width:2.0;"/>
   </g>
   <g id="matplotlib.axis_1">
    <g id="xtick_1">
     <g id="line2d_4">
      <path clip-path="url(#p0c0bb33100)" d="M 74.48625 368.71875 
L 74.48625 40.852625 
" style="fill:none;stroke:#000000;stroke-dasharray:1.000000,3.000000;stroke-dashoffset:0.0;stroke-width:2.0;"/>
     </g>
     <g id="line2d_5">
      <defs>
       <path d="M 0 0 
L 0 -4 
" id="m0c68bf4d79" style="stroke:#000000;stroke-width:0.5;"/>
      </defs>
      <g>
       <use style="stroke:#000000;stroke-width:0.5;" x="74.48625" xlink:href="#m0c68bf4d79" y="368.71875"/>
      </g>
     </g>
     <g id="line2d_6">
      <defs>
       <path d="M 0 0 
L 0 4 
" id="mf424ad497a" style="stroke:#000000;stroke-width:0.5;"/>
      </defs>
      <g>
       <use style="stroke:#000000;stroke-width:0.5;" x="74.48625" xlink:href="#mf424ad497a" y="40.852625"/>
      </g>
     </g>
     <g id="text_1">
      <!-- 0 -->
      <defs>
       <path d="M 31.78125 66.40625 
Q 24.171875 66.40625 20.328125 58.90625 
Q 16.5 51.421875 16.5 36.375 
Q 16.5 21.390625 20.328125 13.890625 
Q 24.171875 6.390625 31.78125 6.390625 
Q 39.453125 6.390625 43.28125 13.890625 
Q 47.125 21.390625 47.125 36.375 
Q 47.125 51.421875 43.28125 58.90625 
Q 39.453125 66.40625 31.78125 66.40625 
M 31.78125 74.21875 
Q 44.046875 74.21875 50.515625 64.515625 
Q 56.984375 54.828125 56.984375 36.375 
Q 56.984375 17.96875 50.515625 8.265625 
Q 44.046875 -1.421875 31.78125 -1.421875 
Q 19.53125 -1.421875 13.0625 8.265625 
Q 6.59375 17.96875 6.59375 36.375 
Q 6.59375 54.828125 13.0625 64.515625 
Q 19.53125 74.21875 31.78125 74.21875 
" id="BitstreamVeraSans-Roman-30"/>
      </defs>
      <g transform="translate(68.76 386.3959375)scale(0.18 -0.18)">
       <use xlink:href="#BitstreamVeraSans-Roman-30"/>
      </g>
     </g>
    </g>
    <g id="xtick_2">
     <g id="line2d_7">
      <path clip-path="url(#p0c0bb33100)" d="M 168.6105 368.71875 
L 168.6105 40.852625 
" style="fill:none;stroke:#000000;stroke-dasharray:1.000000,3.000000;stroke-dashoffset:0.0;stroke-width:2.0;"/>
     </g>
     <g id="line2d_8">
      <g>
       <use style="stroke:#000000;stroke-width:0.5;" x="168.6105" xlink:href="#m0c68bf4d79" y="368.71875"/>
      </g>
     </g>
     <g id="line2d_9">
      <g>
       <use style="stroke:#000000;stroke-width:0.5;" x="168.6105" xlink:href="#mf424ad497a" y="40.852625"/>
      </g>
     </g>
     <g id="text_2">
      <!-- 5 -->
      <defs>
       <path d="M 10.796875 72.90625 
L 49.515625 72.90625 
L 49.515625 64.59375 
L 19.828125 64.59375 
L 19.828125 46.734375 
Q 21.96875 47.46875 24.109375 47.828125 
Q 26.265625 48.1875 28.421875 48.1875 
Q 40.625 48.1875 47.75 41.5 
Q 54.890625 34.8125 54.890625 23.390625 
Q 54.890625 11.625 47.5625 5.09375 
Q 40.234375 -1.421875 26.90625 -1.421875 
Q 22.3125 -1.421875 17.546875 -0.640625 
Q 12.796875 0.140625 7.71875 1.703125 
L 7.71875 11.625 
Q 12.109375 9.234375 16.796875 8.0625 
Q 21.484375 6.890625 26.703125 6.890625 
Q 35.15625 6.890625 40.078125 11.328125 
Q 45.015625 15.765625 45.015625 23.390625 
Q 45.015625 31 40.078125 35.4375 
Q 35.15625 39.890625 26.703125 39.890625 
Q 22.75 39.890625 18.8125 39.015625 
Q 14.890625 38.140625 10.796875 36.28125 
z
" id="BitstreamVeraSans-Roman-35"/>
      </defs>
      <g transform="translate(162.88425 386.3959375)scale(0.18 -0.18)">
       <use xlink:href="#BitstreamVeraSans-Roman-35"/>
      </g>
     </g>
    </g>
    <g id="xtick_3">
     <g id="line2d_10">
      <path clip-path="url(#p0c0bb33100)" d="M 262.73475 368.71875 
L 262.73475 40.852625 
" style="fill:none;stroke:#000000;stroke-dasharray:1.000000,3.000000;stroke-dashoffset:0.0;stroke-width:2.0;"/>
     </g>
     <g id="line2d_11">
      <g>
       <use style="stroke:#000000;stroke-width:0.5;" x="262.73475" xlink:href="#m0c68bf4d79" y="368.71875"/>
      </g>
     </g>
     <g id="line2d_12">
      <g>
       <use style="stroke:#000000;stroke-width:0.5;" x="262.73475" xlink:href="#mf424ad497a" y="40.852625"/>
      </g>
     </g>
     <g id="text_3">
      <!-- 10 -->
      <defs>
       <path d="M 12.40625 8.296875 
L 28.515625 8.296875 
L 28.515625 63.921875 
L 10.984375 60.40625 
L 10.984375 69.390625 
L 28.421875 72.90625 
L 38.28125 72.90625 
L 38.28125 8.296875 
L 54.390625 8.296875 
L 54.390625 0 
L 12.40625 0 
z
" id="BitstreamVeraSans-Roman-31"/>
      </defs>
      <g transform="translate(251.28225 386.3959375)scale(0.18 -0.18)">
       <use xlink:href="#BitstreamVeraSans-Roman-31"/>
       <use x="63.623046875" xlink:href="#BitstreamVeraSans-Roman-30"/>
      </g>
     </g>
    </g>
    <g id="xtick_4">
     <g id="line2d_13">
      <path clip-path="url(#p0c0bb33100)" d="M 356.859 368.71875 
L 356.859 40.852625 
" style="fill:none;stroke:#000000;stroke-dasharray:1.000000,3.000000;stroke-dashoffset:0.0;stroke-width:2.0;"/>
     </g>
     <g id="line2d_14">
      <g>
       <use style="stroke:#000000;stroke-width:0.5;" x="356.859" xlink:href="#m0c68bf4d79" y="368.71875"/>
      </g>
     </g>
     <g id="line2d_15">
      <g>
       <use style="stroke:#000000;stroke-width:0.5;" x="356.859" xlink:href="#mf424ad497a" y="40.852625"/>
      </g>
     </g>
     <g id="text_4">
      <!-- 15 -->
      <g transform="translate(345.4065 386.3959375)scale(0.18 -0.18)">
       <use xlink:href="#BitstreamVeraSans-Roman-31"/>
       <use x="63.623046875" xlink:href="#BitstreamVeraSans-Roman-35"/>
      </g>
     </g>
    </g>
    <g id="xtick_5">
     <g id="line2d_16">
      <path clip-path="url(#p0c0bb33100)" d="M 450.98325 368.71875 
L 450.98325 40.852625 
" style="fill:none;stroke:#000000;stroke-dasharray:1.000000,3.000000;stroke-dashoffset:0.0;stroke-width:2.0;"/>
     </g>
     <g id="line2d_17">
      <g>
       <use style="stroke:#000000;stroke-width:0.5;" x="450.98325" xlink:href="#m0c68bf4d79" y="368.71875"/>
      </g>
     </g>
     <g id="line2d_18">
      <g>
       <use style="stroke:#000000;stroke-width:0.5;" x="450.98325" xlink:href="#mf424ad497a" y="40.852625"/>
      </g>
     </g>
     <g id="text_5">
      <!-- 20 -->
      <defs>
       <path d="M 19.1875 8.296875 
L 53.609375 8.296875 
L 53.609375 0 
L 7.328125 0 
L 7.328125 8.296875 
Q 12.9375 14.109375 22.625 23.890625 
Q 32.328125 33.6875 34.8125 36.53125 
Q 39.546875 41.84375 41.421875 45.53125 
Q 43.3125 49.21875 43.3125 52.78125 
Q 43.3125 58.59375 39.234375 62.25 
Q 35.15625 65.921875 28.609375 65.921875 
Q 23.96875 65.921875 18.8125 64.3125 
Q 13.671875 62.703125 7.8125 59.421875 
L 7.8125 69.390625 
Q 13.765625 71.78125 18.9375 73 
Q 24.125 74.21875 28.421875 74.21875 
Q 39.75 74.21875 46.484375 68.546875 
Q 53.21875 62.890625 53.21875 53.421875 
Q 53.21875 48.921875 51.53125 44.890625 
Q 49.859375 40.875 45.40625 35.40625 
Q 44.1875 33.984375 37.640625 27.21875 
Q 31.109375 20.453125 19.1875 8.296875 
" id="BitstreamVeraSans-Roman-32"/>
      </defs>
      <g transform="translate(439.53075 386.3959375)scale(0.18 -0.18)">
       <use xlink:href="#BitstreamVeraSans-Roman-32"/>
       <use x="63.623046875" xlink:href="#BitstreamVeraSans-Roman-30"/>
      </g>
     </g>
    </g>
    <g id="xtick_6">
     <g id="line2d_19">
      <path clip-path="url(#p0c0bb33100)" d="M 545.1075 368.71875 
L 545.1075 40.852625 
" style="fill:none;stroke:#000000;stroke-dasharray:1.000000,3.000000;stroke-dashoffset:0.0;stroke-width:2.0;"/>
     </g>
     <g id="line2d_20">
      <g>
       <use style="stroke:#000000;stroke-width:0.5;" x="545.1075" xlink:href="#m0c68bf4d79" y="368.71875"/>
      </g>
     </g>
     <g id="line2d_21">
      <g>
       <use style="stroke:#000000;stroke-width:0.5;" x="545.1075" xlink:href="#mf424ad497a" y="40.852625"/>
      </g>
     </g>
     <g id="text_6">
      <!-- 25 -->
      <g transform="translate(533.655 386.3959375)scale(0.18 -0.18)">
       <use xlink:href="#BitstreamVeraSans-Roman-32"/>
       <use x="63.623046875" xlink:href="#BitstreamVeraSans-Roman-35"/>
      </g>
     </g>
    </g>
    <g id="text_7">
     <!-- Median translation speed (um/min) -->
     <defs>
      <path d="M 9.421875 75.984375 
L 18.40625 75.984375 
L 18.40625 0 
L 9.421875 0 
z
" id="BitstreamVeraSans-Roman-6c"/>
      <path d="M 8.5 21.578125 
L 8.5 54.6875 
L 17.484375 54.6875 
L 17.484375 21.921875 
Q 17.484375 14.15625 20.5 10.265625 
Q 23.53125 6.390625 29.59375 6.390625 
Q 36.859375 6.390625 41.078125 11.03125 
Q 45.3125 15.671875 45.3125 23.6875 
L 45.3125 54.6875 
L 54.296875 54.6875 
L 54.296875 0 
L 45.3125 0 
L 45.3125 8.40625 
Q 42.046875 3.421875 37.71875 1 
Q 33.40625 -1.421875 27.6875 -1.421875 
Q 18.265625 -1.421875 13.375 4.4375 
Q 8.5 10.296875 8.5 21.578125 
" id="BitstreamVeraSans-Roman-75"/>
      <path d="M 9.8125 72.90625 
L 24.515625 72.90625 
L 43.109375 23.296875 
L 61.8125 72.90625 
L 76.515625 72.90625 
L 76.515625 0 
L 66.890625 0 
L 66.890625 64.015625 
L 48.09375 14.015625 
L 38.1875 14.015625 
L 19.390625 64.015625 
L 19.390625 0 
L 9.8125 0 
z
" id="BitstreamVeraSans-Roman-4d"/>
      <path d="M 25.390625 72.90625 
L 33.6875 72.90625 
L 8.296875 -9.28125 
L 0 -9.28125 
z
" id="BitstreamVeraSans-Roman-2f"/>
      <path d="M 18.3125 70.21875 
L 18.3125 54.6875 
L 36.8125 54.6875 
L 36.8125 47.703125 
L 18.3125 47.703125 
L 18.3125 18.015625 
Q 18.3125 11.328125 20.140625 9.421875 
Q 21.96875 7.515625 27.59375 7.515625 
L 36.8125 7.515625 
L 36.8125 0 
L 27.59375 0 
Q 17.1875 0 13.234375 3.875 
Q 9.28125 7.765625 9.28125 18.015625 
L 9.28125 47.703125 
L 2.6875 47.703125 
L 2.6875 54.6875 
L 9.28125 54.6875 
L 9.28125 70.21875 
z
" id="BitstreamVeraSans-Roman-74"/>
      <path d="M 34.28125 27.484375 
Q 23.390625 27.484375 19.1875 25 
Q 14.984375 22.515625 14.984375 16.5 
Q 14.984375 11.71875 18.140625 8.90625 
Q 21.296875 6.109375 26.703125 6.109375 
Q 34.1875 6.109375 38.703125 11.40625 
Q 43.21875 16.703125 43.21875 25.484375 
L 43.21875 27.484375 
z
M 52.203125 31.203125 
L 52.203125 0 
L 43.21875 0 
L 43.21875 8.296875 
Q 40.140625 3.328125 35.546875 0.953125 
Q 30.953125 -1.421875 24.3125 -1.421875 
Q 15.921875 -1.421875 10.953125 3.296875 
Q 6 8.015625 6 15.921875 
Q 6 25.140625 12.171875 29.828125 
Q 18.359375 34.515625 30.609375 34.515625 
L 43.21875 34.515625 
L 43.21875 35.40625 
Q 43.21875 41.609375 39.140625 45 
Q 35.0625 48.390625 27.6875 48.390625 
Q 23 48.390625 18.546875 47.265625 
Q 14.109375 46.140625 10.015625 43.890625 
L 10.015625 52.203125 
Q 14.9375 54.109375 19.578125 55.046875 
Q 24.21875 56 28.609375 56 
Q 40.484375 56 46.34375 49.84375 
Q 52.203125 43.703125 52.203125 31.203125 
" id="BitstreamVeraSans-Roman-61"/>
      <path d="M 8.015625 75.875 
L 15.828125 75.875 
Q 23.140625 64.359375 26.78125 53.3125 
Q 30.421875 42.28125 30.421875 31.390625 
Q 30.421875 20.453125 26.78125 9.375 
Q 23.140625 -1.703125 15.828125 -13.1875 
L 8.015625 -13.1875 
Q 14.5 -2 17.703125 9.0625 
Q 20.90625 20.125 20.90625 31.390625 
Q 20.90625 42.671875 17.703125 53.65625 
Q 14.5 64.65625 8.015625 75.875 
" id="BitstreamVeraSans-Roman-29"/>
      <path d="M 45.40625 46.390625 
L 45.40625 75.984375 
L 54.390625 75.984375 
L 54.390625 0 
L 45.40625 0 
L 45.40625 8.203125 
Q 42.578125 3.328125 38.25 0.953125 
Q 33.9375 -1.421875 27.875 -1.421875 
Q 17.96875 -1.421875 11.734375 6.484375 
Q 5.515625 14.40625 5.515625 27.296875 
Q 5.515625 40.1875 11.734375 48.09375 
Q 17.96875 56 27.875 56 
Q 33.9375 56 38.25 53.625 
Q 42.578125 51.265625 45.40625 46.390625 
M 14.796875 27.296875 
Q 14.796875 17.390625 18.875 11.75 
Q 22.953125 6.109375 30.078125 6.109375 
Q 37.203125 6.109375 41.296875 11.75 
Q 45.40625 17.390625 45.40625 27.296875 
Q 45.40625 37.203125 41.296875 42.84375 
Q 37.203125 48.484375 30.078125 48.484375 
Q 22.953125 48.484375 18.875 42.84375 
Q 14.796875 37.203125 14.796875 27.296875 
" id="BitstreamVeraSans-Roman-64"/>
      <path d="M 31 75.875 
Q 24.46875 64.65625 21.28125 53.65625 
Q 18.109375 42.671875 18.109375 31.390625 
Q 18.109375 20.125 21.3125 9.0625 
Q 24.515625 -2 31 -13.1875 
L 23.1875 -13.1875 
Q 15.875 -1.703125 12.234375 9.375 
Q 8.59375 20.453125 8.59375 31.390625 
Q 8.59375 42.28125 12.203125 53.3125 
Q 15.828125 64.359375 23.1875 75.875 
z
" id="BitstreamVeraSans-Roman-28"/>
      <path id="BitstreamVeraSans-Roman-20"/>
      <path d="M 54.890625 33.015625 
L 54.890625 0 
L 45.90625 0 
L 45.90625 32.71875 
Q 45.90625 40.484375 42.875 44.328125 
Q 39.84375 48.1875 33.796875 48.1875 
Q 26.515625 48.1875 22.3125 43.546875 
Q 18.109375 38.921875 18.109375 30.90625 
L 18.109375 0 
L 9.078125 0 
L 9.078125 54.6875 
L 18.109375 54.6875 
L 18.109375 46.1875 
Q 21.34375 51.125 25.703125 53.5625 
Q 30.078125 56 35.796875 56 
Q 45.21875 56 50.046875 50.171875 
Q 54.890625 44.34375 54.890625 33.015625 
" id="BitstreamVeraSans-Roman-6e"/>
      <path d="M 52 44.1875 
Q 55.375 50.25 60.0625 53.125 
Q 64.75 56 71.09375 56 
Q 79.640625 56 84.28125 50.015625 
Q 88.921875 44.046875 88.921875 33.015625 
L 88.921875 0 
L 79.890625 0 
L 79.890625 32.71875 
Q 79.890625 40.578125 77.09375 44.375 
Q 74.3125 48.1875 68.609375 48.1875 
Q 61.625 48.1875 57.5625 43.546875 
Q 53.515625 38.921875 53.515625 30.90625 
L 53.515625 0 
L 44.484375 0 
L 44.484375 32.71875 
Q 44.484375 40.625 41.703125 44.40625 
Q 38.921875 48.1875 33.109375 48.1875 
Q 26.21875 48.1875 22.15625 43.53125 
Q 18.109375 38.875 18.109375 30.90625 
L 18.109375 0 
L 9.078125 0 
L 9.078125 54.6875 
L 18.109375 54.6875 
L 18.109375 46.1875 
Q 21.1875 51.21875 25.484375 53.609375 
Q 29.78125 56 35.6875 56 
Q 41.65625 56 45.828125 52.96875 
Q 50 49.953125 52 44.1875 
" id="BitstreamVeraSans-Roman-6d"/>
      <path d="M 41.109375 46.296875 
Q 39.59375 47.171875 37.8125 47.578125 
Q 36.03125 48 33.890625 48 
Q 26.265625 48 22.1875 43.046875 
Q 18.109375 38.09375 18.109375 28.8125 
L 18.109375 0 
L 9.078125 0 
L 9.078125 54.6875 
L 18.109375 54.6875 
L 18.109375 46.1875 
Q 20.953125 51.171875 25.484375 53.578125 
Q 30.03125 56 36.53125 56 
Q 37.453125 56 38.578125 55.875 
Q 39.703125 55.765625 41.0625 55.515625 
z
" id="BitstreamVeraSans-Roman-72"/>
      <path d="M 9.421875 54.6875 
L 18.40625 54.6875 
L 18.40625 0 
L 9.421875 0 
z
M 9.421875 75.984375 
L 18.40625 75.984375 
L 18.40625 64.59375 
L 9.421875 64.59375 
z
" id="BitstreamVeraSans-Roman-69"/>
      <path d="M 56.203125 29.59375 
L 56.203125 25.203125 
L 14.890625 25.203125 
Q 15.484375 15.921875 20.484375 11.0625 
Q 25.484375 6.203125 34.421875 6.203125 
Q 39.59375 6.203125 44.453125 7.46875 
Q 49.3125 8.734375 54.109375 11.28125 
L 54.109375 2.78125 
Q 49.265625 0.734375 44.1875 -0.34375 
Q 39.109375 -1.421875 33.890625 -1.421875 
Q 20.796875 -1.421875 13.15625 6.1875 
Q 5.515625 13.8125 5.515625 26.8125 
Q 5.515625 40.234375 12.765625 48.109375 
Q 20.015625 56 32.328125 56 
Q 43.359375 56 49.78125 48.890625 
Q 56.203125 41.796875 56.203125 29.59375 
M 47.21875 32.234375 
Q 47.125 39.59375 43.09375 43.984375 
Q 39.0625 48.390625 32.421875 48.390625 
Q 24.90625 48.390625 20.390625 44.140625 
Q 15.875 39.890625 15.1875 32.171875 
z
" id="BitstreamVeraSans-Roman-65"/>
      <path d="M 18.109375 8.203125 
L 18.109375 -20.796875 
L 9.078125 -20.796875 
L 9.078125 54.6875 
L 18.109375 54.6875 
L 18.109375 46.390625 
Q 20.953125 51.265625 25.265625 53.625 
Q 29.59375 56 35.59375 56 
Q 45.5625 56 51.78125 48.09375 
Q 58.015625 40.1875 58.015625 27.296875 
Q 58.015625 14.40625 51.78125 6.484375 
Q 45.5625 -1.421875 35.59375 -1.421875 
Q 29.59375 -1.421875 25.265625 0.953125 
Q 20.953125 3.328125 18.109375 8.203125 
M 48.6875 27.296875 
Q 48.6875 37.203125 44.609375 42.84375 
Q 40.53125 48.484375 33.40625 48.484375 
Q 26.265625 48.484375 22.1875 42.84375 
Q 18.109375 37.203125 18.109375 27.296875 
Q 18.109375 17.390625 22.1875 11.75 
Q 26.265625 6.109375 33.40625 6.109375 
Q 40.53125 6.109375 44.609375 11.75 
Q 48.6875 17.390625 48.6875 27.296875 
" id="BitstreamVeraSans-Roman-70"/>
      <path d="M 30.609375 48.390625 
Q 23.390625 48.390625 19.1875 42.75 
Q 14.984375 37.109375 14.984375 27.296875 
Q 14.984375 17.484375 19.15625 11.84375 
Q 23.34375 6.203125 30.609375 6.203125 
Q 37.796875 6.203125 41.984375 11.859375 
Q 46.1875 17.53125 46.1875 27.296875 
Q 46.1875 37.015625 41.984375 42.703125 
Q 37.796875 48.390625 30.609375 48.390625 
M 30.609375 56 
Q 42.328125 56 49.015625 48.375 
Q 55.71875 40.765625 55.71875 27.296875 
Q 55.71875 13.875 49.015625 6.21875 
Q 42.328125 -1.421875 30.609375 -1.421875 
Q 18.84375 -1.421875 12.171875 6.21875 
Q 5.515625 13.875 5.515625 27.296875 
Q 5.515625 40.765625 12.171875 48.375 
Q 18.84375 56 30.609375 56 
" id="BitstreamVeraSans-Roman-6f"/>
      <path d="M 44.28125 53.078125 
L 44.28125 44.578125 
Q 40.484375 46.53125 36.375 47.5 
Q 32.28125 48.484375 27.875 48.484375 
Q 21.1875 48.484375 17.84375 46.4375 
Q 14.5 44.390625 14.5 40.28125 
Q 14.5 37.15625 16.890625 35.375 
Q 19.28125 33.59375 26.515625 31.984375 
L 29.59375 31.296875 
Q 39.15625 29.25 43.1875 25.515625 
Q 47.21875 21.78125 47.21875 15.09375 
Q 47.21875 7.46875 41.1875 3.015625 
Q 35.15625 -1.421875 24.609375 -1.421875 
Q 20.21875 -1.421875 15.453125 -0.5625 
Q 10.6875 0.296875 5.421875 2 
L 5.421875 11.28125 
Q 10.40625 8.6875 15.234375 7.390625 
Q 20.0625 6.109375 24.8125 6.109375 
Q 31.15625 6.109375 34.5625 8.28125 
Q 37.984375 10.453125 37.984375 14.40625 
Q 37.984375 18.0625 35.515625 20.015625 
Q 33.0625 21.96875 24.703125 23.78125 
L 21.578125 24.515625 
Q 13.234375 26.265625 9.515625 29.90625 
Q 5.8125 33.546875 5.8125 39.890625 
Q 5.8125 47.609375 11.28125 51.796875 
Q 16.75 56 26.8125 56 
Q 31.78125 56 36.171875 55.265625 
Q 40.578125 54.546875 44.28125 53.078125 
" id="BitstreamVeraSans-Roman-73"/>
     </defs>
     <g transform="translate(151.4025 408.8165625)scale(0.18 -0.18)">
      <use xlink:href="#BitstreamVeraSans-Roman-4d"/>
      <use x="86.279296875" xlink:href="#BitstreamVeraSans-Roman-65"/>
      <use x="147.802734375" xlink:href="#BitstreamVeraSans-Roman-64"/>
      <use x="211.279296875" xlink:href="#BitstreamVeraSans-Roman-69"/>
      <use x="239.0625" xlink:href="#BitstreamVeraSans-Roman-61"/>
      <use x="300.341796875" xlink:href="#BitstreamVeraSans-Roman-6e"/>
      <use x="363.720703125" xlink:href="#BitstreamVeraSans-Roman-20"/>
      <use x="395.5078125" xlink:href="#BitstreamVeraSans-Roman-74"/>
      <use x="434.716796875" xlink:href="#BitstreamVeraSans-Roman-72"/>
      <use x="475.830078125" xlink:href="#BitstreamVeraSans-Roman-61"/>
      <use x="537.109375" xlink:href="#BitstreamVeraSans-Roman-6e"/>
      <use x="600.48828125" xlink:href="#BitstreamVeraSans-Roman-73"/>
      <use x="652.587890625" xlink:href="#BitstreamVeraSans-Roman-6c"/>
      <use x="680.37109375" xlink:href="#BitstreamVeraSans-Roman-61"/>
      <use x="741.650390625" xlink:href="#BitstreamVeraSans-Roman-74"/>
      <use x="780.859375" xlink:href="#BitstreamVeraSans-Roman-69"/>
      <use x="808.642578125" xlink:href="#BitstreamVeraSans-Roman-6f"/>
      <use x="869.82421875" xlink:href="#BitstreamVeraSans-Roman-6e"/>
      <use x="933.203125" xlink:href="#BitstreamVeraSans-Roman-20"/>
      <use x="964.990234375" xlink:href="#BitstreamVeraSans-Roman-73"/>
      <use x="1017.08984375" xlink:href="#BitstreamVeraSans-Roman-70"/>
      <use x="1080.56640625" xlink:href="#BitstreamVeraSans-Roman-65"/>
      <use x="1142.08984375" xlink:href="#BitstreamVeraSans-Roman-65"/>
      <use x="1203.61328125" xlink:href="#BitstreamVeraSans-Roman-64"/>
      <use x="1267.08984375" xlink:href="#BitstreamVeraSans-Roman-20"/>
      <use x="1298.876953125" xlink:href="#BitstreamVeraSans-Roman-28"/>
      <use x="1337.890625" xlink:href="#BitstreamVeraSans-Roman-75"/>
      <use x="1401.26953125" xlink:href="#BitstreamVeraSans-Roman-6d"/>
      <use x="1498.681640625" xlink:href="#BitstreamVeraSans-Roman-2f"/>
      <use x="1532.373046875" xlink:href="#BitstreamVeraSans-Roman-6d"/>
      <use x="1629.78515625" xlink:href="#BitstreamVeraSans-Roman-69"/>
      <use x="1657.568359375" xlink:href="#BitstreamVeraSans-Roman-6e"/>
      <use x="1720.947265625" xlink:href="#BitstreamVeraSans-Roman-29"/>
     </g>
    </g>
   </g>
   <g id="matplotlib.axis_2">
    <g id="ytick_1">
     <g id="line2d_22">
      <path clip-path="url(#p0c0bb33100)" d="M 74.48625 368.71875 
L 545.1075 368.71875 
" style="fill:none;stroke:#000000;stroke-dasharray:1.000000,3.000000;stroke-dashoffset:0.0;stroke-width:2.0;"/>
     </g>
     <g id="line2d_23">
      <defs>
       <path d="M 0 0 
L 4 0 
" id="m7553e316b7" style="stroke:#000000;stroke-width:0.5;"/>
      </defs>
      <g>
       <use style="stroke:#000000;stroke-width:0.5;" x="74.48625" xlink:href="#m7553e316b7" y="368.71875"/>
      </g>
     </g>
     <g id="line2d_24">
      <defs>
       <path d="M 0 0 
L -4 0 
" id="m3901f3bb0d" style="stroke:#000000;stroke-width:0.5;"/>
      </defs>
      <g>
       <use style="stroke:#000000;stroke-width:0.5;" x="545.1075" xlink:href="#m3901f3bb0d" y="368.71875"/>
      </g>
     </g>
     <g id="text_8">
      <!-- 0.0 -->
      <defs>
       <path d="M 10.6875 12.40625 
L 21 12.40625 
L 21 0 
L 10.6875 0 
z
" id="BitstreamVeraSans-Roman-2e"/>
      </defs>
      <g transform="translate(41.860625 373.685625)scale(0.18 -0.18)">
       <use xlink:href="#BitstreamVeraSans-Roman-30"/>
       <use x="63.623046875" xlink:href="#BitstreamVeraSans-Roman-2e"/>
       <use x="95.41015625" xlink:href="#BitstreamVeraSans-Roman-30"/>
      </g>
     </g>
    </g>
    <g id="ytick_2">
     <g id="line2d_25">
      <path clip-path="url(#p0c0bb33100)" d="M 74.48625 303.145525 
L 545.1075 303.145525 
" style="fill:none;stroke:#000000;stroke-dasharray:1.000000,3.000000;stroke-dashoffset:0.0;stroke-width:2.0;"/>
     </g>
     <g id="line2d_26">
      <g>
       <use style="stroke:#000000;stroke-width:0.5;" x="74.48625" xlink:href="#m7553e316b7" y="303.145525"/>
      </g>
     </g>
     <g id="line2d_27">
      <g>
       <use style="stroke:#000000;stroke-width:0.5;" x="545.1075" xlink:href="#m3901f3bb0d" y="303.145525"/>
      </g>
     </g>
     <g id="text_9">
      <!-- 0.2 -->
      <g transform="translate(41.860625 308.1124)scale(0.18 -0.18)">
       <use xlink:href="#BitstreamVeraSans-Roman-30"/>
       <use x="63.623046875" xlink:href="#BitstreamVeraSans-Roman-2e"/>
       <use x="95.41015625" xlink:href="#BitstreamVeraSans-Roman-32"/>
      </g>
     </g>
    </g>
    <g id="ytick_3">
     <g id="line2d_28">
      <path clip-path="url(#p0c0bb33100)" d="M 74.48625 237.5723 
L 545.1075 237.5723 
" style="fill:none;stroke:#000000;stroke-dasharray:1.000000,3.000000;stroke-dashoffset:0.0;stroke-width:2.0;"/>
     </g>
     <g id="line2d_29">
      <g>
       <use style="stroke:#000000;stroke-width:0.5;" x="74.48625" xlink:href="#m7553e316b7" y="237.5723"/>
      </g>
     </g>
     <g id="line2d_30">
      <g>
       <use style="stroke:#000000;stroke-width:0.5;" x="545.1075" xlink:href="#m3901f3bb0d" y="237.5723"/>
      </g>
     </g>
     <g id="text_10">
      <!-- 0.4 -->
      <defs>
       <path d="M 37.796875 64.3125 
L 12.890625 25.390625 
L 37.796875 25.390625 
z
M 35.203125 72.90625 
L 47.609375 72.90625 
L 47.609375 25.390625 
L 58.015625 25.390625 
L 58.015625 17.1875 
L 47.609375 17.1875 
L 47.609375 0 
L 37.796875 0 
L 37.796875 17.1875 
L 4.890625 17.1875 
L 4.890625 26.703125 
z
" id="BitstreamVeraSans-Roman-34"/>
      </defs>
      <g transform="translate(41.860625 242.539175)scale(0.18 -0.18)">
       <use xlink:href="#BitstreamVeraSans-Roman-30"/>
       <use x="63.623046875" xlink:href="#BitstreamVeraSans-Roman-2e"/>
       <use x="95.41015625" xlink:href="#BitstreamVeraSans-Roman-34"/>
      </g>
     </g>
    </g>
    <g id="ytick_4">
     <g id="line2d_31">
      <path clip-path="url(#p0c0bb33100)" d="M 74.48625 171.999075 
L 545.1075 171.999075 
" style="fill:none;stroke:#000000;stroke-dasharray:1.000000,3.000000;stroke-dashoffset:0.0;stroke-width:2.0;"/>
     </g>
     <g id="line2d_32">
      <g>
       <use style="stroke:#000000;stroke-width:0.5;" x="74.48625" xlink:href="#m7553e316b7" y="171.999075"/>
      </g>
     </g>
     <g id="line2d_33">
      <g>
       <use style="stroke:#000000;stroke-width:0.5;" x="545.1075" xlink:href="#m3901f3bb0d" y="171.999075"/>
      </g>
     </g>
     <g id="text_11">
      <!-- 0.6 -->
      <defs>
       <path d="M 33.015625 40.375 
Q 26.375 40.375 22.484375 35.828125 
Q 18.609375 31.296875 18.609375 23.390625 
Q 18.609375 15.53125 22.484375 10.953125 
Q 26.375 6.390625 33.015625 6.390625 
Q 39.65625 6.390625 43.53125 10.953125 
Q 47.40625 15.53125 47.40625 23.390625 
Q 47.40625 31.296875 43.53125 35.828125 
Q 39.65625 40.375 33.015625 40.375 
M 52.59375 71.296875 
L 52.59375 62.3125 
Q 48.875 64.0625 45.09375 64.984375 
Q 41.3125 65.921875 37.59375 65.921875 
Q 27.828125 65.921875 22.671875 59.328125 
Q 17.53125 52.734375 16.796875 39.40625 
Q 19.671875 43.65625 24.015625 45.921875 
Q 28.375 48.1875 33.59375 48.1875 
Q 44.578125 48.1875 50.953125 41.515625 
Q 57.328125 34.859375 57.328125 23.390625 
Q 57.328125 12.15625 50.6875 5.359375 
Q 44.046875 -1.421875 33.015625 -1.421875 
Q 20.359375 -1.421875 13.671875 8.265625 
Q 6.984375 17.96875 6.984375 36.375 
Q 6.984375 53.65625 15.1875 63.9375 
Q 23.390625 74.21875 37.203125 74.21875 
Q 40.921875 74.21875 44.703125 73.484375 
Q 48.484375 72.75 52.59375 71.296875 
" id="BitstreamVeraSans-Roman-36"/>
      </defs>
      <g transform="translate(41.860625 176.96595)scale(0.18 -0.18)">
       <use xlink:href="#BitstreamVeraSans-Roman-30"/>
       <use x="63.623046875" xlink:href="#BitstreamVeraSans-Roman-2e"/>
       <use x="95.41015625" xlink:href="#BitstreamVeraSans-Roman-36"/>
      </g>
     </g>
    </g>
    <g id="ytick_5">
     <g id="line2d_34">
      <path clip-path="url(#p0c0bb33100)" d="M 74.48625 106.42585 
L 545.1075 106.42585 
" style="fill:none;stroke:#000000;stroke-dasharray:1.000000,3.000000;stroke-dashoffset:0.0;stroke-width:2.0;"/>
     </g>
     <g id="line2d_35">
      <g>
       <use style="stroke:#000000;stroke-width:0.5;" x="74.48625" xlink:href="#m7553e316b7" y="106.42585"/>
      </g>
     </g>
     <g id="line2d_36">
      <g>
       <use style="stroke:#000000;stroke-width:0.5;" x="545.1075" xlink:href="#m3901f3bb0d" y="106.42585"/>
      </g>
     </g>
     <g id="text_12">
      <!-- 0.8 -->
      <defs>
       <path d="M 31.78125 34.625 
Q 24.75 34.625 20.71875 30.859375 
Q 16.703125 27.09375 16.703125 20.515625 
Q 16.703125 13.921875 20.71875 10.15625 
Q 24.75 6.390625 31.78125 6.390625 
Q 38.8125 6.390625 42.859375 10.171875 
Q 46.921875 13.96875 46.921875 20.515625 
Q 46.921875 27.09375 42.890625 30.859375 
Q 38.875 34.625 31.78125 34.625 
M 21.921875 38.8125 
Q 15.578125 40.375 12.03125 44.71875 
Q 8.5 49.078125 8.5 55.328125 
Q 8.5 64.0625 14.71875 69.140625 
Q 20.953125 74.21875 31.78125 74.21875 
Q 42.671875 74.21875 48.875 69.140625 
Q 55.078125 64.0625 55.078125 55.328125 
Q 55.078125 49.078125 51.53125 44.71875 
Q 48 40.375 41.703125 38.8125 
Q 48.828125 37.15625 52.796875 32.3125 
Q 56.78125 27.484375 56.78125 20.515625 
Q 56.78125 9.90625 50.3125 4.234375 
Q 43.84375 -1.421875 31.78125 -1.421875 
Q 19.734375 -1.421875 13.25 4.234375 
Q 6.78125 9.90625 6.78125 20.515625 
Q 6.78125 27.484375 10.78125 32.3125 
Q 14.796875 37.15625 21.921875 38.8125 
M 18.3125 54.390625 
Q 18.3125 48.734375 21.84375 45.5625 
Q 25.390625 42.390625 31.78125 42.390625 
Q 38.140625 42.390625 41.71875 45.5625 
Q 45.3125 48.734375 45.3125 54.390625 
Q 45.3125 60.0625 41.71875 63.234375 
Q 38.140625 66.40625 31.78125 66.40625 
Q 25.390625 66.40625 21.84375 63.234375 
Q 18.3125 60.0625 18.3125 54.390625 
" id="BitstreamVeraSans-Roman-38"/>
      </defs>
      <g transform="translate(41.860625 111.392725)scale(0.18 -0.18)">
       <use xlink:href="#BitstreamVeraSans-Roman-30"/>
       <use x="63.623046875" xlink:href="#BitstreamVeraSans-Roman-2e"/>
       <use x="95.41015625" xlink:href="#BitstreamVeraSans-Roman-38"/>
      </g>
     </g>
    </g>
    <g id="ytick_6">
     <g id="line2d_37">
      <path clip-path="url(#p0c0bb33100)" d="M 74.48625 40.852625 
L 545.1075 40.852625 
" style="fill:none;stroke:#000000;stroke-dasharray:1.000000,3.000000;stroke-dashoffset:0.0;stroke-width:2.0;"/>
     </g>
     <g id="line2d_38">
      <g>
       <use style="stroke:#000000;stroke-width:0.5;" x="74.48625" xlink:href="#m7553e316b7" y="40.852625"/>
      </g>
     </g>
     <g id="line2d_39">
      <g>
       <use style="stroke:#000000;stroke-width:0.5;" x="545.1075" xlink:href="#m3901f3bb0d" y="40.852625"/>
      </g>
     </g>
     <g id="text_13">
      <!-- 1.0 -->
      <g transform="translate(41.860625 45.8195)scale(0.18 -0.18)">
       <use xlink:href="#BitstreamVeraSans-Roman-31"/>
       <use x="63.623046875" xlink:href="#BitstreamVeraSans-Roman-2e"/>
       <use x="95.41015625" xlink:href="#BitstreamVeraSans-Roman-30"/>
      </g>
     </g>
    </g>
    <g id="text_14">
     <!-- Proportion -->
     <defs>
      <path d="M 19.671875 64.796875 
L 19.671875 37.40625 
L 32.078125 37.40625 
Q 38.96875 37.40625 42.71875 40.96875 
Q 46.484375 44.53125 46.484375 51.125 
Q 46.484375 57.671875 42.71875 61.234375 
Q 38.96875 64.796875 32.078125 64.796875 
z
M 9.8125 72.90625 
L 32.078125 72.90625 
Q 44.34375 72.90625 50.609375 67.359375 
Q 56.890625 61.8125 56.890625 51.125 
Q 56.890625 40.328125 50.609375 34.8125 
Q 44.34375 29.296875 32.078125 29.296875 
L 19.671875 29.296875 
L 19.671875 0 
L 9.8125 0 
z
" id="BitstreamVeraSans-Roman-50"/>
     </defs>
     <g transform="translate(33.1171875 251.5744375)rotate(-90.0)scale(0.18 -0.18)">
      <use xlink:href="#BitstreamVeraSans-Roman-50"/>
      <use x="60.287109375" xlink:href="#BitstreamVeraSans-Roman-72"/>
      <use x="101.369140625" xlink:href="#BitstreamVeraSans-Roman-6f"/>
      <use x="162.55078125" xlink:href="#BitstreamVeraSans-Roman-70"/>
      <use x="226.02734375" xlink:href="#BitstreamVeraSans-Roman-6f"/>
      <use x="287.208984375" xlink:href="#BitstreamVeraSans-Roman-72"/>
      <use x="328.322265625" xlink:href="#BitstreamVeraSans-Roman-74"/>
      <use x="367.53125" xlink:href="#BitstreamVeraSans-Roman-69"/>
      <use x="395.314453125" xlink:href="#BitstreamVeraSans-Roman-6f"/>
      <use x="456.49609375" xlink:href="#BitstreamVeraSans-Roman-6e"/>
     </g>
    </g>
   </g>
   <g id="text_15">
    <!-- Median Track Translation Speeds -->
    <defs>
     <path d="M 9.078125 75.984375 
L 18.109375 75.984375 
L 18.109375 31.109375 
L 44.921875 54.6875 
L 56.390625 54.6875 
L 27.390625 29.109375 
L 57.625 0 
L 45.90625 0 
L 18.109375 26.703125 
L 18.109375 0 
L 9.078125 0 
z
" id="BitstreamVeraSans-Roman-6b"/>
     <path d="M 53.515625 70.515625 
L 53.515625 60.890625 
Q 47.90625 63.578125 42.921875 64.890625 
Q 37.9375 66.21875 33.296875 66.21875 
Q 25.25 66.21875 20.875 63.09375 
Q 16.5 59.96875 16.5 54.203125 
Q 16.5 49.359375 19.40625 46.890625 
Q 22.3125 44.4375 30.421875 42.921875 
L 36.375 41.703125 
Q 47.40625 39.59375 52.65625 34.296875 
Q 57.90625 29 57.90625 20.125 
Q 57.90625 9.515625 50.796875 4.046875 
Q 43.703125 -1.421875 29.984375 -1.421875 
Q 24.8125 -1.421875 18.96875 -0.25 
Q 13.140625 0.921875 6.890625 3.21875 
L 6.890625 13.375 
Q 12.890625 10.015625 18.65625 8.296875 
Q 24.421875 6.59375 29.984375 6.59375 
Q 38.421875 6.59375 43.015625 9.90625 
Q 47.609375 13.234375 47.609375 19.390625 
Q 47.609375 24.75 44.3125 27.78125 
Q 41.015625 30.8125 33.5 32.328125 
L 27.484375 33.5 
Q 16.453125 35.6875 11.515625 40.375 
Q 6.59375 45.0625 6.59375 53.421875 
Q 6.59375 63.09375 13.40625 68.65625 
Q 20.21875 74.21875 32.171875 74.21875 
Q 37.3125 74.21875 42.625 73.28125 
Q 47.953125 72.359375 53.515625 70.515625 
" id="BitstreamVeraSans-Roman-53"/>
     <path d="M 48.78125 52.59375 
L 48.78125 44.1875 
Q 44.96875 46.296875 41.140625 47.34375 
Q 37.3125 48.390625 33.40625 48.390625 
Q 24.65625 48.390625 19.8125 42.84375 
Q 14.984375 37.3125 14.984375 27.296875 
Q 14.984375 17.28125 19.8125 11.734375 
Q 24.65625 6.203125 33.40625 6.203125 
Q 37.3125 6.203125 41.140625 7.25 
Q 44.96875 8.296875 48.78125 10.40625 
L 48.78125 2.09375 
Q 45.015625 0.34375 40.984375 -0.53125 
Q 36.96875 -1.421875 32.421875 -1.421875 
Q 20.0625 -1.421875 12.78125 6.34375 
Q 5.515625 14.109375 5.515625 27.296875 
Q 5.515625 40.671875 12.859375 48.328125 
Q 20.21875 56 33.015625 56 
Q 37.15625 56 41.109375 55.140625 
Q 45.0625 54.296875 48.78125 52.59375 
" id="BitstreamVeraSans-Roman-63"/>
     <path d="M -0.296875 72.90625 
L 61.375 72.90625 
L 61.375 64.59375 
L 35.5 64.59375 
L 35.5 0 
L 25.59375 0 
L 25.59375 64.59375 
L -0.296875 64.59375 
z
" id="BitstreamVeraSans-Roman-54"/>
    </defs>
    <g transform="translate(130.5 35.852625)scale(0.21599999999999997 -0.21599999999999997)">
     <use xlink:href="#BitstreamVeraSans-Roman-4d"/>
     <use x="86.279296875" xlink:href="#BitstreamVeraSans-Roman-65"/>
     <use x="147.802734375" xlink:href="#BitstreamVeraSans-Roman-64"/>
     <use x="211.279296875" xlink:href="#BitstreamVeraSans-Roman-69"/>
     <use x="239.0625" xlink:href="#BitstreamVeraSans-Roman-61"/>
     <use x="300.341796875" xlink:href="#BitstreamVeraSans-Roman-6e"/>
     <use x="363.720703125" xlink:href="#BitstreamVeraSans-Roman-20"/>
     <use x="395.5078125" xlink:href="#BitstreamVeraSans-Roman-54"/>
     <use x="456.373046875" xlink:href="#BitstreamVeraSans-Roman-72"/>
     <use x="497.486328125" xlink:href="#BitstreamVeraSans-Roman-61"/>
     <use x="558.765625" xlink:href="#BitstreamVeraSans-Roman-63"/>
     <use x="613.74609375" xlink:href="#BitstreamVeraSans-Roman-6b"/>
     <use x="671.65625" xlink:href="#BitstreamVeraSans-Roman-20"/>
     <use x="703.443359375" xlink:href="#BitstreamVeraSans-Roman-54"/>
     <use x="764.30859375" xlink:href="#BitstreamVeraSans-Roman-72"/>
     <use x="805.421875" xlink:href="#BitstreamVeraSans-Roman-61"/>
     <use x="866.701171875" xlink:href="#BitstreamVeraSans-Roman-6e"/>
     <use x="930.080078125" xlink:href="#BitstreamVeraSans-Roman-73"/>
     <use x="982.1796875" xlink:href="#BitstreamVeraSans-Roman-6c"/>
     <use x="1009.962890625" xlink:href="#BitstreamVeraSans-Roman-61"/>
     <use x="1071.2421875" xlink:href="#BitstreamVeraSans-Roman-74"/>
     <use x="1110.451171875" xlink:href="#BitstreamVeraSans-Roman-69"/>
     <use x="1138.234375" xlink:href="#BitstreamVeraSans-Roman-6f"/>
     <use x="1199.416015625" xlink:href="#BitstreamVeraSans-Roman-6e"/>
     <use x="1262.794921875" xlink:href="#BitstreamVeraSans-Roman-20"/>
     <use x="1294.58203125" xlink:href="#BitstreamVeraSans-Roman-53"/>
     <use x="1358.05859375" xlink:href="#BitstreamVeraSans-Roman-70"/>
     <use x="1421.53515625" xlink:href="#BitstreamVeraSans-Roman-65"/>
     <use x="1483.05859375" xlink:href="#BitstreamVeraSans-Roman-65"/>
     <use x="1544.58203125" xlink:href="#BitstreamVeraSans-Roman-64"/>
     <use x="1608.05859375" xlink:href="#BitstreamVeraSans-Roman-73"/>
    </g>
   </g>
   <g id="legend_1">
    <g id="patch_7">
     <path d="M 359.5095 357.91875 
L 534.3075 357.91875 
L 534.3075 256.3245 
L 359.5095 256.3245 
z
" style="fill:#ffffff;stroke:#000000;stroke-linejoin:miter;"/>
    </g>
    <g id="line2d_40">
     <path d="M 374.6295 273.817125 
L 404.8695 273.817125 
" style="fill:none;stroke:#0000ff;stroke-linecap:square;stroke-width:2.0;"/>
    </g>
    <g id="line2d_41"/>
    <g id="text_16">
     <!-- Levy -->
     <defs>
      <path d="M 2.984375 54.6875 
L 12.5 54.6875 
L 29.59375 8.796875 
L 46.6875 54.6875 
L 56.203125 54.6875 
L 35.6875 0 
L 23.484375 0 
z
" id="BitstreamVeraSans-Roman-76"/>
      <path d="M 32.171875 -5.078125 
Q 28.375 -14.84375 24.75 -17.8125 
Q 21.140625 -20.796875 15.09375 -20.796875 
L 7.90625 -20.796875 
L 7.90625 -13.28125 
L 13.1875 -13.28125 
Q 16.890625 -13.28125 18.9375 -11.515625 
Q 21 -9.765625 23.484375 -3.21875 
L 25.09375 0.875 
L 2.984375 54.6875 
L 12.5 54.6875 
L 29.59375 11.921875 
L 46.6875 54.6875 
L 56.203125 54.6875 
z
" id="BitstreamVeraSans-Roman-79"/>
      <path d="M 9.8125 72.90625 
L 19.671875 72.90625 
L 19.671875 8.296875 
L 55.171875 8.296875 
L 55.171875 0 
L 9.8125 0 
z
" id="BitstreamVeraSans-Roman-4c"/>
     </defs>
     <g transform="translate(428.6295 281.377125)scale(0.21599999999999997 -0.21599999999999997)">
      <use xlink:href="#BitstreamVeraSans-Roman-4c"/>
      <use x="55.697265625" xlink:href="#BitstreamVeraSans-Roman-65"/>
      <use x="117.220703125" xlink:href="#BitstreamVeraSans-Roman-76"/>
      <use x="176.400390625" xlink:href="#BitstreamVeraSans-Roman-79"/>
     </g>
    </g>
    <g id="line2d_42">
     <path d="M 374.6295 305.521875 
L 404.8695 305.521875 
" style="fill:none;stroke:#008000;stroke-linecap:square;stroke-width:2.0;"/>
    </g>
    <g id="line2d_43"/>
    <g id="text_17">
     <!-- CRW -->
     <defs>
      <path d="M 64.40625 67.28125 
L 64.40625 56.890625 
Q 59.421875 61.53125 53.78125 63.8125 
Q 48.140625 66.109375 41.796875 66.109375 
Q 29.296875 66.109375 22.65625 58.46875 
Q 16.015625 50.828125 16.015625 36.375 
Q 16.015625 21.96875 22.65625 14.328125 
Q 29.296875 6.6875 41.796875 6.6875 
Q 48.140625 6.6875 53.78125 8.984375 
Q 59.421875 11.28125 64.40625 15.921875 
L 64.40625 5.609375 
Q 59.234375 2.09375 53.4375 0.328125 
Q 47.65625 -1.421875 41.21875 -1.421875 
Q 24.65625 -1.421875 15.125 8.703125 
Q 5.609375 18.84375 5.609375 36.375 
Q 5.609375 53.953125 15.125 64.078125 
Q 24.65625 74.21875 41.21875 74.21875 
Q 47.75 74.21875 53.53125 72.484375 
Q 59.328125 70.75 64.40625 67.28125 
" id="BitstreamVeraSans-Roman-43"/>
      <path d="M 3.328125 72.90625 
L 13.28125 72.90625 
L 28.609375 11.28125 
L 43.890625 72.90625 
L 54.984375 72.90625 
L 70.3125 11.28125 
L 85.59375 72.90625 
L 95.609375 72.90625 
L 77.296875 0 
L 64.890625 0 
L 49.515625 63.28125 
L 33.984375 0 
L 21.578125 0 
z
" id="BitstreamVeraSans-Roman-57"/>
      <path d="M 44.390625 34.1875 
Q 47.5625 33.109375 50.5625 29.59375 
Q 53.5625 26.078125 56.59375 19.921875 
L 66.609375 0 
L 56 0 
L 46.6875 18.703125 
Q 43.0625 26.03125 39.671875 28.421875 
Q 36.28125 30.8125 30.421875 30.8125 
L 19.671875 30.8125 
L 19.671875 0 
L 9.8125 0 
L 9.8125 72.90625 
L 32.078125 72.90625 
Q 44.578125 72.90625 50.734375 67.671875 
Q 56.890625 62.453125 56.890625 51.90625 
Q 56.890625 45.015625 53.6875 40.46875 
Q 50.484375 35.9375 44.390625 34.1875 
M 19.671875 64.796875 
L 19.671875 38.921875 
L 32.078125 38.921875 
Q 39.203125 38.921875 42.84375 42.21875 
Q 46.484375 45.515625 46.484375 51.90625 
Q 46.484375 58.296875 42.84375 61.546875 
Q 39.203125 64.796875 32.078125 64.796875 
z
" id="BitstreamVeraSans-Roman-52"/>
     </defs>
     <g transform="translate(428.6295 313.081875)scale(0.21599999999999997 -0.21599999999999997)">
      <use xlink:href="#BitstreamVeraSans-Roman-43"/>
      <use x="69.82421875" xlink:href="#BitstreamVeraSans-Roman-52"/>
      <use x="139.244140625" xlink:href="#BitstreamVeraSans-Roman-57"/>
     </g>
    </g>
    <g id="line2d_44">
     <path d="M 374.6295 337.226625 
L 404.8695 337.226625 
" style="fill:none;stroke:#ff0000;stroke-linecap:square;stroke-width:2.0;"/>
    </g>
    <g id="line2d_45"/>
    <g id="text_18">
     <!-- CRW 50s -->
     <g transform="translate(428.6295 344.786625)scale(0.21599999999999997 -0.21599999999999997)">
      <use xlink:href="#BitstreamVeraSans-Roman-43"/>
      <use x="69.82421875" xlink:href="#BitstreamVeraSans-Roman-52"/>
      <use x="139.244140625" xlink:href="#BitstreamVeraSans-Roman-57"/>
      <use x="238.12109375" xlink:href="#BitstreamVeraSans-Roman-20"/>
      <use x="269.908203125" xlink:href="#BitstreamVeraSans-Roman-35"/>
      <use x="333.53125" xlink:href="#BitstreamVeraSans-Roman-30"/>
      <use x="397.154296875" xlink:href="#BitstreamVeraSans-Roman-73"/>
     </g>
    </g>
   </g>
  </g>
 </g>
 <defs>
  <clipPath id="p0c0bb33100">
   <rect height="327.866125" width="470.62125" x="74.48625" y="40.852625"/>
  </clipPath>
 </defs>
</svg>
