<?xml version="1.0" encoding="utf-8" standalone="no"?>
<!DOCTYPE svg PUBLIC "-//W3C//DTD SVG 1.1//EN"
  "http://www.w3.org/Graphics/SVG/1.1/DTD/svg11.dtd">
<!-- Created with matplotlib (http://matplotlib.org/) -->
<svg height="432pt" version="1.1" viewBox="0 0 576 432" width="576pt" xmlns="http://www.w3.org/2000/svg" xmlns:xlink="http://www.w3.org/1999/xlink">
 <defs>
  <style type="text/css">
*{stroke-linecap:butt;stroke-linejoin:round;stroke-miterlimit:100000;}
  </style>
 </defs>
 <g id="figure_1">
  <g id="patch_1">
   <path d="M 0 432 
L 576 432 
L 576 0 
L 0 0 
z
" style="fill:#ffffff;"/>
  </g>
  <g id="axes_1">
   <g id="patch_2">
    <path d="M 74.48625 368.71875 
L 545.1075 368.71875 
L 545.1075 40.852625 
L 74.48625 40.852625 
z
" style="fill:#ffffff;"/>
   </g>
   <g id="line2d_1">
    <path clip-path="url(#p76eaa31617)" d="M 86.813461 368.71875 
L 86.813461 367.722196 
L 87.506842 366.725643 
L 95.305241 365.729089 
L 98.0577 364.732536 
L 99.797336 363.735982 
L 101.100597 362.739429 
L 101.721423 361.742875 
L 102.696061 360.746321 
L 103.41473 357.756661 
L 104.074586 356.760107 
L 104.216781 355.763554 
L 104.983637 354.767 
L 106.77279 353.770446 
L 107.266089 351.777339 
L 108.116786 349.784232 
L 109.152087 348.787679 
L 109.172046 347.791125 
L 111.121518 346.794571 
L 111.753971 345.798018 
L 112.340967 343.804911 
L 113.045542 342.808357 
L 113.316671 340.81525 
L 113.893819 339.818696 
L 114.296275 338.822143 
L 114.405415 337.825589 
L 115.12228 336.829036 
L 115.178277 334.835929 
L 115.447332 333.839375 
L 116.362008 331.846268 
L 116.507083 330.849714 
L 116.526825 329.853161 
L 116.931628 328.856607 
L 117.528492 327.860054 
L 117.917169 325.866946 
L 118.275437 324.870393 
L 118.508694 323.873839 
L 119.129768 322.877286 
L 119.458466 320.884179 
L 119.983467 319.887625 
L 120.393821 317.894518 
L 120.49916 316.897964 
L 120.87324 315.901411 
L 121.44911 312.91175 
L 122.272019 311.915196 
L 122.437895 310.918643 
L 123.409887 308.925536 
L 123.608118 307.928982 
L 124.225821 306.932429 
L 124.319203 304.939321 
L 124.621577 303.942768 
L 124.632553 302.946214 
L 124.887632 300.953107 
L 125.144505 298.96 
L 125.20861 295.970339 
L 125.507379 294.973786 
L 125.926276 293.977232 
L 126.259954 291.984125 
L 126.382708 288.994464 
L 126.408392 287.997911 
L 127.02366 287.001357 
L 127.407066 286.004804 
L 127.513159 282.018589 
L 128.029587 281.022036 
L 128.246652 278.032375 
L 128.346633 276.039268 
L 128.819074 275.042714 
L 129.006907 274.046161 
L 129.037972 273.049607 
L 129.35709 272.053054 
L 129.365158 271.0565 
L 129.628845 270.059946 
L 129.936825 268.066839 
L 130.123596 267.070286 
L 130.492755 266.073732 
L 130.636425 262.087518 
L 130.893448 261.090964 
L 131.721119 260.094411 
L 132.048618 259.097857 
L 132.450768 254.115089 
L 132.759162 252.121982 
L 132.8884 249.132321 
L 133.005409 248.135768 
L 133.690711 247.139214 
L 133.821642 245.146107 
L 134.666695 244.149554 
L 134.799081 243.153 
L 135.142493 242.156446 
L 135.425326 239.166786 
L 135.993702 237.173679 
L 136.132118 235.180571 
L 136.747683 229.20125 
L 137.236961 227.208143 
L 137.998118 226.211589 
L 138.069899 225.215036 
L 138.27704 224.218482 
L 138.513509 220.232268 
L 138.994136 219.235714 
L 139.134286 218.239161 
L 139.517362 217.242607 
L 139.733388 216.246054 
L 140.140587 215.2495 
L 140.630691 212.259839 
L 140.760161 211.263286 
L 141.187357 209.270179 
L 141.363166 208.273625 
L 142.226936 207.277071 
L 142.427341 205.283964 
L 142.552811 203.290857 
L 143.026403 201.29775 
L 143.078713 200.301196 
L 144.354743 193.325321 
L 144.481545 192.328768 
L 145.007838 191.332214 
L 145.459881 188.342554 
L 145.578964 185.352893 
L 145.846088 184.356339 
L 145.882607 181.366679 
L 146.059636 180.370125 
L 146.092984 179.373571 
L 146.425448 178.377018 
L 146.510461 177.380464 
L 147.699412 173.39425 
L 147.726691 172.397696 
L 148.156066 171.401143 
L 148.344858 169.408036 
L 148.598649 168.411482 
L 149.444597 167.414929 
L 149.92306 166.418375 
L 150.025507 165.421821 
L 150.535506 164.425268 
L 151.271408 163.428714 
L 151.330572 162.432161 
L 151.645331 161.435607 
L 151.69261 158.445946 
L 152.457004 156.452839 
L 152.46014 155.456286 
L 152.949864 153.463179 
L 153.316107 152.466625 
L 154.093795 151.470071 
L 154.922437 148.480411 
L 155.016395 147.483857 
L 155.402913 146.487304 
L 156.483879 144.494196 
L 156.742635 142.501089 
L 157.144488 141.504536 
L 157.667457 140.507982 
L 157.723117 138.514875 
L 157.820126 137.518321 
L 158.02907 136.521768 
L 158.863474 135.525214 
L 158.918971 134.528661 
L 159.120356 133.532107 
L 160.22573 132.535554 
L 161.061345 131.539 
L 161.325316 128.549339 
L 161.821324 127.552786 
L 162.206027 124.563125 
L 163.079846 123.566571 
L 163.622846 121.573464 
L 165.183572 119.580357 
L 165.898387 118.583804 
L 166.169821 117.58725 
L 166.874331 116.590696 
L 167.408813 114.597589 
L 168.378888 113.601036 
L 168.709745 112.604482 
L 168.810682 111.607929 
L 169.390929 110.611375 
L 169.495138 109.614821 
L 169.72568 108.618268 
L 169.78083 107.621714 
L 170.219492 106.625161 
L 170.342134 104.632054 
L 170.788804 103.6355 
L 172.02453 102.638946 
L 172.313895 101.642393 
L 172.451724 100.645839 
L 172.807116 99.649286 
L 173.031872 98.652732 
L 174.155405 97.656179 
L 175.612157 96.659625 
L 177.692688 95.663071 
L 178.868784 94.666518 
L 179.488348 93.669964 
L 179.506981 92.673411 
L 180.53511 91.676857 
L 180.995175 90.680304 
L 181.919422 86.694089 
L 182.284326 84.700982 
L 182.714303 83.704429 
L 183.572692 82.707875 
L 183.772279 81.711321 
L 183.819921 80.714768 
L 184.140229 79.718214 
L 185.139666 77.725107 
L 185.958324 76.728554 
L 189.964625 75.732 
L 191.332493 74.735446 
L 191.570289 73.738893 
L 191.858246 71.745786 
L 194.220706 70.749232 
L 194.405629 69.752679 
L 201.707532 67.759571 
L 201.817368 66.763018 
L 202.164751 65.766464 
L 204.940326 64.769911 
L 206.276787 63.773357 
L 211.447587 62.776804 
L 214.297562 61.78025 
L 214.624379 60.783696 
L 219.573743 59.787143 
L 219.822186 58.790589 
L 223.740663 57.794036 
L 232.592916 56.797482 
L 255.481596 55.800929 
L 257.358228 54.804375 
L 257.551939 52.811268 
L 259.742838 51.814714 
L 272.922587 50.818161 
L 275.709994 49.821607 
L 292.916507 48.825054 
L 306.077862 47.8285 
L 307.032052 46.831946 
L 340.215375 45.835393 
L 353.459405 44.838839 
L 363.047469 43.842286 
L 368.461233 42.845732 
L 432.234557 41.849179 
L 511.062879 40.852625 
L 511.062879 40.852625 
" style="fill:none;stroke:#0000ff;stroke-linecap:square;stroke-width:2.0;"/>
   </g>
   <g id="line2d_2">
    <path clip-path="url(#p76eaa31617)" d="M 74.490193 368.71875 
L 74.510308 365.048607 
L 74.733914 363.825226 
L 75.294398 362.601845 
L 75.367283 360.155083 
L 75.84604 357.70832 
L 75.950832 355.261558 
L 76.333396 350.368034 
L 76.343412 349.144653 
L 76.588119 347.921272 
L 77.285632 341.804367 
L 77.619292 340.580986 
L 77.809495 338.134223 
L 78.627649 336.910842 
L 78.675602 335.687461 
L 78.889708 334.46408 
L 79.100318 330.793937 
L 79.340718 329.570556 
L 79.638475 325.900413 
L 79.668498 324.677032 
L 79.911626 323.453651 
L 79.947897 322.23027 
L 80.130003 321.006889 
L 80.800175 318.560126 
L 81.016545 313.666602 
L 81.026628 312.443221 
L 81.642914 308.773078 
L 82.089591 303.879554 
L 82.329362 302.656173 
L 82.426031 301.432792 
L 82.635211 300.20941 
L 82.661978 298.986029 
L 82.849686 297.762648 
L 82.869146 296.539267 
L 83.639343 294.092505 
L 83.748533 291.645743 
L 83.882481 289.198981 
L 84.140566 286.752219 
L 84.225448 284.305457 
L 84.247755 283.082076 
L 84.672792 281.858694 
L 84.836254 280.635313 
L 84.866176 278.188551 
L 85.049713 276.96517 
L 85.231369 274.518408 
L 85.591595 273.295027 
L 85.869408 270.848265 
L 86.055992 268.401503 
L 86.29194 267.178122 
L 86.960434 256.167692 
L 87.292169 254.944311 
L 87.34525 253.72093 
L 87.510015 252.497549 
L 87.678159 250.050787 
L 87.975927 248.827406 
L 88.05081 246.380644 
L 88.165124 245.157263 
L 88.957722 242.7105 
L 89.428701 237.816976 
L 89.522536 235.370214 
L 89.823922 234.146833 
L 89.98153 230.47669 
L 90.535781 228.029928 
L 91.621918 214.572736 
L 91.88528 212.125974 
L 91.992237 210.902593 
L 92.420117 209.679212 
L 93.224038 208.455831 
L 93.261498 207.23245 
L 94.050261 206.009069 
L 94.127632 204.785687 
L 94.550702 202.338925 
L 95.414489 201.115544 
L 95.657227 199.892163 
L 95.957261 193.775258 
L 96.151969 192.551877 
L 96.615818 191.328496 
L 97.477373 185.21159 
L 97.765173 183.988209 
L 97.789318 182.764828 
L 98.024788 181.541447 
L 98.099442 180.318066 
L 98.302895 179.094685 
L 98.374885 177.871304 
L 98.824675 176.647923 
L 99.443204 175.424542 
L 99.671553 174.201161 
L 99.731729 171.754399 
L 100.023752 170.531018 
L 100.494441 169.307637 
L 100.585957 166.860875 
L 100.677752 165.637493 
L 101.263289 163.190731 
L 101.535778 160.743969 
L 102.336586 159.520588 
L 102.935493 154.627064 
L 103.23477 153.403683 
L 103.868307 146.063396 
L 103.919291 144.840015 
L 104.244555 143.616634 
L 104.387344 139.946491 
L 104.849439 135.052967 
L 104.99933 133.829586 
L 105.526191 132.606205 
L 105.816067 130.159443 
L 105.83129 128.936062 
L 106.870549 125.265918 
L 107.07492 124.042537 
L 107.487812 122.819156 
L 107.64199 121.595775 
L 108.565148 120.372394 
L 108.746339 119.149013 
L 109.129224 117.925632 
L 109.430926 111.808727 
L 109.587492 110.585346 
L 110.399555 109.361965 
L 111.003343 108.138583 
L 111.238054 106.915202 
L 111.257488 105.691821 
L 111.780792 104.46844 
L 111.964337 100.798297 
L 111.982069 99.574916 
L 112.329407 98.351535 
L 112.460819 97.128154 
L 112.495624 94.681392 
L 112.763763 92.23463 
L 113.562546 91.011249 
L 113.700838 88.564486 
L 114.202147 87.341105 
L 114.22915 86.117724 
L 114.56245 84.894343 
L 114.75892 83.670962 
L 118.58975 82.447581 
L 118.780644 81.2242 
L 119.160866 80.000819 
L 120.706986 78.777438 
L 120.736368 77.554057 
L 122.426415 76.330676 
L 122.988582 75.107295 
L 123.324546 72.660533 
L 123.975701 70.213771 
L 124.087427 68.990389 
L 124.410788 67.767008 
L 124.614274 66.543627 
L 125.591904 65.320246 
L 125.922506 64.096865 
L 126.640324 62.873484 
L 128.166266 61.650103 
L 129.472641 60.426722 
L 130.008596 59.203341 
L 130.082634 57.97996 
L 130.45268 56.756579 
L 130.755154 54.309817 
L 133.571235 53.086436 
L 134.904202 51.863055 
L 140.199709 49.416292 
L 141.075155 48.192911 
L 144.116232 46.96953 
L 145.101674 45.746149 
L 148.783896 44.522768 
L 152.832436 43.299387 
L 153.2617 42.076006 
L 178.659663 40.852625 
L 178.659663 40.852625 
" style="fill:none;stroke:#008000;stroke-linecap:square;stroke-width:2.0;"/>
   </g>
   <g id="line2d_3">
    <path clip-path="url(#p76eaa31617)" d="M 74.524819 368.71875 
L 74.524819 366.234916 
L 74.855961 363.751081 
L 74.969794 351.33191 
L 75.117417 343.880407 
L 75.169119 341.396573 
L 75.431781 336.428904 
L 75.489784 333.94507 
L 75.742848 331.461236 
L 75.872487 326.493567 
L 76.053819 324.009733 
L 76.073182 321.525899 
L 76.744056 319.042064 
L 77.542655 314.074396 
L 77.988734 309.106727 
L 78.649652 299.17139 
L 79.279267 296.687556 
L 79.298569 294.203722 
L 79.836834 291.719887 
L 79.858794 289.236053 
L 80.166706 286.752219 
L 80.299933 279.300716 
L 81.092475 274.333047 
L 81.554143 271.849213 
L 81.630205 269.365379 
L 82.246461 264.39771 
L 83.068463 259.430042 
L 83.243619 256.946207 
L 84.146902 254.462373 
L 84.450809 251.978539 
L 84.472763 249.494705 
L 84.778397 244.527036 
L 84.789723 242.043202 
L 84.986441 239.559367 
L 85.479937 237.075533 
L 85.585095 229.62403 
L 85.738763 227.140196 
L 85.863477 222.172527 
L 86.535255 217.204859 
L 86.620916 214.721025 
L 87.113443 212.23719 
L 87.183248 209.753356 
L 88.147585 207.269522 
L 88.34955 202.301853 
L 89.311296 199.818019 
L 89.641466 197.334185 
L 89.659434 194.85035 
L 90.570574 192.366516 
L 90.753507 189.882682 
L 92.173965 187.398848 
L 93.008801 184.915013 
L 93.636823 182.431179 
L 94.010301 179.947345 
L 95.304515 177.46351 
L 95.344732 174.979676 
L 96.960309 172.495842 
L 97.056793 170.012008 
L 97.524929 167.528173 
L 97.566413 165.044339 
L 97.792226 162.560505 
L 97.884508 160.07667 
L 98.396687 157.592836 
L 98.566064 155.109002 
L 98.587618 152.625168 
L 99.189268 147.657499 
L 99.457863 145.173665 
L 100.210325 142.68983 
L 100.376477 140.205996 
L 100.842532 137.722162 
L 101.10369 132.754493 
L 102.223955 130.270659 
L 102.427849 127.786825 
L 102.566169 122.819156 
L 103.333025 115.367653 
L 104.136894 112.883819 
L 104.447459 110.399985 
L 107.24041 102.948482 
L 107.576084 95.496979 
L 108.279984 90.529311 
L 108.745701 88.045476 
L 108.920215 85.561642 
L 109.575744 80.593973 
L 111.752537 78.110139 
L 112.308892 75.626305 
L 113.90773 73.142471 
L 114.240883 68.174802 
L 114.76131 65.690968 
L 116.876422 63.207134 
L 119.7261 60.723299 
L 120.765414 58.239465 
L 121.945663 55.755631 
L 123.351425 53.271796 
L 124.21241 50.787962 
L 124.264637 48.304128 
L 124.572194 45.820294 
L 130.17845 43.336459 
L 143.070483 40.852625 
L 143.070483 40.852625 
" style="fill:none;stroke:#ff0000;stroke-linecap:square;stroke-width:2.0;"/>
   </g>
   <g id="patch_3">
    <path d="M 545.1075 368.71875 
L 545.1075 40.852625 
" style="fill:none;stroke:#000000;stroke-linecap:square;stroke-linejoin:miter;stroke-width:2.0;"/>
   </g>
   <g id="patch_4">
    <path d="M 74.48625 368.71875 
L 545.1075 368.71875 
" style="fill:none;stroke:#000000;stroke-linecap:square;stroke-linejoin:miter;stroke-width:2.0;"/>
   </g>
   <g id="patch_5">
    <path d="M 74.48625 40.852625 
L 545.1075 40.852625 
" style="fill:none;stroke:#000000;stroke-linecap:square;stroke-linejoin:miter;stroke-width:2.0;"/>
   </g>
   <g id="patch_6">
    <path d="M 74.48625 368.71875 
L 74.48625 40.852625 
" style="fill:none;stroke:#000000;stroke-linecap:square;stroke-linejoin:miter;stroke-width:2.0;"/>
   </g>
   <g id="matplotlib.axis_1">
    <g id="xtick_1">
     <g id="line2d_4">
      <path clip-path="url(#p76eaa31617)" d="M 74.48625 368.71875 
L 74.48625 40.852625 
" style="fill:none;stroke:#000000;stroke-dasharray:1.000000,3.000000;stroke-dashoffset:0.0;stroke-width:2.0;"/>
     </g>
     <g id="line2d_5">
      <defs>
       <path d="M 0 0 
L 0 -4 
" id="m2a718fb7b5" style="stroke:#000000;stroke-width:0.5;"/>
      </defs>
      <g>
       <use style="stroke:#000000;stroke-width:0.5;" x="74.48625" xlink:href="#m2a718fb7b5" y="368.71875"/>
      </g>
     </g>
     <g id="line2d_6">
      <defs>
       <path d="M 0 0 
L 0 4 
" id="m022c33e56c" style="stroke:#000000;stroke-width:0.5;"/>
      </defs>
      <g>
       <use style="stroke:#000000;stroke-width:0.5;" x="74.48625" xlink:href="#m022c33e56c" y="40.852625"/>
      </g>
     </g>
     <g id="text_1">
      <!-- 0 -->
      <defs>
       <path d="M 31.78125 66.40625 
Q 24.171875 66.40625 20.328125 58.90625 
Q 16.5 51.421875 16.5 36.375 
Q 16.5 21.390625 20.328125 13.890625 
Q 24.171875 6.390625 31.78125 6.390625 
Q 39.453125 6.390625 43.28125 13.890625 
Q 47.125 21.390625 47.125 36.375 
Q 47.125 51.421875 43.28125 58.90625 
Q 39.453125 66.40625 31.78125 66.40625 
M 31.78125 74.21875 
Q 44.046875 74.21875 50.515625 64.515625 
Q 56.984375 54.828125 56.984375 36.375 
Q 56.984375 17.96875 50.515625 8.265625 
Q 44.046875 -1.421875 31.78125 -1.421875 
Q 19.53125 -1.421875 13.0625 8.265625 
Q 6.59375 17.96875 6.59375 36.375 
Q 6.59375 54.828125 13.0625 64.515625 
Q 19.53125 74.21875 31.78125 74.21875 
" id="BitstreamVeraSans-Roman-30"/>
      </defs>
      <g transform="translate(68.76 386.3959375)scale(0.18 -0.18)">
       <use xlink:href="#BitstreamVeraSans-Roman-30"/>
      </g>
     </g>
    </g>
    <g id="xtick_2">
     <g id="line2d_7">
      <path clip-path="url(#p76eaa31617)" d="M 126.7775 368.71875 
L 126.7775 40.852625 
" style="fill:none;stroke:#000000;stroke-dasharray:1.000000,3.000000;stroke-dashoffset:0.0;stroke-width:2.0;"/>
     </g>
     <g id="line2d_8">
      <g>
       <use style="stroke:#000000;stroke-width:0.5;" x="126.7775" xlink:href="#m2a718fb7b5" y="368.71875"/>
      </g>
     </g>
     <g id="line2d_9">
      <g>
       <use style="stroke:#000000;stroke-width:0.5;" x="126.7775" xlink:href="#m022c33e56c" y="40.852625"/>
      </g>
     </g>
     <g id="text_2">
      <!-- 5 -->
      <defs>
       <path d="M 10.796875 72.90625 
L 49.515625 72.90625 
L 49.515625 64.59375 
L 19.828125 64.59375 
L 19.828125 46.734375 
Q 21.96875 47.46875 24.109375 47.828125 
Q 26.265625 48.1875 28.421875 48.1875 
Q 40.625 48.1875 47.75 41.5 
Q 54.890625 34.8125 54.890625 23.390625 
Q 54.890625 11.625 47.5625 5.09375 
Q 40.234375 -1.421875 26.90625 -1.421875 
Q 22.3125 -1.421875 17.546875 -0.640625 
Q 12.796875 0.140625 7.71875 1.703125 
L 7.71875 11.625 
Q 12.109375 9.234375 16.796875 8.0625 
Q 21.484375 6.890625 26.703125 6.890625 
Q 35.15625 6.890625 40.078125 11.328125 
Q 45.015625 15.765625 45.015625 23.390625 
Q 45.015625 31 40.078125 35.4375 
Q 35.15625 39.890625 26.703125 39.890625 
Q 22.75 39.890625 18.8125 39.015625 
Q 14.890625 38.140625 10.796875 36.28125 
z
" id="BitstreamVeraSans-Roman-35"/>
      </defs>
      <g transform="translate(121.05125 386.3959375)scale(0.18 -0.18)">
       <use xlink:href="#BitstreamVeraSans-Roman-35"/>
      </g>
     </g>
    </g>
    <g id="xtick_3">
     <g id="line2d_10">
      <path clip-path="url(#p76eaa31617)" d="M 179.06875 368.71875 
L 179.06875 40.852625 
" style="fill:none;stroke:#000000;stroke-dasharray:1.000000,3.000000;stroke-dashoffset:0.0;stroke-width:2.0;"/>
     </g>
     <g id="line2d_11">
      <g>
       <use style="stroke:#000000;stroke-width:0.5;" x="179.06875" xlink:href="#m2a718fb7b5" y="368.71875"/>
      </g>
     </g>
     <g id="line2d_12">
      <g>
       <use style="stroke:#000000;stroke-width:0.5;" x="179.06875" xlink:href="#m022c33e56c" y="40.852625"/>
      </g>
     </g>
     <g id="text_3">
      <!-- 10 -->
      <defs>
       <path d="M 12.40625 8.296875 
L 28.515625 8.296875 
L 28.515625 63.921875 
L 10.984375 60.40625 
L 10.984375 69.390625 
L 28.421875 72.90625 
L 38.28125 72.90625 
L 38.28125 8.296875 
L 54.390625 8.296875 
L 54.390625 0 
L 12.40625 0 
z
" id="BitstreamVeraSans-Roman-31"/>
      </defs>
      <g transform="translate(167.61625 386.3959375)scale(0.18 -0.18)">
       <use xlink:href="#BitstreamVeraSans-Roman-31"/>
       <use x="63.623046875" xlink:href="#BitstreamVeraSans-Roman-30"/>
      </g>
     </g>
    </g>
    <g id="xtick_4">
     <g id="line2d_13">
      <path clip-path="url(#p76eaa31617)" d="M 231.36 368.71875 
L 231.36 40.852625 
" style="fill:none;stroke:#000000;stroke-dasharray:1.000000,3.000000;stroke-dashoffset:0.0;stroke-width:2.0;"/>
     </g>
     <g id="line2d_14">
      <g>
       <use style="stroke:#000000;stroke-width:0.5;" x="231.36" xlink:href="#m2a718fb7b5" y="368.71875"/>
      </g>
     </g>
     <g id="line2d_15">
      <g>
       <use style="stroke:#000000;stroke-width:0.5;" x="231.36" xlink:href="#m022c33e56c" y="40.852625"/>
      </g>
     </g>
     <g id="text_4">
      <!-- 15 -->
      <g transform="translate(219.9075 386.3959375)scale(0.18 -0.18)">
       <use xlink:href="#BitstreamVeraSans-Roman-31"/>
       <use x="63.623046875" xlink:href="#BitstreamVeraSans-Roman-35"/>
      </g>
     </g>
    </g>
    <g id="xtick_5">
     <g id="line2d_16">
      <path clip-path="url(#p76eaa31617)" d="M 283.65125 368.71875 
L 283.65125 40.852625 
" style="fill:none;stroke:#000000;stroke-dasharray:1.000000,3.000000;stroke-dashoffset:0.0;stroke-width:2.0;"/>
     </g>
     <g id="line2d_17">
      <g>
       <use style="stroke:#000000;stroke-width:0.5;" x="283.65125" xlink:href="#m2a718fb7b5" y="368.71875"/>
      </g>
     </g>
     <g id="line2d_18">
      <g>
       <use style="stroke:#000000;stroke-width:0.5;" x="283.65125" xlink:href="#m022c33e56c" y="40.852625"/>
      </g>
     </g>
     <g id="text_5">
      <!-- 20 -->
      <defs>
       <path d="M 19.1875 8.296875 
L 53.609375 8.296875 
L 53.609375 0 
L 7.328125 0 
L 7.328125 8.296875 
Q 12.9375 14.109375 22.625 23.890625 
Q 32.328125 33.6875 34.8125 36.53125 
Q 39.546875 41.84375 41.421875 45.53125 
Q 43.3125 49.21875 43.3125 52.78125 
Q 43.3125 58.59375 39.234375 62.25 
Q 35.15625 65.921875 28.609375 65.921875 
Q 23.96875 65.921875 18.8125 64.3125 
Q 13.671875 62.703125 7.8125 59.421875 
L 7.8125 69.390625 
Q 13.765625 71.78125 18.9375 73 
Q 24.125 74.21875 28.421875 74.21875 
Q 39.75 74.21875 46.484375 68.546875 
Q 53.21875 62.890625 53.21875 53.421875 
Q 53.21875 48.921875 51.53125 44.890625 
Q 49.859375 40.875 45.40625 35.40625 
Q 44.1875 33.984375 37.640625 27.21875 
Q 31.109375 20.453125 19.1875 8.296875 
" id="BitstreamVeraSans-Roman-32"/>
      </defs>
      <g transform="translate(272.19875 386.3959375)scale(0.18 -0.18)">
       <use xlink:href="#BitstreamVeraSans-Roman-32"/>
       <use x="63.623046875" xlink:href="#BitstreamVeraSans-Roman-30"/>
      </g>
     </g>
    </g>
    <g id="xtick_6">
     <g id="line2d_19">
      <path clip-path="url(#p76eaa31617)" d="M 335.9425 368.71875 
L 335.9425 40.852625 
" style="fill:none;stroke:#000000;stroke-dasharray:1.000000,3.000000;stroke-dashoffset:0.0;stroke-width:2.0;"/>
     </g>
     <g id="line2d_20">
      <g>
       <use style="stroke:#000000;stroke-width:0.5;" x="335.9425" xlink:href="#m2a718fb7b5" y="368.71875"/>
      </g>
     </g>
     <g id="line2d_21">
      <g>
       <use style="stroke:#000000;stroke-width:0.5;" x="335.9425" xlink:href="#m022c33e56c" y="40.852625"/>
      </g>
     </g>
     <g id="text_6">
      <!-- 25 -->
      <g transform="translate(324.49 386.3959375)scale(0.18 -0.18)">
       <use xlink:href="#BitstreamVeraSans-Roman-32"/>
       <use x="63.623046875" xlink:href="#BitstreamVeraSans-Roman-35"/>
      </g>
     </g>
    </g>
    <g id="xtick_7">
     <g id="line2d_22">
      <path clip-path="url(#p76eaa31617)" d="M 388.23375 368.71875 
L 388.23375 40.852625 
" style="fill:none;stroke:#000000;stroke-dasharray:1.000000,3.000000;stroke-dashoffset:0.0;stroke-width:2.0;"/>
     </g>
     <g id="line2d_23">
      <g>
       <use style="stroke:#000000;stroke-width:0.5;" x="388.23375" xlink:href="#m2a718fb7b5" y="368.71875"/>
      </g>
     </g>
     <g id="line2d_24">
      <g>
       <use style="stroke:#000000;stroke-width:0.5;" x="388.23375" xlink:href="#m022c33e56c" y="40.852625"/>
      </g>
     </g>
     <g id="text_7">
      <!-- 30 -->
      <defs>
       <path d="M 40.578125 39.3125 
Q 47.65625 37.796875 51.625 33 
Q 55.609375 28.21875 55.609375 21.1875 
Q 55.609375 10.40625 48.1875 4.484375 
Q 40.765625 -1.421875 27.09375 -1.421875 
Q 22.515625 -1.421875 17.65625 -0.515625 
Q 12.796875 0.390625 7.625 2.203125 
L 7.625 11.71875 
Q 11.71875 9.328125 16.59375 8.109375 
Q 21.484375 6.890625 26.8125 6.890625 
Q 36.078125 6.890625 40.9375 10.546875 
Q 45.796875 14.203125 45.796875 21.1875 
Q 45.796875 27.640625 41.28125 31.265625 
Q 36.765625 34.90625 28.71875 34.90625 
L 20.21875 34.90625 
L 20.21875 43.015625 
L 29.109375 43.015625 
Q 36.375 43.015625 40.234375 45.921875 
Q 44.09375 48.828125 44.09375 54.296875 
Q 44.09375 59.90625 40.109375 62.90625 
Q 36.140625 65.921875 28.71875 65.921875 
Q 24.65625 65.921875 20.015625 65.03125 
Q 15.375 64.15625 9.8125 62.3125 
L 9.8125 71.09375 
Q 15.4375 72.65625 20.34375 73.4375 
Q 25.25 74.21875 29.59375 74.21875 
Q 40.828125 74.21875 47.359375 69.109375 
Q 53.90625 64.015625 53.90625 55.328125 
Q 53.90625 49.265625 50.4375 45.09375 
Q 46.96875 40.921875 40.578125 39.3125 
" id="BitstreamVeraSans-Roman-33"/>
      </defs>
      <g transform="translate(376.78125 386.3959375)scale(0.18 -0.18)">
       <use xlink:href="#BitstreamVeraSans-Roman-33"/>
       <use x="63.623046875" xlink:href="#BitstreamVeraSans-Roman-30"/>
      </g>
     </g>
    </g>
    <g id="xtick_8">
     <g id="line2d_25">
      <path clip-path="url(#p76eaa31617)" d="M 440.525 368.71875 
L 440.525 40.852625 
" style="fill:none;stroke:#000000;stroke-dasharray:1.000000,3.000000;stroke-dashoffset:0.0;stroke-width:2.0;"/>
     </g>
     <g id="line2d_26">
      <g>
       <use style="stroke:#000000;stroke-width:0.5;" x="440.525" xlink:href="#m2a718fb7b5" y="368.71875"/>
      </g>
     </g>
     <g id="line2d_27">
      <g>
       <use style="stroke:#000000;stroke-width:0.5;" x="440.525" xlink:href="#m022c33e56c" y="40.852625"/>
      </g>
     </g>
     <g id="text_8">
      <!-- 35 -->
      <g transform="translate(429.0725 386.3959375)scale(0.18 -0.18)">
       <use xlink:href="#BitstreamVeraSans-Roman-33"/>
       <use x="63.623046875" xlink:href="#BitstreamVeraSans-Roman-35"/>
      </g>
     </g>
    </g>
    <g id="xtick_9">
     <g id="line2d_28">
      <path clip-path="url(#p76eaa31617)" d="M 492.81625 368.71875 
L 492.81625 40.852625 
" style="fill:none;stroke:#000000;stroke-dasharray:1.000000,3.000000;stroke-dashoffset:0.0;stroke-width:2.0;"/>
     </g>
     <g id="line2d_29">
      <g>
       <use style="stroke:#000000;stroke-width:0.5;" x="492.81625" xlink:href="#m2a718fb7b5" y="368.71875"/>
      </g>
     </g>
     <g id="line2d_30">
      <g>
       <use style="stroke:#000000;stroke-width:0.5;" x="492.81625" xlink:href="#m022c33e56c" y="40.852625"/>
      </g>
     </g>
     <g id="text_9">
      <!-- 40 -->
      <defs>
       <path d="M 37.796875 64.3125 
L 12.890625 25.390625 
L 37.796875 25.390625 
z
M 35.203125 72.90625 
L 47.609375 72.90625 
L 47.609375 25.390625 
L 58.015625 25.390625 
L 58.015625 17.1875 
L 47.609375 17.1875 
L 47.609375 0 
L 37.796875 0 
L 37.796875 17.1875 
L 4.890625 17.1875 
L 4.890625 26.703125 
z
" id="BitstreamVeraSans-Roman-34"/>
      </defs>
      <g transform="translate(481.36375 386.3959375)scale(0.18 -0.18)">
       <use xlink:href="#BitstreamVeraSans-Roman-34"/>
       <use x="63.623046875" xlink:href="#BitstreamVeraSans-Roman-30"/>
      </g>
     </g>
    </g>
    <g id="xtick_10">
     <g id="line2d_31">
      <path clip-path="url(#p76eaa31617)" d="M 545.1075 368.71875 
L 545.1075 40.852625 
" style="fill:none;stroke:#000000;stroke-dasharray:1.000000,3.000000;stroke-dashoffset:0.0;stroke-width:2.0;"/>
     </g>
     <g id="line2d_32">
      <g>
       <use style="stroke:#000000;stroke-width:0.5;" x="545.1075" xlink:href="#m2a718fb7b5" y="368.71875"/>
      </g>
     </g>
     <g id="line2d_33">
      <g>
       <use style="stroke:#000000;stroke-width:0.5;" x="545.1075" xlink:href="#m022c33e56c" y="40.852625"/>
      </g>
     </g>
     <g id="text_10">
      <!-- 45 -->
      <g transform="translate(533.655 386.3959375)scale(0.18 -0.18)">
       <use xlink:href="#BitstreamVeraSans-Roman-34"/>
       <use x="63.623046875" xlink:href="#BitstreamVeraSans-Roman-35"/>
      </g>
     </g>
    </g>
    <g id="text_11">
     <!-- Translation speed IRQ (um/min) -->
     <defs>
      <path d="M 9.421875 75.984375 
L 18.40625 75.984375 
L 18.40625 0 
L 9.421875 0 
z
" id="BitstreamVeraSans-Roman-6c"/>
      <path d="M 39.40625 66.21875 
Q 28.65625 66.21875 22.328125 58.203125 
Q 16.015625 50.203125 16.015625 36.375 
Q 16.015625 22.609375 22.328125 14.59375 
Q 28.65625 6.59375 39.40625 6.59375 
Q 50.140625 6.59375 56.421875 14.59375 
Q 62.703125 22.609375 62.703125 36.375 
Q 62.703125 50.203125 56.421875 58.203125 
Q 50.140625 66.21875 39.40625 66.21875 
M 53.21875 1.3125 
L 66.21875 -12.890625 
L 54.296875 -12.890625 
L 43.5 -1.21875 
Q 41.890625 -1.3125 41.03125 -1.359375 
Q 40.1875 -1.421875 39.40625 -1.421875 
Q 24.03125 -1.421875 14.8125 8.859375 
Q 5.609375 19.140625 5.609375 36.375 
Q 5.609375 53.65625 14.8125 63.9375 
Q 24.03125 74.21875 39.40625 74.21875 
Q 54.734375 74.21875 63.90625 63.9375 
Q 73.09375 53.65625 73.09375 36.375 
Q 73.09375 23.6875 67.984375 14.640625 
Q 62.890625 5.609375 53.21875 1.3125 
" id="BitstreamVeraSans-Roman-51"/>
      <path d="M -0.296875 72.90625 
L 61.375 72.90625 
L 61.375 64.59375 
L 35.5 64.59375 
L 35.5 0 
L 25.59375 0 
L 25.59375 64.59375 
L -0.296875 64.59375 
z
" id="BitstreamVeraSans-Roman-54"/>
      <path d="M 9.8125 72.90625 
L 19.671875 72.90625 
L 19.671875 0 
L 9.8125 0 
z
" id="BitstreamVeraSans-Roman-49"/>
      <path d="M 8.5 21.578125 
L 8.5 54.6875 
L 17.484375 54.6875 
L 17.484375 21.921875 
Q 17.484375 14.15625 20.5 10.265625 
Q 23.53125 6.390625 29.59375 6.390625 
Q 36.859375 6.390625 41.078125 11.03125 
Q 45.3125 15.671875 45.3125 23.6875 
L 45.3125 54.6875 
L 54.296875 54.6875 
L 54.296875 0 
L 45.3125 0 
L 45.3125 8.40625 
Q 42.046875 3.421875 37.71875 1 
Q 33.40625 -1.421875 27.6875 -1.421875 
Q 18.265625 -1.421875 13.375 4.4375 
Q 8.5 10.296875 8.5 21.578125 
" id="BitstreamVeraSans-Roman-75"/>
      <path d="M 18.3125 70.21875 
L 18.3125 54.6875 
L 36.8125 54.6875 
L 36.8125 47.703125 
L 18.3125 47.703125 
L 18.3125 18.015625 
Q 18.3125 11.328125 20.140625 9.421875 
Q 21.96875 7.515625 27.59375 7.515625 
L 36.8125 7.515625 
L 36.8125 0 
L 27.59375 0 
Q 17.1875 0 13.234375 3.875 
Q 9.28125 7.765625 9.28125 18.015625 
L 9.28125 47.703125 
L 2.6875 47.703125 
L 2.6875 54.6875 
L 9.28125 54.6875 
L 9.28125 70.21875 
z
" id="BitstreamVeraSans-Roman-74"/>
      <path d="M 34.28125 27.484375 
Q 23.390625 27.484375 19.1875 25 
Q 14.984375 22.515625 14.984375 16.5 
Q 14.984375 11.71875 18.140625 8.90625 
Q 21.296875 6.109375 26.703125 6.109375 
Q 34.1875 6.109375 38.703125 11.40625 
Q 43.21875 16.703125 43.21875 25.484375 
L 43.21875 27.484375 
z
M 52.203125 31.203125 
L 52.203125 0 
L 43.21875 0 
L 43.21875 8.296875 
Q 40.140625 3.328125 35.546875 0.953125 
Q 30.953125 -1.421875 24.3125 -1.421875 
Q 15.921875 -1.421875 10.953125 3.296875 
Q 6 8.015625 6 15.921875 
Q 6 25.140625 12.171875 29.828125 
Q 18.359375 34.515625 30.609375 34.515625 
L 43.21875 34.515625 
L 43.21875 35.40625 
Q 43.21875 41.609375 39.140625 45 
Q 35.0625 48.390625 27.6875 48.390625 
Q 23 48.390625 18.546875 47.265625 
Q 14.109375 46.140625 10.015625 43.890625 
L 10.015625 52.203125 
Q 14.9375 54.109375 19.578125 55.046875 
Q 24.21875 56 28.609375 56 
Q 40.484375 56 46.34375 49.84375 
Q 52.203125 43.703125 52.203125 31.203125 
" id="BitstreamVeraSans-Roman-61"/>
      <path d="M 8.015625 75.875 
L 15.828125 75.875 
Q 23.140625 64.359375 26.78125 53.3125 
Q 30.421875 42.28125 30.421875 31.390625 
Q 30.421875 20.453125 26.78125 9.375 
Q 23.140625 -1.703125 15.828125 -13.1875 
L 8.015625 -13.1875 
Q 14.5 -2 17.703125 9.0625 
Q 20.90625 20.125 20.90625 31.390625 
Q 20.90625 42.671875 17.703125 53.65625 
Q 14.5 64.65625 8.015625 75.875 
" id="BitstreamVeraSans-Roman-29"/>
      <path d="M 45.40625 46.390625 
L 45.40625 75.984375 
L 54.390625 75.984375 
L 54.390625 0 
L 45.40625 0 
L 45.40625 8.203125 
Q 42.578125 3.328125 38.25 0.953125 
Q 33.9375 -1.421875 27.875 -1.421875 
Q 17.96875 -1.421875 11.734375 6.484375 
Q 5.515625 14.40625 5.515625 27.296875 
Q 5.515625 40.1875 11.734375 48.09375 
Q 17.96875 56 27.875 56 
Q 33.9375 56 38.25 53.625 
Q 42.578125 51.265625 45.40625 46.390625 
M 14.796875 27.296875 
Q 14.796875 17.390625 18.875 11.75 
Q 22.953125 6.109375 30.078125 6.109375 
Q 37.203125 6.109375 41.296875 11.75 
Q 45.40625 17.390625 45.40625 27.296875 
Q 45.40625 37.203125 41.296875 42.84375 
Q 37.203125 48.484375 30.078125 48.484375 
Q 22.953125 48.484375 18.875 42.84375 
Q 14.796875 37.203125 14.796875 27.296875 
" id="BitstreamVeraSans-Roman-64"/>
      <path d="M 31 75.875 
Q 24.46875 64.65625 21.28125 53.65625 
Q 18.109375 42.671875 18.109375 31.390625 
Q 18.109375 20.125 21.3125 9.0625 
Q 24.515625 -2 31 -13.1875 
L 23.1875 -13.1875 
Q 15.875 -1.703125 12.234375 9.375 
Q 8.59375 20.453125 8.59375 31.390625 
Q 8.59375 42.28125 12.203125 53.3125 
Q 15.828125 64.359375 23.1875 75.875 
z
" id="BitstreamVeraSans-Roman-28"/>
      <path id="BitstreamVeraSans-Roman-20"/>
      <path d="M 54.890625 33.015625 
L 54.890625 0 
L 45.90625 0 
L 45.90625 32.71875 
Q 45.90625 40.484375 42.875 44.328125 
Q 39.84375 48.1875 33.796875 48.1875 
Q 26.515625 48.1875 22.3125 43.546875 
Q 18.109375 38.921875 18.109375 30.90625 
L 18.109375 0 
L 9.078125 0 
L 9.078125 54.6875 
L 18.109375 54.6875 
L 18.109375 46.1875 
Q 21.34375 51.125 25.703125 53.5625 
Q 30.078125 56 35.796875 56 
Q 45.21875 56 50.046875 50.171875 
Q 54.890625 44.34375 54.890625 33.015625 
" id="BitstreamVeraSans-Roman-6e"/>
      <path d="M 52 44.1875 
Q 55.375 50.25 60.0625 53.125 
Q 64.75 56 71.09375 56 
Q 79.640625 56 84.28125 50.015625 
Q 88.921875 44.046875 88.921875 33.015625 
L 88.921875 0 
L 79.890625 0 
L 79.890625 32.71875 
Q 79.890625 40.578125 77.09375 44.375 
Q 74.3125 48.1875 68.609375 48.1875 
Q 61.625 48.1875 57.5625 43.546875 
Q 53.515625 38.921875 53.515625 30.90625 
L 53.515625 0 
L 44.484375 0 
L 44.484375 32.71875 
Q 44.484375 40.625 41.703125 44.40625 
Q 38.921875 48.1875 33.109375 48.1875 
Q 26.21875 48.1875 22.15625 43.53125 
Q 18.109375 38.875 18.109375 30.90625 
L 18.109375 0 
L 9.078125 0 
L 9.078125 54.6875 
L 18.109375 54.6875 
L 18.109375 46.1875 
Q 21.1875 51.21875 25.484375 53.609375 
Q 29.78125 56 35.6875 56 
Q 41.65625 56 45.828125 52.96875 
Q 50 49.953125 52 44.1875 
" id="BitstreamVeraSans-Roman-6d"/>
      <path d="M 41.109375 46.296875 
Q 39.59375 47.171875 37.8125 47.578125 
Q 36.03125 48 33.890625 48 
Q 26.265625 48 22.1875 43.046875 
Q 18.109375 38.09375 18.109375 28.8125 
L 18.109375 0 
L 9.078125 0 
L 9.078125 54.6875 
L 18.109375 54.6875 
L 18.109375 46.1875 
Q 20.953125 51.171875 25.484375 53.578125 
Q 30.03125 56 36.53125 56 
Q 37.453125 56 38.578125 55.875 
Q 39.703125 55.765625 41.0625 55.515625 
z
" id="BitstreamVeraSans-Roman-72"/>
      <path d="M 44.390625 34.1875 
Q 47.5625 33.109375 50.5625 29.59375 
Q 53.5625 26.078125 56.59375 19.921875 
L 66.609375 0 
L 56 0 
L 46.6875 18.703125 
Q 43.0625 26.03125 39.671875 28.421875 
Q 36.28125 30.8125 30.421875 30.8125 
L 19.671875 30.8125 
L 19.671875 0 
L 9.8125 0 
L 9.8125 72.90625 
L 32.078125 72.90625 
Q 44.578125 72.90625 50.734375 67.671875 
Q 56.890625 62.453125 56.890625 51.90625 
Q 56.890625 45.015625 53.6875 40.46875 
Q 50.484375 35.9375 44.390625 34.1875 
M 19.671875 64.796875 
L 19.671875 38.921875 
L 32.078125 38.921875 
Q 39.203125 38.921875 42.84375 42.21875 
Q 46.484375 45.515625 46.484375 51.90625 
Q 46.484375 58.296875 42.84375 61.546875 
Q 39.203125 64.796875 32.078125 64.796875 
z
" id="BitstreamVeraSans-Roman-52"/>
      <path d="M 9.421875 54.6875 
L 18.40625 54.6875 
L 18.40625 0 
L 9.421875 0 
z
M 9.421875 75.984375 
L 18.40625 75.984375 
L 18.40625 64.59375 
L 9.421875 64.59375 
z
" id="BitstreamVeraSans-Roman-69"/>
      <path d="M 56.203125 29.59375 
L 56.203125 25.203125 
L 14.890625 25.203125 
Q 15.484375 15.921875 20.484375 11.0625 
Q 25.484375 6.203125 34.421875 6.203125 
Q 39.59375 6.203125 44.453125 7.46875 
Q 49.3125 8.734375 54.109375 11.28125 
L 54.109375 2.78125 
Q 49.265625 0.734375 44.1875 -0.34375 
Q 39.109375 -1.421875 33.890625 -1.421875 
Q 20.796875 -1.421875 13.15625 6.1875 
Q 5.515625 13.8125 5.515625 26.8125 
Q 5.515625 40.234375 12.765625 48.109375 
Q 20.015625 56 32.328125 56 
Q 43.359375 56 49.78125 48.890625 
Q 56.203125 41.796875 56.203125 29.59375 
M 47.21875 32.234375 
Q 47.125 39.59375 43.09375 43.984375 
Q 39.0625 48.390625 32.421875 48.390625 
Q 24.90625 48.390625 20.390625 44.140625 
Q 15.875 39.890625 15.1875 32.171875 
z
" id="BitstreamVeraSans-Roman-65"/>
      <path d="M 18.109375 8.203125 
L 18.109375 -20.796875 
L 9.078125 -20.796875 
L 9.078125 54.6875 
L 18.109375 54.6875 
L 18.109375 46.390625 
Q 20.953125 51.265625 25.265625 53.625 
Q 29.59375 56 35.59375 56 
Q 45.5625 56 51.78125 48.09375 
Q 58.015625 40.1875 58.015625 27.296875 
Q 58.015625 14.40625 51.78125 6.484375 
Q 45.5625 -1.421875 35.59375 -1.421875 
Q 29.59375 -1.421875 25.265625 0.953125 
Q 20.953125 3.328125 18.109375 8.203125 
M 48.6875 27.296875 
Q 48.6875 37.203125 44.609375 42.84375 
Q 40.53125 48.484375 33.40625 48.484375 
Q 26.265625 48.484375 22.1875 42.84375 
Q 18.109375 37.203125 18.109375 27.296875 
Q 18.109375 17.390625 22.1875 11.75 
Q 26.265625 6.109375 33.40625 6.109375 
Q 40.53125 6.109375 44.609375 11.75 
Q 48.6875 17.390625 48.6875 27.296875 
" id="BitstreamVeraSans-Roman-70"/>
      <path d="M 30.609375 48.390625 
Q 23.390625 48.390625 19.1875 42.75 
Q 14.984375 37.109375 14.984375 27.296875 
Q 14.984375 17.484375 19.15625 11.84375 
Q 23.34375 6.203125 30.609375 6.203125 
Q 37.796875 6.203125 41.984375 11.859375 
Q 46.1875 17.53125 46.1875 27.296875 
Q 46.1875 37.015625 41.984375 42.703125 
Q 37.796875 48.390625 30.609375 48.390625 
M 30.609375 56 
Q 42.328125 56 49.015625 48.375 
Q 55.71875 40.765625 55.71875 27.296875 
Q 55.71875 13.875 49.015625 6.21875 
Q 42.328125 -1.421875 30.609375 -1.421875 
Q 18.84375 -1.421875 12.171875 6.21875 
Q 5.515625 13.875 5.515625 27.296875 
Q 5.515625 40.765625 12.171875 48.375 
Q 18.84375 56 30.609375 56 
" id="BitstreamVeraSans-Roman-6f"/>
      <path d="M 44.28125 53.078125 
L 44.28125 44.578125 
Q 40.484375 46.53125 36.375 47.5 
Q 32.28125 48.484375 27.875 48.484375 
Q 21.1875 48.484375 17.84375 46.4375 
Q 14.5 44.390625 14.5 40.28125 
Q 14.5 37.15625 16.890625 35.375 
Q 19.28125 33.59375 26.515625 31.984375 
L 29.59375 31.296875 
Q 39.15625 29.25 43.1875 25.515625 
Q 47.21875 21.78125 47.21875 15.09375 
Q 47.21875 7.46875 41.1875 3.015625 
Q 35.15625 -1.421875 24.609375 -1.421875 
Q 20.21875 -1.421875 15.453125 -0.5625 
Q 10.6875 0.296875 5.421875 2 
L 5.421875 11.28125 
Q 10.40625 8.6875 15.234375 7.390625 
Q 20.0625 6.109375 24.8125 6.109375 
Q 31.15625 6.109375 34.5625 8.28125 
Q 37.984375 10.453125 37.984375 14.40625 
Q 37.984375 18.0625 35.515625 20.015625 
Q 33.0625 21.96875 24.703125 23.78125 
L 21.578125 24.515625 
Q 13.234375 26.265625 9.515625 29.90625 
Q 5.8125 33.546875 5.8125 39.890625 
Q 5.8125 47.609375 11.28125 51.796875 
Q 16.75 56 26.8125 56 
Q 31.78125 56 36.171875 55.265625 
Q 40.578125 54.546875 44.28125 53.078125 
" id="BitstreamVeraSans-Roman-73"/>
      <path d="M 25.390625 72.90625 
L 33.6875 72.90625 
L 8.296875 -9.28125 
L 0 -9.28125 
z
" id="BitstreamVeraSans-Roman-2f"/>
     </defs>
     <g transform="translate(166.19625 408.8165625)scale(0.18 -0.18)">
      <use xlink:href="#BitstreamVeraSans-Roman-54"/>
      <use x="60.865234375" xlink:href="#BitstreamVeraSans-Roman-72"/>
      <use x="101.978515625" xlink:href="#BitstreamVeraSans-Roman-61"/>
      <use x="163.2578125" xlink:href="#BitstreamVeraSans-Roman-6e"/>
      <use x="226.63671875" xlink:href="#BitstreamVeraSans-Roman-73"/>
      <use x="278.736328125" xlink:href="#BitstreamVeraSans-Roman-6c"/>
      <use x="306.51953125" xlink:href="#BitstreamVeraSans-Roman-61"/>
      <use x="367.798828125" xlink:href="#BitstreamVeraSans-Roman-74"/>
      <use x="407.0078125" xlink:href="#BitstreamVeraSans-Roman-69"/>
      <use x="434.791015625" xlink:href="#BitstreamVeraSans-Roman-6f"/>
      <use x="495.97265625" xlink:href="#BitstreamVeraSans-Roman-6e"/>
      <use x="559.3515625" xlink:href="#BitstreamVeraSans-Roman-20"/>
      <use x="591.138671875" xlink:href="#BitstreamVeraSans-Roman-73"/>
      <use x="643.23828125" xlink:href="#BitstreamVeraSans-Roman-70"/>
      <use x="706.71484375" xlink:href="#BitstreamVeraSans-Roman-65"/>
      <use x="768.23828125" xlink:href="#BitstreamVeraSans-Roman-65"/>
      <use x="829.76171875" xlink:href="#BitstreamVeraSans-Roman-64"/>
      <use x="893.23828125" xlink:href="#BitstreamVeraSans-Roman-20"/>
      <use x="925.025390625" xlink:href="#BitstreamVeraSans-Roman-49"/>
      <use x="954.517578125" xlink:href="#BitstreamVeraSans-Roman-52"/>
      <use x="1024.0" xlink:href="#BitstreamVeraSans-Roman-51"/>
      <use x="1102.7109375" xlink:href="#BitstreamVeraSans-Roman-20"/>
      <use x="1134.498046875" xlink:href="#BitstreamVeraSans-Roman-28"/>
      <use x="1173.51171875" xlink:href="#BitstreamVeraSans-Roman-75"/>
      <use x="1236.890625" xlink:href="#BitstreamVeraSans-Roman-6d"/>
      <use x="1334.302734375" xlink:href="#BitstreamVeraSans-Roman-2f"/>
      <use x="1367.994140625" xlink:href="#BitstreamVeraSans-Roman-6d"/>
      <use x="1465.40625" xlink:href="#BitstreamVeraSans-Roman-69"/>
      <use x="1493.189453125" xlink:href="#BitstreamVeraSans-Roman-6e"/>
      <use x="1556.568359375" xlink:href="#BitstreamVeraSans-Roman-29"/>
     </g>
    </g>
   </g>
   <g id="matplotlib.axis_2">
    <g id="ytick_1">
     <g id="line2d_34">
      <path clip-path="url(#p76eaa31617)" d="M 74.48625 368.71875 
L 545.1075 368.71875 
" style="fill:none;stroke:#000000;stroke-dasharray:1.000000,3.000000;stroke-dashoffset:0.0;stroke-width:2.0;"/>
     </g>
     <g id="line2d_35">
      <defs>
       <path d="M 0 0 
L 4 0 
" id="m66ef7ab862" style="stroke:#000000;stroke-width:0.5;"/>
      </defs>
      <g>
       <use style="stroke:#000000;stroke-width:0.5;" x="74.48625" xlink:href="#m66ef7ab862" y="368.71875"/>
      </g>
     </g>
     <g id="line2d_36">
      <defs>
       <path d="M 0 0 
L -4 0 
" id="m4c6e55bb68" style="stroke:#000000;stroke-width:0.5;"/>
      </defs>
      <g>
       <use style="stroke:#000000;stroke-width:0.5;" x="545.1075" xlink:href="#m4c6e55bb68" y="368.71875"/>
      </g>
     </g>
     <g id="text_12">
      <!-- 0.0 -->
      <defs>
       <path d="M 10.6875 12.40625 
L 21 12.40625 
L 21 0 
L 10.6875 0 
z
" id="BitstreamVeraSans-Roman-2e"/>
      </defs>
      <g transform="translate(41.860625 373.685625)scale(0.18 -0.18)">
       <use xlink:href="#BitstreamVeraSans-Roman-30"/>
       <use x="63.623046875" xlink:href="#BitstreamVeraSans-Roman-2e"/>
       <use x="95.41015625" xlink:href="#BitstreamVeraSans-Roman-30"/>
      </g>
     </g>
    </g>
    <g id="ytick_2">
     <g id="line2d_37">
      <path clip-path="url(#p76eaa31617)" d="M 74.48625 303.145525 
L 545.1075 303.145525 
" style="fill:none;stroke:#000000;stroke-dasharray:1.000000,3.000000;stroke-dashoffset:0.0;stroke-width:2.0;"/>
     </g>
     <g id="line2d_38">
      <g>
       <use style="stroke:#000000;stroke-width:0.5;" x="74.48625" xlink:href="#m66ef7ab862" y="303.145525"/>
      </g>
     </g>
     <g id="line2d_39">
      <g>
       <use style="stroke:#000000;stroke-width:0.5;" x="545.1075" xlink:href="#m4c6e55bb68" y="303.145525"/>
      </g>
     </g>
     <g id="text_13">
      <!-- 0.2 -->
      <g transform="translate(41.860625 308.1124)scale(0.18 -0.18)">
       <use xlink:href="#BitstreamVeraSans-Roman-30"/>
       <use x="63.623046875" xlink:href="#BitstreamVeraSans-Roman-2e"/>
       <use x="95.41015625" xlink:href="#BitstreamVeraSans-Roman-32"/>
      </g>
     </g>
    </g>
    <g id="ytick_3">
     <g id="line2d_40">
      <path clip-path="url(#p76eaa31617)" d="M 74.48625 237.5723 
L 545.1075 237.5723 
" style="fill:none;stroke:#000000;stroke-dasharray:1.000000,3.000000;stroke-dashoffset:0.0;stroke-width:2.0;"/>
     </g>
     <g id="line2d_41">
      <g>
       <use style="stroke:#000000;stroke-width:0.5;" x="74.48625" xlink:href="#m66ef7ab862" y="237.5723"/>
      </g>
     </g>
     <g id="line2d_42">
      <g>
       <use style="stroke:#000000;stroke-width:0.5;" x="545.1075" xlink:href="#m4c6e55bb68" y="237.5723"/>
      </g>
     </g>
     <g id="text_14">
      <!-- 0.4 -->
      <g transform="translate(41.860625 242.539175)scale(0.18 -0.18)">
       <use xlink:href="#BitstreamVeraSans-Roman-30"/>
       <use x="63.623046875" xlink:href="#BitstreamVeraSans-Roman-2e"/>
       <use x="95.41015625" xlink:href="#BitstreamVeraSans-Roman-34"/>
      </g>
     </g>
    </g>
    <g id="ytick_4">
     <g id="line2d_43">
      <path clip-path="url(#p76eaa31617)" d="M 74.48625 171.999075 
L 545.1075 171.999075 
" style="fill:none;stroke:#000000;stroke-dasharray:1.000000,3.000000;stroke-dashoffset:0.0;stroke-width:2.0;"/>
     </g>
     <g id="line2d_44">
      <g>
       <use style="stroke:#000000;stroke-width:0.5;" x="74.48625" xlink:href="#m66ef7ab862" y="171.999075"/>
      </g>
     </g>
     <g id="line2d_45">
      <g>
       <use style="stroke:#000000;stroke-width:0.5;" x="545.1075" xlink:href="#m4c6e55bb68" y="171.999075"/>
      </g>
     </g>
     <g id="text_15">
      <!-- 0.6 -->
      <defs>
       <path d="M 33.015625 40.375 
Q 26.375 40.375 22.484375 35.828125 
Q 18.609375 31.296875 18.609375 23.390625 
Q 18.609375 15.53125 22.484375 10.953125 
Q 26.375 6.390625 33.015625 6.390625 
Q 39.65625 6.390625 43.53125 10.953125 
Q 47.40625 15.53125 47.40625 23.390625 
Q 47.40625 31.296875 43.53125 35.828125 
Q 39.65625 40.375 33.015625 40.375 
M 52.59375 71.296875 
L 52.59375 62.3125 
Q 48.875 64.0625 45.09375 64.984375 
Q 41.3125 65.921875 37.59375 65.921875 
Q 27.828125 65.921875 22.671875 59.328125 
Q 17.53125 52.734375 16.796875 39.40625 
Q 19.671875 43.65625 24.015625 45.921875 
Q 28.375 48.1875 33.59375 48.1875 
Q 44.578125 48.1875 50.953125 41.515625 
Q 57.328125 34.859375 57.328125 23.390625 
Q 57.328125 12.15625 50.6875 5.359375 
Q 44.046875 -1.421875 33.015625 -1.421875 
Q 20.359375 -1.421875 13.671875 8.265625 
Q 6.984375 17.96875 6.984375 36.375 
Q 6.984375 53.65625 15.1875 63.9375 
Q 23.390625 74.21875 37.203125 74.21875 
Q 40.921875 74.21875 44.703125 73.484375 
Q 48.484375 72.75 52.59375 71.296875 
" id="BitstreamVeraSans-Roman-36"/>
      </defs>
      <g transform="translate(41.860625 176.96595)scale(0.18 -0.18)">
       <use xlink:href="#BitstreamVeraSans-Roman-30"/>
       <use x="63.623046875" xlink:href="#BitstreamVeraSans-Roman-2e"/>
       <use x="95.41015625" xlink:href="#BitstreamVeraSans-Roman-36"/>
      </g>
     </g>
    </g>
    <g id="ytick_5">
     <g id="line2d_46">
      <path clip-path="url(#p76eaa31617)" d="M 74.48625 106.42585 
L 545.1075 106.42585 
" style="fill:none;stroke:#000000;stroke-dasharray:1.000000,3.000000;stroke-dashoffset:0.0;stroke-width:2.0;"/>
     </g>
     <g id="line2d_47">
      <g>
       <use style="stroke:#000000;stroke-width:0.5;" x="74.48625" xlink:href="#m66ef7ab862" y="106.42585"/>
      </g>
     </g>
     <g id="line2d_48">
      <g>
       <use style="stroke:#000000;stroke-width:0.5;" x="545.1075" xlink:href="#m4c6e55bb68" y="106.42585"/>
      </g>
     </g>
     <g id="text_16">
      <!-- 0.8 -->
      <defs>
       <path d="M 31.78125 34.625 
Q 24.75 34.625 20.71875 30.859375 
Q 16.703125 27.09375 16.703125 20.515625 
Q 16.703125 13.921875 20.71875 10.15625 
Q 24.75 6.390625 31.78125 6.390625 
Q 38.8125 6.390625 42.859375 10.171875 
Q 46.921875 13.96875 46.921875 20.515625 
Q 46.921875 27.09375 42.890625 30.859375 
Q 38.875 34.625 31.78125 34.625 
M 21.921875 38.8125 
Q 15.578125 40.375 12.03125 44.71875 
Q 8.5 49.078125 8.5 55.328125 
Q 8.5 64.0625 14.71875 69.140625 
Q 20.953125 74.21875 31.78125 74.21875 
Q 42.671875 74.21875 48.875 69.140625 
Q 55.078125 64.0625 55.078125 55.328125 
Q 55.078125 49.078125 51.53125 44.71875 
Q 48 40.375 41.703125 38.8125 
Q 48.828125 37.15625 52.796875 32.3125 
Q 56.78125 27.484375 56.78125 20.515625 
Q 56.78125 9.90625 50.3125 4.234375 
Q 43.84375 -1.421875 31.78125 -1.421875 
Q 19.734375 -1.421875 13.25 4.234375 
Q 6.78125 9.90625 6.78125 20.515625 
Q 6.78125 27.484375 10.78125 32.3125 
Q 14.796875 37.15625 21.921875 38.8125 
M 18.3125 54.390625 
Q 18.3125 48.734375 21.84375 45.5625 
Q 25.390625 42.390625 31.78125 42.390625 
Q 38.140625 42.390625 41.71875 45.5625 
Q 45.3125 48.734375 45.3125 54.390625 
Q 45.3125 60.0625 41.71875 63.234375 
Q 38.140625 66.40625 31.78125 66.40625 
Q 25.390625 66.40625 21.84375 63.234375 
Q 18.3125 60.0625 18.3125 54.390625 
" id="BitstreamVeraSans-Roman-38"/>
      </defs>
      <g transform="translate(41.860625 111.392725)scale(0.18 -0.18)">
       <use xlink:href="#BitstreamVeraSans-Roman-30"/>
       <use x="63.623046875" xlink:href="#BitstreamVeraSans-Roman-2e"/>
       <use x="95.41015625" xlink:href="#BitstreamVeraSans-Roman-38"/>
      </g>
     </g>
    </g>
    <g id="ytick_6">
     <g id="line2d_49">
      <path clip-path="url(#p76eaa31617)" d="M 74.48625 40.852625 
L 545.1075 40.852625 
" style="fill:none;stroke:#000000;stroke-dasharray:1.000000,3.000000;stroke-dashoffset:0.0;stroke-width:2.0;"/>
     </g>
     <g id="line2d_50">
      <g>
       <use style="stroke:#000000;stroke-width:0.5;" x="74.48625" xlink:href="#m66ef7ab862" y="40.852625"/>
      </g>
     </g>
     <g id="line2d_51">
      <g>
       <use style="stroke:#000000;stroke-width:0.5;" x="545.1075" xlink:href="#m4c6e55bb68" y="40.852625"/>
      </g>
     </g>
     <g id="text_17">
      <!-- 1.0 -->
      <g transform="translate(41.860625 45.8195)scale(0.18 -0.18)">
       <use xlink:href="#BitstreamVeraSans-Roman-31"/>
       <use x="63.623046875" xlink:href="#BitstreamVeraSans-Roman-2e"/>
       <use x="95.41015625" xlink:href="#BitstreamVeraSans-Roman-30"/>
      </g>
     </g>
    </g>
    <g id="text_18">
     <!-- Proportion -->
     <defs>
      <path d="M 19.671875 64.796875 
L 19.671875 37.40625 
L 32.078125 37.40625 
Q 38.96875 37.40625 42.71875 40.96875 
Q 46.484375 44.53125 46.484375 51.125 
Q 46.484375 57.671875 42.71875 61.234375 
Q 38.96875 64.796875 32.078125 64.796875 
z
M 9.8125 72.90625 
L 32.078125 72.90625 
Q 44.34375 72.90625 50.609375 67.359375 
Q 56.890625 61.8125 56.890625 51.125 
Q 56.890625 40.328125 50.609375 34.8125 
Q 44.34375 29.296875 32.078125 29.296875 
L 19.671875 29.296875 
L 19.671875 0 
L 9.8125 0 
z
" id="BitstreamVeraSans-Roman-50"/>
     </defs>
     <g transform="translate(33.1171875 251.5744375)rotate(-90.0)scale(0.18 -0.18)">
      <use xlink:href="#BitstreamVeraSans-Roman-50"/>
      <use x="60.287109375" xlink:href="#BitstreamVeraSans-Roman-72"/>
      <use x="101.369140625" xlink:href="#BitstreamVeraSans-Roman-6f"/>
      <use x="162.55078125" xlink:href="#BitstreamVeraSans-Roman-70"/>
      <use x="226.02734375" xlink:href="#BitstreamVeraSans-Roman-6f"/>
      <use x="287.208984375" xlink:href="#BitstreamVeraSans-Roman-72"/>
      <use x="328.322265625" xlink:href="#BitstreamVeraSans-Roman-74"/>
      <use x="367.53125" xlink:href="#BitstreamVeraSans-Roman-69"/>
      <use x="395.314453125" xlink:href="#BitstreamVeraSans-Roman-6f"/>
      <use x="456.49609375" xlink:href="#BitstreamVeraSans-Roman-6e"/>
     </g>
    </g>
   </g>
   <g id="text_19">
    <!-- Track Translation Speed IRQs -->
    <defs>
     <path d="M 9.078125 75.984375 
L 18.109375 75.984375 
L 18.109375 31.109375 
L 44.921875 54.6875 
L 56.390625 54.6875 
L 27.390625 29.109375 
L 57.625 0 
L 45.90625 0 
L 18.109375 26.703125 
L 18.109375 0 
L 9.078125 0 
z
" id="BitstreamVeraSans-Roman-6b"/>
     <path d="M 53.515625 70.515625 
L 53.515625 60.890625 
Q 47.90625 63.578125 42.921875 64.890625 
Q 37.9375 66.21875 33.296875 66.21875 
Q 25.25 66.21875 20.875 63.09375 
Q 16.5 59.96875 16.5 54.203125 
Q 16.5 49.359375 19.40625 46.890625 
Q 22.3125 44.4375 30.421875 42.921875 
L 36.375 41.703125 
Q 47.40625 39.59375 52.65625 34.296875 
Q 57.90625 29 57.90625 20.125 
Q 57.90625 9.515625 50.796875 4.046875 
Q 43.703125 -1.421875 29.984375 -1.421875 
Q 24.8125 -1.421875 18.96875 -0.25 
Q 13.140625 0.921875 6.890625 3.21875 
L 6.890625 13.375 
Q 12.890625 10.015625 18.65625 8.296875 
Q 24.421875 6.59375 29.984375 6.59375 
Q 38.421875 6.59375 43.015625 9.90625 
Q 47.609375 13.234375 47.609375 19.390625 
Q 47.609375 24.75 44.3125 27.78125 
Q 41.015625 30.8125 33.5 32.328125 
L 27.484375 33.5 
Q 16.453125 35.6875 11.515625 40.375 
Q 6.59375 45.0625 6.59375 53.421875 
Q 6.59375 63.09375 13.40625 68.65625 
Q 20.21875 74.21875 32.171875 74.21875 
Q 37.3125 74.21875 42.625 73.28125 
Q 47.953125 72.359375 53.515625 70.515625 
" id="BitstreamVeraSans-Roman-53"/>
     <path d="M 48.78125 52.59375 
L 48.78125 44.1875 
Q 44.96875 46.296875 41.140625 47.34375 
Q 37.3125 48.390625 33.40625 48.390625 
Q 24.65625 48.390625 19.8125 42.84375 
Q 14.984375 37.3125 14.984375 27.296875 
Q 14.984375 17.28125 19.8125 11.734375 
Q 24.65625 6.203125 33.40625 6.203125 
Q 37.3125 6.203125 41.140625 7.25 
Q 44.96875 8.296875 48.78125 10.40625 
L 48.78125 2.09375 
Q 45.015625 0.34375 40.984375 -0.53125 
Q 36.96875 -1.421875 32.421875 -1.421875 
Q 20.0625 -1.421875 12.78125 6.34375 
Q 5.515625 14.109375 5.515625 27.296875 
Q 5.515625 40.671875 12.859375 48.328125 
Q 20.21875 56 33.015625 56 
Q 37.15625 56 41.109375 55.140625 
Q 45.0625 54.296875 48.78125 52.59375 
" id="BitstreamVeraSans-Roman-63"/>
    </defs>
    <g transform="translate(150.591375 35.852625)scale(0.21599999999999997 -0.21599999999999997)">
     <use xlink:href="#BitstreamVeraSans-Roman-54"/>
     <use x="60.865234375" xlink:href="#BitstreamVeraSans-Roman-72"/>
     <use x="101.978515625" xlink:href="#BitstreamVeraSans-Roman-61"/>
     <use x="163.2578125" xlink:href="#BitstreamVeraSans-Roman-63"/>
     <use x="218.23828125" xlink:href="#BitstreamVeraSans-Roman-6b"/>
     <use x="276.1484375" xlink:href="#BitstreamVeraSans-Roman-20"/>
     <use x="307.935546875" xlink:href="#BitstreamVeraSans-Roman-54"/>
     <use x="368.80078125" xlink:href="#BitstreamVeraSans-Roman-72"/>
     <use x="409.9140625" xlink:href="#BitstreamVeraSans-Roman-61"/>
     <use x="471.193359375" xlink:href="#BitstreamVeraSans-Roman-6e"/>
     <use x="534.572265625" xlink:href="#BitstreamVeraSans-Roman-73"/>
     <use x="586.671875" xlink:href="#BitstreamVeraSans-Roman-6c"/>
     <use x="614.455078125" xlink:href="#BitstreamVeraSans-Roman-61"/>
     <use x="675.734375" xlink:href="#BitstreamVeraSans-Roman-74"/>
     <use x="714.943359375" xlink:href="#BitstreamVeraSans-Roman-69"/>
     <use x="742.7265625" xlink:href="#BitstreamVeraSans-Roman-6f"/>
     <use x="803.908203125" xlink:href="#BitstreamVeraSans-Roman-6e"/>
     <use x="867.287109375" xlink:href="#BitstreamVeraSans-Roman-20"/>
     <use x="899.07421875" xlink:href="#BitstreamVeraSans-Roman-53"/>
     <use x="962.55078125" xlink:href="#BitstreamVeraSans-Roman-70"/>
     <use x="1026.02734375" xlink:href="#BitstreamVeraSans-Roman-65"/>
     <use x="1087.55078125" xlink:href="#BitstreamVeraSans-Roman-65"/>
     <use x="1149.07421875" xlink:href="#BitstreamVeraSans-Roman-64"/>
     <use x="1212.55078125" xlink:href="#BitstreamVeraSans-Roman-20"/>
     <use x="1244.337890625" xlink:href="#BitstreamVeraSans-Roman-49"/>
     <use x="1273.830078125" xlink:href="#BitstreamVeraSans-Roman-52"/>
     <use x="1343.3125" xlink:href="#BitstreamVeraSans-Roman-51"/>
     <use x="1422.0234375" xlink:href="#BitstreamVeraSans-Roman-73"/>
    </g>
   </g>
   <g id="legend_1">
    <g id="patch_7">
     <path d="M 359.5095 357.91875 
L 534.3075 357.91875 
L 534.3075 256.3245 
L 359.5095 256.3245 
z
" style="fill:#ffffff;stroke:#000000;stroke-linejoin:miter;"/>
    </g>
    <g id="line2d_52">
     <path d="M 374.6295 273.817125 
L 404.8695 273.817125 
" style="fill:none;stroke:#0000ff;stroke-linecap:square;stroke-width:2.0;"/>
    </g>
    <g id="line2d_53"/>
    <g id="text_20">
     <!-- Levy -->
     <defs>
      <path d="M 2.984375 54.6875 
L 12.5 54.6875 
L 29.59375 8.796875 
L 46.6875 54.6875 
L 56.203125 54.6875 
L 35.6875 0 
L 23.484375 0 
z
" id="BitstreamVeraSans-Roman-76"/>
      <path d="M 32.171875 -5.078125 
Q 28.375 -14.84375 24.75 -17.8125 
Q 21.140625 -20.796875 15.09375 -20.796875 
L 7.90625 -20.796875 
L 7.90625 -13.28125 
L 13.1875 -13.28125 
Q 16.890625 -13.28125 18.9375 -11.515625 
Q 21 -9.765625 23.484375 -3.21875 
L 25.09375 0.875 
L 2.984375 54.6875 
L 12.5 54.6875 
L 29.59375 11.921875 
L 46.6875 54.6875 
L 56.203125 54.6875 
z
" id="BitstreamVeraSans-Roman-79"/>
      <path d="M 9.8125 72.90625 
L 19.671875 72.90625 
L 19.671875 8.296875 
L 55.171875 8.296875 
L 55.171875 0 
L 9.8125 0 
z
" id="BitstreamVeraSans-Roman-4c"/>
     </defs>
     <g transform="translate(428.6295 281.377125)scale(0.21599999999999997 -0.21599999999999997)">
      <use xlink:href="#BitstreamVeraSans-Roman-4c"/>
      <use x="55.697265625" xlink:href="#BitstreamVeraSans-Roman-65"/>
      <use x="117.220703125" xlink:href="#BitstreamVeraSans-Roman-76"/>
      <use x="176.400390625" xlink:href="#BitstreamVeraSans-Roman-79"/>
     </g>
    </g>
    <g id="line2d_54">
     <path d="M 374.6295 305.521875 
L 404.8695 305.521875 
" style="fill:none;stroke:#008000;stroke-linecap:square;stroke-width:2.0;"/>
    </g>
    <g id="line2d_55"/>
    <g id="text_21">
     <!-- CRW -->
     <defs>
      <path d="M 64.40625 67.28125 
L 64.40625 56.890625 
Q 59.421875 61.53125 53.78125 63.8125 
Q 48.140625 66.109375 41.796875 66.109375 
Q 29.296875 66.109375 22.65625 58.46875 
Q 16.015625 50.828125 16.015625 36.375 
Q 16.015625 21.96875 22.65625 14.328125 
Q 29.296875 6.6875 41.796875 6.6875 
Q 48.140625 6.6875 53.78125 8.984375 
Q 59.421875 11.28125 64.40625 15.921875 
L 64.40625 5.609375 
Q 59.234375 2.09375 53.4375 0.328125 
Q 47.65625 -1.421875 41.21875 -1.421875 
Q 24.65625 -1.421875 15.125 8.703125 
Q 5.609375 18.84375 5.609375 36.375 
Q 5.609375 53.953125 15.125 64.078125 
Q 24.65625 74.21875 41.21875 74.21875 
Q 47.75 74.21875 53.53125 72.484375 
Q 59.328125 70.75 64.40625 67.28125 
" id="BitstreamVeraSans-Roman-43"/>
      <path d="M 3.328125 72.90625 
L 13.28125 72.90625 
L 28.609375 11.28125 
L 43.890625 72.90625 
L 54.984375 72.90625 
L 70.3125 11.28125 
L 85.59375 72.90625 
L 95.609375 72.90625 
L 77.296875 0 
L 64.890625 0 
L 49.515625 63.28125 
L 33.984375 0 
L 21.578125 0 
z
" id="BitstreamVeraSans-Roman-57"/>
     </defs>
     <g transform="translate(428.6295 313.081875)scale(0.21599999999999997 -0.21599999999999997)">
      <use xlink:href="#BitstreamVeraSans-Roman-43"/>
      <use x="69.82421875" xlink:href="#BitstreamVeraSans-Roman-52"/>
      <use x="139.244140625" xlink:href="#BitstreamVeraSans-Roman-57"/>
     </g>
    </g>
    <g id="line2d_56">
     <path d="M 374.6295 337.226625 
L 404.8695 337.226625 
" style="fill:none;stroke:#ff0000;stroke-linecap:square;stroke-width:2.0;"/>
    </g>
    <g id="line2d_57"/>
    <g id="text_22">
     <!-- CRW 50s -->
     <g transform="translate(428.6295 344.786625)scale(0.21599999999999997 -0.21599999999999997)">
      <use xlink:href="#BitstreamVeraSans-Roman-43"/>
      <use x="69.82421875" xlink:href="#BitstreamVeraSans-Roman-52"/>
      <use x="139.244140625" xlink:href="#BitstreamVeraSans-Roman-57"/>
      <use x="238.12109375" xlink:href="#BitstreamVeraSans-Roman-20"/>
      <use x="269.908203125" xlink:href="#BitstreamVeraSans-Roman-35"/>
      <use x="333.53125" xlink:href="#BitstreamVeraSans-Roman-30"/>
      <use x="397.154296875" xlink:href="#BitstreamVeraSans-Roman-73"/>
     </g>
    </g>
   </g>
  </g>
 </g>
 <defs>
  <clipPath id="p76eaa31617">
   <rect height="327.866125" width="470.62125" x="74.48625" y="40.852625"/>
  </clipPath>
 </defs>
</svg>
