<?xml version="1.0" encoding="utf-8" standalone="no"?>
<!DOCTYPE svg PUBLIC "-//W3C//DTD SVG 1.1//EN"
  "http://www.w3.org/Graphics/SVG/1.1/DTD/svg11.dtd">
<!-- Created with matplotlib (http://matplotlib.org/) -->
<svg height="432pt" version="1.1" viewBox="0 0 576 432" width="576pt" xmlns="http://www.w3.org/2000/svg" xmlns:xlink="http://www.w3.org/1999/xlink">
 <defs>
  <style type="text/css">
*{stroke-linecap:butt;stroke-linejoin:round;stroke-miterlimit:100000;}
  </style>
 </defs>
 <g id="figure_1">
  <g id="patch_1">
   <path d="M 0 432 
L 576 432 
L 576 0 
L 0 0 
z
" style="fill:#ffffff;"/>
  </g>
  <g id="axes_1">
   <g id="patch_2">
    <path d="M 74.48625 368.71875 
L 539.38125 368.71875 
L 539.38125 40.852625 
L 74.48625 40.852625 
z
" style="fill:#ffffff;"/>
   </g>
   <g id="line2d_1">
    <path clip-path="url(#pe6de433841)" d="M 74.48625 368.71875 
L 74.48625 362.609443 
L 77.215251 361.591226 
L 84.004006 360.573008 
L 102.354951 359.55479 
L 115.291371 358.536572 
L 119.000859 357.518354 
L 137.32331 356.500137 
L 143.091846 355.481919 
L 143.413769 354.463701 
L 149.313129 353.445483 
L 159.673039 352.427266 
L 160.107152 351.409048 
L 160.151424 350.39083 
L 170.627969 349.372612 
L 175.303057 347.336177 
L 181.058412 346.317959 
L 184.101299 344.281523 
L 184.596911 343.263306 
L 189.331348 342.245088 
L 189.331961 341.22687 
L 189.800013 340.208652 
L 199.634042 339.190434 
L 200.79014 338.172217 
L 201.138517 337.153999 
L 201.812577 336.135781 
L 204.853942 335.117563 
L 205.195986 334.099345 
L 205.721435 333.081128 
L 212.658806 332.06291 
L 213.049598 331.044692 
L 214.194247 329.008257 
L 215.619803 327.990039 
L 218.585587 326.971821 
L 218.648516 325.953603 
L 219.151509 324.935385 
L 221.300602 323.917168 
L 222.239009 322.89895 
L 222.272789 321.880732 
L 223.994124 320.862514 
L 229.155489 319.844297 
L 230.496889 318.826079 
L 234.565972 317.807861 
L 237.621754 316.789643 
L 238.260812 315.771425 
L 240.333722 314.753208 
L 240.399272 313.73499 
L 242.119964 312.716772 
L 245.001644 311.698554 
L 246.826331 310.680337 
L 247.187675 309.662119 
L 249.087452 308.643901 
L 249.305586 306.607465 
L 251.124182 305.589248 
L 254.416698 304.57103 
L 255.728116 302.534594 
L 256.868581 301.516377 
L 257.31066 300.498159 
L 258.307965 299.479941 
L 258.396407 298.461723 
L 259.722677 297.443505 
L 260.524879 296.425288 
L 264.104657 295.40707 
L 264.186382 294.388852 
L 264.91594 292.352417 
L 265.111806 291.334199 
L 267.000226 290.315981 
L 267.006314 289.297763 
L 268.651921 288.279545 
L 269.862524 287.261328 
L 270.843106 285.224892 
L 270.973126 284.206674 
L 271.77895 283.188457 
L 271.80235 282.170239 
L 272.233614 281.152021 
L 273.384258 280.133803 
L 273.417322 279.115585 
L 277.036237 278.097368 
L 277.041876 277.07915 
L 278.419715 276.060932 
L 278.779291 274.024497 
L 279.309976 273.006279 
L 282.014698 271.988061 
L 282.124562 270.969843 
L 282.378031 269.951625 
L 282.886548 266.896972 
L 284.912131 265.878754 
L 285.331423 264.860536 
L 285.361232 262.824101 
L 285.531799 261.805883 
L 286.351056 260.787665 
L 286.767183 258.75123 
L 286.820956 257.733012 
L 287.334336 256.714794 
L 287.524398 255.696576 
L 287.529859 254.678359 
L 288.668684 253.660141 
L 288.78613 252.641923 
L 289.65272 251.623705 
L 290.517479 249.58727 
L 290.721837 248.569052 
L 292.083964 247.550834 
L 293.065626 242.459745 
L 294.492211 241.441528 
L 294.974028 240.42331 
L 295.3919 238.386874 
L 295.470569 237.368656 
L 295.875883 236.350439 
L 295.889059 235.332221 
L 297.30216 234.314003 
L 297.466227 233.295785 
L 299.515736 232.277568 
L 300.331217 231.25935 
L 300.863357 230.241132 
L 302.403051 229.222914 
L 302.759059 228.204696 
L 302.894022 227.186479 
L 304.244014 225.150043 
L 306.459377 224.131825 
L 306.792323 223.113608 
L 306.931722 222.09539 
L 307.462507 221.077172 
L 307.867434 220.058954 
L 308.334011 214.967865 
L 308.856917 212.93143 
L 309.451484 211.913212 
L 309.534608 210.894994 
L 311.755847 209.876776 
L 313.651953 208.858559 
L 314.147387 205.803905 
L 316.885099 203.76747 
L 317.404454 202.749252 
L 318.308095 201.731034 
L 319.846075 200.712816 
L 320.095189 198.676381 
L 320.544715 197.658163 
L 321.322772 196.639945 
L 321.721893 195.621727 
L 322.277651 194.60351 
L 322.549692 193.585292 
L 322.62846 192.567074 
L 323.158053 189.512421 
L 323.499004 187.475985 
L 324.090262 186.457767 
L 324.238305 185.43955 
L 324.78871 183.403114 
L 325.028578 179.330243 
L 325.267787 178.312025 
L 325.323627 177.293807 
L 325.963701 176.27559 
L 326.079345 175.257372 
L 326.571861 174.239154 
L 326.837981 173.220936 
L 327.169235 171.184501 
L 328.720527 169.148065 
L 329.143273 168.129847 
L 329.321816 163.038759 
L 329.900461 162.020541 
L 330.652482 161.002323 
L 332.130346 159.984105 
L 332.162856 158.965887 
L 333.095244 155.911234 
L 333.169561 154.893016 
L 333.658129 152.856581 
L 333.882691 151.838363 
L 333.897246 150.820145 
L 334.775727 149.801927 
L 335.008352 148.78371 
L 336.572185 146.747274 
L 337.261383 145.729056 
L 337.607382 144.710839 
L 337.75835 143.692621 
L 338.654956 141.656185 
L 339.214273 140.637967 
L 340.080992 138.601532 
L 340.132514 137.583314 
L 340.762541 135.546878 
L 341.67839 133.510443 
L 341.78838 132.492225 
L 342.453323 131.474007 
L 342.726207 130.45579 
L 343.265586 129.437572 
L 343.446802 127.401136 
L 345.094836 124.346483 
L 345.488593 122.310047 
L 345.5306 121.29183 
L 346.073729 120.273612 
L 346.25012 119.255394 
L 346.782503 118.237176 
L 346.972905 117.218958 
L 347.794493 116.200741 
L 348.445974 114.164305 
L 348.792366 113.146087 
L 349.498131 112.12787 
L 349.721264 111.109652 
L 352.25598 110.091434 
L 352.280112 109.073216 
L 352.943262 107.036781 
L 353.128365 106.018563 
L 356.520597 105.000345 
L 356.767296 103.982127 
L 356.883516 102.96391 
L 357.39595 101.945692 
L 357.480265 100.927474 
L 357.767967 99.909256 
L 358.718539 98.891038 
L 358.727795 96.854603 
L 360.030457 95.836385 
L 360.208399 94.818167 
L 360.817431 92.781732 
L 362.162333 91.763514 
L 362.510338 89.727078 
L 363.027649 88.708861 
L 363.704829 87.690643 
L 364.671206 86.672425 
L 366.819686 85.654207 
L 366.978767 84.63599 
L 367.386743 83.617772 
L 368.023747 82.599554 
L 368.138462 81.581336 
L 369.302634 80.563118 
L 370.28537 79.544901 
L 370.7642 78.526683 
L 372.829605 77.508465 
L 373.558155 76.490247 
L 373.805135 75.47203 
L 374.24729 74.453812 
L 374.275119 72.417376 
L 374.923465 71.399158 
L 375.97006 68.344505 
L 377.071553 67.326287 
L 379.789738 66.308069 
L 380.943841 65.289852 
L 381.804174 64.271634 
L 381.894918 63.253416 
L 385.338503 61.216981 
L 387.929488 60.198763 
L 389.717118 58.162327 
L 390.497493 56.125892 
L 394.719895 55.107674 
L 396.790192 54.089456 
L 399.351525 53.071238 
L 400.13257 52.053021 
L 400.29693 51.034803 
L 400.582539 50.016585 
L 402.920207 48.998367 
L 404.080995 47.980149 
L 414.613792 46.961932 
L 421.45546 44.925496 
L 421.601278 43.907278 
L 424.701887 42.889061 
L 427.421376 41.870843 
L 499.699339 40.852625 
L 499.699339 40.852625 
" style="fill:none;stroke:#0000ff;stroke-linecap:square;stroke-width:2.0;"/>
   </g>
   <g id="line2d_2">
    <path clip-path="url(#pe6de433841)" d="M 74.48625 368.71875 
L 74.48625 357.237057 
L 88.153318 355.961313 
L 97.510971 354.68557 
L 104.7849 353.409826 
L 105.566228 352.134082 
L 115.291346 350.858339 
L 121.146595 349.582595 
L 122.127335 348.306851 
L 125.651894 347.031107 
L 127.659405 345.755364 
L 128.195524 344.47962 
L 130.087183 343.203876 
L 132.864535 341.928133 
L 133.9738 340.652389 
L 134.352374 339.376645 
L 140.403419 338.100902 
L 141.77098 336.825158 
L 152.101103 335.549414 
L 157.282201 334.273671 
L 159.260906 332.997927 
L 162.70334 331.722183 
L 164.659603 330.44644 
L 165.950165 329.170696 
L 166.100425 327.894952 
L 168.586641 326.619209 
L 169.015888 325.343465 
L 172.805576 324.067721 
L 174.763655 322.791978 
L 177.618481 321.516234 
L 178.818398 320.24049 
L 182.120786 318.964747 
L 183.345502 317.689003 
L 184.412112 316.413259 
L 185.301512 315.137516 
L 185.566216 313.861772 
L 189.842278 312.586028 
L 193.704844 311.310285 
L 197.141256 310.034541 
L 197.730668 308.758797 
L 198.841085 307.483054 
L 205.68248 306.20731 
L 206.495952 304.931566 
L 207.084294 303.655822 
L 207.445195 302.380079 
L 209.130913 301.104335 
L 209.225702 298.552848 
L 209.430256 297.277104 
L 211.709872 296.00136 
L 212.208619 294.725617 
L 212.835725 293.449873 
L 213.325845 292.174129 
L 213.631238 290.898386 
L 214.424941 289.622642 
L 215.07046 288.346898 
L 215.086076 287.071155 
L 215.689265 285.795411 
L 216.082226 284.519667 
L 217.648267 283.243924 
L 217.917688 280.692436 
L 218.887815 279.416693 
L 219.475663 278.140949 
L 219.660994 276.865205 
L 220.32393 275.589462 
L 220.731514 274.313718 
L 221.399166 273.037974 
L 222.311341 271.762231 
L 223.735552 270.486487 
L 223.828885 269.210743 
L 224.635823 267.935 
L 225.182124 266.659256 
L 226.145709 265.383512 
L 226.866685 264.107768 
L 227.723141 262.832025 
L 227.918106 261.556281 
L 228.415115 255.177563 
L 229.739889 253.901819 
L 231.355237 252.626075 
L 231.85489 251.350332 
L 232.004569 250.074588 
L 234.688668 248.798844 
L 235.294507 247.523101 
L 237.062311 246.247357 
L 237.241371 244.971613 
L 238.088304 242.420126 
L 238.22941 241.144382 
L 238.49292 239.868639 
L 240.200962 238.592895 
L 241.049557 236.041408 
L 241.105864 234.765664 
L 242.441615 233.48992 
L 243.516336 230.938433 
L 244.535321 229.662689 
L 244.595972 228.386946 
L 245.590854 227.111202 
L 246.812719 225.835458 
L 247.041898 223.283971 
L 247.515516 222.008227 
L 248.642509 219.45674 
L 248.679463 218.180996 
L 249.628764 216.905252 
L 249.804296 215.629509 
L 253.645514 213.078021 
L 256.018139 211.802278 
L 256.348049 210.526534 
L 257.574842 209.25079 
L 258.599435 202.872072 
L 258.656458 201.596328 
L 258.87477 200.320585 
L 258.964063 199.044841 
L 259.417182 197.769097 
L 260.081866 196.493354 
L 261.840213 195.21761 
L 262.749343 193.941866 
L 262.779291 192.666123 
L 262.987343 191.390379 
L 263.534159 190.114635 
L 263.627447 188.838892 
L 264.312764 187.563148 
L 265.200106 186.287404 
L 265.311412 185.011661 
L 265.607653 183.735917 
L 266.080274 182.460173 
L 266.647296 179.908686 
L 266.804568 178.632942 
L 266.836281 177.357198 
L 267.632495 176.081455 
L 268.025526 174.805711 
L 268.071187 173.529967 
L 268.391826 172.254224 
L 269.386958 170.97848 
L 270.882295 169.702736 
L 271.89514 168.426993 
L 273.487007 167.151249 
L 274.172037 165.875505 
L 274.453517 164.599762 
L 275.678019 163.324018 
L 276.033319 162.048274 
L 276.199465 160.772531 
L 277.226145 159.496787 
L 277.392442 158.221043 
L 277.900231 156.9453 
L 277.926387 155.669556 
L 280.282682 154.393812 
L 280.669147 150.566581 
L 284.329256 149.290838 
L 284.397609 148.015094 
L 285.399168 146.73935 
L 286.08898 144.187863 
L 287.061718 142.912119 
L 287.245915 141.636375 
L 288.065483 140.360632 
L 288.638298 139.084888 
L 288.738061 137.809144 
L 289.595224 136.533401 
L 289.950119 135.257657 
L 290.01582 133.981913 
L 291.654754 132.70617 
L 291.798409 131.430426 
L 292.197777 130.154682 
L 292.738446 128.878939 
L 293.941107 127.603195 
L 296.396549 126.327451 
L 297.307466 122.50022 
L 299.700535 121.224477 
L 300.433188 119.948733 
L 302.307994 117.397246 
L 303.896496 116.121502 
L 303.94917 114.845758 
L 304.310477 113.570015 
L 306.543099 112.294271 
L 307.150602 111.018527 
L 307.497996 109.742784 
L 308.410233 108.46704 
L 308.790733 107.191296 
L 308.918061 104.639809 
L 310.014151 103.364065 
L 310.165328 102.088321 
L 310.561161 100.812578 
L 310.834188 99.536834 
L 311.873689 98.26109 
L 312.123894 96.985347 
L 314.083315 95.709603 
L 318.486726 94.433859 
L 318.899912 93.158116 
L 318.965973 91.882372 
L 319.167402 90.606628 
L 319.866406 89.330885 
L 319.897851 88.055141 
L 320.71823 86.779397 
L 321.943052 84.22791 
L 322.248441 82.952166 
L 324.079825 81.676423 
L 325.441331 80.400679 
L 327.383089 79.124935 
L 327.514529 77.849192 
L 328.0455 76.573448 
L 328.344036 75.297704 
L 328.519879 74.021961 
L 330.60872 71.470473 
L 333.546933 70.19473 
L 333.726894 68.918986 
L 335.118945 67.643242 
L 335.461607 66.367499 
L 336.510583 65.091755 
L 339.755014 63.816011 
L 339.789536 62.540268 
L 342.097903 58.713036 
L 343.436493 57.437293 
L 343.791065 56.161549 
L 349.335528 54.885805 
L 350.823139 53.610062 
L 351.581742 52.334318 
L 354.72029 51.058574 
L 355.003873 49.782831 
L 369.712288 48.507087 
L 375.868598 47.231343 
L 376.293672 45.9556 
L 378.529778 44.679856 
L 382.932575 43.404112 
L 394.134995 42.128369 
L 439.510587 40.852625 
L 439.510587 40.852625 
" style="fill:none;stroke:#008000;stroke-linecap:square;stroke-width:2.0;"/>
   </g>
   <g id="line2d_3">
    <path clip-path="url(#pe6de433841)" d="M 74.48625 368.71875 
L 74.48625 361.093956 
L 76.145824 358.552359 
L 76.67211 356.010761 
L 81.466223 353.469163 
L 88.781486 350.927565 
L 90.080565 348.385967 
L 102.015264 345.844369 
L 108.912359 343.302771 
L 110.811109 340.761173 
L 116.91169 338.219576 
L 120.253539 335.677978 
L 125.549909 333.13638 
L 128.300426 330.594782 
L 134.58818 328.053184 
L 137.861081 325.511586 
L 146.437086 322.969988 
L 148.072429 320.428391 
L 149.510281 317.886793 
L 153.410058 315.345195 
L 153.648185 312.803597 
L 154.23671 310.261999 
L 158.600524 307.720401 
L 166.232948 305.178803 
L 168.088779 302.637205 
L 168.946062 300.095608 
L 173.64997 297.55401 
L 173.906984 295.012412 
L 175.114496 292.470814 
L 176.143428 287.387618 
L 177.495095 284.84602 
L 177.643249 282.304422 
L 179.142509 279.762825 
L 180.389648 277.221227 
L 180.607071 274.679629 
L 180.706093 272.138031 
L 183.868911 267.054835 
L 184.497741 264.513237 
L 185.903904 261.97164 
L 187.933782 259.430042 
L 188.037786 256.888444 
L 190.332264 254.346846 
L 190.986092 249.26365 
L 192.130402 246.722052 
L 192.391497 244.180454 
L 193.623597 241.638857 
L 193.851256 239.097259 
L 193.880031 236.555661 
L 194.519119 234.014063 
L 194.594202 231.472465 
L 194.97273 228.930867 
L 196.255759 223.847672 
L 196.664173 218.764476 
L 197.134315 216.222878 
L 197.391151 211.139682 
L 198.454802 208.598084 
L 198.60956 206.056486 
L 200.025311 203.514889 
L 200.411159 198.431693 
L 201.217399 195.890095 
L 201.604022 190.806899 
L 202.812895 185.723703 
L 204.064205 183.182106 
L 204.362439 180.640508 
L 205.59771 178.09891 
L 205.810235 175.557312 
L 207.144942 173.015714 
L 207.844736 170.474116 
L 208.086414 167.932518 
L 208.44505 165.390921 
L 209.084505 162.849323 
L 209.969794 160.307725 
L 210.425604 155.224529 
L 211.017342 152.682931 
L 214.116058 147.599735 
L 214.33921 145.058138 
L 214.807268 142.51654 
L 214.855429 139.974942 
L 216.094548 137.433344 
L 216.197971 134.891746 
L 216.487572 132.350148 
L 217.481056 129.80855 
L 218.154669 124.725355 
L 218.439977 122.183757 
L 223.038637 119.642159 
L 223.645194 117.100561 
L 223.733611 114.558963 
L 225.197977 112.017365 
L 225.600974 109.475767 
L 225.879025 106.93417 
L 226.032374 104.392572 
L 226.644789 101.850974 
L 226.665272 99.309376 
L 227.634397 96.767778 
L 228.184767 94.22618 
L 228.60995 91.684582 
L 231.409778 89.142984 
L 231.80004 86.601387 
L 233.063768 84.059789 
L 233.383502 81.518191 
L 234.09002 78.976593 
L 237.58545 76.434995 
L 239.760043 73.893397 
L 240.113772 71.351799 
L 240.237986 68.810202 
L 241.825648 63.727006 
L 243.810787 61.185408 
L 244.383147 58.64381 
L 249.146037 56.102212 
L 252.936843 51.019016 
L 253.005319 48.477419 
L 254.106932 45.935821 
L 254.855498 43.394223 
L 264.262784 40.852625 
L 264.262784 40.852625 
" style="fill:none;stroke:#ff0000;stroke-linecap:square;stroke-width:2.0;"/>
   </g>
   <g id="patch_3">
    <path d="M 539.38125 368.71875 
L 539.38125 40.852625 
" style="fill:none;stroke:#000000;stroke-linecap:square;stroke-linejoin:miter;stroke-width:2.0;"/>
   </g>
   <g id="patch_4">
    <path d="M 74.48625 368.71875 
L 539.38125 368.71875 
" style="fill:none;stroke:#000000;stroke-linecap:square;stroke-linejoin:miter;stroke-width:2.0;"/>
   </g>
   <g id="patch_5">
    <path d="M 74.48625 40.852625 
L 539.38125 40.852625 
" style="fill:none;stroke:#000000;stroke-linecap:square;stroke-linejoin:miter;stroke-width:2.0;"/>
   </g>
   <g id="patch_6">
    <path d="M 74.48625 368.71875 
L 74.48625 40.852625 
" style="fill:none;stroke:#000000;stroke-linecap:square;stroke-linejoin:miter;stroke-width:2.0;"/>
   </g>
   <g id="matplotlib.axis_1">
    <g id="xtick_1">
     <g id="line2d_4">
      <path clip-path="url(#pe6de433841)" d="M 74.48625 368.71875 
L 74.48625 40.852625 
" style="fill:none;stroke:#000000;stroke-dasharray:1.000000,3.000000;stroke-dashoffset:0.0;stroke-width:2.0;"/>
     </g>
     <g id="line2d_5">
      <defs>
       <path d="M 0 0 
L 0 -4 
" id="m3d0f5a908c" style="stroke:#000000;stroke-width:0.5;"/>
      </defs>
      <g>
       <use style="stroke:#000000;stroke-width:0.5;" x="74.48625" xlink:href="#m3d0f5a908c" y="368.71875"/>
      </g>
     </g>
     <g id="line2d_6">
      <defs>
       <path d="M 0 0 
L 0 4 
" id="mbaeed0b9f6" style="stroke:#000000;stroke-width:0.5;"/>
      </defs>
      <g>
       <use style="stroke:#000000;stroke-width:0.5;" x="74.48625" xlink:href="#mbaeed0b9f6" y="40.852625"/>
      </g>
     </g>
     <g id="text_1">
      <!-- 0 -->
      <defs>
       <path d="M 31.78125 66.40625 
Q 24.171875 66.40625 20.328125 58.90625 
Q 16.5 51.421875 16.5 36.375 
Q 16.5 21.390625 20.328125 13.890625 
Q 24.171875 6.390625 31.78125 6.390625 
Q 39.453125 6.390625 43.28125 13.890625 
Q 47.125 21.390625 47.125 36.375 
Q 47.125 51.421875 43.28125 58.90625 
Q 39.453125 66.40625 31.78125 66.40625 
M 31.78125 74.21875 
Q 44.046875 74.21875 50.515625 64.515625 
Q 56.984375 54.828125 56.984375 36.375 
Q 56.984375 17.96875 50.515625 8.265625 
Q 44.046875 -1.421875 31.78125 -1.421875 
Q 19.53125 -1.421875 13.0625 8.265625 
Q 6.59375 17.96875 6.59375 36.375 
Q 6.59375 54.828125 13.0625 64.515625 
Q 19.53125 74.21875 31.78125 74.21875 
" id="BitstreamVeraSans-Roman-30"/>
      </defs>
      <g transform="translate(68.76 386.3959375)scale(0.18 -0.18)">
       <use xlink:href="#BitstreamVeraSans-Roman-30"/>
      </g>
     </g>
    </g>
    <g id="xtick_2">
     <g id="line2d_7">
      <path clip-path="url(#pe6de433841)" d="M 140.899821 368.71875 
L 140.899821 40.852625 
" style="fill:none;stroke:#000000;stroke-dasharray:1.000000,3.000000;stroke-dashoffset:0.0;stroke-width:2.0;"/>
     </g>
     <g id="line2d_8">
      <g>
       <use style="stroke:#000000;stroke-width:0.5;" x="140.899821429" xlink:href="#m3d0f5a908c" y="368.71875"/>
      </g>
     </g>
     <g id="line2d_9">
      <g>
       <use style="stroke:#000000;stroke-width:0.5;" x="140.899821429" xlink:href="#mbaeed0b9f6" y="40.852625"/>
      </g>
     </g>
     <g id="text_2">
      <!-- 50 -->
      <defs>
       <path d="M 10.796875 72.90625 
L 49.515625 72.90625 
L 49.515625 64.59375 
L 19.828125 64.59375 
L 19.828125 46.734375 
Q 21.96875 47.46875 24.109375 47.828125 
Q 26.265625 48.1875 28.421875 48.1875 
Q 40.625 48.1875 47.75 41.5 
Q 54.890625 34.8125 54.890625 23.390625 
Q 54.890625 11.625 47.5625 5.09375 
Q 40.234375 -1.421875 26.90625 -1.421875 
Q 22.3125 -1.421875 17.546875 -0.640625 
Q 12.796875 0.140625 7.71875 1.703125 
L 7.71875 11.625 
Q 12.109375 9.234375 16.796875 8.0625 
Q 21.484375 6.890625 26.703125 6.890625 
Q 35.15625 6.890625 40.078125 11.328125 
Q 45.015625 15.765625 45.015625 23.390625 
Q 45.015625 31 40.078125 35.4375 
Q 35.15625 39.890625 26.703125 39.890625 
Q 22.75 39.890625 18.8125 39.015625 
Q 14.890625 38.140625 10.796875 36.28125 
z
" id="BitstreamVeraSans-Roman-35"/>
      </defs>
      <g transform="translate(129.447321429 386.3959375)scale(0.18 -0.18)">
       <use xlink:href="#BitstreamVeraSans-Roman-35"/>
       <use x="63.623046875" xlink:href="#BitstreamVeraSans-Roman-30"/>
      </g>
     </g>
    </g>
    <g id="xtick_3">
     <g id="line2d_10">
      <path clip-path="url(#pe6de433841)" d="M 207.313393 368.71875 
L 207.313393 40.852625 
" style="fill:none;stroke:#000000;stroke-dasharray:1.000000,3.000000;stroke-dashoffset:0.0;stroke-width:2.0;"/>
     </g>
     <g id="line2d_11">
      <g>
       <use style="stroke:#000000;stroke-width:0.5;" x="207.313392857" xlink:href="#m3d0f5a908c" y="368.71875"/>
      </g>
     </g>
     <g id="line2d_12">
      <g>
       <use style="stroke:#000000;stroke-width:0.5;" x="207.313392857" xlink:href="#mbaeed0b9f6" y="40.852625"/>
      </g>
     </g>
     <g id="text_3">
      <!-- 100 -->
      <defs>
       <path d="M 12.40625 8.296875 
L 28.515625 8.296875 
L 28.515625 63.921875 
L 10.984375 60.40625 
L 10.984375 69.390625 
L 28.421875 72.90625 
L 38.28125 72.90625 
L 38.28125 8.296875 
L 54.390625 8.296875 
L 54.390625 0 
L 12.40625 0 
z
" id="BitstreamVeraSans-Roman-31"/>
      </defs>
      <g transform="translate(190.134642857 386.3959375)scale(0.18 -0.18)">
       <use xlink:href="#BitstreamVeraSans-Roman-31"/>
       <use x="63.623046875" xlink:href="#BitstreamVeraSans-Roman-30"/>
       <use x="127.24609375" xlink:href="#BitstreamVeraSans-Roman-30"/>
      </g>
     </g>
    </g>
    <g id="xtick_4">
     <g id="line2d_13">
      <path clip-path="url(#pe6de433841)" d="M 273.726964 368.71875 
L 273.726964 40.852625 
" style="fill:none;stroke:#000000;stroke-dasharray:1.000000,3.000000;stroke-dashoffset:0.0;stroke-width:2.0;"/>
     </g>
     <g id="line2d_14">
      <g>
       <use style="stroke:#000000;stroke-width:0.5;" x="273.726964286" xlink:href="#m3d0f5a908c" y="368.71875"/>
      </g>
     </g>
     <g id="line2d_15">
      <g>
       <use style="stroke:#000000;stroke-width:0.5;" x="273.726964286" xlink:href="#mbaeed0b9f6" y="40.852625"/>
      </g>
     </g>
     <g id="text_4">
      <!-- 150 -->
      <g transform="translate(256.548214286 386.3959375)scale(0.18 -0.18)">
       <use xlink:href="#BitstreamVeraSans-Roman-31"/>
       <use x="63.623046875" xlink:href="#BitstreamVeraSans-Roman-35"/>
       <use x="127.24609375" xlink:href="#BitstreamVeraSans-Roman-30"/>
      </g>
     </g>
    </g>
    <g id="xtick_5">
     <g id="line2d_16">
      <path clip-path="url(#pe6de433841)" d="M 340.140536 368.71875 
L 340.140536 40.852625 
" style="fill:none;stroke:#000000;stroke-dasharray:1.000000,3.000000;stroke-dashoffset:0.0;stroke-width:2.0;"/>
     </g>
     <g id="line2d_17">
      <g>
       <use style="stroke:#000000;stroke-width:0.5;" x="340.140535714" xlink:href="#m3d0f5a908c" y="368.71875"/>
      </g>
     </g>
     <g id="line2d_18">
      <g>
       <use style="stroke:#000000;stroke-width:0.5;" x="340.140535714" xlink:href="#mbaeed0b9f6" y="40.852625"/>
      </g>
     </g>
     <g id="text_5">
      <!-- 200 -->
      <defs>
       <path d="M 19.1875 8.296875 
L 53.609375 8.296875 
L 53.609375 0 
L 7.328125 0 
L 7.328125 8.296875 
Q 12.9375 14.109375 22.625 23.890625 
Q 32.328125 33.6875 34.8125 36.53125 
Q 39.546875 41.84375 41.421875 45.53125 
Q 43.3125 49.21875 43.3125 52.78125 
Q 43.3125 58.59375 39.234375 62.25 
Q 35.15625 65.921875 28.609375 65.921875 
Q 23.96875 65.921875 18.8125 64.3125 
Q 13.671875 62.703125 7.8125 59.421875 
L 7.8125 69.390625 
Q 13.765625 71.78125 18.9375 73 
Q 24.125 74.21875 28.421875 74.21875 
Q 39.75 74.21875 46.484375 68.546875 
Q 53.21875 62.890625 53.21875 53.421875 
Q 53.21875 48.921875 51.53125 44.890625 
Q 49.859375 40.875 45.40625 35.40625 
Q 44.1875 33.984375 37.640625 27.21875 
Q 31.109375 20.453125 19.1875 8.296875 
" id="BitstreamVeraSans-Roman-32"/>
      </defs>
      <g transform="translate(322.961785714 386.3959375)scale(0.18 -0.18)">
       <use xlink:href="#BitstreamVeraSans-Roman-32"/>
       <use x="63.623046875" xlink:href="#BitstreamVeraSans-Roman-30"/>
       <use x="127.24609375" xlink:href="#BitstreamVeraSans-Roman-30"/>
      </g>
     </g>
    </g>
    <g id="xtick_6">
     <g id="line2d_19">
      <path clip-path="url(#pe6de433841)" d="M 406.554107 368.71875 
L 406.554107 40.852625 
" style="fill:none;stroke:#000000;stroke-dasharray:1.000000,3.000000;stroke-dashoffset:0.0;stroke-width:2.0;"/>
     </g>
     <g id="line2d_20">
      <g>
       <use style="stroke:#000000;stroke-width:0.5;" x="406.554107143" xlink:href="#m3d0f5a908c" y="368.71875"/>
      </g>
     </g>
     <g id="line2d_21">
      <g>
       <use style="stroke:#000000;stroke-width:0.5;" x="406.554107143" xlink:href="#mbaeed0b9f6" y="40.852625"/>
      </g>
     </g>
     <g id="text_6">
      <!-- 250 -->
      <g transform="translate(389.375357143 386.3959375)scale(0.18 -0.18)">
       <use xlink:href="#BitstreamVeraSans-Roman-32"/>
       <use x="63.623046875" xlink:href="#BitstreamVeraSans-Roman-35"/>
       <use x="127.24609375" xlink:href="#BitstreamVeraSans-Roman-30"/>
      </g>
     </g>
    </g>
    <g id="xtick_7">
     <g id="line2d_22">
      <path clip-path="url(#pe6de433841)" d="M 472.967679 368.71875 
L 472.967679 40.852625 
" style="fill:none;stroke:#000000;stroke-dasharray:1.000000,3.000000;stroke-dashoffset:0.0;stroke-width:2.0;"/>
     </g>
     <g id="line2d_23">
      <g>
       <use style="stroke:#000000;stroke-width:0.5;" x="472.967678571" xlink:href="#m3d0f5a908c" y="368.71875"/>
      </g>
     </g>
     <g id="line2d_24">
      <g>
       <use style="stroke:#000000;stroke-width:0.5;" x="472.967678571" xlink:href="#mbaeed0b9f6" y="40.852625"/>
      </g>
     </g>
     <g id="text_7">
      <!-- 300 -->
      <defs>
       <path d="M 40.578125 39.3125 
Q 47.65625 37.796875 51.625 33 
Q 55.609375 28.21875 55.609375 21.1875 
Q 55.609375 10.40625 48.1875 4.484375 
Q 40.765625 -1.421875 27.09375 -1.421875 
Q 22.515625 -1.421875 17.65625 -0.515625 
Q 12.796875 0.390625 7.625 2.203125 
L 7.625 11.71875 
Q 11.71875 9.328125 16.59375 8.109375 
Q 21.484375 6.890625 26.8125 6.890625 
Q 36.078125 6.890625 40.9375 10.546875 
Q 45.796875 14.203125 45.796875 21.1875 
Q 45.796875 27.640625 41.28125 31.265625 
Q 36.765625 34.90625 28.71875 34.90625 
L 20.21875 34.90625 
L 20.21875 43.015625 
L 29.109375 43.015625 
Q 36.375 43.015625 40.234375 45.921875 
Q 44.09375 48.828125 44.09375 54.296875 
Q 44.09375 59.90625 40.109375 62.90625 
Q 36.140625 65.921875 28.71875 65.921875 
Q 24.65625 65.921875 20.015625 65.03125 
Q 15.375 64.15625 9.8125 62.3125 
L 9.8125 71.09375 
Q 15.4375 72.65625 20.34375 73.4375 
Q 25.25 74.21875 29.59375 74.21875 
Q 40.828125 74.21875 47.359375 69.109375 
Q 53.90625 64.015625 53.90625 55.328125 
Q 53.90625 49.265625 50.4375 45.09375 
Q 46.96875 40.921875 40.578125 39.3125 
" id="BitstreamVeraSans-Roman-33"/>
      </defs>
      <g transform="translate(455.788928571 386.3959375)scale(0.18 -0.18)">
       <use xlink:href="#BitstreamVeraSans-Roman-33"/>
       <use x="63.623046875" xlink:href="#BitstreamVeraSans-Roman-30"/>
       <use x="127.24609375" xlink:href="#BitstreamVeraSans-Roman-30"/>
      </g>
     </g>
    </g>
    <g id="xtick_8">
     <g id="line2d_25">
      <path clip-path="url(#pe6de433841)" d="M 539.38125 368.71875 
L 539.38125 40.852625 
" style="fill:none;stroke:#000000;stroke-dasharray:1.000000,3.000000;stroke-dashoffset:0.0;stroke-width:2.0;"/>
     </g>
     <g id="line2d_26">
      <g>
       <use style="stroke:#000000;stroke-width:0.5;" x="539.38125" xlink:href="#m3d0f5a908c" y="368.71875"/>
      </g>
     </g>
     <g id="line2d_27">
      <g>
       <use style="stroke:#000000;stroke-width:0.5;" x="539.38125" xlink:href="#mbaeed0b9f6" y="40.852625"/>
      </g>
     </g>
     <g id="text_8">
      <!-- 350 -->
      <g transform="translate(522.2025 386.3959375)scale(0.18 -0.18)">
       <use xlink:href="#BitstreamVeraSans-Roman-33"/>
       <use x="63.623046875" xlink:href="#BitstreamVeraSans-Roman-35"/>
       <use x="127.24609375" xlink:href="#BitstreamVeraSans-Roman-30"/>
      </g>
     </g>
    </g>
    <g id="text_9">
     <!-- Roll speed IRQ (degrees/min) -->
     <defs>
      <path d="M 9.421875 75.984375 
L 18.40625 75.984375 
L 18.40625 0 
L 9.421875 0 
z
" id="BitstreamVeraSans-Roman-6c"/>
      <path d="M 39.40625 66.21875 
Q 28.65625 66.21875 22.328125 58.203125 
Q 16.015625 50.203125 16.015625 36.375 
Q 16.015625 22.609375 22.328125 14.59375 
Q 28.65625 6.59375 39.40625 6.59375 
Q 50.140625 6.59375 56.421875 14.59375 
Q 62.703125 22.609375 62.703125 36.375 
Q 62.703125 50.203125 56.421875 58.203125 
Q 50.140625 66.21875 39.40625 66.21875 
M 53.21875 1.3125 
L 66.21875 -12.890625 
L 54.296875 -12.890625 
L 43.5 -1.21875 
Q 41.890625 -1.3125 41.03125 -1.359375 
Q 40.1875 -1.421875 39.40625 -1.421875 
Q 24.03125 -1.421875 14.8125 8.859375 
Q 5.609375 19.140625 5.609375 36.375 
Q 5.609375 53.65625 14.8125 63.9375 
Q 24.03125 74.21875 39.40625 74.21875 
Q 54.734375 74.21875 63.90625 63.9375 
Q 73.09375 53.65625 73.09375 36.375 
Q 73.09375 23.6875 67.984375 14.640625 
Q 62.890625 5.609375 53.21875 1.3125 
" id="BitstreamVeraSans-Roman-51"/>
      <path d="M 41.109375 46.296875 
Q 39.59375 47.171875 37.8125 47.578125 
Q 36.03125 48 33.890625 48 
Q 26.265625 48 22.1875 43.046875 
Q 18.109375 38.09375 18.109375 28.8125 
L 18.109375 0 
L 9.078125 0 
L 9.078125 54.6875 
L 18.109375 54.6875 
L 18.109375 46.1875 
Q 20.953125 51.171875 25.484375 53.578125 
Q 30.03125 56 36.53125 56 
Q 37.453125 56 38.578125 55.875 
Q 39.703125 55.765625 41.0625 55.515625 
z
" id="BitstreamVeraSans-Roman-72"/>
      <path d="M 8.015625 75.875 
L 15.828125 75.875 
Q 23.140625 64.359375 26.78125 53.3125 
Q 30.421875 42.28125 30.421875 31.390625 
Q 30.421875 20.453125 26.78125 9.375 
Q 23.140625 -1.703125 15.828125 -13.1875 
L 8.015625 -13.1875 
Q 14.5 -2 17.703125 9.0625 
Q 20.90625 20.125 20.90625 31.390625 
Q 20.90625 42.671875 17.703125 53.65625 
Q 14.5 64.65625 8.015625 75.875 
" id="BitstreamVeraSans-Roman-29"/>
      <path d="M 45.40625 46.390625 
L 45.40625 75.984375 
L 54.390625 75.984375 
L 54.390625 0 
L 45.40625 0 
L 45.40625 8.203125 
Q 42.578125 3.328125 38.25 0.953125 
Q 33.9375 -1.421875 27.875 -1.421875 
Q 17.96875 -1.421875 11.734375 6.484375 
Q 5.515625 14.40625 5.515625 27.296875 
Q 5.515625 40.1875 11.734375 48.09375 
Q 17.96875 56 27.875 56 
Q 33.9375 56 38.25 53.625 
Q 42.578125 51.265625 45.40625 46.390625 
M 14.796875 27.296875 
Q 14.796875 17.390625 18.875 11.75 
Q 22.953125 6.109375 30.078125 6.109375 
Q 37.203125 6.109375 41.296875 11.75 
Q 45.40625 17.390625 45.40625 27.296875 
Q 45.40625 37.203125 41.296875 42.84375 
Q 37.203125 48.484375 30.078125 48.484375 
Q 22.953125 48.484375 18.875 42.84375 
Q 14.796875 37.203125 14.796875 27.296875 
" id="BitstreamVeraSans-Roman-64"/>
      <path d="M 31 75.875 
Q 24.46875 64.65625 21.28125 53.65625 
Q 18.109375 42.671875 18.109375 31.390625 
Q 18.109375 20.125 21.3125 9.0625 
Q 24.515625 -2 31 -13.1875 
L 23.1875 -13.1875 
Q 15.875 -1.703125 12.234375 9.375 
Q 8.59375 20.453125 8.59375 31.390625 
Q 8.59375 42.28125 12.203125 53.3125 
Q 15.828125 64.359375 23.1875 75.875 
z
" id="BitstreamVeraSans-Roman-28"/>
      <path id="BitstreamVeraSans-Roman-20"/>
      <path d="M 54.890625 33.015625 
L 54.890625 0 
L 45.90625 0 
L 45.90625 32.71875 
Q 45.90625 40.484375 42.875 44.328125 
Q 39.84375 48.1875 33.796875 48.1875 
Q 26.515625 48.1875 22.3125 43.546875 
Q 18.109375 38.921875 18.109375 30.90625 
L 18.109375 0 
L 9.078125 0 
L 9.078125 54.6875 
L 18.109375 54.6875 
L 18.109375 46.1875 
Q 21.34375 51.125 25.703125 53.5625 
Q 30.078125 56 35.796875 56 
Q 45.21875 56 50.046875 50.171875 
Q 54.890625 44.34375 54.890625 33.015625 
" id="BitstreamVeraSans-Roman-6e"/>
      <path d="M 52 44.1875 
Q 55.375 50.25 60.0625 53.125 
Q 64.75 56 71.09375 56 
Q 79.640625 56 84.28125 50.015625 
Q 88.921875 44.046875 88.921875 33.015625 
L 88.921875 0 
L 79.890625 0 
L 79.890625 32.71875 
Q 79.890625 40.578125 77.09375 44.375 
Q 74.3125 48.1875 68.609375 48.1875 
Q 61.625 48.1875 57.5625 43.546875 
Q 53.515625 38.921875 53.515625 30.90625 
L 53.515625 0 
L 44.484375 0 
L 44.484375 32.71875 
Q 44.484375 40.625 41.703125 44.40625 
Q 38.921875 48.1875 33.109375 48.1875 
Q 26.21875 48.1875 22.15625 43.53125 
Q 18.109375 38.875 18.109375 30.90625 
L 18.109375 0 
L 9.078125 0 
L 9.078125 54.6875 
L 18.109375 54.6875 
L 18.109375 46.1875 
Q 21.1875 51.21875 25.484375 53.609375 
Q 29.78125 56 35.6875 56 
Q 41.65625 56 45.828125 52.96875 
Q 50 49.953125 52 44.1875 
" id="BitstreamVeraSans-Roman-6d"/>
      <path d="M 9.8125 72.90625 
L 19.671875 72.90625 
L 19.671875 0 
L 9.8125 0 
z
" id="BitstreamVeraSans-Roman-49"/>
      <path d="M 44.390625 34.1875 
Q 47.5625 33.109375 50.5625 29.59375 
Q 53.5625 26.078125 56.59375 19.921875 
L 66.609375 0 
L 56 0 
L 46.6875 18.703125 
Q 43.0625 26.03125 39.671875 28.421875 
Q 36.28125 30.8125 30.421875 30.8125 
L 19.671875 30.8125 
L 19.671875 0 
L 9.8125 0 
L 9.8125 72.90625 
L 32.078125 72.90625 
Q 44.578125 72.90625 50.734375 67.671875 
Q 56.890625 62.453125 56.890625 51.90625 
Q 56.890625 45.015625 53.6875 40.46875 
Q 50.484375 35.9375 44.390625 34.1875 
M 19.671875 64.796875 
L 19.671875 38.921875 
L 32.078125 38.921875 
Q 39.203125 38.921875 42.84375 42.21875 
Q 46.484375 45.515625 46.484375 51.90625 
Q 46.484375 58.296875 42.84375 61.546875 
Q 39.203125 64.796875 32.078125 64.796875 
z
" id="BitstreamVeraSans-Roman-52"/>
      <path d="M 9.421875 54.6875 
L 18.40625 54.6875 
L 18.40625 0 
L 9.421875 0 
z
M 9.421875 75.984375 
L 18.40625 75.984375 
L 18.40625 64.59375 
L 9.421875 64.59375 
z
" id="BitstreamVeraSans-Roman-69"/>
      <path d="M 56.203125 29.59375 
L 56.203125 25.203125 
L 14.890625 25.203125 
Q 15.484375 15.921875 20.484375 11.0625 
Q 25.484375 6.203125 34.421875 6.203125 
Q 39.59375 6.203125 44.453125 7.46875 
Q 49.3125 8.734375 54.109375 11.28125 
L 54.109375 2.78125 
Q 49.265625 0.734375 44.1875 -0.34375 
Q 39.109375 -1.421875 33.890625 -1.421875 
Q 20.796875 -1.421875 13.15625 6.1875 
Q 5.515625 13.8125 5.515625 26.8125 
Q 5.515625 40.234375 12.765625 48.109375 
Q 20.015625 56 32.328125 56 
Q 43.359375 56 49.78125 48.890625 
Q 56.203125 41.796875 56.203125 29.59375 
M 47.21875 32.234375 
Q 47.125 39.59375 43.09375 43.984375 
Q 39.0625 48.390625 32.421875 48.390625 
Q 24.90625 48.390625 20.390625 44.140625 
Q 15.875 39.890625 15.1875 32.171875 
z
" id="BitstreamVeraSans-Roman-65"/>
      <path d="M 18.109375 8.203125 
L 18.109375 -20.796875 
L 9.078125 -20.796875 
L 9.078125 54.6875 
L 18.109375 54.6875 
L 18.109375 46.390625 
Q 20.953125 51.265625 25.265625 53.625 
Q 29.59375 56 35.59375 56 
Q 45.5625 56 51.78125 48.09375 
Q 58.015625 40.1875 58.015625 27.296875 
Q 58.015625 14.40625 51.78125 6.484375 
Q 45.5625 -1.421875 35.59375 -1.421875 
Q 29.59375 -1.421875 25.265625 0.953125 
Q 20.953125 3.328125 18.109375 8.203125 
M 48.6875 27.296875 
Q 48.6875 37.203125 44.609375 42.84375 
Q 40.53125 48.484375 33.40625 48.484375 
Q 26.265625 48.484375 22.1875 42.84375 
Q 18.109375 37.203125 18.109375 27.296875 
Q 18.109375 17.390625 22.1875 11.75 
Q 26.265625 6.109375 33.40625 6.109375 
Q 40.53125 6.109375 44.609375 11.75 
Q 48.6875 17.390625 48.6875 27.296875 
" id="BitstreamVeraSans-Roman-70"/>
      <path d="M 45.40625 27.984375 
Q 45.40625 37.75 41.375 43.109375 
Q 37.359375 48.484375 30.078125 48.484375 
Q 22.859375 48.484375 18.828125 43.109375 
Q 14.796875 37.75 14.796875 27.984375 
Q 14.796875 18.265625 18.828125 12.890625 
Q 22.859375 7.515625 30.078125 7.515625 
Q 37.359375 7.515625 41.375 12.890625 
Q 45.40625 18.265625 45.40625 27.984375 
M 54.390625 6.78125 
Q 54.390625 -7.171875 48.1875 -13.984375 
Q 42 -20.796875 29.203125 -20.796875 
Q 24.46875 -20.796875 20.265625 -20.09375 
Q 16.0625 -19.390625 12.109375 -17.921875 
L 12.109375 -9.1875 
Q 16.0625 -11.328125 19.921875 -12.34375 
Q 23.78125 -13.375 27.78125 -13.375 
Q 36.625 -13.375 41.015625 -8.765625 
Q 45.40625 -4.15625 45.40625 5.171875 
L 45.40625 9.625 
Q 42.625 4.78125 38.28125 2.390625 
Q 33.9375 0 27.875 0 
Q 17.828125 0 11.671875 7.65625 
Q 5.515625 15.328125 5.515625 27.984375 
Q 5.515625 40.671875 11.671875 48.328125 
Q 17.828125 56 27.875 56 
Q 33.9375 56 38.28125 53.609375 
Q 42.625 51.21875 45.40625 46.390625 
L 45.40625 54.6875 
L 54.390625 54.6875 
z
" id="BitstreamVeraSans-Roman-67"/>
      <path d="M 30.609375 48.390625 
Q 23.390625 48.390625 19.1875 42.75 
Q 14.984375 37.109375 14.984375 27.296875 
Q 14.984375 17.484375 19.15625 11.84375 
Q 23.34375 6.203125 30.609375 6.203125 
Q 37.796875 6.203125 41.984375 11.859375 
Q 46.1875 17.53125 46.1875 27.296875 
Q 46.1875 37.015625 41.984375 42.703125 
Q 37.796875 48.390625 30.609375 48.390625 
M 30.609375 56 
Q 42.328125 56 49.015625 48.375 
Q 55.71875 40.765625 55.71875 27.296875 
Q 55.71875 13.875 49.015625 6.21875 
Q 42.328125 -1.421875 30.609375 -1.421875 
Q 18.84375 -1.421875 12.171875 6.21875 
Q 5.515625 13.875 5.515625 27.296875 
Q 5.515625 40.765625 12.171875 48.375 
Q 18.84375 56 30.609375 56 
" id="BitstreamVeraSans-Roman-6f"/>
      <path d="M 44.28125 53.078125 
L 44.28125 44.578125 
Q 40.484375 46.53125 36.375 47.5 
Q 32.28125 48.484375 27.875 48.484375 
Q 21.1875 48.484375 17.84375 46.4375 
Q 14.5 44.390625 14.5 40.28125 
Q 14.5 37.15625 16.890625 35.375 
Q 19.28125 33.59375 26.515625 31.984375 
L 29.59375 31.296875 
Q 39.15625 29.25 43.1875 25.515625 
Q 47.21875 21.78125 47.21875 15.09375 
Q 47.21875 7.46875 41.1875 3.015625 
Q 35.15625 -1.421875 24.609375 -1.421875 
Q 20.21875 -1.421875 15.453125 -0.5625 
Q 10.6875 0.296875 5.421875 2 
L 5.421875 11.28125 
Q 10.40625 8.6875 15.234375 7.390625 
Q 20.0625 6.109375 24.8125 6.109375 
Q 31.15625 6.109375 34.5625 8.28125 
Q 37.984375 10.453125 37.984375 14.40625 
Q 37.984375 18.0625 35.515625 20.015625 
Q 33.0625 21.96875 24.703125 23.78125 
L 21.578125 24.515625 
Q 13.234375 26.265625 9.515625 29.90625 
Q 5.8125 33.546875 5.8125 39.890625 
Q 5.8125 47.609375 11.28125 51.796875 
Q 16.75 56 26.8125 56 
Q 31.78125 56 36.171875 55.265625 
Q 40.578125 54.546875 44.28125 53.078125 
" id="BitstreamVeraSans-Roman-73"/>
      <path d="M 25.390625 72.90625 
L 33.6875 72.90625 
L 8.296875 -9.28125 
L 0 -9.28125 
z
" id="BitstreamVeraSans-Roman-2f"/>
     </defs>
     <g transform="translate(174.96140625 408.8165625)scale(0.18 -0.18)">
      <use xlink:href="#BitstreamVeraSans-Roman-52"/>
      <use x="69.419921875" xlink:href="#BitstreamVeraSans-Roman-6f"/>
      <use x="130.6015625" xlink:href="#BitstreamVeraSans-Roman-6c"/>
      <use x="158.384765625" xlink:href="#BitstreamVeraSans-Roman-6c"/>
      <use x="186.16796875" xlink:href="#BitstreamVeraSans-Roman-20"/>
      <use x="217.955078125" xlink:href="#BitstreamVeraSans-Roman-73"/>
      <use x="270.0546875" xlink:href="#BitstreamVeraSans-Roman-70"/>
      <use x="333.53125" xlink:href="#BitstreamVeraSans-Roman-65"/>
      <use x="395.0546875" xlink:href="#BitstreamVeraSans-Roman-65"/>
      <use x="456.578125" xlink:href="#BitstreamVeraSans-Roman-64"/>
      <use x="520.0546875" xlink:href="#BitstreamVeraSans-Roman-20"/>
      <use x="551.841796875" xlink:href="#BitstreamVeraSans-Roman-49"/>
      <use x="581.333984375" xlink:href="#BitstreamVeraSans-Roman-52"/>
      <use x="650.81640625" xlink:href="#BitstreamVeraSans-Roman-51"/>
      <use x="729.52734375" xlink:href="#BitstreamVeraSans-Roman-20"/>
      <use x="761.314453125" xlink:href="#BitstreamVeraSans-Roman-28"/>
      <use x="800.328125" xlink:href="#BitstreamVeraSans-Roman-64"/>
      <use x="863.8046875" xlink:href="#BitstreamVeraSans-Roman-65"/>
      <use x="925.328125" xlink:href="#BitstreamVeraSans-Roman-67"/>
      <use x="988.8046875" xlink:href="#BitstreamVeraSans-Roman-72"/>
      <use x="1029.88671875" xlink:href="#BitstreamVeraSans-Roman-65"/>
      <use x="1091.41015625" xlink:href="#BitstreamVeraSans-Roman-65"/>
      <use x="1152.93359375" xlink:href="#BitstreamVeraSans-Roman-73"/>
      <use x="1205.033203125" xlink:href="#BitstreamVeraSans-Roman-2f"/>
      <use x="1238.724609375" xlink:href="#BitstreamVeraSans-Roman-6d"/>
      <use x="1336.13671875" xlink:href="#BitstreamVeraSans-Roman-69"/>
      <use x="1363.919921875" xlink:href="#BitstreamVeraSans-Roman-6e"/>
      <use x="1427.298828125" xlink:href="#BitstreamVeraSans-Roman-29"/>
     </g>
    </g>
   </g>
   <g id="matplotlib.axis_2">
    <g id="ytick_1">
     <g id="line2d_28">
      <path clip-path="url(#pe6de433841)" d="M 74.48625 368.71875 
L 539.38125 368.71875 
" style="fill:none;stroke:#000000;stroke-dasharray:1.000000,3.000000;stroke-dashoffset:0.0;stroke-width:2.0;"/>
     </g>
     <g id="line2d_29">
      <defs>
       <path d="M 0 0 
L 4 0 
" id="mfc4e69be2d" style="stroke:#000000;stroke-width:0.5;"/>
      </defs>
      <g>
       <use style="stroke:#000000;stroke-width:0.5;" x="74.48625" xlink:href="#mfc4e69be2d" y="368.71875"/>
      </g>
     </g>
     <g id="line2d_30">
      <defs>
       <path d="M 0 0 
L -4 0 
" id="m40035e75bf" style="stroke:#000000;stroke-width:0.5;"/>
      </defs>
      <g>
       <use style="stroke:#000000;stroke-width:0.5;" x="539.38125" xlink:href="#m40035e75bf" y="368.71875"/>
      </g>
     </g>
     <g id="text_10">
      <!-- 0.0 -->
      <defs>
       <path d="M 10.6875 12.40625 
L 21 12.40625 
L 21 0 
L 10.6875 0 
z
" id="BitstreamVeraSans-Roman-2e"/>
      </defs>
      <g transform="translate(41.860625 373.685625)scale(0.18 -0.18)">
       <use xlink:href="#BitstreamVeraSans-Roman-30"/>
       <use x="63.623046875" xlink:href="#BitstreamVeraSans-Roman-2e"/>
       <use x="95.41015625" xlink:href="#BitstreamVeraSans-Roman-30"/>
      </g>
     </g>
    </g>
    <g id="ytick_2">
     <g id="line2d_31">
      <path clip-path="url(#pe6de433841)" d="M 74.48625 303.145525 
L 539.38125 303.145525 
" style="fill:none;stroke:#000000;stroke-dasharray:1.000000,3.000000;stroke-dashoffset:0.0;stroke-width:2.0;"/>
     </g>
     <g id="line2d_32">
      <g>
       <use style="stroke:#000000;stroke-width:0.5;" x="74.48625" xlink:href="#mfc4e69be2d" y="303.145525"/>
      </g>
     </g>
     <g id="line2d_33">
      <g>
       <use style="stroke:#000000;stroke-width:0.5;" x="539.38125" xlink:href="#m40035e75bf" y="303.145525"/>
      </g>
     </g>
     <g id="text_11">
      <!-- 0.2 -->
      <g transform="translate(41.860625 308.1124)scale(0.18 -0.18)">
       <use xlink:href="#BitstreamVeraSans-Roman-30"/>
       <use x="63.623046875" xlink:href="#BitstreamVeraSans-Roman-2e"/>
       <use x="95.41015625" xlink:href="#BitstreamVeraSans-Roman-32"/>
      </g>
     </g>
    </g>
    <g id="ytick_3">
     <g id="line2d_34">
      <path clip-path="url(#pe6de433841)" d="M 74.48625 237.5723 
L 539.38125 237.5723 
" style="fill:none;stroke:#000000;stroke-dasharray:1.000000,3.000000;stroke-dashoffset:0.0;stroke-width:2.0;"/>
     </g>
     <g id="line2d_35">
      <g>
       <use style="stroke:#000000;stroke-width:0.5;" x="74.48625" xlink:href="#mfc4e69be2d" y="237.5723"/>
      </g>
     </g>
     <g id="line2d_36">
      <g>
       <use style="stroke:#000000;stroke-width:0.5;" x="539.38125" xlink:href="#m40035e75bf" y="237.5723"/>
      </g>
     </g>
     <g id="text_12">
      <!-- 0.4 -->
      <defs>
       <path d="M 37.796875 64.3125 
L 12.890625 25.390625 
L 37.796875 25.390625 
z
M 35.203125 72.90625 
L 47.609375 72.90625 
L 47.609375 25.390625 
L 58.015625 25.390625 
L 58.015625 17.1875 
L 47.609375 17.1875 
L 47.609375 0 
L 37.796875 0 
L 37.796875 17.1875 
L 4.890625 17.1875 
L 4.890625 26.703125 
z
" id="BitstreamVeraSans-Roman-34"/>
      </defs>
      <g transform="translate(41.860625 242.539175)scale(0.18 -0.18)">
       <use xlink:href="#BitstreamVeraSans-Roman-30"/>
       <use x="63.623046875" xlink:href="#BitstreamVeraSans-Roman-2e"/>
       <use x="95.41015625" xlink:href="#BitstreamVeraSans-Roman-34"/>
      </g>
     </g>
    </g>
    <g id="ytick_4">
     <g id="line2d_37">
      <path clip-path="url(#pe6de433841)" d="M 74.48625 171.999075 
L 539.38125 171.999075 
" style="fill:none;stroke:#000000;stroke-dasharray:1.000000,3.000000;stroke-dashoffset:0.0;stroke-width:2.0;"/>
     </g>
     <g id="line2d_38">
      <g>
       <use style="stroke:#000000;stroke-width:0.5;" x="74.48625" xlink:href="#mfc4e69be2d" y="171.999075"/>
      </g>
     </g>
     <g id="line2d_39">
      <g>
       <use style="stroke:#000000;stroke-width:0.5;" x="539.38125" xlink:href="#m40035e75bf" y="171.999075"/>
      </g>
     </g>
     <g id="text_13">
      <!-- 0.6 -->
      <defs>
       <path d="M 33.015625 40.375 
Q 26.375 40.375 22.484375 35.828125 
Q 18.609375 31.296875 18.609375 23.390625 
Q 18.609375 15.53125 22.484375 10.953125 
Q 26.375 6.390625 33.015625 6.390625 
Q 39.65625 6.390625 43.53125 10.953125 
Q 47.40625 15.53125 47.40625 23.390625 
Q 47.40625 31.296875 43.53125 35.828125 
Q 39.65625 40.375 33.015625 40.375 
M 52.59375 71.296875 
L 52.59375 62.3125 
Q 48.875 64.0625 45.09375 64.984375 
Q 41.3125 65.921875 37.59375 65.921875 
Q 27.828125 65.921875 22.671875 59.328125 
Q 17.53125 52.734375 16.796875 39.40625 
Q 19.671875 43.65625 24.015625 45.921875 
Q 28.375 48.1875 33.59375 48.1875 
Q 44.578125 48.1875 50.953125 41.515625 
Q 57.328125 34.859375 57.328125 23.390625 
Q 57.328125 12.15625 50.6875 5.359375 
Q 44.046875 -1.421875 33.015625 -1.421875 
Q 20.359375 -1.421875 13.671875 8.265625 
Q 6.984375 17.96875 6.984375 36.375 
Q 6.984375 53.65625 15.1875 63.9375 
Q 23.390625 74.21875 37.203125 74.21875 
Q 40.921875 74.21875 44.703125 73.484375 
Q 48.484375 72.75 52.59375 71.296875 
" id="BitstreamVeraSans-Roman-36"/>
      </defs>
      <g transform="translate(41.860625 176.96595)scale(0.18 -0.18)">
       <use xlink:href="#BitstreamVeraSans-Roman-30"/>
       <use x="63.623046875" xlink:href="#BitstreamVeraSans-Roman-2e"/>
       <use x="95.41015625" xlink:href="#BitstreamVeraSans-Roman-36"/>
      </g>
     </g>
    </g>
    <g id="ytick_5">
     <g id="line2d_40">
      <path clip-path="url(#pe6de433841)" d="M 74.48625 106.42585 
L 539.38125 106.42585 
" style="fill:none;stroke:#000000;stroke-dasharray:1.000000,3.000000;stroke-dashoffset:0.0;stroke-width:2.0;"/>
     </g>
     <g id="line2d_41">
      <g>
       <use style="stroke:#000000;stroke-width:0.5;" x="74.48625" xlink:href="#mfc4e69be2d" y="106.42585"/>
      </g>
     </g>
     <g id="line2d_42">
      <g>
       <use style="stroke:#000000;stroke-width:0.5;" x="539.38125" xlink:href="#m40035e75bf" y="106.42585"/>
      </g>
     </g>
     <g id="text_14">
      <!-- 0.8 -->
      <defs>
       <path d="M 31.78125 34.625 
Q 24.75 34.625 20.71875 30.859375 
Q 16.703125 27.09375 16.703125 20.515625 
Q 16.703125 13.921875 20.71875 10.15625 
Q 24.75 6.390625 31.78125 6.390625 
Q 38.8125 6.390625 42.859375 10.171875 
Q 46.921875 13.96875 46.921875 20.515625 
Q 46.921875 27.09375 42.890625 30.859375 
Q 38.875 34.625 31.78125 34.625 
M 21.921875 38.8125 
Q 15.578125 40.375 12.03125 44.71875 
Q 8.5 49.078125 8.5 55.328125 
Q 8.5 64.0625 14.71875 69.140625 
Q 20.953125 74.21875 31.78125 74.21875 
Q 42.671875 74.21875 48.875 69.140625 
Q 55.078125 64.0625 55.078125 55.328125 
Q 55.078125 49.078125 51.53125 44.71875 
Q 48 40.375 41.703125 38.8125 
Q 48.828125 37.15625 52.796875 32.3125 
Q 56.78125 27.484375 56.78125 20.515625 
Q 56.78125 9.90625 50.3125 4.234375 
Q 43.84375 -1.421875 31.78125 -1.421875 
Q 19.734375 -1.421875 13.25 4.234375 
Q 6.78125 9.90625 6.78125 20.515625 
Q 6.78125 27.484375 10.78125 32.3125 
Q 14.796875 37.15625 21.921875 38.8125 
M 18.3125 54.390625 
Q 18.3125 48.734375 21.84375 45.5625 
Q 25.390625 42.390625 31.78125 42.390625 
Q 38.140625 42.390625 41.71875 45.5625 
Q 45.3125 48.734375 45.3125 54.390625 
Q 45.3125 60.0625 41.71875 63.234375 
Q 38.140625 66.40625 31.78125 66.40625 
Q 25.390625 66.40625 21.84375 63.234375 
Q 18.3125 60.0625 18.3125 54.390625 
" id="BitstreamVeraSans-Roman-38"/>
      </defs>
      <g transform="translate(41.860625 111.392725)scale(0.18 -0.18)">
       <use xlink:href="#BitstreamVeraSans-Roman-30"/>
       <use x="63.623046875" xlink:href="#BitstreamVeraSans-Roman-2e"/>
       <use x="95.41015625" xlink:href="#BitstreamVeraSans-Roman-38"/>
      </g>
     </g>
    </g>
    <g id="ytick_6">
     <g id="line2d_43">
      <path clip-path="url(#pe6de433841)" d="M 74.48625 40.852625 
L 539.38125 40.852625 
" style="fill:none;stroke:#000000;stroke-dasharray:1.000000,3.000000;stroke-dashoffset:0.0;stroke-width:2.0;"/>
     </g>
     <g id="line2d_44">
      <g>
       <use style="stroke:#000000;stroke-width:0.5;" x="74.48625" xlink:href="#mfc4e69be2d" y="40.852625"/>
      </g>
     </g>
     <g id="line2d_45">
      <g>
       <use style="stroke:#000000;stroke-width:0.5;" x="539.38125" xlink:href="#m40035e75bf" y="40.852625"/>
      </g>
     </g>
     <g id="text_15">
      <!-- 1.0 -->
      <g transform="translate(41.860625 45.8195)scale(0.18 -0.18)">
       <use xlink:href="#BitstreamVeraSans-Roman-31"/>
       <use x="63.623046875" xlink:href="#BitstreamVeraSans-Roman-2e"/>
       <use x="95.41015625" xlink:href="#BitstreamVeraSans-Roman-30"/>
      </g>
     </g>
    </g>
    <g id="text_16">
     <!-- Proportion -->
     <defs>
      <path d="M 19.671875 64.796875 
L 19.671875 37.40625 
L 32.078125 37.40625 
Q 38.96875 37.40625 42.71875 40.96875 
Q 46.484375 44.53125 46.484375 51.125 
Q 46.484375 57.671875 42.71875 61.234375 
Q 38.96875 64.796875 32.078125 64.796875 
z
M 9.8125 72.90625 
L 32.078125 72.90625 
Q 44.34375 72.90625 50.609375 67.359375 
Q 56.890625 61.8125 56.890625 51.125 
Q 56.890625 40.328125 50.609375 34.8125 
Q 44.34375 29.296875 32.078125 29.296875 
L 19.671875 29.296875 
L 19.671875 0 
L 9.8125 0 
z
" id="BitstreamVeraSans-Roman-50"/>
      <path d="M 18.3125 70.21875 
L 18.3125 54.6875 
L 36.8125 54.6875 
L 36.8125 47.703125 
L 18.3125 47.703125 
L 18.3125 18.015625 
Q 18.3125 11.328125 20.140625 9.421875 
Q 21.96875 7.515625 27.59375 7.515625 
L 36.8125 7.515625 
L 36.8125 0 
L 27.59375 0 
Q 17.1875 0 13.234375 3.875 
Q 9.28125 7.765625 9.28125 18.015625 
L 9.28125 47.703125 
L 2.6875 47.703125 
L 2.6875 54.6875 
L 9.28125 54.6875 
L 9.28125 70.21875 
z
" id="BitstreamVeraSans-Roman-74"/>
     </defs>
     <g transform="translate(33.1171875 251.5744375)rotate(-90.0)scale(0.18 -0.18)">
      <use xlink:href="#BitstreamVeraSans-Roman-50"/>
      <use x="60.287109375" xlink:href="#BitstreamVeraSans-Roman-72"/>
      <use x="101.369140625" xlink:href="#BitstreamVeraSans-Roman-6f"/>
      <use x="162.55078125" xlink:href="#BitstreamVeraSans-Roman-70"/>
      <use x="226.02734375" xlink:href="#BitstreamVeraSans-Roman-6f"/>
      <use x="287.208984375" xlink:href="#BitstreamVeraSans-Roman-72"/>
      <use x="328.322265625" xlink:href="#BitstreamVeraSans-Roman-74"/>
      <use x="367.53125" xlink:href="#BitstreamVeraSans-Roman-69"/>
      <use x="395.314453125" xlink:href="#BitstreamVeraSans-Roman-6f"/>
      <use x="456.49609375" xlink:href="#BitstreamVeraSans-Roman-6e"/>
     </g>
    </g>
   </g>
   <g id="text_17">
    <!-- Track Roll Speed IRQs -->
    <defs>
     <path d="M 9.078125 75.984375 
L 18.109375 75.984375 
L 18.109375 31.109375 
L 44.921875 54.6875 
L 56.390625 54.6875 
L 27.390625 29.109375 
L 57.625 0 
L 45.90625 0 
L 18.109375 26.703125 
L 18.109375 0 
L 9.078125 0 
z
" id="BitstreamVeraSans-Roman-6b"/>
     <path d="M 53.515625 70.515625 
L 53.515625 60.890625 
Q 47.90625 63.578125 42.921875 64.890625 
Q 37.9375 66.21875 33.296875 66.21875 
Q 25.25 66.21875 20.875 63.09375 
Q 16.5 59.96875 16.5 54.203125 
Q 16.5 49.359375 19.40625 46.890625 
Q 22.3125 44.4375 30.421875 42.921875 
L 36.375 41.703125 
Q 47.40625 39.59375 52.65625 34.296875 
Q 57.90625 29 57.90625 20.125 
Q 57.90625 9.515625 50.796875 4.046875 
Q 43.703125 -1.421875 29.984375 -1.421875 
Q 24.8125 -1.421875 18.96875 -0.25 
Q 13.140625 0.921875 6.890625 3.21875 
L 6.890625 13.375 
Q 12.890625 10.015625 18.65625 8.296875 
Q 24.421875 6.59375 29.984375 6.59375 
Q 38.421875 6.59375 43.015625 9.90625 
Q 47.609375 13.234375 47.609375 19.390625 
Q 47.609375 24.75 44.3125 27.78125 
Q 41.015625 30.8125 33.5 32.328125 
L 27.484375 33.5 
Q 16.453125 35.6875 11.515625 40.375 
Q 6.59375 45.0625 6.59375 53.421875 
Q 6.59375 63.09375 13.40625 68.65625 
Q 20.21875 74.21875 32.171875 74.21875 
Q 37.3125 74.21875 42.625 73.28125 
Q 47.953125 72.359375 53.515625 70.515625 
" id="BitstreamVeraSans-Roman-53"/>
     <path d="M 34.28125 27.484375 
Q 23.390625 27.484375 19.1875 25 
Q 14.984375 22.515625 14.984375 16.5 
Q 14.984375 11.71875 18.140625 8.90625 
Q 21.296875 6.109375 26.703125 6.109375 
Q 34.1875 6.109375 38.703125 11.40625 
Q 43.21875 16.703125 43.21875 25.484375 
L 43.21875 27.484375 
z
M 52.203125 31.203125 
L 52.203125 0 
L 43.21875 0 
L 43.21875 8.296875 
Q 40.140625 3.328125 35.546875 0.953125 
Q 30.953125 -1.421875 24.3125 -1.421875 
Q 15.921875 -1.421875 10.953125 3.296875 
Q 6 8.015625 6 15.921875 
Q 6 25.140625 12.171875 29.828125 
Q 18.359375 34.515625 30.609375 34.515625 
L 43.21875 34.515625 
L 43.21875 35.40625 
Q 43.21875 41.609375 39.140625 45 
Q 35.0625 48.390625 27.6875 48.390625 
Q 23 48.390625 18.546875 47.265625 
Q 14.109375 46.140625 10.015625 43.890625 
L 10.015625 52.203125 
Q 14.9375 54.109375 19.578125 55.046875 
Q 24.21875 56 28.609375 56 
Q 40.484375 56 46.34375 49.84375 
Q 52.203125 43.703125 52.203125 31.203125 
" id="BitstreamVeraSans-Roman-61"/>
     <path d="M 48.78125 52.59375 
L 48.78125 44.1875 
Q 44.96875 46.296875 41.140625 47.34375 
Q 37.3125 48.390625 33.40625 48.390625 
Q 24.65625 48.390625 19.8125 42.84375 
Q 14.984375 37.3125 14.984375 27.296875 
Q 14.984375 17.28125 19.8125 11.734375 
Q 24.65625 6.203125 33.40625 6.203125 
Q 37.3125 6.203125 41.140625 7.25 
Q 44.96875 8.296875 48.78125 10.40625 
L 48.78125 2.09375 
Q 45.015625 0.34375 40.984375 -0.53125 
Q 36.96875 -1.421875 32.421875 -1.421875 
Q 20.0625 -1.421875 12.78125 6.34375 
Q 5.515625 14.109375 5.515625 27.296875 
Q 5.515625 40.671875 12.859375 48.328125 
Q 20.21875 56 33.015625 56 
Q 37.15625 56 41.109375 55.140625 
Q 45.0625 54.296875 48.78125 52.59375 
" id="BitstreamVeraSans-Roman-63"/>
     <path d="M -0.296875 72.90625 
L 61.375 72.90625 
L 61.375 64.59375 
L 35.5 64.59375 
L 35.5 0 
L 25.59375 0 
L 25.59375 64.59375 
L -0.296875 64.59375 
z
" id="BitstreamVeraSans-Roman-54"/>
    </defs>
    <g transform="translate(188.029125 35.852625)scale(0.21599999999999997 -0.21599999999999997)">
     <use xlink:href="#BitstreamVeraSans-Roman-54"/>
     <use x="60.865234375" xlink:href="#BitstreamVeraSans-Roman-72"/>
     <use x="101.978515625" xlink:href="#BitstreamVeraSans-Roman-61"/>
     <use x="163.2578125" xlink:href="#BitstreamVeraSans-Roman-63"/>
     <use x="218.23828125" xlink:href="#BitstreamVeraSans-Roman-6b"/>
     <use x="276.1484375" xlink:href="#BitstreamVeraSans-Roman-20"/>
     <use x="307.935546875" xlink:href="#BitstreamVeraSans-Roman-52"/>
     <use x="377.35546875" xlink:href="#BitstreamVeraSans-Roman-6f"/>
     <use x="438.537109375" xlink:href="#BitstreamVeraSans-Roman-6c"/>
     <use x="466.3203125" xlink:href="#BitstreamVeraSans-Roman-6c"/>
     <use x="494.103515625" xlink:href="#BitstreamVeraSans-Roman-20"/>
     <use x="525.890625" xlink:href="#BitstreamVeraSans-Roman-53"/>
     <use x="589.3671875" xlink:href="#BitstreamVeraSans-Roman-70"/>
     <use x="652.84375" xlink:href="#BitstreamVeraSans-Roman-65"/>
     <use x="714.3671875" xlink:href="#BitstreamVeraSans-Roman-65"/>
     <use x="775.890625" xlink:href="#BitstreamVeraSans-Roman-64"/>
     <use x="839.3671875" xlink:href="#BitstreamVeraSans-Roman-20"/>
     <use x="871.154296875" xlink:href="#BitstreamVeraSans-Roman-49"/>
     <use x="900.646484375" xlink:href="#BitstreamVeraSans-Roman-52"/>
     <use x="970.12890625" xlink:href="#BitstreamVeraSans-Roman-51"/>
     <use x="1048.83984375" xlink:href="#BitstreamVeraSans-Roman-73"/>
    </g>
   </g>
   <g id="legend_1">
    <g id="patch_7">
     <path d="M 353.78325 357.91875 
L 528.58125 357.91875 
L 528.58125 256.3245 
L 353.78325 256.3245 
z
" style="fill:#ffffff;stroke:#000000;stroke-linejoin:miter;"/>
    </g>
    <g id="line2d_46">
     <path d="M 368.90325 273.817125 
L 399.14325 273.817125 
" style="fill:none;stroke:#0000ff;stroke-linecap:square;stroke-width:2.0;"/>
    </g>
    <g id="line2d_47"/>
    <g id="text_18">
     <!-- Levy -->
     <defs>
      <path d="M 2.984375 54.6875 
L 12.5 54.6875 
L 29.59375 8.796875 
L 46.6875 54.6875 
L 56.203125 54.6875 
L 35.6875 0 
L 23.484375 0 
z
" id="BitstreamVeraSans-Roman-76"/>
      <path d="M 32.171875 -5.078125 
Q 28.375 -14.84375 24.75 -17.8125 
Q 21.140625 -20.796875 15.09375 -20.796875 
L 7.90625 -20.796875 
L 7.90625 -13.28125 
L 13.1875 -13.28125 
Q 16.890625 -13.28125 18.9375 -11.515625 
Q 21 -9.765625 23.484375 -3.21875 
L 25.09375 0.875 
L 2.984375 54.6875 
L 12.5 54.6875 
L 29.59375 11.921875 
L 46.6875 54.6875 
L 56.203125 54.6875 
z
" id="BitstreamVeraSans-Roman-79"/>
      <path d="M 9.8125 72.90625 
L 19.671875 72.90625 
L 19.671875 8.296875 
L 55.171875 8.296875 
L 55.171875 0 
L 9.8125 0 
z
" id="BitstreamVeraSans-Roman-4c"/>
     </defs>
     <g transform="translate(422.90325 281.377125)scale(0.21599999999999997 -0.21599999999999997)">
      <use xlink:href="#BitstreamVeraSans-Roman-4c"/>
      <use x="55.697265625" xlink:href="#BitstreamVeraSans-Roman-65"/>
      <use x="117.220703125" xlink:href="#BitstreamVeraSans-Roman-76"/>
      <use x="176.400390625" xlink:href="#BitstreamVeraSans-Roman-79"/>
     </g>
    </g>
    <g id="line2d_48">
     <path d="M 368.90325 305.521875 
L 399.14325 305.521875 
" style="fill:none;stroke:#008000;stroke-linecap:square;stroke-width:2.0;"/>
    </g>
    <g id="line2d_49"/>
    <g id="text_19">
     <!-- CRW -->
     <defs>
      <path d="M 64.40625 67.28125 
L 64.40625 56.890625 
Q 59.421875 61.53125 53.78125 63.8125 
Q 48.140625 66.109375 41.796875 66.109375 
Q 29.296875 66.109375 22.65625 58.46875 
Q 16.015625 50.828125 16.015625 36.375 
Q 16.015625 21.96875 22.65625 14.328125 
Q 29.296875 6.6875 41.796875 6.6875 
Q 48.140625 6.6875 53.78125 8.984375 
Q 59.421875 11.28125 64.40625 15.921875 
L 64.40625 5.609375 
Q 59.234375 2.09375 53.4375 0.328125 
Q 47.65625 -1.421875 41.21875 -1.421875 
Q 24.65625 -1.421875 15.125 8.703125 
Q 5.609375 18.84375 5.609375 36.375 
Q 5.609375 53.953125 15.125 64.078125 
Q 24.65625 74.21875 41.21875 74.21875 
Q 47.75 74.21875 53.53125 72.484375 
Q 59.328125 70.75 64.40625 67.28125 
" id="BitstreamVeraSans-Roman-43"/>
      <path d="M 3.328125 72.90625 
L 13.28125 72.90625 
L 28.609375 11.28125 
L 43.890625 72.90625 
L 54.984375 72.90625 
L 70.3125 11.28125 
L 85.59375 72.90625 
L 95.609375 72.90625 
L 77.296875 0 
L 64.890625 0 
L 49.515625 63.28125 
L 33.984375 0 
L 21.578125 0 
z
" id="BitstreamVeraSans-Roman-57"/>
     </defs>
     <g transform="translate(422.90325 313.081875)scale(0.21599999999999997 -0.21599999999999997)">
      <use xlink:href="#BitstreamVeraSans-Roman-43"/>
      <use x="69.82421875" xlink:href="#BitstreamVeraSans-Roman-52"/>
      <use x="139.244140625" xlink:href="#BitstreamVeraSans-Roman-57"/>
     </g>
    </g>
    <g id="line2d_50">
     <path d="M 368.90325 337.226625 
L 399.14325 337.226625 
" style="fill:none;stroke:#ff0000;stroke-linecap:square;stroke-width:2.0;"/>
    </g>
    <g id="line2d_51"/>
    <g id="text_20">
     <!-- CRW 50s -->
     <g transform="translate(422.90325 344.786625)scale(0.21599999999999997 -0.21599999999999997)">
      <use xlink:href="#BitstreamVeraSans-Roman-43"/>
      <use x="69.82421875" xlink:href="#BitstreamVeraSans-Roman-52"/>
      <use x="139.244140625" xlink:href="#BitstreamVeraSans-Roman-57"/>
      <use x="238.12109375" xlink:href="#BitstreamVeraSans-Roman-20"/>
      <use x="269.908203125" xlink:href="#BitstreamVeraSans-Roman-35"/>
      <use x="333.53125" xlink:href="#BitstreamVeraSans-Roman-30"/>
      <use x="397.154296875" xlink:href="#BitstreamVeraSans-Roman-73"/>
     </g>
    </g>
   </g>
  </g>
 </g>
 <defs>
  <clipPath id="pe6de433841">
   <rect height="327.866125" width="464.895" x="74.48625" y="40.852625"/>
  </clipPath>
 </defs>
</svg>
