<?xml version="1.0" encoding="utf-8" standalone="no"?>
<!DOCTYPE svg PUBLIC "-//W3C//DTD SVG 1.1//EN"
  "http://www.w3.org/Graphics/SVG/1.1/DTD/svg11.dtd">
<!-- Created with matplotlib (http://matplotlib.org/) -->
<svg height="432pt" version="1.1" viewBox="0 0 576 432" width="576pt" xmlns="http://www.w3.org/2000/svg" xmlns:xlink="http://www.w3.org/1999/xlink">
 <defs>
  <style type="text/css">
*{stroke-linecap:butt;stroke-linejoin:round;stroke-miterlimit:100000;}
  </style>
 </defs>
 <g id="figure_1">
  <g id="patch_1">
   <path d="M 0 432 
L 576 432 
L 576 0 
L 0 0 
z
" style="fill:#ffffff;"/>
  </g>
  <g id="axes_1">
   <g id="patch_2">
    <path d="M 74.48625 368.71875 
L 539.38125 368.71875 
L 539.38125 40.852625 
L 74.48625 40.852625 
z
" style="fill:#ffffff;"/>
   </g>
   <g id="line2d_1">
    <path clip-path="url(#pfb76f5a473)" d="M 87.643743 368.71875 
L 87.643743 367.700532 
L 92.893032 366.682314 
L 117.774657 365.664097 
L 120.524317 364.645879 
L 132.082028 362.609443 
L 139.01161 361.591226 
L 159.191724 360.573008 
L 161.226067 359.55479 
L 165.750705 358.536572 
L 166.495728 357.518354 
L 166.793297 356.500137 
L 166.948103 355.481919 
L 170.029709 354.463701 
L 170.319787 353.445483 
L 170.875114 352.427266 
L 172.299448 351.409048 
L 172.931799 350.39083 
L 173.25578 349.372612 
L 173.77054 348.354394 
L 173.776668 346.317959 
L 180.221436 345.299741 
L 181.269666 344.281523 
L 181.637994 343.263306 
L 185.797177 342.245088 
L 186.644303 341.22687 
L 187.751284 340.208652 
L 189.224787 338.172217 
L 189.365402 336.135781 
L 191.0576 335.117563 
L 191.33612 334.099345 
L 191.372773 333.081128 
L 192.6665 332.06291 
L 194.620331 331.044692 
L 195.467512 330.026474 
L 195.672306 329.008257 
L 196.530018 327.990039 
L 196.619429 326.971821 
L 199.130728 325.953603 
L 201.979772 324.935385 
L 204.128497 323.917168 
L 204.291174 322.89895 
L 205.319339 321.880732 
L 205.431746 320.862514 
L 206.867715 319.844297 
L 207.021969 317.807861 
L 209.423238 316.789643 
L 210.015991 315.771425 
L 210.084148 313.73499 
L 212.116293 312.716772 
L 212.369376 311.698554 
L 212.414718 310.680337 
L 212.63739 309.662119 
L 213.60122 308.643901 
L 213.952192 307.625683 
L 215.51892 306.607465 
L 215.80531 305.589248 
L 216.717357 304.57103 
L 217.576628 302.534594 
L 218.799584 301.516377 
L 220.469171 300.498159 
L 222.243249 298.461723 
L 222.328939 296.425288 
L 223.536937 295.40707 
L 223.696471 294.388852 
L 224.420395 292.352417 
L 224.458959 291.334199 
L 225.082633 290.315981 
L 225.509999 289.297763 
L 225.567494 288.279545 
L 226.550954 287.261328 
L 226.934959 286.24311 
L 227.159516 285.224892 
L 228.017793 284.206674 
L 228.421923 283.188457 
L 228.463018 282.170239 
L 229.06885 281.152021 
L 229.152084 280.133803 
L 230.724843 278.097368 
L 231.2079 275.042714 
L 231.928288 274.024497 
L 232.501711 273.006279 
L 232.686037 271.988061 
L 232.992979 270.969843 
L 233.708216 269.951625 
L 234.873379 268.933408 
L 235.411629 267.91519 
L 235.723172 265.878754 
L 236.201637 264.860536 
L 238.079422 262.824101 
L 238.271865 261.805883 
L 240.216261 260.787665 
L 240.236621 259.769448 
L 240.794453 258.75123 
L 241.456182 255.696576 
L 241.468346 254.678359 
L 243.090294 253.660141 
L 243.959052 250.605488 
L 243.997049 249.58727 
L 244.287014 248.569052 
L 245.537718 247.550834 
L 245.843507 244.496181 
L 246.250624 243.477963 
L 246.497416 242.459745 
L 247.339054 241.441528 
L 247.698713 239.405092 
L 249.888583 238.386874 
L 251.361098 237.368656 
L 251.70788 236.350439 
L 253.476825 235.332221 
L 253.547809 233.295785 
L 254.011181 232.277568 
L 254.340783 231.25935 
L 254.547231 228.204696 
L 254.874494 227.186479 
L 254.907018 226.168261 
L 255.829676 225.150043 
L 255.831229 224.131825 
L 256.367999 223.113608 
L 256.610039 222.09539 
L 257.026439 221.077172 
L 257.248716 220.058954 
L 258.075488 219.040736 
L 258.72995 217.004301 
L 258.883409 214.967865 
L 258.903647 213.949648 
L 260.37323 212.93143 
L 260.589363 211.913212 
L 262.643755 210.894994 
L 263.048405 209.876776 
L 263.684057 208.858559 
L 263.847747 207.840341 
L 265.383993 206.822123 
L 266.008386 205.803905 
L 268.45893 204.785687 
L 268.694427 203.76747 
L 268.718913 202.749252 
L 269.246249 201.731034 
L 269.359349 200.712816 
L 270.016285 199.694599 
L 270.148588 198.676381 
L 270.464647 197.658163 
L 271.229379 196.639945 
L 272.459825 195.621727 
L 272.596369 194.60351 
L 272.617381 193.585292 
L 273.119631 192.567074 
L 273.620903 189.512421 
L 273.904625 186.457767 
L 274.25638 185.43955 
L 274.478035 184.421332 
L 274.902551 183.403114 
L 275.484501 182.384896 
L 276.520196 181.366679 
L 277.062697 178.312025 
L 278.050962 177.293807 
L 278.110075 176.27559 
L 278.661582 174.239154 
L 279.30456 173.220936 
L 279.728883 170.166283 
L 281.12962 169.148065 
L 281.812657 166.093412 
L 281.951969 165.075194 
L 282.27682 164.056976 
L 282.463009 163.038759 
L 282.473386 162.020541 
L 282.81369 161.002323 
L 283.013991 159.984105 
L 283.042062 158.965887 
L 283.544119 157.94767 
L 283.820149 156.929452 
L 284.727857 155.911234 
L 285.143718 154.893016 
L 286.096587 153.874799 
L 287.417891 152.856581 
L 288.482854 149.801927 
L 289.104841 148.78371 
L 289.312455 147.765492 
L 289.341736 145.729056 
L 292.495318 143.692621 
L 293.127066 142.674403 
L 293.416666 141.656185 
L 294.6012 140.637967 
L 294.743125 139.61975 
L 295.899448 138.601532 
L 295.980436 136.565096 
L 296.871456 135.546878 
L 297.322638 134.528661 
L 297.650616 133.510443 
L 299.250383 132.492225 
L 299.679179 131.474007 
L 299.717144 130.45579 
L 299.940757 129.437572 
L 299.969013 128.419354 
L 300.296861 126.382918 
L 301.207047 125.364701 
L 301.940275 124.346483 
L 302.099754 122.310047 
L 303.609368 121.29183 
L 304.621731 120.273612 
L 304.851201 119.255394 
L 306.605269 118.237176 
L 306.738546 116.200741 
L 307.292191 115.182523 
L 307.543541 114.164305 
L 307.707373 112.12787 
L 308.014086 110.091434 
L 309.5162 109.073216 
L 310.143057 107.036781 
L 310.858292 106.018563 
L 313.132916 105.000345 
L 313.767549 103.982127 
L 314.237553 101.945692 
L 316.06273 100.927474 
L 316.088841 99.909256 
L 317.307184 98.891038 
L 319.204291 97.872821 
L 319.985811 95.836385 
L 321.497166 94.818167 
L 322.021586 93.79995 
L 322.336474 92.781732 
L 323.296098 91.763514 
L 324.462393 90.745296 
L 325.382597 88.708861 
L 328.009665 87.690643 
L 328.966296 86.672425 
L 330.299567 85.654207 
L 330.70138 84.63599 
L 330.90577 83.617772 
L 334.531313 81.581336 
L 335.867593 79.544901 
L 335.974225 78.526683 
L 337.284147 77.508465 
L 337.83565 76.490247 
L 339.096421 75.47203 
L 341.121675 74.453812 
L 344.417433 73.435594 
L 346.718767 72.417376 
L 347.17763 71.399158 
L 349.295136 69.362723 
L 349.65685 68.344505 
L 351.394545 67.326287 
L 351.680136 66.308069 
L 352.496574 65.289852 
L 357.103317 63.253416 
L 358.689427 62.235198 
L 358.785701 61.216981 
L 361.503158 60.198763 
L 368.672616 59.180545 
L 369.929132 58.162327 
L 374.604028 57.144109 
L 376.750211 56.125892 
L 376.913434 55.107674 
L 386.43951 54.089456 
L 386.593868 53.071238 
L 387.674916 52.053021 
L 388.135632 51.034803 
L 402.574907 50.016585 
L 406.055314 48.998367 
L 407.682072 47.980149 
L 412.238902 46.961932 
L 414.58647 45.943714 
L 426.640664 44.925496 
L 451.075353 43.907278 
L 466.545904 42.889061 
L 468.585273 41.870843 
L 502.660377 40.852625 
L 502.660377 40.852625 
" style="fill:none;stroke:#0000ff;stroke-linecap:square;stroke-width:2.0;"/>
   </g>
   <g id="line2d_2">
    <path clip-path="url(#pfb76f5a473)" d="M 91.323939 368.71875 
L 91.323939 367.443006 
L 112.016331 366.167263 
L 123.810651 364.891519 
L 140.978692 363.615775 
L 142.689106 362.340032 
L 163.748626 361.064288 
L 169.143943 359.788544 
L 170.814537 358.512801 
L 173.810429 357.237057 
L 175.922782 355.961313 
L 176.58956 354.68557 
L 178.385566 353.409826 
L 192.866692 352.134082 
L 192.969639 350.858339 
L 200.807586 349.582595 
L 203.029602 348.306851 
L 207.503262 347.031107 
L 210.318777 344.47962 
L 211.17528 341.928133 
L 216.583399 340.652389 
L 219.261771 339.376645 
L 222.499367 338.100902 
L 223.895278 336.825158 
L 226.43878 335.549414 
L 226.809291 332.997927 
L 227.536695 331.722183 
L 227.822274 330.44644 
L 228.562241 329.170696 
L 228.817996 327.894952 
L 229.905788 326.619209 
L 230.563186 325.343465 
L 230.750542 324.067721 
L 232.109531 321.516234 
L 232.199759 320.24049 
L 233.363784 313.861772 
L 234.595277 312.586028 
L 234.894721 311.310285 
L 234.95843 310.034541 
L 235.237205 308.758797 
L 235.247544 307.483054 
L 235.388329 306.20731 
L 236.198491 304.931566 
L 237.143109 303.655822 
L 237.805106 302.380079 
L 238.023165 301.104335 
L 238.661844 299.828591 
L 238.727274 298.552848 
L 239.098031 297.277104 
L 239.348243 296.00136 
L 240.839432 294.725617 
L 241.428138 293.449873 
L 242.929393 292.174129 
L 243.694567 290.898386 
L 244.000193 288.346898 
L 244.99038 287.071155 
L 245.601587 285.795411 
L 247.393567 284.519667 
L 247.516474 281.96818 
L 248.41583 280.692436 
L 249.808386 279.416693 
L 250.129666 278.140949 
L 251.321298 275.589462 
L 251.607249 274.313718 
L 251.704039 273.037974 
L 251.96803 271.762231 
L 252.398876 270.486487 
L 253.261043 269.210743 
L 253.265884 267.935 
L 253.959572 266.659256 
L 254.229732 265.383512 
L 254.90319 264.107768 
L 255.027632 261.556281 
L 255.17467 260.280537 
L 256.252315 257.72905 
L 256.262214 256.453306 
L 257.584336 252.626075 
L 257.855164 251.350332 
L 258.813107 248.798844 
L 260.00842 247.523101 
L 260.073629 246.247357 
L 260.410178 244.971613 
L 260.551037 243.69587 
L 261.053368 242.420126 
L 261.366688 239.868639 
L 261.959697 237.317151 
L 262.280892 236.041408 
L 263.019983 234.765664 
L 263.154539 233.48992 
L 263.404426 232.214177 
L 264.392992 229.662689 
L 265.041438 228.386946 
L 265.078728 227.111202 
L 266.13874 225.835458 
L 266.149151 224.559714 
L 267.349773 223.283971 
L 267.364874 222.008227 
L 269.327366 220.732483 
L 269.516777 219.45674 
L 269.579563 218.180996 
L 270.132503 216.905252 
L 270.93891 215.629509 
L 272.111769 214.353765 
L 272.992397 213.078021 
L 273.0044 211.802278 
L 273.601202 206.699303 
L 274.069345 205.423559 
L 274.34149 202.872072 
L 274.869724 201.596328 
L 275.234203 200.320585 
L 275.323921 199.044841 
L 276.249595 197.769097 
L 276.462558 196.493354 
L 276.517663 195.21761 
L 277.542467 193.941866 
L 278.082962 192.666123 
L 278.116246 191.390379 
L 278.298252 190.114635 
L 278.788711 188.838892 
L 279.786421 187.563148 
L 281.482804 186.287404 
L 281.685167 185.011661 
L 282.462197 182.460173 
L 283.072379 181.184429 
L 283.549642 179.908686 
L 284.851289 178.632942 
L 284.987418 177.357198 
L 285.427199 176.081455 
L 285.433037 174.805711 
L 285.561652 173.529967 
L 286.578581 172.254224 
L 288.161223 170.97848 
L 289.565713 169.702736 
L 289.583302 168.426993 
L 289.885196 167.151249 
L 289.958109 165.875505 
L 290.320488 164.599762 
L 290.475135 163.324018 
L 291.617229 162.048274 
L 291.730285 160.772531 
L 292.322308 159.496787 
L 292.989133 156.9453 
L 293.529633 155.669556 
L 296.430199 154.393812 
L 297.092608 153.118069 
L 297.20138 151.842325 
L 297.507041 150.566581 
L 298.893387 149.290838 
L 299.422607 148.015094 
L 299.622424 146.73935 
L 300.88526 145.463607 
L 301.532546 144.187863 
L 302.604335 142.912119 
L 303.423921 141.636375 
L 303.538937 140.360632 
L 304.597748 139.084888 
L 304.726947 136.533401 
L 305.492418 135.257657 
L 307.280583 133.981913 
L 307.715517 132.70617 
L 309.284837 131.430426 
L 309.695021 130.154682 
L 310.230298 127.603195 
L 311.527569 125.051708 
L 311.754305 123.775964 
L 312.750786 122.50022 
L 313.004108 121.224477 
L 314.409923 119.948733 
L 316.951039 118.672989 
L 317.174917 117.397246 
L 318.099749 116.121502 
L 319.796242 114.845758 
L 320.975418 113.570015 
L 322.535837 112.294271 
L 323.347285 111.018527 
L 323.469883 109.742784 
L 325.576011 108.46704 
L 326.047102 107.191296 
L 328.745646 103.364065 
L 330.695283 102.088321 
L 331.76714 100.812578 
L 332.093341 99.536834 
L 332.10681 98.26109 
L 332.420441 96.985347 
L 335.178907 95.709603 
L 338.88377 94.433859 
L 340.839475 93.158116 
L 342.100207 90.606628 
L 344.188387 89.330885 
L 344.361027 88.055141 
L 345.828823 86.779397 
L 347.011379 85.503654 
L 353.418535 82.952166 
L 355.052343 81.676423 
L 356.033557 80.400679 
L 357.566296 79.124935 
L 357.616095 77.849192 
L 358.302307 76.573448 
L 364.428716 75.297704 
L 366.244908 74.021961 
L 366.458412 72.746217 
L 368.090764 70.19473 
L 369.115255 68.918986 
L 370.724608 67.643242 
L 370.956843 66.367499 
L 371.483244 65.091755 
L 372.428792 63.816011 
L 373.076342 62.540268 
L 382.129752 61.264524 
L 382.436222 59.98878 
L 383.8546 58.713036 
L 385.961995 57.437293 
L 388.50241 56.161549 
L 395.463897 54.885805 
L 395.852158 53.610062 
L 406.129597 52.334318 
L 414.378666 51.058574 
L 432.369425 49.782831 
L 437.15601 48.507087 
L 450.68066 47.231343 
L 466.461147 45.9556 
L 476.05724 44.679856 
L 486.601274 43.404112 
L 493.89573 42.128369 
L 533.721417 40.852625 
L 533.721417 40.852625 
" style="fill:none;stroke:#008000;stroke-linecap:square;stroke-width:2.0;"/>
   </g>
   <g id="line2d_3">
    <path clip-path="url(#pfb76f5a473)" d="M 104.753681 368.71875 
L 104.753681 366.177152 
L 110.075999 363.635554 
L 120.532514 361.093956 
L 136.74278 358.552359 
L 141.418935 356.010761 
L 155.790449 353.469163 
L 158.314583 350.927565 
L 159.625331 348.385967 
L 161.532932 345.844369 
L 169.734041 343.302771 
L 170.835892 340.761173 
L 173.89946 338.219576 
L 175.839771 335.677978 
L 176.180827 333.13638 
L 183.003123 330.594782 
L 184.43335 325.511586 
L 185.672904 322.969988 
L 187.278322 320.428391 
L 188.33807 317.886793 
L 188.375197 315.345195 
L 191.573915 312.803597 
L 192.502361 310.261999 
L 193.784002 307.720401 
L 195.006441 302.637205 
L 197.457311 300.095608 
L 198.451189 297.55401 
L 198.760205 295.012412 
L 198.939811 289.929216 
L 200.271419 284.84602 
L 200.79077 279.762825 
L 201.437267 277.221227 
L 202.462528 274.679629 
L 202.505447 272.138031 
L 202.774255 269.596433 
L 203.635058 267.054835 
L 203.827201 264.513237 
L 204.267638 261.97164 
L 205.398288 259.430042 
L 206.150636 256.888444 
L 209.010631 254.346846 
L 209.988194 251.805248 
L 210.905752 246.722052 
L 211.036806 244.180454 
L 211.335652 241.638857 
L 211.386514 239.097259 
L 212.007437 231.472465 
L 214.021163 228.930867 
L 214.396955 221.306074 
L 215.29184 218.764476 
L 215.747441 213.68128 
L 215.97346 208.598084 
L 216.700092 206.056486 
L 216.888038 200.973291 
L 217.322294 198.431693 
L 218.54419 193.348497 
L 220.360825 190.806899 
L 220.450359 188.265301 
L 220.944487 185.723703 
L 220.975267 180.640508 
L 221.654685 178.09891 
L 222.089991 175.557312 
L 222.097996 173.015714 
L 222.882731 170.474116 
L 223.194496 167.932518 
L 224.010429 165.390921 
L 224.588173 160.307725 
L 226.362346 157.766127 
L 227.901879 155.224529 
L 228.744169 152.682931 
L 228.909523 147.599735 
L 229.314095 145.058138 
L 230.525745 139.974942 
L 230.8496 137.433344 
L 231.502671 134.891746 
L 231.837708 129.80855 
L 232.465514 127.266953 
L 234.251734 124.725355 
L 234.323208 122.183757 
L 235.617838 119.642159 
L 235.738317 117.100561 
L 236.72878 114.558963 
L 238.068999 112.017365 
L 238.879066 109.475767 
L 238.91859 106.93417 
L 239.685091 104.392572 
L 241.177826 101.850974 
L 241.817402 99.309376 
L 244.206894 96.767778 
L 244.792694 94.22618 
L 249.025341 91.684582 
L 249.243965 89.142984 
L 254.756902 86.601387 
L 255.167124 84.059789 
L 256.049042 81.518191 
L 257.942651 78.976593 
L 259.485601 76.434995 
L 266.82132 73.893397 
L 269.014735 71.351799 
L 274.128101 68.810202 
L 274.292538 66.268604 
L 277.039973 63.727006 
L 279.213945 61.185408 
L 286.527979 58.64381 
L 292.205346 56.102212 
L 295.285857 53.560614 
L 302.454112 51.019016 
L 303.394629 48.477419 
L 330.793137 45.935821 
L 331.275353 43.394223 
L 333.431122 40.852625 
L 333.431122 40.852625 
" style="fill:none;stroke:#ff0000;stroke-linecap:square;stroke-width:2.0;"/>
   </g>
   <g id="patch_3">
    <path d="M 539.38125 368.71875 
L 539.38125 40.852625 
" style="fill:none;stroke:#000000;stroke-linecap:square;stroke-linejoin:miter;stroke-width:2.0;"/>
   </g>
   <g id="patch_4">
    <path d="M 74.48625 368.71875 
L 539.38125 368.71875 
" style="fill:none;stroke:#000000;stroke-linecap:square;stroke-linejoin:miter;stroke-width:2.0;"/>
   </g>
   <g id="patch_5">
    <path d="M 74.48625 40.852625 
L 539.38125 40.852625 
" style="fill:none;stroke:#000000;stroke-linecap:square;stroke-linejoin:miter;stroke-width:2.0;"/>
   </g>
   <g id="patch_6">
    <path d="M 74.48625 368.71875 
L 74.48625 40.852625 
" style="fill:none;stroke:#000000;stroke-linecap:square;stroke-linejoin:miter;stroke-width:2.0;"/>
   </g>
   <g id="matplotlib.axis_1">
    <g id="xtick_1">
     <g id="line2d_4">
      <path clip-path="url(#pfb76f5a473)" d="M 74.48625 368.71875 
L 74.48625 40.852625 
" style="fill:none;stroke:#000000;stroke-dasharray:1.000000,3.000000;stroke-dashoffset:0.0;stroke-width:2.0;"/>
     </g>
     <g id="line2d_5">
      <defs>
       <path d="M 0 0 
L 0 -4 
" id="m9c9477e833" style="stroke:#000000;stroke-width:0.5;"/>
      </defs>
      <g>
       <use style="stroke:#000000;stroke-width:0.5;" x="74.48625" xlink:href="#m9c9477e833" y="368.71875"/>
      </g>
     </g>
     <g id="line2d_6">
      <defs>
       <path d="M 0 0 
L 0 4 
" id="m0fca5250b2" style="stroke:#000000;stroke-width:0.5;"/>
      </defs>
      <g>
       <use style="stroke:#000000;stroke-width:0.5;" x="74.48625" xlink:href="#m0fca5250b2" y="40.852625"/>
      </g>
     </g>
     <g id="text_1">
      <!-- 0 -->
      <defs>
       <path d="M 31.78125 66.40625 
Q 24.171875 66.40625 20.328125 58.90625 
Q 16.5 51.421875 16.5 36.375 
Q 16.5 21.390625 20.328125 13.890625 
Q 24.171875 6.390625 31.78125 6.390625 
Q 39.453125 6.390625 43.28125 13.890625 
Q 47.125 21.390625 47.125 36.375 
Q 47.125 51.421875 43.28125 58.90625 
Q 39.453125 66.40625 31.78125 66.40625 
M 31.78125 74.21875 
Q 44.046875 74.21875 50.515625 64.515625 
Q 56.984375 54.828125 56.984375 36.375 
Q 56.984375 17.96875 50.515625 8.265625 
Q 44.046875 -1.421875 31.78125 -1.421875 
Q 19.53125 -1.421875 13.0625 8.265625 
Q 6.59375 17.96875 6.59375 36.375 
Q 6.59375 54.828125 13.0625 64.515625 
Q 19.53125 74.21875 31.78125 74.21875 
" id="BitstreamVeraSans-Roman-30"/>
      </defs>
      <g transform="translate(68.76 386.3959375)scale(0.18 -0.18)">
       <use xlink:href="#BitstreamVeraSans-Roman-30"/>
      </g>
     </g>
    </g>
    <g id="xtick_2">
     <g id="line2d_7">
      <path clip-path="url(#pfb76f5a473)" d="M 140.899821 368.71875 
L 140.899821 40.852625 
" style="fill:none;stroke:#000000;stroke-dasharray:1.000000,3.000000;stroke-dashoffset:0.0;stroke-width:2.0;"/>
     </g>
     <g id="line2d_8">
      <g>
       <use style="stroke:#000000;stroke-width:0.5;" x="140.899821429" xlink:href="#m9c9477e833" y="368.71875"/>
      </g>
     </g>
     <g id="line2d_9">
      <g>
       <use style="stroke:#000000;stroke-width:0.5;" x="140.899821429" xlink:href="#m0fca5250b2" y="40.852625"/>
      </g>
     </g>
     <g id="text_2">
      <!-- 50 -->
      <defs>
       <path d="M 10.796875 72.90625 
L 49.515625 72.90625 
L 49.515625 64.59375 
L 19.828125 64.59375 
L 19.828125 46.734375 
Q 21.96875 47.46875 24.109375 47.828125 
Q 26.265625 48.1875 28.421875 48.1875 
Q 40.625 48.1875 47.75 41.5 
Q 54.890625 34.8125 54.890625 23.390625 
Q 54.890625 11.625 47.5625 5.09375 
Q 40.234375 -1.421875 26.90625 -1.421875 
Q 22.3125 -1.421875 17.546875 -0.640625 
Q 12.796875 0.140625 7.71875 1.703125 
L 7.71875 11.625 
Q 12.109375 9.234375 16.796875 8.0625 
Q 21.484375 6.890625 26.703125 6.890625 
Q 35.15625 6.890625 40.078125 11.328125 
Q 45.015625 15.765625 45.015625 23.390625 
Q 45.015625 31 40.078125 35.4375 
Q 35.15625 39.890625 26.703125 39.890625 
Q 22.75 39.890625 18.8125 39.015625 
Q 14.890625 38.140625 10.796875 36.28125 
z
" id="BitstreamVeraSans-Roman-35"/>
      </defs>
      <g transform="translate(129.447321429 386.3959375)scale(0.18 -0.18)">
       <use xlink:href="#BitstreamVeraSans-Roman-35"/>
       <use x="63.623046875" xlink:href="#BitstreamVeraSans-Roman-30"/>
      </g>
     </g>
    </g>
    <g id="xtick_3">
     <g id="line2d_10">
      <path clip-path="url(#pfb76f5a473)" d="M 207.313393 368.71875 
L 207.313393 40.852625 
" style="fill:none;stroke:#000000;stroke-dasharray:1.000000,3.000000;stroke-dashoffset:0.0;stroke-width:2.0;"/>
     </g>
     <g id="line2d_11">
      <g>
       <use style="stroke:#000000;stroke-width:0.5;" x="207.313392857" xlink:href="#m9c9477e833" y="368.71875"/>
      </g>
     </g>
     <g id="line2d_12">
      <g>
       <use style="stroke:#000000;stroke-width:0.5;" x="207.313392857" xlink:href="#m0fca5250b2" y="40.852625"/>
      </g>
     </g>
     <g id="text_3">
      <!-- 100 -->
      <defs>
       <path d="M 12.40625 8.296875 
L 28.515625 8.296875 
L 28.515625 63.921875 
L 10.984375 60.40625 
L 10.984375 69.390625 
L 28.421875 72.90625 
L 38.28125 72.90625 
L 38.28125 8.296875 
L 54.390625 8.296875 
L 54.390625 0 
L 12.40625 0 
z
" id="BitstreamVeraSans-Roman-31"/>
      </defs>
      <g transform="translate(190.134642857 386.3959375)scale(0.18 -0.18)">
       <use xlink:href="#BitstreamVeraSans-Roman-31"/>
       <use x="63.623046875" xlink:href="#BitstreamVeraSans-Roman-30"/>
       <use x="127.24609375" xlink:href="#BitstreamVeraSans-Roman-30"/>
      </g>
     </g>
    </g>
    <g id="xtick_4">
     <g id="line2d_13">
      <path clip-path="url(#pfb76f5a473)" d="M 273.726964 368.71875 
L 273.726964 40.852625 
" style="fill:none;stroke:#000000;stroke-dasharray:1.000000,3.000000;stroke-dashoffset:0.0;stroke-width:2.0;"/>
     </g>
     <g id="line2d_14">
      <g>
       <use style="stroke:#000000;stroke-width:0.5;" x="273.726964286" xlink:href="#m9c9477e833" y="368.71875"/>
      </g>
     </g>
     <g id="line2d_15">
      <g>
       <use style="stroke:#000000;stroke-width:0.5;" x="273.726964286" xlink:href="#m0fca5250b2" y="40.852625"/>
      </g>
     </g>
     <g id="text_4">
      <!-- 150 -->
      <g transform="translate(256.548214286 386.3959375)scale(0.18 -0.18)">
       <use xlink:href="#BitstreamVeraSans-Roman-31"/>
       <use x="63.623046875" xlink:href="#BitstreamVeraSans-Roman-35"/>
       <use x="127.24609375" xlink:href="#BitstreamVeraSans-Roman-30"/>
      </g>
     </g>
    </g>
    <g id="xtick_5">
     <g id="line2d_16">
      <path clip-path="url(#pfb76f5a473)" d="M 340.140536 368.71875 
L 340.140536 40.852625 
" style="fill:none;stroke:#000000;stroke-dasharray:1.000000,3.000000;stroke-dashoffset:0.0;stroke-width:2.0;"/>
     </g>
     <g id="line2d_17">
      <g>
       <use style="stroke:#000000;stroke-width:0.5;" x="340.140535714" xlink:href="#m9c9477e833" y="368.71875"/>
      </g>
     </g>
     <g id="line2d_18">
      <g>
       <use style="stroke:#000000;stroke-width:0.5;" x="340.140535714" xlink:href="#m0fca5250b2" y="40.852625"/>
      </g>
     </g>
     <g id="text_5">
      <!-- 200 -->
      <defs>
       <path d="M 19.1875 8.296875 
L 53.609375 8.296875 
L 53.609375 0 
L 7.328125 0 
L 7.328125 8.296875 
Q 12.9375 14.109375 22.625 23.890625 
Q 32.328125 33.6875 34.8125 36.53125 
Q 39.546875 41.84375 41.421875 45.53125 
Q 43.3125 49.21875 43.3125 52.78125 
Q 43.3125 58.59375 39.234375 62.25 
Q 35.15625 65.921875 28.609375 65.921875 
Q 23.96875 65.921875 18.8125 64.3125 
Q 13.671875 62.703125 7.8125 59.421875 
L 7.8125 69.390625 
Q 13.765625 71.78125 18.9375 73 
Q 24.125 74.21875 28.421875 74.21875 
Q 39.75 74.21875 46.484375 68.546875 
Q 53.21875 62.890625 53.21875 53.421875 
Q 53.21875 48.921875 51.53125 44.890625 
Q 49.859375 40.875 45.40625 35.40625 
Q 44.1875 33.984375 37.640625 27.21875 
Q 31.109375 20.453125 19.1875 8.296875 
" id="BitstreamVeraSans-Roman-32"/>
      </defs>
      <g transform="translate(322.961785714 386.3959375)scale(0.18 -0.18)">
       <use xlink:href="#BitstreamVeraSans-Roman-32"/>
       <use x="63.623046875" xlink:href="#BitstreamVeraSans-Roman-30"/>
       <use x="127.24609375" xlink:href="#BitstreamVeraSans-Roman-30"/>
      </g>
     </g>
    </g>
    <g id="xtick_6">
     <g id="line2d_19">
      <path clip-path="url(#pfb76f5a473)" d="M 406.554107 368.71875 
L 406.554107 40.852625 
" style="fill:none;stroke:#000000;stroke-dasharray:1.000000,3.000000;stroke-dashoffset:0.0;stroke-width:2.0;"/>
     </g>
     <g id="line2d_20">
      <g>
       <use style="stroke:#000000;stroke-width:0.5;" x="406.554107143" xlink:href="#m9c9477e833" y="368.71875"/>
      </g>
     </g>
     <g id="line2d_21">
      <g>
       <use style="stroke:#000000;stroke-width:0.5;" x="406.554107143" xlink:href="#m0fca5250b2" y="40.852625"/>
      </g>
     </g>
     <g id="text_6">
      <!-- 250 -->
      <g transform="translate(389.375357143 386.3959375)scale(0.18 -0.18)">
       <use xlink:href="#BitstreamVeraSans-Roman-32"/>
       <use x="63.623046875" xlink:href="#BitstreamVeraSans-Roman-35"/>
       <use x="127.24609375" xlink:href="#BitstreamVeraSans-Roman-30"/>
      </g>
     </g>
    </g>
    <g id="xtick_7">
     <g id="line2d_22">
      <path clip-path="url(#pfb76f5a473)" d="M 472.967679 368.71875 
L 472.967679 40.852625 
" style="fill:none;stroke:#000000;stroke-dasharray:1.000000,3.000000;stroke-dashoffset:0.0;stroke-width:2.0;"/>
     </g>
     <g id="line2d_23">
      <g>
       <use style="stroke:#000000;stroke-width:0.5;" x="472.967678571" xlink:href="#m9c9477e833" y="368.71875"/>
      </g>
     </g>
     <g id="line2d_24">
      <g>
       <use style="stroke:#000000;stroke-width:0.5;" x="472.967678571" xlink:href="#m0fca5250b2" y="40.852625"/>
      </g>
     </g>
     <g id="text_7">
      <!-- 300 -->
      <defs>
       <path d="M 40.578125 39.3125 
Q 47.65625 37.796875 51.625 33 
Q 55.609375 28.21875 55.609375 21.1875 
Q 55.609375 10.40625 48.1875 4.484375 
Q 40.765625 -1.421875 27.09375 -1.421875 
Q 22.515625 -1.421875 17.65625 -0.515625 
Q 12.796875 0.390625 7.625 2.203125 
L 7.625 11.71875 
Q 11.71875 9.328125 16.59375 8.109375 
Q 21.484375 6.890625 26.8125 6.890625 
Q 36.078125 6.890625 40.9375 10.546875 
Q 45.796875 14.203125 45.796875 21.1875 
Q 45.796875 27.640625 41.28125 31.265625 
Q 36.765625 34.90625 28.71875 34.90625 
L 20.21875 34.90625 
L 20.21875 43.015625 
L 29.109375 43.015625 
Q 36.375 43.015625 40.234375 45.921875 
Q 44.09375 48.828125 44.09375 54.296875 
Q 44.09375 59.90625 40.109375 62.90625 
Q 36.140625 65.921875 28.71875 65.921875 
Q 24.65625 65.921875 20.015625 65.03125 
Q 15.375 64.15625 9.8125 62.3125 
L 9.8125 71.09375 
Q 15.4375 72.65625 20.34375 73.4375 
Q 25.25 74.21875 29.59375 74.21875 
Q 40.828125 74.21875 47.359375 69.109375 
Q 53.90625 64.015625 53.90625 55.328125 
Q 53.90625 49.265625 50.4375 45.09375 
Q 46.96875 40.921875 40.578125 39.3125 
" id="BitstreamVeraSans-Roman-33"/>
      </defs>
      <g transform="translate(455.788928571 386.3959375)scale(0.18 -0.18)">
       <use xlink:href="#BitstreamVeraSans-Roman-33"/>
       <use x="63.623046875" xlink:href="#BitstreamVeraSans-Roman-30"/>
       <use x="127.24609375" xlink:href="#BitstreamVeraSans-Roman-30"/>
      </g>
     </g>
    </g>
    <g id="xtick_8">
     <g id="line2d_25">
      <path clip-path="url(#pfb76f5a473)" d="M 539.38125 368.71875 
L 539.38125 40.852625 
" style="fill:none;stroke:#000000;stroke-dasharray:1.000000,3.000000;stroke-dashoffset:0.0;stroke-width:2.0;"/>
     </g>
     <g id="line2d_26">
      <g>
       <use style="stroke:#000000;stroke-width:0.5;" x="539.38125" xlink:href="#m9c9477e833" y="368.71875"/>
      </g>
     </g>
     <g id="line2d_27">
      <g>
       <use style="stroke:#000000;stroke-width:0.5;" x="539.38125" xlink:href="#m0fca5250b2" y="40.852625"/>
      </g>
     </g>
     <g id="text_8">
      <!-- 350 -->
      <g transform="translate(522.2025 386.3959375)scale(0.18 -0.18)">
       <use xlink:href="#BitstreamVeraSans-Roman-33"/>
       <use x="63.623046875" xlink:href="#BitstreamVeraSans-Roman-35"/>
       <use x="127.24609375" xlink:href="#BitstreamVeraSans-Roman-30"/>
      </g>
     </g>
    </g>
    <g id="text_9">
     <!-- Median roll speed (degrees/min) -->
     <defs>
      <path d="M 9.421875 75.984375 
L 18.40625 75.984375 
L 18.40625 0 
L 9.421875 0 
z
" id="BitstreamVeraSans-Roman-6c"/>
      <path d="M 9.8125 72.90625 
L 24.515625 72.90625 
L 43.109375 23.296875 
L 61.8125 72.90625 
L 76.515625 72.90625 
L 76.515625 0 
L 66.890625 0 
L 66.890625 64.015625 
L 48.09375 14.015625 
L 38.1875 14.015625 
L 19.390625 64.015625 
L 19.390625 0 
L 9.8125 0 
z
" id="BitstreamVeraSans-Roman-4d"/>
      <path d="M 25.390625 72.90625 
L 33.6875 72.90625 
L 8.296875 -9.28125 
L 0 -9.28125 
z
" id="BitstreamVeraSans-Roman-2f"/>
      <path d="M 34.28125 27.484375 
Q 23.390625 27.484375 19.1875 25 
Q 14.984375 22.515625 14.984375 16.5 
Q 14.984375 11.71875 18.140625 8.90625 
Q 21.296875 6.109375 26.703125 6.109375 
Q 34.1875 6.109375 38.703125 11.40625 
Q 43.21875 16.703125 43.21875 25.484375 
L 43.21875 27.484375 
z
M 52.203125 31.203125 
L 52.203125 0 
L 43.21875 0 
L 43.21875 8.296875 
Q 40.140625 3.328125 35.546875 0.953125 
Q 30.953125 -1.421875 24.3125 -1.421875 
Q 15.921875 -1.421875 10.953125 3.296875 
Q 6 8.015625 6 15.921875 
Q 6 25.140625 12.171875 29.828125 
Q 18.359375 34.515625 30.609375 34.515625 
L 43.21875 34.515625 
L 43.21875 35.40625 
Q 43.21875 41.609375 39.140625 45 
Q 35.0625 48.390625 27.6875 48.390625 
Q 23 48.390625 18.546875 47.265625 
Q 14.109375 46.140625 10.015625 43.890625 
L 10.015625 52.203125 
Q 14.9375 54.109375 19.578125 55.046875 
Q 24.21875 56 28.609375 56 
Q 40.484375 56 46.34375 49.84375 
Q 52.203125 43.703125 52.203125 31.203125 
" id="BitstreamVeraSans-Roman-61"/>
      <path d="M 8.015625 75.875 
L 15.828125 75.875 
Q 23.140625 64.359375 26.78125 53.3125 
Q 30.421875 42.28125 30.421875 31.390625 
Q 30.421875 20.453125 26.78125 9.375 
Q 23.140625 -1.703125 15.828125 -13.1875 
L 8.015625 -13.1875 
Q 14.5 -2 17.703125 9.0625 
Q 20.90625 20.125 20.90625 31.390625 
Q 20.90625 42.671875 17.703125 53.65625 
Q 14.5 64.65625 8.015625 75.875 
" id="BitstreamVeraSans-Roman-29"/>
      <path d="M 45.40625 46.390625 
L 45.40625 75.984375 
L 54.390625 75.984375 
L 54.390625 0 
L 45.40625 0 
L 45.40625 8.203125 
Q 42.578125 3.328125 38.25 0.953125 
Q 33.9375 -1.421875 27.875 -1.421875 
Q 17.96875 -1.421875 11.734375 6.484375 
Q 5.515625 14.40625 5.515625 27.296875 
Q 5.515625 40.1875 11.734375 48.09375 
Q 17.96875 56 27.875 56 
Q 33.9375 56 38.25 53.625 
Q 42.578125 51.265625 45.40625 46.390625 
M 14.796875 27.296875 
Q 14.796875 17.390625 18.875 11.75 
Q 22.953125 6.109375 30.078125 6.109375 
Q 37.203125 6.109375 41.296875 11.75 
Q 45.40625 17.390625 45.40625 27.296875 
Q 45.40625 37.203125 41.296875 42.84375 
Q 37.203125 48.484375 30.078125 48.484375 
Q 22.953125 48.484375 18.875 42.84375 
Q 14.796875 37.203125 14.796875 27.296875 
" id="BitstreamVeraSans-Roman-64"/>
      <path d="M 31 75.875 
Q 24.46875 64.65625 21.28125 53.65625 
Q 18.109375 42.671875 18.109375 31.390625 
Q 18.109375 20.125 21.3125 9.0625 
Q 24.515625 -2 31 -13.1875 
L 23.1875 -13.1875 
Q 15.875 -1.703125 12.234375 9.375 
Q 8.59375 20.453125 8.59375 31.390625 
Q 8.59375 42.28125 12.203125 53.3125 
Q 15.828125 64.359375 23.1875 75.875 
z
" id="BitstreamVeraSans-Roman-28"/>
      <path id="BitstreamVeraSans-Roman-20"/>
      <path d="M 54.890625 33.015625 
L 54.890625 0 
L 45.90625 0 
L 45.90625 32.71875 
Q 45.90625 40.484375 42.875 44.328125 
Q 39.84375 48.1875 33.796875 48.1875 
Q 26.515625 48.1875 22.3125 43.546875 
Q 18.109375 38.921875 18.109375 30.90625 
L 18.109375 0 
L 9.078125 0 
L 9.078125 54.6875 
L 18.109375 54.6875 
L 18.109375 46.1875 
Q 21.34375 51.125 25.703125 53.5625 
Q 30.078125 56 35.796875 56 
Q 45.21875 56 50.046875 50.171875 
Q 54.890625 44.34375 54.890625 33.015625 
" id="BitstreamVeraSans-Roman-6e"/>
      <path d="M 52 44.1875 
Q 55.375 50.25 60.0625 53.125 
Q 64.75 56 71.09375 56 
Q 79.640625 56 84.28125 50.015625 
Q 88.921875 44.046875 88.921875 33.015625 
L 88.921875 0 
L 79.890625 0 
L 79.890625 32.71875 
Q 79.890625 40.578125 77.09375 44.375 
Q 74.3125 48.1875 68.609375 48.1875 
Q 61.625 48.1875 57.5625 43.546875 
Q 53.515625 38.921875 53.515625 30.90625 
L 53.515625 0 
L 44.484375 0 
L 44.484375 32.71875 
Q 44.484375 40.625 41.703125 44.40625 
Q 38.921875 48.1875 33.109375 48.1875 
Q 26.21875 48.1875 22.15625 43.53125 
Q 18.109375 38.875 18.109375 30.90625 
L 18.109375 0 
L 9.078125 0 
L 9.078125 54.6875 
L 18.109375 54.6875 
L 18.109375 46.1875 
Q 21.1875 51.21875 25.484375 53.609375 
Q 29.78125 56 35.6875 56 
Q 41.65625 56 45.828125 52.96875 
Q 50 49.953125 52 44.1875 
" id="BitstreamVeraSans-Roman-6d"/>
      <path d="M 41.109375 46.296875 
Q 39.59375 47.171875 37.8125 47.578125 
Q 36.03125 48 33.890625 48 
Q 26.265625 48 22.1875 43.046875 
Q 18.109375 38.09375 18.109375 28.8125 
L 18.109375 0 
L 9.078125 0 
L 9.078125 54.6875 
L 18.109375 54.6875 
L 18.109375 46.1875 
Q 20.953125 51.171875 25.484375 53.578125 
Q 30.03125 56 36.53125 56 
Q 37.453125 56 38.578125 55.875 
Q 39.703125 55.765625 41.0625 55.515625 
z
" id="BitstreamVeraSans-Roman-72"/>
      <path d="M 9.421875 54.6875 
L 18.40625 54.6875 
L 18.40625 0 
L 9.421875 0 
z
M 9.421875 75.984375 
L 18.40625 75.984375 
L 18.40625 64.59375 
L 9.421875 64.59375 
z
" id="BitstreamVeraSans-Roman-69"/>
      <path d="M 56.203125 29.59375 
L 56.203125 25.203125 
L 14.890625 25.203125 
Q 15.484375 15.921875 20.484375 11.0625 
Q 25.484375 6.203125 34.421875 6.203125 
Q 39.59375 6.203125 44.453125 7.46875 
Q 49.3125 8.734375 54.109375 11.28125 
L 54.109375 2.78125 
Q 49.265625 0.734375 44.1875 -0.34375 
Q 39.109375 -1.421875 33.890625 -1.421875 
Q 20.796875 -1.421875 13.15625 6.1875 
Q 5.515625 13.8125 5.515625 26.8125 
Q 5.515625 40.234375 12.765625 48.109375 
Q 20.015625 56 32.328125 56 
Q 43.359375 56 49.78125 48.890625 
Q 56.203125 41.796875 56.203125 29.59375 
M 47.21875 32.234375 
Q 47.125 39.59375 43.09375 43.984375 
Q 39.0625 48.390625 32.421875 48.390625 
Q 24.90625 48.390625 20.390625 44.140625 
Q 15.875 39.890625 15.1875 32.171875 
z
" id="BitstreamVeraSans-Roman-65"/>
      <path d="M 18.109375 8.203125 
L 18.109375 -20.796875 
L 9.078125 -20.796875 
L 9.078125 54.6875 
L 18.109375 54.6875 
L 18.109375 46.390625 
Q 20.953125 51.265625 25.265625 53.625 
Q 29.59375 56 35.59375 56 
Q 45.5625 56 51.78125 48.09375 
Q 58.015625 40.1875 58.015625 27.296875 
Q 58.015625 14.40625 51.78125 6.484375 
Q 45.5625 -1.421875 35.59375 -1.421875 
Q 29.59375 -1.421875 25.265625 0.953125 
Q 20.953125 3.328125 18.109375 8.203125 
M 48.6875 27.296875 
Q 48.6875 37.203125 44.609375 42.84375 
Q 40.53125 48.484375 33.40625 48.484375 
Q 26.265625 48.484375 22.1875 42.84375 
Q 18.109375 37.203125 18.109375 27.296875 
Q 18.109375 17.390625 22.1875 11.75 
Q 26.265625 6.109375 33.40625 6.109375 
Q 40.53125 6.109375 44.609375 11.75 
Q 48.6875 17.390625 48.6875 27.296875 
" id="BitstreamVeraSans-Roman-70"/>
      <path d="M 45.40625 27.984375 
Q 45.40625 37.75 41.375 43.109375 
Q 37.359375 48.484375 30.078125 48.484375 
Q 22.859375 48.484375 18.828125 43.109375 
Q 14.796875 37.75 14.796875 27.984375 
Q 14.796875 18.265625 18.828125 12.890625 
Q 22.859375 7.515625 30.078125 7.515625 
Q 37.359375 7.515625 41.375 12.890625 
Q 45.40625 18.265625 45.40625 27.984375 
M 54.390625 6.78125 
Q 54.390625 -7.171875 48.1875 -13.984375 
Q 42 -20.796875 29.203125 -20.796875 
Q 24.46875 -20.796875 20.265625 -20.09375 
Q 16.0625 -19.390625 12.109375 -17.921875 
L 12.109375 -9.1875 
Q 16.0625 -11.328125 19.921875 -12.34375 
Q 23.78125 -13.375 27.78125 -13.375 
Q 36.625 -13.375 41.015625 -8.765625 
Q 45.40625 -4.15625 45.40625 5.171875 
L 45.40625 9.625 
Q 42.625 4.78125 38.28125 2.390625 
Q 33.9375 0 27.875 0 
Q 17.828125 0 11.671875 7.65625 
Q 5.515625 15.328125 5.515625 27.984375 
Q 5.515625 40.671875 11.671875 48.328125 
Q 17.828125 56 27.875 56 
Q 33.9375 56 38.28125 53.609375 
Q 42.625 51.21875 45.40625 46.390625 
L 45.40625 54.6875 
L 54.390625 54.6875 
z
" id="BitstreamVeraSans-Roman-67"/>
      <path d="M 30.609375 48.390625 
Q 23.390625 48.390625 19.1875 42.75 
Q 14.984375 37.109375 14.984375 27.296875 
Q 14.984375 17.484375 19.15625 11.84375 
Q 23.34375 6.203125 30.609375 6.203125 
Q 37.796875 6.203125 41.984375 11.859375 
Q 46.1875 17.53125 46.1875 27.296875 
Q 46.1875 37.015625 41.984375 42.703125 
Q 37.796875 48.390625 30.609375 48.390625 
M 30.609375 56 
Q 42.328125 56 49.015625 48.375 
Q 55.71875 40.765625 55.71875 27.296875 
Q 55.71875 13.875 49.015625 6.21875 
Q 42.328125 -1.421875 30.609375 -1.421875 
Q 18.84375 -1.421875 12.171875 6.21875 
Q 5.515625 13.875 5.515625 27.296875 
Q 5.515625 40.765625 12.171875 48.375 
Q 18.84375 56 30.609375 56 
" id="BitstreamVeraSans-Roman-6f"/>
      <path d="M 44.28125 53.078125 
L 44.28125 44.578125 
Q 40.484375 46.53125 36.375 47.5 
Q 32.28125 48.484375 27.875 48.484375 
Q 21.1875 48.484375 17.84375 46.4375 
Q 14.5 44.390625 14.5 40.28125 
Q 14.5 37.15625 16.890625 35.375 
Q 19.28125 33.59375 26.515625 31.984375 
L 29.59375 31.296875 
Q 39.15625 29.25 43.1875 25.515625 
Q 47.21875 21.78125 47.21875 15.09375 
Q 47.21875 7.46875 41.1875 3.015625 
Q 35.15625 -1.421875 24.609375 -1.421875 
Q 20.21875 -1.421875 15.453125 -0.5625 
Q 10.6875 0.296875 5.421875 2 
L 5.421875 11.28125 
Q 10.40625 8.6875 15.234375 7.390625 
Q 20.0625 6.109375 24.8125 6.109375 
Q 31.15625 6.109375 34.5625 8.28125 
Q 37.984375 10.453125 37.984375 14.40625 
Q 37.984375 18.0625 35.515625 20.015625 
Q 33.0625 21.96875 24.703125 23.78125 
L 21.578125 24.515625 
Q 13.234375 26.265625 9.515625 29.90625 
Q 5.8125 33.546875 5.8125 39.890625 
Q 5.8125 47.609375 11.28125 51.796875 
Q 16.75 56 26.8125 56 
Q 31.78125 56 36.171875 55.265625 
Q 40.578125 54.546875 44.28125 53.078125 
" id="BitstreamVeraSans-Roman-73"/>
     </defs>
     <g transform="translate(160.76953125 408.8165625)scale(0.18 -0.18)">
      <use xlink:href="#BitstreamVeraSans-Roman-4d"/>
      <use x="86.279296875" xlink:href="#BitstreamVeraSans-Roman-65"/>
      <use x="147.802734375" xlink:href="#BitstreamVeraSans-Roman-64"/>
      <use x="211.279296875" xlink:href="#BitstreamVeraSans-Roman-69"/>
      <use x="239.0625" xlink:href="#BitstreamVeraSans-Roman-61"/>
      <use x="300.341796875" xlink:href="#BitstreamVeraSans-Roman-6e"/>
      <use x="363.720703125" xlink:href="#BitstreamVeraSans-Roman-20"/>
      <use x="395.5078125" xlink:href="#BitstreamVeraSans-Roman-72"/>
      <use x="436.58984375" xlink:href="#BitstreamVeraSans-Roman-6f"/>
      <use x="497.771484375" xlink:href="#BitstreamVeraSans-Roman-6c"/>
      <use x="525.5546875" xlink:href="#BitstreamVeraSans-Roman-6c"/>
      <use x="553.337890625" xlink:href="#BitstreamVeraSans-Roman-20"/>
      <use x="585.125" xlink:href="#BitstreamVeraSans-Roman-73"/>
      <use x="637.224609375" xlink:href="#BitstreamVeraSans-Roman-70"/>
      <use x="700.701171875" xlink:href="#BitstreamVeraSans-Roman-65"/>
      <use x="762.224609375" xlink:href="#BitstreamVeraSans-Roman-65"/>
      <use x="823.748046875" xlink:href="#BitstreamVeraSans-Roman-64"/>
      <use x="887.224609375" xlink:href="#BitstreamVeraSans-Roman-20"/>
      <use x="919.01171875" xlink:href="#BitstreamVeraSans-Roman-28"/>
      <use x="958.025390625" xlink:href="#BitstreamVeraSans-Roman-64"/>
      <use x="1021.501953125" xlink:href="#BitstreamVeraSans-Roman-65"/>
      <use x="1083.025390625" xlink:href="#BitstreamVeraSans-Roman-67"/>
      <use x="1146.501953125" xlink:href="#BitstreamVeraSans-Roman-72"/>
      <use x="1187.583984375" xlink:href="#BitstreamVeraSans-Roman-65"/>
      <use x="1249.107421875" xlink:href="#BitstreamVeraSans-Roman-65"/>
      <use x="1310.630859375" xlink:href="#BitstreamVeraSans-Roman-73"/>
      <use x="1362.73046875" xlink:href="#BitstreamVeraSans-Roman-2f"/>
      <use x="1396.421875" xlink:href="#BitstreamVeraSans-Roman-6d"/>
      <use x="1493.833984375" xlink:href="#BitstreamVeraSans-Roman-69"/>
      <use x="1521.6171875" xlink:href="#BitstreamVeraSans-Roman-6e"/>
      <use x="1584.99609375" xlink:href="#BitstreamVeraSans-Roman-29"/>
     </g>
    </g>
   </g>
   <g id="matplotlib.axis_2">
    <g id="ytick_1">
     <g id="line2d_28">
      <path clip-path="url(#pfb76f5a473)" d="M 74.48625 368.71875 
L 539.38125 368.71875 
" style="fill:none;stroke:#000000;stroke-dasharray:1.000000,3.000000;stroke-dashoffset:0.0;stroke-width:2.0;"/>
     </g>
     <g id="line2d_29">
      <defs>
       <path d="M 0 0 
L 4 0 
" id="m4d102948df" style="stroke:#000000;stroke-width:0.5;"/>
      </defs>
      <g>
       <use style="stroke:#000000;stroke-width:0.5;" x="74.48625" xlink:href="#m4d102948df" y="368.71875"/>
      </g>
     </g>
     <g id="line2d_30">
      <defs>
       <path d="M 0 0 
L -4 0 
" id="me647eca857" style="stroke:#000000;stroke-width:0.5;"/>
      </defs>
      <g>
       <use style="stroke:#000000;stroke-width:0.5;" x="539.38125" xlink:href="#me647eca857" y="368.71875"/>
      </g>
     </g>
     <g id="text_10">
      <!-- 0.0 -->
      <defs>
       <path d="M 10.6875 12.40625 
L 21 12.40625 
L 21 0 
L 10.6875 0 
z
" id="BitstreamVeraSans-Roman-2e"/>
      </defs>
      <g transform="translate(41.860625 373.685625)scale(0.18 -0.18)">
       <use xlink:href="#BitstreamVeraSans-Roman-30"/>
       <use x="63.623046875" xlink:href="#BitstreamVeraSans-Roman-2e"/>
       <use x="95.41015625" xlink:href="#BitstreamVeraSans-Roman-30"/>
      </g>
     </g>
    </g>
    <g id="ytick_2">
     <g id="line2d_31">
      <path clip-path="url(#pfb76f5a473)" d="M 74.48625 303.145525 
L 539.38125 303.145525 
" style="fill:none;stroke:#000000;stroke-dasharray:1.000000,3.000000;stroke-dashoffset:0.0;stroke-width:2.0;"/>
     </g>
     <g id="line2d_32">
      <g>
       <use style="stroke:#000000;stroke-width:0.5;" x="74.48625" xlink:href="#m4d102948df" y="303.145525"/>
      </g>
     </g>
     <g id="line2d_33">
      <g>
       <use style="stroke:#000000;stroke-width:0.5;" x="539.38125" xlink:href="#me647eca857" y="303.145525"/>
      </g>
     </g>
     <g id="text_11">
      <!-- 0.2 -->
      <g transform="translate(41.860625 308.1124)scale(0.18 -0.18)">
       <use xlink:href="#BitstreamVeraSans-Roman-30"/>
       <use x="63.623046875" xlink:href="#BitstreamVeraSans-Roman-2e"/>
       <use x="95.41015625" xlink:href="#BitstreamVeraSans-Roman-32"/>
      </g>
     </g>
    </g>
    <g id="ytick_3">
     <g id="line2d_34">
      <path clip-path="url(#pfb76f5a473)" d="M 74.48625 237.5723 
L 539.38125 237.5723 
" style="fill:none;stroke:#000000;stroke-dasharray:1.000000,3.000000;stroke-dashoffset:0.0;stroke-width:2.0;"/>
     </g>
     <g id="line2d_35">
      <g>
       <use style="stroke:#000000;stroke-width:0.5;" x="74.48625" xlink:href="#m4d102948df" y="237.5723"/>
      </g>
     </g>
     <g id="line2d_36">
      <g>
       <use style="stroke:#000000;stroke-width:0.5;" x="539.38125" xlink:href="#me647eca857" y="237.5723"/>
      </g>
     </g>
     <g id="text_12">
      <!-- 0.4 -->
      <defs>
       <path d="M 37.796875 64.3125 
L 12.890625 25.390625 
L 37.796875 25.390625 
z
M 35.203125 72.90625 
L 47.609375 72.90625 
L 47.609375 25.390625 
L 58.015625 25.390625 
L 58.015625 17.1875 
L 47.609375 17.1875 
L 47.609375 0 
L 37.796875 0 
L 37.796875 17.1875 
L 4.890625 17.1875 
L 4.890625 26.703125 
z
" id="BitstreamVeraSans-Roman-34"/>
      </defs>
      <g transform="translate(41.860625 242.539175)scale(0.18 -0.18)">
       <use xlink:href="#BitstreamVeraSans-Roman-30"/>
       <use x="63.623046875" xlink:href="#BitstreamVeraSans-Roman-2e"/>
       <use x="95.41015625" xlink:href="#BitstreamVeraSans-Roman-34"/>
      </g>
     </g>
    </g>
    <g id="ytick_4">
     <g id="line2d_37">
      <path clip-path="url(#pfb76f5a473)" d="M 74.48625 171.999075 
L 539.38125 171.999075 
" style="fill:none;stroke:#000000;stroke-dasharray:1.000000,3.000000;stroke-dashoffset:0.0;stroke-width:2.0;"/>
     </g>
     <g id="line2d_38">
      <g>
       <use style="stroke:#000000;stroke-width:0.5;" x="74.48625" xlink:href="#m4d102948df" y="171.999075"/>
      </g>
     </g>
     <g id="line2d_39">
      <g>
       <use style="stroke:#000000;stroke-width:0.5;" x="539.38125" xlink:href="#me647eca857" y="171.999075"/>
      </g>
     </g>
     <g id="text_13">
      <!-- 0.6 -->
      <defs>
       <path d="M 33.015625 40.375 
Q 26.375 40.375 22.484375 35.828125 
Q 18.609375 31.296875 18.609375 23.390625 
Q 18.609375 15.53125 22.484375 10.953125 
Q 26.375 6.390625 33.015625 6.390625 
Q 39.65625 6.390625 43.53125 10.953125 
Q 47.40625 15.53125 47.40625 23.390625 
Q 47.40625 31.296875 43.53125 35.828125 
Q 39.65625 40.375 33.015625 40.375 
M 52.59375 71.296875 
L 52.59375 62.3125 
Q 48.875 64.0625 45.09375 64.984375 
Q 41.3125 65.921875 37.59375 65.921875 
Q 27.828125 65.921875 22.671875 59.328125 
Q 17.53125 52.734375 16.796875 39.40625 
Q 19.671875 43.65625 24.015625 45.921875 
Q 28.375 48.1875 33.59375 48.1875 
Q 44.578125 48.1875 50.953125 41.515625 
Q 57.328125 34.859375 57.328125 23.390625 
Q 57.328125 12.15625 50.6875 5.359375 
Q 44.046875 -1.421875 33.015625 -1.421875 
Q 20.359375 -1.421875 13.671875 8.265625 
Q 6.984375 17.96875 6.984375 36.375 
Q 6.984375 53.65625 15.1875 63.9375 
Q 23.390625 74.21875 37.203125 74.21875 
Q 40.921875 74.21875 44.703125 73.484375 
Q 48.484375 72.75 52.59375 71.296875 
" id="BitstreamVeraSans-Roman-36"/>
      </defs>
      <g transform="translate(41.860625 176.96595)scale(0.18 -0.18)">
       <use xlink:href="#BitstreamVeraSans-Roman-30"/>
       <use x="63.623046875" xlink:href="#BitstreamVeraSans-Roman-2e"/>
       <use x="95.41015625" xlink:href="#BitstreamVeraSans-Roman-36"/>
      </g>
     </g>
    </g>
    <g id="ytick_5">
     <g id="line2d_40">
      <path clip-path="url(#pfb76f5a473)" d="M 74.48625 106.42585 
L 539.38125 106.42585 
" style="fill:none;stroke:#000000;stroke-dasharray:1.000000,3.000000;stroke-dashoffset:0.0;stroke-width:2.0;"/>
     </g>
     <g id="line2d_41">
      <g>
       <use style="stroke:#000000;stroke-width:0.5;" x="74.48625" xlink:href="#m4d102948df" y="106.42585"/>
      </g>
     </g>
     <g id="line2d_42">
      <g>
       <use style="stroke:#000000;stroke-width:0.5;" x="539.38125" xlink:href="#me647eca857" y="106.42585"/>
      </g>
     </g>
     <g id="text_14">
      <!-- 0.8 -->
      <defs>
       <path d="M 31.78125 34.625 
Q 24.75 34.625 20.71875 30.859375 
Q 16.703125 27.09375 16.703125 20.515625 
Q 16.703125 13.921875 20.71875 10.15625 
Q 24.75 6.390625 31.78125 6.390625 
Q 38.8125 6.390625 42.859375 10.171875 
Q 46.921875 13.96875 46.921875 20.515625 
Q 46.921875 27.09375 42.890625 30.859375 
Q 38.875 34.625 31.78125 34.625 
M 21.921875 38.8125 
Q 15.578125 40.375 12.03125 44.71875 
Q 8.5 49.078125 8.5 55.328125 
Q 8.5 64.0625 14.71875 69.140625 
Q 20.953125 74.21875 31.78125 74.21875 
Q 42.671875 74.21875 48.875 69.140625 
Q 55.078125 64.0625 55.078125 55.328125 
Q 55.078125 49.078125 51.53125 44.71875 
Q 48 40.375 41.703125 38.8125 
Q 48.828125 37.15625 52.796875 32.3125 
Q 56.78125 27.484375 56.78125 20.515625 
Q 56.78125 9.90625 50.3125 4.234375 
Q 43.84375 -1.421875 31.78125 -1.421875 
Q 19.734375 -1.421875 13.25 4.234375 
Q 6.78125 9.90625 6.78125 20.515625 
Q 6.78125 27.484375 10.78125 32.3125 
Q 14.796875 37.15625 21.921875 38.8125 
M 18.3125 54.390625 
Q 18.3125 48.734375 21.84375 45.5625 
Q 25.390625 42.390625 31.78125 42.390625 
Q 38.140625 42.390625 41.71875 45.5625 
Q 45.3125 48.734375 45.3125 54.390625 
Q 45.3125 60.0625 41.71875 63.234375 
Q 38.140625 66.40625 31.78125 66.40625 
Q 25.390625 66.40625 21.84375 63.234375 
Q 18.3125 60.0625 18.3125 54.390625 
" id="BitstreamVeraSans-Roman-38"/>
      </defs>
      <g transform="translate(41.860625 111.392725)scale(0.18 -0.18)">
       <use xlink:href="#BitstreamVeraSans-Roman-30"/>
       <use x="63.623046875" xlink:href="#BitstreamVeraSans-Roman-2e"/>
       <use x="95.41015625" xlink:href="#BitstreamVeraSans-Roman-38"/>
      </g>
     </g>
    </g>
    <g id="ytick_6">
     <g id="line2d_43">
      <path clip-path="url(#pfb76f5a473)" d="M 74.48625 40.852625 
L 539.38125 40.852625 
" style="fill:none;stroke:#000000;stroke-dasharray:1.000000,3.000000;stroke-dashoffset:0.0;stroke-width:2.0;"/>
     </g>
     <g id="line2d_44">
      <g>
       <use style="stroke:#000000;stroke-width:0.5;" x="74.48625" xlink:href="#m4d102948df" y="40.852625"/>
      </g>
     </g>
     <g id="line2d_45">
      <g>
       <use style="stroke:#000000;stroke-width:0.5;" x="539.38125" xlink:href="#me647eca857" y="40.852625"/>
      </g>
     </g>
     <g id="text_15">
      <!-- 1.0 -->
      <g transform="translate(41.860625 45.8195)scale(0.18 -0.18)">
       <use xlink:href="#BitstreamVeraSans-Roman-31"/>
       <use x="63.623046875" xlink:href="#BitstreamVeraSans-Roman-2e"/>
       <use x="95.41015625" xlink:href="#BitstreamVeraSans-Roman-30"/>
      </g>
     </g>
    </g>
    <g id="text_16">
     <!-- Proportion -->
     <defs>
      <path d="M 19.671875 64.796875 
L 19.671875 37.40625 
L 32.078125 37.40625 
Q 38.96875 37.40625 42.71875 40.96875 
Q 46.484375 44.53125 46.484375 51.125 
Q 46.484375 57.671875 42.71875 61.234375 
Q 38.96875 64.796875 32.078125 64.796875 
z
M 9.8125 72.90625 
L 32.078125 72.90625 
Q 44.34375 72.90625 50.609375 67.359375 
Q 56.890625 61.8125 56.890625 51.125 
Q 56.890625 40.328125 50.609375 34.8125 
Q 44.34375 29.296875 32.078125 29.296875 
L 19.671875 29.296875 
L 19.671875 0 
L 9.8125 0 
z
" id="BitstreamVeraSans-Roman-50"/>
      <path d="M 18.3125 70.21875 
L 18.3125 54.6875 
L 36.8125 54.6875 
L 36.8125 47.703125 
L 18.3125 47.703125 
L 18.3125 18.015625 
Q 18.3125 11.328125 20.140625 9.421875 
Q 21.96875 7.515625 27.59375 7.515625 
L 36.8125 7.515625 
L 36.8125 0 
L 27.59375 0 
Q 17.1875 0 13.234375 3.875 
Q 9.28125 7.765625 9.28125 18.015625 
L 9.28125 47.703125 
L 2.6875 47.703125 
L 2.6875 54.6875 
L 9.28125 54.6875 
L 9.28125 70.21875 
z
" id="BitstreamVeraSans-Roman-74"/>
     </defs>
     <g transform="translate(33.1171875 251.5744375)rotate(-90.0)scale(0.18 -0.18)">
      <use xlink:href="#BitstreamVeraSans-Roman-50"/>
      <use x="60.287109375" xlink:href="#BitstreamVeraSans-Roman-72"/>
      <use x="101.369140625" xlink:href="#BitstreamVeraSans-Roman-6f"/>
      <use x="162.55078125" xlink:href="#BitstreamVeraSans-Roman-70"/>
      <use x="226.02734375" xlink:href="#BitstreamVeraSans-Roman-6f"/>
      <use x="287.208984375" xlink:href="#BitstreamVeraSans-Roman-72"/>
      <use x="328.322265625" xlink:href="#BitstreamVeraSans-Roman-74"/>
      <use x="367.53125" xlink:href="#BitstreamVeraSans-Roman-69"/>
      <use x="395.314453125" xlink:href="#BitstreamVeraSans-Roman-6f"/>
      <use x="456.49609375" xlink:href="#BitstreamVeraSans-Roman-6e"/>
     </g>
    </g>
   </g>
   <g id="text_17">
    <!-- Median Track Roll Speeds -->
    <defs>
     <path d="M 9.078125 75.984375 
L 18.109375 75.984375 
L 18.109375 31.109375 
L 44.921875 54.6875 
L 56.390625 54.6875 
L 27.390625 29.109375 
L 57.625 0 
L 45.90625 0 
L 18.109375 26.703125 
L 18.109375 0 
L 9.078125 0 
z
" id="BitstreamVeraSans-Roman-6b"/>
     <path d="M 53.515625 70.515625 
L 53.515625 60.890625 
Q 47.90625 63.578125 42.921875 64.890625 
Q 37.9375 66.21875 33.296875 66.21875 
Q 25.25 66.21875 20.875 63.09375 
Q 16.5 59.96875 16.5 54.203125 
Q 16.5 49.359375 19.40625 46.890625 
Q 22.3125 44.4375 30.421875 42.921875 
L 36.375 41.703125 
Q 47.40625 39.59375 52.65625 34.296875 
Q 57.90625 29 57.90625 20.125 
Q 57.90625 9.515625 50.796875 4.046875 
Q 43.703125 -1.421875 29.984375 -1.421875 
Q 24.8125 -1.421875 18.96875 -0.25 
Q 13.140625 0.921875 6.890625 3.21875 
L 6.890625 13.375 
Q 12.890625 10.015625 18.65625 8.296875 
Q 24.421875 6.59375 29.984375 6.59375 
Q 38.421875 6.59375 43.015625 9.90625 
Q 47.609375 13.234375 47.609375 19.390625 
Q 47.609375 24.75 44.3125 27.78125 
Q 41.015625 30.8125 33.5 32.328125 
L 27.484375 33.5 
Q 16.453125 35.6875 11.515625 40.375 
Q 6.59375 45.0625 6.59375 53.421875 
Q 6.59375 63.09375 13.40625 68.65625 
Q 20.21875 74.21875 32.171875 74.21875 
Q 37.3125 74.21875 42.625 73.28125 
Q 47.953125 72.359375 53.515625 70.515625 
" id="BitstreamVeraSans-Roman-53"/>
     <path d="M 48.78125 52.59375 
L 48.78125 44.1875 
Q 44.96875 46.296875 41.140625 47.34375 
Q 37.3125 48.390625 33.40625 48.390625 
Q 24.65625 48.390625 19.8125 42.84375 
Q 14.984375 37.3125 14.984375 27.296875 
Q 14.984375 17.28125 19.8125 11.734375 
Q 24.65625 6.203125 33.40625 6.203125 
Q 37.3125 6.203125 41.140625 7.25 
Q 44.96875 8.296875 48.78125 10.40625 
L 48.78125 2.09375 
Q 45.015625 0.34375 40.984375 -0.53125 
Q 36.96875 -1.421875 32.421875 -1.421875 
Q 20.0625 -1.421875 12.78125 6.34375 
Q 5.515625 14.109375 5.515625 27.296875 
Q 5.515625 40.671875 12.859375 48.328125 
Q 20.21875 56 33.015625 56 
Q 37.15625 56 41.109375 55.140625 
Q 45.0625 54.296875 48.78125 52.59375 
" id="BitstreamVeraSans-Roman-63"/>
     <path d="M -0.296875 72.90625 
L 61.375 72.90625 
L 61.375 64.59375 
L 35.5 64.59375 
L 35.5 0 
L 25.59375 0 
L 25.59375 64.59375 
L -0.296875 64.59375 
z
" id="BitstreamVeraSans-Roman-54"/>
     <path d="M 44.390625 34.1875 
Q 47.5625 33.109375 50.5625 29.59375 
Q 53.5625 26.078125 56.59375 19.921875 
L 66.609375 0 
L 56 0 
L 46.6875 18.703125 
Q 43.0625 26.03125 39.671875 28.421875 
Q 36.28125 30.8125 30.421875 30.8125 
L 19.671875 30.8125 
L 19.671875 0 
L 9.8125 0 
L 9.8125 72.90625 
L 32.078125 72.90625 
Q 44.578125 72.90625 50.734375 67.671875 
Q 56.890625 62.453125 56.890625 51.90625 
Q 56.890625 45.015625 53.6875 40.46875 
Q 50.484375 35.9375 44.390625 34.1875 
M 19.671875 64.796875 
L 19.671875 38.921875 
L 32.078125 38.921875 
Q 39.203125 38.921875 42.84375 42.21875 
Q 46.484375 45.515625 46.484375 51.90625 
Q 46.484375 58.296875 42.84375 61.546875 
Q 39.203125 64.796875 32.078125 64.796875 
z
" id="BitstreamVeraSans-Roman-52"/>
    </defs>
    <g transform="translate(167.93775 35.852625)scale(0.21599999999999997 -0.21599999999999997)">
     <use xlink:href="#BitstreamVeraSans-Roman-4d"/>
     <use x="86.279296875" xlink:href="#BitstreamVeraSans-Roman-65"/>
     <use x="147.802734375" xlink:href="#BitstreamVeraSans-Roman-64"/>
     <use x="211.279296875" xlink:href="#BitstreamVeraSans-Roman-69"/>
     <use x="239.0625" xlink:href="#BitstreamVeraSans-Roman-61"/>
     <use x="300.341796875" xlink:href="#BitstreamVeraSans-Roman-6e"/>
     <use x="363.720703125" xlink:href="#BitstreamVeraSans-Roman-20"/>
     <use x="395.5078125" xlink:href="#BitstreamVeraSans-Roman-54"/>
     <use x="456.373046875" xlink:href="#BitstreamVeraSans-Roman-72"/>
     <use x="497.486328125" xlink:href="#BitstreamVeraSans-Roman-61"/>
     <use x="558.765625" xlink:href="#BitstreamVeraSans-Roman-63"/>
     <use x="613.74609375" xlink:href="#BitstreamVeraSans-Roman-6b"/>
     <use x="671.65625" xlink:href="#BitstreamVeraSans-Roman-20"/>
     <use x="703.443359375" xlink:href="#BitstreamVeraSans-Roman-52"/>
     <use x="772.86328125" xlink:href="#BitstreamVeraSans-Roman-6f"/>
     <use x="834.044921875" xlink:href="#BitstreamVeraSans-Roman-6c"/>
     <use x="861.828125" xlink:href="#BitstreamVeraSans-Roman-6c"/>
     <use x="889.611328125" xlink:href="#BitstreamVeraSans-Roman-20"/>
     <use x="921.3984375" xlink:href="#BitstreamVeraSans-Roman-53"/>
     <use x="984.875" xlink:href="#BitstreamVeraSans-Roman-70"/>
     <use x="1048.3515625" xlink:href="#BitstreamVeraSans-Roman-65"/>
     <use x="1109.875" xlink:href="#BitstreamVeraSans-Roman-65"/>
     <use x="1171.3984375" xlink:href="#BitstreamVeraSans-Roman-64"/>
     <use x="1234.875" xlink:href="#BitstreamVeraSans-Roman-73"/>
    </g>
   </g>
   <g id="legend_1">
    <g id="patch_7">
     <path d="M 353.78325 357.91875 
L 528.58125 357.91875 
L 528.58125 256.3245 
L 353.78325 256.3245 
z
" style="fill:#ffffff;stroke:#000000;stroke-linejoin:miter;"/>
    </g>
    <g id="line2d_46">
     <path d="M 368.90325 273.817125 
L 399.14325 273.817125 
" style="fill:none;stroke:#0000ff;stroke-linecap:square;stroke-width:2.0;"/>
    </g>
    <g id="line2d_47"/>
    <g id="text_18">
     <!-- Levy -->
     <defs>
      <path d="M 2.984375 54.6875 
L 12.5 54.6875 
L 29.59375 8.796875 
L 46.6875 54.6875 
L 56.203125 54.6875 
L 35.6875 0 
L 23.484375 0 
z
" id="BitstreamVeraSans-Roman-76"/>
      <path d="M 32.171875 -5.078125 
Q 28.375 -14.84375 24.75 -17.8125 
Q 21.140625 -20.796875 15.09375 -20.796875 
L 7.90625 -20.796875 
L 7.90625 -13.28125 
L 13.1875 -13.28125 
Q 16.890625 -13.28125 18.9375 -11.515625 
Q 21 -9.765625 23.484375 -3.21875 
L 25.09375 0.875 
L 2.984375 54.6875 
L 12.5 54.6875 
L 29.59375 11.921875 
L 46.6875 54.6875 
L 56.203125 54.6875 
z
" id="BitstreamVeraSans-Roman-79"/>
      <path d="M 9.8125 72.90625 
L 19.671875 72.90625 
L 19.671875 8.296875 
L 55.171875 8.296875 
L 55.171875 0 
L 9.8125 0 
z
" id="BitstreamVeraSans-Roman-4c"/>
     </defs>
     <g transform="translate(422.90325 281.377125)scale(0.21599999999999997 -0.21599999999999997)">
      <use xlink:href="#BitstreamVeraSans-Roman-4c"/>
      <use x="55.697265625" xlink:href="#BitstreamVeraSans-Roman-65"/>
      <use x="117.220703125" xlink:href="#BitstreamVeraSans-Roman-76"/>
      <use x="176.400390625" xlink:href="#BitstreamVeraSans-Roman-79"/>
     </g>
    </g>
    <g id="line2d_48">
     <path d="M 368.90325 305.521875 
L 399.14325 305.521875 
" style="fill:none;stroke:#008000;stroke-linecap:square;stroke-width:2.0;"/>
    </g>
    <g id="line2d_49"/>
    <g id="text_19">
     <!-- CRW -->
     <defs>
      <path d="M 64.40625 67.28125 
L 64.40625 56.890625 
Q 59.421875 61.53125 53.78125 63.8125 
Q 48.140625 66.109375 41.796875 66.109375 
Q 29.296875 66.109375 22.65625 58.46875 
Q 16.015625 50.828125 16.015625 36.375 
Q 16.015625 21.96875 22.65625 14.328125 
Q 29.296875 6.6875 41.796875 6.6875 
Q 48.140625 6.6875 53.78125 8.984375 
Q 59.421875 11.28125 64.40625 15.921875 
L 64.40625 5.609375 
Q 59.234375 2.09375 53.4375 0.328125 
Q 47.65625 -1.421875 41.21875 -1.421875 
Q 24.65625 -1.421875 15.125 8.703125 
Q 5.609375 18.84375 5.609375 36.375 
Q 5.609375 53.953125 15.125 64.078125 
Q 24.65625 74.21875 41.21875 74.21875 
Q 47.75 74.21875 53.53125 72.484375 
Q 59.328125 70.75 64.40625 67.28125 
" id="BitstreamVeraSans-Roman-43"/>
      <path d="M 3.328125 72.90625 
L 13.28125 72.90625 
L 28.609375 11.28125 
L 43.890625 72.90625 
L 54.984375 72.90625 
L 70.3125 11.28125 
L 85.59375 72.90625 
L 95.609375 72.90625 
L 77.296875 0 
L 64.890625 0 
L 49.515625 63.28125 
L 33.984375 0 
L 21.578125 0 
z
" id="BitstreamVeraSans-Roman-57"/>
     </defs>
     <g transform="translate(422.90325 313.081875)scale(0.21599999999999997 -0.21599999999999997)">
      <use xlink:href="#BitstreamVeraSans-Roman-43"/>
      <use x="69.82421875" xlink:href="#BitstreamVeraSans-Roman-52"/>
      <use x="139.244140625" xlink:href="#BitstreamVeraSans-Roman-57"/>
     </g>
    </g>
    <g id="line2d_50">
     <path d="M 368.90325 337.226625 
L 399.14325 337.226625 
" style="fill:none;stroke:#ff0000;stroke-linecap:square;stroke-width:2.0;"/>
    </g>
    <g id="line2d_51"/>
    <g id="text_20">
     <!-- CRW 50s -->
     <g transform="translate(422.90325 344.786625)scale(0.21599999999999997 -0.21599999999999997)">
      <use xlink:href="#BitstreamVeraSans-Roman-43"/>
      <use x="69.82421875" xlink:href="#BitstreamVeraSans-Roman-52"/>
      <use x="139.244140625" xlink:href="#BitstreamVeraSans-Roman-57"/>
      <use x="238.12109375" xlink:href="#BitstreamVeraSans-Roman-20"/>
      <use x="269.908203125" xlink:href="#BitstreamVeraSans-Roman-35"/>
      <use x="333.53125" xlink:href="#BitstreamVeraSans-Roman-30"/>
      <use x="397.154296875" xlink:href="#BitstreamVeraSans-Roman-73"/>
     </g>
    </g>
   </g>
  </g>
 </g>
 <defs>
  <clipPath id="pfb76f5a473">
   <rect height="327.866125" width="464.895" x="74.48625" y="40.852625"/>
  </clipPath>
 </defs>
</svg>
