<?xml version="1.0" encoding="utf-8" standalone="no"?>
<!DOCTYPE svg PUBLIC "-//W3C//DTD SVG 1.1//EN"
  "http://www.w3.org/Graphics/SVG/1.1/DTD/svg11.dtd">
<!-- Created with matplotlib (http://matplotlib.org/) -->
<svg height="432pt" version="1.1" viewBox="0 0 576 432" width="576pt" xmlns="http://www.w3.org/2000/svg" xmlns:xlink="http://www.w3.org/1999/xlink">
 <defs>
  <style type="text/css">
*{stroke-linecap:butt;stroke-linejoin:round;stroke-miterlimit:100000;}
  </style>
 </defs>
 <g id="figure_1">
  <g id="patch_1">
   <path d="M 0 432 
L 576 432 
L 576 0 
L 0 0 
z
" style="fill:#ffffff;"/>
  </g>
  <g id="axes_1">
   <g id="patch_2">
    <path d="M 74.48625 368.71875 
L 542.247188 368.71875 
L 542.247188 40.852625 
L 74.48625 40.852625 
z
" style="fill:#ffffff;"/>
   </g>
   <g id="line2d_1">
    <path clip-path="url(#pad5fb8eef4)" d="M 96.659558 368.71875 
L 96.659558 367.722196 
L 113.717549 366.725643 
L 114.508721 365.729089 
L 116.411607 364.732536 
L 120.776711 362.739429 
L 122.119997 361.742875 
L 125.84327 359.749768 
L 126.201429 358.753214 
L 132.102612 357.756661 
L 136.925684 356.760107 
L 137.947135 355.763554 
L 140.879263 354.767 
L 141.158089 353.770446 
L 141.218915 352.773893 
L 144.148257 351.777339 
L 145.195946 350.780786 
L 145.610725 349.784232 
L 145.634131 348.787679 
L 146.628634 347.791125 
L 148.15276 346.794571 
L 149.162482 345.798018 
L 149.35498 344.801464 
L 151.156872 343.804911 
L 151.939604 341.811804 
L 153.054403 340.81525 
L 153.066365 339.818696 
L 153.720805 338.822143 
L 154.937682 337.825589 
L 155.069419 336.829036 
L 159.63411 335.832482 
L 161.272315 334.835929 
L 161.505546 333.839375 
L 162.667036 332.842821 
L 162.841107 330.849714 
L 166.720901 329.853161 
L 166.82525 328.856607 
L 168.721796 327.860054 
L 169.598139 326.8635 
L 171.720049 325.866946 
L 174.736462 324.870393 
L 174.803515 323.873839 
L 175.735206 322.877286 
L 175.975221 320.884179 
L 176.673009 319.887625 
L 176.793716 318.891071 
L 178.566603 317.894518 
L 178.946731 316.897964 
L 179.024619 315.901411 
L 180.874333 313.908304 
L 182.364357 312.91175 
L 183.07976 311.915196 
L 183.264021 310.918643 
L 186.23494 308.925536 
L 186.452252 307.928982 
L 188.531173 306.932429 
L 188.716393 305.935875 
L 189.104254 304.939321 
L 189.715206 303.942768 
L 189.826775 301.949661 
L 190.079609 300.953107 
L 190.187128 299.956554 
L 193.327066 298.96 
L 194.408618 297.963446 
L 196.456979 296.966893 
L 196.533453 295.970339 
L 196.79022 294.973786 
L 196.913422 293.977232 
L 200.893068 292.980679 
L 201.099702 290.987571 
L 201.633164 289.991018 
L 201.657976 288.994464 
L 202.12827 287.997911 
L 202.25057 287.001357 
L 202.672215 286.004804 
L 203.682607 285.00825 
L 204.451051 284.011696 
L 204.793968 283.015143 
L 205.351974 282.018589 
L 206.679931 281.022036 
L 207.636645 279.028929 
L 208.186676 273.049607 
L 208.510165 272.053054 
L 209.804936 271.0565 
L 210.18311 270.059946 
L 210.240711 269.063393 
L 210.63262 268.066839 
L 210.72595 265.077179 
L 211.869025 264.080625 
L 212.185821 263.084071 
L 213.595719 262.087518 
L 213.812501 261.090964 
L 217.173814 260.094411 
L 218.030734 258.101304 
L 221.063038 256.108196 
L 221.442297 255.111643 
L 222.153202 254.115089 
L 222.181412 253.118536 
L 224.283014 252.121982 
L 226.619588 250.128875 
L 227.207819 249.132321 
L 227.984476 247.139214 
L 228.048049 246.142661 
L 228.331445 245.146107 
L 229.495426 244.149554 
L 230.169686 243.153 
L 232.499961 242.156446 
L 233.497317 241.159893 
L 233.594588 240.163339 
L 235.132165 238.170232 
L 236.937328 237.173679 
L 237.962567 236.177125 
L 238.285801 235.180571 
L 239.209377 234.184018 
L 240.365411 233.187464 
L 244.216783 232.190911 
L 244.596332 231.194357 
L 247.191619 230.197804 
L 248.808298 229.20125 
L 249.448385 228.204696 
L 250.623474 227.208143 
L 250.700812 226.211589 
L 252.237711 225.215036 
L 252.405861 224.218482 
L 252.449337 222.225375 
L 253.194169 221.228821 
L 253.285691 220.232268 
L 254.275913 219.235714 
L 254.907368 217.242607 
L 256.290013 216.246054 
L 258.709167 213.256393 
L 259.763042 212.259839 
L 259.780661 211.263286 
L 262.919875 210.266732 
L 264.05291 209.270179 
L 265.506597 207.277071 
L 265.710455 205.283964 
L 266.993877 204.287411 
L 267.306102 203.290857 
L 269.540025 202.294304 
L 269.85233 201.29775 
L 270.231529 199.304643 
L 270.948774 198.308089 
L 271.411004 197.311536 
L 272.406923 196.314982 
L 273.20805 195.318429 
L 273.666503 194.321875 
L 273.701475 193.325321 
L 274.029361 192.328768 
L 274.217837 191.332214 
L 275.575833 190.335661 
L 276.728391 189.339107 
L 278.777226 188.342554 
L 281.170319 187.346 
L 281.321598 186.349446 
L 281.792906 185.352893 
L 281.900008 184.356339 
L 284.04222 183.359786 
L 284.552078 182.363232 
L 285.241384 181.366679 
L 286.251649 180.370125 
L 286.991726 179.373571 
L 286.996408 178.377018 
L 287.173398 177.380464 
L 287.675406 176.383911 
L 288.117403 174.390804 
L 289.672829 173.39425 
L 289.805247 172.397696 
L 291.072631 170.404589 
L 295.609705 168.411482 
L 296.801674 167.414929 
L 298.369922 166.418375 
L 298.447868 165.421821 
L 301.227923 164.425268 
L 302.022371 163.428714 
L 304.739444 162.432161 
L 305.624422 161.435607 
L 306.022572 159.4425 
L 306.10224 158.445946 
L 306.980014 156.452839 
L 307.724793 155.456286 
L 307.938473 154.459732 
L 308.399952 153.463179 
L 308.64814 152.466625 
L 310.239368 151.470071 
L 310.406179 150.473518 
L 311.155125 149.476964 
L 314.284481 148.480411 
L 315.23719 147.483857 
L 315.888685 146.487304 
L 317.443859 145.49075 
L 318.290195 144.494196 
L 318.669626 142.501089 
L 319.137042 140.507982 
L 319.484151 139.511429 
L 319.538099 138.514875 
L 319.920406 137.518321 
L 322.544655 136.521768 
L 323.684568 135.525214 
L 326.431196 134.528661 
L 326.466504 133.532107 
L 326.665716 132.535554 
L 338.420643 131.539 
L 340.782236 129.545893 
L 340.860024 128.549339 
L 342.679178 127.552786 
L 343.679836 126.556232 
L 344.356533 125.559679 
L 349.63496 124.563125 
L 350.288697 122.570018 
L 352.624907 121.573464 
L 354.341782 120.576911 
L 355.044899 119.580357 
L 357.203398 117.58725 
L 357.680199 116.590696 
L 358.422837 115.594143 
L 360.175621 114.597589 
L 362.44045 113.601036 
L 363.795244 112.604482 
L 363.98734 111.607929 
L 364.004423 110.611375 
L 365.021486 109.614821 
L 371.868765 108.618268 
L 372.153268 107.621714 
L 373.341165 106.625161 
L 373.43138 105.628607 
L 373.63331 104.632054 
L 375.289975 103.6355 
L 377.343388 102.638946 
L 380.171251 101.642393 
L 380.786363 100.645839 
L 383.561209 99.649286 
L 391.031249 98.652732 
L 391.527004 97.656179 
L 392.899049 95.663071 
L 393.18941 94.666518 
L 395.129897 93.669964 
L 396.612399 92.673411 
L 396.990812 91.676857 
L 398.926113 90.680304 
L 400.028108 89.68375 
L 402.990324 88.687196 
L 403.516345 87.690643 
L 404.226852 86.694089 
L 405.168467 85.697536 
L 412.224805 84.700982 
L 416.733185 83.704429 
L 423.40745 82.707875 
L 428.993832 81.711321 
L 429.913811 80.714768 
L 431.927987 79.718214 
L 441.616491 78.721661 
L 444.80635 77.725107 
L 445.704052 76.728554 
L 446.81313 75.732 
L 456.845098 73.738893 
L 463.431114 72.742339 
L 466.702458 70.749232 
L 472.753124 69.752679 
L 473.390599 68.756125 
L 476.457598 67.759571 
L 480.60882 66.763018 
L 481.072015 65.766464 
L 484.706683 64.769911 
L 485.351751 63.773357 
L 489.755261 62.776804 
L 491.20772 61.78025 
L 495.613234 60.783696 
L 496.801185 59.787143 
L 499.059086 58.790589 
L 500.835901 57.794036 
L 501.109159 56.797482 
L 503.592632 55.800929 
L 504.60768 54.804375 
L 505.133841 53.807821 
L 507.029491 52.811268 
L 507.883047 51.814714 
L 509.015758 50.818161 
L 511.195963 49.821607 
L 512.378071 48.825054 
L 521.737442 47.8285 
L 524.866893 46.831946 
L 530.814254 45.835393 
L 538.034289 42.845732 
L 539.217081 41.849179 
L 541.153671 40.852625 
L 541.153671 40.852625 
" style="fill:none;stroke:#0000ff;stroke-linecap:square;stroke-width:2.0;"/>
   </g>
   <g id="line2d_2">
    <path clip-path="url(#pad5fb8eef4)" d="M 96.896429 368.71875 
L 96.896429 367.495369 
L 97.663903 366.271988 
L 99.133966 365.048607 
L 100.820139 363.825226 
L 103.206723 362.601845 
L 105.293529 361.378464 
L 105.728585 360.155083 
L 106.732535 358.931701 
L 108.076921 357.70832 
L 109.744119 356.484939 
L 113.666673 355.261558 
L 114.156946 354.038177 
L 116.05496 352.814796 
L 116.467065 351.591415 
L 116.513941 350.368034 
L 118.427754 349.144653 
L 118.629501 347.921272 
L 119.576745 346.697891 
L 120.343585 345.47451 
L 121.990964 344.251129 
L 123.221075 343.027748 
L 125.10727 341.804367 
L 125.382468 340.580986 
L 126.048607 339.357604 
L 129.396411 336.910842 
L 129.50754 335.687461 
L 130.821743 334.46408 
L 134.284309 332.017318 
L 134.309764 330.793937 
L 135.901172 329.570556 
L 136.676554 328.347175 
L 138.019462 327.123794 
L 140.327602 325.900413 
L 141.016851 324.677032 
L 146.235372 323.453651 
L 146.666687 322.23027 
L 147.37852 321.006889 
L 149.127649 319.783507 
L 150.644524 318.560126 
L 151.014154 317.336745 
L 151.192013 316.113364 
L 151.739346 314.889983 
L 153.453171 313.666602 
L 153.860179 312.443221 
L 156.158742 311.21984 
L 156.73925 309.996459 
L 156.920915 308.773078 
L 157.54786 307.549697 
L 157.705684 306.326316 
L 159.951533 305.102935 
L 160.273432 303.879554 
L 160.435817 302.656173 
L 160.481613 300.20941 
L 161.583433 298.986029 
L 161.736326 297.762648 
L 162.03385 296.539267 
L 162.56396 295.315886 
L 162.73838 294.092505 
L 163.420041 292.869124 
L 163.572301 291.645743 
L 164.397323 290.422362 
L 164.95448 287.9756 
L 166.041553 286.752219 
L 166.662077 285.528838 
L 167.814909 284.305457 
L 167.903268 283.082076 
L 168.794934 281.858694 
L 169.099911 280.635313 
L 169.710772 279.411932 
L 170.520335 278.188551 
L 171.772239 276.96517 
L 173.344733 275.741789 
L 174.120549 274.518408 
L 174.465624 273.295027 
L 175.862619 272.071646 
L 176.208033 270.848265 
L 176.394847 269.624884 
L 176.8016 268.401503 
L 177.364271 267.178122 
L 179.575575 265.954741 
L 180.79631 264.73136 
L 181.070788 263.507979 
L 181.676981 262.284597 
L 183.147028 261.061216 
L 184.353882 259.837835 
L 185.321339 256.167692 
L 186.376404 253.72093 
L 186.766189 252.497549 
L 187.870048 251.274168 
L 188.680177 250.050787 
L 189.77324 248.827406 
L 196.680539 247.604025 
L 196.750537 246.380644 
L 196.982144 245.157263 
L 199.799958 243.933882 
L 200.370052 242.7105 
L 200.402612 241.487119 
L 202.78153 240.263738 
L 203.221527 239.040357 
L 203.23107 237.816976 
L 204.011738 236.593595 
L 204.437276 235.370214 
L 204.582423 234.146833 
L 205.284949 232.923452 
L 205.811451 231.700071 
L 208.435238 230.47669 
L 208.935706 229.253309 
L 211.241277 228.029928 
L 212.145591 225.583166 
L 214.322236 224.359785 
L 215.870515 223.136403 
L 216.838887 221.913022 
L 218.165796 220.689641 
L 220.085635 219.46626 
L 222.274454 218.242879 
L 223.413371 217.019498 
L 232.497187 215.796117 
L 232.788572 214.572736 
L 234.894379 213.349355 
L 242.765055 210.902593 
L 243.084115 209.679212 
L 243.202901 208.455831 
L 244.273345 207.23245 
L 244.843948 206.009069 
L 245.947009 204.785687 
L 247.629998 203.562306 
L 252.393659 201.115544 
L 252.517532 199.892163 
L 252.763519 198.668782 
L 257.292467 197.445401 
L 258.116327 196.22202 
L 258.51136 194.998639 
L 264.349589 193.775258 
L 264.554335 192.551877 
L 266.909908 191.328496 
L 267.967154 190.105115 
L 268.776592 188.881734 
L 269.766595 187.658353 
L 269.806219 186.434972 
L 270.182775 185.21159 
L 270.842486 183.988209 
L 270.878145 182.764828 
L 271.297628 180.318066 
L 272.898413 179.094685 
L 274.02077 177.871304 
L 278.781951 176.647923 
L 279.316707 175.424542 
L 281.745785 174.201161 
L 282.768748 172.97778 
L 282.854524 171.754399 
L 284.390514 170.531018 
L 284.687806 169.307637 
L 284.711206 168.084256 
L 286.737103 166.860875 
L 288.283467 165.637493 
L 291.969096 164.414112 
L 292.227351 163.190731 
L 292.86555 161.96735 
L 292.891507 160.743969 
L 293.615884 158.297207 
L 295.487973 157.073826 
L 296.363927 155.850445 
L 298.912162 154.627064 
L 299.484466 153.403683 
L 300.351765 152.180302 
L 301.914274 150.956921 
L 302.240413 149.73354 
L 303.111582 148.510159 
L 303.717167 147.286778 
L 306.054521 146.063396 
L 306.474202 144.840015 
L 310.065787 143.616634 
L 310.846181 142.393253 
L 313.470944 141.169872 
L 314.665311 139.946491 
L 316.01573 138.72311 
L 325.210535 136.276348 
L 328.353393 135.052967 
L 340.025352 133.829586 
L 343.515781 132.606205 
L 345.278749 130.159443 
L 347.564951 128.936062 
L 349.453888 127.712681 
L 349.701805 126.489299 
L 350.860274 125.265918 
L 352.968627 124.042537 
L 353.835695 122.819156 
L 356.313732 121.595775 
L 358.485488 120.372394 
L 364.584643 119.149013 
L 367.077419 117.925632 
L 367.247863 116.702251 
L 368.380537 115.47887 
L 370.49657 114.255489 
L 372.949366 113.032108 
L 378.525914 111.808727 
L 379.742466 110.585346 
L 381.474337 109.361965 
L 381.810276 108.138583 
L 387.437754 106.915202 
L 389.815382 105.691821 
L 398.590694 103.245059 
L 399.421302 102.021678 
L 401.036226 100.798297 
L 403.570226 99.574916 
L 405.337663 98.351535 
L 406.70904 97.128154 
L 409.414552 95.904773 
L 409.965355 94.681392 
L 415.157121 93.458011 
L 417.479477 92.23463 
L 418.589951 91.011249 
L 419.348292 89.787868 
L 419.901712 88.564486 
L 421.138416 87.341105 
L 423.189702 86.117724 
L 424.490654 84.894343 
L 426.746891 83.670962 
L 426.928982 82.447581 
L 427.966224 81.2242 
L 430.796504 80.000819 
L 431.36917 77.554057 
L 440.746405 76.330676 
L 444.600897 75.107295 
L 447.166331 73.883914 
L 451.024753 72.660533 
L 452.432989 71.437152 
L 459.321394 70.213771 
L 467.395979 68.990389 
L 468.067521 66.543627 
L 477.190501 65.320246 
L 479.31787 64.096865 
L 481.75868 61.650103 
L 488.136546 60.426722 
L 495.87779 59.203341 
L 498.159404 57.97996 
L 502.376101 56.756579 
L 503.372481 55.533198 
L 505.198526 54.309817 
L 507.314973 53.086436 
L 508.803642 51.863055 
L 516.517263 50.639674 
L 519.214166 49.416292 
L 531.069514 48.192911 
L 531.636188 46.96953 
L 536.294732 44.522768 
L 537.973327 43.299387 
L 541.005501 42.076006 
L 541.758338 40.852625 
L 541.758338 40.852625 
" style="fill:none;stroke:#008000;stroke-linecap:square;stroke-width:2.0;"/>
   </g>
   <g id="line2d_3">
    <path clip-path="url(#pad5fb8eef4)" d="M 107.12455 368.71875 
L 107.12455 366.234916 
L 109.936711 363.751081 
L 110.107203 361.267247 
L 112.007419 358.783413 
L 112.022388 356.299579 
L 112.570049 353.815744 
L 113.775896 351.33191 
L 114.168236 348.848076 
L 116.866859 346.364241 
L 119.060445 343.880407 
L 122.150559 341.396573 
L 124.796245 338.912739 
L 128.548746 336.428904 
L 129.561348 333.94507 
L 136.085873 331.461236 
L 139.586774 328.977402 
L 143.486809 326.493567 
L 143.745929 324.009733 
L 144.126435 321.525899 
L 147.920214 319.042064 
L 149.037603 316.55823 
L 153.339286 314.074396 
L 155.902471 311.590562 
L 158.732684 309.106727 
L 159.687923 304.139059 
L 161.261011 301.655224 
L 161.357879 299.17139 
L 166.501326 296.687556 
L 170.883836 294.203722 
L 171.480441 291.719887 
L 172.241575 289.236053 
L 182.434819 286.752219 
L 183.15635 284.268384 
L 191.322992 281.78455 
L 195.635709 276.816882 
L 196.560501 274.333047 
L 197.695208 271.849213 
L 198.114944 269.365379 
L 202.904953 266.881545 
L 205.932296 264.39771 
L 208.751902 261.913876 
L 210.626604 259.430042 
L 210.66954 256.946207 
L 211.962812 254.462373 
L 215.713667 251.978539 
L 219.754213 249.494705 
L 224.6038 247.01087 
L 227.681132 244.527036 
L 229.118546 242.043202 
L 229.584399 239.559367 
L 229.780458 237.075533 
L 232.980886 234.591699 
L 242.657629 229.62403 
L 244.560407 227.140196 
L 247.372977 224.656362 
L 257.506065 222.172527 
L 258.222213 219.688693 
L 261.204692 217.204859 
L 262.382668 214.721025 
L 262.842998 212.23719 
L 263.686385 209.753356 
L 264.200903 207.269522 
L 264.919388 204.785687 
L 265.887767 202.301853 
L 271.655914 199.818019 
L 278.010502 197.334185 
L 279.88656 194.85035 
L 280.051692 192.366516 
L 288.353281 189.882682 
L 295.366836 187.398848 
L 296.944434 184.915013 
L 297.485204 182.431179 
L 300.247529 179.947345 
L 300.56231 177.46351 
L 305.907533 174.979676 
L 320.548962 172.495842 
L 324.443221 170.012008 
L 327.472644 167.528173 
L 328.064121 165.044339 
L 329.840467 162.560505 
L 331.212418 160.07667 
L 332.969703 157.592836 
L 335.64207 155.109002 
L 339.512155 152.625168 
L 339.989292 150.141333 
L 346.022783 147.657499 
L 347.148672 145.173665 
L 348.712305 142.68983 
L 359.440409 140.205996 
L 359.452842 137.722162 
L 361.690078 135.238328 
L 366.222069 132.754493 
L 366.345936 130.270659 
L 367.096482 127.786825 
L 368.44371 125.302991 
L 370.267654 122.819156 
L 370.383628 120.335322 
L 371.872912 117.851488 
L 377.060138 115.367653 
L 378.482754 112.883819 
L 378.704583 110.399985 
L 380.936308 107.916151 
L 383.522523 105.432316 
L 391.915289 102.948482 
L 392.509966 100.464648 
L 395.716506 97.980813 
L 400.12987 95.496979 
L 415.972259 93.013145 
L 429.215659 90.529311 
L 429.398745 88.045476 
L 430.264421 85.561642 
L 434.097736 83.077808 
L 450.425164 80.593973 
L 456.453478 78.110139 
L 458.779149 75.626305 
L 477.260821 73.142471 
L 480.59661 65.690968 
L 480.708035 63.207134 
L 492.152217 60.723299 
L 511.283427 58.239465 
L 511.349917 55.755631 
L 516.002239 53.271796 
L 520.938695 50.787962 
L 524.10314 48.304128 
L 526.953845 45.820294 
L 527.690907 43.336459 
L 537.273577 40.852625 
L 537.273577 40.852625 
" style="fill:none;stroke:#ff0000;stroke-linecap:square;stroke-width:2.0;"/>
   </g>
   <g id="patch_3">
    <path d="M 542.247188 368.71875 
L 542.247188 40.852625 
" style="fill:none;stroke:#000000;stroke-linecap:square;stroke-linejoin:miter;stroke-width:2.0;"/>
   </g>
   <g id="patch_4">
    <path d="M 74.48625 368.71875 
L 542.247188 368.71875 
" style="fill:none;stroke:#000000;stroke-linecap:square;stroke-linejoin:miter;stroke-width:2.0;"/>
   </g>
   <g id="patch_5">
    <path d="M 74.48625 40.852625 
L 542.247188 40.852625 
" style="fill:none;stroke:#000000;stroke-linecap:square;stroke-linejoin:miter;stroke-width:2.0;"/>
   </g>
   <g id="patch_6">
    <path d="M 74.48625 368.71875 
L 74.48625 40.852625 
" style="fill:none;stroke:#000000;stroke-linecap:square;stroke-linejoin:miter;stroke-width:2.0;"/>
   </g>
   <g id="matplotlib.axis_1">
    <g id="xtick_1">
     <g id="line2d_4">
      <path clip-path="url(#pad5fb8eef4)" d="M 74.48625 368.71875 
L 74.48625 40.852625 
" style="fill:none;stroke:#000000;stroke-dasharray:1.000000,3.000000;stroke-dashoffset:0.0;stroke-width:2.0;"/>
     </g>
     <g id="line2d_5">
      <defs>
       <path d="M 0 0 
L 0 -4 
" id="m3d5544cb17" style="stroke:#000000;stroke-width:0.5;"/>
      </defs>
      <g>
       <use style="stroke:#000000;stroke-width:0.5;" x="74.48625" xlink:href="#m3d5544cb17" y="368.71875"/>
      </g>
     </g>
     <g id="line2d_6">
      <defs>
       <path d="M 0 0 
L 0 4 
" id="mb163fa13a7" style="stroke:#000000;stroke-width:0.5;"/>
      </defs>
      <g>
       <use style="stroke:#000000;stroke-width:0.5;" x="74.48625" xlink:href="#mb163fa13a7" y="40.852625"/>
      </g>
     </g>
     <g id="text_1">
      <!-- 0.0 -->
      <defs>
       <path d="M 10.6875 12.40625 
L 21 12.40625 
L 21 0 
L 10.6875 0 
z
" id="BitstreamVeraSans-Roman-2e"/>
       <path d="M 31.78125 66.40625 
Q 24.171875 66.40625 20.328125 58.90625 
Q 16.5 51.421875 16.5 36.375 
Q 16.5 21.390625 20.328125 13.890625 
Q 24.171875 6.390625 31.78125 6.390625 
Q 39.453125 6.390625 43.28125 13.890625 
Q 47.125 21.390625 47.125 36.375 
Q 47.125 51.421875 43.28125 58.90625 
Q 39.453125 66.40625 31.78125 66.40625 
M 31.78125 74.21875 
Q 44.046875 74.21875 50.515625 64.515625 
Q 56.984375 54.828125 56.984375 36.375 
Q 56.984375 17.96875 50.515625 8.265625 
Q 44.046875 -1.421875 31.78125 -1.421875 
Q 19.53125 -1.421875 13.0625 8.265625 
Q 6.59375 17.96875 6.59375 36.375 
Q 6.59375 54.828125 13.0625 64.515625 
Q 19.53125 74.21875 31.78125 74.21875 
" id="BitstreamVeraSans-Roman-30"/>
      </defs>
      <g transform="translate(60.1734375 386.3959375)scale(0.18 -0.18)">
       <use xlink:href="#BitstreamVeraSans-Roman-30"/>
       <use x="63.623046875" xlink:href="#BitstreamVeraSans-Roman-2e"/>
       <use x="95.41015625" xlink:href="#BitstreamVeraSans-Roman-30"/>
      </g>
     </g>
    </g>
    <g id="xtick_2">
     <g id="line2d_7">
      <path clip-path="url(#pad5fb8eef4)" d="M 168.038438 368.71875 
L 168.038438 40.852625 
" style="fill:none;stroke:#000000;stroke-dasharray:1.000000,3.000000;stroke-dashoffset:0.0;stroke-width:2.0;"/>
     </g>
     <g id="line2d_8">
      <g>
       <use style="stroke:#000000;stroke-width:0.5;" x="168.0384375" xlink:href="#m3d5544cb17" y="368.71875"/>
      </g>
     </g>
     <g id="line2d_9">
      <g>
       <use style="stroke:#000000;stroke-width:0.5;" x="168.0384375" xlink:href="#mb163fa13a7" y="40.852625"/>
      </g>
     </g>
     <g id="text_2">
      <!-- 0.2 -->
      <defs>
       <path d="M 19.1875 8.296875 
L 53.609375 8.296875 
L 53.609375 0 
L 7.328125 0 
L 7.328125 8.296875 
Q 12.9375 14.109375 22.625 23.890625 
Q 32.328125 33.6875 34.8125 36.53125 
Q 39.546875 41.84375 41.421875 45.53125 
Q 43.3125 49.21875 43.3125 52.78125 
Q 43.3125 58.59375 39.234375 62.25 
Q 35.15625 65.921875 28.609375 65.921875 
Q 23.96875 65.921875 18.8125 64.3125 
Q 13.671875 62.703125 7.8125 59.421875 
L 7.8125 69.390625 
Q 13.765625 71.78125 18.9375 73 
Q 24.125 74.21875 28.421875 74.21875 
Q 39.75 74.21875 46.484375 68.546875 
Q 53.21875 62.890625 53.21875 53.421875 
Q 53.21875 48.921875 51.53125 44.890625 
Q 49.859375 40.875 45.40625 35.40625 
Q 44.1875 33.984375 37.640625 27.21875 
Q 31.109375 20.453125 19.1875 8.296875 
" id="BitstreamVeraSans-Roman-32"/>
      </defs>
      <g transform="translate(153.725625 386.3959375)scale(0.18 -0.18)">
       <use xlink:href="#BitstreamVeraSans-Roman-30"/>
       <use x="63.623046875" xlink:href="#BitstreamVeraSans-Roman-2e"/>
       <use x="95.41015625" xlink:href="#BitstreamVeraSans-Roman-32"/>
      </g>
     </g>
    </g>
    <g id="xtick_3">
     <g id="line2d_10">
      <path clip-path="url(#pad5fb8eef4)" d="M 261.590625 368.71875 
L 261.590625 40.852625 
" style="fill:none;stroke:#000000;stroke-dasharray:1.000000,3.000000;stroke-dashoffset:0.0;stroke-width:2.0;"/>
     </g>
     <g id="line2d_11">
      <g>
       <use style="stroke:#000000;stroke-width:0.5;" x="261.590625" xlink:href="#m3d5544cb17" y="368.71875"/>
      </g>
     </g>
     <g id="line2d_12">
      <g>
       <use style="stroke:#000000;stroke-width:0.5;" x="261.590625" xlink:href="#mb163fa13a7" y="40.852625"/>
      </g>
     </g>
     <g id="text_3">
      <!-- 0.4 -->
      <defs>
       <path d="M 37.796875 64.3125 
L 12.890625 25.390625 
L 37.796875 25.390625 
z
M 35.203125 72.90625 
L 47.609375 72.90625 
L 47.609375 25.390625 
L 58.015625 25.390625 
L 58.015625 17.1875 
L 47.609375 17.1875 
L 47.609375 0 
L 37.796875 0 
L 37.796875 17.1875 
L 4.890625 17.1875 
L 4.890625 26.703125 
z
" id="BitstreamVeraSans-Roman-34"/>
      </defs>
      <g transform="translate(247.2778125 386.3959375)scale(0.18 -0.18)">
       <use xlink:href="#BitstreamVeraSans-Roman-30"/>
       <use x="63.623046875" xlink:href="#BitstreamVeraSans-Roman-2e"/>
       <use x="95.41015625" xlink:href="#BitstreamVeraSans-Roman-34"/>
      </g>
     </g>
    </g>
    <g id="xtick_4">
     <g id="line2d_13">
      <path clip-path="url(#pad5fb8eef4)" d="M 355.142813 368.71875 
L 355.142813 40.852625 
" style="fill:none;stroke:#000000;stroke-dasharray:1.000000,3.000000;stroke-dashoffset:0.0;stroke-width:2.0;"/>
     </g>
     <g id="line2d_14">
      <g>
       <use style="stroke:#000000;stroke-width:0.5;" x="355.1428125" xlink:href="#m3d5544cb17" y="368.71875"/>
      </g>
     </g>
     <g id="line2d_15">
      <g>
       <use style="stroke:#000000;stroke-width:0.5;" x="355.1428125" xlink:href="#mb163fa13a7" y="40.852625"/>
      </g>
     </g>
     <g id="text_4">
      <!-- 0.6 -->
      <defs>
       <path d="M 33.015625 40.375 
Q 26.375 40.375 22.484375 35.828125 
Q 18.609375 31.296875 18.609375 23.390625 
Q 18.609375 15.53125 22.484375 10.953125 
Q 26.375 6.390625 33.015625 6.390625 
Q 39.65625 6.390625 43.53125 10.953125 
Q 47.40625 15.53125 47.40625 23.390625 
Q 47.40625 31.296875 43.53125 35.828125 
Q 39.65625 40.375 33.015625 40.375 
M 52.59375 71.296875 
L 52.59375 62.3125 
Q 48.875 64.0625 45.09375 64.984375 
Q 41.3125 65.921875 37.59375 65.921875 
Q 27.828125 65.921875 22.671875 59.328125 
Q 17.53125 52.734375 16.796875 39.40625 
Q 19.671875 43.65625 24.015625 45.921875 
Q 28.375 48.1875 33.59375 48.1875 
Q 44.578125 48.1875 50.953125 41.515625 
Q 57.328125 34.859375 57.328125 23.390625 
Q 57.328125 12.15625 50.6875 5.359375 
Q 44.046875 -1.421875 33.015625 -1.421875 
Q 20.359375 -1.421875 13.671875 8.265625 
Q 6.984375 17.96875 6.984375 36.375 
Q 6.984375 53.65625 15.1875 63.9375 
Q 23.390625 74.21875 37.203125 74.21875 
Q 40.921875 74.21875 44.703125 73.484375 
Q 48.484375 72.75 52.59375 71.296875 
" id="BitstreamVeraSans-Roman-36"/>
      </defs>
      <g transform="translate(340.83 386.3959375)scale(0.18 -0.18)">
       <use xlink:href="#BitstreamVeraSans-Roman-30"/>
       <use x="63.623046875" xlink:href="#BitstreamVeraSans-Roman-2e"/>
       <use x="95.41015625" xlink:href="#BitstreamVeraSans-Roman-36"/>
      </g>
     </g>
    </g>
    <g id="xtick_5">
     <g id="line2d_16">
      <path clip-path="url(#pad5fb8eef4)" d="M 448.695 368.71875 
L 448.695 40.852625 
" style="fill:none;stroke:#000000;stroke-dasharray:1.000000,3.000000;stroke-dashoffset:0.0;stroke-width:2.0;"/>
     </g>
     <g id="line2d_17">
      <g>
       <use style="stroke:#000000;stroke-width:0.5;" x="448.695" xlink:href="#m3d5544cb17" y="368.71875"/>
      </g>
     </g>
     <g id="line2d_18">
      <g>
       <use style="stroke:#000000;stroke-width:0.5;" x="448.695" xlink:href="#mb163fa13a7" y="40.852625"/>
      </g>
     </g>
     <g id="text_5">
      <!-- 0.8 -->
      <defs>
       <path d="M 31.78125 34.625 
Q 24.75 34.625 20.71875 30.859375 
Q 16.703125 27.09375 16.703125 20.515625 
Q 16.703125 13.921875 20.71875 10.15625 
Q 24.75 6.390625 31.78125 6.390625 
Q 38.8125 6.390625 42.859375 10.171875 
Q 46.921875 13.96875 46.921875 20.515625 
Q 46.921875 27.09375 42.890625 30.859375 
Q 38.875 34.625 31.78125 34.625 
M 21.921875 38.8125 
Q 15.578125 40.375 12.03125 44.71875 
Q 8.5 49.078125 8.5 55.328125 
Q 8.5 64.0625 14.71875 69.140625 
Q 20.953125 74.21875 31.78125 74.21875 
Q 42.671875 74.21875 48.875 69.140625 
Q 55.078125 64.0625 55.078125 55.328125 
Q 55.078125 49.078125 51.53125 44.71875 
Q 48 40.375 41.703125 38.8125 
Q 48.828125 37.15625 52.796875 32.3125 
Q 56.78125 27.484375 56.78125 20.515625 
Q 56.78125 9.90625 50.3125 4.234375 
Q 43.84375 -1.421875 31.78125 -1.421875 
Q 19.734375 -1.421875 13.25 4.234375 
Q 6.78125 9.90625 6.78125 20.515625 
Q 6.78125 27.484375 10.78125 32.3125 
Q 14.796875 37.15625 21.921875 38.8125 
M 18.3125 54.390625 
Q 18.3125 48.734375 21.84375 45.5625 
Q 25.390625 42.390625 31.78125 42.390625 
Q 38.140625 42.390625 41.71875 45.5625 
Q 45.3125 48.734375 45.3125 54.390625 
Q 45.3125 60.0625 41.71875 63.234375 
Q 38.140625 66.40625 31.78125 66.40625 
Q 25.390625 66.40625 21.84375 63.234375 
Q 18.3125 60.0625 18.3125 54.390625 
" id="BitstreamVeraSans-Roman-38"/>
      </defs>
      <g transform="translate(434.3821875 386.3959375)scale(0.18 -0.18)">
       <use xlink:href="#BitstreamVeraSans-Roman-30"/>
       <use x="63.623046875" xlink:href="#BitstreamVeraSans-Roman-2e"/>
       <use x="95.41015625" xlink:href="#BitstreamVeraSans-Roman-38"/>
      </g>
     </g>
    </g>
    <g id="xtick_6">
     <g id="line2d_19">
      <path clip-path="url(#pad5fb8eef4)" d="M 542.247188 368.71875 
L 542.247188 40.852625 
" style="fill:none;stroke:#000000;stroke-dasharray:1.000000,3.000000;stroke-dashoffset:0.0;stroke-width:2.0;"/>
     </g>
     <g id="line2d_20">
      <g>
       <use style="stroke:#000000;stroke-width:0.5;" x="542.2471875" xlink:href="#m3d5544cb17" y="368.71875"/>
      </g>
     </g>
     <g id="line2d_21">
      <g>
       <use style="stroke:#000000;stroke-width:0.5;" x="542.2471875" xlink:href="#mb163fa13a7" y="40.852625"/>
      </g>
     </g>
     <g id="text_6">
      <!-- 1.0 -->
      <defs>
       <path d="M 12.40625 8.296875 
L 28.515625 8.296875 
L 28.515625 63.921875 
L 10.984375 60.40625 
L 10.984375 69.390625 
L 28.421875 72.90625 
L 38.28125 72.90625 
L 38.28125 8.296875 
L 54.390625 8.296875 
L 54.390625 0 
L 12.40625 0 
z
" id="BitstreamVeraSans-Roman-31"/>
      </defs>
      <g transform="translate(527.934375 386.3959375)scale(0.18 -0.18)">
       <use xlink:href="#BitstreamVeraSans-Roman-31"/>
       <use x="63.623046875" xlink:href="#BitstreamVeraSans-Roman-2e"/>
       <use x="95.41015625" xlink:href="#BitstreamVeraSans-Roman-30"/>
      </g>
     </g>
    </g>
    <g id="text_7">
     <!-- Meandering index -->
     <defs>
      <path id="BitstreamVeraSans-Roman-20"/>
      <path d="M 9.8125 72.90625 
L 24.515625 72.90625 
L 43.109375 23.296875 
L 61.8125 72.90625 
L 76.515625 72.90625 
L 76.515625 0 
L 66.890625 0 
L 66.890625 64.015625 
L 48.09375 14.015625 
L 38.1875 14.015625 
L 19.390625 64.015625 
L 19.390625 0 
L 9.8125 0 
z
" id="BitstreamVeraSans-Roman-4d"/>
      <path d="M 54.890625 33.015625 
L 54.890625 0 
L 45.90625 0 
L 45.90625 32.71875 
Q 45.90625 40.484375 42.875 44.328125 
Q 39.84375 48.1875 33.796875 48.1875 
Q 26.515625 48.1875 22.3125 43.546875 
Q 18.109375 38.921875 18.109375 30.90625 
L 18.109375 0 
L 9.078125 0 
L 9.078125 54.6875 
L 18.109375 54.6875 
L 18.109375 46.1875 
Q 21.34375 51.125 25.703125 53.5625 
Q 30.078125 56 35.796875 56 
Q 45.21875 56 50.046875 50.171875 
Q 54.890625 44.34375 54.890625 33.015625 
" id="BitstreamVeraSans-Roman-6e"/>
      <path d="M 54.890625 54.6875 
L 35.109375 28.078125 
L 55.90625 0 
L 45.3125 0 
L 29.390625 21.484375 
L 13.484375 0 
L 2.875 0 
L 24.125 28.609375 
L 4.6875 54.6875 
L 15.28125 54.6875 
L 29.78125 35.203125 
L 44.28125 54.6875 
z
" id="BitstreamVeraSans-Roman-78"/>
      <path d="M 41.109375 46.296875 
Q 39.59375 47.171875 37.8125 47.578125 
Q 36.03125 48 33.890625 48 
Q 26.265625 48 22.1875 43.046875 
Q 18.109375 38.09375 18.109375 28.8125 
L 18.109375 0 
L 9.078125 0 
L 9.078125 54.6875 
L 18.109375 54.6875 
L 18.109375 46.1875 
Q 20.953125 51.171875 25.484375 53.578125 
Q 30.03125 56 36.53125 56 
Q 37.453125 56 38.578125 55.875 
Q 39.703125 55.765625 41.0625 55.515625 
z
" id="BitstreamVeraSans-Roman-72"/>
      <path d="M 45.40625 27.984375 
Q 45.40625 37.75 41.375 43.109375 
Q 37.359375 48.484375 30.078125 48.484375 
Q 22.859375 48.484375 18.828125 43.109375 
Q 14.796875 37.75 14.796875 27.984375 
Q 14.796875 18.265625 18.828125 12.890625 
Q 22.859375 7.515625 30.078125 7.515625 
Q 37.359375 7.515625 41.375 12.890625 
Q 45.40625 18.265625 45.40625 27.984375 
M 54.390625 6.78125 
Q 54.390625 -7.171875 48.1875 -13.984375 
Q 42 -20.796875 29.203125 -20.796875 
Q 24.46875 -20.796875 20.265625 -20.09375 
Q 16.0625 -19.390625 12.109375 -17.921875 
L 12.109375 -9.1875 
Q 16.0625 -11.328125 19.921875 -12.34375 
Q 23.78125 -13.375 27.78125 -13.375 
Q 36.625 -13.375 41.015625 -8.765625 
Q 45.40625 -4.15625 45.40625 5.171875 
L 45.40625 9.625 
Q 42.625 4.78125 38.28125 2.390625 
Q 33.9375 0 27.875 0 
Q 17.828125 0 11.671875 7.65625 
Q 5.515625 15.328125 5.515625 27.984375 
Q 5.515625 40.671875 11.671875 48.328125 
Q 17.828125 56 27.875 56 
Q 33.9375 56 38.28125 53.609375 
Q 42.625 51.21875 45.40625 46.390625 
L 45.40625 54.6875 
L 54.390625 54.6875 
z
" id="BitstreamVeraSans-Roman-67"/>
      <path d="M 9.421875 54.6875 
L 18.40625 54.6875 
L 18.40625 0 
L 9.421875 0 
z
M 9.421875 75.984375 
L 18.40625 75.984375 
L 18.40625 64.59375 
L 9.421875 64.59375 
z
" id="BitstreamVeraSans-Roman-69"/>
      <path d="M 56.203125 29.59375 
L 56.203125 25.203125 
L 14.890625 25.203125 
Q 15.484375 15.921875 20.484375 11.0625 
Q 25.484375 6.203125 34.421875 6.203125 
Q 39.59375 6.203125 44.453125 7.46875 
Q 49.3125 8.734375 54.109375 11.28125 
L 54.109375 2.78125 
Q 49.265625 0.734375 44.1875 -0.34375 
Q 39.109375 -1.421875 33.890625 -1.421875 
Q 20.796875 -1.421875 13.15625 6.1875 
Q 5.515625 13.8125 5.515625 26.8125 
Q 5.515625 40.234375 12.765625 48.109375 
Q 20.015625 56 32.328125 56 
Q 43.359375 56 49.78125 48.890625 
Q 56.203125 41.796875 56.203125 29.59375 
M 47.21875 32.234375 
Q 47.125 39.59375 43.09375 43.984375 
Q 39.0625 48.390625 32.421875 48.390625 
Q 24.90625 48.390625 20.390625 44.140625 
Q 15.875 39.890625 15.1875 32.171875 
z
" id="BitstreamVeraSans-Roman-65"/>
      <path d="M 34.28125 27.484375 
Q 23.390625 27.484375 19.1875 25 
Q 14.984375 22.515625 14.984375 16.5 
Q 14.984375 11.71875 18.140625 8.90625 
Q 21.296875 6.109375 26.703125 6.109375 
Q 34.1875 6.109375 38.703125 11.40625 
Q 43.21875 16.703125 43.21875 25.484375 
L 43.21875 27.484375 
z
M 52.203125 31.203125 
L 52.203125 0 
L 43.21875 0 
L 43.21875 8.296875 
Q 40.140625 3.328125 35.546875 0.953125 
Q 30.953125 -1.421875 24.3125 -1.421875 
Q 15.921875 -1.421875 10.953125 3.296875 
Q 6 8.015625 6 15.921875 
Q 6 25.140625 12.171875 29.828125 
Q 18.359375 34.515625 30.609375 34.515625 
L 43.21875 34.515625 
L 43.21875 35.40625 
Q 43.21875 41.609375 39.140625 45 
Q 35.0625 48.390625 27.6875 48.390625 
Q 23 48.390625 18.546875 47.265625 
Q 14.109375 46.140625 10.015625 43.890625 
L 10.015625 52.203125 
Q 14.9375 54.109375 19.578125 55.046875 
Q 24.21875 56 28.609375 56 
Q 40.484375 56 46.34375 49.84375 
Q 52.203125 43.703125 52.203125 31.203125 
" id="BitstreamVeraSans-Roman-61"/>
      <path d="M 45.40625 46.390625 
L 45.40625 75.984375 
L 54.390625 75.984375 
L 54.390625 0 
L 45.40625 0 
L 45.40625 8.203125 
Q 42.578125 3.328125 38.25 0.953125 
Q 33.9375 -1.421875 27.875 -1.421875 
Q 17.96875 -1.421875 11.734375 6.484375 
Q 5.515625 14.40625 5.515625 27.296875 
Q 5.515625 40.1875 11.734375 48.09375 
Q 17.96875 56 27.875 56 
Q 33.9375 56 38.25 53.625 
Q 42.578125 51.265625 45.40625 46.390625 
M 14.796875 27.296875 
Q 14.796875 17.390625 18.875 11.75 
Q 22.953125 6.109375 30.078125 6.109375 
Q 37.203125 6.109375 41.296875 11.75 
Q 45.40625 17.390625 45.40625 27.296875 
Q 45.40625 37.203125 41.296875 42.84375 
Q 37.203125 48.484375 30.078125 48.484375 
Q 22.953125 48.484375 18.875 42.84375 
Q 14.796875 37.203125 14.796875 27.296875 
" id="BitstreamVeraSans-Roman-64"/>
     </defs>
     <g transform="translate(227.334375 408.8165625)scale(0.18 -0.18)">
      <use xlink:href="#BitstreamVeraSans-Roman-4d"/>
      <use x="86.279296875" xlink:href="#BitstreamVeraSans-Roman-65"/>
      <use x="147.802734375" xlink:href="#BitstreamVeraSans-Roman-61"/>
      <use x="209.08203125" xlink:href="#BitstreamVeraSans-Roman-6e"/>
      <use x="272.4609375" xlink:href="#BitstreamVeraSans-Roman-64"/>
      <use x="335.9375" xlink:href="#BitstreamVeraSans-Roman-65"/>
      <use x="397.4609375" xlink:href="#BitstreamVeraSans-Roman-72"/>
      <use x="438.57421875" xlink:href="#BitstreamVeraSans-Roman-69"/>
      <use x="466.357421875" xlink:href="#BitstreamVeraSans-Roman-6e"/>
      <use x="529.736328125" xlink:href="#BitstreamVeraSans-Roman-67"/>
      <use x="593.212890625" xlink:href="#BitstreamVeraSans-Roman-20"/>
      <use x="625.0" xlink:href="#BitstreamVeraSans-Roman-69"/>
      <use x="652.783203125" xlink:href="#BitstreamVeraSans-Roman-6e"/>
      <use x="716.162109375" xlink:href="#BitstreamVeraSans-Roman-64"/>
      <use x="779.638671875" xlink:href="#BitstreamVeraSans-Roman-65"/>
      <use x="841.146484375" xlink:href="#BitstreamVeraSans-Roman-78"/>
     </g>
    </g>
   </g>
   <g id="matplotlib.axis_2">
    <g id="ytick_1">
     <g id="line2d_22">
      <path clip-path="url(#pad5fb8eef4)" d="M 74.48625 368.71875 
L 542.247188 368.71875 
" style="fill:none;stroke:#000000;stroke-dasharray:1.000000,3.000000;stroke-dashoffset:0.0;stroke-width:2.0;"/>
     </g>
     <g id="line2d_23">
      <defs>
       <path d="M 0 0 
L 4 0 
" id="me8b023f08c" style="stroke:#000000;stroke-width:0.5;"/>
      </defs>
      <g>
       <use style="stroke:#000000;stroke-width:0.5;" x="74.48625" xlink:href="#me8b023f08c" y="368.71875"/>
      </g>
     </g>
     <g id="line2d_24">
      <defs>
       <path d="M 0 0 
L -4 0 
" id="mc5c044037e" style="stroke:#000000;stroke-width:0.5;"/>
      </defs>
      <g>
       <use style="stroke:#000000;stroke-width:0.5;" x="542.2471875" xlink:href="#mc5c044037e" y="368.71875"/>
      </g>
     </g>
     <g id="text_8">
      <!-- 0.0 -->
      <g transform="translate(41.860625 373.685625)scale(0.18 -0.18)">
       <use xlink:href="#BitstreamVeraSans-Roman-30"/>
       <use x="63.623046875" xlink:href="#BitstreamVeraSans-Roman-2e"/>
       <use x="95.41015625" xlink:href="#BitstreamVeraSans-Roman-30"/>
      </g>
     </g>
    </g>
    <g id="ytick_2">
     <g id="line2d_25">
      <path clip-path="url(#pad5fb8eef4)" d="M 74.48625 303.145525 
L 542.247188 303.145525 
" style="fill:none;stroke:#000000;stroke-dasharray:1.000000,3.000000;stroke-dashoffset:0.0;stroke-width:2.0;"/>
     </g>
     <g id="line2d_26">
      <g>
       <use style="stroke:#000000;stroke-width:0.5;" x="74.48625" xlink:href="#me8b023f08c" y="303.145525"/>
      </g>
     </g>
     <g id="line2d_27">
      <g>
       <use style="stroke:#000000;stroke-width:0.5;" x="542.2471875" xlink:href="#mc5c044037e" y="303.145525"/>
      </g>
     </g>
     <g id="text_9">
      <!-- 0.2 -->
      <g transform="translate(41.860625 308.1124)scale(0.18 -0.18)">
       <use xlink:href="#BitstreamVeraSans-Roman-30"/>
       <use x="63.623046875" xlink:href="#BitstreamVeraSans-Roman-2e"/>
       <use x="95.41015625" xlink:href="#BitstreamVeraSans-Roman-32"/>
      </g>
     </g>
    </g>
    <g id="ytick_3">
     <g id="line2d_28">
      <path clip-path="url(#pad5fb8eef4)" d="M 74.48625 237.5723 
L 542.247188 237.5723 
" style="fill:none;stroke:#000000;stroke-dasharray:1.000000,3.000000;stroke-dashoffset:0.0;stroke-width:2.0;"/>
     </g>
     <g id="line2d_29">
      <g>
       <use style="stroke:#000000;stroke-width:0.5;" x="74.48625" xlink:href="#me8b023f08c" y="237.5723"/>
      </g>
     </g>
     <g id="line2d_30">
      <g>
       <use style="stroke:#000000;stroke-width:0.5;" x="542.2471875" xlink:href="#mc5c044037e" y="237.5723"/>
      </g>
     </g>
     <g id="text_10">
      <!-- 0.4 -->
      <g transform="translate(41.860625 242.539175)scale(0.18 -0.18)">
       <use xlink:href="#BitstreamVeraSans-Roman-30"/>
       <use x="63.623046875" xlink:href="#BitstreamVeraSans-Roman-2e"/>
       <use x="95.41015625" xlink:href="#BitstreamVeraSans-Roman-34"/>
      </g>
     </g>
    </g>
    <g id="ytick_4">
     <g id="line2d_31">
      <path clip-path="url(#pad5fb8eef4)" d="M 74.48625 171.999075 
L 542.247188 171.999075 
" style="fill:none;stroke:#000000;stroke-dasharray:1.000000,3.000000;stroke-dashoffset:0.0;stroke-width:2.0;"/>
     </g>
     <g id="line2d_32">
      <g>
       <use style="stroke:#000000;stroke-width:0.5;" x="74.48625" xlink:href="#me8b023f08c" y="171.999075"/>
      </g>
     </g>
     <g id="line2d_33">
      <g>
       <use style="stroke:#000000;stroke-width:0.5;" x="542.2471875" xlink:href="#mc5c044037e" y="171.999075"/>
      </g>
     </g>
     <g id="text_11">
      <!-- 0.6 -->
      <g transform="translate(41.860625 176.96595)scale(0.18 -0.18)">
       <use xlink:href="#BitstreamVeraSans-Roman-30"/>
       <use x="63.623046875" xlink:href="#BitstreamVeraSans-Roman-2e"/>
       <use x="95.41015625" xlink:href="#BitstreamVeraSans-Roman-36"/>
      </g>
     </g>
    </g>
    <g id="ytick_5">
     <g id="line2d_34">
      <path clip-path="url(#pad5fb8eef4)" d="M 74.48625 106.42585 
L 542.247188 106.42585 
" style="fill:none;stroke:#000000;stroke-dasharray:1.000000,3.000000;stroke-dashoffset:0.0;stroke-width:2.0;"/>
     </g>
     <g id="line2d_35">
      <g>
       <use style="stroke:#000000;stroke-width:0.5;" x="74.48625" xlink:href="#me8b023f08c" y="106.42585"/>
      </g>
     </g>
     <g id="line2d_36">
      <g>
       <use style="stroke:#000000;stroke-width:0.5;" x="542.2471875" xlink:href="#mc5c044037e" y="106.42585"/>
      </g>
     </g>
     <g id="text_12">
      <!-- 0.8 -->
      <g transform="translate(41.860625 111.392725)scale(0.18 -0.18)">
       <use xlink:href="#BitstreamVeraSans-Roman-30"/>
       <use x="63.623046875" xlink:href="#BitstreamVeraSans-Roman-2e"/>
       <use x="95.41015625" xlink:href="#BitstreamVeraSans-Roman-38"/>
      </g>
     </g>
    </g>
    <g id="ytick_6">
     <g id="line2d_37">
      <path clip-path="url(#pad5fb8eef4)" d="M 74.48625 40.852625 
L 542.247188 40.852625 
" style="fill:none;stroke:#000000;stroke-dasharray:1.000000,3.000000;stroke-dashoffset:0.0;stroke-width:2.0;"/>
     </g>
     <g id="line2d_38">
      <g>
       <use style="stroke:#000000;stroke-width:0.5;" x="74.48625" xlink:href="#me8b023f08c" y="40.852625"/>
      </g>
     </g>
     <g id="line2d_39">
      <g>
       <use style="stroke:#000000;stroke-width:0.5;" x="542.2471875" xlink:href="#mc5c044037e" y="40.852625"/>
      </g>
     </g>
     <g id="text_13">
      <!-- 1.0 -->
      <g transform="translate(41.860625 45.8195)scale(0.18 -0.18)">
       <use xlink:href="#BitstreamVeraSans-Roman-31"/>
       <use x="63.623046875" xlink:href="#BitstreamVeraSans-Roman-2e"/>
       <use x="95.41015625" xlink:href="#BitstreamVeraSans-Roman-30"/>
      </g>
     </g>
    </g>
    <g id="text_14">
     <!-- Proportion -->
     <defs>
      <path d="M 19.671875 64.796875 
L 19.671875 37.40625 
L 32.078125 37.40625 
Q 38.96875 37.40625 42.71875 40.96875 
Q 46.484375 44.53125 46.484375 51.125 
Q 46.484375 57.671875 42.71875 61.234375 
Q 38.96875 64.796875 32.078125 64.796875 
z
M 9.8125 72.90625 
L 32.078125 72.90625 
Q 44.34375 72.90625 50.609375 67.359375 
Q 56.890625 61.8125 56.890625 51.125 
Q 56.890625 40.328125 50.609375 34.8125 
Q 44.34375 29.296875 32.078125 29.296875 
L 19.671875 29.296875 
L 19.671875 0 
L 9.8125 0 
z
" id="BitstreamVeraSans-Roman-50"/>
      <path d="M 18.109375 8.203125 
L 18.109375 -20.796875 
L 9.078125 -20.796875 
L 9.078125 54.6875 
L 18.109375 54.6875 
L 18.109375 46.390625 
Q 20.953125 51.265625 25.265625 53.625 
Q 29.59375 56 35.59375 56 
Q 45.5625 56 51.78125 48.09375 
Q 58.015625 40.1875 58.015625 27.296875 
Q 58.015625 14.40625 51.78125 6.484375 
Q 45.5625 -1.421875 35.59375 -1.421875 
Q 29.59375 -1.421875 25.265625 0.953125 
Q 20.953125 3.328125 18.109375 8.203125 
M 48.6875 27.296875 
Q 48.6875 37.203125 44.609375 42.84375 
Q 40.53125 48.484375 33.40625 48.484375 
Q 26.265625 48.484375 22.1875 42.84375 
Q 18.109375 37.203125 18.109375 27.296875 
Q 18.109375 17.390625 22.1875 11.75 
Q 26.265625 6.109375 33.40625 6.109375 
Q 40.53125 6.109375 44.609375 11.75 
Q 48.6875 17.390625 48.6875 27.296875 
" id="BitstreamVeraSans-Roman-70"/>
      <path d="M 30.609375 48.390625 
Q 23.390625 48.390625 19.1875 42.75 
Q 14.984375 37.109375 14.984375 27.296875 
Q 14.984375 17.484375 19.15625 11.84375 
Q 23.34375 6.203125 30.609375 6.203125 
Q 37.796875 6.203125 41.984375 11.859375 
Q 46.1875 17.53125 46.1875 27.296875 
Q 46.1875 37.015625 41.984375 42.703125 
Q 37.796875 48.390625 30.609375 48.390625 
M 30.609375 56 
Q 42.328125 56 49.015625 48.375 
Q 55.71875 40.765625 55.71875 27.296875 
Q 55.71875 13.875 49.015625 6.21875 
Q 42.328125 -1.421875 30.609375 -1.421875 
Q 18.84375 -1.421875 12.171875 6.21875 
Q 5.515625 13.875 5.515625 27.296875 
Q 5.515625 40.765625 12.171875 48.375 
Q 18.84375 56 30.609375 56 
" id="BitstreamVeraSans-Roman-6f"/>
      <path d="M 18.3125 70.21875 
L 18.3125 54.6875 
L 36.8125 54.6875 
L 36.8125 47.703125 
L 18.3125 47.703125 
L 18.3125 18.015625 
Q 18.3125 11.328125 20.140625 9.421875 
Q 21.96875 7.515625 27.59375 7.515625 
L 36.8125 7.515625 
L 36.8125 0 
L 27.59375 0 
Q 17.1875 0 13.234375 3.875 
Q 9.28125 7.765625 9.28125 18.015625 
L 9.28125 47.703125 
L 2.6875 47.703125 
L 2.6875 54.6875 
L 9.28125 54.6875 
L 9.28125 70.21875 
z
" id="BitstreamVeraSans-Roman-74"/>
     </defs>
     <g transform="translate(33.1171875 251.5744375)rotate(-90.0)scale(0.18 -0.18)">
      <use xlink:href="#BitstreamVeraSans-Roman-50"/>
      <use x="60.287109375" xlink:href="#BitstreamVeraSans-Roman-72"/>
      <use x="101.369140625" xlink:href="#BitstreamVeraSans-Roman-6f"/>
      <use x="162.55078125" xlink:href="#BitstreamVeraSans-Roman-70"/>
      <use x="226.02734375" xlink:href="#BitstreamVeraSans-Roman-6f"/>
      <use x="287.208984375" xlink:href="#BitstreamVeraSans-Roman-72"/>
      <use x="328.322265625" xlink:href="#BitstreamVeraSans-Roman-74"/>
      <use x="367.53125" xlink:href="#BitstreamVeraSans-Roman-69"/>
      <use x="395.314453125" xlink:href="#BitstreamVeraSans-Roman-6f"/>
      <use x="456.49609375" xlink:href="#BitstreamVeraSans-Roman-6e"/>
     </g>
    </g>
   </g>
   <g id="text_15">
    <!-- Track Meandering Indexes -->
    <defs>
     <path d="M 9.078125 75.984375 
L 18.109375 75.984375 
L 18.109375 31.109375 
L 44.921875 54.6875 
L 56.390625 54.6875 
L 27.390625 29.109375 
L 57.625 0 
L 45.90625 0 
L 18.109375 26.703125 
L 18.109375 0 
L 9.078125 0 
z
" id="BitstreamVeraSans-Roman-6b"/>
     <path d="M 48.78125 52.59375 
L 48.78125 44.1875 
Q 44.96875 46.296875 41.140625 47.34375 
Q 37.3125 48.390625 33.40625 48.390625 
Q 24.65625 48.390625 19.8125 42.84375 
Q 14.984375 37.3125 14.984375 27.296875 
Q 14.984375 17.28125 19.8125 11.734375 
Q 24.65625 6.203125 33.40625 6.203125 
Q 37.3125 6.203125 41.140625 7.25 
Q 44.96875 8.296875 48.78125 10.40625 
L 48.78125 2.09375 
Q 45.015625 0.34375 40.984375 -0.53125 
Q 36.96875 -1.421875 32.421875 -1.421875 
Q 20.0625 -1.421875 12.78125 6.34375 
Q 5.515625 14.109375 5.515625 27.296875 
Q 5.515625 40.671875 12.859375 48.328125 
Q 20.21875 56 33.015625 56 
Q 37.15625 56 41.109375 55.140625 
Q 45.0625 54.296875 48.78125 52.59375 
" id="BitstreamVeraSans-Roman-63"/>
     <path d="M -0.296875 72.90625 
L 61.375 72.90625 
L 61.375 64.59375 
L 35.5 64.59375 
L 35.5 0 
L 25.59375 0 
L 25.59375 64.59375 
L -0.296875 64.59375 
z
" id="BitstreamVeraSans-Roman-54"/>
     <path d="M 44.28125 53.078125 
L 44.28125 44.578125 
Q 40.484375 46.53125 36.375 47.5 
Q 32.28125 48.484375 27.875 48.484375 
Q 21.1875 48.484375 17.84375 46.4375 
Q 14.5 44.390625 14.5 40.28125 
Q 14.5 37.15625 16.890625 35.375 
Q 19.28125 33.59375 26.515625 31.984375 
L 29.59375 31.296875 
Q 39.15625 29.25 43.1875 25.515625 
Q 47.21875 21.78125 47.21875 15.09375 
Q 47.21875 7.46875 41.1875 3.015625 
Q 35.15625 -1.421875 24.609375 -1.421875 
Q 20.21875 -1.421875 15.453125 -0.5625 
Q 10.6875 0.296875 5.421875 2 
L 5.421875 11.28125 
Q 10.40625 8.6875 15.234375 7.390625 
Q 20.0625 6.109375 24.8125 6.109375 
Q 31.15625 6.109375 34.5625 8.28125 
Q 37.984375 10.453125 37.984375 14.40625 
Q 37.984375 18.0625 35.515625 20.015625 
Q 33.0625 21.96875 24.703125 23.78125 
L 21.578125 24.515625 
Q 13.234375 26.265625 9.515625 29.90625 
Q 5.8125 33.546875 5.8125 39.890625 
Q 5.8125 47.609375 11.28125 51.796875 
Q 16.75 56 26.8125 56 
Q 31.78125 56 36.171875 55.265625 
Q 40.578125 54.546875 44.28125 53.078125 
" id="BitstreamVeraSans-Roman-73"/>
     <path d="M 9.8125 72.90625 
L 19.671875 72.90625 
L 19.671875 0 
L 9.8125 0 
z
" id="BitstreamVeraSans-Roman-49"/>
    </defs>
    <g transform="translate(165.42028125 35.852625)scale(0.21599999999999997 -0.21599999999999997)">
     <use xlink:href="#BitstreamVeraSans-Roman-54"/>
     <use x="60.865234375" xlink:href="#BitstreamVeraSans-Roman-72"/>
     <use x="101.978515625" xlink:href="#BitstreamVeraSans-Roman-61"/>
     <use x="163.2578125" xlink:href="#BitstreamVeraSans-Roman-63"/>
     <use x="218.23828125" xlink:href="#BitstreamVeraSans-Roman-6b"/>
     <use x="276.1484375" xlink:href="#BitstreamVeraSans-Roman-20"/>
     <use x="307.935546875" xlink:href="#BitstreamVeraSans-Roman-4d"/>
     <use x="394.21484375" xlink:href="#BitstreamVeraSans-Roman-65"/>
     <use x="455.73828125" xlink:href="#BitstreamVeraSans-Roman-61"/>
     <use x="517.017578125" xlink:href="#BitstreamVeraSans-Roman-6e"/>
     <use x="580.396484375" xlink:href="#BitstreamVeraSans-Roman-64"/>
     <use x="643.873046875" xlink:href="#BitstreamVeraSans-Roman-65"/>
     <use x="705.396484375" xlink:href="#BitstreamVeraSans-Roman-72"/>
     <use x="746.509765625" xlink:href="#BitstreamVeraSans-Roman-69"/>
     <use x="774.29296875" xlink:href="#BitstreamVeraSans-Roman-6e"/>
     <use x="837.671875" xlink:href="#BitstreamVeraSans-Roman-67"/>
     <use x="901.1484375" xlink:href="#BitstreamVeraSans-Roman-20"/>
     <use x="932.935546875" xlink:href="#BitstreamVeraSans-Roman-49"/>
     <use x="962.427734375" xlink:href="#BitstreamVeraSans-Roman-6e"/>
     <use x="1025.806640625" xlink:href="#BitstreamVeraSans-Roman-64"/>
     <use x="1089.283203125" xlink:href="#BitstreamVeraSans-Roman-65"/>
     <use x="1150.791015625" xlink:href="#BitstreamVeraSans-Roman-78"/>
     <use x="1209.923828125" xlink:href="#BitstreamVeraSans-Roman-65"/>
     <use x="1271.447265625" xlink:href="#BitstreamVeraSans-Roman-73"/>
    </g>
   </g>
   <g id="legend_1">
    <g id="patch_7">
     <path d="M 356.649188 357.91875 
L 531.447188 357.91875 
L 531.447188 256.3245 
L 356.649188 256.3245 
z
" style="fill:#ffffff;stroke:#000000;stroke-linejoin:miter;"/>
    </g>
    <g id="line2d_40">
     <path d="M 371.769188 273.817125 
L 402.009188 273.817125 
" style="fill:none;stroke:#0000ff;stroke-linecap:square;stroke-width:2.0;"/>
    </g>
    <g id="line2d_41"/>
    <g id="text_16">
     <!-- Levy -->
     <defs>
      <path d="M 2.984375 54.6875 
L 12.5 54.6875 
L 29.59375 8.796875 
L 46.6875 54.6875 
L 56.203125 54.6875 
L 35.6875 0 
L 23.484375 0 
z
" id="BitstreamVeraSans-Roman-76"/>
      <path d="M 32.171875 -5.078125 
Q 28.375 -14.84375 24.75 -17.8125 
Q 21.140625 -20.796875 15.09375 -20.796875 
L 7.90625 -20.796875 
L 7.90625 -13.28125 
L 13.1875 -13.28125 
Q 16.890625 -13.28125 18.9375 -11.515625 
Q 21 -9.765625 23.484375 -3.21875 
L 25.09375 0.875 
L 2.984375 54.6875 
L 12.5 54.6875 
L 29.59375 11.921875 
L 46.6875 54.6875 
L 56.203125 54.6875 
z
" id="BitstreamVeraSans-Roman-79"/>
      <path d="M 9.8125 72.90625 
L 19.671875 72.90625 
L 19.671875 8.296875 
L 55.171875 8.296875 
L 55.171875 0 
L 9.8125 0 
z
" id="BitstreamVeraSans-Roman-4c"/>
     </defs>
     <g transform="translate(425.7691875 281.377125)scale(0.21599999999999997 -0.21599999999999997)">
      <use xlink:href="#BitstreamVeraSans-Roman-4c"/>
      <use x="55.697265625" xlink:href="#BitstreamVeraSans-Roman-65"/>
      <use x="117.220703125" xlink:href="#BitstreamVeraSans-Roman-76"/>
      <use x="176.400390625" xlink:href="#BitstreamVeraSans-Roman-79"/>
     </g>
    </g>
    <g id="line2d_42">
     <path d="M 371.769188 305.521875 
L 402.009188 305.521875 
" style="fill:none;stroke:#008000;stroke-linecap:square;stroke-width:2.0;"/>
    </g>
    <g id="line2d_43"/>
    <g id="text_17">
     <!-- CRW -->
     <defs>
      <path d="M 64.40625 67.28125 
L 64.40625 56.890625 
Q 59.421875 61.53125 53.78125 63.8125 
Q 48.140625 66.109375 41.796875 66.109375 
Q 29.296875 66.109375 22.65625 58.46875 
Q 16.015625 50.828125 16.015625 36.375 
Q 16.015625 21.96875 22.65625 14.328125 
Q 29.296875 6.6875 41.796875 6.6875 
Q 48.140625 6.6875 53.78125 8.984375 
Q 59.421875 11.28125 64.40625 15.921875 
L 64.40625 5.609375 
Q 59.234375 2.09375 53.4375 0.328125 
Q 47.65625 -1.421875 41.21875 -1.421875 
Q 24.65625 -1.421875 15.125 8.703125 
Q 5.609375 18.84375 5.609375 36.375 
Q 5.609375 53.953125 15.125 64.078125 
Q 24.65625 74.21875 41.21875 74.21875 
Q 47.75 74.21875 53.53125 72.484375 
Q 59.328125 70.75 64.40625 67.28125 
" id="BitstreamVeraSans-Roman-43"/>
      <path d="M 3.328125 72.90625 
L 13.28125 72.90625 
L 28.609375 11.28125 
L 43.890625 72.90625 
L 54.984375 72.90625 
L 70.3125 11.28125 
L 85.59375 72.90625 
L 95.609375 72.90625 
L 77.296875 0 
L 64.890625 0 
L 49.515625 63.28125 
L 33.984375 0 
L 21.578125 0 
z
" id="BitstreamVeraSans-Roman-57"/>
      <path d="M 44.390625 34.1875 
Q 47.5625 33.109375 50.5625 29.59375 
Q 53.5625 26.078125 56.59375 19.921875 
L 66.609375 0 
L 56 0 
L 46.6875 18.703125 
Q 43.0625 26.03125 39.671875 28.421875 
Q 36.28125 30.8125 30.421875 30.8125 
L 19.671875 30.8125 
L 19.671875 0 
L 9.8125 0 
L 9.8125 72.90625 
L 32.078125 72.90625 
Q 44.578125 72.90625 50.734375 67.671875 
Q 56.890625 62.453125 56.890625 51.90625 
Q 56.890625 45.015625 53.6875 40.46875 
Q 50.484375 35.9375 44.390625 34.1875 
M 19.671875 64.796875 
L 19.671875 38.921875 
L 32.078125 38.921875 
Q 39.203125 38.921875 42.84375 42.21875 
Q 46.484375 45.515625 46.484375 51.90625 
Q 46.484375 58.296875 42.84375 61.546875 
Q 39.203125 64.796875 32.078125 64.796875 
z
" id="BitstreamVeraSans-Roman-52"/>
     </defs>
     <g transform="translate(425.7691875 313.081875)scale(0.21599999999999997 -0.21599999999999997)">
      <use xlink:href="#BitstreamVeraSans-Roman-43"/>
      <use x="69.82421875" xlink:href="#BitstreamVeraSans-Roman-52"/>
      <use x="139.244140625" xlink:href="#BitstreamVeraSans-Roman-57"/>
     </g>
    </g>
    <g id="line2d_44">
     <path d="M 371.769188 337.226625 
L 402.009188 337.226625 
" style="fill:none;stroke:#ff0000;stroke-linecap:square;stroke-width:2.0;"/>
    </g>
    <g id="line2d_45"/>
    <g id="text_18">
     <!-- CRW 50s -->
     <defs>
      <path d="M 10.796875 72.90625 
L 49.515625 72.90625 
L 49.515625 64.59375 
L 19.828125 64.59375 
L 19.828125 46.734375 
Q 21.96875 47.46875 24.109375 47.828125 
Q 26.265625 48.1875 28.421875 48.1875 
Q 40.625 48.1875 47.75 41.5 
Q 54.890625 34.8125 54.890625 23.390625 
Q 54.890625 11.625 47.5625 5.09375 
Q 40.234375 -1.421875 26.90625 -1.421875 
Q 22.3125 -1.421875 17.546875 -0.640625 
Q 12.796875 0.140625 7.71875 1.703125 
L 7.71875 11.625 
Q 12.109375 9.234375 16.796875 8.0625 
Q 21.484375 6.890625 26.703125 6.890625 
Q 35.15625 6.890625 40.078125 11.328125 
Q 45.015625 15.765625 45.015625 23.390625 
Q 45.015625 31 40.078125 35.4375 
Q 35.15625 39.890625 26.703125 39.890625 
Q 22.75 39.890625 18.8125 39.015625 
Q 14.890625 38.140625 10.796875 36.28125 
z
" id="BitstreamVeraSans-Roman-35"/>
     </defs>
     <g transform="translate(425.7691875 344.786625)scale(0.21599999999999997 -0.21599999999999997)">
      <use xlink:href="#BitstreamVeraSans-Roman-43"/>
      <use x="69.82421875" xlink:href="#BitstreamVeraSans-Roman-52"/>
      <use x="139.244140625" xlink:href="#BitstreamVeraSans-Roman-57"/>
      <use x="238.12109375" xlink:href="#BitstreamVeraSans-Roman-20"/>
      <use x="269.908203125" xlink:href="#BitstreamVeraSans-Roman-35"/>
      <use x="333.53125" xlink:href="#BitstreamVeraSans-Roman-30"/>
      <use x="397.154296875" xlink:href="#BitstreamVeraSans-Roman-73"/>
     </g>
    </g>
   </g>
  </g>
 </g>
 <defs>
  <clipPath id="pad5fb8eef4">
   <rect height="327.866125" width="467.7609375" x="74.48625" y="40.852625"/>
  </clipPath>
 </defs>
</svg>
