<?xml version="1.0" encoding="utf-8" standalone="no"?>
<!DOCTYPE svg PUBLIC "-//W3C//DTD SVG 1.1//EN"
  "http://www.w3.org/Graphics/SVG/1.1/DTD/svg11.dtd">
<!-- Created with matplotlib (http://matplotlib.org/) -->
<svg height="432pt" version="1.1" viewBox="0 0 576 432" width="576pt" xmlns="http://www.w3.org/2000/svg" xmlns:xlink="http://www.w3.org/1999/xlink">
 <defs>
  <style type="text/css">
*{stroke-linecap:butt;stroke-linejoin:round;stroke-miterlimit:100000;}
  </style>
 </defs>
 <g id="figure_1">
  <g id="patch_1">
   <path d="M 0 432 
L 576 432 
L 576 0 
L 0 0 
z
" style="fill:#ffffff;"/>
  </g>
  <g id="axes_1">
   <g id="patch_2">
    <path d="M 74.48625 368.71875 
L 539.38125 368.71875 
L 539.38125 40.852625 
L 74.48625 40.852625 
z
" style="fill:#ffffff;"/>
   </g>
   <g id="line2d_1">
    <path clip-path="url(#pda0811e9b7)" d="M 74.48625 368.71875 
L 74.48625 362.739429 
L 82.741442 361.742875 
L 103.277063 360.746321 
L 109.257573 359.749768 
L 132.721277 358.753214 
L 137.456693 357.756661 
L 149.361688 356.760107 
L 151.526298 354.767 
L 153.577802 353.770446 
L 154.836925 352.773893 
L 155.123383 351.777339 
L 170.921389 350.780786 
L 175.278035 349.784232 
L 177.218208 348.787679 
L 177.37395 347.791125 
L 178.308588 346.794571 
L 178.930843 345.798018 
L 180.626764 344.801464 
L 183.677532 343.804911 
L 184.199526 342.808357 
L 192.095528 341.811804 
L 192.217784 340.81525 
L 192.512495 339.818696 
L 197.56671 338.822143 
L 198.060168 337.825589 
L 205.186499 336.829036 
L 208.017237 335.832482 
L 209.448279 334.835929 
L 212.335283 333.839375 
L 218.567505 332.842821 
L 220.043944 331.846268 
L 220.822505 330.849714 
L 222.074589 329.853161 
L 222.098408 328.856607 
L 224.72523 326.8635 
L 224.862665 325.866946 
L 227.237618 324.870393 
L 227.399883 322.877286 
L 228.924039 321.880732 
L 229.220342 320.884179 
L 230.792026 319.887625 
L 234.16633 318.891071 
L 234.929462 317.894518 
L 238.147321 316.897964 
L 238.71522 315.901411 
L 238.922582 314.904857 
L 240.246789 313.908304 
L 240.926386 312.91175 
L 241.789038 311.915196 
L 243.493554 310.918643 
L 245.563312 309.922089 
L 247.242715 308.925536 
L 249.591208 307.928982 
L 250.94941 303.942768 
L 253.235982 302.946214 
L 253.33189 301.949661 
L 254.201663 300.953107 
L 256.220802 299.956554 
L 260.394716 298.96 
L 261.359667 297.963446 
L 263.588984 296.966893 
L 264.842823 295.970339 
L 265.848692 294.973786 
L 267.196493 293.977232 
L 267.83383 292.980679 
L 268.03837 291.984125 
L 271.789856 290.987571 
L 273.139663 288.994464 
L 275.405311 287.001357 
L 276.140928 286.004804 
L 276.424234 285.00825 
L 277.108839 284.011696 
L 278.358516 281.022036 
L 278.987098 280.025482 
L 279.329607 279.028929 
L 281.065947 277.035821 
L 282.509778 276.039268 
L 284.228399 275.042714 
L 284.460665 274.046161 
L 287.896498 272.053054 
L 288.061427 270.059946 
L 290.940905 269.063393 
L 291.239962 265.077179 
L 292.381868 264.080625 
L 292.555795 263.084071 
L 293.422381 262.087518 
L 293.593052 260.094411 
L 294.612102 259.097857 
L 294.756843 258.101304 
L 295.572327 257.10475 
L 295.732856 255.111643 
L 295.948793 254.115089 
L 295.967438 253.118536 
L 297.222729 252.121982 
L 297.454056 250.128875 
L 297.997716 249.132321 
L 298.21924 247.139214 
L 298.768121 246.142661 
L 298.79226 245.146107 
L 299.446537 244.149554 
L 299.644862 243.153 
L 300.491533 242.156446 
L 300.898027 241.159893 
L 301.077292 240.163339 
L 302.981634 238.170232 
L 303.214691 237.173679 
L 304.113227 236.177125 
L 304.509908 234.184018 
L 304.736657 233.187464 
L 305.227338 232.190911 
L 305.562932 231.194357 
L 306.433379 230.197804 
L 307.111821 229.20125 
L 307.571885 228.204696 
L 307.771791 227.208143 
L 308.450361 226.211589 
L 309.549776 225.215036 
L 310.513852 222.225375 
L 310.52076 221.228821 
L 312.630861 220.232268 
L 313.11568 219.235714 
L 313.151074 218.239161 
L 313.580034 217.242607 
L 314.649571 216.246054 
L 316.174416 215.2495 
L 316.407813 213.256393 
L 316.421775 212.259839 
L 316.63866 211.263286 
L 317.00339 210.266732 
L 318.279361 209.270179 
L 318.445626 208.273625 
L 318.988994 207.277071 
L 319.738216 206.280518 
L 321.122916 205.283964 
L 321.57618 203.290857 
L 323.302252 202.294304 
L 323.539255 201.29775 
L 324.656991 200.301196 
L 325.062296 199.304643 
L 325.232141 198.308089 
L 325.65886 197.311536 
L 325.781414 196.314982 
L 327.685896 195.318429 
L 327.983949 194.321875 
L 328.115093 193.325321 
L 328.377926 192.328768 
L 328.457201 191.332214 
L 328.666477 190.335661 
L 329.072529 189.339107 
L 329.100075 188.342554 
L 330.036536 187.346 
L 330.424156 186.349446 
L 331.346829 185.352893 
L 332.432608 184.356339 
L 333.285674 183.359786 
L 333.583754 182.363232 
L 333.682381 180.370125 
L 334.074718 179.373571 
L 334.281549 178.377018 
L 334.301271 177.380464 
L 334.715045 176.383911 
L 336.149218 175.387357 
L 336.183792 174.390804 
L 336.825657 173.39425 
L 336.843228 171.401143 
L 338.188002 170.404589 
L 338.364536 169.408036 
L 338.487977 167.414929 
L 338.65395 164.425268 
L 338.762058 163.428714 
L 339.017506 162.432161 
L 339.034055 161.435607 
L 339.175451 160.439054 
L 339.845857 159.4425 
L 340.141594 158.445946 
L 340.30691 157.449393 
L 340.873708 156.452839 
L 342.27085 154.459732 
L 343.643583 153.463179 
L 344.406997 152.466625 
L 344.481739 151.470071 
L 344.852847 150.473518 
L 345.001853 149.476964 
L 345.418579 148.480411 
L 345.536261 147.483857 
L 346.546894 146.487304 
L 346.632398 145.49075 
L 347.558049 144.494196 
L 347.939358 143.497643 
L 347.990187 142.501089 
L 348.190222 141.504536 
L 348.550324 140.507982 
L 349.71167 138.514875 
L 350.191073 137.518321 
L 351.566461 135.525214 
L 352.57328 134.528661 
L 353.123224 133.532107 
L 353.835412 132.535554 
L 355.5919 131.539 
L 356.414689 130.542446 
L 357.897472 129.545893 
L 357.912135 128.549339 
L 358.255446 127.552786 
L 359.078401 126.556232 
L 359.580478 125.559679 
L 360.654328 124.563125 
L 360.728276 123.566571 
L 361.093982 122.570018 
L 361.099386 121.573464 
L 361.729596 120.576911 
L 363.134907 119.580357 
L 363.862427 118.583804 
L 364.416637 117.58725 
L 364.648265 116.590696 
L 364.996331 115.594143 
L 366.050711 114.597589 
L 366.486916 113.601036 
L 367.402346 110.611375 
L 368.032334 109.614821 
L 368.06034 108.618268 
L 369.226436 107.621714 
L 369.940412 106.625161 
L 371.504558 105.628607 
L 371.961354 103.6355 
L 372.759168 102.638946 
L 377.680908 101.642393 
L 378.021023 100.645839 
L 378.400649 98.652732 
L 379.055549 97.656179 
L 382.130165 95.663071 
L 384.066922 94.666518 
L 384.466859 93.669964 
L 385.043416 92.673411 
L 386.150032 91.676857 
L 386.348435 90.680304 
L 387.876324 89.68375 
L 388.289785 88.687196 
L 388.375462 87.690643 
L 389.078268 86.694089 
L 389.568005 85.697536 
L 389.663555 84.700982 
L 391.569096 83.704429 
L 391.831868 82.707875 
L 392.280792 81.711321 
L 392.442995 80.714768 
L 397.370277 79.718214 
L 398.22898 78.721661 
L 399.570127 77.725107 
L 399.94462 76.728554 
L 400.507428 75.732 
L 401.764175 74.735446 
L 402.019636 73.738893 
L 402.638411 72.742339 
L 404.711102 71.745786 
L 405.023427 70.749232 
L 407.704472 69.752679 
L 408.471645 68.756125 
L 410.825239 67.759571 
L 414.03618 66.763018 
L 414.418696 65.766464 
L 415.202877 64.769911 
L 420.165447 63.773357 
L 424.084523 62.776804 
L 425.113958 61.78025 
L 425.185888 60.783696 
L 427.589038 59.787143 
L 436.862978 58.790589 
L 436.930223 57.794036 
L 440.763586 56.797482 
L 441.756541 55.800929 
L 444.064642 54.804375 
L 444.283566 53.807821 
L 447.430111 52.811268 
L 448.463051 51.814714 
L 449.001908 50.818161 
L 449.371327 49.821607 
L 454.948291 48.825054 
L 458.314552 47.8285 
L 460.011775 46.831946 
L 477.705524 45.835393 
L 486.893412 44.838839 
L 513.888545 43.842286 
L 526.320632 42.845732 
L 529.802664 41.849179 
L 534.661545 40.852625 
L 534.661545 40.852625 
" style="fill:none;stroke:#0000ff;stroke-linecap:square;stroke-width:2.0;"/>
   </g>
   <g id="line2d_2">
    <path clip-path="url(#pda0811e9b7)" d="M 74.48625 368.71875 
L 74.48625 355.261558 
L 85.859383 354.038177 
L 86.317825 352.814796 
L 86.94337 351.591415 
L 91.675017 350.368034 
L 94.029639 349.144653 
L 94.695032 347.921272 
L 94.911141 346.697891 
L 95.443641 345.47451 
L 98.189721 344.251129 
L 99.922629 343.027748 
L 100.354873 341.804367 
L 100.551902 340.580986 
L 102.211229 339.357604 
L 105.271546 338.134223 
L 105.941246 336.910842 
L 106.770371 335.687461 
L 107.237572 334.46408 
L 107.854184 333.240699 
L 110.078787 330.793937 
L 118.197047 329.570556 
L 119.097767 328.347175 
L 119.364399 327.123794 
L 129.791458 325.900413 
L 130.239107 324.677032 
L 132.027286 322.23027 
L 132.380978 321.006889 
L 133.07136 319.783507 
L 133.508872 318.560126 
L 134.28477 317.336745 
L 136.052165 316.113364 
L 136.582341 314.889983 
L 137.644932 313.666602 
L 137.658148 312.443221 
L 139.972731 311.21984 
L 140.494261 308.773078 
L 140.534743 307.549697 
L 142.104648 306.326316 
L 143.002975 305.102935 
L 143.369645 303.879554 
L 143.585799 302.656173 
L 144.296938 301.432792 
L 144.531442 300.20941 
L 145.666977 298.986029 
L 145.678918 297.762648 
L 146.268619 296.539267 
L 147.574041 295.315886 
L 147.762986 294.092505 
L 149.665464 291.645743 
L 150.246614 290.422362 
L 150.387597 289.198981 
L 150.891677 286.752219 
L 151.795224 285.528838 
L 152.262919 284.305457 
L 152.433356 283.082076 
L 153.029275 280.635313 
L 153.182984 279.411932 
L 155.868911 278.188551 
L 156.319508 276.96517 
L 157.037511 275.741789 
L 157.347533 274.518408 
L 158.231884 273.295027 
L 159.491527 272.071646 
L 159.639263 270.848265 
L 160.138015 269.624884 
L 160.834209 268.401503 
L 162.648027 265.954741 
L 163.165618 264.73136 
L 164.920947 263.507979 
L 165.45677 262.284597 
L 165.770407 261.061216 
L 167.239326 259.837835 
L 167.421903 258.614454 
L 170.209451 256.167692 
L 170.727622 254.944311 
L 170.881552 253.72093 
L 171.586955 251.274168 
L 171.594713 250.050787 
L 172.0201 246.380644 
L 173.998812 245.157263 
L 174.192094 242.7105 
L 175.195818 241.487119 
L 175.69783 240.263738 
L 175.937192 237.816976 
L 177.186694 236.593595 
L 177.229005 235.370214 
L 178.005143 234.146833 
L 178.218208 232.923452 
L 178.568356 231.700071 
L 178.784683 230.47669 
L 180.901822 229.253309 
L 181.819182 221.913022 
L 182.190496 218.242879 
L 183.438791 215.796117 
L 183.640084 214.572736 
L 183.765045 212.125974 
L 184.933248 210.902593 
L 185.205001 208.455831 
L 186.171521 204.785687 
L 186.315198 203.562306 
L 186.913018 202.338925 
L 187.006087 201.115544 
L 188.399765 194.998639 
L 189.325229 193.775258 
L 190.212896 191.328496 
L 190.594333 190.105115 
L 190.59839 188.881734 
L 191.44959 182.764828 
L 192.386371 181.541447 
L 192.493034 180.318066 
L 193.380197 177.871304 
L 193.567193 176.647923 
L 194.235188 175.424542 
L 194.507487 174.201161 
L 195.043596 170.531018 
L 195.33111 169.307637 
L 196.557676 166.860875 
L 196.841426 165.637493 
L 197.413927 164.414112 
L 197.425498 163.190731 
L 197.955303 160.743969 
L 198.324765 159.520588 
L 199.89197 157.073826 
L 200.330972 155.850445 
L 200.679098 153.403683 
L 201.062009 152.180302 
L 202.639238 149.73354 
L 202.661255 148.510159 
L 203.697553 146.063396 
L 203.831654 143.616634 
L 204.46324 142.393253 
L 204.544853 141.169872 
L 204.835509 139.946491 
L 205.672927 138.72311 
L 206.017795 137.499729 
L 207.418476 136.276348 
L 207.992538 135.052967 
L 208.19764 133.829586 
L 208.621546 132.606205 
L 208.794701 131.382824 
L 209.706017 127.712681 
L 212.051659 126.489299 
L 212.429072 125.265918 
L 213.511674 124.042537 
L 213.755039 122.819156 
L 214.317123 121.595775 
L 215.983558 120.372394 
L 216.825088 117.925632 
L 217.178494 114.255489 
L 217.396487 113.032108 
L 218.193553 110.585346 
L 218.393398 109.361965 
L 218.948604 108.138583 
L 221.091852 106.915202 
L 222.312505 103.245059 
L 222.75603 102.021678 
L 226.170959 100.798297 
L 226.953888 97.128154 
L 227.71563 95.904773 
L 227.851621 94.681392 
L 229.721373 93.458011 
L 232.472796 92.23463 
L 232.654772 91.011249 
L 232.979438 89.787868 
L 233.698091 88.564486 
L 235.612167 87.341105 
L 235.742742 84.894343 
L 236.997738 83.670962 
L 237.346333 82.447581 
L 237.863865 81.2242 
L 239.795248 80.000819 
L 240.359677 78.777438 
L 243.278347 77.554057 
L 244.178083 76.330676 
L 246.707906 75.107295 
L 246.823261 73.883914 
L 247.501266 72.660533 
L 247.85315 71.437152 
L 248.616919 70.213771 
L 250.582049 68.990389 
L 250.695859 67.767008 
L 252.136485 66.543627 
L 253.222912 65.320246 
L 255.026455 64.096865 
L 257.847228 61.650103 
L 260.093798 59.203341 
L 264.12333 57.97996 
L 265.45315 56.756579 
L 267.410176 55.533198 
L 273.60719 54.309817 
L 275.374603 53.086436 
L 279.136407 51.863055 
L 279.346244 50.639674 
L 284.451633 49.416292 
L 286.081788 48.192911 
L 291.469199 46.96953 
L 303.446459 45.746149 
L 305.207991 44.522768 
L 307.441066 43.299387 
L 333.859468 42.076006 
L 336.093451 40.852625 
L 336.093451 40.852625 
" style="fill:none;stroke:#008000;stroke-linecap:square;stroke-width:2.0;"/>
   </g>
   <g id="line2d_3">
    <path clip-path="url(#pda0811e9b7)" d="M 74.48625 368.71875 
L 74.48625 361.267247 
L 86.097395 358.783413 
L 86.109208 356.299579 
L 94.253654 351.33191 
L 99.747341 348.848076 
L 101.811568 346.364241 
L 108.218871 343.880407 
L 109.909206 341.396573 
L 111.950323 338.912739 
L 112.464657 336.428904 
L 113.319567 333.94507 
L 115.028943 331.461236 
L 118.046811 326.493567 
L 118.759462 324.009733 
L 118.825347 321.525899 
L 120.558888 319.042064 
L 121.639435 316.55823 
L 124.128402 314.074396 
L 124.160755 311.590562 
L 125.827277 309.106727 
L 126.871195 306.622893 
L 127.079375 304.139059 
L 128.739077 301.655224 
L 129.284941 299.17139 
L 130.453086 296.687556 
L 130.833663 294.203722 
L 131.625241 291.719887 
L 131.937378 284.268384 
L 133.169107 281.78455 
L 133.897622 279.300716 
L 134.191961 276.816882 
L 134.367239 274.333047 
L 135.129666 271.849213 
L 135.450986 269.365379 
L 136.670238 266.881545 
L 137.503278 261.913876 
L 137.852726 259.430042 
L 138.910648 256.946207 
L 138.987466 254.462373 
L 139.74887 251.978539 
L 141.587346 249.494705 
L 143.984475 247.01087 
L 145.925356 242.043202 
L 146.681144 234.591699 
L 146.790924 224.656362 
L 146.98246 222.172527 
L 148.495702 219.688693 
L 149.792038 217.204859 
L 150.358627 214.721025 
L 151.415538 212.23719 
L 151.701658 209.753356 
L 152.658337 207.269522 
L 152.851405 204.785687 
L 154.246947 199.818019 
L 154.863934 194.85035 
L 154.946051 192.366516 
L 155.534872 189.882682 
L 155.867035 187.398848 
L 156.766092 184.915013 
L 156.817072 182.431179 
L 157.174565 177.46351 
L 158.286886 174.979676 
L 158.428961 172.495842 
L 159.699193 170.012008 
L 159.859908 167.528173 
L 160.893227 165.044339 
L 161.17381 162.560505 
L 161.231656 157.592836 
L 162.134786 155.109002 
L 162.310533 152.625168 
L 162.717215 150.141333 
L 163.427151 147.657499 
L 163.8346 145.173665 
L 164.034684 142.68983 
L 165.381414 140.205996 
L 165.476114 135.238328 
L 166.70591 132.754493 
L 167.942506 127.786825 
L 168.158485 125.302991 
L 168.937 122.819156 
L 169.113994 120.335322 
L 171.735249 117.851488 
L 172.975891 115.367653 
L 173.122386 112.883819 
L 173.719778 110.399985 
L 174.065876 107.916151 
L 175.800419 105.432316 
L 177.346978 102.948482 
L 178.443323 100.464648 
L 178.820083 97.980813 
L 178.96058 95.496979 
L 180.997582 90.529311 
L 181.070812 88.045476 
L 181.378964 85.561642 
L 183.58215 83.077808 
L 184.181512 80.593973 
L 185.176293 78.110139 
L 186.038099 73.142471 
L 187.458339 70.658636 
L 187.497653 68.174802 
L 190.121644 65.690968 
L 191.482842 63.207134 
L 193.370617 60.723299 
L 194.213885 58.239465 
L 196.001123 55.755631 
L 197.187571 53.271796 
L 197.928367 50.787962 
L 203.06792 48.304128 
L 203.073955 45.820294 
L 203.911444 43.336459 
L 210.109917 40.852625 
L 210.109917 40.852625 
" style="fill:none;stroke:#ff0000;stroke-linecap:square;stroke-width:2.0;"/>
   </g>
   <g id="patch_3">
    <path d="M 539.38125 368.71875 
L 539.38125 40.852625 
" style="fill:none;stroke:#000000;stroke-linecap:square;stroke-linejoin:miter;stroke-width:2.0;"/>
   </g>
   <g id="patch_4">
    <path d="M 74.48625 368.71875 
L 539.38125 368.71875 
" style="fill:none;stroke:#000000;stroke-linecap:square;stroke-linejoin:miter;stroke-width:2.0;"/>
   </g>
   <g id="patch_5">
    <path d="M 74.48625 40.852625 
L 539.38125 40.852625 
" style="fill:none;stroke:#000000;stroke-linecap:square;stroke-linejoin:miter;stroke-width:2.0;"/>
   </g>
   <g id="patch_6">
    <path d="M 74.48625 368.71875 
L 74.48625 40.852625 
" style="fill:none;stroke:#000000;stroke-linecap:square;stroke-linejoin:miter;stroke-width:2.0;"/>
   </g>
   <g id="matplotlib.axis_1">
    <g id="xtick_1">
     <g id="line2d_4">
      <path clip-path="url(#pda0811e9b7)" d="M 74.48625 368.71875 
L 74.48625 40.852625 
" style="fill:none;stroke:#000000;stroke-dasharray:1.000000,3.000000;stroke-dashoffset:0.0;stroke-width:2.0;"/>
     </g>
     <g id="line2d_5">
      <defs>
       <path d="M 0 0 
L 0 -4 
" id="mbef9fcc31b" style="stroke:#000000;stroke-width:0.5;"/>
      </defs>
      <g>
       <use style="stroke:#000000;stroke-width:0.5;" x="74.48625" xlink:href="#mbef9fcc31b" y="368.71875"/>
      </g>
     </g>
     <g id="line2d_6">
      <defs>
       <path d="M 0 0 
L 0 4 
" id="m20d3087ddd" style="stroke:#000000;stroke-width:0.5;"/>
      </defs>
      <g>
       <use style="stroke:#000000;stroke-width:0.5;" x="74.48625" xlink:href="#m20d3087ddd" y="40.852625"/>
      </g>
     </g>
     <g id="text_1">
      <!-- 0 -->
      <defs>
       <path d="M 31.78125 66.40625 
Q 24.171875 66.40625 20.328125 58.90625 
Q 16.5 51.421875 16.5 36.375 
Q 16.5 21.390625 20.328125 13.890625 
Q 24.171875 6.390625 31.78125 6.390625 
Q 39.453125 6.390625 43.28125 13.890625 
Q 47.125 21.390625 47.125 36.375 
Q 47.125 51.421875 43.28125 58.90625 
Q 39.453125 66.40625 31.78125 66.40625 
M 31.78125 74.21875 
Q 44.046875 74.21875 50.515625 64.515625 
Q 56.984375 54.828125 56.984375 36.375 
Q 56.984375 17.96875 50.515625 8.265625 
Q 44.046875 -1.421875 31.78125 -1.421875 
Q 19.53125 -1.421875 13.0625 8.265625 
Q 6.59375 17.96875 6.59375 36.375 
Q 6.59375 54.828125 13.0625 64.515625 
Q 19.53125 74.21875 31.78125 74.21875 
" id="BitstreamVeraSans-Roman-30"/>
      </defs>
      <g transform="translate(68.76 386.3959375)scale(0.18 -0.18)">
       <use xlink:href="#BitstreamVeraSans-Roman-30"/>
      </g>
     </g>
    </g>
    <g id="xtick_2">
     <g id="line2d_7">
      <path clip-path="url(#pda0811e9b7)" d="M 167.46525 368.71875 
L 167.46525 40.852625 
" style="fill:none;stroke:#000000;stroke-dasharray:1.000000,3.000000;stroke-dashoffset:0.0;stroke-width:2.0;"/>
     </g>
     <g id="line2d_8">
      <g>
       <use style="stroke:#000000;stroke-width:0.5;" x="167.46525" xlink:href="#mbef9fcc31b" y="368.71875"/>
      </g>
     </g>
     <g id="line2d_9">
      <g>
       <use style="stroke:#000000;stroke-width:0.5;" x="167.46525" xlink:href="#m20d3087ddd" y="40.852625"/>
      </g>
     </g>
     <g id="text_2">
      <!-- 50 -->
      <defs>
       <path d="M 10.796875 72.90625 
L 49.515625 72.90625 
L 49.515625 64.59375 
L 19.828125 64.59375 
L 19.828125 46.734375 
Q 21.96875 47.46875 24.109375 47.828125 
Q 26.265625 48.1875 28.421875 48.1875 
Q 40.625 48.1875 47.75 41.5 
Q 54.890625 34.8125 54.890625 23.390625 
Q 54.890625 11.625 47.5625 5.09375 
Q 40.234375 -1.421875 26.90625 -1.421875 
Q 22.3125 -1.421875 17.546875 -0.640625 
Q 12.796875 0.140625 7.71875 1.703125 
L 7.71875 11.625 
Q 12.109375 9.234375 16.796875 8.0625 
Q 21.484375 6.890625 26.703125 6.890625 
Q 35.15625 6.890625 40.078125 11.328125 
Q 45.015625 15.765625 45.015625 23.390625 
Q 45.015625 31 40.078125 35.4375 
Q 35.15625 39.890625 26.703125 39.890625 
Q 22.75 39.890625 18.8125 39.015625 
Q 14.890625 38.140625 10.796875 36.28125 
z
" id="BitstreamVeraSans-Roman-35"/>
      </defs>
      <g transform="translate(156.01275 386.3959375)scale(0.18 -0.18)">
       <use xlink:href="#BitstreamVeraSans-Roman-35"/>
       <use x="63.623046875" xlink:href="#BitstreamVeraSans-Roman-30"/>
      </g>
     </g>
    </g>
    <g id="xtick_3">
     <g id="line2d_10">
      <path clip-path="url(#pda0811e9b7)" d="M 260.44425 368.71875 
L 260.44425 40.852625 
" style="fill:none;stroke:#000000;stroke-dasharray:1.000000,3.000000;stroke-dashoffset:0.0;stroke-width:2.0;"/>
     </g>
     <g id="line2d_11">
      <g>
       <use style="stroke:#000000;stroke-width:0.5;" x="260.44425" xlink:href="#mbef9fcc31b" y="368.71875"/>
      </g>
     </g>
     <g id="line2d_12">
      <g>
       <use style="stroke:#000000;stroke-width:0.5;" x="260.44425" xlink:href="#m20d3087ddd" y="40.852625"/>
      </g>
     </g>
     <g id="text_3">
      <!-- 100 -->
      <defs>
       <path d="M 12.40625 8.296875 
L 28.515625 8.296875 
L 28.515625 63.921875 
L 10.984375 60.40625 
L 10.984375 69.390625 
L 28.421875 72.90625 
L 38.28125 72.90625 
L 38.28125 8.296875 
L 54.390625 8.296875 
L 54.390625 0 
L 12.40625 0 
z
" id="BitstreamVeraSans-Roman-31"/>
      </defs>
      <g transform="translate(243.2655 386.3959375)scale(0.18 -0.18)">
       <use xlink:href="#BitstreamVeraSans-Roman-31"/>
       <use x="63.623046875" xlink:href="#BitstreamVeraSans-Roman-30"/>
       <use x="127.24609375" xlink:href="#BitstreamVeraSans-Roman-30"/>
      </g>
     </g>
    </g>
    <g id="xtick_4">
     <g id="line2d_13">
      <path clip-path="url(#pda0811e9b7)" d="M 353.42325 368.71875 
L 353.42325 40.852625 
" style="fill:none;stroke:#000000;stroke-dasharray:1.000000,3.000000;stroke-dashoffset:0.0;stroke-width:2.0;"/>
     </g>
     <g id="line2d_14">
      <g>
       <use style="stroke:#000000;stroke-width:0.5;" x="353.42325" xlink:href="#mbef9fcc31b" y="368.71875"/>
      </g>
     </g>
     <g id="line2d_15">
      <g>
       <use style="stroke:#000000;stroke-width:0.5;" x="353.42325" xlink:href="#m20d3087ddd" y="40.852625"/>
      </g>
     </g>
     <g id="text_4">
      <!-- 150 -->
      <g transform="translate(336.2445 386.3959375)scale(0.18 -0.18)">
       <use xlink:href="#BitstreamVeraSans-Roman-31"/>
       <use x="63.623046875" xlink:href="#BitstreamVeraSans-Roman-35"/>
       <use x="127.24609375" xlink:href="#BitstreamVeraSans-Roman-30"/>
      </g>
     </g>
    </g>
    <g id="xtick_5">
     <g id="line2d_16">
      <path clip-path="url(#pda0811e9b7)" d="M 446.40225 368.71875 
L 446.40225 40.852625 
" style="fill:none;stroke:#000000;stroke-dasharray:1.000000,3.000000;stroke-dashoffset:0.0;stroke-width:2.0;"/>
     </g>
     <g id="line2d_17">
      <g>
       <use style="stroke:#000000;stroke-width:0.5;" x="446.40225" xlink:href="#mbef9fcc31b" y="368.71875"/>
      </g>
     </g>
     <g id="line2d_18">
      <g>
       <use style="stroke:#000000;stroke-width:0.5;" x="446.40225" xlink:href="#m20d3087ddd" y="40.852625"/>
      </g>
     </g>
     <g id="text_5">
      <!-- 200 -->
      <defs>
       <path d="M 19.1875 8.296875 
L 53.609375 8.296875 
L 53.609375 0 
L 7.328125 0 
L 7.328125 8.296875 
Q 12.9375 14.109375 22.625 23.890625 
Q 32.328125 33.6875 34.8125 36.53125 
Q 39.546875 41.84375 41.421875 45.53125 
Q 43.3125 49.21875 43.3125 52.78125 
Q 43.3125 58.59375 39.234375 62.25 
Q 35.15625 65.921875 28.609375 65.921875 
Q 23.96875 65.921875 18.8125 64.3125 
Q 13.671875 62.703125 7.8125 59.421875 
L 7.8125 69.390625 
Q 13.765625 71.78125 18.9375 73 
Q 24.125 74.21875 28.421875 74.21875 
Q 39.75 74.21875 46.484375 68.546875 
Q 53.21875 62.890625 53.21875 53.421875 
Q 53.21875 48.921875 51.53125 44.890625 
Q 49.859375 40.875 45.40625 35.40625 
Q 44.1875 33.984375 37.640625 27.21875 
Q 31.109375 20.453125 19.1875 8.296875 
" id="BitstreamVeraSans-Roman-32"/>
      </defs>
      <g transform="translate(429.2235 386.3959375)scale(0.18 -0.18)">
       <use xlink:href="#BitstreamVeraSans-Roman-32"/>
       <use x="63.623046875" xlink:href="#BitstreamVeraSans-Roman-30"/>
       <use x="127.24609375" xlink:href="#BitstreamVeraSans-Roman-30"/>
      </g>
     </g>
    </g>
    <g id="xtick_6">
     <g id="line2d_19">
      <path clip-path="url(#pda0811e9b7)" d="M 539.38125 368.71875 
L 539.38125 40.852625 
" style="fill:none;stroke:#000000;stroke-dasharray:1.000000,3.000000;stroke-dashoffset:0.0;stroke-width:2.0;"/>
     </g>
     <g id="line2d_20">
      <g>
       <use style="stroke:#000000;stroke-width:0.5;" x="539.38125" xlink:href="#mbef9fcc31b" y="368.71875"/>
      </g>
     </g>
     <g id="line2d_21">
      <g>
       <use style="stroke:#000000;stroke-width:0.5;" x="539.38125" xlink:href="#m20d3087ddd" y="40.852625"/>
      </g>
     </g>
     <g id="text_6">
      <!-- 250 -->
      <g transform="translate(522.2025 386.3959375)scale(0.18 -0.18)">
       <use xlink:href="#BitstreamVeraSans-Roman-32"/>
       <use x="63.623046875" xlink:href="#BitstreamVeraSans-Roman-35"/>
       <use x="127.24609375" xlink:href="#BitstreamVeraSans-Roman-30"/>
      </g>
     </g>
    </g>
    <g id="text_7">
     <!-- Turn speed IRQ (degrees/min) -->
     <defs>
      <path d="M 8.5 21.578125 
L 8.5 54.6875 
L 17.484375 54.6875 
L 17.484375 21.921875 
Q 17.484375 14.15625 20.5 10.265625 
Q 23.53125 6.390625 29.59375 6.390625 
Q 36.859375 6.390625 41.078125 11.03125 
Q 45.3125 15.671875 45.3125 23.6875 
L 45.3125 54.6875 
L 54.296875 54.6875 
L 54.296875 0 
L 45.3125 0 
L 45.3125 8.40625 
Q 42.046875 3.421875 37.71875 1 
Q 33.40625 -1.421875 27.6875 -1.421875 
Q 18.265625 -1.421875 13.375 4.4375 
Q 8.5 10.296875 8.5 21.578125 
" id="BitstreamVeraSans-Roman-75"/>
      <path d="M -0.296875 72.90625 
L 61.375 72.90625 
L 61.375 64.59375 
L 35.5 64.59375 
L 35.5 0 
L 25.59375 0 
L 25.59375 64.59375 
L -0.296875 64.59375 
z
" id="BitstreamVeraSans-Roman-54"/>
      <path d="M 41.109375 46.296875 
Q 39.59375 47.171875 37.8125 47.578125 
Q 36.03125 48 33.890625 48 
Q 26.265625 48 22.1875 43.046875 
Q 18.109375 38.09375 18.109375 28.8125 
L 18.109375 0 
L 9.078125 0 
L 9.078125 54.6875 
L 18.109375 54.6875 
L 18.109375 46.1875 
Q 20.953125 51.171875 25.484375 53.578125 
Q 30.03125 56 36.53125 56 
Q 37.453125 56 38.578125 55.875 
Q 39.703125 55.765625 41.0625 55.515625 
z
" id="BitstreamVeraSans-Roman-72"/>
      <path d="M 39.40625 66.21875 
Q 28.65625 66.21875 22.328125 58.203125 
Q 16.015625 50.203125 16.015625 36.375 
Q 16.015625 22.609375 22.328125 14.59375 
Q 28.65625 6.59375 39.40625 6.59375 
Q 50.140625 6.59375 56.421875 14.59375 
Q 62.703125 22.609375 62.703125 36.375 
Q 62.703125 50.203125 56.421875 58.203125 
Q 50.140625 66.21875 39.40625 66.21875 
M 53.21875 1.3125 
L 66.21875 -12.890625 
L 54.296875 -12.890625 
L 43.5 -1.21875 
Q 41.890625 -1.3125 41.03125 -1.359375 
Q 40.1875 -1.421875 39.40625 -1.421875 
Q 24.03125 -1.421875 14.8125 8.859375 
Q 5.609375 19.140625 5.609375 36.375 
Q 5.609375 53.65625 14.8125 63.9375 
Q 24.03125 74.21875 39.40625 74.21875 
Q 54.734375 74.21875 63.90625 63.9375 
Q 73.09375 53.65625 73.09375 36.375 
Q 73.09375 23.6875 67.984375 14.640625 
Q 62.890625 5.609375 53.21875 1.3125 
" id="BitstreamVeraSans-Roman-51"/>
      <path d="M 8.015625 75.875 
L 15.828125 75.875 
Q 23.140625 64.359375 26.78125 53.3125 
Q 30.421875 42.28125 30.421875 31.390625 
Q 30.421875 20.453125 26.78125 9.375 
Q 23.140625 -1.703125 15.828125 -13.1875 
L 8.015625 -13.1875 
Q 14.5 -2 17.703125 9.0625 
Q 20.90625 20.125 20.90625 31.390625 
Q 20.90625 42.671875 17.703125 53.65625 
Q 14.5 64.65625 8.015625 75.875 
" id="BitstreamVeraSans-Roman-29"/>
      <path d="M 45.40625 46.390625 
L 45.40625 75.984375 
L 54.390625 75.984375 
L 54.390625 0 
L 45.40625 0 
L 45.40625 8.203125 
Q 42.578125 3.328125 38.25 0.953125 
Q 33.9375 -1.421875 27.875 -1.421875 
Q 17.96875 -1.421875 11.734375 6.484375 
Q 5.515625 14.40625 5.515625 27.296875 
Q 5.515625 40.1875 11.734375 48.09375 
Q 17.96875 56 27.875 56 
Q 33.9375 56 38.25 53.625 
Q 42.578125 51.265625 45.40625 46.390625 
M 14.796875 27.296875 
Q 14.796875 17.390625 18.875 11.75 
Q 22.953125 6.109375 30.078125 6.109375 
Q 37.203125 6.109375 41.296875 11.75 
Q 45.40625 17.390625 45.40625 27.296875 
Q 45.40625 37.203125 41.296875 42.84375 
Q 37.203125 48.484375 30.078125 48.484375 
Q 22.953125 48.484375 18.875 42.84375 
Q 14.796875 37.203125 14.796875 27.296875 
" id="BitstreamVeraSans-Roman-64"/>
      <path d="M 31 75.875 
Q 24.46875 64.65625 21.28125 53.65625 
Q 18.109375 42.671875 18.109375 31.390625 
Q 18.109375 20.125 21.3125 9.0625 
Q 24.515625 -2 31 -13.1875 
L 23.1875 -13.1875 
Q 15.875 -1.703125 12.234375 9.375 
Q 8.59375 20.453125 8.59375 31.390625 
Q 8.59375 42.28125 12.203125 53.3125 
Q 15.828125 64.359375 23.1875 75.875 
z
" id="BitstreamVeraSans-Roman-28"/>
      <path id="BitstreamVeraSans-Roman-20"/>
      <path d="M 54.890625 33.015625 
L 54.890625 0 
L 45.90625 0 
L 45.90625 32.71875 
Q 45.90625 40.484375 42.875 44.328125 
Q 39.84375 48.1875 33.796875 48.1875 
Q 26.515625 48.1875 22.3125 43.546875 
Q 18.109375 38.921875 18.109375 30.90625 
L 18.109375 0 
L 9.078125 0 
L 9.078125 54.6875 
L 18.109375 54.6875 
L 18.109375 46.1875 
Q 21.34375 51.125 25.703125 53.5625 
Q 30.078125 56 35.796875 56 
Q 45.21875 56 50.046875 50.171875 
Q 54.890625 44.34375 54.890625 33.015625 
" id="BitstreamVeraSans-Roman-6e"/>
      <path d="M 52 44.1875 
Q 55.375 50.25 60.0625 53.125 
Q 64.75 56 71.09375 56 
Q 79.640625 56 84.28125 50.015625 
Q 88.921875 44.046875 88.921875 33.015625 
L 88.921875 0 
L 79.890625 0 
L 79.890625 32.71875 
Q 79.890625 40.578125 77.09375 44.375 
Q 74.3125 48.1875 68.609375 48.1875 
Q 61.625 48.1875 57.5625 43.546875 
Q 53.515625 38.921875 53.515625 30.90625 
L 53.515625 0 
L 44.484375 0 
L 44.484375 32.71875 
Q 44.484375 40.625 41.703125 44.40625 
Q 38.921875 48.1875 33.109375 48.1875 
Q 26.21875 48.1875 22.15625 43.53125 
Q 18.109375 38.875 18.109375 30.90625 
L 18.109375 0 
L 9.078125 0 
L 9.078125 54.6875 
L 18.109375 54.6875 
L 18.109375 46.1875 
Q 21.1875 51.21875 25.484375 53.609375 
Q 29.78125 56 35.6875 56 
Q 41.65625 56 45.828125 52.96875 
Q 50 49.953125 52 44.1875 
" id="BitstreamVeraSans-Roman-6d"/>
      <path d="M 9.8125 72.90625 
L 19.671875 72.90625 
L 19.671875 0 
L 9.8125 0 
z
" id="BitstreamVeraSans-Roman-49"/>
      <path d="M 44.390625 34.1875 
Q 47.5625 33.109375 50.5625 29.59375 
Q 53.5625 26.078125 56.59375 19.921875 
L 66.609375 0 
L 56 0 
L 46.6875 18.703125 
Q 43.0625 26.03125 39.671875 28.421875 
Q 36.28125 30.8125 30.421875 30.8125 
L 19.671875 30.8125 
L 19.671875 0 
L 9.8125 0 
L 9.8125 72.90625 
L 32.078125 72.90625 
Q 44.578125 72.90625 50.734375 67.671875 
Q 56.890625 62.453125 56.890625 51.90625 
Q 56.890625 45.015625 53.6875 40.46875 
Q 50.484375 35.9375 44.390625 34.1875 
M 19.671875 64.796875 
L 19.671875 38.921875 
L 32.078125 38.921875 
Q 39.203125 38.921875 42.84375 42.21875 
Q 46.484375 45.515625 46.484375 51.90625 
Q 46.484375 58.296875 42.84375 61.546875 
Q 39.203125 64.796875 32.078125 64.796875 
z
" id="BitstreamVeraSans-Roman-52"/>
      <path d="M 9.421875 54.6875 
L 18.40625 54.6875 
L 18.40625 0 
L 9.421875 0 
z
M 9.421875 75.984375 
L 18.40625 75.984375 
L 18.40625 64.59375 
L 9.421875 64.59375 
z
" id="BitstreamVeraSans-Roman-69"/>
      <path d="M 56.203125 29.59375 
L 56.203125 25.203125 
L 14.890625 25.203125 
Q 15.484375 15.921875 20.484375 11.0625 
Q 25.484375 6.203125 34.421875 6.203125 
Q 39.59375 6.203125 44.453125 7.46875 
Q 49.3125 8.734375 54.109375 11.28125 
L 54.109375 2.78125 
Q 49.265625 0.734375 44.1875 -0.34375 
Q 39.109375 -1.421875 33.890625 -1.421875 
Q 20.796875 -1.421875 13.15625 6.1875 
Q 5.515625 13.8125 5.515625 26.8125 
Q 5.515625 40.234375 12.765625 48.109375 
Q 20.015625 56 32.328125 56 
Q 43.359375 56 49.78125 48.890625 
Q 56.203125 41.796875 56.203125 29.59375 
M 47.21875 32.234375 
Q 47.125 39.59375 43.09375 43.984375 
Q 39.0625 48.390625 32.421875 48.390625 
Q 24.90625 48.390625 20.390625 44.140625 
Q 15.875 39.890625 15.1875 32.171875 
z
" id="BitstreamVeraSans-Roman-65"/>
      <path d="M 18.109375 8.203125 
L 18.109375 -20.796875 
L 9.078125 -20.796875 
L 9.078125 54.6875 
L 18.109375 54.6875 
L 18.109375 46.390625 
Q 20.953125 51.265625 25.265625 53.625 
Q 29.59375 56 35.59375 56 
Q 45.5625 56 51.78125 48.09375 
Q 58.015625 40.1875 58.015625 27.296875 
Q 58.015625 14.40625 51.78125 6.484375 
Q 45.5625 -1.421875 35.59375 -1.421875 
Q 29.59375 -1.421875 25.265625 0.953125 
Q 20.953125 3.328125 18.109375 8.203125 
M 48.6875 27.296875 
Q 48.6875 37.203125 44.609375 42.84375 
Q 40.53125 48.484375 33.40625 48.484375 
Q 26.265625 48.484375 22.1875 42.84375 
Q 18.109375 37.203125 18.109375 27.296875 
Q 18.109375 17.390625 22.1875 11.75 
Q 26.265625 6.109375 33.40625 6.109375 
Q 40.53125 6.109375 44.609375 11.75 
Q 48.6875 17.390625 48.6875 27.296875 
" id="BitstreamVeraSans-Roman-70"/>
      <path d="M 45.40625 27.984375 
Q 45.40625 37.75 41.375 43.109375 
Q 37.359375 48.484375 30.078125 48.484375 
Q 22.859375 48.484375 18.828125 43.109375 
Q 14.796875 37.75 14.796875 27.984375 
Q 14.796875 18.265625 18.828125 12.890625 
Q 22.859375 7.515625 30.078125 7.515625 
Q 37.359375 7.515625 41.375 12.890625 
Q 45.40625 18.265625 45.40625 27.984375 
M 54.390625 6.78125 
Q 54.390625 -7.171875 48.1875 -13.984375 
Q 42 -20.796875 29.203125 -20.796875 
Q 24.46875 -20.796875 20.265625 -20.09375 
Q 16.0625 -19.390625 12.109375 -17.921875 
L 12.109375 -9.1875 
Q 16.0625 -11.328125 19.921875 -12.34375 
Q 23.78125 -13.375 27.78125 -13.375 
Q 36.625 -13.375 41.015625 -8.765625 
Q 45.40625 -4.15625 45.40625 5.171875 
L 45.40625 9.625 
Q 42.625 4.78125 38.28125 2.390625 
Q 33.9375 0 27.875 0 
Q 17.828125 0 11.671875 7.65625 
Q 5.515625 15.328125 5.515625 27.984375 
Q 5.515625 40.671875 11.671875 48.328125 
Q 17.828125 56 27.875 56 
Q 33.9375 56 38.28125 53.609375 
Q 42.625 51.21875 45.40625 46.390625 
L 45.40625 54.6875 
L 54.390625 54.6875 
z
" id="BitstreamVeraSans-Roman-67"/>
      <path d="M 44.28125 53.078125 
L 44.28125 44.578125 
Q 40.484375 46.53125 36.375 47.5 
Q 32.28125 48.484375 27.875 48.484375 
Q 21.1875 48.484375 17.84375 46.4375 
Q 14.5 44.390625 14.5 40.28125 
Q 14.5 37.15625 16.890625 35.375 
Q 19.28125 33.59375 26.515625 31.984375 
L 29.59375 31.296875 
Q 39.15625 29.25 43.1875 25.515625 
Q 47.21875 21.78125 47.21875 15.09375 
Q 47.21875 7.46875 41.1875 3.015625 
Q 35.15625 -1.421875 24.609375 -1.421875 
Q 20.21875 -1.421875 15.453125 -0.5625 
Q 10.6875 0.296875 5.421875 2 
L 5.421875 11.28125 
Q 10.40625 8.6875 15.234375 7.390625 
Q 20.0625 6.109375 24.8125 6.109375 
Q 31.15625 6.109375 34.5625 8.28125 
Q 37.984375 10.453125 37.984375 14.40625 
Q 37.984375 18.0625 35.515625 20.015625 
Q 33.0625 21.96875 24.703125 23.78125 
L 21.578125 24.515625 
Q 13.234375 26.265625 9.515625 29.90625 
Q 5.8125 33.546875 5.8125 39.890625 
Q 5.8125 47.609375 11.28125 51.796875 
Q 16.75 56 26.8125 56 
Q 31.78125 56 36.171875 55.265625 
Q 40.578125 54.546875 44.28125 53.078125 
" id="BitstreamVeraSans-Roman-73"/>
      <path d="M 25.390625 72.90625 
L 33.6875 72.90625 
L 8.296875 -9.28125 
L 0 -9.28125 
z
" id="BitstreamVeraSans-Roman-2f"/>
     </defs>
     <g transform="translate(171.135 408.8165625)scale(0.18 -0.18)">
      <use xlink:href="#BitstreamVeraSans-Roman-54"/>
      <use x="60.849609375" xlink:href="#BitstreamVeraSans-Roman-75"/>
      <use x="124.228515625" xlink:href="#BitstreamVeraSans-Roman-72"/>
      <use x="165.326171875" xlink:href="#BitstreamVeraSans-Roman-6e"/>
      <use x="228.705078125" xlink:href="#BitstreamVeraSans-Roman-20"/>
      <use x="260.4921875" xlink:href="#BitstreamVeraSans-Roman-73"/>
      <use x="312.591796875" xlink:href="#BitstreamVeraSans-Roman-70"/>
      <use x="376.068359375" xlink:href="#BitstreamVeraSans-Roman-65"/>
      <use x="437.591796875" xlink:href="#BitstreamVeraSans-Roman-65"/>
      <use x="499.115234375" xlink:href="#BitstreamVeraSans-Roman-64"/>
      <use x="562.591796875" xlink:href="#BitstreamVeraSans-Roman-20"/>
      <use x="594.37890625" xlink:href="#BitstreamVeraSans-Roman-49"/>
      <use x="623.87109375" xlink:href="#BitstreamVeraSans-Roman-52"/>
      <use x="693.353515625" xlink:href="#BitstreamVeraSans-Roman-51"/>
      <use x="772.064453125" xlink:href="#BitstreamVeraSans-Roman-20"/>
      <use x="803.8515625" xlink:href="#BitstreamVeraSans-Roman-28"/>
      <use x="842.865234375" xlink:href="#BitstreamVeraSans-Roman-64"/>
      <use x="906.341796875" xlink:href="#BitstreamVeraSans-Roman-65"/>
      <use x="967.865234375" xlink:href="#BitstreamVeraSans-Roman-67"/>
      <use x="1031.341796875" xlink:href="#BitstreamVeraSans-Roman-72"/>
      <use x="1072.423828125" xlink:href="#BitstreamVeraSans-Roman-65"/>
      <use x="1133.947265625" xlink:href="#BitstreamVeraSans-Roman-65"/>
      <use x="1195.470703125" xlink:href="#BitstreamVeraSans-Roman-73"/>
      <use x="1247.5703125" xlink:href="#BitstreamVeraSans-Roman-2f"/>
      <use x="1281.26171875" xlink:href="#BitstreamVeraSans-Roman-6d"/>
      <use x="1378.673828125" xlink:href="#BitstreamVeraSans-Roman-69"/>
      <use x="1406.45703125" xlink:href="#BitstreamVeraSans-Roman-6e"/>
      <use x="1469.8359375" xlink:href="#BitstreamVeraSans-Roman-29"/>
     </g>
    </g>
   </g>
   <g id="matplotlib.axis_2">
    <g id="ytick_1">
     <g id="line2d_22">
      <path clip-path="url(#pda0811e9b7)" d="M 74.48625 368.71875 
L 539.38125 368.71875 
" style="fill:none;stroke:#000000;stroke-dasharray:1.000000,3.000000;stroke-dashoffset:0.0;stroke-width:2.0;"/>
     </g>
     <g id="line2d_23">
      <defs>
       <path d="M 0 0 
L 4 0 
" id="m0eea0b61de" style="stroke:#000000;stroke-width:0.5;"/>
      </defs>
      <g>
       <use style="stroke:#000000;stroke-width:0.5;" x="74.48625" xlink:href="#m0eea0b61de" y="368.71875"/>
      </g>
     </g>
     <g id="line2d_24">
      <defs>
       <path d="M 0 0 
L -4 0 
" id="me3c44b5023" style="stroke:#000000;stroke-width:0.5;"/>
      </defs>
      <g>
       <use style="stroke:#000000;stroke-width:0.5;" x="539.38125" xlink:href="#me3c44b5023" y="368.71875"/>
      </g>
     </g>
     <g id="text_8">
      <!-- 0.0 -->
      <defs>
       <path d="M 10.6875 12.40625 
L 21 12.40625 
L 21 0 
L 10.6875 0 
z
" id="BitstreamVeraSans-Roman-2e"/>
      </defs>
      <g transform="translate(41.860625 373.685625)scale(0.18 -0.18)">
       <use xlink:href="#BitstreamVeraSans-Roman-30"/>
       <use x="63.623046875" xlink:href="#BitstreamVeraSans-Roman-2e"/>
       <use x="95.41015625" xlink:href="#BitstreamVeraSans-Roman-30"/>
      </g>
     </g>
    </g>
    <g id="ytick_2">
     <g id="line2d_25">
      <path clip-path="url(#pda0811e9b7)" d="M 74.48625 303.145525 
L 539.38125 303.145525 
" style="fill:none;stroke:#000000;stroke-dasharray:1.000000,3.000000;stroke-dashoffset:0.0;stroke-width:2.0;"/>
     </g>
     <g id="line2d_26">
      <g>
       <use style="stroke:#000000;stroke-width:0.5;" x="74.48625" xlink:href="#m0eea0b61de" y="303.145525"/>
      </g>
     </g>
     <g id="line2d_27">
      <g>
       <use style="stroke:#000000;stroke-width:0.5;" x="539.38125" xlink:href="#me3c44b5023" y="303.145525"/>
      </g>
     </g>
     <g id="text_9">
      <!-- 0.2 -->
      <g transform="translate(41.860625 308.1124)scale(0.18 -0.18)">
       <use xlink:href="#BitstreamVeraSans-Roman-30"/>
       <use x="63.623046875" xlink:href="#BitstreamVeraSans-Roman-2e"/>
       <use x="95.41015625" xlink:href="#BitstreamVeraSans-Roman-32"/>
      </g>
     </g>
    </g>
    <g id="ytick_3">
     <g id="line2d_28">
      <path clip-path="url(#pda0811e9b7)" d="M 74.48625 237.5723 
L 539.38125 237.5723 
" style="fill:none;stroke:#000000;stroke-dasharray:1.000000,3.000000;stroke-dashoffset:0.0;stroke-width:2.0;"/>
     </g>
     <g id="line2d_29">
      <g>
       <use style="stroke:#000000;stroke-width:0.5;" x="74.48625" xlink:href="#m0eea0b61de" y="237.5723"/>
      </g>
     </g>
     <g id="line2d_30">
      <g>
       <use style="stroke:#000000;stroke-width:0.5;" x="539.38125" xlink:href="#me3c44b5023" y="237.5723"/>
      </g>
     </g>
     <g id="text_10">
      <!-- 0.4 -->
      <defs>
       <path d="M 37.796875 64.3125 
L 12.890625 25.390625 
L 37.796875 25.390625 
z
M 35.203125 72.90625 
L 47.609375 72.90625 
L 47.609375 25.390625 
L 58.015625 25.390625 
L 58.015625 17.1875 
L 47.609375 17.1875 
L 47.609375 0 
L 37.796875 0 
L 37.796875 17.1875 
L 4.890625 17.1875 
L 4.890625 26.703125 
z
" id="BitstreamVeraSans-Roman-34"/>
      </defs>
      <g transform="translate(41.860625 242.539175)scale(0.18 -0.18)">
       <use xlink:href="#BitstreamVeraSans-Roman-30"/>
       <use x="63.623046875" xlink:href="#BitstreamVeraSans-Roman-2e"/>
       <use x="95.41015625" xlink:href="#BitstreamVeraSans-Roman-34"/>
      </g>
     </g>
    </g>
    <g id="ytick_4">
     <g id="line2d_31">
      <path clip-path="url(#pda0811e9b7)" d="M 74.48625 171.999075 
L 539.38125 171.999075 
" style="fill:none;stroke:#000000;stroke-dasharray:1.000000,3.000000;stroke-dashoffset:0.0;stroke-width:2.0;"/>
     </g>
     <g id="line2d_32">
      <g>
       <use style="stroke:#000000;stroke-width:0.5;" x="74.48625" xlink:href="#m0eea0b61de" y="171.999075"/>
      </g>
     </g>
     <g id="line2d_33">
      <g>
       <use style="stroke:#000000;stroke-width:0.5;" x="539.38125" xlink:href="#me3c44b5023" y="171.999075"/>
      </g>
     </g>
     <g id="text_11">
      <!-- 0.6 -->
      <defs>
       <path d="M 33.015625 40.375 
Q 26.375 40.375 22.484375 35.828125 
Q 18.609375 31.296875 18.609375 23.390625 
Q 18.609375 15.53125 22.484375 10.953125 
Q 26.375 6.390625 33.015625 6.390625 
Q 39.65625 6.390625 43.53125 10.953125 
Q 47.40625 15.53125 47.40625 23.390625 
Q 47.40625 31.296875 43.53125 35.828125 
Q 39.65625 40.375 33.015625 40.375 
M 52.59375 71.296875 
L 52.59375 62.3125 
Q 48.875 64.0625 45.09375 64.984375 
Q 41.3125 65.921875 37.59375 65.921875 
Q 27.828125 65.921875 22.671875 59.328125 
Q 17.53125 52.734375 16.796875 39.40625 
Q 19.671875 43.65625 24.015625 45.921875 
Q 28.375 48.1875 33.59375 48.1875 
Q 44.578125 48.1875 50.953125 41.515625 
Q 57.328125 34.859375 57.328125 23.390625 
Q 57.328125 12.15625 50.6875 5.359375 
Q 44.046875 -1.421875 33.015625 -1.421875 
Q 20.359375 -1.421875 13.671875 8.265625 
Q 6.984375 17.96875 6.984375 36.375 
Q 6.984375 53.65625 15.1875 63.9375 
Q 23.390625 74.21875 37.203125 74.21875 
Q 40.921875 74.21875 44.703125 73.484375 
Q 48.484375 72.75 52.59375 71.296875 
" id="BitstreamVeraSans-Roman-36"/>
      </defs>
      <g transform="translate(41.860625 176.96595)scale(0.18 -0.18)">
       <use xlink:href="#BitstreamVeraSans-Roman-30"/>
       <use x="63.623046875" xlink:href="#BitstreamVeraSans-Roman-2e"/>
       <use x="95.41015625" xlink:href="#BitstreamVeraSans-Roman-36"/>
      </g>
     </g>
    </g>
    <g id="ytick_5">
     <g id="line2d_34">
      <path clip-path="url(#pda0811e9b7)" d="M 74.48625 106.42585 
L 539.38125 106.42585 
" style="fill:none;stroke:#000000;stroke-dasharray:1.000000,3.000000;stroke-dashoffset:0.0;stroke-width:2.0;"/>
     </g>
     <g id="line2d_35">
      <g>
       <use style="stroke:#000000;stroke-width:0.5;" x="74.48625" xlink:href="#m0eea0b61de" y="106.42585"/>
      </g>
     </g>
     <g id="line2d_36">
      <g>
       <use style="stroke:#000000;stroke-width:0.5;" x="539.38125" xlink:href="#me3c44b5023" y="106.42585"/>
      </g>
     </g>
     <g id="text_12">
      <!-- 0.8 -->
      <defs>
       <path d="M 31.78125 34.625 
Q 24.75 34.625 20.71875 30.859375 
Q 16.703125 27.09375 16.703125 20.515625 
Q 16.703125 13.921875 20.71875 10.15625 
Q 24.75 6.390625 31.78125 6.390625 
Q 38.8125 6.390625 42.859375 10.171875 
Q 46.921875 13.96875 46.921875 20.515625 
Q 46.921875 27.09375 42.890625 30.859375 
Q 38.875 34.625 31.78125 34.625 
M 21.921875 38.8125 
Q 15.578125 40.375 12.03125 44.71875 
Q 8.5 49.078125 8.5 55.328125 
Q 8.5 64.0625 14.71875 69.140625 
Q 20.953125 74.21875 31.78125 74.21875 
Q 42.671875 74.21875 48.875 69.140625 
Q 55.078125 64.0625 55.078125 55.328125 
Q 55.078125 49.078125 51.53125 44.71875 
Q 48 40.375 41.703125 38.8125 
Q 48.828125 37.15625 52.796875 32.3125 
Q 56.78125 27.484375 56.78125 20.515625 
Q 56.78125 9.90625 50.3125 4.234375 
Q 43.84375 -1.421875 31.78125 -1.421875 
Q 19.734375 -1.421875 13.25 4.234375 
Q 6.78125 9.90625 6.78125 20.515625 
Q 6.78125 27.484375 10.78125 32.3125 
Q 14.796875 37.15625 21.921875 38.8125 
M 18.3125 54.390625 
Q 18.3125 48.734375 21.84375 45.5625 
Q 25.390625 42.390625 31.78125 42.390625 
Q 38.140625 42.390625 41.71875 45.5625 
Q 45.3125 48.734375 45.3125 54.390625 
Q 45.3125 60.0625 41.71875 63.234375 
Q 38.140625 66.40625 31.78125 66.40625 
Q 25.390625 66.40625 21.84375 63.234375 
Q 18.3125 60.0625 18.3125 54.390625 
" id="BitstreamVeraSans-Roman-38"/>
      </defs>
      <g transform="translate(41.860625 111.392725)scale(0.18 -0.18)">
       <use xlink:href="#BitstreamVeraSans-Roman-30"/>
       <use x="63.623046875" xlink:href="#BitstreamVeraSans-Roman-2e"/>
       <use x="95.41015625" xlink:href="#BitstreamVeraSans-Roman-38"/>
      </g>
     </g>
    </g>
    <g id="ytick_6">
     <g id="line2d_37">
      <path clip-path="url(#pda0811e9b7)" d="M 74.48625 40.852625 
L 539.38125 40.852625 
" style="fill:none;stroke:#000000;stroke-dasharray:1.000000,3.000000;stroke-dashoffset:0.0;stroke-width:2.0;"/>
     </g>
     <g id="line2d_38">
      <g>
       <use style="stroke:#000000;stroke-width:0.5;" x="74.48625" xlink:href="#m0eea0b61de" y="40.852625"/>
      </g>
     </g>
     <g id="line2d_39">
      <g>
       <use style="stroke:#000000;stroke-width:0.5;" x="539.38125" xlink:href="#me3c44b5023" y="40.852625"/>
      </g>
     </g>
     <g id="text_13">
      <!-- 1.0 -->
      <g transform="translate(41.860625 45.8195)scale(0.18 -0.18)">
       <use xlink:href="#BitstreamVeraSans-Roman-31"/>
       <use x="63.623046875" xlink:href="#BitstreamVeraSans-Roman-2e"/>
       <use x="95.41015625" xlink:href="#BitstreamVeraSans-Roman-30"/>
      </g>
     </g>
    </g>
    <g id="text_14">
     <!-- Proportion -->
     <defs>
      <path d="M 19.671875 64.796875 
L 19.671875 37.40625 
L 32.078125 37.40625 
Q 38.96875 37.40625 42.71875 40.96875 
Q 46.484375 44.53125 46.484375 51.125 
Q 46.484375 57.671875 42.71875 61.234375 
Q 38.96875 64.796875 32.078125 64.796875 
z
M 9.8125 72.90625 
L 32.078125 72.90625 
Q 44.34375 72.90625 50.609375 67.359375 
Q 56.890625 61.8125 56.890625 51.125 
Q 56.890625 40.328125 50.609375 34.8125 
Q 44.34375 29.296875 32.078125 29.296875 
L 19.671875 29.296875 
L 19.671875 0 
L 9.8125 0 
z
" id="BitstreamVeraSans-Roman-50"/>
      <path d="M 30.609375 48.390625 
Q 23.390625 48.390625 19.1875 42.75 
Q 14.984375 37.109375 14.984375 27.296875 
Q 14.984375 17.484375 19.15625 11.84375 
Q 23.34375 6.203125 30.609375 6.203125 
Q 37.796875 6.203125 41.984375 11.859375 
Q 46.1875 17.53125 46.1875 27.296875 
Q 46.1875 37.015625 41.984375 42.703125 
Q 37.796875 48.390625 30.609375 48.390625 
M 30.609375 56 
Q 42.328125 56 49.015625 48.375 
Q 55.71875 40.765625 55.71875 27.296875 
Q 55.71875 13.875 49.015625 6.21875 
Q 42.328125 -1.421875 30.609375 -1.421875 
Q 18.84375 -1.421875 12.171875 6.21875 
Q 5.515625 13.875 5.515625 27.296875 
Q 5.515625 40.765625 12.171875 48.375 
Q 18.84375 56 30.609375 56 
" id="BitstreamVeraSans-Roman-6f"/>
      <path d="M 18.3125 70.21875 
L 18.3125 54.6875 
L 36.8125 54.6875 
L 36.8125 47.703125 
L 18.3125 47.703125 
L 18.3125 18.015625 
Q 18.3125 11.328125 20.140625 9.421875 
Q 21.96875 7.515625 27.59375 7.515625 
L 36.8125 7.515625 
L 36.8125 0 
L 27.59375 0 
Q 17.1875 0 13.234375 3.875 
Q 9.28125 7.765625 9.28125 18.015625 
L 9.28125 47.703125 
L 2.6875 47.703125 
L 2.6875 54.6875 
L 9.28125 54.6875 
L 9.28125 70.21875 
z
" id="BitstreamVeraSans-Roman-74"/>
     </defs>
     <g transform="translate(33.1171875 251.5744375)rotate(-90.0)scale(0.18 -0.18)">
      <use xlink:href="#BitstreamVeraSans-Roman-50"/>
      <use x="60.287109375" xlink:href="#BitstreamVeraSans-Roman-72"/>
      <use x="101.369140625" xlink:href="#BitstreamVeraSans-Roman-6f"/>
      <use x="162.55078125" xlink:href="#BitstreamVeraSans-Roman-70"/>
      <use x="226.02734375" xlink:href="#BitstreamVeraSans-Roman-6f"/>
      <use x="287.208984375" xlink:href="#BitstreamVeraSans-Roman-72"/>
      <use x="328.322265625" xlink:href="#BitstreamVeraSans-Roman-74"/>
      <use x="367.53125" xlink:href="#BitstreamVeraSans-Roman-69"/>
      <use x="395.314453125" xlink:href="#BitstreamVeraSans-Roman-6f"/>
      <use x="456.49609375" xlink:href="#BitstreamVeraSans-Roman-6e"/>
     </g>
    </g>
   </g>
   <g id="text_15">
    <!-- Track Turn Speed IRQs -->
    <defs>
     <path d="M 9.078125 75.984375 
L 18.109375 75.984375 
L 18.109375 31.109375 
L 44.921875 54.6875 
L 56.390625 54.6875 
L 27.390625 29.109375 
L 57.625 0 
L 45.90625 0 
L 18.109375 26.703125 
L 18.109375 0 
L 9.078125 0 
z
" id="BitstreamVeraSans-Roman-6b"/>
     <path d="M 53.515625 70.515625 
L 53.515625 60.890625 
Q 47.90625 63.578125 42.921875 64.890625 
Q 37.9375 66.21875 33.296875 66.21875 
Q 25.25 66.21875 20.875 63.09375 
Q 16.5 59.96875 16.5 54.203125 
Q 16.5 49.359375 19.40625 46.890625 
Q 22.3125 44.4375 30.421875 42.921875 
L 36.375 41.703125 
Q 47.40625 39.59375 52.65625 34.296875 
Q 57.90625 29 57.90625 20.125 
Q 57.90625 9.515625 50.796875 4.046875 
Q 43.703125 -1.421875 29.984375 -1.421875 
Q 24.8125 -1.421875 18.96875 -0.25 
Q 13.140625 0.921875 6.890625 3.21875 
L 6.890625 13.375 
Q 12.890625 10.015625 18.65625 8.296875 
Q 24.421875 6.59375 29.984375 6.59375 
Q 38.421875 6.59375 43.015625 9.90625 
Q 47.609375 13.234375 47.609375 19.390625 
Q 47.609375 24.75 44.3125 27.78125 
Q 41.015625 30.8125 33.5 32.328125 
L 27.484375 33.5 
Q 16.453125 35.6875 11.515625 40.375 
Q 6.59375 45.0625 6.59375 53.421875 
Q 6.59375 63.09375 13.40625 68.65625 
Q 20.21875 74.21875 32.171875 74.21875 
Q 37.3125 74.21875 42.625 73.28125 
Q 47.953125 72.359375 53.515625 70.515625 
" id="BitstreamVeraSans-Roman-53"/>
     <path d="M 34.28125 27.484375 
Q 23.390625 27.484375 19.1875 25 
Q 14.984375 22.515625 14.984375 16.5 
Q 14.984375 11.71875 18.140625 8.90625 
Q 21.296875 6.109375 26.703125 6.109375 
Q 34.1875 6.109375 38.703125 11.40625 
Q 43.21875 16.703125 43.21875 25.484375 
L 43.21875 27.484375 
z
M 52.203125 31.203125 
L 52.203125 0 
L 43.21875 0 
L 43.21875 8.296875 
Q 40.140625 3.328125 35.546875 0.953125 
Q 30.953125 -1.421875 24.3125 -1.421875 
Q 15.921875 -1.421875 10.953125 3.296875 
Q 6 8.015625 6 15.921875 
Q 6 25.140625 12.171875 29.828125 
Q 18.359375 34.515625 30.609375 34.515625 
L 43.21875 34.515625 
L 43.21875 35.40625 
Q 43.21875 41.609375 39.140625 45 
Q 35.0625 48.390625 27.6875 48.390625 
Q 23 48.390625 18.546875 47.265625 
Q 14.109375 46.140625 10.015625 43.890625 
L 10.015625 52.203125 
Q 14.9375 54.109375 19.578125 55.046875 
Q 24.21875 56 28.609375 56 
Q 40.484375 56 46.34375 49.84375 
Q 52.203125 43.703125 52.203125 31.203125 
" id="BitstreamVeraSans-Roman-61"/>
     <path d="M 48.78125 52.59375 
L 48.78125 44.1875 
Q 44.96875 46.296875 41.140625 47.34375 
Q 37.3125 48.390625 33.40625 48.390625 
Q 24.65625 48.390625 19.8125 42.84375 
Q 14.984375 37.3125 14.984375 27.296875 
Q 14.984375 17.28125 19.8125 11.734375 
Q 24.65625 6.203125 33.40625 6.203125 
Q 37.3125 6.203125 41.140625 7.25 
Q 44.96875 8.296875 48.78125 10.40625 
L 48.78125 2.09375 
Q 45.015625 0.34375 40.984375 -0.53125 
Q 36.96875 -1.421875 32.421875 -1.421875 
Q 20.0625 -1.421875 12.78125 6.34375 
Q 5.515625 14.109375 5.515625 27.296875 
Q 5.515625 40.671875 12.859375 48.328125 
Q 20.21875 56 33.015625 56 
Q 37.15625 56 41.109375 55.140625 
Q 45.0625 54.296875 48.78125 52.59375 
" id="BitstreamVeraSans-Roman-63"/>
    </defs>
    <g transform="translate(183.4374375 35.852625)scale(0.21599999999999997 -0.21599999999999997)">
     <use xlink:href="#BitstreamVeraSans-Roman-54"/>
     <use x="60.865234375" xlink:href="#BitstreamVeraSans-Roman-72"/>
     <use x="101.978515625" xlink:href="#BitstreamVeraSans-Roman-61"/>
     <use x="163.2578125" xlink:href="#BitstreamVeraSans-Roman-63"/>
     <use x="218.23828125" xlink:href="#BitstreamVeraSans-Roman-6b"/>
     <use x="276.1484375" xlink:href="#BitstreamVeraSans-Roman-20"/>
     <use x="307.935546875" xlink:href="#BitstreamVeraSans-Roman-54"/>
     <use x="368.78515625" xlink:href="#BitstreamVeraSans-Roman-75"/>
     <use x="432.1640625" xlink:href="#BitstreamVeraSans-Roman-72"/>
     <use x="473.26171875" xlink:href="#BitstreamVeraSans-Roman-6e"/>
     <use x="536.640625" xlink:href="#BitstreamVeraSans-Roman-20"/>
     <use x="568.427734375" xlink:href="#BitstreamVeraSans-Roman-53"/>
     <use x="631.904296875" xlink:href="#BitstreamVeraSans-Roman-70"/>
     <use x="695.380859375" xlink:href="#BitstreamVeraSans-Roman-65"/>
     <use x="756.904296875" xlink:href="#BitstreamVeraSans-Roman-65"/>
     <use x="818.427734375" xlink:href="#BitstreamVeraSans-Roman-64"/>
     <use x="881.904296875" xlink:href="#BitstreamVeraSans-Roman-20"/>
     <use x="913.69140625" xlink:href="#BitstreamVeraSans-Roman-49"/>
     <use x="943.18359375" xlink:href="#BitstreamVeraSans-Roman-52"/>
     <use x="1012.666015625" xlink:href="#BitstreamVeraSans-Roman-51"/>
     <use x="1091.376953125" xlink:href="#BitstreamVeraSans-Roman-73"/>
    </g>
   </g>
   <g id="legend_1">
    <g id="patch_7">
     <path d="M 353.78325 357.91875 
L 528.58125 357.91875 
L 528.58125 256.3245 
L 353.78325 256.3245 
z
" style="fill:#ffffff;stroke:#000000;stroke-linejoin:miter;"/>
    </g>
    <g id="line2d_40">
     <path d="M 368.90325 273.817125 
L 399.14325 273.817125 
" style="fill:none;stroke:#0000ff;stroke-linecap:square;stroke-width:2.0;"/>
    </g>
    <g id="line2d_41"/>
    <g id="text_16">
     <!-- Levy -->
     <defs>
      <path d="M 2.984375 54.6875 
L 12.5 54.6875 
L 29.59375 8.796875 
L 46.6875 54.6875 
L 56.203125 54.6875 
L 35.6875 0 
L 23.484375 0 
z
" id="BitstreamVeraSans-Roman-76"/>
      <path d="M 32.171875 -5.078125 
Q 28.375 -14.84375 24.75 -17.8125 
Q 21.140625 -20.796875 15.09375 -20.796875 
L 7.90625 -20.796875 
L 7.90625 -13.28125 
L 13.1875 -13.28125 
Q 16.890625 -13.28125 18.9375 -11.515625 
Q 21 -9.765625 23.484375 -3.21875 
L 25.09375 0.875 
L 2.984375 54.6875 
L 12.5 54.6875 
L 29.59375 11.921875 
L 46.6875 54.6875 
L 56.203125 54.6875 
z
" id="BitstreamVeraSans-Roman-79"/>
      <path d="M 9.8125 72.90625 
L 19.671875 72.90625 
L 19.671875 8.296875 
L 55.171875 8.296875 
L 55.171875 0 
L 9.8125 0 
z
" id="BitstreamVeraSans-Roman-4c"/>
     </defs>
     <g transform="translate(422.90325 281.377125)scale(0.21599999999999997 -0.21599999999999997)">
      <use xlink:href="#BitstreamVeraSans-Roman-4c"/>
      <use x="55.697265625" xlink:href="#BitstreamVeraSans-Roman-65"/>
      <use x="117.220703125" xlink:href="#BitstreamVeraSans-Roman-76"/>
      <use x="176.400390625" xlink:href="#BitstreamVeraSans-Roman-79"/>
     </g>
    </g>
    <g id="line2d_42">
     <path d="M 368.90325 305.521875 
L 399.14325 305.521875 
" style="fill:none;stroke:#008000;stroke-linecap:square;stroke-width:2.0;"/>
    </g>
    <g id="line2d_43"/>
    <g id="text_17">
     <!-- CRW -->
     <defs>
      <path d="M 64.40625 67.28125 
L 64.40625 56.890625 
Q 59.421875 61.53125 53.78125 63.8125 
Q 48.140625 66.109375 41.796875 66.109375 
Q 29.296875 66.109375 22.65625 58.46875 
Q 16.015625 50.828125 16.015625 36.375 
Q 16.015625 21.96875 22.65625 14.328125 
Q 29.296875 6.6875 41.796875 6.6875 
Q 48.140625 6.6875 53.78125 8.984375 
Q 59.421875 11.28125 64.40625 15.921875 
L 64.40625 5.609375 
Q 59.234375 2.09375 53.4375 0.328125 
Q 47.65625 -1.421875 41.21875 -1.421875 
Q 24.65625 -1.421875 15.125 8.703125 
Q 5.609375 18.84375 5.609375 36.375 
Q 5.609375 53.953125 15.125 64.078125 
Q 24.65625 74.21875 41.21875 74.21875 
Q 47.75 74.21875 53.53125 72.484375 
Q 59.328125 70.75 64.40625 67.28125 
" id="BitstreamVeraSans-Roman-43"/>
      <path d="M 3.328125 72.90625 
L 13.28125 72.90625 
L 28.609375 11.28125 
L 43.890625 72.90625 
L 54.984375 72.90625 
L 70.3125 11.28125 
L 85.59375 72.90625 
L 95.609375 72.90625 
L 77.296875 0 
L 64.890625 0 
L 49.515625 63.28125 
L 33.984375 0 
L 21.578125 0 
z
" id="BitstreamVeraSans-Roman-57"/>
     </defs>
     <g transform="translate(422.90325 313.081875)scale(0.21599999999999997 -0.21599999999999997)">
      <use xlink:href="#BitstreamVeraSans-Roman-43"/>
      <use x="69.82421875" xlink:href="#BitstreamVeraSans-Roman-52"/>
      <use x="139.244140625" xlink:href="#BitstreamVeraSans-Roman-57"/>
     </g>
    </g>
    <g id="line2d_44">
     <path d="M 368.90325 337.226625 
L 399.14325 337.226625 
" style="fill:none;stroke:#ff0000;stroke-linecap:square;stroke-width:2.0;"/>
    </g>
    <g id="line2d_45"/>
    <g id="text_18">
     <!-- CRW 50s -->
     <g transform="translate(422.90325 344.786625)scale(0.21599999999999997 -0.21599999999999997)">
      <use xlink:href="#BitstreamVeraSans-Roman-43"/>
      <use x="69.82421875" xlink:href="#BitstreamVeraSans-Roman-52"/>
      <use x="139.244140625" xlink:href="#BitstreamVeraSans-Roman-57"/>
      <use x="238.12109375" xlink:href="#BitstreamVeraSans-Roman-20"/>
      <use x="269.908203125" xlink:href="#BitstreamVeraSans-Roman-35"/>
      <use x="333.53125" xlink:href="#BitstreamVeraSans-Roman-30"/>
      <use x="397.154296875" xlink:href="#BitstreamVeraSans-Roman-73"/>
     </g>
    </g>
   </g>
  </g>
 </g>
 <defs>
  <clipPath id="pda0811e9b7">
   <rect height="327.866125" width="464.895" x="74.48625" y="40.852625"/>
  </clipPath>
 </defs>
</svg>
