<?xml version="1.0" encoding="utf-8" standalone="no"?>
<!DOCTYPE svg PUBLIC "-//W3C//DTD SVG 1.1//EN"
  "http://www.w3.org/Graphics/SVG/1.1/DTD/svg11.dtd">
<!-- Created with matplotlib (http://matplotlib.org/) -->
<svg height="432pt" version="1.1" viewBox="0 0 576 432" width="576pt" xmlns="http://www.w3.org/2000/svg" xmlns:xlink="http://www.w3.org/1999/xlink">
 <defs>
  <style type="text/css">
*{stroke-linecap:butt;stroke-linejoin:round;stroke-miterlimit:100000;}
  </style>
 </defs>
 <g id="figure_1">
  <g id="patch_1">
   <path d="M 0 432 
L 576 432 
L 576 0 
L 0 0 
z
" style="fill:#ffffff;"/>
  </g>
  <g id="axes_1">
   <g id="patch_2">
    <path d="M 74.48625 368.71875 
L 539.38125 368.71875 
L 539.38125 40.852625 
L 74.48625 40.852625 
z
" style="fill:#ffffff;"/>
   </g>
   <g id="line2d_1">
    <path clip-path="url(#pd7856cfeea)" d="M 74.486851 368.71875 
L 74.595682 367.13157 
L 74.683549 366.224609 
L 74.927263 362.110897 
L 75.044353 359.875888 
L 75.445863 351.454114 
L 75.573495 348.733233 
L 78.230063 286.89798 
L 78.344327 283.982751 
L 79.828774 250.101308 
L 80.502118 234.974507 
L 80.55785 233.840806 
L 80.823016 227.362519 
L 81.649464 211.393541 
L 81.854409 207.895265 
L 82.009786 204.818079 
L 82.190012 201.643718 
L 82.451486 197.789137 
L 83.163493 186.160611 
L 83.306986 183.925602 
L 83.473029 181.139939 
L 83.859442 175.147523 
L 84.039949 172.620991 
L 84.11802 171.519682 
L 84.278568 169.349455 
L 84.325932 168.895975 
L 84.476341 166.628575 
L 85.396001 155.518312 
L 85.426034 155.162006 
L 85.532153 153.995914 
L 85.599429 153.283303 
L 85.708005 152.117211 
L 85.847578 149.882202 
L 86.024224 148.133064 
L 86.163286 146.319144 
L 86.318052 144.926312 
L 86.711782 140.877382 
L 87.003902 137.735413 
L 87.141396 136.407364 
L 87.186437 136.051058 
L 87.314821 134.787792 
L 87.388668 134.399095 
L 87.525393 133.135829 
L 87.862617 130.576905 
L 87.903501 130.252991 
L 88.013864 129.410814 
L 88.209839 127.434936 
L 88.320488 126.787107 
L 88.481285 125.880147 
L 88.568604 125.426667 
L 88.684954 124.260575 
L 88.771948 123.483181 
L 89.154805 120.600343 
L 89.193217 120.373603 
L 89.378158 119.045554 
L 89.536004 118.106202 
L 89.60191 117.814679 
L 90.087929 113.960098 
L 90.175497 113.506618 
L 90.297782 112.891181 
L 90.696997 109.94356 
L 90.757972 109.619646 
L 90.848924 109.166166 
L 90.943956 108.939426 
L 91.085933 107.967682 
L 91.336204 106.736808 
L 91.372862 106.542459 
L 91.519927 105.732673 
L 91.696803 104.890496 
L 91.815986 104.177884 
L 92.211701 101.748527 
L 92.330731 101.197872 
L 92.408743 100.841566 
L 92.515044 100.193738 
L 92.987464 98.250251 
L 93.047794 97.99112 
L 93.38919 96.598288 
L 93.529518 95.658936 
L 93.573593 95.302631 
L 93.860272 94.330887 
L 93.972198 94.039365 
L 94.106652 93.229579 
L 94.310647 92.419793 
L 94.369378 92.193053 
L 94.759205 89.731303 
L 94.912599 89.277823 
L 95.210094 88.370863 
L 95.323859 88.07934 
L 96.122445 85.390851 
L 96.231861 85.066936 
L 97.695428 80.337787 
L 97.807775 80.046264 
L 97.989256 79.592784 
L 98.25636 78.750606 
L 98.365294 78.523866 
L 98.501222 78.199952 
L 98.654613 77.973212 
L 99.02401 77.454949 
L 99.277927 76.774729 
L 99.411281 76.58038 
L 99.641427 75.997334 
L 99.696228 75.802985 
L 99.824584 75.641028 
L 100.036401 75.252331 
L 100.182164 75.057982 
L 100.285533 74.701677 
L 100.705355 74.053848 
L 100.997769 73.794716 
L 101.197469 73.276453 
L 101.414768 73.114496 
L 101.537386 72.98493 
L 102.189602 71.721664 
L 102.571246 71.268184 
L 102.835384 70.782313 
L 103.154235 70.426007 
L 103.562997 69.778178 
L 103.703602 69.551438 
L 103.939705 69.065567 
L 104.034093 68.838827 
L 104.123977 68.547304 
L 104.287249 68.352955 
L 104.535608 67.931866 
L 105.146595 67.251646 
L 105.376454 67.024906 
L 105.91075 66.085554 
L 106.086881 65.923597 
L 106.205529 65.696857 
L 106.359093 65.502509 
L 106.467985 65.340551 
L 106.67655 65.016637 
L 106.914503 64.822288 
L 107.059865 64.530765 
L 107.1553 64.336417 
L 107.711585 63.882937 
L 108.14391 63.494239 
L 108.201706 63.364674 
L 108.555298 63.105542 
L 108.556305 63.073151 
L 108.737459 62.911194 
L 108.923526 62.652062 
L 111.518152 60.643793 
L 111.991869 60.481836 
L 112.253002 60.255096 
L 112.604728 60.028356 
L 113.11122 59.607267 
L 113.208907 59.477701 
L 113.419957 59.283353 
L 113.669895 59.089004 
L 114.496779 58.603132 
L 114.843385 58.441175 
L 115.422039 58.084869 
L 115.599445 57.890521 
L 115.827492 57.760955 
L 116.541572 57.210301 
L 117.057075 57.015952 
L 118.036954 56.141383 
L 118.686746 55.979426 
L 118.863095 55.882252 
L 119.435839 55.655512 
L 119.450997 55.590729 
L 120.040232 55.39638 
L 120.185364 55.266814 
L 120.685934 55.072466 
L 121.420902 54.780943 
L 122.283571 54.521811 
L 122.829878 54.26268 
L 122.829878 54.230288 
L 123.661899 53.971157 
L 123.668046 53.906374 
L 124.544056 53.679634 
L 125.006885 53.452894 
L 126.377375 52.934631 
L 126.40963 52.90224 
L 126.903469 52.772674 
L 126.948895 52.675499 
L 127.563885 52.481151 
L 128.614025 52.124845 
L 128.718626 52.027671 
L 130.409986 51.509408 
L 130.48411 51.379842 
L 131.553517 51.185493 
L 132.413434 50.796796 
L 133.312971 50.570056 
L 135.067117 50.343316 
L 135.082497 50.310925 
L 135.750351 50.116576 
L 135.894512 49.98701 
L 137.139294 49.825053 
L 137.196493 49.76027 
L 137.456543 49.630704 
L 137.456543 49.598313 
L 138.675123 49.436356 
L 139.769551 49.242007 
L 140.292219 48.982876 
L 140.76556 48.85331 
L 143.491736 48.432221 
L 144.702878 48.205481 
L 146.123746 48.011133 
L 146.219026 47.978741 
L 147.178084 47.816784 
L 147.279507 47.752001 
L 147.48727 47.654827 
L 148.99296 47.49287 
L 149.067442 47.460478 
L 150.684928 47.233738 
L 150.754978 47.201347 
L 157.933749 46.521126 
L 158.280667 46.423952 
L 163.039078 46.002863 
L 163.490114 45.938081 
L 165.865833 45.711341 
L 166.061417 45.581775 
L 167.800876 45.387426 
L 168.404696 45.25786 
L 179.088761 44.610032 
L 179.092598 44.57764 
L 187.322416 44.091769 
L 188.145703 43.929812 
L 192.807494 43.67068 
L 193.034004 43.605897 
L 197.825053 43.346766 
L 198.191663 43.314374 
L 207.750706 43.055243 
L 208.321413 42.99046 
L 214.12211 42.76372 
L 215.086415 42.698937 
L 219.894503 42.504588 
L 219.925827 42.472197 
L 220.186643 42.439805 
L 237.206205 42.148282 
L 246.076122 41.986325 
L 246.297423 41.953934 
L 264.425147 41.597628 
L 270.954373 41.468062 
L 282.973377 41.306105 
L 291.879609 41.208931 
L 303.650972 41.111756 
L 503.2586 40.852625 
L 503.2586 40.852625 
" style="fill:none;stroke:#0000ff;stroke-linecap:square;stroke-width:2.0;"/>
   </g>
   <g id="line2d_2">
    <path clip-path="url(#pd7856cfeea)" d="M 74.48625 368.71875 
L 74.594352 365.31841 
L 74.653415 363.651577 
L 74.772982 359.551166 
L 74.901533 355.31741 
L 75.009853 351.283673 
L 75.051472 349.983543 
L 75.19359 345.216399 
L 75.35624 339.049116 
L 75.402592 337.282273 
L 75.896366 320.880632 
L 76.016868 317.613639 
L 76.05746 316.813559 
L 76.117063 315.280072 
L 76.335085 307.812658 
L 76.362355 307.079252 
L 76.485663 302.912168 
L 76.746046 295.111388 
L 76.836283 292.677811 
L 77.189325 280.643274 
L 77.214021 280.043214 
L 77.398584 273.242534 
L 78.196224 243.939603 
L 78.24735 242.17276 
L 78.933079 221.637373 
L 79.023719 219.203796 
L 79.140097 215.936803 
L 80.52672 177.132922 
L 80.563784 176.299505 
L 80.645057 173.732582 
L 80.775755 167.998675 
L 80.838525 166.198495 
L 80.959464 163.631571 
L 81.112493 159.264468 
L 81.268468 155.430751 
L 81.446098 150.796954 
L 81.506995 149.163458 
L 81.789939 142.196094 
L 81.82734 141.362678 
L 81.973108 138.562397 
L 82.692415 123.02751 
L 82.765693 121.760717 
L 82.883752 119.093784 
L 83.404519 110.62627 
L 83.520081 108.659407 
L 83.845757 104.62567 
L 83.910579 103.192193 
L 84.047394 101.22533 
L 84.263994 98.891763 
L 84.620129 94.691343 
L 84.697859 93.891263 
L 84.837273 91.957736 
L 84.885652 91.591033 
L 84.960585 90.82429 
L 86.799677 72.322439 
L 86.859509 72.022409 
L 86.998063 70.988972 
L 87.20237 69.322139 
L 87.591716 65.888462 
L 87.707752 65.288402 
L 87.743592 64.921699 
L 87.957942 63.654906 
L 88.144106 62.721479 
L 88.295357 61.688042 
L 88.498605 60.387912 
L 88.658026 59.587832 
L 88.739503 59.187792 
L 88.883346 58.454385 
L 88.976941 57.854325 
L 89.131445 57.020909 
L 89.611724 55.220729 
L 89.741731 54.754015 
L 89.85599 54.553995 
L 90.114405 53.787252 
L 90.231035 53.320539 
L 90.541649 52.587132 
L 90.6474 52.153755 
L 90.734684 51.887062 
L 90.868081 51.320339 
L 93.138094 46.853225 
L 93.343047 46.486522 
L 93.49365 46.219828 
L 94.703542 44.819688 
L 94.817389 44.686342 
L 95.139194 44.452985 
L 95.296502 44.219628 
L 95.660268 44.019608 
L 98.114509 42.719478 
L 99.683704 42.352775 
L 100.235559 42.119418 
L 103.542187 41.619368 
L 103.648742 41.486022 
L 107.897555 40.952635 
L 113.2275 40.852625 
L 113.2275 40.852625 
" style="fill:none;stroke:#008000;stroke-linecap:square;stroke-width:2.0;"/>
   </g>
   <g id="line2d_3">
    <path clip-path="url(#pd7856cfeea)" d="M 74.48625 368.71875 
L 74.596341 359.002524 
L 74.763448 351.847164 
L 74.87318 346.122876 
L 75.060606 336.933888 
L 75.25939 328.272136 
L 75.354973 325.409992 
L 75.468002 317.652076 
L 75.578005 308.387768 
L 75.668771 302.362201 
L 75.784165 297.541748 
L 75.889812 293.399172 
L 77.461584 231.411158 
L 77.66995 225.008994 
L 77.816808 220.188541 
L 77.948595 216.422562 
L 78.099654 210.924233 
L 78.547167 192.772215 
L 78.687917 186.897288 
L 78.725314 185.466216 
L 79.172707 171.306135 
L 79.229388 169.498465 
L 79.898121 148.559622 
L 79.98898 146.676633 
L 80.102186 143.66385 
L 81.98807 101.334246 
L 82.172061 96.589113 
L 82.257601 95.30868 
L 82.382184 92.973773 
L 82.563417 90.563547 
L 82.769572 87.776722 
L 82.819613 86.797568 
L 83.489736 75.273672 
L 83.624544 72.11025 
L 83.81067 69.398745 
L 83.980264 67.817034 
L 84.027994 67.365117 
L 84.600902 61.113592 
L 84.755647 60.134437 
L 84.866639 59.230602 
L 85.08808 58.025489 
L 85.215609 57.347613 
L 85.560445 55.313984 
L 85.683672 54.862067 
L 85.804114 53.882912 
L 86.135972 52.52716 
L 86.332636 51.397366 
L 88.277716 47.254789 
L 88.443853 47.02883 
L 88.868934 45.748398 
L 88.934282 45.522439 
L 89.129501 44.769243 
L 89.285671 44.166686 
L 89.593221 44.016047 
L 89.71752 43.714769 
L 89.950636 43.56413 
L 90.106751 43.338171 
L 90.193057 43.187532 
L 90.561787 43.036893 
L 90.79631 42.660295 
L 91.316594 42.283697 
L 91.635048 42.057738 
L 92.709274 41.455182 
L 93.379682 41.304542 
L 93.920456 41.078584 
L 97.731 40.852625 
L 97.731 40.852625 
" style="fill:none;stroke:#ff0000;stroke-linecap:square;stroke-width:2.0;"/>
   </g>
   <g id="patch_3">
    <path d="M 539.38125 368.71875 
L 539.38125 40.852625 
" style="fill:none;stroke:#000000;stroke-linecap:square;stroke-linejoin:miter;stroke-width:2.0;"/>
   </g>
   <g id="patch_4">
    <path d="M 74.48625 368.71875 
L 539.38125 368.71875 
" style="fill:none;stroke:#000000;stroke-linecap:square;stroke-linejoin:miter;stroke-width:2.0;"/>
   </g>
   <g id="patch_5">
    <path d="M 74.48625 40.852625 
L 539.38125 40.852625 
" style="fill:none;stroke:#000000;stroke-linecap:square;stroke-linejoin:miter;stroke-width:2.0;"/>
   </g>
   <g id="patch_6">
    <path d="M 74.48625 368.71875 
L 74.48625 40.852625 
" style="fill:none;stroke:#000000;stroke-linecap:square;stroke-linejoin:miter;stroke-width:2.0;"/>
   </g>
   <g id="matplotlib.axis_1">
    <g id="xtick_1">
     <g id="line2d_4">
      <path clip-path="url(#pd7856cfeea)" d="M 74.48625 368.71875 
L 74.48625 40.852625 
" style="fill:none;stroke:#000000;stroke-dasharray:1.000000,3.000000;stroke-dashoffset:0.0;stroke-width:2.0;"/>
     </g>
     <g id="line2d_5">
      <defs>
       <path d="M 0 0 
L 0 -4 
" id="m463ab234e7" style="stroke:#000000;stroke-width:0.5;"/>
      </defs>
      <g>
       <use style="stroke:#000000;stroke-width:0.5;" x="74.48625" xlink:href="#m463ab234e7" y="368.71875"/>
      </g>
     </g>
     <g id="line2d_6">
      <defs>
       <path d="M 0 0 
L 0 4 
" id="mbea5dc96f0" style="stroke:#000000;stroke-width:0.5;"/>
      </defs>
      <g>
       <use style="stroke:#000000;stroke-width:0.5;" x="74.48625" xlink:href="#mbea5dc96f0" y="40.852625"/>
      </g>
     </g>
     <g id="text_1">
      <!-- 0 -->
      <defs>
       <path d="M 31.78125 66.40625 
Q 24.171875 66.40625 20.328125 58.90625 
Q 16.5 51.421875 16.5 36.375 
Q 16.5 21.390625 20.328125 13.890625 
Q 24.171875 6.390625 31.78125 6.390625 
Q 39.453125 6.390625 43.28125 13.890625 
Q 47.125 21.390625 47.125 36.375 
Q 47.125 51.421875 43.28125 58.90625 
Q 39.453125 66.40625 31.78125 66.40625 
M 31.78125 74.21875 
Q 44.046875 74.21875 50.515625 64.515625 
Q 56.984375 54.828125 56.984375 36.375 
Q 56.984375 17.96875 50.515625 8.265625 
Q 44.046875 -1.421875 31.78125 -1.421875 
Q 19.53125 -1.421875 13.0625 8.265625 
Q 6.59375 17.96875 6.59375 36.375 
Q 6.59375 54.828125 13.0625 64.515625 
Q 19.53125 74.21875 31.78125 74.21875 
" id="BitstreamVeraSans-Roman-30"/>
      </defs>
      <g transform="translate(68.76 386.3959375)scale(0.18 -0.18)">
       <use xlink:href="#BitstreamVeraSans-Roman-30"/>
      </g>
     </g>
    </g>
    <g id="xtick_2">
     <g id="line2d_7">
      <path clip-path="url(#pd7856cfeea)" d="M 151.96875 368.71875 
L 151.96875 40.852625 
" style="fill:none;stroke:#000000;stroke-dasharray:1.000000,3.000000;stroke-dashoffset:0.0;stroke-width:2.0;"/>
     </g>
     <g id="line2d_8">
      <g>
       <use style="stroke:#000000;stroke-width:0.5;" x="151.96875" xlink:href="#m463ab234e7" y="368.71875"/>
      </g>
     </g>
     <g id="line2d_9">
      <g>
       <use style="stroke:#000000;stroke-width:0.5;" x="151.96875" xlink:href="#mbea5dc96f0" y="40.852625"/>
      </g>
     </g>
     <g id="text_2">
      <!-- 50 -->
      <defs>
       <path d="M 10.796875 72.90625 
L 49.515625 72.90625 
L 49.515625 64.59375 
L 19.828125 64.59375 
L 19.828125 46.734375 
Q 21.96875 47.46875 24.109375 47.828125 
Q 26.265625 48.1875 28.421875 48.1875 
Q 40.625 48.1875 47.75 41.5 
Q 54.890625 34.8125 54.890625 23.390625 
Q 54.890625 11.625 47.5625 5.09375 
Q 40.234375 -1.421875 26.90625 -1.421875 
Q 22.3125 -1.421875 17.546875 -0.640625 
Q 12.796875 0.140625 7.71875 1.703125 
L 7.71875 11.625 
Q 12.109375 9.234375 16.796875 8.0625 
Q 21.484375 6.890625 26.703125 6.890625 
Q 35.15625 6.890625 40.078125 11.328125 
Q 45.015625 15.765625 45.015625 23.390625 
Q 45.015625 31 40.078125 35.4375 
Q 35.15625 39.890625 26.703125 39.890625 
Q 22.75 39.890625 18.8125 39.015625 
Q 14.890625 38.140625 10.796875 36.28125 
z
" id="BitstreamVeraSans-Roman-35"/>
      </defs>
      <g transform="translate(140.51625 386.3959375)scale(0.18 -0.18)">
       <use xlink:href="#BitstreamVeraSans-Roman-35"/>
       <use x="63.623046875" xlink:href="#BitstreamVeraSans-Roman-30"/>
      </g>
     </g>
    </g>
    <g id="xtick_3">
     <g id="line2d_10">
      <path clip-path="url(#pd7856cfeea)" d="M 229.45125 368.71875 
L 229.45125 40.852625 
" style="fill:none;stroke:#000000;stroke-dasharray:1.000000,3.000000;stroke-dashoffset:0.0;stroke-width:2.0;"/>
     </g>
     <g id="line2d_11">
      <g>
       <use style="stroke:#000000;stroke-width:0.5;" x="229.45125" xlink:href="#m463ab234e7" y="368.71875"/>
      </g>
     </g>
     <g id="line2d_12">
      <g>
       <use style="stroke:#000000;stroke-width:0.5;" x="229.45125" xlink:href="#mbea5dc96f0" y="40.852625"/>
      </g>
     </g>
     <g id="text_3">
      <!-- 100 -->
      <defs>
       <path d="M 12.40625 8.296875 
L 28.515625 8.296875 
L 28.515625 63.921875 
L 10.984375 60.40625 
L 10.984375 69.390625 
L 28.421875 72.90625 
L 38.28125 72.90625 
L 38.28125 8.296875 
L 54.390625 8.296875 
L 54.390625 0 
L 12.40625 0 
z
" id="BitstreamVeraSans-Roman-31"/>
      </defs>
      <g transform="translate(212.2725 386.3959375)scale(0.18 -0.18)">
       <use xlink:href="#BitstreamVeraSans-Roman-31"/>
       <use x="63.623046875" xlink:href="#BitstreamVeraSans-Roman-30"/>
       <use x="127.24609375" xlink:href="#BitstreamVeraSans-Roman-30"/>
      </g>
     </g>
    </g>
    <g id="xtick_4">
     <g id="line2d_13">
      <path clip-path="url(#pd7856cfeea)" d="M 306.93375 368.71875 
L 306.93375 40.852625 
" style="fill:none;stroke:#000000;stroke-dasharray:1.000000,3.000000;stroke-dashoffset:0.0;stroke-width:2.0;"/>
     </g>
     <g id="line2d_14">
      <g>
       <use style="stroke:#000000;stroke-width:0.5;" x="306.93375" xlink:href="#m463ab234e7" y="368.71875"/>
      </g>
     </g>
     <g id="line2d_15">
      <g>
       <use style="stroke:#000000;stroke-width:0.5;" x="306.93375" xlink:href="#mbea5dc96f0" y="40.852625"/>
      </g>
     </g>
     <g id="text_4">
      <!-- 150 -->
      <g transform="translate(289.755 386.3959375)scale(0.18 -0.18)">
       <use xlink:href="#BitstreamVeraSans-Roman-31"/>
       <use x="63.623046875" xlink:href="#BitstreamVeraSans-Roman-35"/>
       <use x="127.24609375" xlink:href="#BitstreamVeraSans-Roman-30"/>
      </g>
     </g>
    </g>
    <g id="xtick_5">
     <g id="line2d_16">
      <path clip-path="url(#pd7856cfeea)" d="M 384.41625 368.71875 
L 384.41625 40.852625 
" style="fill:none;stroke:#000000;stroke-dasharray:1.000000,3.000000;stroke-dashoffset:0.0;stroke-width:2.0;"/>
     </g>
     <g id="line2d_17">
      <g>
       <use style="stroke:#000000;stroke-width:0.5;" x="384.41625" xlink:href="#m463ab234e7" y="368.71875"/>
      </g>
     </g>
     <g id="line2d_18">
      <g>
       <use style="stroke:#000000;stroke-width:0.5;" x="384.41625" xlink:href="#mbea5dc96f0" y="40.852625"/>
      </g>
     </g>
     <g id="text_5">
      <!-- 200 -->
      <defs>
       <path d="M 19.1875 8.296875 
L 53.609375 8.296875 
L 53.609375 0 
L 7.328125 0 
L 7.328125 8.296875 
Q 12.9375 14.109375 22.625 23.890625 
Q 32.328125 33.6875 34.8125 36.53125 
Q 39.546875 41.84375 41.421875 45.53125 
Q 43.3125 49.21875 43.3125 52.78125 
Q 43.3125 58.59375 39.234375 62.25 
Q 35.15625 65.921875 28.609375 65.921875 
Q 23.96875 65.921875 18.8125 64.3125 
Q 13.671875 62.703125 7.8125 59.421875 
L 7.8125 69.390625 
Q 13.765625 71.78125 18.9375 73 
Q 24.125 74.21875 28.421875 74.21875 
Q 39.75 74.21875 46.484375 68.546875 
Q 53.21875 62.890625 53.21875 53.421875 
Q 53.21875 48.921875 51.53125 44.890625 
Q 49.859375 40.875 45.40625 35.40625 
Q 44.1875 33.984375 37.640625 27.21875 
Q 31.109375 20.453125 19.1875 8.296875 
" id="BitstreamVeraSans-Roman-32"/>
      </defs>
      <g transform="translate(367.2375 386.3959375)scale(0.18 -0.18)">
       <use xlink:href="#BitstreamVeraSans-Roman-32"/>
       <use x="63.623046875" xlink:href="#BitstreamVeraSans-Roman-30"/>
       <use x="127.24609375" xlink:href="#BitstreamVeraSans-Roman-30"/>
      </g>
     </g>
    </g>
    <g id="xtick_6">
     <g id="line2d_19">
      <path clip-path="url(#pd7856cfeea)" d="M 461.89875 368.71875 
L 461.89875 40.852625 
" style="fill:none;stroke:#000000;stroke-dasharray:1.000000,3.000000;stroke-dashoffset:0.0;stroke-width:2.0;"/>
     </g>
     <g id="line2d_20">
      <g>
       <use style="stroke:#000000;stroke-width:0.5;" x="461.89875" xlink:href="#m463ab234e7" y="368.71875"/>
      </g>
     </g>
     <g id="line2d_21">
      <g>
       <use style="stroke:#000000;stroke-width:0.5;" x="461.89875" xlink:href="#mbea5dc96f0" y="40.852625"/>
      </g>
     </g>
     <g id="text_6">
      <!-- 250 -->
      <g transform="translate(444.72 386.3959375)scale(0.18 -0.18)">
       <use xlink:href="#BitstreamVeraSans-Roman-32"/>
       <use x="63.623046875" xlink:href="#BitstreamVeraSans-Roman-35"/>
       <use x="127.24609375" xlink:href="#BitstreamVeraSans-Roman-30"/>
      </g>
     </g>
    </g>
    <g id="xtick_7">
     <g id="line2d_22">
      <path clip-path="url(#pd7856cfeea)" d="M 539.38125 368.71875 
L 539.38125 40.852625 
" style="fill:none;stroke:#000000;stroke-dasharray:1.000000,3.000000;stroke-dashoffset:0.0;stroke-width:2.0;"/>
     </g>
     <g id="line2d_23">
      <g>
       <use style="stroke:#000000;stroke-width:0.5;" x="539.38125" xlink:href="#m463ab234e7" y="368.71875"/>
      </g>
     </g>
     <g id="line2d_24">
      <g>
       <use style="stroke:#000000;stroke-width:0.5;" x="539.38125" xlink:href="#mbea5dc96f0" y="40.852625"/>
      </g>
     </g>
     <g id="text_7">
      <!-- 300 -->
      <defs>
       <path d="M 40.578125 39.3125 
Q 47.65625 37.796875 51.625 33 
Q 55.609375 28.21875 55.609375 21.1875 
Q 55.609375 10.40625 48.1875 4.484375 
Q 40.765625 -1.421875 27.09375 -1.421875 
Q 22.515625 -1.421875 17.65625 -0.515625 
Q 12.796875 0.390625 7.625 2.203125 
L 7.625 11.71875 
Q 11.71875 9.328125 16.59375 8.109375 
Q 21.484375 6.890625 26.8125 6.890625 
Q 36.078125 6.890625 40.9375 10.546875 
Q 45.796875 14.203125 45.796875 21.1875 
Q 45.796875 27.640625 41.28125 31.265625 
Q 36.765625 34.90625 28.71875 34.90625 
L 20.21875 34.90625 
L 20.21875 43.015625 
L 29.109375 43.015625 
Q 36.375 43.015625 40.234375 45.921875 
Q 44.09375 48.828125 44.09375 54.296875 
Q 44.09375 59.90625 40.109375 62.90625 
Q 36.140625 65.921875 28.71875 65.921875 
Q 24.65625 65.921875 20.015625 65.03125 
Q 15.375 64.15625 9.8125 62.3125 
L 9.8125 71.09375 
Q 15.4375 72.65625 20.34375 73.4375 
Q 25.25 74.21875 29.59375 74.21875 
Q 40.828125 74.21875 47.359375 69.109375 
Q 53.90625 64.015625 53.90625 55.328125 
Q 53.90625 49.265625 50.4375 45.09375 
Q 46.96875 40.921875 40.578125 39.3125 
" id="BitstreamVeraSans-Roman-33"/>
      </defs>
      <g transform="translate(522.2025 386.3959375)scale(0.18 -0.18)">
       <use xlink:href="#BitstreamVeraSans-Roman-33"/>
       <use x="63.623046875" xlink:href="#BitstreamVeraSans-Roman-30"/>
       <use x="127.24609375" xlink:href="#BitstreamVeraSans-Roman-30"/>
      </g>
     </g>
    </g>
    <g id="text_8">
     <!-- Translation speed (um/min) -->
     <defs>
      <path d="M 9.421875 75.984375 
L 18.40625 75.984375 
L 18.40625 0 
L 9.421875 0 
z
" id="BitstreamVeraSans-Roman-6c"/>
      <path d="M 8.5 21.578125 
L 8.5 54.6875 
L 17.484375 54.6875 
L 17.484375 21.921875 
Q 17.484375 14.15625 20.5 10.265625 
Q 23.53125 6.390625 29.59375 6.390625 
Q 36.859375 6.390625 41.078125 11.03125 
Q 45.3125 15.671875 45.3125 23.6875 
L 45.3125 54.6875 
L 54.296875 54.6875 
L 54.296875 0 
L 45.3125 0 
L 45.3125 8.40625 
Q 42.046875 3.421875 37.71875 1 
Q 33.40625 -1.421875 27.6875 -1.421875 
Q 18.265625 -1.421875 13.375 4.4375 
Q 8.5 10.296875 8.5 21.578125 
" id="BitstreamVeraSans-Roman-75"/>
      <path d="M -0.296875 72.90625 
L 61.375 72.90625 
L 61.375 64.59375 
L 35.5 64.59375 
L 35.5 0 
L 25.59375 0 
L 25.59375 64.59375 
L -0.296875 64.59375 
z
" id="BitstreamVeraSans-Roman-54"/>
      <path d="M 25.390625 72.90625 
L 33.6875 72.90625 
L 8.296875 -9.28125 
L 0 -9.28125 
z
" id="BitstreamVeraSans-Roman-2f"/>
      <path d="M 18.3125 70.21875 
L 18.3125 54.6875 
L 36.8125 54.6875 
L 36.8125 47.703125 
L 18.3125 47.703125 
L 18.3125 18.015625 
Q 18.3125 11.328125 20.140625 9.421875 
Q 21.96875 7.515625 27.59375 7.515625 
L 36.8125 7.515625 
L 36.8125 0 
L 27.59375 0 
Q 17.1875 0 13.234375 3.875 
Q 9.28125 7.765625 9.28125 18.015625 
L 9.28125 47.703125 
L 2.6875 47.703125 
L 2.6875 54.6875 
L 9.28125 54.6875 
L 9.28125 70.21875 
z
" id="BitstreamVeraSans-Roman-74"/>
      <path d="M 34.28125 27.484375 
Q 23.390625 27.484375 19.1875 25 
Q 14.984375 22.515625 14.984375 16.5 
Q 14.984375 11.71875 18.140625 8.90625 
Q 21.296875 6.109375 26.703125 6.109375 
Q 34.1875 6.109375 38.703125 11.40625 
Q 43.21875 16.703125 43.21875 25.484375 
L 43.21875 27.484375 
z
M 52.203125 31.203125 
L 52.203125 0 
L 43.21875 0 
L 43.21875 8.296875 
Q 40.140625 3.328125 35.546875 0.953125 
Q 30.953125 -1.421875 24.3125 -1.421875 
Q 15.921875 -1.421875 10.953125 3.296875 
Q 6 8.015625 6 15.921875 
Q 6 25.140625 12.171875 29.828125 
Q 18.359375 34.515625 30.609375 34.515625 
L 43.21875 34.515625 
L 43.21875 35.40625 
Q 43.21875 41.609375 39.140625 45 
Q 35.0625 48.390625 27.6875 48.390625 
Q 23 48.390625 18.546875 47.265625 
Q 14.109375 46.140625 10.015625 43.890625 
L 10.015625 52.203125 
Q 14.9375 54.109375 19.578125 55.046875 
Q 24.21875 56 28.609375 56 
Q 40.484375 56 46.34375 49.84375 
Q 52.203125 43.703125 52.203125 31.203125 
" id="BitstreamVeraSans-Roman-61"/>
      <path d="M 8.015625 75.875 
L 15.828125 75.875 
Q 23.140625 64.359375 26.78125 53.3125 
Q 30.421875 42.28125 30.421875 31.390625 
Q 30.421875 20.453125 26.78125 9.375 
Q 23.140625 -1.703125 15.828125 -13.1875 
L 8.015625 -13.1875 
Q 14.5 -2 17.703125 9.0625 
Q 20.90625 20.125 20.90625 31.390625 
Q 20.90625 42.671875 17.703125 53.65625 
Q 14.5 64.65625 8.015625 75.875 
" id="BitstreamVeraSans-Roman-29"/>
      <path d="M 45.40625 46.390625 
L 45.40625 75.984375 
L 54.390625 75.984375 
L 54.390625 0 
L 45.40625 0 
L 45.40625 8.203125 
Q 42.578125 3.328125 38.25 0.953125 
Q 33.9375 -1.421875 27.875 -1.421875 
Q 17.96875 -1.421875 11.734375 6.484375 
Q 5.515625 14.40625 5.515625 27.296875 
Q 5.515625 40.1875 11.734375 48.09375 
Q 17.96875 56 27.875 56 
Q 33.9375 56 38.25 53.625 
Q 42.578125 51.265625 45.40625 46.390625 
M 14.796875 27.296875 
Q 14.796875 17.390625 18.875 11.75 
Q 22.953125 6.109375 30.078125 6.109375 
Q 37.203125 6.109375 41.296875 11.75 
Q 45.40625 17.390625 45.40625 27.296875 
Q 45.40625 37.203125 41.296875 42.84375 
Q 37.203125 48.484375 30.078125 48.484375 
Q 22.953125 48.484375 18.875 42.84375 
Q 14.796875 37.203125 14.796875 27.296875 
" id="BitstreamVeraSans-Roman-64"/>
      <path d="M 31 75.875 
Q 24.46875 64.65625 21.28125 53.65625 
Q 18.109375 42.671875 18.109375 31.390625 
Q 18.109375 20.125 21.3125 9.0625 
Q 24.515625 -2 31 -13.1875 
L 23.1875 -13.1875 
Q 15.875 -1.703125 12.234375 9.375 
Q 8.59375 20.453125 8.59375 31.390625 
Q 8.59375 42.28125 12.203125 53.3125 
Q 15.828125 64.359375 23.1875 75.875 
z
" id="BitstreamVeraSans-Roman-28"/>
      <path id="BitstreamVeraSans-Roman-20"/>
      <path d="M 54.890625 33.015625 
L 54.890625 0 
L 45.90625 0 
L 45.90625 32.71875 
Q 45.90625 40.484375 42.875 44.328125 
Q 39.84375 48.1875 33.796875 48.1875 
Q 26.515625 48.1875 22.3125 43.546875 
Q 18.109375 38.921875 18.109375 30.90625 
L 18.109375 0 
L 9.078125 0 
L 9.078125 54.6875 
L 18.109375 54.6875 
L 18.109375 46.1875 
Q 21.34375 51.125 25.703125 53.5625 
Q 30.078125 56 35.796875 56 
Q 45.21875 56 50.046875 50.171875 
Q 54.890625 44.34375 54.890625 33.015625 
" id="BitstreamVeraSans-Roman-6e"/>
      <path d="M 52 44.1875 
Q 55.375 50.25 60.0625 53.125 
Q 64.75 56 71.09375 56 
Q 79.640625 56 84.28125 50.015625 
Q 88.921875 44.046875 88.921875 33.015625 
L 88.921875 0 
L 79.890625 0 
L 79.890625 32.71875 
Q 79.890625 40.578125 77.09375 44.375 
Q 74.3125 48.1875 68.609375 48.1875 
Q 61.625 48.1875 57.5625 43.546875 
Q 53.515625 38.921875 53.515625 30.90625 
L 53.515625 0 
L 44.484375 0 
L 44.484375 32.71875 
Q 44.484375 40.625 41.703125 44.40625 
Q 38.921875 48.1875 33.109375 48.1875 
Q 26.21875 48.1875 22.15625 43.53125 
Q 18.109375 38.875 18.109375 30.90625 
L 18.109375 0 
L 9.078125 0 
L 9.078125 54.6875 
L 18.109375 54.6875 
L 18.109375 46.1875 
Q 21.1875 51.21875 25.484375 53.609375 
Q 29.78125 56 35.6875 56 
Q 41.65625 56 45.828125 52.96875 
Q 50 49.953125 52 44.1875 
" id="BitstreamVeraSans-Roman-6d"/>
      <path d="M 41.109375 46.296875 
Q 39.59375 47.171875 37.8125 47.578125 
Q 36.03125 48 33.890625 48 
Q 26.265625 48 22.1875 43.046875 
Q 18.109375 38.09375 18.109375 28.8125 
L 18.109375 0 
L 9.078125 0 
L 9.078125 54.6875 
L 18.109375 54.6875 
L 18.109375 46.1875 
Q 20.953125 51.171875 25.484375 53.578125 
Q 30.03125 56 36.53125 56 
Q 37.453125 56 38.578125 55.875 
Q 39.703125 55.765625 41.0625 55.515625 
z
" id="BitstreamVeraSans-Roman-72"/>
      <path d="M 9.421875 54.6875 
L 18.40625 54.6875 
L 18.40625 0 
L 9.421875 0 
z
M 9.421875 75.984375 
L 18.40625 75.984375 
L 18.40625 64.59375 
L 9.421875 64.59375 
z
" id="BitstreamVeraSans-Roman-69"/>
      <path d="M 56.203125 29.59375 
L 56.203125 25.203125 
L 14.890625 25.203125 
Q 15.484375 15.921875 20.484375 11.0625 
Q 25.484375 6.203125 34.421875 6.203125 
Q 39.59375 6.203125 44.453125 7.46875 
Q 49.3125 8.734375 54.109375 11.28125 
L 54.109375 2.78125 
Q 49.265625 0.734375 44.1875 -0.34375 
Q 39.109375 -1.421875 33.890625 -1.421875 
Q 20.796875 -1.421875 13.15625 6.1875 
Q 5.515625 13.8125 5.515625 26.8125 
Q 5.515625 40.234375 12.765625 48.109375 
Q 20.015625 56 32.328125 56 
Q 43.359375 56 49.78125 48.890625 
Q 56.203125 41.796875 56.203125 29.59375 
M 47.21875 32.234375 
Q 47.125 39.59375 43.09375 43.984375 
Q 39.0625 48.390625 32.421875 48.390625 
Q 24.90625 48.390625 20.390625 44.140625 
Q 15.875 39.890625 15.1875 32.171875 
z
" id="BitstreamVeraSans-Roman-65"/>
      <path d="M 18.109375 8.203125 
L 18.109375 -20.796875 
L 9.078125 -20.796875 
L 9.078125 54.6875 
L 18.109375 54.6875 
L 18.109375 46.390625 
Q 20.953125 51.265625 25.265625 53.625 
Q 29.59375 56 35.59375 56 
Q 45.5625 56 51.78125 48.09375 
Q 58.015625 40.1875 58.015625 27.296875 
Q 58.015625 14.40625 51.78125 6.484375 
Q 45.5625 -1.421875 35.59375 -1.421875 
Q 29.59375 -1.421875 25.265625 0.953125 
Q 20.953125 3.328125 18.109375 8.203125 
M 48.6875 27.296875 
Q 48.6875 37.203125 44.609375 42.84375 
Q 40.53125 48.484375 33.40625 48.484375 
Q 26.265625 48.484375 22.1875 42.84375 
Q 18.109375 37.203125 18.109375 27.296875 
Q 18.109375 17.390625 22.1875 11.75 
Q 26.265625 6.109375 33.40625 6.109375 
Q 40.53125 6.109375 44.609375 11.75 
Q 48.6875 17.390625 48.6875 27.296875 
" id="BitstreamVeraSans-Roman-70"/>
      <path d="M 30.609375 48.390625 
Q 23.390625 48.390625 19.1875 42.75 
Q 14.984375 37.109375 14.984375 27.296875 
Q 14.984375 17.484375 19.15625 11.84375 
Q 23.34375 6.203125 30.609375 6.203125 
Q 37.796875 6.203125 41.984375 11.859375 
Q 46.1875 17.53125 46.1875 27.296875 
Q 46.1875 37.015625 41.984375 42.703125 
Q 37.796875 48.390625 30.609375 48.390625 
M 30.609375 56 
Q 42.328125 56 49.015625 48.375 
Q 55.71875 40.765625 55.71875 27.296875 
Q 55.71875 13.875 49.015625 6.21875 
Q 42.328125 -1.421875 30.609375 -1.421875 
Q 18.84375 -1.421875 12.171875 6.21875 
Q 5.515625 13.875 5.515625 27.296875 
Q 5.515625 40.765625 12.171875 48.375 
Q 18.84375 56 30.609375 56 
" id="BitstreamVeraSans-Roman-6f"/>
      <path d="M 44.28125 53.078125 
L 44.28125 44.578125 
Q 40.484375 46.53125 36.375 47.5 
Q 32.28125 48.484375 27.875 48.484375 
Q 21.1875 48.484375 17.84375 46.4375 
Q 14.5 44.390625 14.5 40.28125 
Q 14.5 37.15625 16.890625 35.375 
Q 19.28125 33.59375 26.515625 31.984375 
L 29.59375 31.296875 
Q 39.15625 29.25 43.1875 25.515625 
Q 47.21875 21.78125 47.21875 15.09375 
Q 47.21875 7.46875 41.1875 3.015625 
Q 35.15625 -1.421875 24.609375 -1.421875 
Q 20.21875 -1.421875 15.453125 -0.5625 
Q 10.6875 0.296875 5.421875 2 
L 5.421875 11.28125 
Q 10.40625 8.6875 15.234375 7.390625 
Q 20.0625 6.109375 24.8125 6.109375 
Q 31.15625 6.109375 34.5625 8.28125 
Q 37.984375 10.453125 37.984375 14.40625 
Q 37.984375 18.0625 35.515625 20.015625 
Q 33.0625 21.96875 24.703125 23.78125 
L 21.578125 24.515625 
Q 13.234375 26.265625 9.515625 29.90625 
Q 5.8125 33.546875 5.8125 39.890625 
Q 5.8125 47.609375 11.28125 51.796875 
Q 16.75 56 26.8125 56 
Q 31.78125 56 36.171875 55.265625 
Q 40.578125 54.546875 44.28125 53.078125 
" id="BitstreamVeraSans-Roman-73"/>
     </defs>
     <g transform="translate(182.18671875 408.8165625)scale(0.18 -0.18)">
      <use xlink:href="#BitstreamVeraSans-Roman-54"/>
      <use x="60.865234375" xlink:href="#BitstreamVeraSans-Roman-72"/>
      <use x="101.978515625" xlink:href="#BitstreamVeraSans-Roman-61"/>
      <use x="163.2578125" xlink:href="#BitstreamVeraSans-Roman-6e"/>
      <use x="226.63671875" xlink:href="#BitstreamVeraSans-Roman-73"/>
      <use x="278.736328125" xlink:href="#BitstreamVeraSans-Roman-6c"/>
      <use x="306.51953125" xlink:href="#BitstreamVeraSans-Roman-61"/>
      <use x="367.798828125" xlink:href="#BitstreamVeraSans-Roman-74"/>
      <use x="407.0078125" xlink:href="#BitstreamVeraSans-Roman-69"/>
      <use x="434.791015625" xlink:href="#BitstreamVeraSans-Roman-6f"/>
      <use x="495.97265625" xlink:href="#BitstreamVeraSans-Roman-6e"/>
      <use x="559.3515625" xlink:href="#BitstreamVeraSans-Roman-20"/>
      <use x="591.138671875" xlink:href="#BitstreamVeraSans-Roman-73"/>
      <use x="643.23828125" xlink:href="#BitstreamVeraSans-Roman-70"/>
      <use x="706.71484375" xlink:href="#BitstreamVeraSans-Roman-65"/>
      <use x="768.23828125" xlink:href="#BitstreamVeraSans-Roman-65"/>
      <use x="829.76171875" xlink:href="#BitstreamVeraSans-Roman-64"/>
      <use x="893.23828125" xlink:href="#BitstreamVeraSans-Roman-20"/>
      <use x="925.025390625" xlink:href="#BitstreamVeraSans-Roman-28"/>
      <use x="964.0390625" xlink:href="#BitstreamVeraSans-Roman-75"/>
      <use x="1027.41796875" xlink:href="#BitstreamVeraSans-Roman-6d"/>
      <use x="1124.830078125" xlink:href="#BitstreamVeraSans-Roman-2f"/>
      <use x="1158.521484375" xlink:href="#BitstreamVeraSans-Roman-6d"/>
      <use x="1255.93359375" xlink:href="#BitstreamVeraSans-Roman-69"/>
      <use x="1283.716796875" xlink:href="#BitstreamVeraSans-Roman-6e"/>
      <use x="1347.095703125" xlink:href="#BitstreamVeraSans-Roman-29"/>
     </g>
    </g>
   </g>
   <g id="matplotlib.axis_2">
    <g id="ytick_1">
     <g id="line2d_25">
      <path clip-path="url(#pd7856cfeea)" d="M 74.48625 368.71875 
L 539.38125 368.71875 
" style="fill:none;stroke:#000000;stroke-dasharray:1.000000,3.000000;stroke-dashoffset:0.0;stroke-width:2.0;"/>
     </g>
     <g id="line2d_26">
      <defs>
       <path d="M 0 0 
L 4 0 
" id="me030a4ceb8" style="stroke:#000000;stroke-width:0.5;"/>
      </defs>
      <g>
       <use style="stroke:#000000;stroke-width:0.5;" x="74.48625" xlink:href="#me030a4ceb8" y="368.71875"/>
      </g>
     </g>
     <g id="line2d_27">
      <defs>
       <path d="M 0 0 
L -4 0 
" id="m39fa6e1ccd" style="stroke:#000000;stroke-width:0.5;"/>
      </defs>
      <g>
       <use style="stroke:#000000;stroke-width:0.5;" x="539.38125" xlink:href="#m39fa6e1ccd" y="368.71875"/>
      </g>
     </g>
     <g id="text_9">
      <!-- 0.0 -->
      <defs>
       <path d="M 10.6875 12.40625 
L 21 12.40625 
L 21 0 
L 10.6875 0 
z
" id="BitstreamVeraSans-Roman-2e"/>
      </defs>
      <g transform="translate(41.860625 373.685625)scale(0.18 -0.18)">
       <use xlink:href="#BitstreamVeraSans-Roman-30"/>
       <use x="63.623046875" xlink:href="#BitstreamVeraSans-Roman-2e"/>
       <use x="95.41015625" xlink:href="#BitstreamVeraSans-Roman-30"/>
      </g>
     </g>
    </g>
    <g id="ytick_2">
     <g id="line2d_28">
      <path clip-path="url(#pd7856cfeea)" d="M 74.48625 303.145525 
L 539.38125 303.145525 
" style="fill:none;stroke:#000000;stroke-dasharray:1.000000,3.000000;stroke-dashoffset:0.0;stroke-width:2.0;"/>
     </g>
     <g id="line2d_29">
      <g>
       <use style="stroke:#000000;stroke-width:0.5;" x="74.48625" xlink:href="#me030a4ceb8" y="303.145525"/>
      </g>
     </g>
     <g id="line2d_30">
      <g>
       <use style="stroke:#000000;stroke-width:0.5;" x="539.38125" xlink:href="#m39fa6e1ccd" y="303.145525"/>
      </g>
     </g>
     <g id="text_10">
      <!-- 0.2 -->
      <g transform="translate(41.860625 308.1124)scale(0.18 -0.18)">
       <use xlink:href="#BitstreamVeraSans-Roman-30"/>
       <use x="63.623046875" xlink:href="#BitstreamVeraSans-Roman-2e"/>
       <use x="95.41015625" xlink:href="#BitstreamVeraSans-Roman-32"/>
      </g>
     </g>
    </g>
    <g id="ytick_3">
     <g id="line2d_31">
      <path clip-path="url(#pd7856cfeea)" d="M 74.48625 237.5723 
L 539.38125 237.5723 
" style="fill:none;stroke:#000000;stroke-dasharray:1.000000,3.000000;stroke-dashoffset:0.0;stroke-width:2.0;"/>
     </g>
     <g id="line2d_32">
      <g>
       <use style="stroke:#000000;stroke-width:0.5;" x="74.48625" xlink:href="#me030a4ceb8" y="237.5723"/>
      </g>
     </g>
     <g id="line2d_33">
      <g>
       <use style="stroke:#000000;stroke-width:0.5;" x="539.38125" xlink:href="#m39fa6e1ccd" y="237.5723"/>
      </g>
     </g>
     <g id="text_11">
      <!-- 0.4 -->
      <defs>
       <path d="M 37.796875 64.3125 
L 12.890625 25.390625 
L 37.796875 25.390625 
z
M 35.203125 72.90625 
L 47.609375 72.90625 
L 47.609375 25.390625 
L 58.015625 25.390625 
L 58.015625 17.1875 
L 47.609375 17.1875 
L 47.609375 0 
L 37.796875 0 
L 37.796875 17.1875 
L 4.890625 17.1875 
L 4.890625 26.703125 
z
" id="BitstreamVeraSans-Roman-34"/>
      </defs>
      <g transform="translate(41.860625 242.539175)scale(0.18 -0.18)">
       <use xlink:href="#BitstreamVeraSans-Roman-30"/>
       <use x="63.623046875" xlink:href="#BitstreamVeraSans-Roman-2e"/>
       <use x="95.41015625" xlink:href="#BitstreamVeraSans-Roman-34"/>
      </g>
     </g>
    </g>
    <g id="ytick_4">
     <g id="line2d_34">
      <path clip-path="url(#pd7856cfeea)" d="M 74.48625 171.999075 
L 539.38125 171.999075 
" style="fill:none;stroke:#000000;stroke-dasharray:1.000000,3.000000;stroke-dashoffset:0.0;stroke-width:2.0;"/>
     </g>
     <g id="line2d_35">
      <g>
       <use style="stroke:#000000;stroke-width:0.5;" x="74.48625" xlink:href="#me030a4ceb8" y="171.999075"/>
      </g>
     </g>
     <g id="line2d_36">
      <g>
       <use style="stroke:#000000;stroke-width:0.5;" x="539.38125" xlink:href="#m39fa6e1ccd" y="171.999075"/>
      </g>
     </g>
     <g id="text_12">
      <!-- 0.6 -->
      <defs>
       <path d="M 33.015625 40.375 
Q 26.375 40.375 22.484375 35.828125 
Q 18.609375 31.296875 18.609375 23.390625 
Q 18.609375 15.53125 22.484375 10.953125 
Q 26.375 6.390625 33.015625 6.390625 
Q 39.65625 6.390625 43.53125 10.953125 
Q 47.40625 15.53125 47.40625 23.390625 
Q 47.40625 31.296875 43.53125 35.828125 
Q 39.65625 40.375 33.015625 40.375 
M 52.59375 71.296875 
L 52.59375 62.3125 
Q 48.875 64.0625 45.09375 64.984375 
Q 41.3125 65.921875 37.59375 65.921875 
Q 27.828125 65.921875 22.671875 59.328125 
Q 17.53125 52.734375 16.796875 39.40625 
Q 19.671875 43.65625 24.015625 45.921875 
Q 28.375 48.1875 33.59375 48.1875 
Q 44.578125 48.1875 50.953125 41.515625 
Q 57.328125 34.859375 57.328125 23.390625 
Q 57.328125 12.15625 50.6875 5.359375 
Q 44.046875 -1.421875 33.015625 -1.421875 
Q 20.359375 -1.421875 13.671875 8.265625 
Q 6.984375 17.96875 6.984375 36.375 
Q 6.984375 53.65625 15.1875 63.9375 
Q 23.390625 74.21875 37.203125 74.21875 
Q 40.921875 74.21875 44.703125 73.484375 
Q 48.484375 72.75 52.59375 71.296875 
" id="BitstreamVeraSans-Roman-36"/>
      </defs>
      <g transform="translate(41.860625 176.96595)scale(0.18 -0.18)">
       <use xlink:href="#BitstreamVeraSans-Roman-30"/>
       <use x="63.623046875" xlink:href="#BitstreamVeraSans-Roman-2e"/>
       <use x="95.41015625" xlink:href="#BitstreamVeraSans-Roman-36"/>
      </g>
     </g>
    </g>
    <g id="ytick_5">
     <g id="line2d_37">
      <path clip-path="url(#pd7856cfeea)" d="M 74.48625 106.42585 
L 539.38125 106.42585 
" style="fill:none;stroke:#000000;stroke-dasharray:1.000000,3.000000;stroke-dashoffset:0.0;stroke-width:2.0;"/>
     </g>
     <g id="line2d_38">
      <g>
       <use style="stroke:#000000;stroke-width:0.5;" x="74.48625" xlink:href="#me030a4ceb8" y="106.42585"/>
      </g>
     </g>
     <g id="line2d_39">
      <g>
       <use style="stroke:#000000;stroke-width:0.5;" x="539.38125" xlink:href="#m39fa6e1ccd" y="106.42585"/>
      </g>
     </g>
     <g id="text_13">
      <!-- 0.8 -->
      <defs>
       <path d="M 31.78125 34.625 
Q 24.75 34.625 20.71875 30.859375 
Q 16.703125 27.09375 16.703125 20.515625 
Q 16.703125 13.921875 20.71875 10.15625 
Q 24.75 6.390625 31.78125 6.390625 
Q 38.8125 6.390625 42.859375 10.171875 
Q 46.921875 13.96875 46.921875 20.515625 
Q 46.921875 27.09375 42.890625 30.859375 
Q 38.875 34.625 31.78125 34.625 
M 21.921875 38.8125 
Q 15.578125 40.375 12.03125 44.71875 
Q 8.5 49.078125 8.5 55.328125 
Q 8.5 64.0625 14.71875 69.140625 
Q 20.953125 74.21875 31.78125 74.21875 
Q 42.671875 74.21875 48.875 69.140625 
Q 55.078125 64.0625 55.078125 55.328125 
Q 55.078125 49.078125 51.53125 44.71875 
Q 48 40.375 41.703125 38.8125 
Q 48.828125 37.15625 52.796875 32.3125 
Q 56.78125 27.484375 56.78125 20.515625 
Q 56.78125 9.90625 50.3125 4.234375 
Q 43.84375 -1.421875 31.78125 -1.421875 
Q 19.734375 -1.421875 13.25 4.234375 
Q 6.78125 9.90625 6.78125 20.515625 
Q 6.78125 27.484375 10.78125 32.3125 
Q 14.796875 37.15625 21.921875 38.8125 
M 18.3125 54.390625 
Q 18.3125 48.734375 21.84375 45.5625 
Q 25.390625 42.390625 31.78125 42.390625 
Q 38.140625 42.390625 41.71875 45.5625 
Q 45.3125 48.734375 45.3125 54.390625 
Q 45.3125 60.0625 41.71875 63.234375 
Q 38.140625 66.40625 31.78125 66.40625 
Q 25.390625 66.40625 21.84375 63.234375 
Q 18.3125 60.0625 18.3125 54.390625 
" id="BitstreamVeraSans-Roman-38"/>
      </defs>
      <g transform="translate(41.860625 111.392725)scale(0.18 -0.18)">
       <use xlink:href="#BitstreamVeraSans-Roman-30"/>
       <use x="63.623046875" xlink:href="#BitstreamVeraSans-Roman-2e"/>
       <use x="95.41015625" xlink:href="#BitstreamVeraSans-Roman-38"/>
      </g>
     </g>
    </g>
    <g id="ytick_6">
     <g id="line2d_40">
      <path clip-path="url(#pd7856cfeea)" d="M 74.48625 40.852625 
L 539.38125 40.852625 
" style="fill:none;stroke:#000000;stroke-dasharray:1.000000,3.000000;stroke-dashoffset:0.0;stroke-width:2.0;"/>
     </g>
     <g id="line2d_41">
      <g>
       <use style="stroke:#000000;stroke-width:0.5;" x="74.48625" xlink:href="#me030a4ceb8" y="40.852625"/>
      </g>
     </g>
     <g id="line2d_42">
      <g>
       <use style="stroke:#000000;stroke-width:0.5;" x="539.38125" xlink:href="#m39fa6e1ccd" y="40.852625"/>
      </g>
     </g>
     <g id="text_14">
      <!-- 1.0 -->
      <g transform="translate(41.860625 45.8195)scale(0.18 -0.18)">
       <use xlink:href="#BitstreamVeraSans-Roman-31"/>
       <use x="63.623046875" xlink:href="#BitstreamVeraSans-Roman-2e"/>
       <use x="95.41015625" xlink:href="#BitstreamVeraSans-Roman-30"/>
      </g>
     </g>
    </g>
    <g id="text_15">
     <!-- Proportion -->
     <defs>
      <path d="M 19.671875 64.796875 
L 19.671875 37.40625 
L 32.078125 37.40625 
Q 38.96875 37.40625 42.71875 40.96875 
Q 46.484375 44.53125 46.484375 51.125 
Q 46.484375 57.671875 42.71875 61.234375 
Q 38.96875 64.796875 32.078125 64.796875 
z
M 9.8125 72.90625 
L 32.078125 72.90625 
Q 44.34375 72.90625 50.609375 67.359375 
Q 56.890625 61.8125 56.890625 51.125 
Q 56.890625 40.328125 50.609375 34.8125 
Q 44.34375 29.296875 32.078125 29.296875 
L 19.671875 29.296875 
L 19.671875 0 
L 9.8125 0 
z
" id="BitstreamVeraSans-Roman-50"/>
     </defs>
     <g transform="translate(33.1171875 251.5744375)rotate(-90.0)scale(0.18 -0.18)">
      <use xlink:href="#BitstreamVeraSans-Roman-50"/>
      <use x="60.287109375" xlink:href="#BitstreamVeraSans-Roman-72"/>
      <use x="101.369140625" xlink:href="#BitstreamVeraSans-Roman-6f"/>
      <use x="162.55078125" xlink:href="#BitstreamVeraSans-Roman-70"/>
      <use x="226.02734375" xlink:href="#BitstreamVeraSans-Roman-6f"/>
      <use x="287.208984375" xlink:href="#BitstreamVeraSans-Roman-72"/>
      <use x="328.322265625" xlink:href="#BitstreamVeraSans-Roman-74"/>
      <use x="367.53125" xlink:href="#BitstreamVeraSans-Roman-69"/>
      <use x="395.314453125" xlink:href="#BitstreamVeraSans-Roman-6f"/>
      <use x="456.49609375" xlink:href="#BitstreamVeraSans-Roman-6e"/>
     </g>
    </g>
   </g>
   <g id="text_16">
    <!-- Translation Speeds -->
    <defs>
     <path d="M 53.515625 70.515625 
L 53.515625 60.890625 
Q 47.90625 63.578125 42.921875 64.890625 
Q 37.9375 66.21875 33.296875 66.21875 
Q 25.25 66.21875 20.875 63.09375 
Q 16.5 59.96875 16.5 54.203125 
Q 16.5 49.359375 19.40625 46.890625 
Q 22.3125 44.4375 30.421875 42.921875 
L 36.375 41.703125 
Q 47.40625 39.59375 52.65625 34.296875 
Q 57.90625 29 57.90625 20.125 
Q 57.90625 9.515625 50.796875 4.046875 
Q 43.703125 -1.421875 29.984375 -1.421875 
Q 24.8125 -1.421875 18.96875 -0.25 
Q 13.140625 0.921875 6.890625 3.21875 
L 6.890625 13.375 
Q 12.890625 10.015625 18.65625 8.296875 
Q 24.421875 6.59375 29.984375 6.59375 
Q 38.421875 6.59375 43.015625 9.90625 
Q 47.609375 13.234375 47.609375 19.390625 
Q 47.609375 24.75 44.3125 27.78125 
Q 41.015625 30.8125 33.5 32.328125 
L 27.484375 33.5 
Q 16.453125 35.6875 11.515625 40.375 
Q 6.59375 45.0625 6.59375 53.421875 
Q 6.59375 63.09375 13.40625 68.65625 
Q 20.21875 74.21875 32.171875 74.21875 
Q 37.3125 74.21875 42.625 73.28125 
Q 47.953125 72.359375 53.515625 70.515625 
" id="BitstreamVeraSans-Roman-53"/>
    </defs>
    <g transform="translate(203.608125 35.852625)scale(0.21599999999999997 -0.21599999999999997)">
     <use xlink:href="#BitstreamVeraSans-Roman-54"/>
     <use x="60.865234375" xlink:href="#BitstreamVeraSans-Roman-72"/>
     <use x="101.978515625" xlink:href="#BitstreamVeraSans-Roman-61"/>
     <use x="163.2578125" xlink:href="#BitstreamVeraSans-Roman-6e"/>
     <use x="226.63671875" xlink:href="#BitstreamVeraSans-Roman-73"/>
     <use x="278.736328125" xlink:href="#BitstreamVeraSans-Roman-6c"/>
     <use x="306.51953125" xlink:href="#BitstreamVeraSans-Roman-61"/>
     <use x="367.798828125" xlink:href="#BitstreamVeraSans-Roman-74"/>
     <use x="407.0078125" xlink:href="#BitstreamVeraSans-Roman-69"/>
     <use x="434.791015625" xlink:href="#BitstreamVeraSans-Roman-6f"/>
     <use x="495.97265625" xlink:href="#BitstreamVeraSans-Roman-6e"/>
     <use x="559.3515625" xlink:href="#BitstreamVeraSans-Roman-20"/>
     <use x="591.138671875" xlink:href="#BitstreamVeraSans-Roman-53"/>
     <use x="654.615234375" xlink:href="#BitstreamVeraSans-Roman-70"/>
     <use x="718.091796875" xlink:href="#BitstreamVeraSans-Roman-65"/>
     <use x="779.615234375" xlink:href="#BitstreamVeraSans-Roman-65"/>
     <use x="841.138671875" xlink:href="#BitstreamVeraSans-Roman-64"/>
     <use x="904.615234375" xlink:href="#BitstreamVeraSans-Roman-73"/>
    </g>
   </g>
   <g id="legend_1">
    <g id="patch_7">
     <path d="M 353.78325 357.91875 
L 528.58125 357.91875 
L 528.58125 256.3245 
L 353.78325 256.3245 
z
" style="fill:#ffffff;stroke:#000000;stroke-linejoin:miter;"/>
    </g>
    <g id="line2d_43">
     <path d="M 368.90325 273.817125 
L 399.14325 273.817125 
" style="fill:none;stroke:#0000ff;stroke-linecap:square;stroke-width:2.0;"/>
    </g>
    <g id="line2d_44"/>
    <g id="text_17">
     <!-- Levy -->
     <defs>
      <path d="M 2.984375 54.6875 
L 12.5 54.6875 
L 29.59375 8.796875 
L 46.6875 54.6875 
L 56.203125 54.6875 
L 35.6875 0 
L 23.484375 0 
z
" id="BitstreamVeraSans-Roman-76"/>
      <path d="M 32.171875 -5.078125 
Q 28.375 -14.84375 24.75 -17.8125 
Q 21.140625 -20.796875 15.09375 -20.796875 
L 7.90625 -20.796875 
L 7.90625 -13.28125 
L 13.1875 -13.28125 
Q 16.890625 -13.28125 18.9375 -11.515625 
Q 21 -9.765625 23.484375 -3.21875 
L 25.09375 0.875 
L 2.984375 54.6875 
L 12.5 54.6875 
L 29.59375 11.921875 
L 46.6875 54.6875 
L 56.203125 54.6875 
z
" id="BitstreamVeraSans-Roman-79"/>
      <path d="M 9.8125 72.90625 
L 19.671875 72.90625 
L 19.671875 8.296875 
L 55.171875 8.296875 
L 55.171875 0 
L 9.8125 0 
z
" id="BitstreamVeraSans-Roman-4c"/>
     </defs>
     <g transform="translate(422.90325 281.377125)scale(0.21599999999999997 -0.21599999999999997)">
      <use xlink:href="#BitstreamVeraSans-Roman-4c"/>
      <use x="55.697265625" xlink:href="#BitstreamVeraSans-Roman-65"/>
      <use x="117.220703125" xlink:href="#BitstreamVeraSans-Roman-76"/>
      <use x="176.400390625" xlink:href="#BitstreamVeraSans-Roman-79"/>
     </g>
    </g>
    <g id="line2d_45">
     <path d="M 368.90325 305.521875 
L 399.14325 305.521875 
" style="fill:none;stroke:#008000;stroke-linecap:square;stroke-width:2.0;"/>
    </g>
    <g id="line2d_46"/>
    <g id="text_18">
     <!-- CRW -->
     <defs>
      <path d="M 64.40625 67.28125 
L 64.40625 56.890625 
Q 59.421875 61.53125 53.78125 63.8125 
Q 48.140625 66.109375 41.796875 66.109375 
Q 29.296875 66.109375 22.65625 58.46875 
Q 16.015625 50.828125 16.015625 36.375 
Q 16.015625 21.96875 22.65625 14.328125 
Q 29.296875 6.6875 41.796875 6.6875 
Q 48.140625 6.6875 53.78125 8.984375 
Q 59.421875 11.28125 64.40625 15.921875 
L 64.40625 5.609375 
Q 59.234375 2.09375 53.4375 0.328125 
Q 47.65625 -1.421875 41.21875 -1.421875 
Q 24.65625 -1.421875 15.125 8.703125 
Q 5.609375 18.84375 5.609375 36.375 
Q 5.609375 53.953125 15.125 64.078125 
Q 24.65625 74.21875 41.21875 74.21875 
Q 47.75 74.21875 53.53125 72.484375 
Q 59.328125 70.75 64.40625 67.28125 
" id="BitstreamVeraSans-Roman-43"/>
      <path d="M 3.328125 72.90625 
L 13.28125 72.90625 
L 28.609375 11.28125 
L 43.890625 72.90625 
L 54.984375 72.90625 
L 70.3125 11.28125 
L 85.59375 72.90625 
L 95.609375 72.90625 
L 77.296875 0 
L 64.890625 0 
L 49.515625 63.28125 
L 33.984375 0 
L 21.578125 0 
z
" id="BitstreamVeraSans-Roman-57"/>
      <path d="M 44.390625 34.1875 
Q 47.5625 33.109375 50.5625 29.59375 
Q 53.5625 26.078125 56.59375 19.921875 
L 66.609375 0 
L 56 0 
L 46.6875 18.703125 
Q 43.0625 26.03125 39.671875 28.421875 
Q 36.28125 30.8125 30.421875 30.8125 
L 19.671875 30.8125 
L 19.671875 0 
L 9.8125 0 
L 9.8125 72.90625 
L 32.078125 72.90625 
Q 44.578125 72.90625 50.734375 67.671875 
Q 56.890625 62.453125 56.890625 51.90625 
Q 56.890625 45.015625 53.6875 40.46875 
Q 50.484375 35.9375 44.390625 34.1875 
M 19.671875 64.796875 
L 19.671875 38.921875 
L 32.078125 38.921875 
Q 39.203125 38.921875 42.84375 42.21875 
Q 46.484375 45.515625 46.484375 51.90625 
Q 46.484375 58.296875 42.84375 61.546875 
Q 39.203125 64.796875 32.078125 64.796875 
z
" id="BitstreamVeraSans-Roman-52"/>
     </defs>
     <g transform="translate(422.90325 313.081875)scale(0.21599999999999997 -0.21599999999999997)">
      <use xlink:href="#BitstreamVeraSans-Roman-43"/>
      <use x="69.82421875" xlink:href="#BitstreamVeraSans-Roman-52"/>
      <use x="139.244140625" xlink:href="#BitstreamVeraSans-Roman-57"/>
     </g>
    </g>
    <g id="line2d_47">
     <path d="M 368.90325 337.226625 
L 399.14325 337.226625 
" style="fill:none;stroke:#ff0000;stroke-linecap:square;stroke-width:2.0;"/>
    </g>
    <g id="line2d_48"/>
    <g id="text_19">
     <!-- CRW 50s -->
     <g transform="translate(422.90325 344.786625)scale(0.21599999999999997 -0.21599999999999997)">
      <use xlink:href="#BitstreamVeraSans-Roman-43"/>
      <use x="69.82421875" xlink:href="#BitstreamVeraSans-Roman-52"/>
      <use x="139.244140625" xlink:href="#BitstreamVeraSans-Roman-57"/>
      <use x="238.12109375" xlink:href="#BitstreamVeraSans-Roman-20"/>
      <use x="269.908203125" xlink:href="#BitstreamVeraSans-Roman-35"/>
      <use x="333.53125" xlink:href="#BitstreamVeraSans-Roman-30"/>
      <use x="397.154296875" xlink:href="#BitstreamVeraSans-Roman-73"/>
     </g>
    </g>
   </g>
  </g>
 </g>
 <defs>
  <clipPath id="pd7856cfeea">
   <rect height="327.866125" width="464.895" x="74.48625" y="40.852625"/>
  </clipPath>
 </defs>
</svg>
