<?xml version="1.0" encoding="utf-8" standalone="no"?>
<!DOCTYPE svg PUBLIC "-//W3C//DTD SVG 1.1//EN"
  "http://www.w3.org/Graphics/SVG/1.1/DTD/svg11.dtd">
<!-- Created with matplotlib (http://matplotlib.org/) -->
<svg height="432pt" version="1.1" viewBox="0 0 576 432" width="576pt" xmlns="http://www.w3.org/2000/svg" xmlns:xlink="http://www.w3.org/1999/xlink">
 <defs>
  <style type="text/css">
*{stroke-linecap:butt;stroke-linejoin:round;stroke-miterlimit:100000;}
  </style>
 </defs>
 <g id="figure_1">
  <g id="patch_1">
   <path d="M 0 432 
L 576 432 
L 576 0 
L 0 0 
z
" style="fill:#ffffff;"/>
  </g>
  <g id="axes_1">
   <g id="patch_2">
    <path d="M 74.48625 368.71875 
L 539.38125 368.71875 
L 539.38125 40.852625 
L 74.48625 40.852625 
z
" style="fill:#ffffff;"/>
   </g>
   <g id="line2d_1">
    <path clip-path="url(#p94d07467a6)" d="M 74.48625 368.71875 
L 74.527515 368.51289 
L 75.115922 367.826691 
L 75.205103 367.552211 
L 75.530076 367.277731 
L 75.834935 366.866011 
L 76.07917 366.728771 
L 76.090965 366.660151 
L 76.28251 366.454292 
L 76.404607 366.248432 
L 76.652508 365.836712 
L 76.768405 365.630852 
L 76.892321 365.356372 
L 77.245854 364.944653 
L 77.350875 364.807413 
L 77.416197 364.601553 
L 77.997931 364.327073 
L 78.230119 363.778114 
L 78.498492 363.640874 
L 78.566134 363.435014 
L 78.98304 363.229154 
L 79.200119 362.817434 
L 79.727873 361.925375 
L 79.962694 361.788135 
L 79.966431 361.719515 
L 80.255354 361.445035 
L 80.371911 361.239175 
L 80.819903 361.033316 
L 80.899434 360.896076 
L 81.297564 360.415736 
L 81.356975 360.072636 
L 81.597012 359.866776 
L 81.682901 359.729536 
L 82.049209 359.523677 
L 82.222694 359.317817 
L 82.36504 359.111957 
L 82.468936 358.974717 
L 83.525149 357.259218 
L 84.243834 356.229919 
L 84.464351 355.955439 
L 84.540709 355.818199 
L 85.075465 355.475099 
L 85.894911 354.51442 
L 85.942016 354.4458 
L 86.20044 354.30856 
L 86.313488 353.828221 
L 87.1004 352.593062 
L 87.662259 352.249962 
L 88.20489 351.495142 
L 88.22133 351.426522 
L 88.62018 351.220663 
L 89.069233 350.465843 
L 89.084522 350.397223 
L 89.296826 350.191363 
L 89.36266 350.054123 
L 89.446805 349.779644 
L 89.522081 349.642404 
L 89.715831 349.367924 
L 89.987834 348.956204 
L 90.217689 348.750344 
L 90.370132 348.613104 
L 90.610521 348.475865 
L 90.959551 348.270005 
L 91.03412 347.926905 
L 91.222456 347.789665 
L 91.633172 346.966226 
L 91.708958 346.760366 
L 92.038253 346.417266 
L 92.366047 346.074166 
L 92.484306 345.868306 
L 92.504234 345.731066 
L 92.975705 345.593827 
L 93.11665 345.387967 
L 93.305359 345.182107 
L 93.70336 344.770387 
L 93.874841 344.633147 
L 93.984456 344.427287 
L 94.168852 344.221428 
L 94.191467 344.152808 
L 94.457662 343.946948 
L 94.643529 343.466608 
L 95.648628 342.094209 
L 95.95759 341.888349 
L 96.491417 341.20215 
L 96.722228 341.06491 
L 96.827506 340.85905 
L 97.290783 340.31009 
L 97.536993 340.035611 
L 97.662035 339.829751 
L 97.836713 339.623891 
L 98.109117 339.418031 
L 98.418479 338.937691 
L 98.419903 338.869071 
L 98.804118 338.594592 
L 98.960485 338.457352 
L 99.651283 337.771152 
L 99.944373 337.290813 
L 100.481657 336.192893 
L 100.783508 336.055653 
L 100.871864 335.918414 
L 100.987127 335.712554 
L 101.295306 334.957734 
L 101.295866 334.889114 
L 101.587344 334.751874 
L 101.685574 334.477395 
L 102.162906 333.997055 
L 102.256448 333.653955 
L 103.392481 332.281556 
L 104.105354 331.389497 
L 104.437376 330.840537 
L 105.155951 330.017098 
L 105.252889 329.605378 
L 105.471968 328.987798 
L 105.482949 328.919179 
L 105.744072 328.713319 
L 106.165422 328.027119 
L 106.509531 327.615399 
L 106.614482 327.34092 
L 107.306004 326.037141 
L 107.476566 325.762661 
L 107.584839 325.556801 
L 107.907181 325.350941 
L 108.479525 324.870601 
L 108.766969 324.596122 
L 108.836723 324.390262 
L 109.062767 324.184402 
L 110.30563 322.468903 
L 110.566383 321.782704 
L 110.709236 321.439604 
L 111.1159 320.890644 
L 111.263884 320.547545 
L 111.397342 320.204445 
L 111.719556 319.792725 
L 111.938109 319.381005 
L 112.092114 319.106526 
L 112.315244 318.832046 
L 112.538825 318.488946 
L 113.084948 318.008606 
L 113.355303 317.665507 
L 113.570716 317.391027 
L 113.664352 317.116547 
L 114.120875 316.361728 
L 114.958433 315.606908 
L 115.286391 315.057948 
L 115.725232 314.508989 
L 115.915025 314.303129 
L 116.010027 314.165889 
L 116.659039 313.20521 
L 116.827302 312.79349 
L 117.124561 312.45039 
L 117.238229 312.038671 
L 117.386564 311.832811 
L 117.530698 311.489711 
L 117.689784 311.283851 
L 117.705575 311.215231 
L 117.911033 311.009371 
L 117.981985 310.803512 
L 118.140466 310.460412 
L 118.286276 310.117312 
L 118.419558 309.911452 
L 118.500086 309.705592 
L 118.825958 309.431112 
L 118.981714 309.293873 
L 119.141927 309.019393 
L 119.338993 308.401813 
L 119.749786 307.990094 
L 119.754677 307.921474 
L 119.905873 307.715614 
L 119.997093 307.578374 
L 120.213755 307.372514 
L 122.150052 304.010136 
L 122.237437 303.804277 
L 122.562768 303.392557 
L 122.757299 302.980837 
L 123.196989 302.294638 
L 123.469611 301.745678 
L 124.295579 300.510519 
L 124.409916 300.373279 
L 124.914977 299.687079 
L 125.012963 299.54984 
L 125.215604 299.20674 
L 125.240412 299.13812 
L 126.209924 298.58916 
L 126.294732 298.246061 
L 126.546751 298.108821 
L 126.757846 297.834341 
L 127.167356 297.559861 
L 127.279247 297.354001 
L 127.490583 296.873661 
L 127.616323 296.736422 
L 127.705577 296.530562 
L 127.827255 296.256082 
L 128.166834 295.844362 
L 128.256094 295.707122 
L 128.956537 295.226783 
L 129.499131 294.334723 
L 129.656627 294.128863 
L 129.823299 293.717144 
L 130.411528 292.413365 
L 130.428369 292.276125 
L 130.681368 292.001645 
L 131.298333 290.903726 
L 131.446863 290.697866 
L 131.930712 289.874427 
L 132.331898 289.188227 
L 132.567189 289.050987 
L 133.135681 288.090308 
L 133.439006 287.815828 
L 133.571379 287.404108 
L 133.755923 287.061009 
L 133.961457 286.649289 
L 134.272174 286.443429 
L 134.376833 286.237569 
L 134.574197 286.100329 
L 134.853065 285.48275 
L 135.10637 285.20827 
L 135.17252 285.07103 
L 135.48833 284.59069 
L 135.584956 284.38483 
L 135.968483 283.904491 
L 136.456168 283.630011 
L 136.472398 283.492771 
L 136.718653 283.355531 
L 136.829703 283.218291 
L 136.936278 283.012431 
L 137.07845 282.600712 
L 137.37218 281.777272 
L 137.419174 281.708652 
L 137.773103 281.502793 
L 138.317898 280.679353 
L 138.442452 280.199013 
L 138.612624 279.718674 
L 139.029183 279.375574 
L 139.184087 279.169714 
L 139.287224 278.963854 
L 139.386074 278.826614 
L 139.519235 278.552135 
L 139.661773 278.209035 
L 139.851016 277.934555 
L 139.949464 277.728695 
L 140.124308 277.385595 
L 140.256334 277.179736 
L 140.435507 277.042496 
L 140.684278 276.493536 
L 140.912136 276.287676 
L 140.970799 276.081816 
L 141.099254 275.875957 
L 141.460571 275.052517 
L 141.659992 274.846657 
L 142.023205 274.503558 
L 142.107695 274.366318 
L 142.220545 274.160458 
L 142.400712 273.748738 
L 142.570678 273.474258 
L 142.73868 272.925299 
L 142.899328 272.719439 
L 143.009249 272.513579 
L 143.838032 271.2098 
L 144.06573 270.93532 
L 144.401281 269.906021 
L 144.647215 269.700161 
L 144.666155 269.631541 
L 144.853713 269.494301 
L 145.282248 268.327762 
L 145.467182 268.121902 
L 145.923601 267.092603 
L 146.008361 266.818123 
L 146.123702 266.612263 
L 146.225558 266.337783 
L 146.394607 265.926064 
L 146.817132 264.896764 
L 147.240003 264.690905 
L 147.259218 264.622285 
L 147.541339 264.416425 
L 147.847478 264.141945 
L 148.168664 263.455745 
L 148.312547 263.318506 
L 148.420725 263.181266 
L 148.515467 262.838166 
L 148.703644 262.632306 
L 148.801302 262.357826 
L 149.113076 261.808867 
L 149.250488 261.603007 
L 149.517707 260.848187 
L 149.965932 259.956128 
L 150.067168 259.750268 
L 150.385205 259.407168 
L 150.561579 259.269928 
L 150.607048 258.995449 
L 151.110331 258.652349 
L 151.279109 258.446489 
L 151.463105 258.309249 
L 151.818621 257.966149 
L 152.592851 255.427211 
L 152.667818 255.221351 
L 153.029329 254.809632 
L 153.324877 254.054812 
L 153.461457 253.848952 
L 153.818886 252.613793 
L 153.886612 252.545173 
L 154.186639 252.339313 
L 154.885766 251.104154 
L 154.994808 250.692435 
L 155.231591 250.349335 
L 155.298395 250.074855 
L 155.685059 249.868995 
L 156.149939 248.908316 
L 156.25705 248.702456 
L 156.740999 247.947637 
L 157.008136 247.261437 
L 157.374673 246.369378 
L 157.669321 245.545938 
L 158.289909 243.899059 
L 158.391068 243.6932 
L 158.509238 243.28148 
L 158.568674 243.07562 
L 159.120772 242.52666 
L 159.474271 241.977701 
L 159.582983 241.703221 
L 159.778432 241.360121 
L 159.878026 241.085641 
L 160.09539 240.330822 
L 160.242435 240.193582 
L 160.304447 239.987722 
L 160.575033 239.644623 
L 160.832133 239.027043 
L 160.958706 238.821183 
L 161.299 238.409463 
L 161.477857 238.066364 
L 162.08239 236.625345 
L 162.208917 236.350865 
L 162.33012 236.076385 
L 163.807399 233.262967 
L 164.095099 233.057107 
L 164.187561 232.782627 
L 165.274729 230.998509 
L 165.287391 230.929889 
L 165.543175 230.724029 
L 165.723529 230.449549 
L 166.25367 229.83197 
L 166.328599 229.69473 
L 166.585357 229.48887 
L 166.839902 229.07715 
L 166.922581 228.87129 
L 167.078613 228.66543 
L 167.227885 228.459571 
L 167.617798 227.636131 
L 167.961568 226.881312 
L 168.300727 226.606832 
L 168.37722 226.469592 
L 168.70258 226.126492 
L 168.791095 225.852012 
L 169.016884 225.440293 
L 169.162266 224.891333 
L 169.258667 224.685473 
L 169.349064 224.548233 
L 169.439449 224.342373 
L 169.519464 224.067894 
L 169.759106 223.793414 
L 169.964576 223.518934 
L 170.652145 222.421015 
L 170.761799 222.009295 
L 171.565707 220.431036 
L 171.676497 220.087937 
L 172.130239 219.127257 
L 172.389069 218.990017 
L 172.765197 218.578298 
L 172.969891 218.235198 
L 173.026333 218.097958 
L 173.136138 217.823478 
L 173.320033 217.343138 
L 173.468369 216.931419 
L 173.670633 216.725559 
L 173.829436 216.313839 
L 174.133885 215.90212 
L 174.401045 215.76488 
L 174.44448 215.4904 
L 174.658539 215.28454 
L 174.738333 215.07868 
L 175.14109 213.706281 
L 175.557186 213.088702 
L 175.758229 212.951462 
L 176.066885 212.059402 
L 176.16466 211.853542 
L 176.489095 211.235963 
L 176.767802 211.030103 
L 176.93641 210.892863 
L 177.992838 209.863564 
L 178.154499 209.451844 
L 178.421743 209.040124 
L 178.748673 208.216685 
L 178.960791 207.873585 
L 179.014699 207.736345 
L 179.325225 207.461866 
L 179.463584 207.187386 
L 179.542348 206.912906 
L 179.812855 206.707046 
L 179.979362 206.363946 
L 180.129142 206.020847 
L 180.238229 205.677747 
L 180.475658 205.334647 
L 180.674895 205.197407 
L 180.811503 204.854307 
L 180.947716 204.579828 
L 181.156431 204.099488 
L 181.533997 203.344669 
L 181.754174 203.138809 
L 181.886828 202.932949 
L 182.169692 202.727089 
L 182.311198 202.383989 
L 182.507574 201.97227 
L 183.602681 199.296091 
L 183.882087 199.158852 
L 183.948995 198.952992 
L 184.063327 198.609892 
L 185.713759 196.139574 
L 186.158226 195.659234 
L 186.275061 195.453374 
L 186.499178 195.247514 
L 186.699215 195.041654 
L 186.932311 194.698555 
L 187.446196 193.463396 
L 187.523062 193.188916 
L 187.678942 192.845816 
L 187.936962 192.639956 
L 188.012517 192.365476 
L 188.513329 191.885137 
L 188.740116 191.473417 
L 189.020128 190.718598 
L 189.089651 190.649978 
L 189.760785 190.375498 
L 190.041419 189.346199 
L 190.206118 189.140339 
L 190.217002 189.071719 
L 190.537113 188.865859 
L 190.873058 188.454139 
L 190.888649 188.385519 
L 191.15036 188.179659 
L 191.782711 187.21898 
L 191.954743 187.01312 
L 192.076912 186.80726 
L 192.449203 186.601401 
L 192.567438 186.464161 
L 192.666574 186.258301 
L 192.770205 185.915201 
L 192.929401 185.709341 
L 193.026891 185.572101 
L 193.303906 185.229002 
L 193.709896 184.680042 
L 193.84311 184.062462 
L 193.952009 183.856603 
L 193.994217 183.650743 
L 194.317778 183.376263 
L 194.51878 183.033163 
L 194.721654 182.758683 
L 195.28972 181.798004 
L 195.501868 181.592144 
L 195.626183 181.043185 
L 196.338906 179.945265 
L 196.561322 179.739405 
L 196.843706 179.396306 
L 197.535641 177.818047 
L 198.561974 176.445648 
L 199.270753 175.347729 
L 199.440163 175.141869 
L 199.757542 174.867389 
L 199.963076 174.455669 
L 200.471403 174.318429 
L 200.978254 173.42637 
L 201.265841 173.08327 
L 201.543612 172.74017 
L 201.864652 172.465691 
L 202.22318 171.848111 
L 202.481513 171.642251 
L 202.542195 171.299152 
L 202.711663 170.750192 
L 202.821704 170.544332 
L 202.881246 170.407092 
L 203.23704 170.201232 
L 203.474264 169.926752 
L 203.647394 169.446413 
L 203.757592 169.240553 
L 204.449112 168.142634 
L 204.709585 167.868154 
L 204.8024 167.593674 
L 205.461961 166.221275 
L 205.6397 166.015415 
L 206.131017 165.466456 
L 206.572816 165.191976 
L 206.691345 164.917496 
L 206.809418 164.711636 
L 206.988664 164.231297 
L 207.175906 164.025437 
L 207.413785 163.476477 
L 207.665916 163.270617 
L 208.114484 162.721658 
L 208.377667 162.515798 
L 208.521376 162.309938 
L 209.667391 160.937539 
L 209.744537 160.663059 
L 210.026161 160.319959 
L 210.078275 160.1141 
L 210.374528 159.83962 
L 210.773515 159.15342 
L 211.033081 158.329981 
L 211.308788 157.986881 
L 211.477347 157.712401 
L 211.57115 157.506541 
L 211.922112 157.232062 
L 212.066155 156.888962 
L 212.410025 156.477242 
L 212.563931 156.271382 
L 212.664914 155.928283 
L 212.889505 155.791043 
L 212.982489 155.585183 
L 213.064351 155.379323 
L 213.736949 154.212784 
L 214.024043 154.075544 
L 214.151491 153.869684 
L 215.766246 150.987646 
L 215.934704 150.781786 
L 216.099695 150.575926 
L 216.393544 150.301447 
L 216.424779 150.232827 
L 216.747502 150.026967 
L 216.751732 149.958347 
L 217.403283 149.478007 
L 218.596929 147.762508 
L 218.827508 147.076309 
L 219.11622 146.870449 
L 219.344321 146.527349 
L 220.716696 145.42943 
L 221.230248 144.674611 
L 221.368271 144.468751 
L 221.944295 143.851171 
L 222.059347 143.576691 
L 222.29975 143.370832 
L 222.36674 143.233592 
L 222.660857 143.096352 
L 222.824757 142.753252 
L 222.931076 142.616012 
L 223.261908 141.998433 
L 223.75685 141.449473 
L 224.019751 141.243613 
L 224.361212 140.900513 
L 224.745689 140.557414 
L 224.828153 140.282934 
L 225.341668 139.939834 
L 226.031855 138.979155 
L 226.45979 138.636055 
L 226.566604 138.292955 
L 226.863282 138.087095 
L 227.282568 137.675376 
L 227.38773 137.400896 
L 227.442187 137.263656 
L 227.879855 137.126416 
L 228.057449 136.920556 
L 228.368077 136.646076 
L 228.583898 136.371597 
L 228.848145 136.028497 
L 228.903894 135.959877 
L 229.307509 135.754017 
L 229.886823 134.930578 
L 230.260456 134.518858 
L 230.451665 134.038518 
L 231.930625 132.254399 
L 232.216056 132.11716 
L 233.176134 131.01924 
L 233.496315 130.470281 
L 233.682109 130.264421 
L 233.862646 129.921321 
L 234.090161 129.303742 
L 234.267589 129.097882 
L 234.422612 128.686162 
L 234.64685 128.411682 
L 234.723448 128.205822 
L 234.98867 128.068582 
L 235.109735 127.656863 
L 235.293675 127.451003 
L 235.79726 126.764803 
L 236.573881 125.872744 
L 236.979165 125.461024 
L 237.07641 125.186545 
L 237.334834 124.843445 
L 237.512846 124.637585 
L 237.71154 124.294485 
L 238.096578 124.088625 
L 238.130848 123.951385 
L 238.537401 123.745526 
L 238.729506 123.333806 
L 238.865825 123.196566 
L 239.151714 122.990706 
L 239.177306 122.922086 
L 239.692173 122.716226 
L 239.831218 122.441747 
L 240.249896 122.030027 
L 240.326387 121.892787 
L 240.901019 121.549687 
L 241.165798 121.137967 
L 241.380013 120.932108 
L 241.449218 120.794868 
L 242.097006 120.657628 
L 242.244855 120.177288 
L 243.04093 119.765568 
L 244.200104 118.25593 
L 244.437565 118.05007 
L 245.305556 117.29525 
L 245.503896 117.08939 
L 245.881095 116.540431 
L 246.155131 116.265951 
L 246.699757 115.716991 
L 247.020188 115.511131 
L 247.131118 115.168032 
L 247.676512 114.550452 
L 247.793882 114.207352 
L 248.955579 112.972193 
L 249.093592 112.766333 
L 249.336421 112.491854 
L 249.38667 112.423234 
L 249.660671 112.285994 
L 249.800312 112.080134 
L 250.121508 111.805654 
L 250.21659 111.668414 
L 250.677559 111.393934 
L 250.859782 111.256695 
L 250.922908 111.119455 
L 251.332648 110.776355 
L 251.628883 110.158775 
L 252.370248 109.747056 
L 252.646477 109.403956 
L 252.870806 109.266716 
L 253.413742 108.374657 
L 253.696114 108.168797 
L 254.039839 107.894317 
L 254.06473 107.825697 
L 254.312623 107.688457 
L 254.543563 107.276737 
L 254.805714 106.659158 
L 255.490525 106.384678 
L 256.828258 105.149519 
L 257.425166 104.943659 
L 257.863015 104.394699 
L 257.995057 104.12022 
L 258.629737 103.91436 
L 258.806412 103.7085 
L 258.836668 103.63988 
L 259.240236 103.50264 
L 259.26728 103.29678 
L 259.428938 103.09092 
L 259.542974 102.885061 
L 259.719416 102.679201 
L 259.935544 102.473341 
L 260.309108 102.061621 
L 260.488271 101.924381 
L 260.846751 101.787141 
L 261.440057 100.757842 
L 261.77994 100.620602 
L 262.106435 100.140263 
L 262.14166 99.934403 
L 262.534712 99.659923 
L 262.540118 99.591303 
L 263.125283 99.385443 
L 263.417561 98.836483 
L 263.583862 98.699244 
L 264.379424 98.356144 
L 264.38301 98.287524 
L 264.619462 98.081664 
L 264.888788 97.944424 
L 265.744167 97.395464 
L 265.877658 96.983745 
L 266.453402 96.709265 
L 266.871381 96.297545 
L 267.026724 96.160305 
L 267.128194 96.023065 
L 267.405651 95.679966 
L 268.694536 94.513427 
L 268.868525 94.238947 
L 269.134881 94.033087 
L 269.461201 93.689987 
L 269.97818 93.484127 
L 269.99104 93.415507 
L 270.332823 93.141028 
L 270.500842 92.660688 
L 270.532988 92.592068 
L 271.026705 92.317588 
L 271.095316 92.248968 
L 271.533647 92.111728 
L 272.158459 91.356909 
L 272.244296 91.082429 
L 272.467054 90.876569 
L 272.620273 90.739329 
L 272.88036 90.396229 
L 273.265005 90.19037 
L 273.272434 90.12175 
L 273.679584 89.91589 
L 273.844142 89.71003 
L 273.872294 89.57279 
L 274.53784 89.22969 
L 274.757338 89.09245 
L 275.91624 88.543491 
L 275.983985 88.406251 
L 276.851589 87.171092 
L 277.157337 86.553512 
L 277.630329 86.210412 
L 277.640396 86.141793 
L 278.259141 85.867313 
L 278.304104 85.730073 
L 278.456655 85.592833 
L 278.635227 85.181113 
L 278.9337 84.906633 
L 278.964124 84.838013 
L 279.23615 84.632154 
L 279.34604 84.494914 
L 279.570462 84.014574 
L 279.63914 83.945954 
L 280.101992 83.740094 
L 280.561452 83.534234 
L 280.566124 83.465614 
L 281.073571 83.122515 
L 281.100099 83.053895 
L 281.612908 82.779415 
L 281.708434 82.710795 
L 282.527287 82.436315 
L 283.353242 81.955976 
L 283.464415 81.818736 
L 283.533975 81.544256 
L 284.018853 81.132536 
L 284.035788 81.063916 
L 284.536329 80.858056 
L 284.641418 80.720816 
L 285.874701 80.377717 
L 286.321384 80.103237 
L 286.619656 79.622897 
L 287.067135 79.211178 
L 287.101916 79.142558 
L 287.921631 78.799458 
L 289.832863 77.770159 
L 290.575367 77.495679 
L 290.853886 77.289819 
L 291.227798 77.083959 
L 291.684373 76.946719 
L 292.193273 76.534999 
L 295.850116 74.613641 
L 296.67785 74.476401 
L 297.033783 74.270541 
L 297.327832 74.133301 
L 297.865868 73.927441 
L 298.016293 73.790201 
L 298.606876 73.378482 
L 298.666287 73.309862 
L 299.557715 72.966762 
L 299.637885 72.829522 
L 300.266975 72.555042 
L 300.393812 72.280562 
L 300.772852 72.074703 
L 300.934521 71.868843 
L 301.845383 71.525743 
L 301.884182 71.457123 
L 302.483279 71.251263 
L 304.544835 69.810244 
L 305.316963 69.604384 
L 306.026584 69.329905 
L 306.288828 69.192665 
L 307.25265 68.918185 
L 307.256702 68.849565 
L 307.81147 68.643705 
L 310.146193 67.202686 
L 310.383779 66.996826 
L 311.036508 66.790966 
L 311.280027 66.516487 
L 311.805342 66.242007 
L 311.954188 66.104767 
L 313.128888 65.830287 
L 313.596675 65.281327 
L 313.941738 65.075468 
L 314.168371 64.869608 
L 314.456486 64.663748 
L 314.863682 64.320648 
L 315.863754 63.703069 
L 315.87012 63.634449 
L 318.080921 63.222729 
L 318.547167 62.742389 
L 319.158043 62.605149 
L 319.202286 62.536529 
L 320.166602 62.33067 
L 320.620573 62.05619 
L 320.718749 61.98757 
L 322.178462 61.64447 
L 322.729356 61.43861 
L 322.775099 61.36999 
L 323.48477 61.16413 
L 324.489183 60.821031 
L 324.777548 60.546551 
L 325.460313 60.340691 
L 325.471899 60.272071 
L 326.40345 60.066211 
L 326.490571 59.997591 
L 327.256447 59.791731 
L 329.118576 59.242772 
L 329.284457 59.105532 
L 330.283214 58.831052 
L 331.465815 57.870373 
L 332.302069 57.664513 
L 332.58825 57.458653 
L 333.091378 57.252793 
L 334.076847 56.635214 
L 334.203477 56.497974 
L 337.1887 55.743154 
L 339.008811 55.262815 
L 340.284592 54.988335 
L 340.485839 54.919715 
L 343.70842 54.645235 
L 344.509499 54.302135 
L 345.955134 54.096276 
L 346.215664 53.890416 
L 346.327816 53.821796 
L 347.227112 53.684556 
L 347.406165 53.615936 
L 349.535173 53.341456 
L 349.742465 53.204216 
L 350.615276 53.066976 
L 350.631971 52.998356 
L 351.2038 52.792496 
L 357.755919 51.076998 
L 357.939188 50.939758 
L 358.462 50.802518 
L 359.946368 50.665278 
L 361.313598 50.253558 
L 361.403649 50.116318 
L 363.944141 49.910459 
L 364.249727 49.704599 
L 367.179413 49.498739 
L 368.213324 49.224259 
L 368.403828 49.155639 
L 371.459475 48.675299 
L 371.628006 48.606679 
L 375.780443 48.26358 
L 376.40479 47.92048 
L 381.582938 47.3029 
L 381.713876 47.16566 
L 385.962236 46.891181 
L 387.431839 46.685321 
L 387.501766 46.616701 
L 389.583871 46.410841 
L 389.652905 46.342221 
L 392.706779 46.067741 
L 396.147748 45.793261 
L 396.156984 45.724642 
L 396.667388 45.587402 
L 401.427458 44.969822 
L 402.64236 44.763962 
L 402.828693 44.695342 
L 412.065559 44.077763 
L 412.552726 44.009143 
L 417.04613 43.871903 
L 417.380403 43.734663 
L 424.554331 43.460183 
L 424.555256 43.391563 
L 425.246843 43.117083 
L 425.638828 43.048463 
L 430.365367 42.911224 
L 430.684335 42.842604 
L 437.144543 42.430884 
L 437.753159 42.293644 
L 440.973582 42.156404 
L 458.99368 41.676064 
L 459.589973 41.607444 
L 466.656158 41.401585 
L 485.698559 40.989865 
L 491.660768 40.852625 
L 491.660768 40.852625 
" style="fill:none;stroke:#0000ff;stroke-linecap:square;stroke-width:2.0;"/>
   </g>
   <g id="line2d_2">
    <path clip-path="url(#p94d07467a6)" d="M 74.48625 368.71875 
L 74.592686 368.32973 
L 74.690659 368.096318 
L 74.830203 367.785102 
L 75.088412 367.55169 
L 75.211555 366.929258 
L 75.229675 366.851454 
L 75.507984 366.695846 
L 75.583745 366.38463 
L 75.778599 365.917805 
L 76.010497 365.762197 
L 76.452271 364.595137 
L 76.738382 364.361725 
L 76.978248 363.739293 
L 77.388543 362.805645 
L 77.543412 362.572233 
L 77.992074 362.027605 
L 78.205483 361.638585 
L 79.011368 360.39372 
L 79.023203 360.315916 
L 79.215734 360.160308 
L 79.370624 359.771288 
L 79.433432 359.460072 
L 79.457253 359.382268 
L 79.747507 359.148856 
L 79.855811 358.759836 
L 80.197092 358.0596 
L 80.342842 357.67058 
L 80.477632 357.28156 
L 80.640874 357.048148 
L 80.708487 356.736931 
L 80.877502 356.581323 
L 80.989302 356.036695 
L 81.121628 355.803283 
L 81.65911 354.714027 
L 81.800911 354.169399 
L 82.009537 353.780379 
L 82.184186 353.391359 
L 82.443782 352.846731 
L 82.971134 351.990886 
L 83.115215 351.601866 
L 83.405894 350.979434 
L 83.539662 350.279198 
L 83.764367 349.967982 
L 83.908227 349.267746 
L 84.276657 348.800922 
L 84.59431 347.40045 
L 84.719283 347.167037 
L 84.806494 347.011429 
L 84.988011 346.778017 
L 85.186877 345.999977 
L 85.765114 344.677309 
L 86.040999 344.443897 
L 86.189525 344.210485 
L 86.324565 343.665857 
L 86.716976 343.199033 
L 86.963947 343.043425 
L 87.094125 342.498796 
L 87.16418 342.343188 
L 87.392576 342.18758 
L 87.593174 342.031972 
L 87.74954 341.79856 
L 87.835167 341.565148 
L 88.156803 341.40954 
L 88.269441 340.864912 
L 88.466331 340.320284 
L 88.702255 340.086872 
L 89.290959 338.764204 
L 89.388611 338.219576 
L 89.58985 337.830555 
L 89.725031 337.519339 
L 90.136877 336.663495 
L 90.23986 336.430083 
L 90.378079 336.041063 
L 90.485695 335.807651 
L 91.005481 334.951807 
L 91.235221 334.718395 
L 91.527873 333.862551 
L 92.276564 332.851098 
L 93.264178 330.75039 
L 93.398015 330.594782 
L 93.556121 330.205762 
L 93.600007 329.97235 
L 93.911956 329.661134 
L 94.079106 329.116506 
L 94.28645 328.883094 
L 94.366403 328.41627 
L 94.709347 328.105053 
L 95.041586 327.404817 
L 95.367866 326.004345 
L 96.013835 324.759481 
L 96.258561 324.292657 
L 96.929215 322.736576 
L 97.091817 322.191948 
L 97.276041 321.880732 
L 97.448312 321.336104 
L 97.558293 321.024888 
L 97.741658 320.791476 
L 97.834161 320.48026 
L 98.000554 319.857828 
L 98.153409 319.546612 
L 98.257049 319.235396 
L 98.326503 318.92418 
L 98.439219 318.612963 
L 98.628409 318.146139 
L 99.002863 316.901275 
L 99.20497 316.434451 
L 99.631535 315.033979 
L 99.836301 314.878371 
L 99.96989 314.178135 
L 100.116966 313.477898 
L 100.265025 313.011074 
L 100.464343 312.699858 
L 100.56931 312.54425 
L 101.062762 311.221582 
L 101.215979 310.98817 
L 101.418073 310.21013 
L 101.59268 309.509894 
L 101.776742 308.965265 
L 101.874973 308.731853 
L 102.137342 307.953813 
L 103.730831 304.530436 
L 103.954793 303.8302 
L 104.316793 303.285572 
L 104.550689 302.585336 
L 104.761166 301.962904 
L 104.937949 301.807296 
L 105.53834 300.095608 
L 106.49125 297.761487 
L 106.6241 297.372467 
L 106.74191 296.983447 
L 107.02352 296.205407 
L 107.1315 295.738583 
L 107.26854 295.427367 
L 107.2695 295.349563 
L 107.459216 295.116151 
L 107.5958 294.493718 
L 107.812701 294.260306 
L 107.995121 293.871286 
L 108.091481 293.56007 
L 108.225647 293.17105 
L 108.605293 292.237402 
L 108.733341 291.770578 
L 108.905131 291.381558 
L 109.294412 289.747673 
L 110.71559 286.479905 
L 110.896815 286.168689 
L 110.983355 285.857473 
L 111.082694 285.624061 
L 111.236614 284.923824 
L 111.338214 284.534804 
L 111.905965 282.978724 
L 112.094139 282.745312 
L 112.189841 282.278488 
L 112.50999 281.73386 
L 112.649805 281.34484 
L 112.775073 281.111428 
L 112.987928 280.177779 
L 113.113939 279.710955 
L 113.266544 279.477543 
L 113.319836 279.321935 
L 113.517448 279.166327 
L 113.744313 277.921463 
L 113.864086 277.765855 
L 113.959471 277.532443 
L 114.187461 277.299031 
L 114.265792 276.987815 
L 114.404551 276.754403 
L 114.539232 276.287579 
L 114.798708 275.431734 
L 114.927956 274.809302 
L 115.141867 274.109066 
L 115.245592 273.642242 
L 116.463561 271.619338 
L 116.952817 271.152513 
L 117.06431 270.763493 
L 117.20014 270.141061 
L 117.645181 268.584981 
L 117.827994 268.429373 
L 117.965626 268.118157 
L 118.086626 267.651333 
L 118.198032 267.417921 
L 118.482424 266.406468 
L 118.61142 266.173056 
L 119.325331 264.072348 
L 119.638215 263.683328 
L 119.862114 263.372112 
L 120.521461 261.816032 
L 120.618498 261.504815 
L 120.888395 261.271403 
L 121.090393 260.726775 
L 121.421801 259.248499 
L 121.8487 258.626067 
L 121.952752 257.925831 
L 122.146338 257.692419 
L 122.292529 256.914378 
L 122.385394 256.603162 
L 122.658558 256.36975 
L 122.944963 255.747318 
L 123.105279 255.436102 
L 123.519727 254.269042 
L 123.685339 253.880022 
L 123.810062 253.64661 
L 123.972549 253.335394 
L 124.105249 252.86857 
L 126.34037 246.48864 
L 126.449711 245.866208 
L 126.611031 245.7106 
L 126.649592 245.399384 
L 126.756388 245.243776 
L 127.048872 244.15452 
L 127.443755 242.98746 
L 127.611878 242.598439 
L 127.907819 242.209419 
L 128.028545 241.898203 
L 128.218942 241.275771 
L 128.335162 241.120163 
L 128.480133 240.419927 
L 128.790634 239.953103 
L 129.081354 238.941651 
L 129.257876 238.397023 
L 129.379795 237.852394 
L 129.464495 237.618982 
L 129.549293 237.38557 
L 129.825544 236.374118 
L 129.958134 236.062902 
L 130.040844 235.82949 
L 130.420344 234.506822 
L 130.602242 233.728782 
L 130.935641 233.106349 
L 130.985698 232.872937 
L 131.321685 232.483917 
L 131.447187 231.628073 
L 131.860247 229.916385 
L 131.962554 229.682973 
L 132.248765 228.360304 
L 132.676635 227.271048 
L 132.875249 226.570812 
L 132.981183 226.3374 
L 133.062256 225.870576 
L 133.193454 225.55936 
L 133.332274 225.014732 
L 133.729185 224.081084 
L 133.962155 223.458651 
L 134.095951 223.225239 
L 134.19877 222.836219 
L 134.360273 222.602807 
L 134.43254 222.291591 
L 134.630669 222.058179 
L 134.716959 221.357943 
L 135.34235 219.801863 
L 135.812445 217.934566 
L 135.953855 217.62335 
L 136.25476 216.767506 
L 136.432964 216.534094 
L 136.527371 216.378486 
L 136.684568 216.06727 
L 136.805254 215.756054 
L 137.126615 214.978014 
L 137.237829 214.666798 
L 137.650748 214.044365 
L 137.861421 213.733149 
L 137.98602 213.577541 
L 138.146519 213.110717 
L 138.439593 212.332677 
L 138.675029 211.865853 
L 138.861314 211.476833 
L 139.732165 208.52028 
L 139.923009 207.897848 
L 140.086957 207.508828 
L 141.123186 204.863492 
L 141.203437 204.630079 
L 141.231715 204.474471 
L 141.408218 204.318863 
L 141.796999 203.151803 
L 142.082181 202.373763 
L 142.488537 201.362311 
L 142.858095 201.128899 
L 142.983788 200.584271 
L 143.157011 200.350859 
L 143.193109 200.117447 
L 143.360338 199.961838 
L 143.669844 199.41721 
L 143.817762 199.183798 
L 144.093617 198.63917 
L 144.312434 197.783326 
L 144.623985 197.005286 
L 144.738435 196.538462 
L 145.072623 196.149442 
L 145.264171 195.682618 
L 145.563616 195.293598 
L 145.709969 195.060185 
L 145.914364 194.437753 
L 146.068741 194.048733 
L 146.244607 193.737517 
L 146.262886 193.659713 
L 146.486029 193.426301 
L 146.54818 193.192889 
L 146.62342 193.037281 
L 147.110754 192.492653 
L 147.220446 191.870221 
L 147.841757 189.92512 
L 147.946241 189.691708 
L 148.044741 189.302688 
L 148.216859 189.069276 
L 148.682552 188.057824 
L 148.995187 187.746608 
L 149.086425 187.20198 
L 149.863097 185.957116 
L 150.122734 185.179075 
L 150.311508 184.790055 
L 150.410244 184.478839 
L 150.50017 184.167623 
L 150.752251 183.389583 
L 151.121988 182.689347 
L 151.262473 181.911307 
L 151.582412 181.211071 
L 151.694539 180.82205 
L 151.900786 180.510834 
L 152.289644 179.110362 
L 152.415955 178.954754 
L 152.532602 178.410126 
L 152.8419 177.943302 
L 153.007772 177.787694 
L 153.077669 177.476478 
L 153.312113 177.165262 
L 153.425779 176.698438 
L 153.561395 176.231613 
L 153.867215 175.453573 
L 153.972184 174.986749 
L 154.190719 174.130905 
L 154.67903 173.041649 
L 154.773424 172.730433 
L 155.014583 172.419217 
L 155.308795 171.563373 
L 156.302634 168.373408 
L 156.451191 168.139996 
L 156.583748 167.750976 
L 157.570491 164.638815 
L 157.798099 164.483207 
L 157.914517 164.094187 
L 158.006126 163.860775 
L 158.132542 163.393951 
L 158.438054 163.082735 
L 158.868479 161.371046 
L 158.984298 161.137634 
L 159.611669 159.270338 
L 159.701318 158.959122 
L 159.934952 158.570102 
L 160.246668 157.636454 
L 160.467857 157.403042 
L 161.336706 155.535745 
L 161.445932 155.224529 
L 161.741173 154.602097 
L 161.859927 154.057469 
L 162.153061 153.123821 
L 162.261508 152.656997 
L 162.492666 152.423584 
L 162.692572 151.878956 
L 162.807911 151.489936 
L 162.975385 151.023112 
L 163.123373 150.634092 
L 163.217685 150.322876 
L 163.537151 149.856052 
L 163.647395 149.700444 
L 163.886927 149.467032 
L 164.226029 148.45558 
L 164.265154 148.144364 
L 164.42297 147.988756 
L 164.586617 147.599735 
L 164.9287 147.444127 
L 165.580284 146.043655 
L 165.776252 145.810243 
L 166.341402 144.876595 
L 166.700111 144.098555 
L 166.846647 143.787339 
L 167.072268 142.931494 
L 167.214525 142.698082 
L 167.439586 142.153454 
L 167.68173 141.375414 
L 168.430869 139.35251 
L 168.724957 138.807882 
L 168.843666 138.341058 
L 169.006481 138.029841 
L 169.356887 136.940585 
L 169.517359 136.707173 
L 169.726899 136.006937 
L 169.88527 135.462309 
L 170.201982 134.762073 
L 170.331162 134.528661 
L 170.508582 134.061837 
L 171.155349 132.816972 
L 171.278267 132.58356 
L 171.559534 131.961128 
L 171.756587 131.80552 
L 172.186888 130.871872 
L 172.447167 130.63846 
L 172.842986 129.704812 
L 173.057568 128.926772 
L 173.492221 127.604103 
L 173.917476 126.437043 
L 174.204051 125.814611 
L 174.583643 125.503395 
L 174.689554 125.347787 
L 174.836471 125.036571 
L 174.998249 124.803159 
L 175.219777 124.414139 
L 175.346095 124.180727 
L 175.473296 123.86951 
L 175.641208 123.402686 
L 175.916515 123.09147 
L 176.508893 122.002214 
L 176.66441 121.768802 
L 176.781686 121.457586 
L 177.147711 120.75735 
L 177.476635 120.290526 
L 177.736277 119.901506 
L 178.092074 119.59029 
L 178.149548 119.356878 
L 178.289115 119.123465 
L 178.607347 118.423229 
L 178.68697 118.189817 
L 178.84187 117.878601 
L 179.551815 116.555933 
L 179.970964 116.244717 
L 180.195152 115.622285 
L 180.624962 115.155461 
L 181.640177 113.132556 
L 181.792968 112.899144 
L 182.324638 112.0433 
L 182.346053 111.887692 
L 182.566096 111.65428 
L 182.666458 111.420868 
L 182.970003 111.187456 
L 182.977742 111.109652 
L 183.266765 110.87624 
L 183.685 110.0982 
L 183.750252 109.864788 
L 183.84885 109.631375 
L 183.998433 109.008943 
L 184.223707 108.619923 
L 184.331943 108.464315 
L 184.452207 108.308707 
L 184.75472 107.452863 
L 185.901008 105.818979 
L 185.921689 105.741175 
L 186.214717 105.507763 
L 186.427375 105.118743 
L 186.475147 104.963134 
L 186.611284 104.729722 
L 186.924181 104.340702 
L 187.305163 103.407054 
L 187.690417 103.018034 
L 187.916299 102.629014 
L 188.118496 102.317798 
L 188.350158 102.084386 
L 188.637583 101.77317 
L 188.971979 101.228542 
L 189.276208 100.839522 
L 189.457935 100.450502 
L 189.581642 100.294894 
L 189.724467 99.672461 
L 190.072095 99.361245 
L 190.183198 98.816617 
L 190.32099 98.583205 
L 190.898763 98.271989 
L 190.963003 97.960773 
L 191.177898 97.727361 
L 191.735553 96.793713 
L 191.936832 96.638105 
L 191.968076 96.482497 
L 192.154089 96.326889 
L 192.19924 96.093477 
L 192.283054 95.860065 
L 192.450391 95.548849 
L 192.669355 95.39324 
L 193.380805 94.6152 
L 193.652184 93.914964 
L 194.250155 93.214728 
L 194.406426 92.981316 
L 194.940331 91.969864 
L 195.474434 91.658648 
L 196.025244 90.880608 
L 196.144415 90.647195 
L 196.256154 90.180371 
L 196.278687 90.102567 
L 196.609956 89.869155 
L 197.256172 88.702095 
L 197.424672 88.546487 
L 197.983856 87.612839 
L 198.440478 87.146015 
L 198.617239 86.834799 
L 198.637417 86.679191 
L 199.02616 86.367975 
L 199.407532 86.056759 
L 199.462233 85.978954 
L 199.747007 85.823346 
L 199.821265 85.51213 
L 200.032431 85.278718 
L 200.252119 85.045306 
L 200.788975 84.189462 
L 201.560141 83.411422 
L 201.667827 83.100206 
L 202.213092 82.866794 
L 202.490773 82.39997 
L 202.956396 82.244362 
L 203.177582 81.933146 
L 203.368932 81.699734 
L 203.418842 81.544126 
L 203.564438 81.388518 
L 203.564585 81.310714 
L 203.828268 81.155105 
L 204.282827 80.688281 
L 204.727085 80.454869 
L 204.924678 80.143653 
L 205.162073 79.988045 
L 205.294982 79.832437 
L 205.978787 79.599025 
L 206.044028 79.210005 
L 206.307409 78.976593 
L 206.737974 78.509769 
L 206.868525 78.276357 
L 207.227194 78.120749 
L 207.634333 77.342709 
L 208.022012 76.953689 
L 208.112098 76.642473 
L 208.492312 76.40906 
L 208.58069 76.331256 
L 209.305337 76.097844 
L 209.435053 75.786628 
L 210.840395 75.008588 
L 211.056221 74.775176 
L 211.08707 74.619568 
L 211.782258 74.230548 
L 211.984024 73.997136 
L 212.307483 73.68592 
L 212.349203 73.530312 
L 212.518806 73.374704 
L 212.654709 73.063488 
L 213.194273 72.596664 
L 213.690627 72.363252 
L 214.2149 71.74082 
L 214.230345 71.663015 
L 214.441911 71.507407 
L 216.32171 69.173287 
L 216.32556 69.095483 
L 216.625338 68.939875 
L 217.826125 67.695011 
L 218.4744 67.461599 
L 218.548284 67.383795 
L 219.100998 67.228187 
L 219.257336 66.994775 
L 220.548789 66.13893 
L 220.625684 65.983322 
L 220.9193 65.74991 
L 221.274702 65.594302 
L 221.756553 65.127478 
L 221.845104 64.894066 
L 221.928999 64.738458 
L 222.347546 64.58285 
L 222.524678 64.271634 
L 222.759444 64.038222 
L 224.132175 63.182378 
L 224.268387 63.02677 
L 224.621523 62.63775 
L 224.974625 62.482142 
L 225.094962 62.326534 
L 226.229944 61.626297 
L 226.544622 61.470689 
L 227.060818 61.081669 
L 227.315752 60.770453 
L 227.57404 60.459237 
L 227.907661 60.148021 
L 228.281637 59.836805 
L 228.644763 59.681197 
L 228.701182 59.525589 
L 229.066661 59.369981 
L 229.439378 58.980961 
L 229.875754 58.747549 
L 229.900516 58.669745 
L 230.525751 58.436333 
L 230.619251 58.280725 
L 233.095453 57.42488 
L 233.103584 57.347076 
L 233.714506 57.191468 
L 233.889004 57.03586 
L 234.198553 56.802448 
L 235.10568 56.180016 
L 235.137737 56.102212 
L 235.466266 55.946604 
L 235.602298 55.790996 
L 235.631248 55.713192 
L 236.324789 55.47978 
L 236.363107 55.401976 
L 236.885757 55.246368 
L 237.760317 54.935152 
L 237.802091 54.857348 
L 240.254654 54.390524 
L 240.428935 54.157112 
L 241.160309 53.9237 
L 241.196016 53.845896 
L 241.716384 53.53468 
L 241.724848 53.456876 
L 241.889762 53.379072 
L 242.72875 53.223464 
L 243.644935 52.834444 
L 243.917478 52.678835 
L 244.851844 52.445423 
L 244.907759 52.289815 
L 246.311896 51.978599 
L 246.664119 51.667383 
L 247.383564 51.278363 
L 247.750818 51.044951 
L 248.539692 50.889343 
L 248.720147 50.655931 
L 249.046748 50.422519 
L 250.113656 50.266911 
L 251.049241 49.877891 
L 252.56182 49.644479 
L 254.169146 49.255459 
L 254.37255 49.022047 
L 254.551102 48.944243 
L 255.167184 48.788635 
L 256.224687 48.321811 
L 261.728873 47.388162 
L 262.075307 47.232554 
L 265.748646 46.687926 
L 268.279804 46.532318 
L 268.602411 46.37671 
L 268.605379 46.298906 
L 269.081079 46.065494 
L 269.081407 45.98769 
L 270.188224 45.59867 
L 270.273963 45.520866 
L 271.015266 45.365258 
L 271.136751 45.287454 
L 278.652608 44.276002 
L 280.047665 44.120394 
L 280.327378 44.04259 
L 281.641856 43.809178 
L 289.420506 42.875529 
L 294.575608 42.564313 
L 302.02815 41.708469 
L 322.354389 41.008233 
L 322.571621 40.930429 
L 324.569185 40.852625 
L 324.569185 40.852625 
" style="fill:none;stroke:#008000;stroke-linecap:square;stroke-width:2.0;"/>
   </g>
   <g id="patch_3">
    <path d="M 539.38125 368.71875 
L 539.38125 40.852625 
" style="fill:none;stroke:#000000;stroke-linecap:square;stroke-linejoin:miter;stroke-width:2.0;"/>
   </g>
   <g id="patch_4">
    <path d="M 74.48625 40.852625 
L 539.38125 40.852625 
" style="fill:none;stroke:#000000;stroke-linecap:square;stroke-linejoin:miter;stroke-width:2.0;"/>
   </g>
   <g id="patch_5">
    <path d="M 74.48625 368.71875 
L 74.48625 40.852625 
" style="fill:none;stroke:#000000;stroke-linecap:square;stroke-linejoin:miter;stroke-width:2.0;"/>
   </g>
   <g id="patch_6">
    <path d="M 74.48625 368.71875 
L 539.38125 368.71875 
" style="fill:none;stroke:#000000;stroke-linecap:square;stroke-linejoin:miter;stroke-width:2.0;"/>
   </g>
   <g id="matplotlib.axis_1">
    <g id="xtick_1">
     <g id="line2d_3">
      <path clip-path="url(#p94d07467a6)" d="M 74.48625 368.71875 
L 74.48625 40.852625 
" style="fill:none;stroke:#000000;stroke-dasharray:1.000000,3.000000;stroke-dashoffset:0.0;stroke-width:2.0;"/>
     </g>
     <g id="line2d_4">
      <defs>
       <path d="M 0 0 
L 0 -4 
" id="ma7342ab516" style="stroke:#000000;stroke-width:0.5;"/>
      </defs>
      <g>
       <use style="stroke:#000000;stroke-width:0.5;" x="74.48625" xlink:href="#ma7342ab516" y="368.71875"/>
      </g>
     </g>
     <g id="line2d_5">
      <defs>
       <path d="M 0 0 
L 0 4 
" id="mb18c0e0e58" style="stroke:#000000;stroke-width:0.5;"/>
      </defs>
      <g>
       <use style="stroke:#000000;stroke-width:0.5;" x="74.48625" xlink:href="#mb18c0e0e58" y="40.852625"/>
      </g>
     </g>
     <g id="text_1">
      <!-- 0 -->
      <defs>
       <path d="M 31.78125 66.40625 
Q 24.171875 66.40625 20.328125 58.90625 
Q 16.5 51.421875 16.5 36.375 
Q 16.5 21.390625 20.328125 13.890625 
Q 24.171875 6.390625 31.78125 6.390625 
Q 39.453125 6.390625 43.28125 13.890625 
Q 47.125 21.390625 47.125 36.375 
Q 47.125 51.421875 43.28125 58.90625 
Q 39.453125 66.40625 31.78125 66.40625 
M 31.78125 74.21875 
Q 44.046875 74.21875 50.515625 64.515625 
Q 56.984375 54.828125 56.984375 36.375 
Q 56.984375 17.96875 50.515625 8.265625 
Q 44.046875 -1.421875 31.78125 -1.421875 
Q 19.53125 -1.421875 13.0625 8.265625 
Q 6.59375 17.96875 6.59375 36.375 
Q 6.59375 54.828125 13.0625 64.515625 
Q 19.53125 74.21875 31.78125 74.21875 
" id="BitstreamVeraSans-Roman-30"/>
      </defs>
      <g transform="translate(68.76 386.3959375)scale(0.18 -0.18)">
       <use xlink:href="#BitstreamVeraSans-Roman-30"/>
      </g>
     </g>
    </g>
    <g id="xtick_2">
     <g id="line2d_6">
      <path clip-path="url(#p94d07467a6)" d="M 132.598125 368.71875 
L 132.598125 40.852625 
" style="fill:none;stroke:#000000;stroke-dasharray:1.000000,3.000000;stroke-dashoffset:0.0;stroke-width:2.0;"/>
     </g>
     <g id="line2d_7">
      <g>
       <use style="stroke:#000000;stroke-width:0.5;" x="132.598125" xlink:href="#ma7342ab516" y="368.71875"/>
      </g>
     </g>
     <g id="line2d_8">
      <g>
       <use style="stroke:#000000;stroke-width:0.5;" x="132.598125" xlink:href="#mb18c0e0e58" y="40.852625"/>
      </g>
     </g>
     <g id="text_2">
      <!-- 50 -->
      <defs>
       <path d="M 10.796875 72.90625 
L 49.515625 72.90625 
L 49.515625 64.59375 
L 19.828125 64.59375 
L 19.828125 46.734375 
Q 21.96875 47.46875 24.109375 47.828125 
Q 26.265625 48.1875 28.421875 48.1875 
Q 40.625 48.1875 47.75 41.5 
Q 54.890625 34.8125 54.890625 23.390625 
Q 54.890625 11.625 47.5625 5.09375 
Q 40.234375 -1.421875 26.90625 -1.421875 
Q 22.3125 -1.421875 17.546875 -0.640625 
Q 12.796875 0.140625 7.71875 1.703125 
L 7.71875 11.625 
Q 12.109375 9.234375 16.796875 8.0625 
Q 21.484375 6.890625 26.703125 6.890625 
Q 35.15625 6.890625 40.078125 11.328125 
Q 45.015625 15.765625 45.015625 23.390625 
Q 45.015625 31 40.078125 35.4375 
Q 35.15625 39.890625 26.703125 39.890625 
Q 22.75 39.890625 18.8125 39.015625 
Q 14.890625 38.140625 10.796875 36.28125 
z
" id="BitstreamVeraSans-Roman-35"/>
      </defs>
      <g transform="translate(121.145625 386.3959375)scale(0.18 -0.18)">
       <use xlink:href="#BitstreamVeraSans-Roman-35"/>
       <use x="63.623046875" xlink:href="#BitstreamVeraSans-Roman-30"/>
      </g>
     </g>
    </g>
    <g id="xtick_3">
     <g id="line2d_9">
      <path clip-path="url(#p94d07467a6)" d="M 190.71 368.71875 
L 190.71 40.852625 
" style="fill:none;stroke:#000000;stroke-dasharray:1.000000,3.000000;stroke-dashoffset:0.0;stroke-width:2.0;"/>
     </g>
     <g id="line2d_10">
      <g>
       <use style="stroke:#000000;stroke-width:0.5;" x="190.71" xlink:href="#ma7342ab516" y="368.71875"/>
      </g>
     </g>
     <g id="line2d_11">
      <g>
       <use style="stroke:#000000;stroke-width:0.5;" x="190.71" xlink:href="#mb18c0e0e58" y="40.852625"/>
      </g>
     </g>
     <g id="text_3">
      <!-- 100 -->
      <defs>
       <path d="M 12.40625 8.296875 
L 28.515625 8.296875 
L 28.515625 63.921875 
L 10.984375 60.40625 
L 10.984375 69.390625 
L 28.421875 72.90625 
L 38.28125 72.90625 
L 38.28125 8.296875 
L 54.390625 8.296875 
L 54.390625 0 
L 12.40625 0 
z
" id="BitstreamVeraSans-Roman-31"/>
      </defs>
      <g transform="translate(173.53125 386.3959375)scale(0.18 -0.18)">
       <use xlink:href="#BitstreamVeraSans-Roman-31"/>
       <use x="63.623046875" xlink:href="#BitstreamVeraSans-Roman-30"/>
       <use x="127.24609375" xlink:href="#BitstreamVeraSans-Roman-30"/>
      </g>
     </g>
    </g>
    <g id="xtick_4">
     <g id="line2d_12">
      <path clip-path="url(#p94d07467a6)" d="M 248.821875 368.71875 
L 248.821875 40.852625 
" style="fill:none;stroke:#000000;stroke-dasharray:1.000000,3.000000;stroke-dashoffset:0.0;stroke-width:2.0;"/>
     </g>
     <g id="line2d_13">
      <g>
       <use style="stroke:#000000;stroke-width:0.5;" x="248.821875" xlink:href="#ma7342ab516" y="368.71875"/>
      </g>
     </g>
     <g id="line2d_14">
      <g>
       <use style="stroke:#000000;stroke-width:0.5;" x="248.821875" xlink:href="#mb18c0e0e58" y="40.852625"/>
      </g>
     </g>
     <g id="text_4">
      <!-- 150 -->
      <g transform="translate(231.643125 386.3959375)scale(0.18 -0.18)">
       <use xlink:href="#BitstreamVeraSans-Roman-31"/>
       <use x="63.623046875" xlink:href="#BitstreamVeraSans-Roman-35"/>
       <use x="127.24609375" xlink:href="#BitstreamVeraSans-Roman-30"/>
      </g>
     </g>
    </g>
    <g id="xtick_5">
     <g id="line2d_15">
      <path clip-path="url(#p94d07467a6)" d="M 306.93375 368.71875 
L 306.93375 40.852625 
" style="fill:none;stroke:#000000;stroke-dasharray:1.000000,3.000000;stroke-dashoffset:0.0;stroke-width:2.0;"/>
     </g>
     <g id="line2d_16">
      <g>
       <use style="stroke:#000000;stroke-width:0.5;" x="306.93375" xlink:href="#ma7342ab516" y="368.71875"/>
      </g>
     </g>
     <g id="line2d_17">
      <g>
       <use style="stroke:#000000;stroke-width:0.5;" x="306.93375" xlink:href="#mb18c0e0e58" y="40.852625"/>
      </g>
     </g>
     <g id="text_5">
      <!-- 200 -->
      <defs>
       <path d="M 19.1875 8.296875 
L 53.609375 8.296875 
L 53.609375 0 
L 7.328125 0 
L 7.328125 8.296875 
Q 12.9375 14.109375 22.625 23.890625 
Q 32.328125 33.6875 34.8125 36.53125 
Q 39.546875 41.84375 41.421875 45.53125 
Q 43.3125 49.21875 43.3125 52.78125 
Q 43.3125 58.59375 39.234375 62.25 
Q 35.15625 65.921875 28.609375 65.921875 
Q 23.96875 65.921875 18.8125 64.3125 
Q 13.671875 62.703125 7.8125 59.421875 
L 7.8125 69.390625 
Q 13.765625 71.78125 18.9375 73 
Q 24.125 74.21875 28.421875 74.21875 
Q 39.75 74.21875 46.484375 68.546875 
Q 53.21875 62.890625 53.21875 53.421875 
Q 53.21875 48.921875 51.53125 44.890625 
Q 49.859375 40.875 45.40625 35.40625 
Q 44.1875 33.984375 37.640625 27.21875 
Q 31.109375 20.453125 19.1875 8.296875 
" id="BitstreamVeraSans-Roman-32"/>
      </defs>
      <g transform="translate(289.755 386.3959375)scale(0.18 -0.18)">
       <use xlink:href="#BitstreamVeraSans-Roman-32"/>
       <use x="63.623046875" xlink:href="#BitstreamVeraSans-Roman-30"/>
       <use x="127.24609375" xlink:href="#BitstreamVeraSans-Roman-30"/>
      </g>
     </g>
    </g>
    <g id="xtick_6">
     <g id="line2d_18">
      <path clip-path="url(#p94d07467a6)" d="M 365.045625 368.71875 
L 365.045625 40.852625 
" style="fill:none;stroke:#000000;stroke-dasharray:1.000000,3.000000;stroke-dashoffset:0.0;stroke-width:2.0;"/>
     </g>
     <g id="line2d_19">
      <g>
       <use style="stroke:#000000;stroke-width:0.5;" x="365.045625" xlink:href="#ma7342ab516" y="368.71875"/>
      </g>
     </g>
     <g id="line2d_20">
      <g>
       <use style="stroke:#000000;stroke-width:0.5;" x="365.045625" xlink:href="#mb18c0e0e58" y="40.852625"/>
      </g>
     </g>
     <g id="text_6">
      <!-- 250 -->
      <g transform="translate(347.866875 386.3959375)scale(0.18 -0.18)">
       <use xlink:href="#BitstreamVeraSans-Roman-32"/>
       <use x="63.623046875" xlink:href="#BitstreamVeraSans-Roman-35"/>
       <use x="127.24609375" xlink:href="#BitstreamVeraSans-Roman-30"/>
      </g>
     </g>
    </g>
    <g id="xtick_7">
     <g id="line2d_21">
      <path clip-path="url(#p94d07467a6)" d="M 423.1575 368.71875 
L 423.1575 40.852625 
" style="fill:none;stroke:#000000;stroke-dasharray:1.000000,3.000000;stroke-dashoffset:0.0;stroke-width:2.0;"/>
     </g>
     <g id="line2d_22">
      <g>
       <use style="stroke:#000000;stroke-width:0.5;" x="423.1575" xlink:href="#ma7342ab516" y="368.71875"/>
      </g>
     </g>
     <g id="line2d_23">
      <g>
       <use style="stroke:#000000;stroke-width:0.5;" x="423.1575" xlink:href="#mb18c0e0e58" y="40.852625"/>
      </g>
     </g>
     <g id="text_7">
      <!-- 300 -->
      <defs>
       <path d="M 40.578125 39.3125 
Q 47.65625 37.796875 51.625 33 
Q 55.609375 28.21875 55.609375 21.1875 
Q 55.609375 10.40625 48.1875 4.484375 
Q 40.765625 -1.421875 27.09375 -1.421875 
Q 22.515625 -1.421875 17.65625 -0.515625 
Q 12.796875 0.390625 7.625 2.203125 
L 7.625 11.71875 
Q 11.71875 9.328125 16.59375 8.109375 
Q 21.484375 6.890625 26.8125 6.890625 
Q 36.078125 6.890625 40.9375 10.546875 
Q 45.796875 14.203125 45.796875 21.1875 
Q 45.796875 27.640625 41.28125 31.265625 
Q 36.765625 34.90625 28.71875 34.90625 
L 20.21875 34.90625 
L 20.21875 43.015625 
L 29.109375 43.015625 
Q 36.375 43.015625 40.234375 45.921875 
Q 44.09375 48.828125 44.09375 54.296875 
Q 44.09375 59.90625 40.109375 62.90625 
Q 36.140625 65.921875 28.71875 65.921875 
Q 24.65625 65.921875 20.015625 65.03125 
Q 15.375 64.15625 9.8125 62.3125 
L 9.8125 71.09375 
Q 15.4375 72.65625 20.34375 73.4375 
Q 25.25 74.21875 29.59375 74.21875 
Q 40.828125 74.21875 47.359375 69.109375 
Q 53.90625 64.015625 53.90625 55.328125 
Q 53.90625 49.265625 50.4375 45.09375 
Q 46.96875 40.921875 40.578125 39.3125 
" id="BitstreamVeraSans-Roman-33"/>
      </defs>
      <g transform="translate(405.97875 386.3959375)scale(0.18 -0.18)">
       <use xlink:href="#BitstreamVeraSans-Roman-33"/>
       <use x="63.623046875" xlink:href="#BitstreamVeraSans-Roman-30"/>
       <use x="127.24609375" xlink:href="#BitstreamVeraSans-Roman-30"/>
      </g>
     </g>
    </g>
    <g id="xtick_8">
     <g id="line2d_24">
      <path clip-path="url(#p94d07467a6)" d="M 481.269375 368.71875 
L 481.269375 40.852625 
" style="fill:none;stroke:#000000;stroke-dasharray:1.000000,3.000000;stroke-dashoffset:0.0;stroke-width:2.0;"/>
     </g>
     <g id="line2d_25">
      <g>
       <use style="stroke:#000000;stroke-width:0.5;" x="481.269375" xlink:href="#ma7342ab516" y="368.71875"/>
      </g>
     </g>
     <g id="line2d_26">
      <g>
       <use style="stroke:#000000;stroke-width:0.5;" x="481.269375" xlink:href="#mb18c0e0e58" y="40.852625"/>
      </g>
     </g>
     <g id="text_8">
      <!-- 350 -->
      <g transform="translate(464.090625 386.3959375)scale(0.18 -0.18)">
       <use xlink:href="#BitstreamVeraSans-Roman-33"/>
       <use x="63.623046875" xlink:href="#BitstreamVeraSans-Roman-35"/>
       <use x="127.24609375" xlink:href="#BitstreamVeraSans-Roman-30"/>
      </g>
     </g>
    </g>
    <g id="xtick_9">
     <g id="line2d_27">
      <path clip-path="url(#p94d07467a6)" d="M 539.38125 368.71875 
L 539.38125 40.852625 
" style="fill:none;stroke:#000000;stroke-dasharray:1.000000,3.000000;stroke-dashoffset:0.0;stroke-width:2.0;"/>
     </g>
     <g id="line2d_28">
      <g>
       <use style="stroke:#000000;stroke-width:0.5;" x="539.38125" xlink:href="#ma7342ab516" y="368.71875"/>
      </g>
     </g>
     <g id="line2d_29">
      <g>
       <use style="stroke:#000000;stroke-width:0.5;" x="539.38125" xlink:href="#mb18c0e0e58" y="40.852625"/>
      </g>
     </g>
     <g id="text_9">
      <!-- 400 -->
      <defs>
       <path d="M 37.796875 64.3125 
L 12.890625 25.390625 
L 37.796875 25.390625 
z
M 35.203125 72.90625 
L 47.609375 72.90625 
L 47.609375 25.390625 
L 58.015625 25.390625 
L 58.015625 17.1875 
L 47.609375 17.1875 
L 47.609375 0 
L 37.796875 0 
L 37.796875 17.1875 
L 4.890625 17.1875 
L 4.890625 26.703125 
z
" id="BitstreamVeraSans-Roman-34"/>
      </defs>
      <g transform="translate(522.2025 386.3959375)scale(0.18 -0.18)">
       <use xlink:href="#BitstreamVeraSans-Roman-34"/>
       <use x="63.623046875" xlink:href="#BitstreamVeraSans-Roman-30"/>
       <use x="127.24609375" xlink:href="#BitstreamVeraSans-Roman-30"/>
      </g>
     </g>
    </g>
    <g id="text_10">
     <!-- Turn speed (degrees/min) -->
     <defs>
      <path d="M 56.203125 29.59375 
L 56.203125 25.203125 
L 14.890625 25.203125 
Q 15.484375 15.921875 20.484375 11.0625 
Q 25.484375 6.203125 34.421875 6.203125 
Q 39.59375 6.203125 44.453125 7.46875 
Q 49.3125 8.734375 54.109375 11.28125 
L 54.109375 2.78125 
Q 49.265625 0.734375 44.1875 -0.34375 
Q 39.109375 -1.421875 33.890625 -1.421875 
Q 20.796875 -1.421875 13.15625 6.1875 
Q 5.515625 13.8125 5.515625 26.8125 
Q 5.515625 40.234375 12.765625 48.109375 
Q 20.015625 56 32.328125 56 
Q 43.359375 56 49.78125 48.890625 
Q 56.203125 41.796875 56.203125 29.59375 
M 47.21875 32.234375 
Q 47.125 39.59375 43.09375 43.984375 
Q 39.0625 48.390625 32.421875 48.390625 
Q 24.90625 48.390625 20.390625 44.140625 
Q 15.875 39.890625 15.1875 32.171875 
z
" id="BitstreamVeraSans-Roman-65"/>
      <path id="BitstreamVeraSans-Roman-20"/>
      <path d="M 18.109375 8.203125 
L 18.109375 -20.796875 
L 9.078125 -20.796875 
L 9.078125 54.6875 
L 18.109375 54.6875 
L 18.109375 46.390625 
Q 20.953125 51.265625 25.265625 53.625 
Q 29.59375 56 35.59375 56 
Q 45.5625 56 51.78125 48.09375 
Q 58.015625 40.1875 58.015625 27.296875 
Q 58.015625 14.40625 51.78125 6.484375 
Q 45.5625 -1.421875 35.59375 -1.421875 
Q 29.59375 -1.421875 25.265625 0.953125 
Q 20.953125 3.328125 18.109375 8.203125 
M 48.6875 27.296875 
Q 48.6875 37.203125 44.609375 42.84375 
Q 40.53125 48.484375 33.40625 48.484375 
Q 26.265625 48.484375 22.1875 42.84375 
Q 18.109375 37.203125 18.109375 27.296875 
Q 18.109375 17.390625 22.1875 11.75 
Q 26.265625 6.109375 33.40625 6.109375 
Q 40.53125 6.109375 44.609375 11.75 
Q 48.6875 17.390625 48.6875 27.296875 
" id="BitstreamVeraSans-Roman-70"/>
      <path d="M 25.390625 72.90625 
L 33.6875 72.90625 
L 8.296875 -9.28125 
L 0 -9.28125 
z
" id="BitstreamVeraSans-Roman-2f"/>
      <path d="M 45.40625 46.390625 
L 45.40625 75.984375 
L 54.390625 75.984375 
L 54.390625 0 
L 45.40625 0 
L 45.40625 8.203125 
Q 42.578125 3.328125 38.25 0.953125 
Q 33.9375 -1.421875 27.875 -1.421875 
Q 17.96875 -1.421875 11.734375 6.484375 
Q 5.515625 14.40625 5.515625 27.296875 
Q 5.515625 40.1875 11.734375 48.09375 
Q 17.96875 56 27.875 56 
Q 33.9375 56 38.25 53.625 
Q 42.578125 51.265625 45.40625 46.390625 
M 14.796875 27.296875 
Q 14.796875 17.390625 18.875 11.75 
Q 22.953125 6.109375 30.078125 6.109375 
Q 37.203125 6.109375 41.296875 11.75 
Q 45.40625 17.390625 45.40625 27.296875 
Q 45.40625 37.203125 41.296875 42.84375 
Q 37.203125 48.484375 30.078125 48.484375 
Q 22.953125 48.484375 18.875 42.84375 
Q 14.796875 37.203125 14.796875 27.296875 
" id="BitstreamVeraSans-Roman-64"/>
      <path d="M 54.890625 33.015625 
L 54.890625 0 
L 45.90625 0 
L 45.90625 32.71875 
Q 45.90625 40.484375 42.875 44.328125 
Q 39.84375 48.1875 33.796875 48.1875 
Q 26.515625 48.1875 22.3125 43.546875 
Q 18.109375 38.921875 18.109375 30.90625 
L 18.109375 0 
L 9.078125 0 
L 9.078125 54.6875 
L 18.109375 54.6875 
L 18.109375 46.1875 
Q 21.34375 51.125 25.703125 53.5625 
Q 30.078125 56 35.796875 56 
Q 45.21875 56 50.046875 50.171875 
Q 54.890625 44.34375 54.890625 33.015625 
" id="BitstreamVeraSans-Roman-6e"/>
      <path d="M 45.40625 27.984375 
Q 45.40625 37.75 41.375 43.109375 
Q 37.359375 48.484375 30.078125 48.484375 
Q 22.859375 48.484375 18.828125 43.109375 
Q 14.796875 37.75 14.796875 27.984375 
Q 14.796875 18.265625 18.828125 12.890625 
Q 22.859375 7.515625 30.078125 7.515625 
Q 37.359375 7.515625 41.375 12.890625 
Q 45.40625 18.265625 45.40625 27.984375 
M 54.390625 6.78125 
Q 54.390625 -7.171875 48.1875 -13.984375 
Q 42 -20.796875 29.203125 -20.796875 
Q 24.46875 -20.796875 20.265625 -20.09375 
Q 16.0625 -19.390625 12.109375 -17.921875 
L 12.109375 -9.1875 
Q 16.0625 -11.328125 19.921875 -12.34375 
Q 23.78125 -13.375 27.78125 -13.375 
Q 36.625 -13.375 41.015625 -8.765625 
Q 45.40625 -4.15625 45.40625 5.171875 
L 45.40625 9.625 
Q 42.625 4.78125 38.28125 2.390625 
Q 33.9375 0 27.875 0 
Q 17.828125 0 11.671875 7.65625 
Q 5.515625 15.328125 5.515625 27.984375 
Q 5.515625 40.671875 11.671875 48.328125 
Q 17.828125 56 27.875 56 
Q 33.9375 56 38.28125 53.609375 
Q 42.625 51.21875 45.40625 46.390625 
L 45.40625 54.6875 
L 54.390625 54.6875 
z
" id="BitstreamVeraSans-Roman-67"/>
      <path d="M 9.421875 54.6875 
L 18.40625 54.6875 
L 18.40625 0 
L 9.421875 0 
z
M 9.421875 75.984375 
L 18.40625 75.984375 
L 18.40625 64.59375 
L 9.421875 64.59375 
z
" id="BitstreamVeraSans-Roman-69"/>
      <path d="M 41.109375 46.296875 
Q 39.59375 47.171875 37.8125 47.578125 
Q 36.03125 48 33.890625 48 
Q 26.265625 48 22.1875 43.046875 
Q 18.109375 38.09375 18.109375 28.8125 
L 18.109375 0 
L 9.078125 0 
L 9.078125 54.6875 
L 18.109375 54.6875 
L 18.109375 46.1875 
Q 20.953125 51.171875 25.484375 53.578125 
Q 30.03125 56 36.53125 56 
Q 37.453125 56 38.578125 55.875 
Q 39.703125 55.765625 41.0625 55.515625 
z
" id="BitstreamVeraSans-Roman-72"/>
      <path d="M -0.296875 72.90625 
L 61.375 72.90625 
L 61.375 64.59375 
L 35.5 64.59375 
L 35.5 0 
L 25.59375 0 
L 25.59375 64.59375 
L -0.296875 64.59375 
z
" id="BitstreamVeraSans-Roman-54"/>
      <path d="M 8.5 21.578125 
L 8.5 54.6875 
L 17.484375 54.6875 
L 17.484375 21.921875 
Q 17.484375 14.15625 20.5 10.265625 
Q 23.53125 6.390625 29.59375 6.390625 
Q 36.859375 6.390625 41.078125 11.03125 
Q 45.3125 15.671875 45.3125 23.6875 
L 45.3125 54.6875 
L 54.296875 54.6875 
L 54.296875 0 
L 45.3125 0 
L 45.3125 8.40625 
Q 42.046875 3.421875 37.71875 1 
Q 33.40625 -1.421875 27.6875 -1.421875 
Q 18.265625 -1.421875 13.375 4.4375 
Q 8.5 10.296875 8.5 21.578125 
" id="BitstreamVeraSans-Roman-75"/>
      <path d="M 8.015625 75.875 
L 15.828125 75.875 
Q 23.140625 64.359375 26.78125 53.3125 
Q 30.421875 42.28125 30.421875 31.390625 
Q 30.421875 20.453125 26.78125 9.375 
Q 23.140625 -1.703125 15.828125 -13.1875 
L 8.015625 -13.1875 
Q 14.5 -2 17.703125 9.0625 
Q 20.90625 20.125 20.90625 31.390625 
Q 20.90625 42.671875 17.703125 53.65625 
Q 14.5 64.65625 8.015625 75.875 
" id="BitstreamVeraSans-Roman-29"/>
      <path d="M 44.28125 53.078125 
L 44.28125 44.578125 
Q 40.484375 46.53125 36.375 47.5 
Q 32.28125 48.484375 27.875 48.484375 
Q 21.1875 48.484375 17.84375 46.4375 
Q 14.5 44.390625 14.5 40.28125 
Q 14.5 37.15625 16.890625 35.375 
Q 19.28125 33.59375 26.515625 31.984375 
L 29.59375 31.296875 
Q 39.15625 29.25 43.1875 25.515625 
Q 47.21875 21.78125 47.21875 15.09375 
Q 47.21875 7.46875 41.1875 3.015625 
Q 35.15625 -1.421875 24.609375 -1.421875 
Q 20.21875 -1.421875 15.453125 -0.5625 
Q 10.6875 0.296875 5.421875 2 
L 5.421875 11.28125 
Q 10.40625 8.6875 15.234375 7.390625 
Q 20.0625 6.109375 24.8125 6.109375 
Q 31.15625 6.109375 34.5625 8.28125 
Q 37.984375 10.453125 37.984375 14.40625 
Q 37.984375 18.0625 35.515625 20.015625 
Q 33.0625 21.96875 24.703125 23.78125 
L 21.578125 24.515625 
Q 13.234375 26.265625 9.515625 29.90625 
Q 5.8125 33.546875 5.8125 39.890625 
Q 5.8125 47.609375 11.28125 51.796875 
Q 16.75 56 26.8125 56 
Q 31.78125 56 36.171875 55.265625 
Q 40.578125 54.546875 44.28125 53.078125 
" id="BitstreamVeraSans-Roman-73"/>
      <path d="M 52 44.1875 
Q 55.375 50.25 60.0625 53.125 
Q 64.75 56 71.09375 56 
Q 79.640625 56 84.28125 50.015625 
Q 88.921875 44.046875 88.921875 33.015625 
L 88.921875 0 
L 79.890625 0 
L 79.890625 32.71875 
Q 79.890625 40.578125 77.09375 44.375 
Q 74.3125 48.1875 68.609375 48.1875 
Q 61.625 48.1875 57.5625 43.546875 
Q 53.515625 38.921875 53.515625 30.90625 
L 53.515625 0 
L 44.484375 0 
L 44.484375 32.71875 
Q 44.484375 40.625 41.703125 44.40625 
Q 38.921875 48.1875 33.109375 48.1875 
Q 26.21875 48.1875 22.15625 43.53125 
Q 18.109375 38.875 18.109375 30.90625 
L 18.109375 0 
L 9.078125 0 
L 9.078125 54.6875 
L 18.109375 54.6875 
L 18.109375 46.1875 
Q 21.1875 51.21875 25.484375 53.609375 
Q 29.78125 56 35.6875 56 
Q 41.65625 56 45.828125 52.96875 
Q 50 49.953125 52 44.1875 
" id="BitstreamVeraSans-Roman-6d"/>
      <path d="M 31 75.875 
Q 24.46875 64.65625 21.28125 53.65625 
Q 18.109375 42.671875 18.109375 31.390625 
Q 18.109375 20.125 21.3125 9.0625 
Q 24.515625 -2 31 -13.1875 
L 23.1875 -13.1875 
Q 15.875 -1.703125 12.234375 9.375 
Q 8.59375 20.453125 8.59375 31.390625 
Q 8.59375 42.28125 12.203125 53.3125 
Q 15.828125 64.359375 23.1875 75.875 
z
" id="BitstreamVeraSans-Roman-28"/>
     </defs>
     <g transform="translate(189.98859375 408.8165625)scale(0.18 -0.18)">
      <use xlink:href="#BitstreamVeraSans-Roman-54"/>
      <use x="60.849609375" xlink:href="#BitstreamVeraSans-Roman-75"/>
      <use x="124.228515625" xlink:href="#BitstreamVeraSans-Roman-72"/>
      <use x="165.326171875" xlink:href="#BitstreamVeraSans-Roman-6e"/>
      <use x="228.705078125" xlink:href="#BitstreamVeraSans-Roman-20"/>
      <use x="260.4921875" xlink:href="#BitstreamVeraSans-Roman-73"/>
      <use x="312.591796875" xlink:href="#BitstreamVeraSans-Roman-70"/>
      <use x="376.068359375" xlink:href="#BitstreamVeraSans-Roman-65"/>
      <use x="437.591796875" xlink:href="#BitstreamVeraSans-Roman-65"/>
      <use x="499.115234375" xlink:href="#BitstreamVeraSans-Roman-64"/>
      <use x="562.591796875" xlink:href="#BitstreamVeraSans-Roman-20"/>
      <use x="594.37890625" xlink:href="#BitstreamVeraSans-Roman-28"/>
      <use x="633.392578125" xlink:href="#BitstreamVeraSans-Roman-64"/>
      <use x="696.869140625" xlink:href="#BitstreamVeraSans-Roman-65"/>
      <use x="758.392578125" xlink:href="#BitstreamVeraSans-Roman-67"/>
      <use x="821.869140625" xlink:href="#BitstreamVeraSans-Roman-72"/>
      <use x="862.951171875" xlink:href="#BitstreamVeraSans-Roman-65"/>
      <use x="924.474609375" xlink:href="#BitstreamVeraSans-Roman-65"/>
      <use x="985.998046875" xlink:href="#BitstreamVeraSans-Roman-73"/>
      <use x="1038.09765625" xlink:href="#BitstreamVeraSans-Roman-2f"/>
      <use x="1071.7890625" xlink:href="#BitstreamVeraSans-Roman-6d"/>
      <use x="1169.201171875" xlink:href="#BitstreamVeraSans-Roman-69"/>
      <use x="1196.984375" xlink:href="#BitstreamVeraSans-Roman-6e"/>
      <use x="1260.36328125" xlink:href="#BitstreamVeraSans-Roman-29"/>
     </g>
    </g>
   </g>
   <g id="matplotlib.axis_2">
    <g id="ytick_1">
     <g id="line2d_30">
      <path clip-path="url(#p94d07467a6)" d="M 74.48625 368.71875 
L 539.38125 368.71875 
" style="fill:none;stroke:#000000;stroke-dasharray:1.000000,3.000000;stroke-dashoffset:0.0;stroke-width:2.0;"/>
     </g>
     <g id="line2d_31">
      <defs>
       <path d="M 0 0 
L 4 0 
" id="m1de36611d6" style="stroke:#000000;stroke-width:0.5;"/>
      </defs>
      <g>
       <use style="stroke:#000000;stroke-width:0.5;" x="74.48625" xlink:href="#m1de36611d6" y="368.71875"/>
      </g>
     </g>
     <g id="line2d_32">
      <defs>
       <path d="M 0 0 
L -4 0 
" id="mc71e0e05e1" style="stroke:#000000;stroke-width:0.5;"/>
      </defs>
      <g>
       <use style="stroke:#000000;stroke-width:0.5;" x="539.38125" xlink:href="#mc71e0e05e1" y="368.71875"/>
      </g>
     </g>
     <g id="text_11">
      <!-- 0.0 -->
      <defs>
       <path d="M 10.6875 12.40625 
L 21 12.40625 
L 21 0 
L 10.6875 0 
z
" id="BitstreamVeraSans-Roman-2e"/>
      </defs>
      <g transform="translate(41.860625 373.685625)scale(0.18 -0.18)">
       <use xlink:href="#BitstreamVeraSans-Roman-30"/>
       <use x="63.623046875" xlink:href="#BitstreamVeraSans-Roman-2e"/>
       <use x="95.41015625" xlink:href="#BitstreamVeraSans-Roman-30"/>
      </g>
     </g>
    </g>
    <g id="ytick_2">
     <g id="line2d_33">
      <path clip-path="url(#p94d07467a6)" d="M 74.48625 303.145525 
L 539.38125 303.145525 
" style="fill:none;stroke:#000000;stroke-dasharray:1.000000,3.000000;stroke-dashoffset:0.0;stroke-width:2.0;"/>
     </g>
     <g id="line2d_34">
      <g>
       <use style="stroke:#000000;stroke-width:0.5;" x="74.48625" xlink:href="#m1de36611d6" y="303.145525"/>
      </g>
     </g>
     <g id="line2d_35">
      <g>
       <use style="stroke:#000000;stroke-width:0.5;" x="539.38125" xlink:href="#mc71e0e05e1" y="303.145525"/>
      </g>
     </g>
     <g id="text_12">
      <!-- 0.2 -->
      <g transform="translate(41.860625 308.1124)scale(0.18 -0.18)">
       <use xlink:href="#BitstreamVeraSans-Roman-30"/>
       <use x="63.623046875" xlink:href="#BitstreamVeraSans-Roman-2e"/>
       <use x="95.41015625" xlink:href="#BitstreamVeraSans-Roman-32"/>
      </g>
     </g>
    </g>
    <g id="ytick_3">
     <g id="line2d_36">
      <path clip-path="url(#p94d07467a6)" d="M 74.48625 237.5723 
L 539.38125 237.5723 
" style="fill:none;stroke:#000000;stroke-dasharray:1.000000,3.000000;stroke-dashoffset:0.0;stroke-width:2.0;"/>
     </g>
     <g id="line2d_37">
      <g>
       <use style="stroke:#000000;stroke-width:0.5;" x="74.48625" xlink:href="#m1de36611d6" y="237.5723"/>
      </g>
     </g>
     <g id="line2d_38">
      <g>
       <use style="stroke:#000000;stroke-width:0.5;" x="539.38125" xlink:href="#mc71e0e05e1" y="237.5723"/>
      </g>
     </g>
     <g id="text_13">
      <!-- 0.4 -->
      <g transform="translate(41.860625 242.539175)scale(0.18 -0.18)">
       <use xlink:href="#BitstreamVeraSans-Roman-30"/>
       <use x="63.623046875" xlink:href="#BitstreamVeraSans-Roman-2e"/>
       <use x="95.41015625" xlink:href="#BitstreamVeraSans-Roman-34"/>
      </g>
     </g>
    </g>
    <g id="ytick_4">
     <g id="line2d_39">
      <path clip-path="url(#p94d07467a6)" d="M 74.48625 171.999075 
L 539.38125 171.999075 
" style="fill:none;stroke:#000000;stroke-dasharray:1.000000,3.000000;stroke-dashoffset:0.0;stroke-width:2.0;"/>
     </g>
     <g id="line2d_40">
      <g>
       <use style="stroke:#000000;stroke-width:0.5;" x="74.48625" xlink:href="#m1de36611d6" y="171.999075"/>
      </g>
     </g>
     <g id="line2d_41">
      <g>
       <use style="stroke:#000000;stroke-width:0.5;" x="539.38125" xlink:href="#mc71e0e05e1" y="171.999075"/>
      </g>
     </g>
     <g id="text_14">
      <!-- 0.6 -->
      <defs>
       <path d="M 33.015625 40.375 
Q 26.375 40.375 22.484375 35.828125 
Q 18.609375 31.296875 18.609375 23.390625 
Q 18.609375 15.53125 22.484375 10.953125 
Q 26.375 6.390625 33.015625 6.390625 
Q 39.65625 6.390625 43.53125 10.953125 
Q 47.40625 15.53125 47.40625 23.390625 
Q 47.40625 31.296875 43.53125 35.828125 
Q 39.65625 40.375 33.015625 40.375 
M 52.59375 71.296875 
L 52.59375 62.3125 
Q 48.875 64.0625 45.09375 64.984375 
Q 41.3125 65.921875 37.59375 65.921875 
Q 27.828125 65.921875 22.671875 59.328125 
Q 17.53125 52.734375 16.796875 39.40625 
Q 19.671875 43.65625 24.015625 45.921875 
Q 28.375 48.1875 33.59375 48.1875 
Q 44.578125 48.1875 50.953125 41.515625 
Q 57.328125 34.859375 57.328125 23.390625 
Q 57.328125 12.15625 50.6875 5.359375 
Q 44.046875 -1.421875 33.015625 -1.421875 
Q 20.359375 -1.421875 13.671875 8.265625 
Q 6.984375 17.96875 6.984375 36.375 
Q 6.984375 53.65625 15.1875 63.9375 
Q 23.390625 74.21875 37.203125 74.21875 
Q 40.921875 74.21875 44.703125 73.484375 
Q 48.484375 72.75 52.59375 71.296875 
" id="BitstreamVeraSans-Roman-36"/>
      </defs>
      <g transform="translate(41.860625 176.96595)scale(0.18 -0.18)">
       <use xlink:href="#BitstreamVeraSans-Roman-30"/>
       <use x="63.623046875" xlink:href="#BitstreamVeraSans-Roman-2e"/>
       <use x="95.41015625" xlink:href="#BitstreamVeraSans-Roman-36"/>
      </g>
     </g>
    </g>
    <g id="ytick_5">
     <g id="line2d_42">
      <path clip-path="url(#p94d07467a6)" d="M 74.48625 106.42585 
L 539.38125 106.42585 
" style="fill:none;stroke:#000000;stroke-dasharray:1.000000,3.000000;stroke-dashoffset:0.0;stroke-width:2.0;"/>
     </g>
     <g id="line2d_43">
      <g>
       <use style="stroke:#000000;stroke-width:0.5;" x="74.48625" xlink:href="#m1de36611d6" y="106.42585"/>
      </g>
     </g>
     <g id="line2d_44">
      <g>
       <use style="stroke:#000000;stroke-width:0.5;" x="539.38125" xlink:href="#mc71e0e05e1" y="106.42585"/>
      </g>
     </g>
     <g id="text_15">
      <!-- 0.8 -->
      <defs>
       <path d="M 31.78125 34.625 
Q 24.75 34.625 20.71875 30.859375 
Q 16.703125 27.09375 16.703125 20.515625 
Q 16.703125 13.921875 20.71875 10.15625 
Q 24.75 6.390625 31.78125 6.390625 
Q 38.8125 6.390625 42.859375 10.171875 
Q 46.921875 13.96875 46.921875 20.515625 
Q 46.921875 27.09375 42.890625 30.859375 
Q 38.875 34.625 31.78125 34.625 
M 21.921875 38.8125 
Q 15.578125 40.375 12.03125 44.71875 
Q 8.5 49.078125 8.5 55.328125 
Q 8.5 64.0625 14.71875 69.140625 
Q 20.953125 74.21875 31.78125 74.21875 
Q 42.671875 74.21875 48.875 69.140625 
Q 55.078125 64.0625 55.078125 55.328125 
Q 55.078125 49.078125 51.53125 44.71875 
Q 48 40.375 41.703125 38.8125 
Q 48.828125 37.15625 52.796875 32.3125 
Q 56.78125 27.484375 56.78125 20.515625 
Q 56.78125 9.90625 50.3125 4.234375 
Q 43.84375 -1.421875 31.78125 -1.421875 
Q 19.734375 -1.421875 13.25 4.234375 
Q 6.78125 9.90625 6.78125 20.515625 
Q 6.78125 27.484375 10.78125 32.3125 
Q 14.796875 37.15625 21.921875 38.8125 
M 18.3125 54.390625 
Q 18.3125 48.734375 21.84375 45.5625 
Q 25.390625 42.390625 31.78125 42.390625 
Q 38.140625 42.390625 41.71875 45.5625 
Q 45.3125 48.734375 45.3125 54.390625 
Q 45.3125 60.0625 41.71875 63.234375 
Q 38.140625 66.40625 31.78125 66.40625 
Q 25.390625 66.40625 21.84375 63.234375 
Q 18.3125 60.0625 18.3125 54.390625 
" id="BitstreamVeraSans-Roman-38"/>
      </defs>
      <g transform="translate(41.860625 111.392725)scale(0.18 -0.18)">
       <use xlink:href="#BitstreamVeraSans-Roman-30"/>
       <use x="63.623046875" xlink:href="#BitstreamVeraSans-Roman-2e"/>
       <use x="95.41015625" xlink:href="#BitstreamVeraSans-Roman-38"/>
      </g>
     </g>
    </g>
    <g id="ytick_6">
     <g id="line2d_45">
      <path clip-path="url(#p94d07467a6)" d="M 74.48625 40.852625 
L 539.38125 40.852625 
" style="fill:none;stroke:#000000;stroke-dasharray:1.000000,3.000000;stroke-dashoffset:0.0;stroke-width:2.0;"/>
     </g>
     <g id="line2d_46">
      <g>
       <use style="stroke:#000000;stroke-width:0.5;" x="74.48625" xlink:href="#m1de36611d6" y="40.852625"/>
      </g>
     </g>
     <g id="line2d_47">
      <g>
       <use style="stroke:#000000;stroke-width:0.5;" x="539.38125" xlink:href="#mc71e0e05e1" y="40.852625"/>
      </g>
     </g>
     <g id="text_16">
      <!-- 1.0 -->
      <g transform="translate(41.860625 45.8195)scale(0.18 -0.18)">
       <use xlink:href="#BitstreamVeraSans-Roman-31"/>
       <use x="63.623046875" xlink:href="#BitstreamVeraSans-Roman-2e"/>
       <use x="95.41015625" xlink:href="#BitstreamVeraSans-Roman-30"/>
      </g>
     </g>
    </g>
    <g id="text_17">
     <!-- Proportion -->
     <defs>
      <path d="M 19.671875 64.796875 
L 19.671875 37.40625 
L 32.078125 37.40625 
Q 38.96875 37.40625 42.71875 40.96875 
Q 46.484375 44.53125 46.484375 51.125 
Q 46.484375 57.671875 42.71875 61.234375 
Q 38.96875 64.796875 32.078125 64.796875 
z
M 9.8125 72.90625 
L 32.078125 72.90625 
Q 44.34375 72.90625 50.609375 67.359375 
Q 56.890625 61.8125 56.890625 51.125 
Q 56.890625 40.328125 50.609375 34.8125 
Q 44.34375 29.296875 32.078125 29.296875 
L 19.671875 29.296875 
L 19.671875 0 
L 9.8125 0 
z
" id="BitstreamVeraSans-Roman-50"/>
      <path d="M 18.3125 70.21875 
L 18.3125 54.6875 
L 36.8125 54.6875 
L 36.8125 47.703125 
L 18.3125 47.703125 
L 18.3125 18.015625 
Q 18.3125 11.328125 20.140625 9.421875 
Q 21.96875 7.515625 27.59375 7.515625 
L 36.8125 7.515625 
L 36.8125 0 
L 27.59375 0 
Q 17.1875 0 13.234375 3.875 
Q 9.28125 7.765625 9.28125 18.015625 
L 9.28125 47.703125 
L 2.6875 47.703125 
L 2.6875 54.6875 
L 9.28125 54.6875 
L 9.28125 70.21875 
z
" id="BitstreamVeraSans-Roman-74"/>
      <path d="M 30.609375 48.390625 
Q 23.390625 48.390625 19.1875 42.75 
Q 14.984375 37.109375 14.984375 27.296875 
Q 14.984375 17.484375 19.15625 11.84375 
Q 23.34375 6.203125 30.609375 6.203125 
Q 37.796875 6.203125 41.984375 11.859375 
Q 46.1875 17.53125 46.1875 27.296875 
Q 46.1875 37.015625 41.984375 42.703125 
Q 37.796875 48.390625 30.609375 48.390625 
M 30.609375 56 
Q 42.328125 56 49.015625 48.375 
Q 55.71875 40.765625 55.71875 27.296875 
Q 55.71875 13.875 49.015625 6.21875 
Q 42.328125 -1.421875 30.609375 -1.421875 
Q 18.84375 -1.421875 12.171875 6.21875 
Q 5.515625 13.875 5.515625 27.296875 
Q 5.515625 40.765625 12.171875 48.375 
Q 18.84375 56 30.609375 56 
" id="BitstreamVeraSans-Roman-6f"/>
     </defs>
     <g transform="translate(33.1171875 251.5744375)rotate(-90.0)scale(0.18 -0.18)">
      <use xlink:href="#BitstreamVeraSans-Roman-50"/>
      <use x="60.287109375" xlink:href="#BitstreamVeraSans-Roman-72"/>
      <use x="101.369140625" xlink:href="#BitstreamVeraSans-Roman-6f"/>
      <use x="162.55078125" xlink:href="#BitstreamVeraSans-Roman-70"/>
      <use x="226.02734375" xlink:href="#BitstreamVeraSans-Roman-6f"/>
      <use x="287.208984375" xlink:href="#BitstreamVeraSans-Roman-72"/>
      <use x="328.322265625" xlink:href="#BitstreamVeraSans-Roman-74"/>
      <use x="367.53125" xlink:href="#BitstreamVeraSans-Roman-69"/>
      <use x="395.314453125" xlink:href="#BitstreamVeraSans-Roman-6f"/>
      <use x="456.49609375" xlink:href="#BitstreamVeraSans-Roman-6e"/>
     </g>
    </g>
   </g>
   <g id="text_18">
    <!-- Turn Speeds -->
    <defs>
     <path d="M 53.515625 70.515625 
L 53.515625 60.890625 
Q 47.90625 63.578125 42.921875 64.890625 
Q 37.9375 66.21875 33.296875 66.21875 
Q 25.25 66.21875 20.875 63.09375 
Q 16.5 59.96875 16.5 54.203125 
Q 16.5 49.359375 19.40625 46.890625 
Q 22.3125 44.4375 30.421875 42.921875 
L 36.375 41.703125 
Q 47.40625 39.59375 52.65625 34.296875 
Q 57.90625 29 57.90625 20.125 
Q 57.90625 9.515625 50.796875 4.046875 
Q 43.703125 -1.421875 29.984375 -1.421875 
Q 24.8125 -1.421875 18.96875 -0.25 
Q 13.140625 0.921875 6.890625 3.21875 
L 6.890625 13.375 
Q 12.890625 10.015625 18.65625 8.296875 
Q 24.421875 6.59375 29.984375 6.59375 
Q 38.421875 6.59375 43.015625 9.90625 
Q 47.609375 13.234375 47.609375 19.390625 
Q 47.609375 24.75 44.3125 27.78125 
Q 41.015625 30.8125 33.5 32.328125 
L 27.484375 33.5 
Q 16.453125 35.6875 11.515625 40.375 
Q 6.59375 45.0625 6.59375 53.421875 
Q 6.59375 63.09375 13.40625 68.65625 
Q 20.21875 74.21875 32.171875 74.21875 
Q 37.3125 74.21875 42.625 73.28125 
Q 47.953125 72.359375 53.515625 70.515625 
" id="BitstreamVeraSans-Roman-53"/>
    </defs>
    <g transform="translate(239.3173125 35.852625)scale(0.21599999999999997 -0.21599999999999997)">
     <use xlink:href="#BitstreamVeraSans-Roman-54"/>
     <use x="60.849609375" xlink:href="#BitstreamVeraSans-Roman-75"/>
     <use x="124.228515625" xlink:href="#BitstreamVeraSans-Roman-72"/>
     <use x="165.326171875" xlink:href="#BitstreamVeraSans-Roman-6e"/>
     <use x="228.705078125" xlink:href="#BitstreamVeraSans-Roman-20"/>
     <use x="260.4921875" xlink:href="#BitstreamVeraSans-Roman-53"/>
     <use x="323.96875" xlink:href="#BitstreamVeraSans-Roman-70"/>
     <use x="387.4453125" xlink:href="#BitstreamVeraSans-Roman-65"/>
     <use x="448.96875" xlink:href="#BitstreamVeraSans-Roman-65"/>
     <use x="510.4921875" xlink:href="#BitstreamVeraSans-Roman-64"/>
     <use x="573.96875" xlink:href="#BitstreamVeraSans-Roman-73"/>
    </g>
   </g>
   <g id="legend_1">
    <g id="patch_7">
     <path d="M 402.687 357.91875 
L 528.58125 357.91875 
L 528.58125 288.02925 
L 402.687 288.02925 
z
" style="fill:#ffffff;stroke:#000000;stroke-linejoin:miter;"/>
    </g>
    <g id="line2d_48">
     <path d="M 417.807 305.521875 
L 448.047 305.521875 
" style="fill:none;stroke:#0000ff;stroke-linecap:square;stroke-width:2.0;"/>
    </g>
    <g id="line2d_49"/>
    <g id="text_19">
     <!-- fast -->
     <defs>
      <path d="M 34.28125 27.484375 
Q 23.390625 27.484375 19.1875 25 
Q 14.984375 22.515625 14.984375 16.5 
Q 14.984375 11.71875 18.140625 8.90625 
Q 21.296875 6.109375 26.703125 6.109375 
Q 34.1875 6.109375 38.703125 11.40625 
Q 43.21875 16.703125 43.21875 25.484375 
L 43.21875 27.484375 
z
M 52.203125 31.203125 
L 52.203125 0 
L 43.21875 0 
L 43.21875 8.296875 
Q 40.140625 3.328125 35.546875 0.953125 
Q 30.953125 -1.421875 24.3125 -1.421875 
Q 15.921875 -1.421875 10.953125 3.296875 
Q 6 8.015625 6 15.921875 
Q 6 25.140625 12.171875 29.828125 
Q 18.359375 34.515625 30.609375 34.515625 
L 43.21875 34.515625 
L 43.21875 35.40625 
Q 43.21875 41.609375 39.140625 45 
Q 35.0625 48.390625 27.6875 48.390625 
Q 23 48.390625 18.546875 47.265625 
Q 14.109375 46.140625 10.015625 43.890625 
L 10.015625 52.203125 
Q 14.9375 54.109375 19.578125 55.046875 
Q 24.21875 56 28.609375 56 
Q 40.484375 56 46.34375 49.84375 
Q 52.203125 43.703125 52.203125 31.203125 
" id="BitstreamVeraSans-Roman-61"/>
      <path d="M 37.109375 75.984375 
L 37.109375 68.5 
L 28.515625 68.5 
Q 23.6875 68.5 21.796875 66.546875 
Q 19.921875 64.59375 19.921875 59.515625 
L 19.921875 54.6875 
L 34.71875 54.6875 
L 34.71875 47.703125 
L 19.921875 47.703125 
L 19.921875 0 
L 10.890625 0 
L 10.890625 47.703125 
L 2.296875 47.703125 
L 2.296875 54.6875 
L 10.890625 54.6875 
L 10.890625 58.5 
Q 10.890625 67.625 15.140625 71.796875 
Q 19.390625 75.984375 28.609375 75.984375 
z
" id="BitstreamVeraSans-Roman-66"/>
     </defs>
     <g transform="translate(471.807 313.081875)scale(0.21599999999999997 -0.21599999999999997)">
      <use xlink:href="#BitstreamVeraSans-Roman-66"/>
      <use x="35.205078125" xlink:href="#BitstreamVeraSans-Roman-61"/>
      <use x="96.484375" xlink:href="#BitstreamVeraSans-Roman-73"/>
      <use x="148.583984375" xlink:href="#BitstreamVeraSans-Roman-74"/>
     </g>
    </g>
    <g id="line2d_50">
     <path d="M 417.807 337.226625 
L 448.047 337.226625 
" style="fill:none;stroke:#008000;stroke-linecap:square;stroke-width:2.0;"/>
    </g>
    <g id="line2d_51"/>
    <g id="text_20">
     <!-- slow -->
     <defs>
      <path d="M 9.421875 75.984375 
L 18.40625 75.984375 
L 18.40625 0 
L 9.421875 0 
z
" id="BitstreamVeraSans-Roman-6c"/>
      <path d="M 4.203125 54.6875 
L 13.1875 54.6875 
L 24.421875 12.015625 
L 35.59375 54.6875 
L 46.1875 54.6875 
L 57.421875 12.015625 
L 68.609375 54.6875 
L 77.59375 54.6875 
L 63.28125 0 
L 52.6875 0 
L 40.921875 44.828125 
L 29.109375 0 
L 18.5 0 
z
" id="BitstreamVeraSans-Roman-77"/>
     </defs>
     <g transform="translate(471.807 344.786625)scale(0.21599999999999997 -0.21599999999999997)">
      <use xlink:href="#BitstreamVeraSans-Roman-73"/>
      <use x="52.099609375" xlink:href="#BitstreamVeraSans-Roman-6c"/>
      <use x="79.8828125" xlink:href="#BitstreamVeraSans-Roman-6f"/>
      <use x="141.064453125" xlink:href="#BitstreamVeraSans-Roman-77"/>
     </g>
    </g>
   </g>
  </g>
 </g>
 <defs>
  <clipPath id="p94d07467a6">
   <rect height="327.866125" width="464.895" x="74.48625" y="40.852625"/>
  </clipPath>
 </defs>
</svg>
