<?xml version="1.0" encoding="utf-8" standalone="no"?>
<!DOCTYPE svg PUBLIC "-//W3C//DTD SVG 1.1//EN"
  "http://www.w3.org/Graphics/SVG/1.1/DTD/svg11.dtd">
<!-- Created with matplotlib (http://matplotlib.org/) -->
<svg height="432pt" version="1.1" viewBox="0 0 576 432" width="576pt" xmlns="http://www.w3.org/2000/svg" xmlns:xlink="http://www.w3.org/1999/xlink">
 <defs>
  <style type="text/css">
*{stroke-linecap:butt;stroke-linejoin:round;stroke-miterlimit:100000;}
  </style>
 </defs>
 <g id="figure_1">
  <g id="patch_1">
   <path d="M 0 432 
L 576 432 
L 576 0 
L 0 0 
z
" style="fill:#ffffff;"/>
  </g>
  <g id="axes_1">
   <g id="patch_2">
    <path d="M 74.48625 368.71875 
L 545.1075 368.71875 
L 545.1075 40.852625 
L 74.48625 40.852625 
z
" style="fill:#ffffff;"/>
   </g>
   <g id="line2d_1">
    <path clip-path="url(#p601dd9c0fe)" d="M 74.48625 368.71875 
L 74.558503 368.38562 
L 74.709918 368.119117 
L 75.25137 366.653347 
L 75.340317 366.320217 
L 75.523585 366.120339 
L 75.672655 365.720584 
L 76.025835 365.120951 
L 76.031651 365.054325 
L 76.337185 364.787821 
L 76.548843 364.121562 
L 76.672181 363.855058 
L 76.747354 363.655181 
L 76.88819 363.455303 
L 77.185367 362.85567 
L 77.335477 362.655792 
L 77.646694 361.922907 
L 77.724441 361.723029 
L 77.839054 361.456525 
L 78.230521 360.923518 
L 78.363916 360.390511 
L 78.74939 359.324496 
L 78.865878 358.724863 
L 79.187635 357.658848 
L 79.42383 356.992589 
L 79.601354 356.32633 
L 79.823001 356.059826 
L 79.947946 355.660071 
L 80.259079 355.127063 
L 80.488962 354.194301 
L 80.662365 353.861171 
L 80.779193 353.594667 
L 80.98782 353.39479 
L 81.103059 353.06166 
L 82.411177 350.529875 
L 82.67815 349.79699 
L 83.798434 347.731587 
L 84.000592 346.932076 
L 84.116303 346.598946 
L 84.310765 346.065939 
L 84.457913 345.799435 
L 84.662555 345.133176 
L 84.869778 344.800047 
L 84.943289 344.466917 
L 85.129708 344.200413 
L 85.758115 342.268262 
L 85.925353 342.068384 
L 86.014083 341.602003 
L 86.264498 340.935744 
L 86.543889 340.735866 
L 86.820329 339.736477 
L 87.162862 339.336722 
L 87.431105 338.670463 
L 87.480114 338.470585 
L 87.704534 338.270707 
L 87.821317 338.004203 
L 88.010122 337.7377 
L 88.076549 337.537822 
L 88.211868 337.337944 
L 88.613502 336.471807 
L 89.320422 334.672908 
L 89.416888 334.206526 
L 89.5977 333.673519 
L 89.790107 333.073886 
L 91.24407 329.276209 
L 91.447534 329.142957 
L 91.95408 328.343446 
L 92.181729 328.076942 
L 92.252862 327.877064 
L 92.337307 327.677187 
L 92.670306 327.010928 
L 92.786292 326.544546 
L 93.029694 326.011539 
L 93.964266 324.612395 
L 94.088377 324.212639 
L 94.268164 323.812884 
L 94.409292 323.346502 
L 94.578593 323.146625 
L 94.804712 322.813495 
L 94.902353 322.613617 
L 95.112375 321.947358 
L 95.417673 321.147847 
L 95.501524 320.947969 
L 95.699868 320.681466 
L 95.886792 320.215084 
L 96.01146 319.948581 
L 96.126929 319.415573 
L 96.894973 317.35017 
L 97.213081 316.750537 
L 97.633014 315.617896 
L 97.863854 315.351393 
L 97.942689 315.151515 
L 98.102947 314.885011 
L 98.218056 314.285378 
L 98.375412 314.0855 
L 98.46576 313.885622 
L 98.730076 313.152737 
L 99.543885 311.753593 
L 99.660209 311.287212 
L 99.809018 310.754204 
L 99.918409 310.554327 
L 100.173916 310.021319 
L 100.957457 308.089168 
L 101.079758 307.955916 
L 101.251432 307.556161 
L 101.901865 306.356894 
L 102.001103 306.023765 
L 102.281216 305.224254 
L 102.37449 304.891124 
L 102.681924 304.424743 
L 103.588122 302.625843 
L 103.698638 302.359339 
L 103.857275 302.092836 
L 103.982682 301.69308 
L 104.139111 301.160073 
L 104.60954 299.627677 
L 104.687703 299.227921 
L 104.786582 299.028043 
L 105.390741 297.828777 
L 105.532733 297.628899 
L 105.6867 297.162518 
L 105.839086 296.96264 
L 106.028769 296.629511 
L 106.4857 295.696748 
L 106.598768 295.49687 
L 107.089941 293.964474 
L 107.458784 293.031711 
L 107.579283 292.765208 
L 107.671463 292.432078 
L 107.930863 292.032322 
L 108.514316 290.100171 
L 108.699194 289.500538 
L 108.842285 289.167408 
L 109.397928 287.50176 
L 109.787167 286.435746 
L 110.450056 285.169853 
L 110.541501 284.703472 
L 110.706545 284.370342 
L 110.962659 283.504205 
L 111.653505 281.572054 
L 112.107226 280.772543 
L 112.262373 280.439413 
L 112.760611 279.639902 
L 114.049192 276.308607 
L 114.1221 275.842225 
L 114.231506 275.642348 
L 114.715932 274.509707 
L 115.008291 274.243203 
L 115.138915 273.843448 
L 115.633354 271.977922 
L 115.755003 271.644793 
L 116.430848 269.779267 
L 116.612662 269.312886 
L 116.955685 268.313497 
L 117.051397 268.180245 
L 117.134656 267.980367 
L 117.213245 267.647238 
L 117.37074 266.847727 
L 117.541478 266.714475 
L 117.824792 265.581834 
L 117.981059 265.315331 
L 118.250369 264.51582 
L 120.151125 258.452862 
L 120.268446 258.119732 
L 120.488218 257.653351 
L 120.636551 257.320221 
L 120.771235 257.053717 
L 120.900681 256.653962 
L 121.049288 256.454084 
L 121.65799 253.722422 
L 121.793276 253.522544 
L 122.493301 250.990759 
L 122.664725 250.724256 
L 123.082559 249.591615 
L 123.50837 248.392349 
L 123.740526 248.192471 
L 123.813203 247.992593 
L 124.349203 246.993204 
L 124.504566 246.793327 
L 124.98347 245.793938 
L 124.988438 245.727312 
L 125.36823 245.394182 
L 125.787799 244.528045 
L 125.973179 244.394794 
L 126.052182 244.194916 
L 126.265824 243.861786 
L 126.380438 243.661909 
L 126.85164 242.995649 
L 126.931013 242.862398 
L 127.070082 242.595894 
L 127.194222 242.32939 
L 127.403785 241.663131 
L 127.81889 240.796994 
L 127.959971 240.197361 
L 128.09619 240.064109 
L 128.207475 239.73098 
L 128.324387 239.264598 
L 128.64588 238.331835 
L 128.743703 238.065332 
L 129.011804 237.798828 
L 129.749171 236.199806 
L 129.808828 235.933303 
L 129.935752 235.600173 
L 130.15601 235.133792 
L 130.309941 234.800662 
L 130.432111 234.267655 
L 130.811705 233.401518 
L 130.961332 232.935136 
L 131.315279 232.735259 
L 131.690863 231.935748 
L 131.86516 231.336114 
L 131.959106 230.936359 
L 132.180459 230.336726 
L 132.239315 230.203474 
L 132.382054 230.003596 
L 132.525812 229.603841 
L 134.574635 224.007264 
L 134.649545 223.474257 
L 134.856408 223.207753 
L 135.225516 221.342227 
L 135.523679 219.876457 
L 135.660858 219.476702 
L 135.79401 218.943694 
L 136.146651 218.543939 
L 136.287174 218.144183 
L 136.551804 217.011543 
L 136.802667 216.278658 
L 137.050004 215.545773 
L 137.219748 215.279269 
L 137.504794 215.146017 
L 137.527924 215.079391 
L 137.69813 214.946139 
L 137.851757 214.746262 
L 137.993142 214.346506 
L 138.167605 214.080003 
L 138.3197 213.613621 
L 138.613351 213.080614 
L 138.721895 212.480981 
L 138.949397 212.214477 
L 139.058026 212.014599 
L 139.396873 211.215088 
L 139.493729 210.815333 
L 139.626367 210.548829 
L 139.905486 210.348951 
L 140.031407 209.949196 
L 140.235015 209.682692 
L 140.369602 209.416189 
L 140.504735 209.149685 
L 140.663857 208.616678 
L 140.751662 208.350174 
L 140.863686 208.017044 
L 141.101232 207.550663 
L 141.216591 207.150907 
L 141.438405 206.751152 
L 141.731022 206.418022 
L 141.896135 206.018267 
L 142.170507 205.218756 
L 142.67104 203.153353 
L 142.886346 202.820223 
L 143.047944 202.287216 
L 143.420957 201.421079 
L 143.686783 200.888072 
L 143.818952 200.621568 
L 143.921543 200.42169 
L 144.048676 199.688805 
L 144.202509 199.422301 
L 144.398923 198.756042 
L 145.107871 197.49015 
L 145.273503 197.223646 
L 145.391858 196.890517 
L 145.589294 196.690639 
L 145.995352 195.957754 
L 146.125401 195.69125 
L 146.197534 195.491372 
L 146.374469 195.224869 
L 146.476608 194.825113 
L 146.631271 194.491984 
L 146.918091 193.825725 
L 147.090427 193.559221 
L 147.139066 193.292717 
L 147.441287 192.892962 
L 148.077723 191.627069 
L 148.222211 191.427192 
L 148.642438 190.028047 
L 148.755648 189.628292 
L 148.846695 189.428414 
L 148.992868 189.161911 
L 149.111563 188.962033 
L 149.955822 186.696752 
L 150.122256 186.097118 
L 150.286552 185.830615 
L 151.140595 183.698586 
L 151.216026 183.498708 
L 151.286022 183.232204 
L 151.405406 182.366067 
L 151.652403 181.83306 
L 151.756572 181.633182 
L 153.216108 179.501153 
L 153.30995 179.234649 
L 153.389472 179.034772 
L 153.680628 178.168635 
L 153.818527 177.768879 
L 154.690396 175.503598 
L 154.79874 175.30372 
L 154.892931 175.037217 
L 155.638787 173.638072 
L 155.821285 172.771936 
L 156.099872 172.505432 
L 156.320509 171.972425 
L 156.44372 171.772547 
L 156.84675 170.973036 
L 156.863674 170.90641 
L 157.035327 170.706532 
L 159.10686 166.375848 
L 159.193205 165.909466 
L 159.321156 165.443085 
L 159.423602 165.309833 
L 159.581902 165.109955 
L 159.700299 164.910078 
L 159.822722 164.7102 
L 160.003569 164.37707 
L 160.095773 164.110567 
L 160.318583 163.377682 
L 160.610749 163.044552 
L 161.12112 162.178415 
L 161.323675 161.712034 
L 161.513321 161.245652 
L 161.700077 160.712645 
L 161.927765 160.113012 
L 162.277588 159.513379 
L 162.423535 159.313501 
L 162.428006 159.246875 
L 162.610171 159.046997 
L 162.642991 158.913745 
L 162.870811 158.713868 
L 162.983525 158.447364 
L 163.045175 158.314112 
L 163.210059 158.114234 
L 163.411664 157.847731 
L 163.516643 157.314723 
L 163.776145 156.581838 
L 163.980806 156.448587 
L 164.29499 155.58245 
L 164.463073 155.315946 
L 164.611051 155.182694 
L 164.693945 154.849565 
L 165.081678 154.516435 
L 165.208244 154.249931 
L 165.378918 153.983428 
L 165.451029 153.716924 
L 165.609448 153.517046 
L 165.678115 153.183917 
L 165.839289 152.984039 
L 166.327201 151.518269 
L 166.711165 151.251765 
L 166.815834 150.985262 
L 166.984254 150.785384 
L 167.961123 149.186362 
L 168.795542 147.454088 
L 169.274001 146.321448 
L 169.493193 146.054944 
L 169.968051 145.855066 
L 170.066192 145.655188 
L 170.291762 145.455311 
L 170.376591 145.255433 
L 170.632627 144.988929 
L 171.160097 144.189418 
L 171.211272 143.989541 
L 171.367473 143.723037 
L 171.393907 143.656411 
L 171.72316 143.523159 
L 172.01264 142.790274 
L 172.262003 142.590396 
L 172.510808 142.257267 
L 172.881291 141.39113 
L 172.988981 141.191252 
L 173.352972 140.858123 
L 173.456155 140.524993 
L 173.684383 139.792108 
L 173.749078 139.658856 
L 174.027069 139.392352 
L 174.232558 138.859345 
L 174.419251 138.659467 
L 175.161511 137.993208 
L 175.493496 137.859956 
L 175.682466 137.260323 
L 175.872781 136.927194 
L 176.199885 135.927805 
L 176.372379 135.594675 
L 176.41335 135.461424 
L 176.561835 135.261546 
L 176.657094 134.995042 
L 177.017915 134.795164 
L 177.145549 134.595287 
L 177.2774 134.395409 
L 177.421437 133.862402 
L 177.726755 133.062891 
L 177.835211 132.863013 
L 178.17082 132.529883 
L 178.177287 132.463257 
L 178.364391 132.26338 
L 178.40918 132.196754 
L 178.785251 131.996876 
L 179.76481 130.46448 
L 180.544037 129.531717 
L 180.621682 129.331839 
L 180.784584 129.131962 
L 180.905574 128.798832 
L 181.114005 128.598954 
L 181.688948 127.999321 
L 181.853194 127.799443 
L 182.823664 125.73404 
L 182.89659 125.467536 
L 183.082102 125.201033 
L 183.304286 124.867903 
L 183.516472 124.26827 
L 183.812969 123.93514 
L 183.817705 123.735263 
L 184.378017 123.402133 
L 185.52946 122.069615 
L 185.939078 121.869737 
L 186.047869 121.603233 
L 186.064364 121.536607 
L 186.314283 121.33673 
L 186.349576 121.136852 
L 187.019991 120.670471 
L 187.877614 119.53783 
L 188.235099 119.071449 
L 188.321991 118.738319 
L 188.484214 118.538441 
L 189.159957 117.272549 
L 189.559426 116.939419 
L 189.640821 116.672916 
L 189.843752 116.473038 
L 189.93892 116.073282 
L 190.790984 115.007268 
L 191.109346 114.674138 
L 191.271922 114.341009 
L 191.521736 114.207757 
L 191.662499 114.007879 
L 192.394282 113.608124 
L 192.702438 113.141742 
L 193.009066 112.875239 
L 193.203192 112.408857 
L 193.597527 111.87585 
L 193.880968 111.675972 
L 193.934514 111.609346 
L 194.232584 111.476094 
L 194.297857 111.276217 
L 194.959 110.876461 
L 195.082356 110.476706 
L 195.25491 110.276828 
L 195.313855 110.143576 
L 195.652013 109.943698 
L 195.904896 109.677195 
L 196.502084 109.210813 
L 196.895633 108.94431 
L 197.455157 108.544554 
L 197.816146 108.344676 
L 198.05056 108.011547 
L 198.241247 107.678417 
L 198.24316 107.611791 
L 198.519779 107.411914 
L 198.707729 107.078784 
L 199.097605 106.679028 
L 199.159748 106.545777 
L 199.359671 106.412525 
L 199.377257 106.212647 
L 199.674224 106.012769 
L 199.685573 105.946143 
L 199.87941 105.746266 
L 200.186255 105.413136 
L 200.228481 105.279884 
L 200.57948 105.080007 
L 201.539259 104.347121 
L 201.798829 104.147244 
L 202.091764 103.680862 
L 202.450897 103.414359 
L 202.523784 103.281107 
L 202.777019 103.081229 
L 202.926203 102.881351 
L 203.085921 102.7481 
L 203.187411 102.481596 
L 203.874604 101.815337 
L 204.005671 101.615459 
L 204.447053 101.482207 
L 204.537007 101.348955 
L 204.730822 101.149078 
L 204.938193 100.682696 
L 205.785628 100.083063 
L 205.943667 99.883185 
L 206.349385 99.550056 
L 206.806319 99.350178 
L 206.926074 99.1503 
L 207.367836 98.550667 
L 207.629018 98.350789 
L 207.734776 98.150911 
L 207.957599 97.817782 
L 208.928325 97.3514 
L 209.044714 97.151523 
L 210.337766 95.685753 
L 210.654888 95.485875 
L 211.000529 94.952868 
L 211.407233 94.686364 
L 211.488354 94.486486 
L 211.760647 94.086731 
L 211.824467 93.886853 
L 212.143204 93.620349 
L 212.428747 93.353846 
L 212.836531 92.95409 
L 212.944186 92.687586 
L 213.306777 92.421083 
L 213.508309 92.087953 
L 214.454686 91.754824 
L 215.209401 91.15519 
L 215.647127 90.955313 
L 216.141998 90.555557 
L 216.607037 90.355679 
L 217.069779 90.155802 
L 217.162805 90.02255 
L 217.468918 89.756046 
L 217.878823 89.556168 
L 218.093885 89.223039 
L 218.115967 89.156413 
L 218.762082 88.756657 
L 219.083036 88.423528 
L 219.866994 88.290276 
L 220.017074 88.090398 
L 220.595592 87.890521 
L 220.598231 87.823895 
L 221.003703 87.490765 
L 221.054991 87.424139 
L 221.494195 87.224261 
L 221.536981 87.09101 
L 221.816467 86.891132 
L 221.829623 86.824506 
L 222.292514 86.558002 
L 222.920238 86.024995 
L 223.099164 85.691865 
L 223.849539 85.358736 
L 223.878452 85.225484 
L 226.421063 83.559836 
L 227.009569 82.760325 
L 227.339518 82.627073 
L 227.821314 81.960814 
L 228.278851 81.694311 
L 228.572378 81.427807 
L 228.904582 81.227929 
L 230.302656 79.695533 
L 230.445686 79.495655 
L 230.927812 78.896022 
L 231.410451 78.562893 
L 231.514056 78.496267 
L 231.975973 78.296389 
L 233.111761 77.496878 
L 233.392532 77.363626 
L 233.688935 76.963871 
L 234.215681 76.763993 
L 234.299032 76.564115 
L 234.944045 76.230986 
L 235.695845 75.498101 
L 236.144374 75.298223 
L 236.513653 74.898467 
L 237.329934 74.69859 
L 237.348682 74.631964 
L 237.777826 74.498712 
L 237.88412 74.298834 
L 238.993749 74.03233 
L 239.293867 73.699201 
L 240.250341 73.166194 
L 240.278495 73.099568 
L 241.0779 72.699812 
L 241.3062 72.433308 
L 241.48391 72.233431 
L 241.548184 72.100179 
L 242.056905 71.833675 
L 242.862022 71.10079 
L 243.786419 70.567783 
L 243.999743 70.301279 
L 244.196594 70.168027 
L 244.628354 69.96815 
L 245.250062 69.701646 
L 245.877078 69.501768 
L 245.971891 69.368516 
L 246.342593 69.102013 
L 246.345785 69.035387 
L 247.411489 68.635631 
L 247.492513 68.569005 
L 247.92668 68.369128 
L 248.223089 67.969372 
L 248.883511 67.702869 
L 249.515516 67.502991 
L 249.835866 67.303113 
L 249.9457 67.103235 
L 250.160832 66.903358 
L 250.186455 66.836732 
L 250.450038 66.636854 
L 250.881871 66.037221 
L 251.262327 65.837343 
L 251.335973 65.570839 
L 252.326967 65.23771 
L 252.525878 65.104458 
L 253.185396 64.90458 
L 253.271039 64.771328 
L 253.674452 64.571451 
L 254.875098 64.304947 
L 256.236704 63.638688 
L 257.471137 63.172306 
L 257.538568 63.10568 
L 258.202093 62.905803 
L 258.24959 62.772551 
L 258.670701 62.572673 
L 258.701685 62.506047 
L 261.150705 62.039666 
L 261.194891 61.97304 
L 261.402208 61.839788 
L 261.482832 61.706536 
L 262.904917 61.373407 
L 263.194921 61.173529 
L 263.862284 60.907025 
L 264.155043 60.773773 
L 264.389049 60.573896 
L 264.440602 60.50727 
L 264.801728 60.374018 
L 264.829757 60.307392 
L 266.602486 59.774385 
L 268.65228 59.507881 
L 269.052323 59.241377 
L 270.419879 58.974874 
L 270.434567 58.841622 
L 271.670755 58.641744 
L 273.441539 57.642355 
L 273.489583 57.509104 
L 274.638976 57.309226 
L 274.683279 57.2426 
L 274.930479 57.175974 
L 277.036815 56.976096 
L 277.158113 56.90947 
L 278.924686 56.642967 
L 279.588423 56.376463 
L 280.006384 56.043333 
L 281.127178 55.843456 
L 281.285331 55.710204 
L 282.599213 55.510326 
L 283.137705 55.377074 
L 285.565459 54.977319 
L 285.571951 54.910693 
L 286.619088 54.710815 
L 286.647926 54.644189 
L 287.515313 54.510937 
L 287.532877 54.444312 
L 288.088035 54.177808 
L 289.118378 54.044556 
L 289.49958 53.778052 
L 289.504728 53.711426 
L 289.6727 53.644801 
L 291.800276 53.311671 
L 291.847777 53.245045 
L 292.793315 52.978541 
L 293.307173 52.778664 
L 293.321242 52.712038 
L 293.819714 52.578786 
L 293.920196 52.445534 
L 295.110871 52.245656 
L 295.868019 51.979153 
L 296.583535 51.845901 
L 296.606218 51.779275 
L 296.800367 51.712649 
L 298.287953 51.446145 
L 301.634703 50.580009 
L 301.726949 50.513383 
L 303.645286 50.180253 
L 304.950518 49.980375 
L 305.038877 49.913749 
L 305.892213 49.647246 
L 307.062908 49.447368 
L 320.082019 47.515216 
L 320.18909 47.448591 
L 322.403048 47.182087 
L 324.600332 46.982209 
L 324.737843 46.915583 
L 332.402588 46.182698 
L 334.536272 46.049446 
L 335.096515 45.98282 
L 336.912101 45.849569 
L 336.974793 45.782943 
L 338.186829 45.649691 
L 351.110286 44.85018 
L 352.16085 44.650302 
L 356.154576 44.383798 
L 356.155552 44.317173 
L 376.069389 43.517662 
L 381.219205 43.38441 
L 381.50999 43.317784 
L 387.283906 43.05128 
L 428.746591 42.118517 
L 438.650173 41.785388 
L 448.424867 41.452258 
L 480.36035 41.052503 
L 545.1075 40.852625 
L 545.1075 40.852625 
" style="fill:none;stroke:#0000ff;stroke-linecap:square;stroke-width:2.0;"/>
   </g>
   <g id="line2d_2">
    <path clip-path="url(#p601dd9c0fe)" d="M 74.48625 368.71875 
L 74.565801 367.890235 
L 74.739913 367.287678 
L 74.825178 366.9864 
L 74.943945 366.760441 
L 75.087064 366.308523 
L 75.579074 364.802132 
L 75.739808 360.433596 
L 75.895613 358.550607 
L 75.970988 358.324648 
L 76.150288 357.646772 
L 76.726262 355.537824 
L 76.882618 355.085906 
L 76.996571 354.48335 
L 77.853583 351.922484 
L 77.955364 351.319927 
L 78.143829 350.943329 
L 78.636795 349.06034 
L 80.99885 338.816877 
L 81.051301 338.515599 
L 81.236755 337.687084 
L 81.545597 336.331331 
L 81.706295 335.728775 
L 81.86431 335.427496 
L 81.958686 334.82494 
L 82.009396 334.598981 
L 82.082394 334.373022 
L 82.216741 333.996424 
L 82.336269 333.393868 
L 82.539461 332.791311 
L 82.709471 332.038115 
L 82.921684 331.586198 
L 83.052149 330.757682 
L 83.056655 330.607043 
L 83.244135 330.381085 
L 83.335748 330.079806 
L 83.663126 329.025332 
L 83.813057 328.422776 
L 83.953138 328.121497 
L 84.042452 327.66958 
L 84.176474 327.368301 
L 84.4798 326.539786 
L 85.428014 324.12956 
L 85.851107 321.945292 
L 86.823255 314.262695 
L 87.228091 311.927788 
L 87.361822 311.174592 
L 87.449459 310.572035 
L 87.723629 308.613726 
L 87.828713 308.01117 
L 88.118834 306.354139 
L 88.45081 304.019232 
L 88.714861 303.115397 
L 88.852322 302.286882 
L 89.021052 301.759645 
L 89.099348 301.232408 
L 89.322298 301.006449 
L 89.553668 299.951975 
L 89.658242 299.726016 
L 89.786324 299.198779 
L 89.897507 299.04814 
L 89.955216 298.596222 
L 90.0678 298.370264 
L 91.583191 293.097893 
L 91.710665 292.796615 
L 92.020551 291.516182 
L 92.128786 291.214904 
L 92.656432 289.934471 
L 92.812359 289.407234 
L 93.139918 288.879997 
L 93.275713 288.503399 
L 94.614131 283.908905 
L 95.011686 283.231028 
L 95.121878 282.327194 
L 95.969737 279.163771 
L 96.114253 278.485895 
L 96.229703 278.184617 
L 96.967094 275.247153 
L 97.078975 275.096514 
L 97.185562 274.719916 
L 97.466681 273.439483 
L 97.604277 272.30969 
L 97.802176 270.803298 
L 97.915726 270.276061 
L 98.157559 268.69435 
L 98.317672 268.091793 
L 98.419704 267.263278 
L 98.665868 265.907525 
L 98.963219 263.120701 
L 99.19608 262.593464 
L 99.36052 261.990907 
L 99.639386 260.936433 
L 99.709227 260.559835 
L 99.896628 260.183237 
L 100.1602 259.279403 
L 101.015405 256.643217 
L 101.569404 254.609589 
L 101.669701 254.232991 
L 101.954267 253.856393 
L 102.063115 253.479795 
L 102.260751 253.329156 
L 102.364199 253.103197 
L 102.678055 252.425321 
L 103.550718 250.241053 
L 103.797702 249.864455 
L 104.006103 249.261899 
L 104.162983 249.03594 
L 104.252809 248.433383 
L 104.50507 247.830827 
L 104.788833 247.15295 
L 104.858993 246.926992 
L 104.970584 246.399755 
L 106.694406 241.127384 
L 106.861668 240.976745 
L 107.564362 238.717158 
L 107.901401 238.189921 
L 107.998902 237.662683 
L 108.146294 237.286086 
L 108.249817 237.060127 
L 108.361178 236.834168 
L 108.48236 236.45757 
L 108.603278 235.779694 
L 109.098824 234.72522 
L 109.218381 234.122663 
L 109.355172 233.896705 
L 109.727535 233.444787 
L 109.85701 233.218828 
L 110.314328 232.089035 
L 110.426505 231.863076 
L 110.598393 231.486478 
L 111.134698 229.980086 
L 111.27264 229.528169 
L 111.380935 229.30221 
L 111.638182 229.000932 
L 111.826949 228.699654 
L 112.00383 227.795819 
L 112.32873 227.117943 
L 112.465154 226.666025 
L 112.567987 226.289427 
L 112.858087 225.76219 
L 113.048768 225.234953 
L 113.319645 224.481757 
L 113.408484 224.180479 
L 113.555531 224.02984 
L 113.651879 223.728561 
L 113.810673 223.502603 
L 113.953656 222.900046 
L 114.208684 222.523448 
L 114.309115 221.996211 
L 114.656425 220.866417 
L 114.762335 220.640459 
L 114.875129 220.4145 
L 115.003763 220.113222 
L 115.568179 218.757469 
L 115.704237 218.154913 
L 116.000435 217.401717 
L 116.15829 216.949799 
L 116.467731 216.723841 
L 116.553064 216.347243 
L 116.62187 215.669367 
L 116.860234 215.14213 
L 117.117486 214.464253 
L 117.285553 214.087655 
L 117.846589 212.430625 
L 118.121718 211.828068 
L 118.409322 210.848914 
L 118.61174 210.698274 
L 118.86032 209.945079 
L 119.122998 209.116563 
L 119.204055 208.890605 
L 119.389866 208.514007 
L 121.024005 201.584605 
L 121.160416 201.433966 
L 121.303004 200.83141 
L 121.595289 200.078214 
L 121.722765 199.701616 
L 123.255193 195.182441 
L 123.453917 194.579885 
L 123.886122 192.621576 
L 124.035884 192.320297 
L 124.325354 191.265823 
L 124.47953 190.964545 
L 124.593077 190.437308 
L 124.726096 189.759432 
L 124.804099 189.458153 
L 125.073361 188.704958 
L 125.156935 188.403679 
L 125.284173 187.876442 
L 125.409223 187.575164 
L 125.527288 186.897288 
L 125.635527 186.671329 
L 125.736086 186.370051 
L 125.869635 185.993453 
L 126.395402 184.185783 
L 126.548482 183.959824 
L 126.826721 182.528752 
L 127.168863 181.624917 
L 127.36727 181.173 
L 127.497701 180.796402 
L 127.929497 179.741928 
L 128.119607 179.440649 
L 128.384278 178.762773 
L 128.489758 178.612134 
L 128.836872 178.084897 
L 129.085654 177.181062 
L 129.228963 176.879784 
L 129.94576 174.770835 
L 130.156162 174.394238 
L 130.432706 173.490403 
L 130.628111 172.887846 
L 130.779609 172.661887 
L 130.97749 172.059331 
L 131.067279 171.682733 
L 131.226437 171.456774 
L 131.237156 171.381454 
L 131.513671 171.155496 
L 131.981898 169.875063 
L 132.104981 169.498465 
L 132.289048 168.59463 
L 132.475208 167.766115 
L 132.634858 167.464836 
L 132.757692 167.012919 
L 133.199347 165.581847 
L 133.298481 165.355888 
L 133.562558 164.226095 
L 133.739183 164.000136 
L 134.011645 163.24694 
L 134.120596 163.020981 
L 134.485954 161.966507 
L 134.531901 161.815868 
L 134.643091 161.589909 
L 134.867677 161.213311 
L 135.469193 159.857559 
L 135.686576 159.6316 
L 135.884137 159.104363 
L 135.968412 158.878404 
L 136.099035 158.727765 
L 136.226774 158.275848 
L 136.379805 158.049889 
L 136.494008 157.89925 
L 136.615909 157.522652 
L 136.795949 156.995415 
L 137.025647 156.618817 
L 137.159323 156.468178 
L 137.178346 156.242219 
L 137.331684 156.09158 
L 137.443867 155.489023 
L 137.802233 154.886467 
L 137.996585 154.208591 
L 138.295705 153.681354 
L 139.330254 150.216653 
L 139.403836 149.990694 
L 139.607946 149.237498 
L 139.777203 149.086859 
L 139.906698 148.8609 
L 140.365604 148.408983 
L 140.472597 148.107705 
L 141.150901 146.977911 
L 141.163186 146.827272 
L 141.332358 146.676633 
L 141.424882 146.074076 
L 141.624065 145.546839 
L 141.899063 144.944282 
L 142.088741 144.793643 
L 142.231753 144.492365 
L 142.354051 144.115767 
L 142.526673 143.965128 
L 142.707561 143.66385 
L 143.24663 142.534056 
L 143.509729 142.006819 
L 143.599792 141.78086 
L 143.686382 141.479582 
L 144.008285 140.726386 
L 144.101431 140.425108 
L 144.384205 140.199149 
L 144.446979 139.97319 
L 144.777583 139.747232 
L 145.279662 138.466799 
L 145.348179 138.24084 
L 145.745434 137.713603 
L 145.837733 137.412325 
L 146.162495 137.035727 
L 146.193684 136.885088 
L 146.409685 136.734448 
L 146.582849 136.282531 
L 146.745861 135.981253 
L 146.769836 135.755294 
L 147.023754 135.604655 
L 147.231704 135.077418 
L 147.413073 134.776139 
L 147.653146 134.324222 
L 147.726217 134.022944 
L 148.013014 133.646346 
L 148.16508 133.119109 
L 148.276645 132.89315 
L 148.478943 132.591872 
L 148.975475 132.139954 
L 149.203416 131.236119 
L 149.287212 131.01016 
L 149.679385 129.880367 
L 149.826522 129.654408 
L 149.9109 129.35313 
L 150.534595 128.675253 
L 150.637344 128.373975 
L 151.017124 127.846738 
L 151.03017 127.696099 
L 151.242216 127.47014 
L 151.648577 127.018223 
L 151.827818 126.716944 
L 151.89431 126.566305 
L 152.12681 126.415666 
L 152.866198 125.135233 
L 153.426841 124.984594 
L 153.597329 124.758635 
L 153.812189 124.080759 
L 154.074126 123.628842 
L 154.25814 123.402883 
L 154.296024 123.176924 
L 154.487881 122.950966 
L 154.715106 122.348409 
L 154.894701 122.19777 
L 154.981763 121.971811 
L 155.261028 121.745852 
L 155.559897 121.519894 
L 155.678927 121.369254 
L 155.946608 121.067976 
L 156.217443 120.540739 
L 156.764094 119.938182 
L 157.032757 119.034347 
L 157.205501 118.65775 
L 157.495037 118.50711 
L 158.11712 117.753915 
L 158.229729 117.527956 
L 158.498659 117.226678 
L 158.507998 117.076038 
L 158.666704 116.925399 
L 158.771958 116.624121 
L 159.05881 116.172203 
L 159.229937 115.870925 
L 159.464288 115.343688 
L 159.937385 113.536018 
L 160.078413 113.008781 
L 160.257746 112.406225 
L 160.370137 112.180266 
L 160.535439 111.50239 
L 160.669096 111.35175 
L 160.75046 111.050472 
L 161.03186 110.899833 
L 161.136995 110.673874 
L 161.522459 110.221957 
L 161.636718 109.770039 
L 161.814847 109.393441 
L 162.175504 109.167483 
L 162.284206 108.790885 
L 162.536088 108.489606 
L 164.271429 104.648308 
L 164.655403 103.970432 
L 165.095841 102.53936 
L 165.242604 102.238081 
L 165.349026 101.936803 
L 165.997383 100.279772 
L 166.140693 99.903175 
L 166.386948 99.300618 
L 166.538764 98.99934 
L 166.859683 98.622742 
L 166.916431 98.396783 
L 167.076616 98.095505 
L 167.479693 97.041031 
L 167.757515 96.815072 
L 168.044015 96.363154 
L 168.160825 95.986556 
L 168.169788 95.911237 
L 168.604664 95.760598 
L 168.857424 95.384 
L 169.162554 94.932082 
L 169.39481 94.555484 
L 170.235575 93.275052 
L 170.25728 93.124412 
L 170.764326 92.597175 
L 170.782987 92.521856 
L 171.072268 92.295897 
L 171.184451 92.069938 
L 171.90565 91.166103 
L 171.938859 91.090784 
L 172.336316 90.940145 
L 172.798406 90.412908 
L 173.020584 90.262268 
L 173.28375 90.111629 
L 173.482798 89.810351 
L 173.871054 89.584392 
L 173.995 89.433753 
L 174.488782 89.207794 
L 174.693525 88.605238 
L 174.756899 88.303959 
L 174.980984 88.15332 
L 175.110456 87.776722 
L 175.370959 87.550764 
L 175.425446 87.098846 
L 175.715031 86.872887 
L 175.828416 86.646929 
L 175.873863 86.49629 
L 176.149474 86.270331 
L 176.156657 86.195011 
L 176.452356 86.044372 
L 176.563758 85.818413 
L 176.752103 85.517135 
L 177.055304 85.291176 
L 177.077331 85.140537 
L 177.436271 84.914578 
L 177.785609 84.537981 
L 178.049041 84.161383 
L 178.498436 83.860104 
L 178.785883 83.408187 
L 179.247314 82.80563 
L 179.378126 82.654991 
L 179.549581 82.429032 
L 179.659358 82.127754 
L 179.992488 81.600517 
L 180.136634 81.449878 
L 180.213904 81.148599 
L 180.619211 80.696682 
L 180.671535 80.546043 
L 180.902374 80.320084 
L 180.989795 80.094125 
L 181.249327 79.792847 
L 181.299312 79.642208 
L 181.413196 79.416249 
L 181.547363 79.114971 
L 182.058699 78.437095 
L 182.651512 77.53326 
L 182.819989 77.307301 
L 183.315328 76.252827 
L 183.417117 76.102188 
L 183.509361 75.876229 
L 183.734264 75.65027 
L 183.858868 75.273672 
L 183.978541 74.821755 
L 184.215411 74.595796 
L 184.375855 73.91792 
L 184.720387 73.014085 
L 184.89771 72.863446 
L 185.008353 72.637487 
L 185.431021 72.260889 
L 185.595944 72.03493 
L 185.953604 71.884291 
L 186.046459 71.583013 
L 186.193592 71.357054 
L 186.77369 70.679178 
L 187.016527 70.3779 
L 187.304806 70.151941 
L 187.397773 70.001302 
L 187.831569 69.248106 
L 188.471792 69.097467 
L 188.551179 68.796189 
L 188.775506 68.645549 
L 188.958277 68.344271 
L 189.752879 67.967673 
L 189.81771 67.817034 
L 190.29891 67.591075 
L 190.397517 67.365117 
L 190.8441 66.76256 
L 190.911255 66.536601 
L 191.086137 66.385962 
L 191.380563 66.009364 
L 191.557024 65.783405 
L 191.986796 65.632766 
L 192.074458 65.406808 
L 192.328168 65.256168 
L 192.382252 65.180849 
L 193.150292 64.804251 
L 193.549482 64.502973 
L 193.68079 64.277014 
L 193.920721 64.051055 
L 193.93862 63.975736 
L 194.214573 63.749777 
L 194.444855 63.373179 
L 194.948998 63.14722 
L 195.420055 62.619983 
L 195.652118 62.318705 
L 196.292117 62.017427 
L 197.357099 61.113592 
L 198.033585 60.812313 
L 198.431332 60.586355 
L 199.172156 60.360396 
L 199.244902 59.983798 
L 200.085822 59.6072 
L 200.246927 59.381241 
L 201.033067 59.004643 
L 201.337186 58.778685 
L 202.057802 58.477406 
L 202.060879 58.402087 
L 203.275243 58.025489 
L 203.301878 57.950169 
L 204.061543 57.648891 
L 204.347952 57.498252 
L 205.886655 57.046334 
L 205.896519 56.895695 
L 206.805135 56.669736 
L 206.952073 56.519097 
L 207.614824 55.916541 
L 208.024091 55.765902 
L 208.049064 55.690582 
L 209.013443 55.313984 
L 209.837724 55.088025 
L 209.912806 54.937386 
L 210.523117 54.786747 
L 211.142514 54.410149 
L 211.523532 54.25951 
L 211.57179 54.18419 
L 211.802962 54.033551 
L 211.807519 53.958232 
L 212.271237 53.807592 
L 212.775575 53.656953 
L 212.779867 53.581634 
L 215.808854 52.677799 
L 216.004832 52.52716 
L 216.250953 52.376521 
L 217.471044 51.999923 
L 217.800589 51.698644 
L 218.210746 51.548005 
L 218.228548 51.472686 
L 218.804074 51.322046 
L 220.910223 51.020768 
L 222.249369 50.71949 
L 222.36898 50.64417 
L 224.046693 50.493531 
L 224.167536 50.418211 
L 225.004524 50.267572 
L 225.069319 50.192253 
L 226.529429 49.966294 
L 227.521683 49.815655 
L 229.267879 49.589696 
L 229.694903 49.439057 
L 230.241581 49.213098 
L 232.474198 48.761181 
L 233.031485 48.535222 
L 234.276811 48.309263 
L 236.938373 48.158624 
L 236.95249 48.083305 
L 237.27243 48.007985 
L 238.572278 47.857346 
L 239.403976 47.631387 
L 239.423417 47.556067 
L 244.591496 46.878191 
L 244.992511 46.652233 
L 245.867393 46.426274 
L 245.872622 46.350954 
L 248.160867 46.049676 
L 248.943676 45.823717 
L 249.204325 45.748398 
L 249.890625 45.597758 
L 250.518902 45.145841 
L 252.775467 44.618604 
L 254.266772 44.166686 
L 258.00283 44.016047 
L 259.512792 43.714769 
L 262.344636 43.56413 
L 264.241091 43.338171 
L 264.33375 43.262852 
L 265.289524 43.187532 
L 269.768776 43.036893 
L 270.08068 42.961573 
L 271.884169 42.810934 
L 271.89354 42.735614 
L 273.686844 42.584975 
L 278.93053 42.359017 
L 278.938026 42.283697 
L 282.32429 42.133058 
L 282.806542 42.057738 
L 295.856035 41.455182 
L 304.000032 41.304542 
L 310.569247 41.078584 
L 356.859 40.852625 
L 356.859 40.852625 
" style="fill:none;stroke:#008000;stroke-linecap:square;stroke-width:2.0;"/>
   </g>
   <g id="patch_3">
    <path d="M 545.1075 368.71875 
L 545.1075 40.852625 
" style="fill:none;stroke:#000000;stroke-linecap:square;stroke-linejoin:miter;stroke-width:2.0;"/>
   </g>
   <g id="patch_4">
    <path d="M 74.48625 40.852625 
L 545.1075 40.852625 
" style="fill:none;stroke:#000000;stroke-linecap:square;stroke-linejoin:miter;stroke-width:2.0;"/>
   </g>
   <g id="patch_5">
    <path d="M 74.48625 368.71875 
L 74.48625 40.852625 
" style="fill:none;stroke:#000000;stroke-linecap:square;stroke-linejoin:miter;stroke-width:2.0;"/>
   </g>
   <g id="patch_6">
    <path d="M 74.48625 368.71875 
L 545.1075 368.71875 
" style="fill:none;stroke:#000000;stroke-linecap:square;stroke-linejoin:miter;stroke-width:2.0;"/>
   </g>
   <g id="matplotlib.axis_1">
    <g id="xtick_1">
     <g id="line2d_3">
      <path clip-path="url(#p601dd9c0fe)" d="M 74.48625 368.71875 
L 74.48625 40.852625 
" style="fill:none;stroke:#000000;stroke-dasharray:1.000000,3.000000;stroke-dashoffset:0.0;stroke-width:2.0;"/>
     </g>
     <g id="line2d_4">
      <defs>
       <path d="M 0 0 
L 0 -4 
" id="m7d5bcfc32f" style="stroke:#000000;stroke-width:0.5;"/>
      </defs>
      <g>
       <use style="stroke:#000000;stroke-width:0.5;" x="74.48625" xlink:href="#m7d5bcfc32f" y="368.71875"/>
      </g>
     </g>
     <g id="line2d_5">
      <defs>
       <path d="M 0 0 
L 0 4 
" id="m01d324526f" style="stroke:#000000;stroke-width:0.5;"/>
      </defs>
      <g>
       <use style="stroke:#000000;stroke-width:0.5;" x="74.48625" xlink:href="#m01d324526f" y="40.852625"/>
      </g>
     </g>
     <g id="text_1">
      <!-- 0 -->
      <defs>
       <path d="M 31.78125 66.40625 
Q 24.171875 66.40625 20.328125 58.90625 
Q 16.5 51.421875 16.5 36.375 
Q 16.5 21.390625 20.328125 13.890625 
Q 24.171875 6.390625 31.78125 6.390625 
Q 39.453125 6.390625 43.28125 13.890625 
Q 47.125 21.390625 47.125 36.375 
Q 47.125 51.421875 43.28125 58.90625 
Q 39.453125 66.40625 31.78125 66.40625 
M 31.78125 74.21875 
Q 44.046875 74.21875 50.515625 64.515625 
Q 56.984375 54.828125 56.984375 36.375 
Q 56.984375 17.96875 50.515625 8.265625 
Q 44.046875 -1.421875 31.78125 -1.421875 
Q 19.53125 -1.421875 13.0625 8.265625 
Q 6.59375 17.96875 6.59375 36.375 
Q 6.59375 54.828125 13.0625 64.515625 
Q 19.53125 74.21875 31.78125 74.21875 
" id="BitstreamVeraSans-Roman-30"/>
      </defs>
      <g transform="translate(68.76 386.3959375)scale(0.18 -0.18)">
       <use xlink:href="#BitstreamVeraSans-Roman-30"/>
      </g>
     </g>
    </g>
    <g id="xtick_2">
     <g id="line2d_6">
      <path clip-path="url(#p601dd9c0fe)" d="M 168.6105 368.71875 
L 168.6105 40.852625 
" style="fill:none;stroke:#000000;stroke-dasharray:1.000000,3.000000;stroke-dashoffset:0.0;stroke-width:2.0;"/>
     </g>
     <g id="line2d_7">
      <g>
       <use style="stroke:#000000;stroke-width:0.5;" x="168.6105" xlink:href="#m7d5bcfc32f" y="368.71875"/>
      </g>
     </g>
     <g id="line2d_8">
      <g>
       <use style="stroke:#000000;stroke-width:0.5;" x="168.6105" xlink:href="#m01d324526f" y="40.852625"/>
      </g>
     </g>
     <g id="text_2">
      <!-- 5 -->
      <defs>
       <path d="M 10.796875 72.90625 
L 49.515625 72.90625 
L 49.515625 64.59375 
L 19.828125 64.59375 
L 19.828125 46.734375 
Q 21.96875 47.46875 24.109375 47.828125 
Q 26.265625 48.1875 28.421875 48.1875 
Q 40.625 48.1875 47.75 41.5 
Q 54.890625 34.8125 54.890625 23.390625 
Q 54.890625 11.625 47.5625 5.09375 
Q 40.234375 -1.421875 26.90625 -1.421875 
Q 22.3125 -1.421875 17.546875 -0.640625 
Q 12.796875 0.140625 7.71875 1.703125 
L 7.71875 11.625 
Q 12.109375 9.234375 16.796875 8.0625 
Q 21.484375 6.890625 26.703125 6.890625 
Q 35.15625 6.890625 40.078125 11.328125 
Q 45.015625 15.765625 45.015625 23.390625 
Q 45.015625 31 40.078125 35.4375 
Q 35.15625 39.890625 26.703125 39.890625 
Q 22.75 39.890625 18.8125 39.015625 
Q 14.890625 38.140625 10.796875 36.28125 
z
" id="BitstreamVeraSans-Roman-35"/>
      </defs>
      <g transform="translate(162.88425 386.3959375)scale(0.18 -0.18)">
       <use xlink:href="#BitstreamVeraSans-Roman-35"/>
      </g>
     </g>
    </g>
    <g id="xtick_3">
     <g id="line2d_9">
      <path clip-path="url(#p601dd9c0fe)" d="M 262.73475 368.71875 
L 262.73475 40.852625 
" style="fill:none;stroke:#000000;stroke-dasharray:1.000000,3.000000;stroke-dashoffset:0.0;stroke-width:2.0;"/>
     </g>
     <g id="line2d_10">
      <g>
       <use style="stroke:#000000;stroke-width:0.5;" x="262.73475" xlink:href="#m7d5bcfc32f" y="368.71875"/>
      </g>
     </g>
     <g id="line2d_11">
      <g>
       <use style="stroke:#000000;stroke-width:0.5;" x="262.73475" xlink:href="#m01d324526f" y="40.852625"/>
      </g>
     </g>
     <g id="text_3">
      <!-- 10 -->
      <defs>
       <path d="M 12.40625 8.296875 
L 28.515625 8.296875 
L 28.515625 63.921875 
L 10.984375 60.40625 
L 10.984375 69.390625 
L 28.421875 72.90625 
L 38.28125 72.90625 
L 38.28125 8.296875 
L 54.390625 8.296875 
L 54.390625 0 
L 12.40625 0 
z
" id="BitstreamVeraSans-Roman-31"/>
      </defs>
      <g transform="translate(251.28225 386.3959375)scale(0.18 -0.18)">
       <use xlink:href="#BitstreamVeraSans-Roman-31"/>
       <use x="63.623046875" xlink:href="#BitstreamVeraSans-Roman-30"/>
      </g>
     </g>
    </g>
    <g id="xtick_4">
     <g id="line2d_12">
      <path clip-path="url(#p601dd9c0fe)" d="M 356.859 368.71875 
L 356.859 40.852625 
" style="fill:none;stroke:#000000;stroke-dasharray:1.000000,3.000000;stroke-dashoffset:0.0;stroke-width:2.0;"/>
     </g>
     <g id="line2d_13">
      <g>
       <use style="stroke:#000000;stroke-width:0.5;" x="356.859" xlink:href="#m7d5bcfc32f" y="368.71875"/>
      </g>
     </g>
     <g id="line2d_14">
      <g>
       <use style="stroke:#000000;stroke-width:0.5;" x="356.859" xlink:href="#m01d324526f" y="40.852625"/>
      </g>
     </g>
     <g id="text_4">
      <!-- 15 -->
      <g transform="translate(345.4065 386.3959375)scale(0.18 -0.18)">
       <use xlink:href="#BitstreamVeraSans-Roman-31"/>
       <use x="63.623046875" xlink:href="#BitstreamVeraSans-Roman-35"/>
      </g>
     </g>
    </g>
    <g id="xtick_5">
     <g id="line2d_15">
      <path clip-path="url(#p601dd9c0fe)" d="M 450.98325 368.71875 
L 450.98325 40.852625 
" style="fill:none;stroke:#000000;stroke-dasharray:1.000000,3.000000;stroke-dashoffset:0.0;stroke-width:2.0;"/>
     </g>
     <g id="line2d_16">
      <g>
       <use style="stroke:#000000;stroke-width:0.5;" x="450.98325" xlink:href="#m7d5bcfc32f" y="368.71875"/>
      </g>
     </g>
     <g id="line2d_17">
      <g>
       <use style="stroke:#000000;stroke-width:0.5;" x="450.98325" xlink:href="#m01d324526f" y="40.852625"/>
      </g>
     </g>
     <g id="text_5">
      <!-- 20 -->
      <defs>
       <path d="M 19.1875 8.296875 
L 53.609375 8.296875 
L 53.609375 0 
L 7.328125 0 
L 7.328125 8.296875 
Q 12.9375 14.109375 22.625 23.890625 
Q 32.328125 33.6875 34.8125 36.53125 
Q 39.546875 41.84375 41.421875 45.53125 
Q 43.3125 49.21875 43.3125 52.78125 
Q 43.3125 58.59375 39.234375 62.25 
Q 35.15625 65.921875 28.609375 65.921875 
Q 23.96875 65.921875 18.8125 64.3125 
Q 13.671875 62.703125 7.8125 59.421875 
L 7.8125 69.390625 
Q 13.765625 71.78125 18.9375 73 
Q 24.125 74.21875 28.421875 74.21875 
Q 39.75 74.21875 46.484375 68.546875 
Q 53.21875 62.890625 53.21875 53.421875 
Q 53.21875 48.921875 51.53125 44.890625 
Q 49.859375 40.875 45.40625 35.40625 
Q 44.1875 33.984375 37.640625 27.21875 
Q 31.109375 20.453125 19.1875 8.296875 
" id="BitstreamVeraSans-Roman-32"/>
      </defs>
      <g transform="translate(439.53075 386.3959375)scale(0.18 -0.18)">
       <use xlink:href="#BitstreamVeraSans-Roman-32"/>
       <use x="63.623046875" xlink:href="#BitstreamVeraSans-Roman-30"/>
      </g>
     </g>
    </g>
    <g id="xtick_6">
     <g id="line2d_18">
      <path clip-path="url(#p601dd9c0fe)" d="M 545.1075 368.71875 
L 545.1075 40.852625 
" style="fill:none;stroke:#000000;stroke-dasharray:1.000000,3.000000;stroke-dashoffset:0.0;stroke-width:2.0;"/>
     </g>
     <g id="line2d_19">
      <g>
       <use style="stroke:#000000;stroke-width:0.5;" x="545.1075" xlink:href="#m7d5bcfc32f" y="368.71875"/>
      </g>
     </g>
     <g id="line2d_20">
      <g>
       <use style="stroke:#000000;stroke-width:0.5;" x="545.1075" xlink:href="#m01d324526f" y="40.852625"/>
      </g>
     </g>
     <g id="text_6">
      <!-- 25 -->
      <g transform="translate(533.655 386.3959375)scale(0.18 -0.18)">
       <use xlink:href="#BitstreamVeraSans-Roman-32"/>
       <use x="63.623046875" xlink:href="#BitstreamVeraSans-Roman-35"/>
      </g>
     </g>
    </g>
    <g id="text_7">
     <!-- Translation speed (um/min) -->
     <defs>
      <path d="M 34.28125 27.484375 
Q 23.390625 27.484375 19.1875 25 
Q 14.984375 22.515625 14.984375 16.5 
Q 14.984375 11.71875 18.140625 8.90625 
Q 21.296875 6.109375 26.703125 6.109375 
Q 34.1875 6.109375 38.703125 11.40625 
Q 43.21875 16.703125 43.21875 25.484375 
L 43.21875 27.484375 
z
M 52.203125 31.203125 
L 52.203125 0 
L 43.21875 0 
L 43.21875 8.296875 
Q 40.140625 3.328125 35.546875 0.953125 
Q 30.953125 -1.421875 24.3125 -1.421875 
Q 15.921875 -1.421875 10.953125 3.296875 
Q 6 8.015625 6 15.921875 
Q 6 25.140625 12.171875 29.828125 
Q 18.359375 34.515625 30.609375 34.515625 
L 43.21875 34.515625 
L 43.21875 35.40625 
Q 43.21875 41.609375 39.140625 45 
Q 35.0625 48.390625 27.6875 48.390625 
Q 23 48.390625 18.546875 47.265625 
Q 14.109375 46.140625 10.015625 43.890625 
L 10.015625 52.203125 
Q 14.9375 54.109375 19.578125 55.046875 
Q 24.21875 56 28.609375 56 
Q 40.484375 56 46.34375 49.84375 
Q 52.203125 43.703125 52.203125 31.203125 
" id="BitstreamVeraSans-Roman-61"/>
      <path d="M 56.203125 29.59375 
L 56.203125 25.203125 
L 14.890625 25.203125 
Q 15.484375 15.921875 20.484375 11.0625 
Q 25.484375 6.203125 34.421875 6.203125 
Q 39.59375 6.203125 44.453125 7.46875 
Q 49.3125 8.734375 54.109375 11.28125 
L 54.109375 2.78125 
Q 49.265625 0.734375 44.1875 -0.34375 
Q 39.109375 -1.421875 33.890625 -1.421875 
Q 20.796875 -1.421875 13.15625 6.1875 
Q 5.515625 13.8125 5.515625 26.8125 
Q 5.515625 40.234375 12.765625 48.109375 
Q 20.015625 56 32.328125 56 
Q 43.359375 56 49.78125 48.890625 
Q 56.203125 41.796875 56.203125 29.59375 
M 47.21875 32.234375 
Q 47.125 39.59375 43.09375 43.984375 
Q 39.0625 48.390625 32.421875 48.390625 
Q 24.90625 48.390625 20.390625 44.140625 
Q 15.875 39.890625 15.1875 32.171875 
z
" id="BitstreamVeraSans-Roman-65"/>
      <path id="BitstreamVeraSans-Roman-20"/>
      <path d="M 30.609375 48.390625 
Q 23.390625 48.390625 19.1875 42.75 
Q 14.984375 37.109375 14.984375 27.296875 
Q 14.984375 17.484375 19.15625 11.84375 
Q 23.34375 6.203125 30.609375 6.203125 
Q 37.796875 6.203125 41.984375 11.859375 
Q 46.1875 17.53125 46.1875 27.296875 
Q 46.1875 37.015625 41.984375 42.703125 
Q 37.796875 48.390625 30.609375 48.390625 
M 30.609375 56 
Q 42.328125 56 49.015625 48.375 
Q 55.71875 40.765625 55.71875 27.296875 
Q 55.71875 13.875 49.015625 6.21875 
Q 42.328125 -1.421875 30.609375 -1.421875 
Q 18.84375 -1.421875 12.171875 6.21875 
Q 5.515625 13.875 5.515625 27.296875 
Q 5.515625 40.765625 12.171875 48.375 
Q 18.84375 56 30.609375 56 
" id="BitstreamVeraSans-Roman-6f"/>
      <path d="M 44.28125 53.078125 
L 44.28125 44.578125 
Q 40.484375 46.53125 36.375 47.5 
Q 32.28125 48.484375 27.875 48.484375 
Q 21.1875 48.484375 17.84375 46.4375 
Q 14.5 44.390625 14.5 40.28125 
Q 14.5 37.15625 16.890625 35.375 
Q 19.28125 33.59375 26.515625 31.984375 
L 29.59375 31.296875 
Q 39.15625 29.25 43.1875 25.515625 
Q 47.21875 21.78125 47.21875 15.09375 
Q 47.21875 7.46875 41.1875 3.015625 
Q 35.15625 -1.421875 24.609375 -1.421875 
Q 20.21875 -1.421875 15.453125 -0.5625 
Q 10.6875 0.296875 5.421875 2 
L 5.421875 11.28125 
Q 10.40625 8.6875 15.234375 7.390625 
Q 20.0625 6.109375 24.8125 6.109375 
Q 31.15625 6.109375 34.5625 8.28125 
Q 37.984375 10.453125 37.984375 14.40625 
Q 37.984375 18.0625 35.515625 20.015625 
Q 33.0625 21.96875 24.703125 23.78125 
L 21.578125 24.515625 
Q 13.234375 26.265625 9.515625 29.90625 
Q 5.8125 33.546875 5.8125 39.890625 
Q 5.8125 47.609375 11.28125 51.796875 
Q 16.75 56 26.8125 56 
Q 31.78125 56 36.171875 55.265625 
Q 40.578125 54.546875 44.28125 53.078125 
" id="BitstreamVeraSans-Roman-73"/>
      <path d="M 25.390625 72.90625 
L 33.6875 72.90625 
L 8.296875 -9.28125 
L 0 -9.28125 
z
" id="BitstreamVeraSans-Roman-2f"/>
      <path d="M 45.40625 46.390625 
L 45.40625 75.984375 
L 54.390625 75.984375 
L 54.390625 0 
L 45.40625 0 
L 45.40625 8.203125 
Q 42.578125 3.328125 38.25 0.953125 
Q 33.9375 -1.421875 27.875 -1.421875 
Q 17.96875 -1.421875 11.734375 6.484375 
Q 5.515625 14.40625 5.515625 27.296875 
Q 5.515625 40.1875 11.734375 48.09375 
Q 17.96875 56 27.875 56 
Q 33.9375 56 38.25 53.625 
Q 42.578125 51.265625 45.40625 46.390625 
M 14.796875 27.296875 
Q 14.796875 17.390625 18.875 11.75 
Q 22.953125 6.109375 30.078125 6.109375 
Q 37.203125 6.109375 41.296875 11.75 
Q 45.40625 17.390625 45.40625 27.296875 
Q 45.40625 37.203125 41.296875 42.84375 
Q 37.203125 48.484375 30.078125 48.484375 
Q 22.953125 48.484375 18.875 42.84375 
Q 14.796875 37.203125 14.796875 27.296875 
" id="BitstreamVeraSans-Roman-64"/>
      <path d="M 18.3125 70.21875 
L 18.3125 54.6875 
L 36.8125 54.6875 
L 36.8125 47.703125 
L 18.3125 47.703125 
L 18.3125 18.015625 
Q 18.3125 11.328125 20.140625 9.421875 
Q 21.96875 7.515625 27.59375 7.515625 
L 36.8125 7.515625 
L 36.8125 0 
L 27.59375 0 
Q 17.1875 0 13.234375 3.875 
Q 9.28125 7.765625 9.28125 18.015625 
L 9.28125 47.703125 
L 2.6875 47.703125 
L 2.6875 54.6875 
L 9.28125 54.6875 
L 9.28125 70.21875 
z
" id="BitstreamVeraSans-Roman-74"/>
      <path d="M 18.109375 8.203125 
L 18.109375 -20.796875 
L 9.078125 -20.796875 
L 9.078125 54.6875 
L 18.109375 54.6875 
L 18.109375 46.390625 
Q 20.953125 51.265625 25.265625 53.625 
Q 29.59375 56 35.59375 56 
Q 45.5625 56 51.78125 48.09375 
Q 58.015625 40.1875 58.015625 27.296875 
Q 58.015625 14.40625 51.78125 6.484375 
Q 45.5625 -1.421875 35.59375 -1.421875 
Q 29.59375 -1.421875 25.265625 0.953125 
Q 20.953125 3.328125 18.109375 8.203125 
M 48.6875 27.296875 
Q 48.6875 37.203125 44.609375 42.84375 
Q 40.53125 48.484375 33.40625 48.484375 
Q 26.265625 48.484375 22.1875 42.84375 
Q 18.109375 37.203125 18.109375 27.296875 
Q 18.109375 17.390625 22.1875 11.75 
Q 26.265625 6.109375 33.40625 6.109375 
Q 40.53125 6.109375 44.609375 11.75 
Q 48.6875 17.390625 48.6875 27.296875 
" id="BitstreamVeraSans-Roman-70"/>
      <path d="M 9.421875 54.6875 
L 18.40625 54.6875 
L 18.40625 0 
L 9.421875 0 
z
M 9.421875 75.984375 
L 18.40625 75.984375 
L 18.40625 64.59375 
L 9.421875 64.59375 
z
" id="BitstreamVeraSans-Roman-69"/>
      <path d="M -0.296875 72.90625 
L 61.375 72.90625 
L 61.375 64.59375 
L 35.5 64.59375 
L 35.5 0 
L 25.59375 0 
L 25.59375 64.59375 
L -0.296875 64.59375 
z
" id="BitstreamVeraSans-Roman-54"/>
      <path d="M 41.109375 46.296875 
Q 39.59375 47.171875 37.8125 47.578125 
Q 36.03125 48 33.890625 48 
Q 26.265625 48 22.1875 43.046875 
Q 18.109375 38.09375 18.109375 28.8125 
L 18.109375 0 
L 9.078125 0 
L 9.078125 54.6875 
L 18.109375 54.6875 
L 18.109375 46.1875 
Q 20.953125 51.171875 25.484375 53.578125 
Q 30.03125 56 36.53125 56 
Q 37.453125 56 38.578125 55.875 
Q 39.703125 55.765625 41.0625 55.515625 
z
" id="BitstreamVeraSans-Roman-72"/>
      <path d="M 8.5 21.578125 
L 8.5 54.6875 
L 17.484375 54.6875 
L 17.484375 21.921875 
Q 17.484375 14.15625 20.5 10.265625 
Q 23.53125 6.390625 29.59375 6.390625 
Q 36.859375 6.390625 41.078125 11.03125 
Q 45.3125 15.671875 45.3125 23.6875 
L 45.3125 54.6875 
L 54.296875 54.6875 
L 54.296875 0 
L 45.3125 0 
L 45.3125 8.40625 
Q 42.046875 3.421875 37.71875 1 
Q 33.40625 -1.421875 27.6875 -1.421875 
Q 18.265625 -1.421875 13.375 4.4375 
Q 8.5 10.296875 8.5 21.578125 
" id="BitstreamVeraSans-Roman-75"/>
      <path d="M 8.015625 75.875 
L 15.828125 75.875 
Q 23.140625 64.359375 26.78125 53.3125 
Q 30.421875 42.28125 30.421875 31.390625 
Q 30.421875 20.453125 26.78125 9.375 
Q 23.140625 -1.703125 15.828125 -13.1875 
L 8.015625 -13.1875 
Q 14.5 -2 17.703125 9.0625 
Q 20.90625 20.125 20.90625 31.390625 
Q 20.90625 42.671875 17.703125 53.65625 
Q 14.5 64.65625 8.015625 75.875 
" id="BitstreamVeraSans-Roman-29"/>
      <path d="M 9.421875 75.984375 
L 18.40625 75.984375 
L 18.40625 0 
L 9.421875 0 
z
" id="BitstreamVeraSans-Roman-6c"/>
      <path d="M 52 44.1875 
Q 55.375 50.25 60.0625 53.125 
Q 64.75 56 71.09375 56 
Q 79.640625 56 84.28125 50.015625 
Q 88.921875 44.046875 88.921875 33.015625 
L 88.921875 0 
L 79.890625 0 
L 79.890625 32.71875 
Q 79.890625 40.578125 77.09375 44.375 
Q 74.3125 48.1875 68.609375 48.1875 
Q 61.625 48.1875 57.5625 43.546875 
Q 53.515625 38.921875 53.515625 30.90625 
L 53.515625 0 
L 44.484375 0 
L 44.484375 32.71875 
Q 44.484375 40.625 41.703125 44.40625 
Q 38.921875 48.1875 33.109375 48.1875 
Q 26.21875 48.1875 22.15625 43.53125 
Q 18.109375 38.875 18.109375 30.90625 
L 18.109375 0 
L 9.078125 0 
L 9.078125 54.6875 
L 18.109375 54.6875 
L 18.109375 46.1875 
Q 21.1875 51.21875 25.484375 53.609375 
Q 29.78125 56 35.6875 56 
Q 41.65625 56 45.828125 52.96875 
Q 50 49.953125 52 44.1875 
" id="BitstreamVeraSans-Roman-6d"/>
      <path d="M 54.890625 33.015625 
L 54.890625 0 
L 45.90625 0 
L 45.90625 32.71875 
Q 45.90625 40.484375 42.875 44.328125 
Q 39.84375 48.1875 33.796875 48.1875 
Q 26.515625 48.1875 22.3125 43.546875 
Q 18.109375 38.921875 18.109375 30.90625 
L 18.109375 0 
L 9.078125 0 
L 9.078125 54.6875 
L 18.109375 54.6875 
L 18.109375 46.1875 
Q 21.34375 51.125 25.703125 53.5625 
Q 30.078125 56 35.796875 56 
Q 45.21875 56 50.046875 50.171875 
Q 54.890625 44.34375 54.890625 33.015625 
" id="BitstreamVeraSans-Roman-6e"/>
      <path d="M 31 75.875 
Q 24.46875 64.65625 21.28125 53.65625 
Q 18.109375 42.671875 18.109375 31.390625 
Q 18.109375 20.125 21.3125 9.0625 
Q 24.515625 -2 31 -13.1875 
L 23.1875 -13.1875 
Q 15.875 -1.703125 12.234375 9.375 
Q 8.59375 20.453125 8.59375 31.390625 
Q 8.59375 42.28125 12.203125 53.3125 
Q 15.828125 64.359375 23.1875 75.875 
z
" id="BitstreamVeraSans-Roman-28"/>
     </defs>
     <g transform="translate(185.04984375 408.8165625)scale(0.18 -0.18)">
      <use xlink:href="#BitstreamVeraSans-Roman-54"/>
      <use x="60.865234375" xlink:href="#BitstreamVeraSans-Roman-72"/>
      <use x="101.978515625" xlink:href="#BitstreamVeraSans-Roman-61"/>
      <use x="163.2578125" xlink:href="#BitstreamVeraSans-Roman-6e"/>
      <use x="226.63671875" xlink:href="#BitstreamVeraSans-Roman-73"/>
      <use x="278.736328125" xlink:href="#BitstreamVeraSans-Roman-6c"/>
      <use x="306.51953125" xlink:href="#BitstreamVeraSans-Roman-61"/>
      <use x="367.798828125" xlink:href="#BitstreamVeraSans-Roman-74"/>
      <use x="407.0078125" xlink:href="#BitstreamVeraSans-Roman-69"/>
      <use x="434.791015625" xlink:href="#BitstreamVeraSans-Roman-6f"/>
      <use x="495.97265625" xlink:href="#BitstreamVeraSans-Roman-6e"/>
      <use x="559.3515625" xlink:href="#BitstreamVeraSans-Roman-20"/>
      <use x="591.138671875" xlink:href="#BitstreamVeraSans-Roman-73"/>
      <use x="643.23828125" xlink:href="#BitstreamVeraSans-Roman-70"/>
      <use x="706.71484375" xlink:href="#BitstreamVeraSans-Roman-65"/>
      <use x="768.23828125" xlink:href="#BitstreamVeraSans-Roman-65"/>
      <use x="829.76171875" xlink:href="#BitstreamVeraSans-Roman-64"/>
      <use x="893.23828125" xlink:href="#BitstreamVeraSans-Roman-20"/>
      <use x="925.025390625" xlink:href="#BitstreamVeraSans-Roman-28"/>
      <use x="964.0390625" xlink:href="#BitstreamVeraSans-Roman-75"/>
      <use x="1027.41796875" xlink:href="#BitstreamVeraSans-Roman-6d"/>
      <use x="1124.830078125" xlink:href="#BitstreamVeraSans-Roman-2f"/>
      <use x="1158.521484375" xlink:href="#BitstreamVeraSans-Roman-6d"/>
      <use x="1255.93359375" xlink:href="#BitstreamVeraSans-Roman-69"/>
      <use x="1283.716796875" xlink:href="#BitstreamVeraSans-Roman-6e"/>
      <use x="1347.095703125" xlink:href="#BitstreamVeraSans-Roman-29"/>
     </g>
    </g>
   </g>
   <g id="matplotlib.axis_2">
    <g id="ytick_1">
     <g id="line2d_21">
      <path clip-path="url(#p601dd9c0fe)" d="M 74.48625 368.71875 
L 545.1075 368.71875 
" style="fill:none;stroke:#000000;stroke-dasharray:1.000000,3.000000;stroke-dashoffset:0.0;stroke-width:2.0;"/>
     </g>
     <g id="line2d_22">
      <defs>
       <path d="M 0 0 
L 4 0 
" id="m1974c16546" style="stroke:#000000;stroke-width:0.5;"/>
      </defs>
      <g>
       <use style="stroke:#000000;stroke-width:0.5;" x="74.48625" xlink:href="#m1974c16546" y="368.71875"/>
      </g>
     </g>
     <g id="line2d_23">
      <defs>
       <path d="M 0 0 
L -4 0 
" id="m155cf15690" style="stroke:#000000;stroke-width:0.5;"/>
      </defs>
      <g>
       <use style="stroke:#000000;stroke-width:0.5;" x="545.1075" xlink:href="#m155cf15690" y="368.71875"/>
      </g>
     </g>
     <g id="text_8">
      <!-- 0.0 -->
      <defs>
       <path d="M 10.6875 12.40625 
L 21 12.40625 
L 21 0 
L 10.6875 0 
z
" id="BitstreamVeraSans-Roman-2e"/>
      </defs>
      <g transform="translate(41.860625 373.685625)scale(0.18 -0.18)">
       <use xlink:href="#BitstreamVeraSans-Roman-30"/>
       <use x="63.623046875" xlink:href="#BitstreamVeraSans-Roman-2e"/>
       <use x="95.41015625" xlink:href="#BitstreamVeraSans-Roman-30"/>
      </g>
     </g>
    </g>
    <g id="ytick_2">
     <g id="line2d_24">
      <path clip-path="url(#p601dd9c0fe)" d="M 74.48625 303.145525 
L 545.1075 303.145525 
" style="fill:none;stroke:#000000;stroke-dasharray:1.000000,3.000000;stroke-dashoffset:0.0;stroke-width:2.0;"/>
     </g>
     <g id="line2d_25">
      <g>
       <use style="stroke:#000000;stroke-width:0.5;" x="74.48625" xlink:href="#m1974c16546" y="303.145525"/>
      </g>
     </g>
     <g id="line2d_26">
      <g>
       <use style="stroke:#000000;stroke-width:0.5;" x="545.1075" xlink:href="#m155cf15690" y="303.145525"/>
      </g>
     </g>
     <g id="text_9">
      <!-- 0.2 -->
      <g transform="translate(41.860625 308.1124)scale(0.18 -0.18)">
       <use xlink:href="#BitstreamVeraSans-Roman-30"/>
       <use x="63.623046875" xlink:href="#BitstreamVeraSans-Roman-2e"/>
       <use x="95.41015625" xlink:href="#BitstreamVeraSans-Roman-32"/>
      </g>
     </g>
    </g>
    <g id="ytick_3">
     <g id="line2d_27">
      <path clip-path="url(#p601dd9c0fe)" d="M 74.48625 237.5723 
L 545.1075 237.5723 
" style="fill:none;stroke:#000000;stroke-dasharray:1.000000,3.000000;stroke-dashoffset:0.0;stroke-width:2.0;"/>
     </g>
     <g id="line2d_28">
      <g>
       <use style="stroke:#000000;stroke-width:0.5;" x="74.48625" xlink:href="#m1974c16546" y="237.5723"/>
      </g>
     </g>
     <g id="line2d_29">
      <g>
       <use style="stroke:#000000;stroke-width:0.5;" x="545.1075" xlink:href="#m155cf15690" y="237.5723"/>
      </g>
     </g>
     <g id="text_10">
      <!-- 0.4 -->
      <defs>
       <path d="M 37.796875 64.3125 
L 12.890625 25.390625 
L 37.796875 25.390625 
z
M 35.203125 72.90625 
L 47.609375 72.90625 
L 47.609375 25.390625 
L 58.015625 25.390625 
L 58.015625 17.1875 
L 47.609375 17.1875 
L 47.609375 0 
L 37.796875 0 
L 37.796875 17.1875 
L 4.890625 17.1875 
L 4.890625 26.703125 
z
" id="BitstreamVeraSans-Roman-34"/>
      </defs>
      <g transform="translate(41.860625 242.539175)scale(0.18 -0.18)">
       <use xlink:href="#BitstreamVeraSans-Roman-30"/>
       <use x="63.623046875" xlink:href="#BitstreamVeraSans-Roman-2e"/>
       <use x="95.41015625" xlink:href="#BitstreamVeraSans-Roman-34"/>
      </g>
     </g>
    </g>
    <g id="ytick_4">
     <g id="line2d_30">
      <path clip-path="url(#p601dd9c0fe)" d="M 74.48625 171.999075 
L 545.1075 171.999075 
" style="fill:none;stroke:#000000;stroke-dasharray:1.000000,3.000000;stroke-dashoffset:0.0;stroke-width:2.0;"/>
     </g>
     <g id="line2d_31">
      <g>
       <use style="stroke:#000000;stroke-width:0.5;" x="74.48625" xlink:href="#m1974c16546" y="171.999075"/>
      </g>
     </g>
     <g id="line2d_32">
      <g>
       <use style="stroke:#000000;stroke-width:0.5;" x="545.1075" xlink:href="#m155cf15690" y="171.999075"/>
      </g>
     </g>
     <g id="text_11">
      <!-- 0.6 -->
      <defs>
       <path d="M 33.015625 40.375 
Q 26.375 40.375 22.484375 35.828125 
Q 18.609375 31.296875 18.609375 23.390625 
Q 18.609375 15.53125 22.484375 10.953125 
Q 26.375 6.390625 33.015625 6.390625 
Q 39.65625 6.390625 43.53125 10.953125 
Q 47.40625 15.53125 47.40625 23.390625 
Q 47.40625 31.296875 43.53125 35.828125 
Q 39.65625 40.375 33.015625 40.375 
M 52.59375 71.296875 
L 52.59375 62.3125 
Q 48.875 64.0625 45.09375 64.984375 
Q 41.3125 65.921875 37.59375 65.921875 
Q 27.828125 65.921875 22.671875 59.328125 
Q 17.53125 52.734375 16.796875 39.40625 
Q 19.671875 43.65625 24.015625 45.921875 
Q 28.375 48.1875 33.59375 48.1875 
Q 44.578125 48.1875 50.953125 41.515625 
Q 57.328125 34.859375 57.328125 23.390625 
Q 57.328125 12.15625 50.6875 5.359375 
Q 44.046875 -1.421875 33.015625 -1.421875 
Q 20.359375 -1.421875 13.671875 8.265625 
Q 6.984375 17.96875 6.984375 36.375 
Q 6.984375 53.65625 15.1875 63.9375 
Q 23.390625 74.21875 37.203125 74.21875 
Q 40.921875 74.21875 44.703125 73.484375 
Q 48.484375 72.75 52.59375 71.296875 
" id="BitstreamVeraSans-Roman-36"/>
      </defs>
      <g transform="translate(41.860625 176.96595)scale(0.18 -0.18)">
       <use xlink:href="#BitstreamVeraSans-Roman-30"/>
       <use x="63.623046875" xlink:href="#BitstreamVeraSans-Roman-2e"/>
       <use x="95.41015625" xlink:href="#BitstreamVeraSans-Roman-36"/>
      </g>
     </g>
    </g>
    <g id="ytick_5">
     <g id="line2d_33">
      <path clip-path="url(#p601dd9c0fe)" d="M 74.48625 106.42585 
L 545.1075 106.42585 
" style="fill:none;stroke:#000000;stroke-dasharray:1.000000,3.000000;stroke-dashoffset:0.0;stroke-width:2.0;"/>
     </g>
     <g id="line2d_34">
      <g>
       <use style="stroke:#000000;stroke-width:0.5;" x="74.48625" xlink:href="#m1974c16546" y="106.42585"/>
      </g>
     </g>
     <g id="line2d_35">
      <g>
       <use style="stroke:#000000;stroke-width:0.5;" x="545.1075" xlink:href="#m155cf15690" y="106.42585"/>
      </g>
     </g>
     <g id="text_12">
      <!-- 0.8 -->
      <defs>
       <path d="M 31.78125 34.625 
Q 24.75 34.625 20.71875 30.859375 
Q 16.703125 27.09375 16.703125 20.515625 
Q 16.703125 13.921875 20.71875 10.15625 
Q 24.75 6.390625 31.78125 6.390625 
Q 38.8125 6.390625 42.859375 10.171875 
Q 46.921875 13.96875 46.921875 20.515625 
Q 46.921875 27.09375 42.890625 30.859375 
Q 38.875 34.625 31.78125 34.625 
M 21.921875 38.8125 
Q 15.578125 40.375 12.03125 44.71875 
Q 8.5 49.078125 8.5 55.328125 
Q 8.5 64.0625 14.71875 69.140625 
Q 20.953125 74.21875 31.78125 74.21875 
Q 42.671875 74.21875 48.875 69.140625 
Q 55.078125 64.0625 55.078125 55.328125 
Q 55.078125 49.078125 51.53125 44.71875 
Q 48 40.375 41.703125 38.8125 
Q 48.828125 37.15625 52.796875 32.3125 
Q 56.78125 27.484375 56.78125 20.515625 
Q 56.78125 9.90625 50.3125 4.234375 
Q 43.84375 -1.421875 31.78125 -1.421875 
Q 19.734375 -1.421875 13.25 4.234375 
Q 6.78125 9.90625 6.78125 20.515625 
Q 6.78125 27.484375 10.78125 32.3125 
Q 14.796875 37.15625 21.921875 38.8125 
M 18.3125 54.390625 
Q 18.3125 48.734375 21.84375 45.5625 
Q 25.390625 42.390625 31.78125 42.390625 
Q 38.140625 42.390625 41.71875 45.5625 
Q 45.3125 48.734375 45.3125 54.390625 
Q 45.3125 60.0625 41.71875 63.234375 
Q 38.140625 66.40625 31.78125 66.40625 
Q 25.390625 66.40625 21.84375 63.234375 
Q 18.3125 60.0625 18.3125 54.390625 
" id="BitstreamVeraSans-Roman-38"/>
      </defs>
      <g transform="translate(41.860625 111.392725)scale(0.18 -0.18)">
       <use xlink:href="#BitstreamVeraSans-Roman-30"/>
       <use x="63.623046875" xlink:href="#BitstreamVeraSans-Roman-2e"/>
       <use x="95.41015625" xlink:href="#BitstreamVeraSans-Roman-38"/>
      </g>
     </g>
    </g>
    <g id="ytick_6">
     <g id="line2d_36">
      <path clip-path="url(#p601dd9c0fe)" d="M 74.48625 40.852625 
L 545.1075 40.852625 
" style="fill:none;stroke:#000000;stroke-dasharray:1.000000,3.000000;stroke-dashoffset:0.0;stroke-width:2.0;"/>
     </g>
     <g id="line2d_37">
      <g>
       <use style="stroke:#000000;stroke-width:0.5;" x="74.48625" xlink:href="#m1974c16546" y="40.852625"/>
      </g>
     </g>
     <g id="line2d_38">
      <g>
       <use style="stroke:#000000;stroke-width:0.5;" x="545.1075" xlink:href="#m155cf15690" y="40.852625"/>
      </g>
     </g>
     <g id="text_13">
      <!-- 1.0 -->
      <g transform="translate(41.860625 45.8195)scale(0.18 -0.18)">
       <use xlink:href="#BitstreamVeraSans-Roman-31"/>
       <use x="63.623046875" xlink:href="#BitstreamVeraSans-Roman-2e"/>
       <use x="95.41015625" xlink:href="#BitstreamVeraSans-Roman-30"/>
      </g>
     </g>
    </g>
    <g id="text_14">
     <!-- Proportion -->
     <defs>
      <path d="M 19.671875 64.796875 
L 19.671875 37.40625 
L 32.078125 37.40625 
Q 38.96875 37.40625 42.71875 40.96875 
Q 46.484375 44.53125 46.484375 51.125 
Q 46.484375 57.671875 42.71875 61.234375 
Q 38.96875 64.796875 32.078125 64.796875 
z
M 9.8125 72.90625 
L 32.078125 72.90625 
Q 44.34375 72.90625 50.609375 67.359375 
Q 56.890625 61.8125 56.890625 51.125 
Q 56.890625 40.328125 50.609375 34.8125 
Q 44.34375 29.296875 32.078125 29.296875 
L 19.671875 29.296875 
L 19.671875 0 
L 9.8125 0 
z
" id="BitstreamVeraSans-Roman-50"/>
     </defs>
     <g transform="translate(33.1171875 251.5744375)rotate(-90.0)scale(0.18 -0.18)">
      <use xlink:href="#BitstreamVeraSans-Roman-50"/>
      <use x="60.287109375" xlink:href="#BitstreamVeraSans-Roman-72"/>
      <use x="101.369140625" xlink:href="#BitstreamVeraSans-Roman-6f"/>
      <use x="162.55078125" xlink:href="#BitstreamVeraSans-Roman-70"/>
      <use x="226.02734375" xlink:href="#BitstreamVeraSans-Roman-6f"/>
      <use x="287.208984375" xlink:href="#BitstreamVeraSans-Roman-72"/>
      <use x="328.322265625" xlink:href="#BitstreamVeraSans-Roman-74"/>
      <use x="367.53125" xlink:href="#BitstreamVeraSans-Roman-69"/>
      <use x="395.314453125" xlink:href="#BitstreamVeraSans-Roman-6f"/>
      <use x="456.49609375" xlink:href="#BitstreamVeraSans-Roman-6e"/>
     </g>
    </g>
   </g>
   <g id="text_15">
    <!-- Translation Speeds -->
    <defs>
     <path d="M 53.515625 70.515625 
L 53.515625 60.890625 
Q 47.90625 63.578125 42.921875 64.890625 
Q 37.9375 66.21875 33.296875 66.21875 
Q 25.25 66.21875 20.875 63.09375 
Q 16.5 59.96875 16.5 54.203125 
Q 16.5 49.359375 19.40625 46.890625 
Q 22.3125 44.4375 30.421875 42.921875 
L 36.375 41.703125 
Q 47.40625 39.59375 52.65625 34.296875 
Q 57.90625 29 57.90625 20.125 
Q 57.90625 9.515625 50.796875 4.046875 
Q 43.703125 -1.421875 29.984375 -1.421875 
Q 24.8125 -1.421875 18.96875 -0.25 
Q 13.140625 0.921875 6.890625 3.21875 
L 6.890625 13.375 
Q 12.890625 10.015625 18.65625 8.296875 
Q 24.421875 6.59375 29.984375 6.59375 
Q 38.421875 6.59375 43.015625 9.90625 
Q 47.609375 13.234375 47.609375 19.390625 
Q 47.609375 24.75 44.3125 27.78125 
Q 41.015625 30.8125 33.5 32.328125 
L 27.484375 33.5 
Q 16.453125 35.6875 11.515625 40.375 
Q 6.59375 45.0625 6.59375 53.421875 
Q 6.59375 63.09375 13.40625 68.65625 
Q 20.21875 74.21875 32.171875 74.21875 
Q 37.3125 74.21875 42.625 73.28125 
Q 47.953125 72.359375 53.515625 70.515625 
" id="BitstreamVeraSans-Roman-53"/>
    </defs>
    <g transform="translate(206.47125 35.852625)scale(0.21599999999999997 -0.21599999999999997)">
     <use xlink:href="#BitstreamVeraSans-Roman-54"/>
     <use x="60.865234375" xlink:href="#BitstreamVeraSans-Roman-72"/>
     <use x="101.978515625" xlink:href="#BitstreamVeraSans-Roman-61"/>
     <use x="163.2578125" xlink:href="#BitstreamVeraSans-Roman-6e"/>
     <use x="226.63671875" xlink:href="#BitstreamVeraSans-Roman-73"/>
     <use x="278.736328125" xlink:href="#BitstreamVeraSans-Roman-6c"/>
     <use x="306.51953125" xlink:href="#BitstreamVeraSans-Roman-61"/>
     <use x="367.798828125" xlink:href="#BitstreamVeraSans-Roman-74"/>
     <use x="407.0078125" xlink:href="#BitstreamVeraSans-Roman-69"/>
     <use x="434.791015625" xlink:href="#BitstreamVeraSans-Roman-6f"/>
     <use x="495.97265625" xlink:href="#BitstreamVeraSans-Roman-6e"/>
     <use x="559.3515625" xlink:href="#BitstreamVeraSans-Roman-20"/>
     <use x="591.138671875" xlink:href="#BitstreamVeraSans-Roman-53"/>
     <use x="654.615234375" xlink:href="#BitstreamVeraSans-Roman-70"/>
     <use x="718.091796875" xlink:href="#BitstreamVeraSans-Roman-65"/>
     <use x="779.615234375" xlink:href="#BitstreamVeraSans-Roman-65"/>
     <use x="841.138671875" xlink:href="#BitstreamVeraSans-Roman-64"/>
     <use x="904.615234375" xlink:href="#BitstreamVeraSans-Roman-73"/>
    </g>
   </g>
   <g id="legend_1">
    <g id="patch_7">
     <path d="M 408.41325 357.91875 
L 534.3075 357.91875 
L 534.3075 288.02925 
L 408.41325 288.02925 
z
" style="fill:#ffffff;stroke:#000000;stroke-linejoin:miter;"/>
    </g>
    <g id="line2d_39">
     <path d="M 423.53325 305.521875 
L 453.77325 305.521875 
" style="fill:none;stroke:#0000ff;stroke-linecap:square;stroke-width:2.0;"/>
    </g>
    <g id="line2d_40"/>
    <g id="text_16">
     <!-- fast -->
     <defs>
      <path d="M 37.109375 75.984375 
L 37.109375 68.5 
L 28.515625 68.5 
Q 23.6875 68.5 21.796875 66.546875 
Q 19.921875 64.59375 19.921875 59.515625 
L 19.921875 54.6875 
L 34.71875 54.6875 
L 34.71875 47.703125 
L 19.921875 47.703125 
L 19.921875 0 
L 10.890625 0 
L 10.890625 47.703125 
L 2.296875 47.703125 
L 2.296875 54.6875 
L 10.890625 54.6875 
L 10.890625 58.5 
Q 10.890625 67.625 15.140625 71.796875 
Q 19.390625 75.984375 28.609375 75.984375 
z
" id="BitstreamVeraSans-Roman-66"/>
     </defs>
     <g transform="translate(477.53325 313.081875)scale(0.21599999999999997 -0.21599999999999997)">
      <use xlink:href="#BitstreamVeraSans-Roman-66"/>
      <use x="35.205078125" xlink:href="#BitstreamVeraSans-Roman-61"/>
      <use x="96.484375" xlink:href="#BitstreamVeraSans-Roman-73"/>
      <use x="148.583984375" xlink:href="#BitstreamVeraSans-Roman-74"/>
     </g>
    </g>
    <g id="line2d_41">
     <path d="M 423.53325 337.226625 
L 453.77325 337.226625 
" style="fill:none;stroke:#008000;stroke-linecap:square;stroke-width:2.0;"/>
    </g>
    <g id="line2d_42"/>
    <g id="text_17">
     <!-- slow -->
     <defs>
      <path d="M 4.203125 54.6875 
L 13.1875 54.6875 
L 24.421875 12.015625 
L 35.59375 54.6875 
L 46.1875 54.6875 
L 57.421875 12.015625 
L 68.609375 54.6875 
L 77.59375 54.6875 
L 63.28125 0 
L 52.6875 0 
L 40.921875 44.828125 
L 29.109375 0 
L 18.5 0 
z
" id="BitstreamVeraSans-Roman-77"/>
     </defs>
     <g transform="translate(477.53325 344.786625)scale(0.21599999999999997 -0.21599999999999997)">
      <use xlink:href="#BitstreamVeraSans-Roman-73"/>
      <use x="52.099609375" xlink:href="#BitstreamVeraSans-Roman-6c"/>
      <use x="79.8828125" xlink:href="#BitstreamVeraSans-Roman-6f"/>
      <use x="141.064453125" xlink:href="#BitstreamVeraSans-Roman-77"/>
     </g>
    </g>
   </g>
  </g>
 </g>
 <defs>
  <clipPath id="p601dd9c0fe">
   <rect height="327.866125" width="470.62125" x="74.48625" y="40.852625"/>
  </clipPath>
 </defs>
</svg>
