<?xml version="1.0" encoding="utf-8" standalone="no"?>
<!DOCTYPE svg PUBLIC "-//W3C//DTD SVG 1.1//EN"
  "http://www.w3.org/Graphics/SVG/1.1/DTD/svg11.dtd">
<!-- Created with matplotlib (http://matplotlib.org/) -->
<svg height="432pt" version="1.1" viewBox="0 0 576 432" width="576pt" xmlns="http://www.w3.org/2000/svg" xmlns:xlink="http://www.w3.org/1999/xlink">
 <defs>
  <style type="text/css">
*{stroke-linecap:butt;stroke-linejoin:round;stroke-miterlimit:100000;}
  </style>
 </defs>
 <g id="figure_1">
  <g id="patch_1">
   <path d="M 0 432 
L 576 432 
L 576 0 
L 0 0 
z
" style="fill:#ffffff;"/>
  </g>
  <g id="axes_1">
   <g id="patch_2">
    <path d="M 74.48625 368.71875 
L 539.38125 368.71875 
L 539.38125 40.852625 
L 74.48625 40.852625 
z
" style="fill:#ffffff;"/>
   </g>
   <g id="line2d_1">
    <path clip-path="url(#p32a2cddb16)" d="M 74.48625 368.71875 
L 74.571086 366.951468 
L 74.662616 366.810086 
L 76.111386 366.103173 
L 76.760351 365.325569 
L 77.094414 365.184186 
L 77.814976 364.547965 
L 78.155898 364.335891 
L 78.205942 364.2652 
L 78.739789 364.053126 
L 79.060257 363.841052 
L 79.395634 363.346213 
L 79.515625 363.204831 
L 79.522026 363.134139 
L 80.267034 362.709992 
L 80.378272 362.497918 
L 81.188887 362.215153 
L 81.465495 362.07377 
L 81.498683 361.932388 
L 81.995689 361.791005 
L 82.645697 361.437549 
L 83.121496 361.084092 
L 83.226825 360.801327 
L 84.037873 360.37718 
L 84.175178 360.165106 
L 84.555594 359.81165 
L 85.686376 359.599576 
L 86.212802 359.246119 
L 86.24846 359.175428 
L 86.676228 359.034046 
L 86.816237 358.821972 
L 88.063801 357.761603 
L 88.393293 357.549529 
L 88.708521 357.196072 
L 88.989911 356.983999 
L 89.077169 356.771925 
L 89.980713 356.206395 
L 90.102404 356.135703 
L 90.784893 355.92363 
L 91.352654 355.428791 
L 91.84862 355.216717 
L 91.971295 354.86326 
L 92.248161 354.721878 
L 92.675708 354.014965 
L 93.095149 353.873583 
L 93.388963 353.661509 
L 93.661912 353.520126 
L 93.66873 353.449435 
L 94.334668 353.025287 
L 94.665463 352.459757 
L 95.185191 352.247683 
L 95.518553 351.894227 
L 95.584246 351.611462 
L 97.112084 350.833858 
L 97.202414 350.551093 
L 97.577061 350.268328 
L 97.937692 349.84418 
L 98.509279 349.561415 
L 98.851335 349.137267 
L 99.073018 348.925194 
L 100.517394 347.864824 
L 100.76973 347.723442 
L 100.812518 347.582059 
L 100.964529 347.369986 
L 102.505934 346.168234 
L 103.165086 345.95616 
L 103.280464 345.602704 
L 103.313642 345.532012 
L 103.523312 345.39063 
L 103.672231 345.107865 
L 103.748296 345.037173 
L 104.464216 344.8251 
L 104.700049 344.259569 
L 105.520979 342.987127 
L 106.041293 342.775053 
L 106.297523 342.492288 
L 106.717333 342.280214 
L 106.970805 341.856066 
L 107.358102 341.643992 
L 107.797144 341.361227 
L 108.550338 340.512932 
L 109.044086 340.371549 
L 109.650225 339.735328 
L 110.128458 339.452563 
L 110.235785 339.31118 
L 110.74876 338.887033 
L 110.762048 338.816341 
L 111.275788 338.462885 
L 111.54631 338.109429 
L 111.70391 337.826664 
L 112.323422 337.61459 
L 112.911551 336.978368 
L 113.573325 336.624912 
L 113.854241 336.200764 
L 114.253164 335.988691 
L 114.273604 335.917999 
L 114.656472 335.705925 
L 114.741296 335.564543 
L 115.000427 335.42316 
L 115.513666 334.504174 
L 116.560587 334.080026 
L 116.863562 333.72657 
L 117.587814 333.231731 
L 118.25119 333.090348 
L 118.652848 332.666201 
L 119.29232 332.454127 
L 119.612286 332.242053 
L 119.713722 332.029979 
L 120.175886 331.747214 
L 120.179671 331.676523 
L 120.877305 331.252375 
L 121.273528 330.828228 
L 121.804919 330.686845 
L 121.904533 330.545462 
L 123.050196 329.909241 
L 123.579718 329.697167 
L 123.765937 329.485093 
L 123.953306 329.131637 
L 124.274243 328.919563 
L 124.29609 328.848872 
L 124.54262 328.707489 
L 124.820725 328.21265 
L 127.004399 326.374677 
L 127.067314 326.162604 
L 127.443965 325.95053 
L 127.633395 325.597073 
L 127.805512 325.385 
L 127.863066 325.243617 
L 128.378345 324.960852 
L 129.623007 324.041865 
L 129.628342 323.971174 
L 130.677371 323.264261 
L 131.369431 322.557349 
L 131.523734 322.345275 
L 132.093273 321.991818 
L 132.366332 321.709053 
L 132.774825 321.426288 
L 132.82549 321.355597 
L 133.111346 321.143523 
L 133.370247 320.860758 
L 133.692354 320.507302 
L 134.090639 320.295228 
L 134.740534 319.588315 
L 136.122705 319.093476 
L 136.373746 318.810711 
L 136.791978 318.17449 
L 136.88434 317.962416 
L 137.187047 317.679651 
L 137.196565 317.608959 
L 138.179493 317.255503 
L 138.666735 316.689973 
L 139.361013 316.336517 
L 139.974764 315.841678 
L 140.208632 315.700295 
L 140.649489 315.346839 
L 141.296316 314.781309 
L 141.426442 314.427852 
L 141.623699 314.215778 
L 141.624052 314.145087 
L 142.350802 313.862322 
L 142.922375 313.226101 
L 143.336339 313.014027 
L 143.377602 312.801953 
L 143.635092 312.519188 
L 143.80826 311.953658 
L 145.233136 311.034671 
L 145.614648 310.39845 
L 145.75996 310.257067 
L 146.113255 310.115685 
L 146.364639 309.903611 
L 147.026692 309.550154 
L 147.266831 309.126007 
L 147.418164 308.984624 
L 147.418267 308.913933 
L 147.677095 308.701859 
L 147.763539 308.419094 
L 148.241136 308.277711 
L 148.309348 308.136329 
L 148.745219 307.782873 
L 148.960357 307.429416 
L 149.597543 306.863886 
L 150.29926 306.651812 
L 150.45625 306.439738 
L 151.303761 305.450061 
L 151.619494 305.308678 
L 151.640816 305.237987 
L 152.1034 304.955222 
L 152.351437 304.813839 
L 152.565531 304.601765 
L 152.59187 304.460383 
L 153.093635 304.177618 
L 153.365083 303.824161 
L 153.705343 303.612087 
L 154.084436 303.329322 
L 154.680738 302.763792 
L 154.812721 302.551718 
L 155.196942 302.339644 
L 155.278068 302.127571 
L 155.809722 301.915497 
L 155.89544 301.844806 
L 156.801115 301.491349 
L 156.827506 301.420658 
L 157.000245 301.279275 
L 157.20579 301.067202 
L 158.212007 300.289598 
L 158.35124 299.936141 
L 158.704362 299.724067 
L 158.819401 299.511994 
L 159.110298 299.370611 
L 159.282359 299.158537 
L 159.629788 298.805081 
L 159.785743 298.663698 
L 160.040392 298.522316 
L 160.352729 298.027477 
L 160.817943 297.886094 
L 161.110035 297.67402 
L 161.129529 297.603329 
L 161.500895 297.391255 
L 161.635326 297.249873 
L 162.23975 296.896416 
L 163.826646 294.84637 
L 164.21063 294.634296 
L 164.322159 294.492913 
L 164.760012 294.280839 
L 164.94455 293.998074 
L 165.567696 293.291162 
L 165.943067 293.079088 
L 166.260038 292.725631 
L 167.32981 291.806645 
L 167.553528 291.665262 
L 167.558464 291.594571 
L 168.441049 291.170423 
L 168.475129 290.95835 
L 169.280477 290.322128 
L 169.354712 290.180745 
L 169.594286 290.039363 
L 169.681684 289.89798 
L 169.829052 289.685907 
L 169.859945 289.615215 
L 170.863447 289.191068 
L 171.113559 288.625537 
L 171.630857 288.342772 
L 172.189932 287.989316 
L 173.068417 287.706551 
L 173.276777 287.494477 
L 174.437971 286.222034 
L 174.97529 286.00996 
L 175.425277 285.727195 
L 175.637948 285.585813 
L 175.974768 285.44443 
L 176.22226 285.232356 
L 176.224962 285.161665 
L 176.436299 285.020283 
L 176.485809 284.8789 
L 177.048283 284.596135 
L 177.150196 284.384061 
L 177.360945 284.242679 
L 177.515906 284.030605 
L 177.979702 283.677148 
L 178.162689 283.323692 
L 178.658603 283.111618 
L 178.879933 282.758162 
L 178.882397 282.687471 
L 179.937284 281.980558 
L 180.30808 281.627101 
L 180.808719 281.344336 
L 181.088453 281.132263 
L 181.26085 280.708115 
L 181.518024 280.496041 
L 181.899883 280.283967 
L 182.453242 279.718437 
L 182.871651 279.577055 
L 185.329114 277.244243 
L 185.710798 277.032169 
L 185.721755 276.890786 
L 186.140369 276.608021 
L 186.168289 276.466639 
L 186.690402 276.183873 
L 186.956906 276.042491 
L 187.108462 275.759726 
L 188.094459 275.052813 
L 188.273258 274.770048 
L 189.095873 274.275209 
L 189.12417 274.204518 
L 189.388398 273.992444 
L 189.603802 273.568296 
L 189.889328 273.356222 
L 190.071248 273.144149 
L 190.337111 273.002766 
L 190.340346 272.932075 
L 190.905029 272.64931 
L 191.04762 272.437236 
L 191.220741 272.225162 
L 191.299698 271.942397 
L 191.867421 271.801014 
L 192.040244 271.447558 
L 192.707548 270.811337 
L 193.231439 270.599263 
L 193.401883 270.45788 
L 193.937818 270.175115 
L 193.980854 270.104424 
L 194.760033 269.750968 
L 194.900669 269.538894 
L 195.962805 269.114746 
L 196.249312 268.902672 
L 196.433977 268.478525 
L 197.391527 268.054377 
L 197.415846 267.983686 
L 197.989226 267.771612 
L 198.502452 267.347464 
L 199.456773 266.640552 
L 199.768817 266.499169 
L 200.499303 265.933639 
L 200.847922 265.721565 
L 201.023608 265.580182 
L 201.164831 265.368109 
L 201.691296 264.802578 
L 201.918875 264.590505 
L 202.046823 264.237048 
L 202.270645 264.024974 
L 202.531237 263.883592 
L 202.787993 263.671518 
L 203.537766 263.459444 
L 203.597122 263.24737 
L 204.205495 262.611149 
L 204.308584 262.469766 
L 204.818857 262.11631 
L 205.072306 261.833545 
L 205.518823 261.480089 
L 205.68193 261.126632 
L 206.320935 260.349028 
L 206.485904 259.783498 
L 206.836406 259.500733 
L 208.05689 258.723129 
L 208.26093 258.581746 
L 208.542342 258.298981 
L 208.920593 257.804142 
L 209.280269 257.450686 
L 209.746348 257.167921 
L 209.835713 257.09723 
L 210.222019 256.955847 
L 210.343658 256.814465 
L 211.267425 256.319626 
L 211.556978 255.895478 
L 212.315216 255.400639 
L 212.38188 255.329948 
L 212.960997 255.047183 
L 213.512258 254.481653 
L 213.601634 254.34027 
L 213.787545 254.057505 
L 213.922966 253.704049 
L 214.460989 253.20921 
L 214.791319 252.785062 
L 214.863021 252.643679 
L 215.364363 252.431606 
L 215.74279 252.078149 
L 216.19061 251.866075 
L 216.507974 251.58331 
L 217.955895 250.805706 
L 218.318972 250.45225 
L 218.643965 250.240176 
L 218.849289 249.957411 
L 219.061765 249.674646 
L 219.189758 249.603955 
L 219.664427 249.462572 
L 219.741109 249.32119 
L 219.827893 249.250498 
L 220.158116 249.109116 
L 220.451482 248.684968 
L 220.560402 248.472894 
L 220.702246 248.260821 
L 222.609838 246.988378 
L 223.209784 246.776304 
L 223.419621 246.493539 
L 223.582382 246.281465 
L 224.394814 245.43317 
L 224.673057 245.291787 
L 224.67471 245.221096 
L 225.26758 244.796948 
L 225.585952 244.302109 
L 225.780153 244.019344 
L 225.797119 243.948653 
L 225.967625 243.736579 
L 226.06962 243.595196 
L 226.299533 243.383123 
L 226.562921 243.100358 
L 226.629063 243.029666 
L 227.261594 242.746901 
L 227.321954 242.67621 
L 227.714268 242.534827 
L 227.743501 242.393445 
L 228.909167 242.039988 
L 229.405837 241.757223 
L 229.850658 241.615841 
L 229.890594 241.54515 
L 230.187237 241.333076 
L 230.440764 240.908928 
L 232.450814 239.283029 
L 232.63339 239.070955 
L 232.649513 239.000264 
L 233.648489 238.364042 
L 233.685736 238.22266 
L 234.153898 237.939895 
L 234.314671 237.727821 
L 234.396507 237.586438 
L 234.987573 237.445056 
L 235.149752 237.232982 
L 235.29555 236.950217 
L 236.270681 236.667452 
L 236.278961 236.59676 
L 236.769178 236.313995 
L 237.30942 235.889848 
L 237.403883 235.607083 
L 237.942161 235.395009 
L 238.713701 234.90017 
L 238.843372 234.758787 
L 239.176726 234.617405 
L 240.128568 234.263948 
L 240.446133 234.051875 
L 241.947422 232.920814 
L 242.643544 232.70874 
L 243.060713 232.213901 
L 243.083195 232.14321 
L 243.372749 231.931136 
L 243.449524 231.719063 
L 243.52717 231.648371 
L 243.905415 231.506989 
L 244.424 231.082841 
L 244.713953 230.870767 
L 245.60528 230.588002 
L 246.522881 230.44662 
L 246.761073 229.951781 
L 247.56984 229.456942 
L 247.729646 229.315559 
L 247.777337 229.244868 
L 249.160421 228.679338 
L 249.300872 228.396573 
L 249.551912 228.043116 
L 249.815881 227.901734 
L 249.82179 227.831043 
L 250.238991 227.548277 
L 250.352563 227.336204 
L 250.379155 227.265512 
L 250.754846 226.982747 
L 251.106057 226.5586 
L 251.21552 226.417217 
L 251.959347 225.780996 
L 252.035468 225.568922 
L 252.570443 225.356848 
L 252.821752 225.144774 
L 252.87296 225.074083 
L 253.250904 224.862009 
L 254.296522 223.943023 
L 254.913667 223.660257 
L 255.015205 223.518875 
L 255.340874 223.306801 
L 255.944429 223.165419 
L 256.227587 222.741271 
L 256.431033 222.458506 
L 256.515048 222.317123 
L 256.999113 222.105049 
L 257.019234 222.034358 
L 257.182946 221.892976 
L 257.20946 221.751593 
L 257.497448 221.610211 
L 257.853343 221.256754 
L 258.09439 221.115372 
L 258.164629 221.04468 
L 258.795528 220.832607 
L 258.942453 220.549841 
L 259.255962 220.267076 
L 259.657418 220.055003 
L 259.860516 219.772237 
L 260.234837 219.630855 
L 260.425112 219.418781 
L 261.150785 219.206707 
L 262.1638 218.570486 
L 262.706909 218.217029 
L 262.859303 218.075647 
L 263.024126 217.863573 
L 263.425327 217.580808 
L 263.477382 217.439425 
L 264.235619 217.227352 
L 264.455791 217.015278 
L 264.559998 216.732513 
L 264.656674 216.59113 
L 265.092801 216.449748 
L 265.868649 215.672144 
L 266.253249 215.46007 
L 266.367272 215.318687 
L 266.401047 215.106613 
L 267.566686 214.823848 
L 267.689118 214.682466 
L 268.783192 214.046244 
L 269.38814 213.622097 
L 269.645741 213.410023 
L 269.87943 213.26864 
L 270.617779 212.985875 
L 270.873155 212.773801 
L 271.336257 212.561728 
L 271.706787 212.278962 
L 271.885211 212.13758 
L 272.131251 211.925506 
L 272.585383 211.359976 
L 273.622817 210.865137 
L 273.724237 210.511681 
L 274.490435 210.016842 
L 274.614629 209.875459 
L 274.976762 209.663385 
L 275.136304 209.451312 
L 275.137288 209.38062 
L 275.580005 209.097855 
L 275.75168 208.81509 
L 275.881617 208.390942 
L 276.371317 207.896104 
L 276.470174 207.68403 
L 277.307448 207.542647 
L 277.610538 207.189191 
L 278.172096 207.047808 
L 278.259179 206.906426 
L 279.14251 206.270204 
L 279.351397 206.128822 
L 279.356895 206.05813 
L 279.953522 205.633983 
L 280.098932 205.351218 
L 280.382711 204.997761 
L 280.495769 204.785687 
L 280.783197 204.432231 
L 280.948642 204.290849 
L 281.059423 203.937392 
L 281.296508 203.654627 
L 281.372209 203.442553 
L 281.73853 203.159788 
L 282.157024 202.877023 
L 282.967719 202.594258 
L 283.11804 202.452875 
L 283.361465 202.311493 
L 283.479801 202.028728 
L 284.016228 201.816654 
L 284.056993 201.745963 
L 284.47607 201.533889 
L 284.574012 201.321815 
L 284.709754 201.180433 
L 285.35315 200.756285 
L 285.368925 200.685594 
L 285.95678 200.402829 
L 286.085618 200.190755 
L 286.756487 199.766607 
L 286.994814 199.413151 
L 287.859554 199.201077 
L 287.959068 199.059694 
L 288.364973 198.847621 
L 288.714532 198.494164 
L 289.304374 198.28209 
L 289.851506 197.928634 
L 289.972087 197.787251 
L 290.114012 197.645869 
L 290.192407 197.433795 
L 291.039045 196.797574 
L 291.040845 196.726882 
L 291.236882 196.5855 
L 291.238212 196.514809 
L 291.42926 196.373426 
L 291.652163 196.01997 
L 292.156687 195.737205 
L 292.965545 195.171674 
L 293.315836 194.888909 
L 293.36715 194.747527 
L 293.633107 194.535453 
L 293.687877 194.464762 
L 293.975026 194.323379 
L 295.766857 192.768171 
L 296.087224 192.556097 
L 296.204503 192.344023 
L 296.405754 192.13195 
L 296.44172 191.919876 
L 297.029146 191.495728 
L 297.141601 191.283654 
L 297.275416 191.142272 
L 297.520565 190.930198 
L 297.540117 190.859507 
L 297.701966 190.718124 
L 297.81064 190.50605 
L 299.380312 189.092225 
L 299.74529 188.880151 
L 299.985801 188.668077 
L 300.337823 188.526695 
L 300.363651 188.456003 
L 300.676323 188.24393 
L 300.844689 188.031856 
L 301.701062 187.749091 
L 301.940969 187.466326 
L 302.485311 187.254252 
L 302.592325 186.971487 
L 302.624116 186.900795 
L 303.503838 186.405956 
L 303.596343 186.123191 
L 304.089628 185.769735 
L 304.211428 185.628352 
L 304.867231 185.345587 
L 305.83408 184.92144 
L 305.865609 184.850748 
L 306.335743 184.567983 
L 306.403432 184.426601 
L 306.753055 184.073144 
L 306.85305 183.931762 
L 307.168989 183.648997 
L 307.545322 183.507614 
L 307.667245 183.29554 
L 308.128991 183.012775 
L 308.896349 182.517936 
L 309.316921 182.376554 
L 309.57539 181.881715 
L 310.001612 181.669641 
L 311.573735 180.609272 
L 311.669857 180.397198 
L 311.911001 180.114433 
L 312.410551 179.902359 
L 312.447912 179.831668 
L 313.013486 179.548903 
L 313.832936 178.84199 
L 313.865864 178.700608 
L 314.415217 178.488534 
L 314.416663 178.417843 
L 315.050346 178.064386 
L 315.1997 177.852312 
L 315.359378 177.498856 
L 316.276696 176.650561 
L 316.392815 176.438487 
L 317.076335 176.014339 
L 317.242044 175.872957 
L 317.39192 175.660883 
L 317.434349 175.590192 
L 318.224592 175.166044 
L 318.551999 174.95397 
L 319.286222 174.459131 
L 319.326012 174.317749 
L 320.218353 173.893601 
L 320.517952 173.469453 
L 321.249351 173.186688 
L 321.710612 172.691849 
L 322.060945 172.550467 
L 322.505275 171.984937 
L 323.338222 171.348715 
L 323.561263 171.136641 
L 325.408235 170.076272 
L 325.714353 169.652125 
L 326.275377 168.945212 
L 326.723205 168.803829 
L 327.269922 168.591756 
L 327.738962 168.238299 
L 327.911458 168.096917 
L 328.220926 167.884843 
L 329.145583 167.319313 
L 329.419451 167.107239 
L 329.779925 166.965856 
L 329.783889 166.895165 
L 330.030415 166.683091 
L 330.060227 166.6124 
L 331.524733 166.188252 
L 331.648668 165.976179 
L 331.847545 165.764105 
L 332.065289 165.622722 
L 332.28663 165.48134 
L 332.338396 165.410648 
L 332.684811 165.269266 
L 332.885809 164.986501 
L 333.711779 164.420971 
L 334.274448 164.067514 
L 334.387398 163.85544 
L 334.434578 163.714058 
L 334.57156 163.572675 
L 335.24273 163.431293 
L 335.252929 163.360601 
L 335.487455 163.148528 
L 335.808489 162.865763 
L 335.915057 162.653689 
L 336.420114 162.512306 
L 336.516715 162.370924 
L 336.882201 162.229541 
L 336.90422 162.15885 
L 337.343953 161.946776 
L 338.424121 161.169172 
L 338.637106 160.815716 
L 338.945926 160.603642 
L 339.127024 160.250185 
L 339.396792 160.038112 
L 339.514094 159.684655 
L 339.620636 159.613964 
L 340.215189 159.40189 
L 340.227175 159.331199 
L 341.447911 158.694977 
L 341.563837 158.482904 
L 342.305165 158.058756 
L 342.519924 157.775991 
L 342.910532 157.493226 
L 343.381374 157.281152 
L 343.423874 157.210461 
L 343.749065 156.998387 
L 344.451454 156.362165 
L 344.784354 156.220783 
L 345.512579 155.51387 
L 345.902003 155.301796 
L 346.020077 155.019031 
L 346.551965 154.594884 
L 347.027527 154.453501 
L 347.057432 154.38281 
L 347.3124 154.241427 
L 347.404589 153.887971 
L 348.598408 153.605206 
L 349.126548 153.393132 
L 349.515139 153.181058 
L 349.646698 153.039676 
L 350.023537 152.827602 
L 350.128861 152.544837 
L 350.591077 152.262072 
L 350.651856 152.049998 
L 350.81726 151.908615 
L 350.866213 151.62585 
L 351.080798 151.484468 
L 351.121708 151.413776 
L 351.508059 151.201702 
L 351.515464 151.131011 
L 351.703819 150.918937 
L 352.293149 150.212025 
L 352.792153 149.92926 
L 352.918602 149.787877 
L 353.348106 149.363729 
L 353.968991 148.727508 
L 354.372974 148.515434 
L 354.580596 148.374052 
L 355.193134 148.161978 
L 355.206831 148.091286 
L 355.582582 147.949904 
L 355.602384 147.879213 
L 356.514864 147.525756 
L 356.740106 147.242991 
L 356.995761 147.030917 
L 357.003496 146.960226 
L 357.518241 146.748152 
L 358.146189 146.536078 
L 358.179528 146.465387 
L 358.797728 146.182622 
L 358.8746 146.041239 
L 359.365755 145.829166 
L 359.462942 145.546401 
L 359.95661 145.405018 
L 360.123866 145.051562 
L 360.40354 144.910179 
L 360.508232 144.698105 
L 361.008864 144.556723 
L 362.160031 143.84981 
L 362.412041 143.708427 
L 362.457647 143.637736 
L 362.761063 143.425662 
L 363.740104 142.577367 
L 363.978551 142.435985 
L 363.983758 142.365293 
L 364.153556 142.153219 
L 364.650716 141.587689 
L 364.847331 141.304924 
L 365.698672 140.880777 
L 366.083224 140.385938 
L 366.438261 140.173864 
L 366.956121 139.749716 
L 367.148878 139.537642 
L 368.431008 138.83073 
L 368.449469 138.760038 
L 368.881269 138.547965 
L 368.904828 138.477273 
L 369.428675 138.123817 
L 369.518771 137.982434 
L 369.760745 137.628978 
L 369.963067 137.346213 
L 370.386716 137.20483 
L 370.619531 136.922065 
L 370.974041 136.709991 
L 371.132716 136.497918 
L 371.953084 136.144461 
L 372.174311 135.791005 
L 372.402293 135.578931 
L 372.54619 135.366857 
L 372.99842 134.872018 
L 373.022735 134.730636 
L 373.423523 134.377179 
L 373.846508 133.953032 
L 373.91702 133.740958 
L 375.139976 133.31681 
L 375.594017 132.821971 
L 375.705639 132.609898 
L 375.991171 132.397824 
L 376.09269 132.18575 
L 376.476638 131.902985 
L 376.913732 131.761602 
L 376.914957 131.690911 
L 377.584426 131.337455 
L 377.622417 131.125381 
L 378.32862 130.630542 
L 378.341367 130.559851 
L 378.659714 130.277086 
L 378.691885 130.206394 
L 380.112591 129.499482 
L 380.129031 129.42879 
L 381.351963 129.075334 
L 381.76424 128.86326 
L 381.869204 128.792569 
L 382.479157 128.580495 
L 382.524763 128.509804 
L 382.842656 128.29773 
L 383.27923 127.873582 
L 383.354801 127.802891 
L 383.789928 127.590817 
L 384.112275 127.308052 
L 384.699328 126.601139 
L 384.919333 126.459757 
L 385.080383 126.318374 
L 386.551256 125.258005 
L 387.335898 125.045931 
L 387.430841 124.833858 
L 387.91775 124.551092 
L 391.062044 122.783811 
L 391.580505 122.359663 
L 392.02561 122.147589 
L 392.823071 121.511368 
L 392.870914 121.440676 
L 393.442864 121.228603 
L 393.796491 121.016529 
L 393.878295 120.804455 
L 394.921823 120.238925 
L 395.011248 120.097542 
L 395.355548 119.95616 
L 395.516349 119.673395 
L 396.046609 119.461321 
L 396.388409 119.107864 
L 396.40117 119.037173 
L 397.17187 118.825099 
L 397.297302 118.683717 
L 397.455281 118.471643 
L 397.813497 118.188878 
L 398.122241 117.76473 
L 398.587029 117.623348 
L 398.727658 117.340583 
L 398.834217 117.1992 
L 399.345045 116.916435 
L 399.464103 116.704361 
L 399.742086 116.492287 
L 400.654091 115.997448 
L 400.804831 115.643992 
L 401.010879 115.502609 
L 401.12743 115.219844 
L 401.318771 115.007771 
L 401.73819 114.512932 
L 401.98354 114.230167 
L 402.629869 114.018093 
L 402.722448 113.87671 
L 403.215463 113.735328 
L 403.656359 113.381871 
L 404.700714 112.674959 
L 405.476269 112.321502 
L 406.010795 111.543898 
L 406.497951 111.261133 
L 406.634525 110.978368 
L 407.019514 110.55422 
L 407.1699 110.412838 
L 407.399958 110.200764 
L 407.854903 109.847308 
L 408.155766 109.705925 
L 408.464008 109.352469 
L 409.022103 109.069704 
L 409.126977 108.928321 
L 409.999846 108.150717 
L 410.524935 107.867952 
L 410.705093 107.443804 
L 410.812746 107.373113 
L 411.389617 107.231731 
L 411.6486 106.948965 
L 412.316204 106.6662 
L 413.509054 105.464449 
L 413.520692 105.393757 
L 413.73365 105.181684 
L 414.571548 104.686845 
L 415.883989 104.40408 
L 416.581092 103.838549 
L 416.693449 103.626476 
L 416.980102 103.273019 
L 417.518231 102.848872 
L 417.778961 102.424724 
L 418.231715 102.071268 
L 418.354353 101.859194 
L 418.699286 101.576429 
L 419.059835 101.364355 
L 419.136922 101.152281 
L 419.495666 100.940207 
L 419.709044 100.657442 
L 419.771342 100.445368 
L 419.992012 100.303986 
L 420.01144 100.162603 
L 420.355116 99.950529 
L 420.579752 99.667764 
L 421.450147 98.748778 
L 421.668183 98.536704 
L 422.427586 97.688409 
L 422.524337 97.547026 
L 422.731697 97.264261 
L 422.780405 97.122878 
L 423.468747 96.981496 
L 423.540054 96.769422 
L 423.640433 96.557348 
L 423.748549 96.274583 
L 424.081911 95.991818 
L 424.150263 95.921127 
L 424.545769 95.709053 
L 425.031858 95.214214 
L 425.03917 95.143523 
L 425.384641 95.00214 
L 425.558247 94.790066 
L 425.943565 94.648684 
L 426.072928 94.507301 
L 426.475792 94.295228 
L 426.492589 94.224536 
L 426.960854 93.87108 
L 427.004548 93.800389 
L 427.2949 93.588315 
L 427.340028 93.376241 
L 427.740297 93.022785 
L 427.856809 92.881402 
L 428.084523 92.669328 
L 429.575505 92.103798 
L 429.714146 91.962416 
L 430.503987 91.326194 
L 430.596616 91.184812 
L 431.251393 90.689973 
L 431.404063 90.407207 
L 431.606094 90.265825 
L 431.705914 89.98306 
L 431.834426 89.770986 
L 432.524841 88.922691 
L 433.136369 88.569234 
L 434.294136 87.862322 
L 434.329834 87.79163 
L 434.96728 87.508865 
L 435.25061 87.2261 
L 435.633204 86.943335 
L 435.923837 86.731261 
L 436.169388 86.448496 
L 436.284228 86.236422 
L 436.982662 85.953657 
L 437.310247 85.670892 
L 437.323038 85.600201 
L 437.838238 85.246745 
L 437.897491 85.105362 
L 438.346567 84.893288 
L 438.476266 84.681214 
L 439.81623 83.620845 
L 440.028568 83.055315 
L 440.312458 82.913933 
L 440.39334 82.701859 
L 440.633924 82.560476 
L 440.835324 82.277711 
L 441.606298 81.853563 
L 441.884685 81.712181 
L 441.888759 81.64149 
L 442.777754 81.217342 
L 443.026541 80.934577 
L 443.293327 80.793194 
L 443.3027 80.651812 
L 443.625612 80.369047 
L 443.956974 80.086282 
L 445.103155 79.308678 
L 445.526627 79.096604 
L 445.552916 79.025913 
L 445.864065 78.813839 
L 446.021732 78.531074 
L 446.561929 77.824161 
L 447.269085 77.541396 
L 447.314418 77.329322 
L 447.666561 76.975866 
L 447.795021 76.622409 
L 447.994262 76.339644 
L 448.432045 76.198262 
L 448.561726 75.915496 
L 448.896293 75.208584 
L 449.247307 74.99651 
L 449.334918 74.784436 
L 450.070108 74.289597 
L 450.076696 74.218906 
L 450.618983 74.006832 
L 450.754213 73.86545 
L 450.812962 73.794758 
L 451.1424 73.582684 
L 451.184503 73.511993 
L 451.492276 73.370611 
L 451.494315 73.299919 
L 452.56605 72.946463 
L 452.566116 72.875772 
L 452.796645 72.663698 
L 452.837966 72.522315 
L 453.233991 72.380933 
L 453.236918 72.310242 
L 454.120877 71.815403 
L 454.241717 71.67402 
L 454.805029 71.461946 
L 454.899298 71.179181 
L 455.437851 70.613651 
L 455.783838 70.472268 
L 455.905838 70.189503 
L 456.09399 69.97743 
L 456.268354 69.765356 
L 456.853424 69.553282 
L 456.878603 69.411899 
L 457.883663 68.91706 
L 457.928 68.704987 
L 459.174172 68.210148 
L 459.497881 67.998074 
L 461.259028 66.937705 
L 461.411401 66.725631 
L 461.757177 66.513557 
L 462.580631 65.806644 
L 462.967917 65.241114 
L 463.287085 65.02904 
L 463.302253 64.958349 
L 463.692021 64.816967 
L 463.744553 64.675584 
L 464.943864 63.89798 
L 465.370382 63.473832 
L 465.440497 63.33245 
L 465.640347 63.191067 
L 465.849461 63.049685 
L 465.866541 62.978994 
L 466.232888 62.837611 
L 466.245671 62.76692 
L 466.925678 62.342772 
L 467.653668 61.353094 
L 468.158656 61.14102 
L 468.179665 60.999638 
L 469.006186 60.57549 
L 469.041871 60.434108 
L 469.335248 60.222034 
L 469.380911 60.080651 
L 469.714592 59.939269 
L 469.734366 59.868577 
L 471.414021 59.020282 
L 471.941649 58.8789 
L 472.702363 58.101296 
L 473.010027 57.889222 
L 473.125898 57.465074 
L 473.430081 57.253 
L 473.563128 56.970235 
L 473.563859 56.899544 
L 474.242305 56.616779 
L 474.256471 56.475396 
L 474.629133 56.192631 
L 474.756401 55.980557 
L 475.128272 55.697792 
L 475.144202 55.627101 
L 475.448163 55.485719 
L 475.630231 55.061571 
L 476.011389 54.849497 
L 476.223943 54.637423 
L 476.539189 54.142584 
L 476.650905 54.001202 
L 478.154887 53.577054 
L 478.393049 53.36498 
L 479.507299 52.587376 
L 479.837973 52.375303 
L 480.322766 51.951155 
L 480.626909 51.385625 
L 480.7769 51.173551 
L 480.796942 51.10286 
L 481.361823 50.749403 
L 481.447527 50.466638 
L 481.680431 50.325256 
L 481.812785 49.971799 
L 482.084007 49.759725 
L 482.107075 49.689034 
L 482.283096 49.547652 
L 482.676242 48.982121 
L 485.162141 46.578618 
L 485.497371 46.013088 
L 485.888885 45.801014 
L 486.861251 44.669954 
L 486.871106 44.599262 
L 487.165726 44.316497 
L 487.411621 44.104424 
L 487.608494 43.963041 
L 487.642703 43.89235 
L 488.111453 43.609585 
L 488.120772 43.538893 
L 488.366704 43.397511 
L 488.581403 42.831981 
L 489.322256 41.842303 
L 489.330549 41.70092 
L 490.259205 41.13539 
L 490.301443 41.064699 
L 490.548829 40.852625 
L 490.548829 40.852625 
" style="fill:none;stroke:#0000ff;stroke-linecap:square;stroke-width:2.0;"/>
   </g>
   <g id="line2d_2">
    <path clip-path="url(#p32a2cddb16)" d="M 74.48625 368.71875 
L 74.554352 366.950411 
L 74.813585 366.789653 
L 74.988435 366.387758 
L 75.08278 366.227 
L 75.137122 365.985862 
L 75.423765 365.825104 
L 75.562504 365.664346 
L 75.584969 365.423209 
L 75.722937 365.262451 
L 75.899605 364.940935 
L 75.988405 364.699798 
L 76.080589 364.458661 
L 76.485759 363.976386 
L 76.769558 363.735249 
L 76.82393 363.574491 
L 77.013854 363.413733 
L 77.206169 363.092217 
L 77.343497 362.85108 
L 77.535819 362.529564 
L 77.755994 362.208047 
L 77.893175 362.047289 
L 78.3173 361.725773 
L 78.424455 361.565015 
L 78.832553 361.16312 
L 79.270132 360.198571 
L 79.521699 359.957434 
L 79.614215 359.555539 
L 79.815016 359.394781 
L 79.994643 359.153644 
L 80.196766 358.832127 
L 80.357228 358.671369 
L 80.509179 358.269474 
L 80.743324 358.028337 
L 80.780027 357.947958 
L 81.077164 357.7872 
L 81.227895 357.385305 
L 81.556257 356.983409 
L 81.615893 356.581514 
L 81.91046 356.340377 
L 82.088868 356.09924 
L 82.469359 355.536587 
L 82.586302 355.134691 
L 82.913678 354.732796 
L 83.08756 354.330901 
L 83.280694 354.089764 
L 83.383979 353.848627 
L 83.708541 353.285973 
L 83.901139 353.125215 
L 83.945634 353.044836 
L 84.271353 352.803699 
L 84.607499 352.562562 
L 85.129679 352.160667 
L 85.476334 351.517634 
L 85.954524 350.794223 
L 86.173765 350.392328 
L 86.502088 350.070812 
L 86.512505 349.910053 
L 86.631359 349.829674 
L 86.980476 349.668916 
L 87.052399 349.508158 
L 87.385741 349.267021 
L 87.622584 348.704368 
L 88.081381 348.141714 
L 88.209895 347.900577 
L 88.718852 347.65944 
L 88.829423 347.498682 
L 89.038428 347.177166 
L 89.248395 347.016408 
L 89.591924 346.614513 
L 89.995072 346.132238 
L 90.212192 345.569585 
L 90.607735 344.846174 
L 91.258997 343.962004 
L 91.763436 343.47973 
L 91.841777 343.318972 
L 92.337965 343.158214 
L 92.391006 342.997456 
L 92.873418 342.836697 
L 94.208241 340.987979 
L 94.487914 340.344947 
L 94.599002 340.10381 
L 94.852951 339.862673 
L 94.970741 339.621536 
L 95.1875 339.460778 
L 95.335986 339.139261 
L 95.65479 338.978503 
L 95.980889 338.335471 
L 96.213513 338.094334 
L 96.400997 337.53168 
L 96.808757 337.290543 
L 97.174109 337.049406 
L 97.197229 336.969027 
L 97.536669 336.72789 
L 97.646819 336.406374 
L 97.827564 336.165237 
L 97.929879 335.9241 
L 98.098066 335.763342 
L 98.213401 335.441825 
L 99.076528 334.718414 
L 99.414978 334.075382 
L 99.525504 333.914623 
L 99.623228 333.673486 
L 99.828011 333.35197 
L 99.955139 333.110833 
L 100.262362 332.869696 
L 100.970252 332.387422 
L 101.377035 331.583631 
L 102.059578 330.940599 
L 102.178394 330.779841 
L 102.510425 330.619083 
L 102.650087 330.377945 
L 103.076636 330.136808 
L 103.178894 329.97605 
L 103.682142 329.734913 
L 103.883386 329.574155 
L 103.967653 329.333018 
L 104.47474 329.091881 
L 104.484313 329.011502 
L 104.710431 328.770365 
L 104.830684 328.28809 
L 104.964627 327.966574 
L 105.107857 327.805816 
L 105.679917 327.082405 
L 105.686395 327.002026 
L 106.03674 326.680509 
L 106.907684 325.072929 
L 107.15831 324.831791 
L 107.18166 324.751412 
L 107.361237 324.590654 
L 107.64337 324.349517 
L 107.902175 324.188759 
L 108.193148 323.867243 
L 108.316813 323.465348 
L 108.573815 323.22421 
L 108.688357 322.983073 
L 109.193396 322.581178 
L 109.377687 322.340041 
L 109.504664 322.179283 
L 109.640117 321.777388 
L 109.767972 321.61663 
L 109.800427 321.455871 
L 110.030342 321.214734 
L 110.144152 320.812839 
L 110.54816 320.169807 
L 110.851948 319.92867 
L 111.038799 319.767912 
L 111.174692 319.607153 
L 111.413234 319.446395 
L 111.59814 319.0445 
L 112.054261 318.24071 
L 112.531138 317.999573 
L 112.730443 317.838814 
L 112.73226 317.758435 
L 113.228751 317.436919 
L 113.797235 316.150854 
L 114.462886 315.588201 
L 114.594221 315.347064 
L 114.700049 314.86479 
L 114.881191 314.543274 
L 115.101059 314.302136 
L 115.453416 314.141378 
L 115.640844 313.819862 
L 115.759985 313.659104 
L 115.786475 313.498346 
L 115.992373 313.337588 
L 116.068775 313.17683 
L 116.358735 312.935693 
L 116.870064 312.131902 
L 117.165215 311.890765 
L 117.948956 310.845838 
L 118.031818 310.524321 
L 118.368824 310.363563 
L 118.563865 310.042047 
L 118.728716 309.881289 
L 118.883581 309.559773 
L 119.145029 309.399015 
L 119.349354 308.91674 
L 119.415135 308.595224 
L 119.679334 308.434466 
L 119.814107 308.11295 
L 120.110392 307.630676 
L 120.302514 307.389539 
L 120.846161 306.585748 
L 121.313456 306.264232 
L 121.496786 305.942716 
L 121.662651 305.6212 
L 121.905858 305.219304 
L 121.910707 305.138925 
L 122.435378 304.73703 
L 122.495545 304.495893 
L 122.78453 304.254756 
L 122.809553 304.174377 
L 123.167677 303.93324 
L 124.344655 302.164901 
L 124.434198 301.843384 
L 125.793612 300.075045 
L 126.471037 299.67315 
L 126.567203 299.432013 
L 126.779952 299.271255 
L 126.79193 299.190876 
L 127.270036 298.788981 
L 127.490255 298.306706 
L 128.24636 297.502916 
L 128.68367 296.457988 
L 128.893342 296.29723 
L 129.334337 295.171924 
L 129.756158 295.011166 
L 129.854387 294.770028 
L 130.098942 294.60927 
L 130.311175 294.207375 
L 130.634615 293.564343 
L 130.797844 293.323206 
L 130.916969 293.082069 
L 131.022382 292.92131 
L 131.458849 292.760552 
L 131.854885 291.956762 
L 132.204574 291.715625 
L 132.782007 290.911834 
L 132.812141 290.751076 
L 133.323677 290.42956 
L 133.347984 290.349181 
L 133.593078 290.188423 
L 133.699686 289.866907 
L 134.125976 289.706149 
L 134.228877 289.465012 
L 134.276888 289.384632 
L 134.618103 289.223874 
L 135.018569 288.580842 
L 135.101037 288.420084 
L 135.355392 288.259326 
L 135.36736 288.178947 
L 135.50304 288.018189 
L 135.704387 287.696673 
L 136.133969 287.375156 
L 136.259282 287.134019 
L 136.830934 286.732124 
L 137.321251 286.330229 
L 137.455335 285.767575 
L 137.727769 285.446059 
L 137.863155 285.124543 
L 137.910329 284.883406 
L 138.118653 284.642269 
L 138.3037 284.401132 
L 138.401598 283.999236 
L 139.266234 283.115067 
L 139.28736 283.034688 
L 139.529515 282.793551 
L 139.613002 282.552414 
L 139.851536 282.230897 
L 140.13519 281.829002 
L 140.345411 281.427107 
L 140.577583 281.105591 
L 140.656918 280.864454 
L 141.444599 280.3018 
L 141.58836 280.060663 
L 141.743265 279.819526 
L 141.99909 279.49801 
L 142.61854 278.694219 
L 142.92603 278.533461 
L 143.069846 278.292324 
L 143.297394 277.970808 
L 143.951132 276.282848 
L 144.826429 275.077162 
L 144.976527 274.916404 
L 145.065435 274.675267 
L 145.433202 274.514509 
L 145.859013 273.951856 
L 146.061467 273.63034 
L 146.240528 273.469582 
L 146.60491 273.148065 
L 146.775366 272.906928 
L 147.390072 272.344275 
L 147.469401 272.183517 
L 147.868304 271.620864 
L 148.72519 270.415178 
L 148.982946 270.25442 
L 148.98654 270.174041 
L 149.198548 269.932904 
L 149.297965 269.611387 
L 149.448181 269.37025 
L 149.725367 269.209492 
L 149.726617 269.129113 
L 150.76967 268.405702 
L 150.968292 268.164565 
L 151.158449 268.003806 
L 151.273386 267.762669 
L 151.403719 267.601911 
L 151.42747 267.441153 
L 151.68897 267.200016 
L 151.774804 267.039258 
L 153.100819 264.869024 
L 153.347109 264.708266 
L 153.578838 264.225991 
L 153.586327 264.145612 
L 154.118072 263.824096 
L 154.120222 263.743717 
L 154.258499 263.582959 
L 154.294347 263.50258 
L 154.590508 263.341822 
L 154.652795 263.100685 
L 154.847698 262.939927 
L 155.153963 262.61841 
L 155.514296 262.216515 
L 155.516764 262.136136 
L 155.770278 261.975378 
L 155.852186 261.573483 
L 156.136505 261.332346 
L 156.276202 261.091209 
L 156.717854 260.850071 
L 157.141813 260.448176 
L 157.3087 260.046281 
L 157.917658 259.644386 
L 158.158271 259.32287 
L 158.502317 259.081732 
L 159.36736 257.876047 
L 159.799816 257.393773 
L 160.072022 256.831119 
L 161.234842 255.866571 
L 161.534854 255.143159 
L 161.756386 254.902022 
L 161.893372 254.660885 
L 162.08786 254.339369 
L 162.114168 254.178611 
L 162.403202 253.937474 
L 162.560226 253.455199 
L 162.790725 253.214062 
L 163.214365 252.57103 
L 163.332692 252.410272 
L 163.390393 252.249514 
L 163.674502 251.767239 
L 163.841758 251.445723 
L 164.116168 251.204586 
L 164.561697 250.641933 
L 164.737616 250.240038 
L 165.011584 249.9989 
L 165.051733 249.918521 
L 165.473462 249.677384 
L 166.74002 247.989424 
L 166.767005 247.828666 
L 167.008259 247.587529 
L 167.212136 247.024876 
L 167.292362 246.944497 
L 167.779446 246.70336 
L 167.902048 246.462222 
L 168.111055 246.301464 
L 168.495119 245.899569 
L 168.702001 245.738811 
L 168.809726 245.417295 
L 169.39553 245.0154 
L 169.769825 244.533125 
L 170.077075 243.970472 
L 170.414802 243.729335 
L 170.689962 243.32744 
L 171.372142 242.925544 
L 171.882273 242.121754 
L 172.011867 241.960996 
L 172.106709 241.63948 
L 172.299109 241.317964 
L 172.650476 241.157205 
L 172.946405 240.353415 
L 173.677901 238.906592 
L 174.139079 238.665455 
L 174.837644 237.861665 
L 175.225222 237.218632 
L 175.499071 236.655979 
L 175.505747 236.5756 
L 175.731436 236.334463 
L 176.479745 235.048398 
L 176.797858 234.646503 
L 176.937957 234.405366 
L 177.810754 233.038922 
L 178.302165 232.556648 
L 178.741067 232.154752 
L 178.871783 231.833236 
L 178.964968 231.672478 
L 179.023651 231.51172 
L 179.338121 231.190204 
L 179.550228 230.627551 
L 179.941417 230.386413 
L 179.943174 230.306034 
L 180.312946 230.064897 
L 180.529705 229.904139 
L 180.746406 229.663002 
L 180.794973 229.502244 
L 181.05141 229.261107 
L 181.065832 229.180728 
L 181.396943 228.939591 
L 181.441751 228.778832 
L 181.593352 228.618074 
L 181.6961 228.296558 
L 181.813859 228.1358 
L 181.819368 227.975042 
L 182.101625 227.814284 
L 182.313612 227.573147 
L 182.409744 227.090873 
L 182.528769 226.849735 
L 182.596742 226.688977 
L 182.786948 226.528219 
L 183.383116 225.001017 
L 184.110805 224.277606 
L 184.328273 223.634574 
L 184.479947 223.473815 
L 184.548273 223.232678 
L 185.134031 223.07192 
L 185.474307 222.589646 
L 185.644226 222.348509 
L 185.910472 221.785856 
L 186.494415 220.499791 
L 186.607995 220.178275 
L 187.955908 218.570694 
L 188.616107 217.606145 
L 189.165205 217.043492 
L 189.953914 215.51629 
L 190.353697 215.194774 
L 190.424139 215.034016 
L 190.65284 214.873258 
L 191.096635 213.989088 
L 191.219419 213.82833 
L 191.326487 213.667572 
L 191.90795 212.863782 
L 192.01282 212.542265 
L 192.495547 212.381507 
L 193.000189 211.979612 
L 193.228354 211.416959 
L 193.623786 210.130894 
L 194.044907 209.889757 
L 194.483696 209.407483 
L 194.721128 209.246725 
L 194.727672 209.166345 
L 194.895484 209.005587 
L 195.035087 208.76445 
L 195.380029 208.523313 
L 195.545268 208.201797 
L 195.695895 207.96066 
L 196.101263 207.558765 
L 196.675512 207.156869 
L 196.908117 206.594216 
L 197.097571 206.433458 
L 197.276273 206.192321 
L 197.621467 205.951184 
L 197.731337 205.710047 
L 197.904775 205.308151 
L 198.287559 204.665119 
L 198.367582 204.343603 
L 198.632272 204.182845 
L 198.7727 203.861328 
L 199.061305 203.218296 
L 199.150951 202.575264 
L 199.356836 202.334127 
L 199.615775 201.932231 
L 200.07162 201.20882 
L 200.333463 201.048062 
L 200.536947 200.565788 
L 200.914229 200.40503 
L 201.154892 200.163892 
L 201.375266 200.003134 
L 202.204845 198.877828 
L 202.630679 198.71707 
L 202.66414 198.475932 
L 202.828887 198.315174 
L 202.834514 198.234795 
L 203.133296 197.993658 
L 203.226447 197.752521 
L 203.413019 197.591763 
L 204.03817 196.546835 
L 204.130549 196.386077 
L 204.333171 196.225319 
L 204.368499 195.984182 
L 204.609081 195.743045 
L 204.614325 195.662666 
L 204.948285 195.501908 
L 205.425375 194.939254 
L 205.591287 194.45698 
L 205.825432 194.215843 
L 205.95371 194.055085 
L 206.52897 193.010157 
L 206.729133 192.527883 
L 207.145455 192.286746 
L 207.377834 191.884851 
L 207.43337 191.724093 
L 207.832733 191.482956 
L 207.957794 191.241818 
L 208.64676 190.438028 
L 208.724925 190.036133 
L 208.983406 189.875375 
L 209.113327 189.714617 
L 209.461929 189.3931 
L 209.664743 188.910826 
L 209.726489 188.750068 
L 209.925152 188.508931 
L 209.960614 188.267794 
L 210.442549 187.785519 
L 210.445063 187.624761 
L 211.020808 187.303245 
L 211.469737 186.740592 
L 211.545051 186.499455 
L 211.792192 186.258318 
L 212.003394 185.936801 
L 212.027907 185.856422 
L 212.177011 185.695664 
L 212.281397 185.454527 
L 212.584596 185.21339 
L 212.761307 184.811495 
L 213.285247 184.4096 
L 213.340126 184.248841 
L 213.649315 184.007704 
L 214.330302 182.962777 
L 214.456991 182.72164 
L 215.892245 180.551405 
L 216.184906 180.390647 
L 216.363235 180.14951 
L 217.038049 179.506478 
L 217.097944 179.34572 
L 217.362732 179.024204 
L 218.044765 178.381171 
L 218.329964 178.220413 
L 218.731112 177.497002 
L 218.873201 177.336244 
L 219.143371 177.175486 
L 219.14596 177.095106 
L 219.844672 176.77359 
L 219.944332 176.371695 
L 220.253579 176.050179 
L 220.752152 175.889421 
L 220.822522 175.728663 
L 220.976181 175.407147 
L 221.279922 175.08563 
L 221.590606 174.844493 
L 221.638818 174.522977 
L 222.09309 174.201461 
L 222.197162 174.040703 
L 222.359498 173.719187 
L 222.522907 173.39767 
L 222.921046 173.156533 
L 223.18085 172.513501 
L 223.312712 172.111606 
L 223.611284 171.870469 
L 224.00907 171.468573 
L 224.293904 171.307815 
L 224.404165 171.066678 
L 224.882011 170.745162 
L 225.037899 170.504025 
L 225.414519 170.262888 
L 225.627024 170.02175 
L 226.480375 169.137581 
L 227.101267 168.896444 
L 227.307604 168.253411 
L 227.688467 167.690758 
L 227.694947 167.610379 
L 228.121999 167.449621 
L 228.215858 167.288863 
L 228.325221 167.047726 
L 228.708449 166.485073 
L 229.232244 166.083177 
L 229.326284 165.761661 
L 229.615279 165.520524 
L 229.953027 164.957871 
L 230.031136 164.877492 
L 230.405858 164.716734 
L 230.501408 164.475596 
L 230.606264 164.314838 
L 230.749637 164.073701 
L 230.764681 163.993322 
L 231.023953 163.752185 
L 231.035635 163.671806 
L 231.490749 163.269911 
L 231.524249 163.189532 
L 231.73351 163.028774 
L 231.93372 162.707257 
L 232.884267 161.340814 
L 233.075146 161.099676 
L 233.295653 160.858539 
L 233.722039 160.376265 
L 233.868698 160.215507 
L 233.900008 160.135128 
L 234.199774 159.97437 
L 234.518902 159.0902 
L 235.010601 158.768684 
L 235.246795 158.206031 
L 235.431808 158.045273 
L 235.441505 157.964894 
L 235.70159 157.723757 
L 236.035353 157.40224 
L 236.141786 157.161103 
L 236.386609 156.839587 
L 236.592769 156.276934 
L 237.012097 155.71428 
L 237.621795 155.553522 
L 238.307659 154.347837 
L 238.634928 154.1067 
L 238.80041 153.463667 
L 239.223347 152.901014 
L 239.34945 152.740256 
L 239.358834 152.659877 
L 239.660181 152.41874 
L 240.037632 152.097223 
L 240.131112 151.775707 
L 240.338715 151.53457 
L 240.4949 151.293433 
L 240.85807 150.971917 
L 240.867674 150.891538 
L 241.163801 150.73078 
L 241.323172 150.409263 
L 241.677537 149.926989 
L 241.756069 149.605473 
L 241.928717 149.364336 
L 242.278242 148.560545 
L 242.86336 148.078271 
L 242.897088 147.997892 
L 243.153368 147.837134 
L 243.505605 147.274481 
L 243.883338 146.872585 
L 244.700539 145.104247 
L 244.826279 144.863109 
L 244.918725 144.621972 
L 244.938381 144.541593 
L 245.331893 144.300456 
L 245.74576 143.496666 
L 246.074856 143.09477 
L 246.127738 142.773254 
L 246.432481 142.532117 
L 246.519726 142.371359 
L 246.621983 142.210601 
L 246.98441 142.049843 
L 247.562424 141.40681 
L 248.375336 141.004915 
L 248.480529 140.683399 
L 248.687214 140.522641 
L 249.319415 139.477713 
L 249.509809 139.236576 
L 249.735821 138.834681 
L 249.956983 138.673923 
L 250.137612 138.11127 
L 250.35747 137.789753 
L 251.090653 136.182172 
L 251.321881 136.021414 
L 251.437293 135.699898 
L 251.587331 135.378382 
L 251.720757 135.137245 
L 251.853527 134.976487 
L 252.077791 134.815729 
L 252.287028 134.654971 
L 252.412472 134.413834 
L 252.584929 133.931559 
L 253.31929 133.690422 
L 253.519887 133.449285 
L 253.716685 133.288527 
L 254.005102 133.127769 
L 254.407812 132.886632 
L 255.251224 131.600567 
L 255.49699 130.716397 
L 255.96139 129.832228 
L 256.223674 129.591091 
L 256.435129 129.189196 
L 256.466591 129.108817 
L 256.670623 128.948058 
L 256.920092 128.305026 
L 257.096061 128.063889 
L 257.431583 127.420857 
L 257.777852 127.018961 
L 258.016644 126.456308 
L 258.272463 126.215171 
L 258.342719 125.974034 
L 258.581736 125.732897 
L 258.74121 125.491759 
L 259.087806 125.250622 
L 259.408479 124.687969 
L 259.632358 124.527211 
L 259.9457 124.205695 
L 260.084441 123.964558 
L 260.155975 123.8038 
L 260.423834 123.643041 
L 261.164553 122.678493 
L 261.376664 122.196219 
L 261.631099 121.955082 
L 261.73176 121.713944 
L 262.234949 121.312049 
L 262.280333 121.151291 
L 262.584674 120.990533 
L 263.275195 120.025984 
L 263.350051 119.865226 
L 263.97905 119.624089 
L 264.305871 119.382952 
L 264.467332 118.981057 
L 265.007538 118.498783 
L 265.377689 118.016508 
L 265.56773 117.775371 
L 265.681589 117.534234 
L 265.827092 117.293097 
L 265.943797 117.05196 
L 266.231426 116.810823 
L 266.349404 116.569685 
L 266.647534 116.248169 
L 266.752609 116.007032 
L 266.889386 115.846274 
L 267.48552 114.720967 
L 268.274302 113.354524 
L 268.3747 113.033008 
L 268.453564 112.79187 
L 268.566303 112.470354 
L 269.962877 111.264669 
L 270.048421 111.10391 
L 270.581436 110.380499 
L 270.881861 110.058983 
L 270.983818 109.817846 
L 271.160954 109.657088 
L 271.289084 109.49633 
L 271.531647 109.255192 
L 272.427266 107.406474 
L 272.793113 107.004579 
L 272.89209 106.763442 
L 272.985234 106.361547 
L 273.182847 106.12041 
L 273.356846 105.879272 
L 273.518526 105.638135 
L 273.616779 105.477377 
L 273.732841 105.23624 
L 274.024464 105.075482 
L 274.150309 104.834345 
L 274.465718 104.110934 
L 274.875983 103.869796 
L 275.030279 103.628659 
L 275.535414 103.226764 
L 275.854487 102.664111 
L 276.05913 102.422974 
L 276.161808 102.181836 
L 276.311119 101.940699 
L 276.728922 101.458425 
L 277.060643 101.136909 
L 277.175502 100.976151 
L 277.328984 100.735014 
L 277.551349 100.574256 
L 277.709407 100.333118 
L 277.880321 100.17236 
L 278.136128 99.931223 
L 278.377982 99.770465 
L 278.481641 99.207812 
L 278.773431 98.725537 
L 278.950101 98.162884 
L 279.264738 98.002126 
L 279.467633 97.68061 
L 280.235707 96.555303 
L 280.335624 96.314166 
L 280.40031 95.912271 
L 280.529288 95.751513 
L 280.63687 95.349618 
L 280.716124 95.028101 
L 280.886926 94.867343 
L 280.901687 94.706585 
L 281.144814 94.465448 
L 281.19884 94.143932 
L 281.609793 93.742037 
L 281.942776 93.5009 
L 282.022574 93.259762 
L 282.208865 93.018625 
L 282.755184 92.375593 
L 283.02548 92.214835 
L 283.880447 91.973698 
L 284.09666 91.81294 
L 284.242763 91.411044 
L 284.960596 90.446496 
L 285.006138 90.285738 
L 285.249007 89.964222 
L 285.341252 89.803463 
L 285.540477 89.562326 
L 285.857671 88.919294 
L 286.111814 88.356641 
L 286.562747 88.115504 
L 286.65951 87.874366 
L 286.778871 87.633229 
L 287.761829 86.507923 
L 287.873061 86.266785 
L 288.138305 86.025648 
L 288.295404 85.784511 
L 288.803893 85.382616 
L 288.924305 84.980721 
L 288.9811 84.900342 
L 289.408418 84.739584 
L 289.915147 83.694656 
L 290.474605 83.453519 
L 291.221529 82.810487 
L 291.62947 82.649728 
L 291.876331 82.408591 
L 292.518198 81.845938 
L 292.549383 81.765559 
L 292.769926 81.604801 
L 292.786833 81.524422 
L 293.042348 81.363664 
L 293.10732 81.122527 
L 293.472169 80.80101 
L 294.729962 78.952292 
L 295.118263 78.711155 
L 295.236091 78.550397 
L 295.87911 77.987744 
L 296.318029 77.746607 
L 296.454706 77.50547 
L 296.558211 77.344711 
L 296.855805 77.103574 
L 297.034232 76.942816 
L 297.144488 76.701679 
L 297.797394 76.380163 
L 297.949612 76.139026 
L 297.954196 76.058647 
L 298.240409 75.897889 
L 298.475405 75.495993 
L 298.571899 75.013719 
L 298.867185 74.451066 
L 299.176715 74.209929 
L 299.407767 73.647275 
L 299.753551 73.486517 
L 299.926645 73.084622 
L 300.935392 71.075146 
L 301.176182 70.75363 
L 301.190877 70.673251 
L 301.452658 70.512493 
L 302.396997 68.744154 
L 302.680802 68.503017 
L 303.007437 68.1815 
L 303.145439 68.020742 
L 303.521281 67.699226 
L 303.708394 67.216952 
L 303.896475 67.056194 
L 303.932595 66.975815 
L 304.277028 66.734678 
L 304.459183 66.413161 
L 304.668472 66.172024 
L 304.891329 65.68975 
L 305.148485 65.287855 
L 305.284769 64.885959 
L 305.356876 64.725201 
L 305.518617 64.564443 
L 305.862458 64.403685 
L 305.990975 64.162548 
L 306.116645 63.921411 
L 306.341 63.439137 
L 307.328355 62.233451 
L 307.497681 61.992314 
L 307.975485 61.429661 
L 308.064101 61.268902 
L 308.508632 61.027765 
L 308.669839 60.786628 
L 308.845008 60.465112 
L 309.201403 60.063217 
L 309.261228 59.82208 
L 309.479678 59.580943 
L 309.77896 59.259426 
L 309.838962 59.098668 
L 310.339032 58.857531 
L 310.427625 58.616394 
L 310.486704 58.375257 
L 311.148125 57.892983 
L 311.222532 57.571466 
L 312.659703 55.56199 
L 312.740761 55.240474 
L 312.954446 55.079716 
L 313.016648 54.918958 
L 313.372892 54.597442 
L 313.387957 54.275926 
L 313.550314 54.034788 
L 313.569838 53.954409 
L 314.365905 53.713272 
L 315.486571 52.266449 
L 315.557364 51.944933 
L 316.008688 51.38228 
L 316.166365 51.060764 
L 316.785354 50.578489 
L 316.891219 50.337352 
L 317.076305 50.096215 
L 317.221451 49.855078 
L 317.413588 49.613941 
L 317.580346 49.292425 
L 318.040996 48.649392 
L 318.282083 48.488634 
L 318.67316 47.845602 
L 318.770043 47.684844 
L 319.439475 46.479158 
L 319.598941 46.3184 
L 319.643544 46.157642 
L 320.127195 45.755747 
L 320.164957 45.594989 
L 320.365525 45.353852 
L 320.485316 45.112714 
L 320.698656 44.951956 
L 321.090796 44.389303 
L 321.354405 44.148166 
L 321.521781 43.907029 
L 321.837413 43.746271 
L 322.036477 43.505133 
L 322.485016 43.103238 
L 322.641475 42.701343 
L 322.915748 42.540585 
L 322.980691 42.219069 
L 323.170539 42.058311 
L 323.659941 41.334899 
L 324.113793 40.852625 
L 324.113793 40.852625 
" style="fill:none;stroke:#008000;stroke-linecap:square;stroke-width:2.0;"/>
   </g>
   <g id="patch_3">
    <path d="M 539.38125 368.71875 
L 539.38125 40.852625 
" style="fill:none;stroke:#000000;stroke-linecap:square;stroke-linejoin:miter;stroke-width:2.0;"/>
   </g>
   <g id="patch_4">
    <path d="M 74.48625 40.852625 
L 539.38125 40.852625 
" style="fill:none;stroke:#000000;stroke-linecap:square;stroke-linejoin:miter;stroke-width:2.0;"/>
   </g>
   <g id="patch_5">
    <path d="M 74.48625 368.71875 
L 74.48625 40.852625 
" style="fill:none;stroke:#000000;stroke-linecap:square;stroke-linejoin:miter;stroke-width:2.0;"/>
   </g>
   <g id="patch_6">
    <path d="M 74.48625 368.71875 
L 539.38125 368.71875 
" style="fill:none;stroke:#000000;stroke-linecap:square;stroke-linejoin:miter;stroke-width:2.0;"/>
   </g>
   <g id="matplotlib.axis_1">
    <g id="xtick_1">
     <g id="line2d_3">
      <path clip-path="url(#p32a2cddb16)" d="M 74.48625 368.71875 
L 74.48625 40.852625 
" style="fill:none;stroke:#000000;stroke-dasharray:1.000000,3.000000;stroke-dashoffset:0.0;stroke-width:2.0;"/>
     </g>
     <g id="line2d_4">
      <defs>
       <path d="M 0 0 
L 0 -4 
" id="m413c3900fd" style="stroke:#000000;stroke-width:0.5;"/>
      </defs>
      <g>
       <use style="stroke:#000000;stroke-width:0.5;" x="74.48625" xlink:href="#m413c3900fd" y="368.71875"/>
      </g>
     </g>
     <g id="line2d_5">
      <defs>
       <path d="M 0 0 
L 0 4 
" id="m00bbdb3073" style="stroke:#000000;stroke-width:0.5;"/>
      </defs>
      <g>
       <use style="stroke:#000000;stroke-width:0.5;" x="74.48625" xlink:href="#m00bbdb3073" y="40.852625"/>
      </g>
     </g>
     <g id="text_1">
      <!-- 0 -->
      <defs>
       <path d="M 31.78125 66.40625 
Q 24.171875 66.40625 20.328125 58.90625 
Q 16.5 51.421875 16.5 36.375 
Q 16.5 21.390625 20.328125 13.890625 
Q 24.171875 6.390625 31.78125 6.390625 
Q 39.453125 6.390625 43.28125 13.890625 
Q 47.125 21.390625 47.125 36.375 
Q 47.125 51.421875 43.28125 58.90625 
Q 39.453125 66.40625 31.78125 66.40625 
M 31.78125 74.21875 
Q 44.046875 74.21875 50.515625 64.515625 
Q 56.984375 54.828125 56.984375 36.375 
Q 56.984375 17.96875 50.515625 8.265625 
Q 44.046875 -1.421875 31.78125 -1.421875 
Q 19.53125 -1.421875 13.0625 8.265625 
Q 6.59375 17.96875 6.59375 36.375 
Q 6.59375 54.828125 13.0625 64.515625 
Q 19.53125 74.21875 31.78125 74.21875 
" id="BitstreamVeraSans-Roman-30"/>
      </defs>
      <g transform="translate(68.76 386.3959375)scale(0.18 -0.18)">
       <use xlink:href="#BitstreamVeraSans-Roman-30"/>
      </g>
     </g>
    </g>
    <g id="xtick_2">
     <g id="line2d_6">
      <path clip-path="url(#p32a2cddb16)" d="M 132.598125 368.71875 
L 132.598125 40.852625 
" style="fill:none;stroke:#000000;stroke-dasharray:1.000000,3.000000;stroke-dashoffset:0.0;stroke-width:2.0;"/>
     </g>
     <g id="line2d_7">
      <g>
       <use style="stroke:#000000;stroke-width:0.5;" x="132.598125" xlink:href="#m413c3900fd" y="368.71875"/>
      </g>
     </g>
     <g id="line2d_8">
      <g>
       <use style="stroke:#000000;stroke-width:0.5;" x="132.598125" xlink:href="#m00bbdb3073" y="40.852625"/>
      </g>
     </g>
     <g id="text_2">
      <!-- 50 -->
      <defs>
       <path d="M 10.796875 72.90625 
L 49.515625 72.90625 
L 49.515625 64.59375 
L 19.828125 64.59375 
L 19.828125 46.734375 
Q 21.96875 47.46875 24.109375 47.828125 
Q 26.265625 48.1875 28.421875 48.1875 
Q 40.625 48.1875 47.75 41.5 
Q 54.890625 34.8125 54.890625 23.390625 
Q 54.890625 11.625 47.5625 5.09375 
Q 40.234375 -1.421875 26.90625 -1.421875 
Q 22.3125 -1.421875 17.546875 -0.640625 
Q 12.796875 0.140625 7.71875 1.703125 
L 7.71875 11.625 
Q 12.109375 9.234375 16.796875 8.0625 
Q 21.484375 6.890625 26.703125 6.890625 
Q 35.15625 6.890625 40.078125 11.328125 
Q 45.015625 15.765625 45.015625 23.390625 
Q 45.015625 31 40.078125 35.4375 
Q 35.15625 39.890625 26.703125 39.890625 
Q 22.75 39.890625 18.8125 39.015625 
Q 14.890625 38.140625 10.796875 36.28125 
z
" id="BitstreamVeraSans-Roman-35"/>
      </defs>
      <g transform="translate(121.145625 386.3959375)scale(0.18 -0.18)">
       <use xlink:href="#BitstreamVeraSans-Roman-35"/>
       <use x="63.623046875" xlink:href="#BitstreamVeraSans-Roman-30"/>
      </g>
     </g>
    </g>
    <g id="xtick_3">
     <g id="line2d_9">
      <path clip-path="url(#p32a2cddb16)" d="M 190.71 368.71875 
L 190.71 40.852625 
" style="fill:none;stroke:#000000;stroke-dasharray:1.000000,3.000000;stroke-dashoffset:0.0;stroke-width:2.0;"/>
     </g>
     <g id="line2d_10">
      <g>
       <use style="stroke:#000000;stroke-width:0.5;" x="190.71" xlink:href="#m413c3900fd" y="368.71875"/>
      </g>
     </g>
     <g id="line2d_11">
      <g>
       <use style="stroke:#000000;stroke-width:0.5;" x="190.71" xlink:href="#m00bbdb3073" y="40.852625"/>
      </g>
     </g>
     <g id="text_3">
      <!-- 100 -->
      <defs>
       <path d="M 12.40625 8.296875 
L 28.515625 8.296875 
L 28.515625 63.921875 
L 10.984375 60.40625 
L 10.984375 69.390625 
L 28.421875 72.90625 
L 38.28125 72.90625 
L 38.28125 8.296875 
L 54.390625 8.296875 
L 54.390625 0 
L 12.40625 0 
z
" id="BitstreamVeraSans-Roman-31"/>
      </defs>
      <g transform="translate(173.53125 386.3959375)scale(0.18 -0.18)">
       <use xlink:href="#BitstreamVeraSans-Roman-31"/>
       <use x="63.623046875" xlink:href="#BitstreamVeraSans-Roman-30"/>
       <use x="127.24609375" xlink:href="#BitstreamVeraSans-Roman-30"/>
      </g>
     </g>
    </g>
    <g id="xtick_4">
     <g id="line2d_12">
      <path clip-path="url(#p32a2cddb16)" d="M 248.821875 368.71875 
L 248.821875 40.852625 
" style="fill:none;stroke:#000000;stroke-dasharray:1.000000,3.000000;stroke-dashoffset:0.0;stroke-width:2.0;"/>
     </g>
     <g id="line2d_13">
      <g>
       <use style="stroke:#000000;stroke-width:0.5;" x="248.821875" xlink:href="#m413c3900fd" y="368.71875"/>
      </g>
     </g>
     <g id="line2d_14">
      <g>
       <use style="stroke:#000000;stroke-width:0.5;" x="248.821875" xlink:href="#m00bbdb3073" y="40.852625"/>
      </g>
     </g>
     <g id="text_4">
      <!-- 150 -->
      <g transform="translate(231.643125 386.3959375)scale(0.18 -0.18)">
       <use xlink:href="#BitstreamVeraSans-Roman-31"/>
       <use x="63.623046875" xlink:href="#BitstreamVeraSans-Roman-35"/>
       <use x="127.24609375" xlink:href="#BitstreamVeraSans-Roman-30"/>
      </g>
     </g>
    </g>
    <g id="xtick_5">
     <g id="line2d_15">
      <path clip-path="url(#p32a2cddb16)" d="M 306.93375 368.71875 
L 306.93375 40.852625 
" style="fill:none;stroke:#000000;stroke-dasharray:1.000000,3.000000;stroke-dashoffset:0.0;stroke-width:2.0;"/>
     </g>
     <g id="line2d_16">
      <g>
       <use style="stroke:#000000;stroke-width:0.5;" x="306.93375" xlink:href="#m413c3900fd" y="368.71875"/>
      </g>
     </g>
     <g id="line2d_17">
      <g>
       <use style="stroke:#000000;stroke-width:0.5;" x="306.93375" xlink:href="#m00bbdb3073" y="40.852625"/>
      </g>
     </g>
     <g id="text_5">
      <!-- 200 -->
      <defs>
       <path d="M 19.1875 8.296875 
L 53.609375 8.296875 
L 53.609375 0 
L 7.328125 0 
L 7.328125 8.296875 
Q 12.9375 14.109375 22.625 23.890625 
Q 32.328125 33.6875 34.8125 36.53125 
Q 39.546875 41.84375 41.421875 45.53125 
Q 43.3125 49.21875 43.3125 52.78125 
Q 43.3125 58.59375 39.234375 62.25 
Q 35.15625 65.921875 28.609375 65.921875 
Q 23.96875 65.921875 18.8125 64.3125 
Q 13.671875 62.703125 7.8125 59.421875 
L 7.8125 69.390625 
Q 13.765625 71.78125 18.9375 73 
Q 24.125 74.21875 28.421875 74.21875 
Q 39.75 74.21875 46.484375 68.546875 
Q 53.21875 62.890625 53.21875 53.421875 
Q 53.21875 48.921875 51.53125 44.890625 
Q 49.859375 40.875 45.40625 35.40625 
Q 44.1875 33.984375 37.640625 27.21875 
Q 31.109375 20.453125 19.1875 8.296875 
" id="BitstreamVeraSans-Roman-32"/>
      </defs>
      <g transform="translate(289.755 386.3959375)scale(0.18 -0.18)">
       <use xlink:href="#BitstreamVeraSans-Roman-32"/>
       <use x="63.623046875" xlink:href="#BitstreamVeraSans-Roman-30"/>
       <use x="127.24609375" xlink:href="#BitstreamVeraSans-Roman-30"/>
      </g>
     </g>
    </g>
    <g id="xtick_6">
     <g id="line2d_18">
      <path clip-path="url(#p32a2cddb16)" d="M 365.045625 368.71875 
L 365.045625 40.852625 
" style="fill:none;stroke:#000000;stroke-dasharray:1.000000,3.000000;stroke-dashoffset:0.0;stroke-width:2.0;"/>
     </g>
     <g id="line2d_19">
      <g>
       <use style="stroke:#000000;stroke-width:0.5;" x="365.045625" xlink:href="#m413c3900fd" y="368.71875"/>
      </g>
     </g>
     <g id="line2d_20">
      <g>
       <use style="stroke:#000000;stroke-width:0.5;" x="365.045625" xlink:href="#m00bbdb3073" y="40.852625"/>
      </g>
     </g>
     <g id="text_6">
      <!-- 250 -->
      <g transform="translate(347.866875 386.3959375)scale(0.18 -0.18)">
       <use xlink:href="#BitstreamVeraSans-Roman-32"/>
       <use x="63.623046875" xlink:href="#BitstreamVeraSans-Roman-35"/>
       <use x="127.24609375" xlink:href="#BitstreamVeraSans-Roman-30"/>
      </g>
     </g>
    </g>
    <g id="xtick_7">
     <g id="line2d_21">
      <path clip-path="url(#p32a2cddb16)" d="M 423.1575 368.71875 
L 423.1575 40.852625 
" style="fill:none;stroke:#000000;stroke-dasharray:1.000000,3.000000;stroke-dashoffset:0.0;stroke-width:2.0;"/>
     </g>
     <g id="line2d_22">
      <g>
       <use style="stroke:#000000;stroke-width:0.5;" x="423.1575" xlink:href="#m413c3900fd" y="368.71875"/>
      </g>
     </g>
     <g id="line2d_23">
      <g>
       <use style="stroke:#000000;stroke-width:0.5;" x="423.1575" xlink:href="#m00bbdb3073" y="40.852625"/>
      </g>
     </g>
     <g id="text_7">
      <!-- 300 -->
      <defs>
       <path d="M 40.578125 39.3125 
Q 47.65625 37.796875 51.625 33 
Q 55.609375 28.21875 55.609375 21.1875 
Q 55.609375 10.40625 48.1875 4.484375 
Q 40.765625 -1.421875 27.09375 -1.421875 
Q 22.515625 -1.421875 17.65625 -0.515625 
Q 12.796875 0.390625 7.625 2.203125 
L 7.625 11.71875 
Q 11.71875 9.328125 16.59375 8.109375 
Q 21.484375 6.890625 26.8125 6.890625 
Q 36.078125 6.890625 40.9375 10.546875 
Q 45.796875 14.203125 45.796875 21.1875 
Q 45.796875 27.640625 41.28125 31.265625 
Q 36.765625 34.90625 28.71875 34.90625 
L 20.21875 34.90625 
L 20.21875 43.015625 
L 29.109375 43.015625 
Q 36.375 43.015625 40.234375 45.921875 
Q 44.09375 48.828125 44.09375 54.296875 
Q 44.09375 59.90625 40.109375 62.90625 
Q 36.140625 65.921875 28.71875 65.921875 
Q 24.65625 65.921875 20.015625 65.03125 
Q 15.375 64.15625 9.8125 62.3125 
L 9.8125 71.09375 
Q 15.4375 72.65625 20.34375 73.4375 
Q 25.25 74.21875 29.59375 74.21875 
Q 40.828125 74.21875 47.359375 69.109375 
Q 53.90625 64.015625 53.90625 55.328125 
Q 53.90625 49.265625 50.4375 45.09375 
Q 46.96875 40.921875 40.578125 39.3125 
" id="BitstreamVeraSans-Roman-33"/>
      </defs>
      <g transform="translate(405.97875 386.3959375)scale(0.18 -0.18)">
       <use xlink:href="#BitstreamVeraSans-Roman-33"/>
       <use x="63.623046875" xlink:href="#BitstreamVeraSans-Roman-30"/>
       <use x="127.24609375" xlink:href="#BitstreamVeraSans-Roman-30"/>
      </g>
     </g>
    </g>
    <g id="xtick_8">
     <g id="line2d_24">
      <path clip-path="url(#p32a2cddb16)" d="M 481.269375 368.71875 
L 481.269375 40.852625 
" style="fill:none;stroke:#000000;stroke-dasharray:1.000000,3.000000;stroke-dashoffset:0.0;stroke-width:2.0;"/>
     </g>
     <g id="line2d_25">
      <g>
       <use style="stroke:#000000;stroke-width:0.5;" x="481.269375" xlink:href="#m413c3900fd" y="368.71875"/>
      </g>
     </g>
     <g id="line2d_26">
      <g>
       <use style="stroke:#000000;stroke-width:0.5;" x="481.269375" xlink:href="#m00bbdb3073" y="40.852625"/>
      </g>
     </g>
     <g id="text_8">
      <!-- 350 -->
      <g transform="translate(464.090625 386.3959375)scale(0.18 -0.18)">
       <use xlink:href="#BitstreamVeraSans-Roman-33"/>
       <use x="63.623046875" xlink:href="#BitstreamVeraSans-Roman-35"/>
       <use x="127.24609375" xlink:href="#BitstreamVeraSans-Roman-30"/>
      </g>
     </g>
    </g>
    <g id="xtick_9">
     <g id="line2d_27">
      <path clip-path="url(#p32a2cddb16)" d="M 539.38125 368.71875 
L 539.38125 40.852625 
" style="fill:none;stroke:#000000;stroke-dasharray:1.000000,3.000000;stroke-dashoffset:0.0;stroke-width:2.0;"/>
     </g>
     <g id="line2d_28">
      <g>
       <use style="stroke:#000000;stroke-width:0.5;" x="539.38125" xlink:href="#m413c3900fd" y="368.71875"/>
      </g>
     </g>
     <g id="line2d_29">
      <g>
       <use style="stroke:#000000;stroke-width:0.5;" x="539.38125" xlink:href="#m00bbdb3073" y="40.852625"/>
      </g>
     </g>
     <g id="text_9">
      <!-- 400 -->
      <defs>
       <path d="M 37.796875 64.3125 
L 12.890625 25.390625 
L 37.796875 25.390625 
z
M 35.203125 72.90625 
L 47.609375 72.90625 
L 47.609375 25.390625 
L 58.015625 25.390625 
L 58.015625 17.1875 
L 47.609375 17.1875 
L 47.609375 0 
L 37.796875 0 
L 37.796875 17.1875 
L 4.890625 17.1875 
L 4.890625 26.703125 
z
" id="BitstreamVeraSans-Roman-34"/>
      </defs>
      <g transform="translate(522.2025 386.3959375)scale(0.18 -0.18)">
       <use xlink:href="#BitstreamVeraSans-Roman-34"/>
       <use x="63.623046875" xlink:href="#BitstreamVeraSans-Roman-30"/>
       <use x="127.24609375" xlink:href="#BitstreamVeraSans-Roman-30"/>
      </g>
     </g>
    </g>
    <g id="text_10">
     <!-- Roll speed (degrees/min) -->
     <defs>
      <path d="M 56.203125 29.59375 
L 56.203125 25.203125 
L 14.890625 25.203125 
Q 15.484375 15.921875 20.484375 11.0625 
Q 25.484375 6.203125 34.421875 6.203125 
Q 39.59375 6.203125 44.453125 7.46875 
Q 49.3125 8.734375 54.109375 11.28125 
L 54.109375 2.78125 
Q 49.265625 0.734375 44.1875 -0.34375 
Q 39.109375 -1.421875 33.890625 -1.421875 
Q 20.796875 -1.421875 13.15625 6.1875 
Q 5.515625 13.8125 5.515625 26.8125 
Q 5.515625 40.234375 12.765625 48.109375 
Q 20.015625 56 32.328125 56 
Q 43.359375 56 49.78125 48.890625 
Q 56.203125 41.796875 56.203125 29.59375 
M 47.21875 32.234375 
Q 47.125 39.59375 43.09375 43.984375 
Q 39.0625 48.390625 32.421875 48.390625 
Q 24.90625 48.390625 20.390625 44.140625 
Q 15.875 39.890625 15.1875 32.171875 
z
" id="BitstreamVeraSans-Roman-65"/>
      <path id="BitstreamVeraSans-Roman-20"/>
      <path d="M 8.015625 75.875 
L 15.828125 75.875 
Q 23.140625 64.359375 26.78125 53.3125 
Q 30.421875 42.28125 30.421875 31.390625 
Q 30.421875 20.453125 26.78125 9.375 
Q 23.140625 -1.703125 15.828125 -13.1875 
L 8.015625 -13.1875 
Q 14.5 -2 17.703125 9.0625 
Q 20.90625 20.125 20.90625 31.390625 
Q 20.90625 42.671875 17.703125 53.65625 
Q 14.5 64.65625 8.015625 75.875 
" id="BitstreamVeraSans-Roman-29"/>
      <path d="M 30.609375 48.390625 
Q 23.390625 48.390625 19.1875 42.75 
Q 14.984375 37.109375 14.984375 27.296875 
Q 14.984375 17.484375 19.15625 11.84375 
Q 23.34375 6.203125 30.609375 6.203125 
Q 37.796875 6.203125 41.984375 11.859375 
Q 46.1875 17.53125 46.1875 27.296875 
Q 46.1875 37.015625 41.984375 42.703125 
Q 37.796875 48.390625 30.609375 48.390625 
M 30.609375 56 
Q 42.328125 56 49.015625 48.375 
Q 55.71875 40.765625 55.71875 27.296875 
Q 55.71875 13.875 49.015625 6.21875 
Q 42.328125 -1.421875 30.609375 -1.421875 
Q 18.84375 -1.421875 12.171875 6.21875 
Q 5.515625 13.875 5.515625 27.296875 
Q 5.515625 40.765625 12.171875 48.375 
Q 18.84375 56 30.609375 56 
" id="BitstreamVeraSans-Roman-6f"/>
      <path d="M 44.28125 53.078125 
L 44.28125 44.578125 
Q 40.484375 46.53125 36.375 47.5 
Q 32.28125 48.484375 27.875 48.484375 
Q 21.1875 48.484375 17.84375 46.4375 
Q 14.5 44.390625 14.5 40.28125 
Q 14.5 37.15625 16.890625 35.375 
Q 19.28125 33.59375 26.515625 31.984375 
L 29.59375 31.296875 
Q 39.15625 29.25 43.1875 25.515625 
Q 47.21875 21.78125 47.21875 15.09375 
Q 47.21875 7.46875 41.1875 3.015625 
Q 35.15625 -1.421875 24.609375 -1.421875 
Q 20.21875 -1.421875 15.453125 -0.5625 
Q 10.6875 0.296875 5.421875 2 
L 5.421875 11.28125 
Q 10.40625 8.6875 15.234375 7.390625 
Q 20.0625 6.109375 24.8125 6.109375 
Q 31.15625 6.109375 34.5625 8.28125 
Q 37.984375 10.453125 37.984375 14.40625 
Q 37.984375 18.0625 35.515625 20.015625 
Q 33.0625 21.96875 24.703125 23.78125 
L 21.578125 24.515625 
Q 13.234375 26.265625 9.515625 29.90625 
Q 5.8125 33.546875 5.8125 39.890625 
Q 5.8125 47.609375 11.28125 51.796875 
Q 16.75 56 26.8125 56 
Q 31.78125 56 36.171875 55.265625 
Q 40.578125 54.546875 44.28125 53.078125 
" id="BitstreamVeraSans-Roman-73"/>
      <path d="M 25.390625 72.90625 
L 33.6875 72.90625 
L 8.296875 -9.28125 
L 0 -9.28125 
z
" id="BitstreamVeraSans-Roman-2f"/>
      <path d="M 45.40625 46.390625 
L 45.40625 75.984375 
L 54.390625 75.984375 
L 54.390625 0 
L 45.40625 0 
L 45.40625 8.203125 
Q 42.578125 3.328125 38.25 0.953125 
Q 33.9375 -1.421875 27.875 -1.421875 
Q 17.96875 -1.421875 11.734375 6.484375 
Q 5.515625 14.40625 5.515625 27.296875 
Q 5.515625 40.1875 11.734375 48.09375 
Q 17.96875 56 27.875 56 
Q 33.9375 56 38.25 53.625 
Q 42.578125 51.265625 45.40625 46.390625 
M 14.796875 27.296875 
Q 14.796875 17.390625 18.875 11.75 
Q 22.953125 6.109375 30.078125 6.109375 
Q 37.203125 6.109375 41.296875 11.75 
Q 45.40625 17.390625 45.40625 27.296875 
Q 45.40625 37.203125 41.296875 42.84375 
Q 37.203125 48.484375 30.078125 48.484375 
Q 22.953125 48.484375 18.875 42.84375 
Q 14.796875 37.203125 14.796875 27.296875 
" id="BitstreamVeraSans-Roman-64"/>
      <path d="M 54.890625 33.015625 
L 54.890625 0 
L 45.90625 0 
L 45.90625 32.71875 
Q 45.90625 40.484375 42.875 44.328125 
Q 39.84375 48.1875 33.796875 48.1875 
Q 26.515625 48.1875 22.3125 43.546875 
Q 18.109375 38.921875 18.109375 30.90625 
L 18.109375 0 
L 9.078125 0 
L 9.078125 54.6875 
L 18.109375 54.6875 
L 18.109375 46.1875 
Q 21.34375 51.125 25.703125 53.5625 
Q 30.078125 56 35.796875 56 
Q 45.21875 56 50.046875 50.171875 
Q 54.890625 44.34375 54.890625 33.015625 
" id="BitstreamVeraSans-Roman-6e"/>
      <path d="M 45.40625 27.984375 
Q 45.40625 37.75 41.375 43.109375 
Q 37.359375 48.484375 30.078125 48.484375 
Q 22.859375 48.484375 18.828125 43.109375 
Q 14.796875 37.75 14.796875 27.984375 
Q 14.796875 18.265625 18.828125 12.890625 
Q 22.859375 7.515625 30.078125 7.515625 
Q 37.359375 7.515625 41.375 12.890625 
Q 45.40625 18.265625 45.40625 27.984375 
M 54.390625 6.78125 
Q 54.390625 -7.171875 48.1875 -13.984375 
Q 42 -20.796875 29.203125 -20.796875 
Q 24.46875 -20.796875 20.265625 -20.09375 
Q 16.0625 -19.390625 12.109375 -17.921875 
L 12.109375 -9.1875 
Q 16.0625 -11.328125 19.921875 -12.34375 
Q 23.78125 -13.375 27.78125 -13.375 
Q 36.625 -13.375 41.015625 -8.765625 
Q 45.40625 -4.15625 45.40625 5.171875 
L 45.40625 9.625 
Q 42.625 4.78125 38.28125 2.390625 
Q 33.9375 0 27.875 0 
Q 17.828125 0 11.671875 7.65625 
Q 5.515625 15.328125 5.515625 27.984375 
Q 5.515625 40.671875 11.671875 48.328125 
Q 17.828125 56 27.875 56 
Q 33.9375 56 38.28125 53.609375 
Q 42.625 51.21875 45.40625 46.390625 
L 45.40625 54.6875 
L 54.390625 54.6875 
z
" id="BitstreamVeraSans-Roman-67"/>
      <path d="M 9.421875 54.6875 
L 18.40625 54.6875 
L 18.40625 0 
L 9.421875 0 
z
M 9.421875 75.984375 
L 18.40625 75.984375 
L 18.40625 64.59375 
L 9.421875 64.59375 
z
" id="BitstreamVeraSans-Roman-69"/>
      <path d="M 41.109375 46.296875 
Q 39.59375 47.171875 37.8125 47.578125 
Q 36.03125 48 33.890625 48 
Q 26.265625 48 22.1875 43.046875 
Q 18.109375 38.09375 18.109375 28.8125 
L 18.109375 0 
L 9.078125 0 
L 9.078125 54.6875 
L 18.109375 54.6875 
L 18.109375 46.1875 
Q 20.953125 51.171875 25.484375 53.578125 
Q 30.03125 56 36.53125 56 
Q 37.453125 56 38.578125 55.875 
Q 39.703125 55.765625 41.0625 55.515625 
z
" id="BitstreamVeraSans-Roman-72"/>
      <path d="M 18.109375 8.203125 
L 18.109375 -20.796875 
L 9.078125 -20.796875 
L 9.078125 54.6875 
L 18.109375 54.6875 
L 18.109375 46.390625 
Q 20.953125 51.265625 25.265625 53.625 
Q 29.59375 56 35.59375 56 
Q 45.5625 56 51.78125 48.09375 
Q 58.015625 40.1875 58.015625 27.296875 
Q 58.015625 14.40625 51.78125 6.484375 
Q 45.5625 -1.421875 35.59375 -1.421875 
Q 29.59375 -1.421875 25.265625 0.953125 
Q 20.953125 3.328125 18.109375 8.203125 
M 48.6875 27.296875 
Q 48.6875 37.203125 44.609375 42.84375 
Q 40.53125 48.484375 33.40625 48.484375 
Q 26.265625 48.484375 22.1875 42.84375 
Q 18.109375 37.203125 18.109375 27.296875 
Q 18.109375 17.390625 22.1875 11.75 
Q 26.265625 6.109375 33.40625 6.109375 
Q 40.53125 6.109375 44.609375 11.75 
Q 48.6875 17.390625 48.6875 27.296875 
" id="BitstreamVeraSans-Roman-70"/>
      <path d="M 9.421875 75.984375 
L 18.40625 75.984375 
L 18.40625 0 
L 9.421875 0 
z
" id="BitstreamVeraSans-Roman-6c"/>
      <path d="M 44.390625 34.1875 
Q 47.5625 33.109375 50.5625 29.59375 
Q 53.5625 26.078125 56.59375 19.921875 
L 66.609375 0 
L 56 0 
L 46.6875 18.703125 
Q 43.0625 26.03125 39.671875 28.421875 
Q 36.28125 30.8125 30.421875 30.8125 
L 19.671875 30.8125 
L 19.671875 0 
L 9.8125 0 
L 9.8125 72.90625 
L 32.078125 72.90625 
Q 44.578125 72.90625 50.734375 67.671875 
Q 56.890625 62.453125 56.890625 51.90625 
Q 56.890625 45.015625 53.6875 40.46875 
Q 50.484375 35.9375 44.390625 34.1875 
M 19.671875 64.796875 
L 19.671875 38.921875 
L 32.078125 38.921875 
Q 39.203125 38.921875 42.84375 42.21875 
Q 46.484375 45.515625 46.484375 51.90625 
Q 46.484375 58.296875 42.84375 61.546875 
Q 39.203125 64.796875 32.078125 64.796875 
z
" id="BitstreamVeraSans-Roman-52"/>
      <path d="M 52 44.1875 
Q 55.375 50.25 60.0625 53.125 
Q 64.75 56 71.09375 56 
Q 79.640625 56 84.28125 50.015625 
Q 88.921875 44.046875 88.921875 33.015625 
L 88.921875 0 
L 79.890625 0 
L 79.890625 32.71875 
Q 79.890625 40.578125 77.09375 44.375 
Q 74.3125 48.1875 68.609375 48.1875 
Q 61.625 48.1875 57.5625 43.546875 
Q 53.515625 38.921875 53.515625 30.90625 
L 53.515625 0 
L 44.484375 0 
L 44.484375 32.71875 
Q 44.484375 40.625 41.703125 44.40625 
Q 38.921875 48.1875 33.109375 48.1875 
Q 26.21875 48.1875 22.15625 43.53125 
Q 18.109375 38.875 18.109375 30.90625 
L 18.109375 0 
L 9.078125 0 
L 9.078125 54.6875 
L 18.109375 54.6875 
L 18.109375 46.1875 
Q 21.1875 51.21875 25.484375 53.609375 
Q 29.78125 56 35.6875 56 
Q 41.65625 56 45.828125 52.96875 
Q 50 49.953125 52 44.1875 
" id="BitstreamVeraSans-Roman-6d"/>
      <path d="M 31 75.875 
Q 24.46875 64.65625 21.28125 53.65625 
Q 18.109375 42.671875 18.109375 31.390625 
Q 18.109375 20.125 21.3125 9.0625 
Q 24.515625 -2 31 -13.1875 
L 23.1875 -13.1875 
Q 15.875 -1.703125 12.234375 9.375 
Q 8.59375 20.453125 8.59375 31.390625 
Q 8.59375 42.28125 12.203125 53.3125 
Q 15.828125 64.359375 23.1875 75.875 
z
" id="BitstreamVeraSans-Roman-28"/>
     </defs>
     <g transform="translate(193.815 408.8165625)scale(0.18 -0.18)">
      <use xlink:href="#BitstreamVeraSans-Roman-52"/>
      <use x="69.419921875" xlink:href="#BitstreamVeraSans-Roman-6f"/>
      <use x="130.6015625" xlink:href="#BitstreamVeraSans-Roman-6c"/>
      <use x="158.384765625" xlink:href="#BitstreamVeraSans-Roman-6c"/>
      <use x="186.16796875" xlink:href="#BitstreamVeraSans-Roman-20"/>
      <use x="217.955078125" xlink:href="#BitstreamVeraSans-Roman-73"/>
      <use x="270.0546875" xlink:href="#BitstreamVeraSans-Roman-70"/>
      <use x="333.53125" xlink:href="#BitstreamVeraSans-Roman-65"/>
      <use x="395.0546875" xlink:href="#BitstreamVeraSans-Roman-65"/>
      <use x="456.578125" xlink:href="#BitstreamVeraSans-Roman-64"/>
      <use x="520.0546875" xlink:href="#BitstreamVeraSans-Roman-20"/>
      <use x="551.841796875" xlink:href="#BitstreamVeraSans-Roman-28"/>
      <use x="590.85546875" xlink:href="#BitstreamVeraSans-Roman-64"/>
      <use x="654.33203125" xlink:href="#BitstreamVeraSans-Roman-65"/>
      <use x="715.85546875" xlink:href="#BitstreamVeraSans-Roman-67"/>
      <use x="779.33203125" xlink:href="#BitstreamVeraSans-Roman-72"/>
      <use x="820.4140625" xlink:href="#BitstreamVeraSans-Roman-65"/>
      <use x="881.9375" xlink:href="#BitstreamVeraSans-Roman-65"/>
      <use x="943.4609375" xlink:href="#BitstreamVeraSans-Roman-73"/>
      <use x="995.560546875" xlink:href="#BitstreamVeraSans-Roman-2f"/>
      <use x="1029.251953125" xlink:href="#BitstreamVeraSans-Roman-6d"/>
      <use x="1126.6640625" xlink:href="#BitstreamVeraSans-Roman-69"/>
      <use x="1154.447265625" xlink:href="#BitstreamVeraSans-Roman-6e"/>
      <use x="1217.826171875" xlink:href="#BitstreamVeraSans-Roman-29"/>
     </g>
    </g>
   </g>
   <g id="matplotlib.axis_2">
    <g id="ytick_1">
     <g id="line2d_30">
      <path clip-path="url(#p32a2cddb16)" d="M 74.48625 368.71875 
L 539.38125 368.71875 
" style="fill:none;stroke:#000000;stroke-dasharray:1.000000,3.000000;stroke-dashoffset:0.0;stroke-width:2.0;"/>
     </g>
     <g id="line2d_31">
      <defs>
       <path d="M 0 0 
L 4 0 
" id="md321ce9f94" style="stroke:#000000;stroke-width:0.5;"/>
      </defs>
      <g>
       <use style="stroke:#000000;stroke-width:0.5;" x="74.48625" xlink:href="#md321ce9f94" y="368.71875"/>
      </g>
     </g>
     <g id="line2d_32">
      <defs>
       <path d="M 0 0 
L -4 0 
" id="m8e220691bf" style="stroke:#000000;stroke-width:0.5;"/>
      </defs>
      <g>
       <use style="stroke:#000000;stroke-width:0.5;" x="539.38125" xlink:href="#m8e220691bf" y="368.71875"/>
      </g>
     </g>
     <g id="text_11">
      <!-- 0.0 -->
      <defs>
       <path d="M 10.6875 12.40625 
L 21 12.40625 
L 21 0 
L 10.6875 0 
z
" id="BitstreamVeraSans-Roman-2e"/>
      </defs>
      <g transform="translate(41.860625 373.685625)scale(0.18 -0.18)">
       <use xlink:href="#BitstreamVeraSans-Roman-30"/>
       <use x="63.623046875" xlink:href="#BitstreamVeraSans-Roman-2e"/>
       <use x="95.41015625" xlink:href="#BitstreamVeraSans-Roman-30"/>
      </g>
     </g>
    </g>
    <g id="ytick_2">
     <g id="line2d_33">
      <path clip-path="url(#p32a2cddb16)" d="M 74.48625 303.145525 
L 539.38125 303.145525 
" style="fill:none;stroke:#000000;stroke-dasharray:1.000000,3.000000;stroke-dashoffset:0.0;stroke-width:2.0;"/>
     </g>
     <g id="line2d_34">
      <g>
       <use style="stroke:#000000;stroke-width:0.5;" x="74.48625" xlink:href="#md321ce9f94" y="303.145525"/>
      </g>
     </g>
     <g id="line2d_35">
      <g>
       <use style="stroke:#000000;stroke-width:0.5;" x="539.38125" xlink:href="#m8e220691bf" y="303.145525"/>
      </g>
     </g>
     <g id="text_12">
      <!-- 0.2 -->
      <g transform="translate(41.860625 308.1124)scale(0.18 -0.18)">
       <use xlink:href="#BitstreamVeraSans-Roman-30"/>
       <use x="63.623046875" xlink:href="#BitstreamVeraSans-Roman-2e"/>
       <use x="95.41015625" xlink:href="#BitstreamVeraSans-Roman-32"/>
      </g>
     </g>
    </g>
    <g id="ytick_3">
     <g id="line2d_36">
      <path clip-path="url(#p32a2cddb16)" d="M 74.48625 237.5723 
L 539.38125 237.5723 
" style="fill:none;stroke:#000000;stroke-dasharray:1.000000,3.000000;stroke-dashoffset:0.0;stroke-width:2.0;"/>
     </g>
     <g id="line2d_37">
      <g>
       <use style="stroke:#000000;stroke-width:0.5;" x="74.48625" xlink:href="#md321ce9f94" y="237.5723"/>
      </g>
     </g>
     <g id="line2d_38">
      <g>
       <use style="stroke:#000000;stroke-width:0.5;" x="539.38125" xlink:href="#m8e220691bf" y="237.5723"/>
      </g>
     </g>
     <g id="text_13">
      <!-- 0.4 -->
      <g transform="translate(41.860625 242.539175)scale(0.18 -0.18)">
       <use xlink:href="#BitstreamVeraSans-Roman-30"/>
       <use x="63.623046875" xlink:href="#BitstreamVeraSans-Roman-2e"/>
       <use x="95.41015625" xlink:href="#BitstreamVeraSans-Roman-34"/>
      </g>
     </g>
    </g>
    <g id="ytick_4">
     <g id="line2d_39">
      <path clip-path="url(#p32a2cddb16)" d="M 74.48625 171.999075 
L 539.38125 171.999075 
" style="fill:none;stroke:#000000;stroke-dasharray:1.000000,3.000000;stroke-dashoffset:0.0;stroke-width:2.0;"/>
     </g>
     <g id="line2d_40">
      <g>
       <use style="stroke:#000000;stroke-width:0.5;" x="74.48625" xlink:href="#md321ce9f94" y="171.999075"/>
      </g>
     </g>
     <g id="line2d_41">
      <g>
       <use style="stroke:#000000;stroke-width:0.5;" x="539.38125" xlink:href="#m8e220691bf" y="171.999075"/>
      </g>
     </g>
     <g id="text_14">
      <!-- 0.6 -->
      <defs>
       <path d="M 33.015625 40.375 
Q 26.375 40.375 22.484375 35.828125 
Q 18.609375 31.296875 18.609375 23.390625 
Q 18.609375 15.53125 22.484375 10.953125 
Q 26.375 6.390625 33.015625 6.390625 
Q 39.65625 6.390625 43.53125 10.953125 
Q 47.40625 15.53125 47.40625 23.390625 
Q 47.40625 31.296875 43.53125 35.828125 
Q 39.65625 40.375 33.015625 40.375 
M 52.59375 71.296875 
L 52.59375 62.3125 
Q 48.875 64.0625 45.09375 64.984375 
Q 41.3125 65.921875 37.59375 65.921875 
Q 27.828125 65.921875 22.671875 59.328125 
Q 17.53125 52.734375 16.796875 39.40625 
Q 19.671875 43.65625 24.015625 45.921875 
Q 28.375 48.1875 33.59375 48.1875 
Q 44.578125 48.1875 50.953125 41.515625 
Q 57.328125 34.859375 57.328125 23.390625 
Q 57.328125 12.15625 50.6875 5.359375 
Q 44.046875 -1.421875 33.015625 -1.421875 
Q 20.359375 -1.421875 13.671875 8.265625 
Q 6.984375 17.96875 6.984375 36.375 
Q 6.984375 53.65625 15.1875 63.9375 
Q 23.390625 74.21875 37.203125 74.21875 
Q 40.921875 74.21875 44.703125 73.484375 
Q 48.484375 72.75 52.59375 71.296875 
" id="BitstreamVeraSans-Roman-36"/>
      </defs>
      <g transform="translate(41.860625 176.96595)scale(0.18 -0.18)">
       <use xlink:href="#BitstreamVeraSans-Roman-30"/>
       <use x="63.623046875" xlink:href="#BitstreamVeraSans-Roman-2e"/>
       <use x="95.41015625" xlink:href="#BitstreamVeraSans-Roman-36"/>
      </g>
     </g>
    </g>
    <g id="ytick_5">
     <g id="line2d_42">
      <path clip-path="url(#p32a2cddb16)" d="M 74.48625 106.42585 
L 539.38125 106.42585 
" style="fill:none;stroke:#000000;stroke-dasharray:1.000000,3.000000;stroke-dashoffset:0.0;stroke-width:2.0;"/>
     </g>
     <g id="line2d_43">
      <g>
       <use style="stroke:#000000;stroke-width:0.5;" x="74.48625" xlink:href="#md321ce9f94" y="106.42585"/>
      </g>
     </g>
     <g id="line2d_44">
      <g>
       <use style="stroke:#000000;stroke-width:0.5;" x="539.38125" xlink:href="#m8e220691bf" y="106.42585"/>
      </g>
     </g>
     <g id="text_15">
      <!-- 0.8 -->
      <defs>
       <path d="M 31.78125 34.625 
Q 24.75 34.625 20.71875 30.859375 
Q 16.703125 27.09375 16.703125 20.515625 
Q 16.703125 13.921875 20.71875 10.15625 
Q 24.75 6.390625 31.78125 6.390625 
Q 38.8125 6.390625 42.859375 10.171875 
Q 46.921875 13.96875 46.921875 20.515625 
Q 46.921875 27.09375 42.890625 30.859375 
Q 38.875 34.625 31.78125 34.625 
M 21.921875 38.8125 
Q 15.578125 40.375 12.03125 44.71875 
Q 8.5 49.078125 8.5 55.328125 
Q 8.5 64.0625 14.71875 69.140625 
Q 20.953125 74.21875 31.78125 74.21875 
Q 42.671875 74.21875 48.875 69.140625 
Q 55.078125 64.0625 55.078125 55.328125 
Q 55.078125 49.078125 51.53125 44.71875 
Q 48 40.375 41.703125 38.8125 
Q 48.828125 37.15625 52.796875 32.3125 
Q 56.78125 27.484375 56.78125 20.515625 
Q 56.78125 9.90625 50.3125 4.234375 
Q 43.84375 -1.421875 31.78125 -1.421875 
Q 19.734375 -1.421875 13.25 4.234375 
Q 6.78125 9.90625 6.78125 20.515625 
Q 6.78125 27.484375 10.78125 32.3125 
Q 14.796875 37.15625 21.921875 38.8125 
M 18.3125 54.390625 
Q 18.3125 48.734375 21.84375 45.5625 
Q 25.390625 42.390625 31.78125 42.390625 
Q 38.140625 42.390625 41.71875 45.5625 
Q 45.3125 48.734375 45.3125 54.390625 
Q 45.3125 60.0625 41.71875 63.234375 
Q 38.140625 66.40625 31.78125 66.40625 
Q 25.390625 66.40625 21.84375 63.234375 
Q 18.3125 60.0625 18.3125 54.390625 
" id="BitstreamVeraSans-Roman-38"/>
      </defs>
      <g transform="translate(41.860625 111.392725)scale(0.18 -0.18)">
       <use xlink:href="#BitstreamVeraSans-Roman-30"/>
       <use x="63.623046875" xlink:href="#BitstreamVeraSans-Roman-2e"/>
       <use x="95.41015625" xlink:href="#BitstreamVeraSans-Roman-38"/>
      </g>
     </g>
    </g>
    <g id="ytick_6">
     <g id="line2d_45">
      <path clip-path="url(#p32a2cddb16)" d="M 74.48625 40.852625 
L 539.38125 40.852625 
" style="fill:none;stroke:#000000;stroke-dasharray:1.000000,3.000000;stroke-dashoffset:0.0;stroke-width:2.0;"/>
     </g>
     <g id="line2d_46">
      <g>
       <use style="stroke:#000000;stroke-width:0.5;" x="74.48625" xlink:href="#md321ce9f94" y="40.852625"/>
      </g>
     </g>
     <g id="line2d_47">
      <g>
       <use style="stroke:#000000;stroke-width:0.5;" x="539.38125" xlink:href="#m8e220691bf" y="40.852625"/>
      </g>
     </g>
     <g id="text_16">
      <!-- 1.0 -->
      <g transform="translate(41.860625 45.8195)scale(0.18 -0.18)">
       <use xlink:href="#BitstreamVeraSans-Roman-31"/>
       <use x="63.623046875" xlink:href="#BitstreamVeraSans-Roman-2e"/>
       <use x="95.41015625" xlink:href="#BitstreamVeraSans-Roman-30"/>
      </g>
     </g>
    </g>
    <g id="text_17">
     <!-- Proportion -->
     <defs>
      <path d="M 19.671875 64.796875 
L 19.671875 37.40625 
L 32.078125 37.40625 
Q 38.96875 37.40625 42.71875 40.96875 
Q 46.484375 44.53125 46.484375 51.125 
Q 46.484375 57.671875 42.71875 61.234375 
Q 38.96875 64.796875 32.078125 64.796875 
z
M 9.8125 72.90625 
L 32.078125 72.90625 
Q 44.34375 72.90625 50.609375 67.359375 
Q 56.890625 61.8125 56.890625 51.125 
Q 56.890625 40.328125 50.609375 34.8125 
Q 44.34375 29.296875 32.078125 29.296875 
L 19.671875 29.296875 
L 19.671875 0 
L 9.8125 0 
z
" id="BitstreamVeraSans-Roman-50"/>
      <path d="M 18.3125 70.21875 
L 18.3125 54.6875 
L 36.8125 54.6875 
L 36.8125 47.703125 
L 18.3125 47.703125 
L 18.3125 18.015625 
Q 18.3125 11.328125 20.140625 9.421875 
Q 21.96875 7.515625 27.59375 7.515625 
L 36.8125 7.515625 
L 36.8125 0 
L 27.59375 0 
Q 17.1875 0 13.234375 3.875 
Q 9.28125 7.765625 9.28125 18.015625 
L 9.28125 47.703125 
L 2.6875 47.703125 
L 2.6875 54.6875 
L 9.28125 54.6875 
L 9.28125 70.21875 
z
" id="BitstreamVeraSans-Roman-74"/>
     </defs>
     <g transform="translate(33.1171875 251.5744375)rotate(-90.0)scale(0.18 -0.18)">
      <use xlink:href="#BitstreamVeraSans-Roman-50"/>
      <use x="60.287109375" xlink:href="#BitstreamVeraSans-Roman-72"/>
      <use x="101.369140625" xlink:href="#BitstreamVeraSans-Roman-6f"/>
      <use x="162.55078125" xlink:href="#BitstreamVeraSans-Roman-70"/>
      <use x="226.02734375" xlink:href="#BitstreamVeraSans-Roman-6f"/>
      <use x="287.208984375" xlink:href="#BitstreamVeraSans-Roman-72"/>
      <use x="328.322265625" xlink:href="#BitstreamVeraSans-Roman-74"/>
      <use x="367.53125" xlink:href="#BitstreamVeraSans-Roman-69"/>
      <use x="395.314453125" xlink:href="#BitstreamVeraSans-Roman-6f"/>
      <use x="456.49609375" xlink:href="#BitstreamVeraSans-Roman-6e"/>
     </g>
    </g>
   </g>
   <g id="text_18">
    <!-- Roll Speeds -->
    <defs>
     <path d="M 53.515625 70.515625 
L 53.515625 60.890625 
Q 47.90625 63.578125 42.921875 64.890625 
Q 37.9375 66.21875 33.296875 66.21875 
Q 25.25 66.21875 20.875 63.09375 
Q 16.5 59.96875 16.5 54.203125 
Q 16.5 49.359375 19.40625 46.890625 
Q 22.3125 44.4375 30.421875 42.921875 
L 36.375 41.703125 
Q 47.40625 39.59375 52.65625 34.296875 
Q 57.90625 29 57.90625 20.125 
Q 57.90625 9.515625 50.796875 4.046875 
Q 43.703125 -1.421875 29.984375 -1.421875 
Q 24.8125 -1.421875 18.96875 -0.25 
Q 13.140625 0.921875 6.890625 3.21875 
L 6.890625 13.375 
Q 12.890625 10.015625 18.65625 8.296875 
Q 24.421875 6.59375 29.984375 6.59375 
Q 38.421875 6.59375 43.015625 9.90625 
Q 47.609375 13.234375 47.609375 19.390625 
Q 47.609375 24.75 44.3125 27.78125 
Q 41.015625 30.8125 33.5 32.328125 
L 27.484375 33.5 
Q 16.453125 35.6875 11.515625 40.375 
Q 6.59375 45.0625 6.59375 53.421875 
Q 6.59375 63.09375 13.40625 68.65625 
Q 20.21875 74.21875 32.171875 74.21875 
Q 37.3125 74.21875 42.625 73.28125 
Q 47.953125 72.359375 53.515625 70.515625 
" id="BitstreamVeraSans-Roman-53"/>
    </defs>
    <g transform="translate(243.909 35.852625)scale(0.21599999999999997 -0.21599999999999997)">
     <use xlink:href="#BitstreamVeraSans-Roman-52"/>
     <use x="69.419921875" xlink:href="#BitstreamVeraSans-Roman-6f"/>
     <use x="130.6015625" xlink:href="#BitstreamVeraSans-Roman-6c"/>
     <use x="158.384765625" xlink:href="#BitstreamVeraSans-Roman-6c"/>
     <use x="186.16796875" xlink:href="#BitstreamVeraSans-Roman-20"/>
     <use x="217.955078125" xlink:href="#BitstreamVeraSans-Roman-53"/>
     <use x="281.431640625" xlink:href="#BitstreamVeraSans-Roman-70"/>
     <use x="344.908203125" xlink:href="#BitstreamVeraSans-Roman-65"/>
     <use x="406.431640625" xlink:href="#BitstreamVeraSans-Roman-65"/>
     <use x="467.955078125" xlink:href="#BitstreamVeraSans-Roman-64"/>
     <use x="531.431640625" xlink:href="#BitstreamVeraSans-Roman-73"/>
    </g>
   </g>
   <g id="legend_1">
    <g id="patch_7">
     <path d="M 402.687 357.91875 
L 528.58125 357.91875 
L 528.58125 288.02925 
L 402.687 288.02925 
z
" style="fill:#ffffff;stroke:#000000;stroke-linejoin:miter;"/>
    </g>
    <g id="line2d_48">
     <path d="M 417.807 305.521875 
L 448.047 305.521875 
" style="fill:none;stroke:#0000ff;stroke-linecap:square;stroke-width:2.0;"/>
    </g>
    <g id="line2d_49"/>
    <g id="text_19">
     <!-- fast -->
     <defs>
      <path d="M 34.28125 27.484375 
Q 23.390625 27.484375 19.1875 25 
Q 14.984375 22.515625 14.984375 16.5 
Q 14.984375 11.71875 18.140625 8.90625 
Q 21.296875 6.109375 26.703125 6.109375 
Q 34.1875 6.109375 38.703125 11.40625 
Q 43.21875 16.703125 43.21875 25.484375 
L 43.21875 27.484375 
z
M 52.203125 31.203125 
L 52.203125 0 
L 43.21875 0 
L 43.21875 8.296875 
Q 40.140625 3.328125 35.546875 0.953125 
Q 30.953125 -1.421875 24.3125 -1.421875 
Q 15.921875 -1.421875 10.953125 3.296875 
Q 6 8.015625 6 15.921875 
Q 6 25.140625 12.171875 29.828125 
Q 18.359375 34.515625 30.609375 34.515625 
L 43.21875 34.515625 
L 43.21875 35.40625 
Q 43.21875 41.609375 39.140625 45 
Q 35.0625 48.390625 27.6875 48.390625 
Q 23 48.390625 18.546875 47.265625 
Q 14.109375 46.140625 10.015625 43.890625 
L 10.015625 52.203125 
Q 14.9375 54.109375 19.578125 55.046875 
Q 24.21875 56 28.609375 56 
Q 40.484375 56 46.34375 49.84375 
Q 52.203125 43.703125 52.203125 31.203125 
" id="BitstreamVeraSans-Roman-61"/>
      <path d="M 37.109375 75.984375 
L 37.109375 68.5 
L 28.515625 68.5 
Q 23.6875 68.5 21.796875 66.546875 
Q 19.921875 64.59375 19.921875 59.515625 
L 19.921875 54.6875 
L 34.71875 54.6875 
L 34.71875 47.703125 
L 19.921875 47.703125 
L 19.921875 0 
L 10.890625 0 
L 10.890625 47.703125 
L 2.296875 47.703125 
L 2.296875 54.6875 
L 10.890625 54.6875 
L 10.890625 58.5 
Q 10.890625 67.625 15.140625 71.796875 
Q 19.390625 75.984375 28.609375 75.984375 
z
" id="BitstreamVeraSans-Roman-66"/>
     </defs>
     <g transform="translate(471.807 313.081875)scale(0.21599999999999997 -0.21599999999999997)">
      <use xlink:href="#BitstreamVeraSans-Roman-66"/>
      <use x="35.205078125" xlink:href="#BitstreamVeraSans-Roman-61"/>
      <use x="96.484375" xlink:href="#BitstreamVeraSans-Roman-73"/>
      <use x="148.583984375" xlink:href="#BitstreamVeraSans-Roman-74"/>
     </g>
    </g>
    <g id="line2d_50">
     <path d="M 417.807 337.226625 
L 448.047 337.226625 
" style="fill:none;stroke:#008000;stroke-linecap:square;stroke-width:2.0;"/>
    </g>
    <g id="line2d_51"/>
    <g id="text_20">
     <!-- slow -->
     <defs>
      <path d="M 4.203125 54.6875 
L 13.1875 54.6875 
L 24.421875 12.015625 
L 35.59375 54.6875 
L 46.1875 54.6875 
L 57.421875 12.015625 
L 68.609375 54.6875 
L 77.59375 54.6875 
L 63.28125 0 
L 52.6875 0 
L 40.921875 44.828125 
L 29.109375 0 
L 18.5 0 
z
" id="BitstreamVeraSans-Roman-77"/>
     </defs>
     <g transform="translate(471.807 344.786625)scale(0.21599999999999997 -0.21599999999999997)">
      <use xlink:href="#BitstreamVeraSans-Roman-73"/>
      <use x="52.099609375" xlink:href="#BitstreamVeraSans-Roman-6c"/>
      <use x="79.8828125" xlink:href="#BitstreamVeraSans-Roman-6f"/>
      <use x="141.064453125" xlink:href="#BitstreamVeraSans-Roman-77"/>
     </g>
    </g>
   </g>
  </g>
 </g>
 <defs>
  <clipPath id="p32a2cddb16">
   <rect height="327.866125" width="464.895" x="74.48625" y="40.852625"/>
  </clipPath>
 </defs>
</svg>
