<?xml version="1.0" encoding="utf-8" standalone="no"?>
<!DOCTYPE svg PUBLIC "-//W3C//DTD SVG 1.1//EN"
  "http://www.w3.org/Graphics/SVG/1.1/DTD/svg11.dtd">
<!-- Created with matplotlib (http://matplotlib.org/) -->
<svg height="432pt" version="1.1" viewBox="0 0 576 432" width="576pt" xmlns="http://www.w3.org/2000/svg" xmlns:xlink="http://www.w3.org/1999/xlink">
 <defs>
  <style type="text/css">
*{stroke-linecap:butt;stroke-linejoin:round;stroke-miterlimit:100000;}
  </style>
 </defs>
 <g id="figure_1">
  <g id="patch_1">
   <path d="M 0 432 
L 576 432 
L 576 0 
L 0 0 
z
" style="fill:#ffffff;"/>
  </g>
  <g id="axes_1">
   <g id="patch_2">
    <path d="M 83.849063 368.71875 
L 539.38125 368.71875 
L 539.38125 40.852625 
L 83.849063 40.852625 
z
" style="fill:#ffffff;"/>
   </g>
   <g id="PathCollection_1">
    <defs>
     <path d="M 0 2.236068 
C 0.593012 2.236068 1.161816 2.000462 1.581139 1.581139 
C 2.000462 1.161816 2.236068 0.593012 2.236068 0 
C 2.236068 -0.593012 2.000462 -1.161816 1.581139 -1.581139 
C 1.161816 -2.000462 0.593012 -2.236068 0 -2.236068 
C -0.593012 -2.236068 -1.161816 -2.000462 -1.581139 -1.581139 
C -2.000462 -1.161816 -2.236068 -0.593012 -2.236068 0 
C -2.236068 0.593012 -2.000462 1.161816 -1.581139 1.581139 
C -1.161816 2.000462 -0.593012 2.236068 0 2.236068 
z
" id="me11df68bae" style="stroke:#000000;"/>
    </defs>
    <g clip-path="url(#p033788756a)">
     <use style="fill:#0000ff;stroke:#000000;" x="239.323430599" xlink:href="#me11df68bae" y="309.781316453"/>
     <use style="fill:#0000ff;stroke:#000000;" x="177.542456132" xlink:href="#me11df68bae" y="315.473970461"/>
     <use style="fill:#0000ff;stroke:#000000;" x="193.467580435" xlink:href="#me11df68bae" y="302.188695352"/>
     <use style="fill:#0000ff;stroke:#000000;" x="174.019395783" xlink:href="#me11df68bae" y="305.827780188"/>
     <use style="fill:#0000ff;stroke:#000000;" x="183.452975449" xlink:href="#me11df68bae" y="296.26655992"/>
     <use style="fill:#0000ff;stroke:#000000;" x="244.636963423" xlink:href="#me11df68bae" y="296.231560941"/>
     <use style="fill:#0000ff;stroke:#000000;" x="246.389078506" xlink:href="#me11df68bae" y="308.473167804"/>
     <use style="fill:#0000ff;stroke:#000000;" x="218.369512305" xlink:href="#me11df68bae" y="302.913528246"/>
     <use style="fill:#0000ff;stroke:#000000;" x="173.68617575" xlink:href="#me11df68bae" y="308.097367385"/>
     <use style="fill:#0000ff;stroke:#000000;" x="157.739068859" xlink:href="#me11df68bae" y="325.802540665"/>
     <use style="fill:#0000ff;stroke:#000000;" x="170.718406911" xlink:href="#me11df68bae" y="323.007258187"/>
     <use style="fill:#0000ff;stroke:#000000;" x="458.166171855" xlink:href="#me11df68bae" y="230.637159544"/>
     <use style="fill:#0000ff;stroke:#000000;" x="233.557447715" xlink:href="#me11df68bae" y="299.34717545"/>
     <use style="fill:#0000ff;stroke:#000000;" x="271.272608247" xlink:href="#me11df68bae" y="305.867299157"/>
     <use style="fill:#0000ff;stroke:#000000;" x="212.09354251" xlink:href="#me11df68bae" y="279.493654393"/>
     <use style="fill:#0000ff;stroke:#000000;" x="226.48465748" xlink:href="#me11df68bae" y="319.547193241"/>
     <use style="fill:#0000ff;stroke:#000000;" x="308.289534314" xlink:href="#me11df68bae" y="139.263573232"/>
     <use style="fill:#0000ff;stroke:#000000;" x="216.56227814" xlink:href="#me11df68bae" y="281.551452469"/>
     <use style="fill:#0000ff;stroke:#000000;" x="162.695763052" xlink:href="#me11df68bae" y="319.111599823"/>
     <use style="fill:#0000ff;stroke:#000000;" x="188.945414289" xlink:href="#me11df68bae" y="298.543901917"/>
     <use style="fill:#0000ff;stroke:#000000;" x="287.055986449" xlink:href="#me11df68bae" y="243.931980032"/>
     <use style="fill:#0000ff;stroke:#000000;" x="176.004383334" xlink:href="#me11df68bae" y="303.374914782"/>
     <use style="fill:#0000ff;stroke:#000000;" x="165.770707226" xlink:href="#me11df68bae" y="309.013739542"/>
     <use style="fill:#0000ff;stroke:#000000;" x="230.3765864" xlink:href="#me11df68bae" y="306.167243888"/>
     <use style="fill:#0000ff;stroke:#000000;" x="373.876613925" xlink:href="#me11df68bae" y="290.954754278"/>
     <use style="fill:#0000ff;stroke:#000000;" x="309.92415275" xlink:href="#me11df68bae" y="243.645148348"/>
     <use style="fill:#0000ff;stroke:#000000;" x="366.464977856" xlink:href="#me11df68bae" y="204.303800235"/>
     <use style="fill:#0000ff;stroke:#000000;" x="284.086758498" xlink:href="#me11df68bae" y="258.030636587"/>
     <use style="fill:#0000ff;stroke:#000000;" x="207.384619079" xlink:href="#me11df68bae" y="312.457688801"/>
     <use style="fill:#0000ff;stroke:#000000;" x="212.135725477" xlink:href="#me11df68bae" y="308.589755485"/>
     <use style="fill:#0000ff;stroke:#000000;" x="182.358234244" xlink:href="#me11df68bae" y="299.057238677"/>
     <use style="fill:#0000ff;stroke:#000000;" x="241.437884554" xlink:href="#me11df68bae" y="270.170264672"/>
     <use style="fill:#0000ff;stroke:#000000;" x="322.255511503" xlink:href="#me11df68bae" y="282.486895876"/>
     <use style="fill:#0000ff;stroke:#000000;" x="322.589773539" xlink:href="#me11df68bae" y="276.908946844"/>
     <use style="fill:#0000ff;stroke:#000000;" x="345.164601225" xlink:href="#me11df68bae" y="229.282517343"/>
     <use style="fill:#0000ff;stroke:#000000;" x="238.370483489" xlink:href="#me11df68bae" y="323.659658605"/>
     <use style="fill:#0000ff;stroke:#000000;" x="176.071643842" xlink:href="#me11df68bae" y="314.625191334"/>
     <use style="fill:#0000ff;stroke:#000000;" x="154.306857731" xlink:href="#me11df68bae" y="326.092647077"/>
     <use style="fill:#0000ff;stroke:#000000;" x="326.694154136" xlink:href="#me11df68bae" y="285.443314839"/>
     <use style="fill:#0000ff;stroke:#000000;" x="224.772874842" xlink:href="#me11df68bae" y="312.524214229"/>
     <use style="fill:#0000ff;stroke:#000000;" x="263.576955178" xlink:href="#me11df68bae" y="314.92472834"/>
     <use style="fill:#0000ff;stroke:#000000;" x="312.90213082" xlink:href="#me11df68bae" y="280.731815294"/>
     <use style="fill:#0000ff;stroke:#000000;" x="200.563031994" xlink:href="#me11df68bae" y="291.26437978"/>
     <use style="fill:#0000ff;stroke:#000000;" x="290.298488587" xlink:href="#me11df68bae" y="260.231789969"/>
     <use style="fill:#0000ff;stroke:#000000;" x="385.950287104" xlink:href="#me11df68bae" y="252.941277277"/>
     <use style="fill:#0000ff;stroke:#000000;" x="403.866637721" xlink:href="#me11df68bae" y="261.034124648"/>
     <use style="fill:#0000ff;stroke:#000000;" x="277.183959801" xlink:href="#me11df68bae" y="301.986455717"/>
     <use style="fill:#0000ff;stroke:#000000;" x="167.832531727" xlink:href="#me11df68bae" y="313.673085411"/>
     <use style="fill:#0000ff;stroke:#000000;" x="184.981783022" xlink:href="#me11df68bae" y="322.589707329"/>
     <use style="fill:#0000ff;stroke:#000000;" x="252.674192255" xlink:href="#me11df68bae" y="272.559267364"/>
     <use style="fill:#0000ff;stroke:#000000;" x="160.221363164" xlink:href="#me11df68bae" y="319.69353412"/>
     <use style="fill:#0000ff;stroke:#000000;" x="388.52706138" xlink:href="#me11df68bae" y="218.80724356"/>
     <use style="fill:#0000ff;stroke:#000000;" x="317.554147448" xlink:href="#me11df68bae" y="317.799024166"/>
     <use style="fill:#0000ff;stroke:#000000;" x="266.472071003" xlink:href="#me11df68bae" y="275.875177074"/>
     <use style="fill:#0000ff;stroke:#000000;" x="308.046242029" xlink:href="#me11df68bae" y="241.899656986"/>
     <use style="fill:#0000ff;stroke:#000000;" x="333.236807418" xlink:href="#me11df68bae" y="253.057847937"/>
     <use style="fill:#0000ff;stroke:#000000;" x="224.403073086" xlink:href="#me11df68bae" y="291.007219618"/>
     <use style="fill:#0000ff;stroke:#000000;" x="291.014623519" xlink:href="#me11df68bae" y="283.278418033"/>
     <use style="fill:#0000ff;stroke:#000000;" x="247.864455053" xlink:href="#me11df68bae" y="241.415166711"/>
     <use style="fill:#0000ff;stroke:#000000;" x="464.402164804" xlink:href="#me11df68bae" y="289.005350221"/>
     <use style="fill:#0000ff;stroke:#000000;" x="156.756558874" xlink:href="#me11df68bae" y="325.840582493"/>
     <use style="fill:#0000ff;stroke:#000000;" x="205.06952262" xlink:href="#me11df68bae" y="303.204614872"/>
     <use style="fill:#0000ff;stroke:#000000;" x="158.620972514" xlink:href="#me11df68bae" y="329.671367412"/>
     <use style="fill:#0000ff;stroke:#000000;" x="206.920651698" xlink:href="#me11df68bae" y="315.766038605"/>
     <use style="fill:#0000ff;stroke:#000000;" x="385.377029646" xlink:href="#me11df68bae" y="177.267278294"/>
     <use style="fill:#0000ff;stroke:#000000;" x="335.59075931" xlink:href="#me11df68bae" y="156.181776312"/>
     <use style="fill:#0000ff;stroke:#000000;" x="270.64043345" xlink:href="#me11df68bae" y="304.555245796"/>
     <use style="fill:#0000ff;stroke:#000000;" x="305.56142485" xlink:href="#me11df68bae" y="312.593222308"/>
     <use style="fill:#0000ff;stroke:#000000;" x="185.648918313" xlink:href="#me11df68bae" y="294.336819609"/>
     <use style="fill:#0000ff;stroke:#000000;" x="214.21764791" xlink:href="#me11df68bae" y="310.693939884"/>
     <use style="fill:#0000ff;stroke:#000000;" x="193.227969477" xlink:href="#me11df68bae" y="312.989924501"/>
     <use style="fill:#0000ff;stroke:#000000;" x="163.969838552" xlink:href="#me11df68bae" y="313.218553781"/>
     <use style="fill:#0000ff;stroke:#000000;" x="188.13190139" xlink:href="#me11df68bae" y="280.12108421"/>
     <use style="fill:#0000ff;stroke:#000000;" x="209.186578159" xlink:href="#me11df68bae" y="265.558555018"/>
     <use style="fill:#0000ff;stroke:#000000;" x="286.178884236" xlink:href="#me11df68bae" y="209.724850059"/>
     <use style="fill:#0000ff;stroke:#000000;" x="263.014737034" xlink:href="#me11df68bae" y="290.475650071"/>
     <use style="fill:#0000ff;stroke:#000000;" x="154.085368217" xlink:href="#me11df68bae" y="328.927451887"/>
     <use style="fill:#0000ff;stroke:#000000;" x="151.206012032" xlink:href="#me11df68bae" y="329.369121542"/>
     <use style="fill:#0000ff;stroke:#000000;" x="153.407004096" xlink:href="#me11df68bae" y="329.130176179"/>
     <use style="fill:#0000ff;stroke:#000000;" x="157.721543704" xlink:href="#me11df68bae" y="326.807553306"/>
     <use style="fill:#0000ff;stroke:#000000;" x="172.392238348" xlink:href="#me11df68bae" y="301.795024475"/>
     <use style="fill:#0000ff;stroke:#000000;" x="283.401535807" xlink:href="#me11df68bae" y="323.272625804"/>
     <use style="fill:#0000ff;stroke:#000000;" x="274.764696914" xlink:href="#me11df68bae" y="297.58486646"/>
     <use style="fill:#0000ff;stroke:#000000;" x="235.090130043" xlink:href="#me11df68bae" y="320.961132535"/>
     <use style="fill:#0000ff;stroke:#000000;" x="257.825117864" xlink:href="#me11df68bae" y="304.285136347"/>
     <use style="fill:#0000ff;stroke:#000000;" x="302.590567237" xlink:href="#me11df68bae" y="254.721050265"/>
     <use style="fill:#0000ff;stroke:#000000;" x="216.838537357" xlink:href="#me11df68bae" y="300.182752131"/>
     <use style="fill:#0000ff;stroke:#000000;" x="188.86367714" xlink:href="#me11df68bae" y="283.623053719"/>
     <use style="fill:#0000ff;stroke:#000000;" x="483.13321699" xlink:href="#me11df68bae" y="92.128880562"/>
     <use style="fill:#0000ff;stroke:#000000;" x="326.511829943" xlink:href="#me11df68bae" y="288.15653644"/>
     <use style="fill:#0000ff;stroke:#000000;" x="301.19853847" xlink:href="#me11df68bae" y="292.403455217"/>
     <use style="fill:#0000ff;stroke:#000000;" x="291.316494943" xlink:href="#me11df68bae" y="313.483149302"/>
     <use style="fill:#0000ff;stroke:#000000;" x="253.762766505" xlink:href="#me11df68bae" y="291.906399675"/>
     <use style="fill:#0000ff;stroke:#000000;" x="189.511639386" xlink:href="#me11df68bae" y="319.86487863"/>
     <use style="fill:#0000ff;stroke:#000000;" x="173.663608716" xlink:href="#me11df68bae" y="305.895736951"/>
     <use style="fill:#0000ff;stroke:#000000;" x="299.755643703" xlink:href="#me11df68bae" y="254.91373996"/>
     <use style="fill:#0000ff;stroke:#000000;" x="179.159083749" xlink:href="#me11df68bae" y="300.05824462"/>
     <use style="fill:#0000ff;stroke:#000000;" x="445.242679851" xlink:href="#me11df68bae" y="72.7394207912"/>
     <use style="fill:#0000ff;stroke:#000000;" x="228.837676201" xlink:href="#me11df68bae" y="238.347778274"/>
     <use style="fill:#0000ff;stroke:#000000;" x="161.505603065" xlink:href="#me11df68bae" y="316.077251506"/>
     <use style="fill:#0000ff;stroke:#000000;" x="175.517071828" xlink:href="#me11df68bae" y="307.390471684"/>
     <use style="fill:#0000ff;stroke:#000000;" x="331.75432395" xlink:href="#me11df68bae" y="205.389613976"/>
     <use style="fill:#0000ff;stroke:#000000;" x="279.132040903" xlink:href="#me11df68bae" y="281.830199814"/>
     <use style="fill:#0000ff;stroke:#000000;" x="247.266195362" xlink:href="#me11df68bae" y="306.122359798"/>
     <use style="fill:#0000ff;stroke:#000000;" x="162.521598115" xlink:href="#me11df68bae" y="319.920974293"/>
     <use style="fill:#0000ff;stroke:#000000;" x="162.311603444" xlink:href="#me11df68bae" y="324.42485893"/>
     <use style="fill:#0000ff;stroke:#000000;" x="167.798391898" xlink:href="#me11df68bae" y="326.795704079"/>
     <use style="fill:#0000ff;stroke:#000000;" x="153.198669808" xlink:href="#me11df68bae" y="327.769520481"/>
     <use style="fill:#0000ff;stroke:#000000;" x="372.648157228" xlink:href="#me11df68bae" y="244.737748012"/>
     <use style="fill:#0000ff;stroke:#000000;" x="290.347452513" xlink:href="#me11df68bae" y="283.971045388"/>
     <use style="fill:#0000ff;stroke:#000000;" x="184.759699" xlink:href="#me11df68bae" y="302.431954109"/>
     <use style="fill:#0000ff;stroke:#000000;" x="310.959423419" xlink:href="#me11df68bae" y="220.026561703"/>
     <use style="fill:#0000ff;stroke:#000000;" x="381.926231335" xlink:href="#me11df68bae" y="254.016666403"/>
     <use style="fill:#0000ff;stroke:#000000;" x="182.663289349" xlink:href="#me11df68bae" y="322.231916686"/>
     <use style="fill:#0000ff;stroke:#000000;" x="168.602078335" xlink:href="#me11df68bae" y="320.608288711"/>
     <use style="fill:#0000ff;stroke:#000000;" x="170.327411789" xlink:href="#me11df68bae" y="329.030097091"/>
     <use style="fill:#0000ff;stroke:#000000;" x="153.070316239" xlink:href="#me11df68bae" y="326.540939003"/>
     <use style="fill:#0000ff;stroke:#000000;" x="494.680937475" xlink:href="#me11df68bae" y="69.6708131057"/>
     <use style="fill:#0000ff;stroke:#000000;" x="166.644417844" xlink:href="#me11df68bae" y="316.909700606"/>
     <use style="fill:#0000ff;stroke:#000000;" x="285.092177523" xlink:href="#me11df68bae" y="197.500254984"/>
     <use style="fill:#0000ff;stroke:#000000;" x="168.77828676" xlink:href="#me11df68bae" y="319.317656703"/>
     <use style="fill:#0000ff;stroke:#000000;" x="186.357807216" xlink:href="#me11df68bae" y="309.942219699"/>
     <use style="fill:#0000ff;stroke:#000000;" x="159.016316472" xlink:href="#me11df68bae" y="322.176998082"/>
     <use style="fill:#0000ff;stroke:#000000;" x="206.632282207" xlink:href="#me11df68bae" y="258.239852846"/>
     <use style="fill:#0000ff;stroke:#000000;" x="335.6842442" xlink:href="#me11df68bae" y="127.634990112"/>
     <use style="fill:#0000ff;stroke:#000000;" x="316.955484722" xlink:href="#me11df68bae" y="276.882225045"/>
     <use style="fill:#0000ff;stroke:#000000;" x="274.96296706" xlink:href="#me11df68bae" y="308.837561577"/>
     <use style="fill:#0000ff;stroke:#000000;" x="227.369553188" xlink:href="#me11df68bae" y="324.405481336"/>
     <use style="fill:#0000ff;stroke:#000000;" x="190.69733687" xlink:href="#me11df68bae" y="298.562878332"/>
     <use style="fill:#0000ff;stroke:#000000;" x="311.373281774" xlink:href="#me11df68bae" y="306.442894025"/>
     <use style="fill:#0000ff;stroke:#000000;" x="180.713491734" xlink:href="#me11df68bae" y="323.990986563"/>
     <use style="fill:#0000ff;stroke:#000000;" x="254.14849215" xlink:href="#me11df68bae" y="319.202546618"/>
     <use style="fill:#0000ff;stroke:#000000;" x="233.613834479" xlink:href="#me11df68bae" y="274.206325398"/>
     <use style="fill:#0000ff;stroke:#000000;" x="266.063216729" xlink:href="#me11df68bae" y="263.313253599"/>
     <use style="fill:#0000ff;stroke:#000000;" x="336.777823777" xlink:href="#me11df68bae" y="181.084045031"/>
     <use style="fill:#0000ff;stroke:#000000;" x="338.132002987" xlink:href="#me11df68bae" y="259.662407914"/>
     <use style="fill:#0000ff;stroke:#000000;" x="264.413866506" xlink:href="#me11df68bae" y="260.291178674"/>
     <use style="fill:#0000ff;stroke:#000000;" x="273.690778277" xlink:href="#me11df68bae" y="303.722218633"/>
    </g>
   </g>
   <g id="patch_3">
    <path d="M 539.38125 368.71875 
L 539.38125 40.852625 
" style="fill:none;stroke:#000000;stroke-linecap:square;stroke-linejoin:miter;"/>
   </g>
   <g id="patch_4">
    <path d="M 83.849062 40.852625 
L 539.38125 40.852625 
" style="fill:none;stroke:#000000;stroke-linecap:square;stroke-linejoin:miter;"/>
   </g>
   <g id="patch_5">
    <path d="M 83.849063 368.71875 
L 83.849063 40.852625 
" style="fill:none;stroke:#000000;stroke-linecap:square;stroke-linejoin:miter;"/>
   </g>
   <g id="patch_6">
    <path d="M 83.849062 368.71875 
L 539.38125 368.71875 
" style="fill:none;stroke:#000000;stroke-linecap:square;stroke-linejoin:miter;"/>
   </g>
   <g id="matplotlib.axis_1">
    <g id="xtick_1">
     <g id="line2d_1">
      <defs>
       <path d="M 0 0 
L 0 -4 
" id="ma58e7a3b33" style="stroke:#000000;stroke-width:0.5;"/>
      </defs>
      <g>
       <use style="stroke:#000000;stroke-width:0.5;" x="83.8490625" xlink:href="#ma58e7a3b33" y="368.71875"/>
      </g>
     </g>
     <g id="line2d_2">
      <defs>
       <path d="M 0 0 
L 0 4 
" id="mbb8f6f3095" style="stroke:#000000;stroke-width:0.5;"/>
      </defs>
      <g>
       <use style="stroke:#000000;stroke-width:0.5;" x="83.8490625" xlink:href="#mbb8f6f3095" y="40.852625"/>
      </g>
     </g>
     <g id="text_1">
      <!-- −50 -->
      <defs>
       <path d="M 31.78125 66.40625 
Q 24.171875 66.40625 20.328125 58.90625 
Q 16.5 51.421875 16.5 36.375 
Q 16.5 21.390625 20.328125 13.890625 
Q 24.171875 6.390625 31.78125 6.390625 
Q 39.453125 6.390625 43.28125 13.890625 
Q 47.125 21.390625 47.125 36.375 
Q 47.125 51.421875 43.28125 58.90625 
Q 39.453125 66.40625 31.78125 66.40625 
M 31.78125 74.21875 
Q 44.046875 74.21875 50.515625 64.515625 
Q 56.984375 54.828125 56.984375 36.375 
Q 56.984375 17.96875 50.515625 8.265625 
Q 44.046875 -1.421875 31.78125 -1.421875 
Q 19.53125 -1.421875 13.0625 8.265625 
Q 6.59375 17.96875 6.59375 36.375 
Q 6.59375 54.828125 13.0625 64.515625 
Q 19.53125 74.21875 31.78125 74.21875 
" id="BitstreamVeraSans-Roman-30"/>
       <path d="M 10.796875 72.90625 
L 49.515625 72.90625 
L 49.515625 64.59375 
L 19.828125 64.59375 
L 19.828125 46.734375 
Q 21.96875 47.46875 24.109375 47.828125 
Q 26.265625 48.1875 28.421875 48.1875 
Q 40.625 48.1875 47.75 41.5 
Q 54.890625 34.8125 54.890625 23.390625 
Q 54.890625 11.625 47.5625 5.09375 
Q 40.234375 -1.421875 26.90625 -1.421875 
Q 22.3125 -1.421875 17.546875 -0.640625 
Q 12.796875 0.140625 7.71875 1.703125 
L 7.71875 11.625 
Q 12.109375 9.234375 16.796875 8.0625 
Q 21.484375 6.890625 26.703125 6.890625 
Q 35.15625 6.890625 40.078125 11.328125 
Q 45.015625 15.765625 45.015625 23.390625 
Q 45.015625 31 40.078125 35.4375 
Q 35.15625 39.890625 26.703125 39.890625 
Q 22.75 39.890625 18.8125 39.015625 
Q 14.890625 38.140625 10.796875 36.28125 
z
" id="BitstreamVeraSans-Roman-35"/>
       <path d="M 10.59375 35.5 
L 73.1875 35.5 
L 73.1875 27.203125 
L 10.59375 27.203125 
z
" id="BitstreamVeraSans-Roman-2212"/>
      </defs>
      <g transform="translate(64.85484375 386.3959375)scale(0.18 -0.18)">
       <use xlink:href="#BitstreamVeraSans-Roman-2212"/>
       <use x="83.7890625" xlink:href="#BitstreamVeraSans-Roman-35"/>
       <use x="147.412109375" xlink:href="#BitstreamVeraSans-Roman-30"/>
      </g>
     </g>
    </g>
    <g id="xtick_2">
     <g id="line2d_3">
      <g>
       <use style="stroke:#000000;stroke-width:0.5;" x="148.925089286" xlink:href="#ma58e7a3b33" y="368.71875"/>
      </g>
     </g>
     <g id="line2d_4">
      <g>
       <use style="stroke:#000000;stroke-width:0.5;" x="148.925089286" xlink:href="#mbb8f6f3095" y="40.852625"/>
      </g>
     </g>
     <g id="text_2">
      <!-- 0 -->
      <g transform="translate(143.198839286 386.3959375)scale(0.18 -0.18)">
       <use xlink:href="#BitstreamVeraSans-Roman-30"/>
      </g>
     </g>
    </g>
    <g id="xtick_3">
     <g id="line2d_5">
      <g>
       <use style="stroke:#000000;stroke-width:0.5;" x="214.001116071" xlink:href="#ma58e7a3b33" y="368.71875"/>
      </g>
     </g>
     <g id="line2d_6">
      <g>
       <use style="stroke:#000000;stroke-width:0.5;" x="214.001116071" xlink:href="#mbb8f6f3095" y="40.852625"/>
      </g>
     </g>
     <g id="text_3">
      <!-- 50 -->
      <g transform="translate(202.548616071 386.3959375)scale(0.18 -0.18)">
       <use xlink:href="#BitstreamVeraSans-Roman-35"/>
       <use x="63.623046875" xlink:href="#BitstreamVeraSans-Roman-30"/>
      </g>
     </g>
    </g>
    <g id="xtick_4">
     <g id="line2d_7">
      <g>
       <use style="stroke:#000000;stroke-width:0.5;" x="279.077142857" xlink:href="#ma58e7a3b33" y="368.71875"/>
      </g>
     </g>
     <g id="line2d_8">
      <g>
       <use style="stroke:#000000;stroke-width:0.5;" x="279.077142857" xlink:href="#mbb8f6f3095" y="40.852625"/>
      </g>
     </g>
     <g id="text_4">
      <!-- 100 -->
      <defs>
       <path d="M 12.40625 8.296875 
L 28.515625 8.296875 
L 28.515625 63.921875 
L 10.984375 60.40625 
L 10.984375 69.390625 
L 28.421875 72.90625 
L 38.28125 72.90625 
L 38.28125 8.296875 
L 54.390625 8.296875 
L 54.390625 0 
L 12.40625 0 
z
" id="BitstreamVeraSans-Roman-31"/>
      </defs>
      <g transform="translate(261.898392857 386.3959375)scale(0.18 -0.18)">
       <use xlink:href="#BitstreamVeraSans-Roman-31"/>
       <use x="63.623046875" xlink:href="#BitstreamVeraSans-Roman-30"/>
       <use x="127.24609375" xlink:href="#BitstreamVeraSans-Roman-30"/>
      </g>
     </g>
    </g>
    <g id="xtick_5">
     <g id="line2d_9">
      <g>
       <use style="stroke:#000000;stroke-width:0.5;" x="344.153169643" xlink:href="#ma58e7a3b33" y="368.71875"/>
      </g>
     </g>
     <g id="line2d_10">
      <g>
       <use style="stroke:#000000;stroke-width:0.5;" x="344.153169643" xlink:href="#mbb8f6f3095" y="40.852625"/>
      </g>
     </g>
     <g id="text_5">
      <!-- 150 -->
      <g transform="translate(326.974419643 386.3959375)scale(0.18 -0.18)">
       <use xlink:href="#BitstreamVeraSans-Roman-31"/>
       <use x="63.623046875" xlink:href="#BitstreamVeraSans-Roman-35"/>
       <use x="127.24609375" xlink:href="#BitstreamVeraSans-Roman-30"/>
      </g>
     </g>
    </g>
    <g id="xtick_6">
     <g id="line2d_11">
      <g>
       <use style="stroke:#000000;stroke-width:0.5;" x="409.229196429" xlink:href="#ma58e7a3b33" y="368.71875"/>
      </g>
     </g>
     <g id="line2d_12">
      <g>
       <use style="stroke:#000000;stroke-width:0.5;" x="409.229196429" xlink:href="#mbb8f6f3095" y="40.852625"/>
      </g>
     </g>
     <g id="text_6">
      <!-- 200 -->
      <defs>
       <path d="M 19.1875 8.296875 
L 53.609375 8.296875 
L 53.609375 0 
L 7.328125 0 
L 7.328125 8.296875 
Q 12.9375 14.109375 22.625 23.890625 
Q 32.328125 33.6875 34.8125 36.53125 
Q 39.546875 41.84375 41.421875 45.53125 
Q 43.3125 49.21875 43.3125 52.78125 
Q 43.3125 58.59375 39.234375 62.25 
Q 35.15625 65.921875 28.609375 65.921875 
Q 23.96875 65.921875 18.8125 64.3125 
Q 13.671875 62.703125 7.8125 59.421875 
L 7.8125 69.390625 
Q 13.765625 71.78125 18.9375 73 
Q 24.125 74.21875 28.421875 74.21875 
Q 39.75 74.21875 46.484375 68.546875 
Q 53.21875 62.890625 53.21875 53.421875 
Q 53.21875 48.921875 51.53125 44.890625 
Q 49.859375 40.875 45.40625 35.40625 
Q 44.1875 33.984375 37.640625 27.21875 
Q 31.109375 20.453125 19.1875 8.296875 
" id="BitstreamVeraSans-Roman-32"/>
      </defs>
      <g transform="translate(392.050446429 386.3959375)scale(0.18 -0.18)">
       <use xlink:href="#BitstreamVeraSans-Roman-32"/>
       <use x="63.623046875" xlink:href="#BitstreamVeraSans-Roman-30"/>
       <use x="127.24609375" xlink:href="#BitstreamVeraSans-Roman-30"/>
      </g>
     </g>
    </g>
    <g id="xtick_7">
     <g id="line2d_13">
      <g>
       <use style="stroke:#000000;stroke-width:0.5;" x="474.305223214" xlink:href="#ma58e7a3b33" y="368.71875"/>
      </g>
     </g>
     <g id="line2d_14">
      <g>
       <use style="stroke:#000000;stroke-width:0.5;" x="474.305223214" xlink:href="#mbb8f6f3095" y="40.852625"/>
      </g>
     </g>
     <g id="text_7">
      <!-- 250 -->
      <g transform="translate(457.126473214 386.3959375)scale(0.18 -0.18)">
       <use xlink:href="#BitstreamVeraSans-Roman-32"/>
       <use x="63.623046875" xlink:href="#BitstreamVeraSans-Roman-35"/>
       <use x="127.24609375" xlink:href="#BitstreamVeraSans-Roman-30"/>
      </g>
     </g>
    </g>
    <g id="xtick_8">
     <g id="line2d_15">
      <g>
       <use style="stroke:#000000;stroke-width:0.5;" x="539.38125" xlink:href="#ma58e7a3b33" y="368.71875"/>
      </g>
     </g>
     <g id="line2d_16">
      <g>
       <use style="stroke:#000000;stroke-width:0.5;" x="539.38125" xlink:href="#mbb8f6f3095" y="40.852625"/>
      </g>
     </g>
     <g id="text_8">
      <!-- 300 -->
      <defs>
       <path d="M 40.578125 39.3125 
Q 47.65625 37.796875 51.625 33 
Q 55.609375 28.21875 55.609375 21.1875 
Q 55.609375 10.40625 48.1875 4.484375 
Q 40.765625 -1.421875 27.09375 -1.421875 
Q 22.515625 -1.421875 17.65625 -0.515625 
Q 12.796875 0.390625 7.625 2.203125 
L 7.625 11.71875 
Q 11.71875 9.328125 16.59375 8.109375 
Q 21.484375 6.890625 26.8125 6.890625 
Q 36.078125 6.890625 40.9375 10.546875 
Q 45.796875 14.203125 45.796875 21.1875 
Q 45.796875 27.640625 41.28125 31.265625 
Q 36.765625 34.90625 28.71875 34.90625 
L 20.21875 34.90625 
L 20.21875 43.015625 
L 29.109375 43.015625 
Q 36.375 43.015625 40.234375 45.921875 
Q 44.09375 48.828125 44.09375 54.296875 
Q 44.09375 59.90625 40.109375 62.90625 
Q 36.140625 65.921875 28.71875 65.921875 
Q 24.65625 65.921875 20.015625 65.03125 
Q 15.375 64.15625 9.8125 62.3125 
L 9.8125 71.09375 
Q 15.4375 72.65625 20.34375 73.4375 
Q 25.25 74.21875 29.59375 74.21875 
Q 40.828125 74.21875 47.359375 69.109375 
Q 53.90625 64.015625 53.90625 55.328125 
Q 53.90625 49.265625 50.4375 45.09375 
Q 46.96875 40.921875 40.578125 39.3125 
" id="BitstreamVeraSans-Roman-33"/>
      </defs>
      <g transform="translate(522.2025 386.3959375)scale(0.18 -0.18)">
       <use xlink:href="#BitstreamVeraSans-Roman-33"/>
       <use x="63.623046875" xlink:href="#BitstreamVeraSans-Roman-30"/>
       <use x="127.24609375" xlink:href="#BitstreamVeraSans-Roman-30"/>
      </g>
     </g>
    </g>
    <g id="text_9">
     <!-- Length (um) -->
     <defs>
      <path d="M 56.203125 29.59375 
L 56.203125 25.203125 
L 14.890625 25.203125 
Q 15.484375 15.921875 20.484375 11.0625 
Q 25.484375 6.203125 34.421875 6.203125 
Q 39.59375 6.203125 44.453125 7.46875 
Q 49.3125 8.734375 54.109375 11.28125 
L 54.109375 2.78125 
Q 49.265625 0.734375 44.1875 -0.34375 
Q 39.109375 -1.421875 33.890625 -1.421875 
Q 20.796875 -1.421875 13.15625 6.1875 
Q 5.515625 13.8125 5.515625 26.8125 
Q 5.515625 40.234375 12.765625 48.109375 
Q 20.015625 56 32.328125 56 
Q 43.359375 56 49.78125 48.890625 
Q 56.203125 41.796875 56.203125 29.59375 
M 47.21875 32.234375 
Q 47.125 39.59375 43.09375 43.984375 
Q 39.0625 48.390625 32.421875 48.390625 
Q 24.90625 48.390625 20.390625 44.140625 
Q 15.875 39.890625 15.1875 32.171875 
z
" id="BitstreamVeraSans-Roman-65"/>
      <path d="M 8.015625 75.875 
L 15.828125 75.875 
Q 23.140625 64.359375 26.78125 53.3125 
Q 30.421875 42.28125 30.421875 31.390625 
Q 30.421875 20.453125 26.78125 9.375 
Q 23.140625 -1.703125 15.828125 -13.1875 
L 8.015625 -13.1875 
Q 14.5 -2 17.703125 9.0625 
Q 20.90625 20.125 20.90625 31.390625 
Q 20.90625 42.671875 17.703125 53.65625 
Q 14.5 64.65625 8.015625 75.875 
" id="BitstreamVeraSans-Roman-29"/>
      <path id="BitstreamVeraSans-Roman-20"/>
      <path d="M 8.5 21.578125 
L 8.5 54.6875 
L 17.484375 54.6875 
L 17.484375 21.921875 
Q 17.484375 14.15625 20.5 10.265625 
Q 23.53125 6.390625 29.59375 6.390625 
Q 36.859375 6.390625 41.078125 11.03125 
Q 45.3125 15.671875 45.3125 23.6875 
L 45.3125 54.6875 
L 54.296875 54.6875 
L 54.296875 0 
L 45.3125 0 
L 45.3125 8.40625 
Q 42.046875 3.421875 37.71875 1 
Q 33.40625 -1.421875 27.6875 -1.421875 
Q 18.265625 -1.421875 13.375 4.4375 
Q 8.5 10.296875 8.5 21.578125 
" id="BitstreamVeraSans-Roman-75"/>
      <path d="M 52 44.1875 
Q 55.375 50.25 60.0625 53.125 
Q 64.75 56 71.09375 56 
Q 79.640625 56 84.28125 50.015625 
Q 88.921875 44.046875 88.921875 33.015625 
L 88.921875 0 
L 79.890625 0 
L 79.890625 32.71875 
Q 79.890625 40.578125 77.09375 44.375 
Q 74.3125 48.1875 68.609375 48.1875 
Q 61.625 48.1875 57.5625 43.546875 
Q 53.515625 38.921875 53.515625 30.90625 
L 53.515625 0 
L 44.484375 0 
L 44.484375 32.71875 
Q 44.484375 40.625 41.703125 44.40625 
Q 38.921875 48.1875 33.109375 48.1875 
Q 26.21875 48.1875 22.15625 43.53125 
Q 18.109375 38.875 18.109375 30.90625 
L 18.109375 0 
L 9.078125 0 
L 9.078125 54.6875 
L 18.109375 54.6875 
L 18.109375 46.1875 
Q 21.1875 51.21875 25.484375 53.609375 
Q 29.78125 56 35.6875 56 
Q 41.65625 56 45.828125 52.96875 
Q 50 49.953125 52 44.1875 
" id="BitstreamVeraSans-Roman-6d"/>
      <path d="M 18.3125 70.21875 
L 18.3125 54.6875 
L 36.8125 54.6875 
L 36.8125 47.703125 
L 18.3125 47.703125 
L 18.3125 18.015625 
Q 18.3125 11.328125 20.140625 9.421875 
Q 21.96875 7.515625 27.59375 7.515625 
L 36.8125 7.515625 
L 36.8125 0 
L 27.59375 0 
Q 17.1875 0 13.234375 3.875 
Q 9.28125 7.765625 9.28125 18.015625 
L 9.28125 47.703125 
L 2.6875 47.703125 
L 2.6875 54.6875 
L 9.28125 54.6875 
L 9.28125 70.21875 
z
" id="BitstreamVeraSans-Roman-74"/>
      <path d="M 54.890625 33.015625 
L 54.890625 0 
L 45.90625 0 
L 45.90625 32.71875 
Q 45.90625 40.484375 42.875 44.328125 
Q 39.84375 48.1875 33.796875 48.1875 
Q 26.515625 48.1875 22.3125 43.546875 
Q 18.109375 38.921875 18.109375 30.90625 
L 18.109375 0 
L 9.078125 0 
L 9.078125 75.984375 
L 18.109375 75.984375 
L 18.109375 46.1875 
Q 21.34375 51.125 25.703125 53.5625 
Q 30.078125 56 35.796875 56 
Q 45.21875 56 50.046875 50.171875 
Q 54.890625 44.34375 54.890625 33.015625 
" id="BitstreamVeraSans-Roman-68"/>
      <path d="M 54.890625 33.015625 
L 54.890625 0 
L 45.90625 0 
L 45.90625 32.71875 
Q 45.90625 40.484375 42.875 44.328125 
Q 39.84375 48.1875 33.796875 48.1875 
Q 26.515625 48.1875 22.3125 43.546875 
Q 18.109375 38.921875 18.109375 30.90625 
L 18.109375 0 
L 9.078125 0 
L 9.078125 54.6875 
L 18.109375 54.6875 
L 18.109375 46.1875 
Q 21.34375 51.125 25.703125 53.5625 
Q 30.078125 56 35.796875 56 
Q 45.21875 56 50.046875 50.171875 
Q 54.890625 44.34375 54.890625 33.015625 
" id="BitstreamVeraSans-Roman-6e"/>
      <path d="M 45.40625 27.984375 
Q 45.40625 37.75 41.375 43.109375 
Q 37.359375 48.484375 30.078125 48.484375 
Q 22.859375 48.484375 18.828125 43.109375 
Q 14.796875 37.75 14.796875 27.984375 
Q 14.796875 18.265625 18.828125 12.890625 
Q 22.859375 7.515625 30.078125 7.515625 
Q 37.359375 7.515625 41.375 12.890625 
Q 45.40625 18.265625 45.40625 27.984375 
M 54.390625 6.78125 
Q 54.390625 -7.171875 48.1875 -13.984375 
Q 42 -20.796875 29.203125 -20.796875 
Q 24.46875 -20.796875 20.265625 -20.09375 
Q 16.0625 -19.390625 12.109375 -17.921875 
L 12.109375 -9.1875 
Q 16.0625 -11.328125 19.921875 -12.34375 
Q 23.78125 -13.375 27.78125 -13.375 
Q 36.625 -13.375 41.015625 -8.765625 
Q 45.40625 -4.15625 45.40625 5.171875 
L 45.40625 9.625 
Q 42.625 4.78125 38.28125 2.390625 
Q 33.9375 0 27.875 0 
Q 17.828125 0 11.671875 7.65625 
Q 5.515625 15.328125 5.515625 27.984375 
Q 5.515625 40.671875 11.671875 48.328125 
Q 17.828125 56 27.875 56 
Q 33.9375 56 38.28125 53.609375 
Q 42.625 51.21875 45.40625 46.390625 
L 45.40625 54.6875 
L 54.390625 54.6875 
z
" id="BitstreamVeraSans-Roman-67"/>
      <path d="M 9.8125 72.90625 
L 19.671875 72.90625 
L 19.671875 8.296875 
L 55.171875 8.296875 
L 55.171875 0 
L 9.8125 0 
z
" id="BitstreamVeraSans-Roman-4c"/>
      <path d="M 31 75.875 
Q 24.46875 64.65625 21.28125 53.65625 
Q 18.109375 42.671875 18.109375 31.390625 
Q 18.109375 20.125 21.3125 9.0625 
Q 24.515625 -2 31 -13.1875 
L 23.1875 -13.1875 
Q 15.875 -1.703125 12.234375 9.375 
Q 8.59375 20.453125 8.59375 31.390625 
Q 8.59375 42.28125 12.203125 53.3125 
Q 15.828125 64.359375 23.1875 75.875 
z
" id="BitstreamVeraSans-Roman-28"/>
     </defs>
     <g transform="translate(256.06125 408.8165625)scale(0.18 -0.18)">
      <use xlink:href="#BitstreamVeraSans-Roman-4c"/>
      <use x="55.697265625" xlink:href="#BitstreamVeraSans-Roman-65"/>
      <use x="117.220703125" xlink:href="#BitstreamVeraSans-Roman-6e"/>
      <use x="180.599609375" xlink:href="#BitstreamVeraSans-Roman-67"/>
      <use x="244.076171875" xlink:href="#BitstreamVeraSans-Roman-74"/>
      <use x="283.28515625" xlink:href="#BitstreamVeraSans-Roman-68"/>
      <use x="346.6640625" xlink:href="#BitstreamVeraSans-Roman-20"/>
      <use x="378.451171875" xlink:href="#BitstreamVeraSans-Roman-28"/>
      <use x="417.46484375" xlink:href="#BitstreamVeraSans-Roman-75"/>
      <use x="480.84375" xlink:href="#BitstreamVeraSans-Roman-6d"/>
      <use x="578.255859375" xlink:href="#BitstreamVeraSans-Roman-29"/>
     </g>
    </g>
   </g>
   <g id="matplotlib.axis_2">
    <g id="ytick_1">
     <g id="line2d_17">
      <defs>
       <path d="M 0 0 
L 4 0 
" id="m77a40a7216" style="stroke:#000000;stroke-width:0.5;"/>
      </defs>
      <g>
       <use style="stroke:#000000;stroke-width:0.5;" x="83.8490625" xlink:href="#m77a40a7216" y="368.71875"/>
      </g>
     </g>
     <g id="line2d_18">
      <defs>
       <path d="M 0 0 
L -4 0 
" id="m3f7943b182" style="stroke:#000000;stroke-width:0.5;"/>
      </defs>
      <g>
       <use style="stroke:#000000;stroke-width:0.5;" x="539.38125" xlink:href="#m3f7943b182" y="368.71875"/>
      </g>
     </g>
     <g id="text_10">
      <!-- −20 -->
      <g transform="translate(41.860625 373.685625)scale(0.18 -0.18)">
       <use xlink:href="#BitstreamVeraSans-Roman-2212"/>
       <use x="83.7890625" xlink:href="#BitstreamVeraSans-Roman-32"/>
       <use x="147.412109375" xlink:href="#BitstreamVeraSans-Roman-30"/>
      </g>
     </g>
    </g>
    <g id="ytick_2">
     <g id="line2d_19">
      <g>
       <use style="stroke:#000000;stroke-width:0.5;" x="83.8490625" xlink:href="#m77a40a7216" y="332.289180556"/>
      </g>
     </g>
     <g id="line2d_20">
      <g>
       <use style="stroke:#000000;stroke-width:0.5;" x="539.38125" xlink:href="#m3f7943b182" y="332.289180556"/>
      </g>
     </g>
     <g id="text_11">
      <!-- 0 -->
      <g transform="translate(68.3965625 337.256055556)scale(0.18 -0.18)">
       <use xlink:href="#BitstreamVeraSans-Roman-30"/>
      </g>
     </g>
    </g>
    <g id="ytick_3">
     <g id="line2d_21">
      <g>
       <use style="stroke:#000000;stroke-width:0.5;" x="83.8490625" xlink:href="#m77a40a7216" y="295.859611111"/>
      </g>
     </g>
     <g id="line2d_22">
      <g>
       <use style="stroke:#000000;stroke-width:0.5;" x="539.38125" xlink:href="#m3f7943b182" y="295.859611111"/>
      </g>
     </g>
     <g id="text_12">
      <!-- 20 -->
      <g transform="translate(56.9440625 300.826486111)scale(0.18 -0.18)">
       <use xlink:href="#BitstreamVeraSans-Roman-32"/>
       <use x="63.623046875" xlink:href="#BitstreamVeraSans-Roman-30"/>
      </g>
     </g>
    </g>
    <g id="ytick_4">
     <g id="line2d_23">
      <g>
       <use style="stroke:#000000;stroke-width:0.5;" x="83.8490625" xlink:href="#m77a40a7216" y="259.430041667"/>
      </g>
     </g>
     <g id="line2d_24">
      <g>
       <use style="stroke:#000000;stroke-width:0.5;" x="539.38125" xlink:href="#m3f7943b182" y="259.430041667"/>
      </g>
     </g>
     <g id="text_13">
      <!-- 40 -->
      <defs>
       <path d="M 37.796875 64.3125 
L 12.890625 25.390625 
L 37.796875 25.390625 
z
M 35.203125 72.90625 
L 47.609375 72.90625 
L 47.609375 25.390625 
L 58.015625 25.390625 
L 58.015625 17.1875 
L 47.609375 17.1875 
L 47.609375 0 
L 37.796875 0 
L 37.796875 17.1875 
L 4.890625 17.1875 
L 4.890625 26.703125 
z
" id="BitstreamVeraSans-Roman-34"/>
      </defs>
      <g transform="translate(56.9440625 264.396916667)scale(0.18 -0.18)">
       <use xlink:href="#BitstreamVeraSans-Roman-34"/>
       <use x="63.623046875" xlink:href="#BitstreamVeraSans-Roman-30"/>
      </g>
     </g>
    </g>
    <g id="ytick_5">
     <g id="line2d_25">
      <g>
       <use style="stroke:#000000;stroke-width:0.5;" x="83.8490625" xlink:href="#m77a40a7216" y="223.000472222"/>
      </g>
     </g>
     <g id="line2d_26">
      <g>
       <use style="stroke:#000000;stroke-width:0.5;" x="539.38125" xlink:href="#m3f7943b182" y="223.000472222"/>
      </g>
     </g>
     <g id="text_14">
      <!-- 60 -->
      <defs>
       <path d="M 33.015625 40.375 
Q 26.375 40.375 22.484375 35.828125 
Q 18.609375 31.296875 18.609375 23.390625 
Q 18.609375 15.53125 22.484375 10.953125 
Q 26.375 6.390625 33.015625 6.390625 
Q 39.65625 6.390625 43.53125 10.953125 
Q 47.40625 15.53125 47.40625 23.390625 
Q 47.40625 31.296875 43.53125 35.828125 
Q 39.65625 40.375 33.015625 40.375 
M 52.59375 71.296875 
L 52.59375 62.3125 
Q 48.875 64.0625 45.09375 64.984375 
Q 41.3125 65.921875 37.59375 65.921875 
Q 27.828125 65.921875 22.671875 59.328125 
Q 17.53125 52.734375 16.796875 39.40625 
Q 19.671875 43.65625 24.015625 45.921875 
Q 28.375 48.1875 33.59375 48.1875 
Q 44.578125 48.1875 50.953125 41.515625 
Q 57.328125 34.859375 57.328125 23.390625 
Q 57.328125 12.15625 50.6875 5.359375 
Q 44.046875 -1.421875 33.015625 -1.421875 
Q 20.359375 -1.421875 13.671875 8.265625 
Q 6.984375 17.96875 6.984375 36.375 
Q 6.984375 53.65625 15.1875 63.9375 
Q 23.390625 74.21875 37.203125 74.21875 
Q 40.921875 74.21875 44.703125 73.484375 
Q 48.484375 72.75 52.59375 71.296875 
" id="BitstreamVeraSans-Roman-36"/>
      </defs>
      <g transform="translate(56.9440625 227.967347222)scale(0.18 -0.18)">
       <use xlink:href="#BitstreamVeraSans-Roman-36"/>
       <use x="63.623046875" xlink:href="#BitstreamVeraSans-Roman-30"/>
      </g>
     </g>
    </g>
    <g id="ytick_6">
     <g id="line2d_27">
      <g>
       <use style="stroke:#000000;stroke-width:0.5;" x="83.8490625" xlink:href="#m77a40a7216" y="186.570902778"/>
      </g>
     </g>
     <g id="line2d_28">
      <g>
       <use style="stroke:#000000;stroke-width:0.5;" x="539.38125" xlink:href="#m3f7943b182" y="186.570902778"/>
      </g>
     </g>
     <g id="text_15">
      <!-- 80 -->
      <defs>
       <path d="M 31.78125 34.625 
Q 24.75 34.625 20.71875 30.859375 
Q 16.703125 27.09375 16.703125 20.515625 
Q 16.703125 13.921875 20.71875 10.15625 
Q 24.75 6.390625 31.78125 6.390625 
Q 38.8125 6.390625 42.859375 10.171875 
Q 46.921875 13.96875 46.921875 20.515625 
Q 46.921875 27.09375 42.890625 30.859375 
Q 38.875 34.625 31.78125 34.625 
M 21.921875 38.8125 
Q 15.578125 40.375 12.03125 44.71875 
Q 8.5 49.078125 8.5 55.328125 
Q 8.5 64.0625 14.71875 69.140625 
Q 20.953125 74.21875 31.78125 74.21875 
Q 42.671875 74.21875 48.875 69.140625 
Q 55.078125 64.0625 55.078125 55.328125 
Q 55.078125 49.078125 51.53125 44.71875 
Q 48 40.375 41.703125 38.8125 
Q 48.828125 37.15625 52.796875 32.3125 
Q 56.78125 27.484375 56.78125 20.515625 
Q 56.78125 9.90625 50.3125 4.234375 
Q 43.84375 -1.421875 31.78125 -1.421875 
Q 19.734375 -1.421875 13.25 4.234375 
Q 6.78125 9.90625 6.78125 20.515625 
Q 6.78125 27.484375 10.78125 32.3125 
Q 14.796875 37.15625 21.921875 38.8125 
M 18.3125 54.390625 
Q 18.3125 48.734375 21.84375 45.5625 
Q 25.390625 42.390625 31.78125 42.390625 
Q 38.140625 42.390625 41.71875 45.5625 
Q 45.3125 48.734375 45.3125 54.390625 
Q 45.3125 60.0625 41.71875 63.234375 
Q 38.140625 66.40625 31.78125 66.40625 
Q 25.390625 66.40625 21.84375 63.234375 
Q 18.3125 60.0625 18.3125 54.390625 
" id="BitstreamVeraSans-Roman-38"/>
      </defs>
      <g transform="translate(56.9440625 191.537777778)scale(0.18 -0.18)">
       <use xlink:href="#BitstreamVeraSans-Roman-38"/>
       <use x="63.623046875" xlink:href="#BitstreamVeraSans-Roman-30"/>
      </g>
     </g>
    </g>
    <g id="ytick_7">
     <g id="line2d_29">
      <g>
       <use style="stroke:#000000;stroke-width:0.5;" x="83.8490625" xlink:href="#m77a40a7216" y="150.141333333"/>
      </g>
     </g>
     <g id="line2d_30">
      <g>
       <use style="stroke:#000000;stroke-width:0.5;" x="539.38125" xlink:href="#m3f7943b182" y="150.141333333"/>
      </g>
     </g>
     <g id="text_16">
      <!-- 100 -->
      <g transform="translate(45.4915625 155.108208333)scale(0.18 -0.18)">
       <use xlink:href="#BitstreamVeraSans-Roman-31"/>
       <use x="63.623046875" xlink:href="#BitstreamVeraSans-Roman-30"/>
       <use x="127.24609375" xlink:href="#BitstreamVeraSans-Roman-30"/>
      </g>
     </g>
    </g>
    <g id="ytick_8">
     <g id="line2d_31">
      <g>
       <use style="stroke:#000000;stroke-width:0.5;" x="83.8490625" xlink:href="#m77a40a7216" y="113.711763889"/>
      </g>
     </g>
     <g id="line2d_32">
      <g>
       <use style="stroke:#000000;stroke-width:0.5;" x="539.38125" xlink:href="#m3f7943b182" y="113.711763889"/>
      </g>
     </g>
     <g id="text_17">
      <!-- 120 -->
      <g transform="translate(45.4915625 118.678638889)scale(0.18 -0.18)">
       <use xlink:href="#BitstreamVeraSans-Roman-31"/>
       <use x="63.623046875" xlink:href="#BitstreamVeraSans-Roman-32"/>
       <use x="127.24609375" xlink:href="#BitstreamVeraSans-Roman-30"/>
      </g>
     </g>
    </g>
    <g id="ytick_9">
     <g id="line2d_33">
      <g>
       <use style="stroke:#000000;stroke-width:0.5;" x="83.8490625" xlink:href="#m77a40a7216" y="77.2821944444"/>
      </g>
     </g>
     <g id="line2d_34">
      <g>
       <use style="stroke:#000000;stroke-width:0.5;" x="539.38125" xlink:href="#m3f7943b182" y="77.2821944444"/>
      </g>
     </g>
     <g id="text_18">
      <!-- 140 -->
      <g transform="translate(45.4915625 82.2490694444)scale(0.18 -0.18)">
       <use xlink:href="#BitstreamVeraSans-Roman-31"/>
       <use x="63.623046875" xlink:href="#BitstreamVeraSans-Roman-34"/>
       <use x="127.24609375" xlink:href="#BitstreamVeraSans-Roman-30"/>
      </g>
     </g>
    </g>
    <g id="ytick_10">
     <g id="line2d_35">
      <g>
       <use style="stroke:#000000;stroke-width:0.5;" x="83.8490625" xlink:href="#m77a40a7216" y="40.852625"/>
      </g>
     </g>
     <g id="line2d_36">
      <g>
       <use style="stroke:#000000;stroke-width:0.5;" x="539.38125" xlink:href="#m3f7943b182" y="40.852625"/>
      </g>
     </g>
     <g id="text_19">
      <!-- 160 -->
      <g transform="translate(45.4915625 45.8195)scale(0.18 -0.18)">
       <use xlink:href="#BitstreamVeraSans-Roman-31"/>
       <use x="63.623046875" xlink:href="#BitstreamVeraSans-Roman-36"/>
       <use x="127.24609375" xlink:href="#BitstreamVeraSans-Roman-30"/>
      </g>
     </g>
    </g>
    <g id="text_20">
     <!-- Displacement (um) -->
     <defs>
      <path d="M 19.671875 64.796875 
L 19.671875 8.109375 
L 31.59375 8.109375 
Q 46.6875 8.109375 53.6875 14.9375 
Q 60.6875 21.78125 60.6875 36.53125 
Q 60.6875 51.171875 53.6875 57.984375 
Q 46.6875 64.796875 31.59375 64.796875 
z
M 9.8125 72.90625 
L 30.078125 72.90625 
Q 51.265625 72.90625 61.171875 64.09375 
Q 71.09375 55.28125 71.09375 36.53125 
Q 71.09375 17.671875 61.125 8.828125 
Q 51.171875 0 30.078125 0 
L 9.8125 0 
z
" id="BitstreamVeraSans-Roman-44"/>
      <path d="M 34.28125 27.484375 
Q 23.390625 27.484375 19.1875 25 
Q 14.984375 22.515625 14.984375 16.5 
Q 14.984375 11.71875 18.140625 8.90625 
Q 21.296875 6.109375 26.703125 6.109375 
Q 34.1875 6.109375 38.703125 11.40625 
Q 43.21875 16.703125 43.21875 25.484375 
L 43.21875 27.484375 
z
M 52.203125 31.203125 
L 52.203125 0 
L 43.21875 0 
L 43.21875 8.296875 
Q 40.140625 3.328125 35.546875 0.953125 
Q 30.953125 -1.421875 24.3125 -1.421875 
Q 15.921875 -1.421875 10.953125 3.296875 
Q 6 8.015625 6 15.921875 
Q 6 25.140625 12.171875 29.828125 
Q 18.359375 34.515625 30.609375 34.515625 
L 43.21875 34.515625 
L 43.21875 35.40625 
Q 43.21875 41.609375 39.140625 45 
Q 35.0625 48.390625 27.6875 48.390625 
Q 23 48.390625 18.546875 47.265625 
Q 14.109375 46.140625 10.015625 43.890625 
L 10.015625 52.203125 
Q 14.9375 54.109375 19.578125 55.046875 
Q 24.21875 56 28.609375 56 
Q 40.484375 56 46.34375 49.84375 
Q 52.203125 43.703125 52.203125 31.203125 
" id="BitstreamVeraSans-Roman-61"/>
      <path d="M 9.421875 75.984375 
L 18.40625 75.984375 
L 18.40625 0 
L 9.421875 0 
z
" id="BitstreamVeraSans-Roman-6c"/>
      <path d="M 18.109375 8.203125 
L 18.109375 -20.796875 
L 9.078125 -20.796875 
L 9.078125 54.6875 
L 18.109375 54.6875 
L 18.109375 46.390625 
Q 20.953125 51.265625 25.265625 53.625 
Q 29.59375 56 35.59375 56 
Q 45.5625 56 51.78125 48.09375 
Q 58.015625 40.1875 58.015625 27.296875 
Q 58.015625 14.40625 51.78125 6.484375 
Q 45.5625 -1.421875 35.59375 -1.421875 
Q 29.59375 -1.421875 25.265625 0.953125 
Q 20.953125 3.328125 18.109375 8.203125 
M 48.6875 27.296875 
Q 48.6875 37.203125 44.609375 42.84375 
Q 40.53125 48.484375 33.40625 48.484375 
Q 26.265625 48.484375 22.1875 42.84375 
Q 18.109375 37.203125 18.109375 27.296875 
Q 18.109375 17.390625 22.1875 11.75 
Q 26.265625 6.109375 33.40625 6.109375 
Q 40.53125 6.109375 44.609375 11.75 
Q 48.6875 17.390625 48.6875 27.296875 
" id="BitstreamVeraSans-Roman-70"/>
      <path d="M 48.78125 52.59375 
L 48.78125 44.1875 
Q 44.96875 46.296875 41.140625 47.34375 
Q 37.3125 48.390625 33.40625 48.390625 
Q 24.65625 48.390625 19.8125 42.84375 
Q 14.984375 37.3125 14.984375 27.296875 
Q 14.984375 17.28125 19.8125 11.734375 
Q 24.65625 6.203125 33.40625 6.203125 
Q 37.3125 6.203125 41.140625 7.25 
Q 44.96875 8.296875 48.78125 10.40625 
L 48.78125 2.09375 
Q 45.015625 0.34375 40.984375 -0.53125 
Q 36.96875 -1.421875 32.421875 -1.421875 
Q 20.0625 -1.421875 12.78125 6.34375 
Q 5.515625 14.109375 5.515625 27.296875 
Q 5.515625 40.671875 12.859375 48.328125 
Q 20.21875 56 33.015625 56 
Q 37.15625 56 41.109375 55.140625 
Q 45.0625 54.296875 48.78125 52.59375 
" id="BitstreamVeraSans-Roman-63"/>
      <path d="M 44.28125 53.078125 
L 44.28125 44.578125 
Q 40.484375 46.53125 36.375 47.5 
Q 32.28125 48.484375 27.875 48.484375 
Q 21.1875 48.484375 17.84375 46.4375 
Q 14.5 44.390625 14.5 40.28125 
Q 14.5 37.15625 16.890625 35.375 
Q 19.28125 33.59375 26.515625 31.984375 
L 29.59375 31.296875 
Q 39.15625 29.25 43.1875 25.515625 
Q 47.21875 21.78125 47.21875 15.09375 
Q 47.21875 7.46875 41.1875 3.015625 
Q 35.15625 -1.421875 24.609375 -1.421875 
Q 20.21875 -1.421875 15.453125 -0.5625 
Q 10.6875 0.296875 5.421875 2 
L 5.421875 11.28125 
Q 10.40625 8.6875 15.234375 7.390625 
Q 20.0625 6.109375 24.8125 6.109375 
Q 31.15625 6.109375 34.5625 8.28125 
Q 37.984375 10.453125 37.984375 14.40625 
Q 37.984375 18.0625 35.515625 20.015625 
Q 33.0625 21.96875 24.703125 23.78125 
L 21.578125 24.515625 
Q 13.234375 26.265625 9.515625 29.90625 
Q 5.8125 33.546875 5.8125 39.890625 
Q 5.8125 47.609375 11.28125 51.796875 
Q 16.75 56 26.8125 56 
Q 31.78125 56 36.171875 55.265625 
Q 40.578125 54.546875 44.28125 53.078125 
" id="BitstreamVeraSans-Roman-73"/>
      <path d="M 9.421875 54.6875 
L 18.40625 54.6875 
L 18.40625 0 
L 9.421875 0 
z
M 9.421875 75.984375 
L 18.40625 75.984375 
L 18.40625 64.59375 
L 9.421875 64.59375 
z
" id="BitstreamVeraSans-Roman-69"/>
     </defs>
     <g transform="translate(33.1171875 291.00990625)rotate(-90.0)scale(0.18 -0.18)">
      <use xlink:href="#BitstreamVeraSans-Roman-44"/>
      <use x="77.001953125" xlink:href="#BitstreamVeraSans-Roman-69"/>
      <use x="104.78515625" xlink:href="#BitstreamVeraSans-Roman-73"/>
      <use x="156.884765625" xlink:href="#BitstreamVeraSans-Roman-70"/>
      <use x="220.361328125" xlink:href="#BitstreamVeraSans-Roman-6c"/>
      <use x="248.14453125" xlink:href="#BitstreamVeraSans-Roman-61"/>
      <use x="309.423828125" xlink:href="#BitstreamVeraSans-Roman-63"/>
      <use x="364.404296875" xlink:href="#BitstreamVeraSans-Roman-65"/>
      <use x="425.927734375" xlink:href="#BitstreamVeraSans-Roman-6d"/>
      <use x="523.33984375" xlink:href="#BitstreamVeraSans-Roman-65"/>
      <use x="584.86328125" xlink:href="#BitstreamVeraSans-Roman-6e"/>
      <use x="648.2421875" xlink:href="#BitstreamVeraSans-Roman-74"/>
      <use x="687.451171875" xlink:href="#BitstreamVeraSans-Roman-20"/>
      <use x="719.23828125" xlink:href="#BitstreamVeraSans-Roman-28"/>
      <use x="758.251953125" xlink:href="#BitstreamVeraSans-Roman-75"/>
      <use x="821.630859375" xlink:href="#BitstreamVeraSans-Roman-6d"/>
      <use x="919.04296875" xlink:href="#BitstreamVeraSans-Roman-29"/>
     </g>
    </g>
   </g>
   <g id="text_21">
    <!-- rho =  0.76; pval =  0.00 -->
    <defs>
     <path d="M 10.6875 12.40625 
L 21 12.40625 
L 21 0 
L 10.6875 0 
z
" id="BitstreamVeraSans-Roman-2e"/>
     <path d="M 30.609375 48.390625 
Q 23.390625 48.390625 19.1875 42.75 
Q 14.984375 37.109375 14.984375 27.296875 
Q 14.984375 17.484375 19.15625 11.84375 
Q 23.34375 6.203125 30.609375 6.203125 
Q 37.796875 6.203125 41.984375 11.859375 
Q 46.1875 17.53125 46.1875 27.296875 
Q 46.1875 37.015625 41.984375 42.703125 
Q 37.796875 48.390625 30.609375 48.390625 
M 30.609375 56 
Q 42.328125 56 49.015625 48.375 
Q 55.71875 40.765625 55.71875 27.296875 
Q 55.71875 13.875 49.015625 6.21875 
Q 42.328125 -1.421875 30.609375 -1.421875 
Q 18.84375 -1.421875 12.171875 6.21875 
Q 5.515625 13.875 5.515625 27.296875 
Q 5.515625 40.765625 12.171875 48.375 
Q 18.84375 56 30.609375 56 
" id="BitstreamVeraSans-Roman-6f"/>
     <path d="M 8.203125 72.90625 
L 55.078125 72.90625 
L 55.078125 68.703125 
L 28.609375 0 
L 18.3125 0 
L 43.21875 64.59375 
L 8.203125 64.59375 
z
" id="BitstreamVeraSans-Roman-37"/>
     <path d="M 2.984375 54.6875 
L 12.5 54.6875 
L 29.59375 8.796875 
L 46.6875 54.6875 
L 56.203125 54.6875 
L 35.6875 0 
L 23.484375 0 
z
" id="BitstreamVeraSans-Roman-76"/>
     <path d="M 11.71875 51.703125 
L 22.015625 51.703125 
L 22.015625 39.3125 
L 11.71875 39.3125 
z
M 11.71875 12.40625 
L 22.015625 12.40625 
L 22.015625 4 
L 14.015625 -11.625 
L 7.71875 -11.625 
L 11.71875 4 
z
" id="BitstreamVeraSans-Roman-3b"/>
     <path d="M 10.59375 45.40625 
L 73.1875 45.40625 
L 73.1875 37.203125 
L 10.59375 37.203125 
z
M 10.59375 25.484375 
L 73.1875 25.484375 
L 73.1875 17.1875 
L 10.59375 17.1875 
z
" id="BitstreamVeraSans-Roman-3d"/>
     <path d="M 41.109375 46.296875 
Q 39.59375 47.171875 37.8125 47.578125 
Q 36.03125 48 33.890625 48 
Q 26.265625 48 22.1875 43.046875 
Q 18.109375 38.09375 18.109375 28.8125 
L 18.109375 0 
L 9.078125 0 
L 9.078125 54.6875 
L 18.109375 54.6875 
L 18.109375 46.1875 
Q 20.953125 51.171875 25.484375 53.578125 
Q 30.03125 56 36.53125 56 
Q 37.453125 56 38.578125 55.875 
Q 39.703125 55.765625 41.0625 55.515625 
z
" id="BitstreamVeraSans-Roman-72"/>
    </defs>
    <g transform="translate(176.99821875 35.852625)scale(0.21599999999999997 -0.21599999999999997)">
     <use xlink:href="#BitstreamVeraSans-Roman-72"/>
     <use x="41.09765625" xlink:href="#BitstreamVeraSans-Roman-68"/>
     <use x="104.4765625" xlink:href="#BitstreamVeraSans-Roman-6f"/>
     <use x="165.658203125" xlink:href="#BitstreamVeraSans-Roman-20"/>
     <use x="197.4453125" xlink:href="#BitstreamVeraSans-Roman-3d"/>
     <use x="281.234375" xlink:href="#BitstreamVeraSans-Roman-20"/>
     <use x="313.021484375" xlink:href="#BitstreamVeraSans-Roman-20"/>
     <use x="344.80859375" xlink:href="#BitstreamVeraSans-Roman-30"/>
     <use x="408.431640625" xlink:href="#BitstreamVeraSans-Roman-2e"/>
     <use x="440.21875" xlink:href="#BitstreamVeraSans-Roman-37"/>
     <use x="503.841796875" xlink:href="#BitstreamVeraSans-Roman-36"/>
     <use x="567.46484375" xlink:href="#BitstreamVeraSans-Roman-3b"/>
     <use x="601.15625" xlink:href="#BitstreamVeraSans-Roman-20"/>
     <use x="632.943359375" xlink:href="#BitstreamVeraSans-Roman-70"/>
     <use x="696.419921875" xlink:href="#BitstreamVeraSans-Roman-76"/>
     <use x="755.599609375" xlink:href="#BitstreamVeraSans-Roman-61"/>
     <use x="816.87890625" xlink:href="#BitstreamVeraSans-Roman-6c"/>
     <use x="844.662109375" xlink:href="#BitstreamVeraSans-Roman-20"/>
     <use x="876.44921875" xlink:href="#BitstreamVeraSans-Roman-3d"/>
     <use x="960.23828125" xlink:href="#BitstreamVeraSans-Roman-20"/>
     <use x="992.025390625" xlink:href="#BitstreamVeraSans-Roman-20"/>
     <use x="1023.8125" xlink:href="#BitstreamVeraSans-Roman-30"/>
     <use x="1087.435546875" xlink:href="#BitstreamVeraSans-Roman-2e"/>
     <use x="1119.22265625" xlink:href="#BitstreamVeraSans-Roman-30"/>
     <use x="1182.845703125" xlink:href="#BitstreamVeraSans-Roman-30"/>
    </g>
   </g>
  </g>
 </g>
 <defs>
  <clipPath id="p033788756a">
   <rect height="327.866125" width="455.5321875" x="83.8490625" y="40.852625"/>
  </clipPath>
 </defs>
</svg>
